<?xml version="1.0" encoding="UTF-8" standalone="no"?>
<!DOCTYPE svg PUBLIC "-//W3C//DTD SVG 1.1//EN"
 "http://www.w3.org/Graphics/SVG/1.1/DTD/svg11.dtd">
<!-- Generated by graphviz version 2.26.3 (20100126.1600)
 -->
<!-- Title: HEmptyPathCondition_HS2S Pages: 1 -->
<svg width="784pt" height="888pt"
 viewBox="0.00 0.00 784.00 888.00" xmlns="http://www.w3.org/2000/svg" xmlns:xlink="http://www.w3.org/1999/xlink">
<g id="graph1" class="graph" transform="scale(1 1) rotate(0) translate(4 884)">
<title>HEmptyPathCondition_HS2S</title>
<polygon fill="white" stroke="white" points="-4,5 -4,-884 781,-884 781,5 -4,5"/>
<!-- apply_contains0 -->
<g id="node1" class="node"><title>apply_contains0</title>
<ellipse fill="#fcdb58" stroke="black" cx="495" cy="-639" rx="90.0096" ry="18.3848"/>
<text text-anchor="middle" x="495" y="-635.4" font-family="Times Roman,serif" font-size="14.00">apply_contains0</text>
</g>
<!-- Station_T7\n Classtype = t_\n Name = s_ -->
<g id="node8" class="node"><title>Station_T7\n Classtype = t_\n Name = s_</title>
<ellipse fill="lightblue" stroke="black" cx="495" cy="-540" rx="85.7684" ry="43.8406"/>
<text text-anchor="middle" x="495" y="-554.4" font-family="Times Roman,serif" font-size="14.00">Station_T7</text>
<text text-anchor="middle" x="495" y="-536.4" font-family="Times Roman,serif" font-size="14.00"> Classtype = t_</text>
<text text-anchor="middle" x="495" y="-518.4" font-family="Times Roman,serif" font-size="14.00"> Name = s_</text>
</g>
<!-- apply_contains0&#45;&gt;Station_T7\n Classtype = t_\n Name = s_ -->
<g id="edge4" class="edge"><title>apply_contains0&#45;&gt;Station_T7\n Classtype = t_\n Name = s_</title>
<path fill="none" stroke="black" d="M495,-620.379C495,-612.81 495,-603.638 495,-594.236"/>
<polygon fill="black" stroke="black" points="498.5,-594.008 495,-584.008 491.5,-594.008 498.5,-594.008"/>
</g>
<!-- hasAttr_T1\n Classtype = None\n Name = None -->
<g id="node2" class="node"><title>hasAttr_T1\n Classtype = None\n Name = None</title>
<ellipse fill="lightblue" stroke="black" cx="389" cy="-416" rx="101.823" ry="43.8406"/>
<text text-anchor="middle" x="389" y="-430.4" font-family="Times Roman,serif" font-size="14.00">hasAttr_T1</text>
<text text-anchor="middle" x="389" y="-412.4" font-family="Times Roman,serif" font-size="14.00"> Classtype = None</text>
<text text-anchor="middle" x="389" y="-394.4" font-family="Times Roman,serif" font-size="14.00"> Name = None</text>
</g>
<!-- Attribute13\n Classtype = None\n Name = name -->
<g id="node14" class="node"><title>Attribute13\n Classtype = None\n Name = name</title>
<ellipse fill="lightblue" stroke="black" cx="273" cy="-292" rx="101.823" ry="43.8406"/>
<text text-anchor="middle" x="273" y="-306.4" font-family="Times Roman,serif" font-size="14.00">Attribute13</text>
<text text-anchor="middle" x="273" y="-288.4" font-family="Times Roman,serif" font-size="14.00"> Classtype = None</text>
<text text-anchor="middle" x="273" y="-270.4" font-family="Times Roman,serif" font-size="14.00"> Name = name</text>
</g>
<!-- hasAttr_T1\n Classtype = None\n Name = None&#45;&gt;Attribute13\n Classtype = None\n Name = name -->
<g id="edge8" class="edge"><title>hasAttr_T1\n Classtype = None\n Name = None&#45;&gt;Attribute13\n Classtype = None\n Name = name</title>
<path fill="none" stroke="black" d="M350.696,-375.054C340.302,-363.943 328.951,-351.809 318.214,-340.332"/>
<polygon fill="black" stroke="black" points="320.652,-337.815 311.264,-332.903 315.54,-342.597 320.652,-337.815"/>
</g>
<!-- leftExpr2\n Classtype = None\n Name = None -->
<g id="node3" class="node"><title>leftExpr2\n Classtype = None\n Name = None</title>
<ellipse fill="lightblue" stroke="black" cx="198" cy="-168" rx="101.823" ry="43.8406"/>
<text text-anchor="middle" x="198" y="-182.4" font-family="Times Roman,serif" font-size="14.00">leftExpr2</text>
<text text-anchor="middle" x="198" y="-164.4" font-family="Times Roman,serif" font-size="14.00"> Classtype = None</text>
<text text-anchor="middle" x="198" y="-146.4" font-family="Times Roman,serif" font-size="14.00"> Name = None</text>
</g>
<!-- Attribute12\n Classtype = None\n Name = name -->
<g id="node13" class="node"><title>Attribute12\n Classtype = None\n Name = name</title>
<ellipse fill="lightblue" stroke="black" cx="349" cy="-44" rx="101.823" ry="43.8406"/>
<text text-anchor="middle" x="349" y="-58.4" font-family="Times Roman,serif" font-size="14.00">Attribute12</text>
<text text-anchor="middle" x="349" y="-40.4" font-family="Times Roman,serif" font-size="14.00"> Classtype = None</text>
<text text-anchor="middle" x="349" y="-22.4" font-family="Times Roman,serif" font-size="14.00"> Name = name</text>
</g>
<!-- leftExpr2\n Classtype = None\n Name = None&#45;&gt;Attribute12\n Classtype = None\n Name = name -->
<g id="edge12" class="edge"><title>leftExpr2\n Classtype = None\n Name = None&#45;&gt;Attribute12\n Classtype = None\n Name = name</title>
<path fill="none" stroke="black" d="M245.777,-128.766C260.934,-116.319 277.822,-102.451 293.476,-89.596"/>
<polygon fill="black" stroke="black" points="296.027,-92.0303 301.533,-82.9791 291.584,-86.6206 296.027,-92.0303"/>
</g>
<!-- paired_with3 -->
<g id="node4" class="node"><title>paired_with3</title>
<ellipse fill="lightgray" stroke="black" cx="536" cy="-787" rx="75.1594" ry="18.3848"/>
<text text-anchor="middle" x="536" y="-783.4" font-family="Times Roman,serif" font-size="14.00">paired_with3</text>
</g>
<!-- ApplyModel5 -->
<g id="node6" class="node"><title>ApplyModel5</title>
<ellipse fill="#fed017" stroke="black" cx="495" cy="-713" rx="73.0388" ry="18.3848"/>
<text text-anchor="middle" x="495" y="-709.4" font-family="Times Roman,serif" font-size="14.00">ApplyModel5</text>
</g>
<!-- paired_with3&#45;&gt;ApplyModel5 -->
<g id="edge16" class="edge"><title>paired_with3&#45;&gt;ApplyModel5</title>
<path fill="none" stroke="black" d="M525.654,-768.327C520.957,-759.849 515.308,-749.654 510.147,-740.338"/>
<polygon fill="black" stroke="black" points="513.109,-738.462 505.201,-731.411 506.986,-741.854 513.109,-738.462"/>
</g>
<!-- hasAttr_S4\n Classtype = None\n Name = None -->
<g id="node5" class="node"><title>hasAttr_S4\n Classtype = None\n Name = None</title>
<ellipse fill="lightblue" stroke="black" cx="500" cy="-168" rx="101.823" ry="43.8406"/>
<text text-anchor="middle" x="500" y="-182.4" font-family="Times Roman,serif" font-size="14.00">hasAttr_S4</text>
<text text-anchor="middle" x="500" y="-164.4" font-family="Times Roman,serif" font-size="14.00"> Classtype = None</text>
<text text-anchor="middle" x="500" y="-146.4" font-family="Times Roman,serif" font-size="14.00"> Name = None</text>
</g>
<!-- hasAttr_S4\n Classtype = None\n Name = None&#45;&gt;Attribute12\n Classtype = None\n Name = name -->
<g id="edge20" class="edge"><title>hasAttr_S4\n Classtype = None\n Name = None&#45;&gt;Attribute12\n Classtype = None\n Name = name</title>
<path fill="none" stroke="black" d="M452.223,-128.766C437.066,-116.319 420.178,-102.451 404.524,-89.596"/>
<polygon fill="black" stroke="black" points="406.416,-86.6206 396.467,-82.9791 401.973,-92.0303 406.416,-86.6206"/>
</g>
<!-- ApplyModel5&#45;&gt;apply_contains0 -->
<g id="edge2" class="edge"><title>ApplyModel5&#45;&gt;apply_contains0</title>
<path fill="none" stroke="black" d="M495,-694.327C495,-686.264 495,-676.648 495,-667.711"/>
<polygon fill="black" stroke="black" points="498.5,-667.667 495,-657.667 491.5,-667.667 498.5,-667.667"/>
</g>
<!-- Station_S6\n Classtype = 1\n Name = s_ -->
<g id="node7" class="node"><title>Station_S6\n Classtype = 1\n Name = s_</title>
<ellipse fill="lightblue" stroke="black" cx="581" cy="-292" rx="82.2301" ry="43.8406"/>
<text text-anchor="middle" x="581" y="-306.4" font-family="Times Roman,serif" font-size="14.00">Station_S6</text>
<text text-anchor="middle" x="581" y="-288.4" font-family="Times Roman,serif" font-size="14.00"> Classtype = 1</text>
<text text-anchor="middle" x="581" y="-270.4" font-family="Times Roman,serif" font-size="14.00"> Name = s_</text>
</g>
<!-- Station_S6\n Classtype = 1\n Name = s_&#45;&gt;hasAttr_S4\n Classtype = None\n Name = None -->
<g id="edge18" class="edge"><title>Station_S6\n Classtype = 1\n Name = s_&#45;&gt;hasAttr_S4\n Classtype = None\n Name = None</title>
<path fill="none" stroke="black" d="M553.803,-250.365C547.268,-240.361 540.213,-229.561 533.431,-219.179"/>
<polygon fill="black" stroke="black" points="536.215,-217.041 527.816,-210.583 530.355,-220.869 536.215,-217.041"/>
</g>
<!-- Station_T7\n Classtype = t_\n Name = s_&#45;&gt;hasAttr_T1\n Classtype = None\n Name = None -->
<g id="edge6" class="edge"><title>Station_T7\n Classtype = t_\n Name = s_&#45;&gt;hasAttr_T1\n Classtype = None\n Name = None</title>
<path fill="none" stroke="black" d="M460.292,-499.398C450.971,-488.494 440.789,-476.584 431.114,-465.265"/>
<polygon fill="black" stroke="black" points="433.671,-462.87 424.513,-457.543 428.35,-467.419 433.671,-462.87"/>
</g>
<!-- trace_link14 -->
<g id="node15" class="node"><title>trace_link14</title>
<ellipse fill="#eedd82" stroke="black" cx="581" cy="-416" rx="72.1249" ry="18.3848"/>
<text text-anchor="middle" x="581" y="-412.4" font-family="Times Roman,serif" font-size="14.00">trace_link14</text>
</g>
<!-- Station_T7\n Classtype = t_\n Name = s_&#45;&gt;trace_link14 -->
<g id="edge32" class="edge"><title>Station_T7\n Classtype = t_\n Name = s_&#45;&gt;trace_link14</title>
<path fill="none" stroke="black" d="M523.876,-498.365C536.557,-480.081 551.082,-459.138 562.311,-442.946"/>
<polygon fill="black" stroke="black" points="565.356,-444.698 568.179,-434.487 559.604,-440.709 565.356,-444.698"/>
</g>
<!-- Equation8\n Classtype = None\n Name = None -->
<g id="node9" class="node"><title>Equation8\n Classtype = None\n Name = None</title>
<ellipse fill="lightblue" stroke="black" cx="102" cy="-540" rx="101.823" ry="43.8406"/>
<text text-anchor="middle" x="102" y="-554.4" font-family="Times Roman,serif" font-size="14.00">Equation8</text>
<text text-anchor="middle" x="102" y="-536.4" font-family="Times Roman,serif" font-size="14.00"> Classtype = None</text>
<text text-anchor="middle" x="102" y="-518.4" font-family="Times Roman,serif" font-size="14.00"> Name = None</text>
</g>
<!-- Equation8\n Classtype = None\n Name = None&#45;&gt;leftExpr2\n Classtype = None\n Name = None -->
<g id="edge10" class="edge"><title>Equation8\n Classtype = None\n Name = None&#45;&gt;leftExpr2\n Classtype = None\n Name = None</title>
<path fill="none" stroke="black" d="M72.3092,-497.796C65.6177,-486.085 59.4717,-473.002 56,-460 45.9106,-422.213 44.2908,-409.317 56,-372 74.6343,-312.612 117.35,-255.385 151.094,-216.737"/>
<polygon fill="black" stroke="black" points="154.134,-218.583 158.147,-208.777 148.895,-213.941 154.134,-218.583"/>
</g>
<!-- rightExpr10\n Classtype = None\n Name = None -->
<g id="node11" class="node"><title>rightExpr10\n Classtype = None\n Name = None</title>
<ellipse fill="lightblue" stroke="black" cx="167" cy="-416" rx="101.823" ry="43.8406"/>
<text text-anchor="middle" x="167" y="-430.4" font-family="Times Roman,serif" font-size="14.00">rightExpr10</text>
<text text-anchor="middle" x="167" y="-412.4" font-family="Times Roman,serif" font-size="14.00"> Classtype = None</text>
<text text-anchor="middle" x="167" y="-394.4" font-family="Times Roman,serif" font-size="14.00"> Name = None</text>
</g>
<!-- Equation8\n Classtype = None\n Name = None&#45;&gt;rightExpr10\n Classtype = None\n Name = None -->
<g id="edge24" class="edge"><title>Equation8\n Classtype = None\n Name = None&#45;&gt;rightExpr10\n Classtype = None\n Name = None</title>
<path fill="none" stroke="black" d="M124.551,-496.979C129.442,-487.649 134.665,-477.685 139.716,-468.05"/>
<polygon fill="black" stroke="black" points="142.946,-469.427 144.488,-458.945 136.746,-466.177 142.946,-469.427"/>
</g>
<!-- match_contains9 -->
<g id="node10" class="node"><title>match_contains9</title>
<ellipse fill="#f798a1" stroke="black" cx="681" cy="-713" rx="94.7523" ry="18.3848"/>
<text text-anchor="middle" x="681" y="-709.4" font-family="Times Roman,serif" font-size="14.00">match_contains9</text>
</g>
<!-- match_contains9&#45;&gt;Station_S6\n Classtype = 1\n Name = s_ -->
<g id="edge22" class="edge"><title>match_contains9&#45;&gt;Station_S6\n Classtype = 1\n Name = s_</title>
<path fill="none" stroke="black" d="M684.465,-694.162C693.369,-640.764 712.942,-484.968 662,-372 655.927,-358.532 646.494,-346.108 636.182,-335.267"/>
<polygon fill="black" stroke="black" points="638.479,-332.615 628.932,-328.021 633.531,-337.566 638.479,-332.615"/>
</g>
<!-- rightExpr10\n Classtype = None\n Name = None&#45;&gt;Attribute13\n Classtype = None\n Name = name -->
<g id="edge28" class="edge"><title>rightExpr10\n Classtype = None\n Name = None&#45;&gt;Attribute13\n Classtype = None\n Name = name</title>
<path fill="none" stroke="black" d="M202.296,-374.71C211.407,-364.052 221.307,-352.471 230.734,-341.444"/>
<polygon fill="black" stroke="black" points="233.659,-343.408 237.496,-333.533 228.338,-338.86 233.659,-343.408"/>
</g>
<!-- MatchModel11 -->
<g id="node12" class="node"><title>MatchModel11</title>
<ellipse fill="#e15c34" stroke="black" cx="598" cy="-861" rx="82.2301" ry="18.3848"/>
<text text-anchor="middle" x="598" y="-857.4" font-family="Times Roman,serif" font-size="14.00">MatchModel11</text>
</g>
<!-- MatchModel11&#45;&gt;paired_with3 -->
<g id="edge14" class="edge"><title>MatchModel11&#45;&gt;paired_with3</title>
<path fill="none" stroke="black" d="M582.674,-842.708C575.222,-833.814 566.13,-822.962 557.957,-813.207"/>
<polygon fill="black" stroke="black" points="560.469,-810.756 551.364,-805.338 555.104,-815.251 560.469,-810.756"/>
</g>
<!-- MatchModel11&#45;&gt;match_contains9 -->
<g id="edge26" class="edge"><title>MatchModel11&#45;&gt;match_contains9</title>
<path fill="none" stroke="black" d="M608.344,-842.555C622.696,-816.964 648.763,-770.483 665.46,-740.71"/>
<polygon fill="black" stroke="black" points="668.687,-742.112 670.525,-731.678 662.581,-738.688 668.687,-742.112"/>
</g>
<!-- trace_link14&#45;&gt;Station_S6\n Classtype = 1\n Name = s_ -->
<g id="edge30" class="edge"><title>trace_link14&#45;&gt;Station_S6\n Classtype = 1\n Name = s_</title>
<path fill="none" stroke="black" d="M581,-397.436C581,-383.812 581,-364.564 581,-346.235"/>
<polygon fill="black" stroke="black" points="584.5,-346.189 581,-336.189 577.5,-346.189 584.5,-346.189"/>
</g>
</g>
</svg>
