<?xml version="1.0" encoding="UTF-8" standalone="no"?>
<!DOCTYPE svg PUBLIC "-//W3C//DTD SVG 1.1//EN"
 "http://www.w3.org/Graphics/SVG/1.1/DTD/svg11.dtd">
<!-- Generated by graphviz version 2.26.3 (20100126.1600)
 -->
<!-- Title: HEmptyPathCondition_HM2M_run1 Pages: 1 -->
<svg width="382pt" height="590pt"
 viewBox="0.00 0.00 382.00 590.00" xmlns="http://www.w3.org/2000/svg" xmlns:xlink="http://www.w3.org/1999/xlink">
<g id="graph1" class="graph" transform="scale(1 1) rotate(0) translate(4 586)">
<title>HEmptyPathCondition_HM2M_run1</title>
<polygon fill="white" stroke="white" points="-4,5 -4,-586 379,-586 379,5 -4,5"/>
<!-- apply_contains0 -->
<g id="node1" class="node"><title>apply_contains0</title>
<ellipse fill="#fcdb58" stroke="black" cx="274" cy="-341" rx="90.0096" ry="18.3848"/>
<text text-anchor="middle" x="274" y="-337.4" font-family="Times Roman,serif" font-size="14.00">apply_contains0</text>
</g>
<!-- Male_T5\n Classtype = male1\n Name = 3.m -->
<g id="node6" class="node"><title>Male_T5\n Classtype = male1\n Name = 3.m</title>
<ellipse fill="lightblue" stroke="black" cx="268" cy="-242" rx="106.066" ry="43.8406"/>
<text text-anchor="middle" x="268" y="-256.4" font-family="Times Roman,serif" font-size="14.00">Male_T5</text>
<text text-anchor="middle" x="268" y="-238.4" font-family="Times Roman,serif" font-size="14.00"> Classtype = male1</text>
<text text-anchor="middle" x="268" y="-220.4" font-family="Times Roman,serif" font-size="14.00"> Name = 3.m</text>
</g>
<!-- apply_contains0&#45;&gt;Male_T5\n Classtype = male1\n Name = 3.m -->
<g id="edge4" class="edge"><title>apply_contains0&#45;&gt;Male_T5\n Classtype = male1\n Name = 3.m</title>
<path fill="none" stroke="black" d="M272.871,-322.379C272.413,-314.81 271.857,-305.638 271.287,-296.236"/>
<polygon fill="black" stroke="black" points="274.766,-295.778 270.667,-286.008 267.779,-296.202 274.766,-295.778"/>
</g>
<!-- ApplyModel1 -->
<g id="node2" class="node"><title>ApplyModel1</title>
<ellipse fill="#fed017" stroke="black" cx="281" cy="-415" rx="73.0388" ry="18.3848"/>
<text text-anchor="middle" x="281" y="-411.4" font-family="Times Roman,serif" font-size="14.00">ApplyModel1</text>
</g>
<!-- ApplyModel1&#45;&gt;apply_contains0 -->
<g id="edge2" class="edge"><title>ApplyModel1&#45;&gt;apply_contains0</title>
<path fill="none" stroke="black" d="M279.234,-396.327C278.471,-388.264 277.561,-378.648 276.716,-369.711"/>
<polygon fill="black" stroke="black" points="280.192,-369.293 275.766,-359.667 273.223,-369.953 280.192,-369.293"/>
</g>
<!-- MatchModel2 -->
<g id="node3" class="node"><title>MatchModel2</title>
<ellipse fill="#e15c34" stroke="black" cx="198" cy="-563" rx="75.8684" ry="18.3848"/>
<text text-anchor="middle" x="198" y="-559.4" font-family="Times Roman,serif" font-size="14.00">MatchModel2</text>
</g>
<!-- match_contains3 -->
<g id="node4" class="node"><title>match_contains3</title>
<ellipse fill="#f798a1" stroke="black" cx="95" cy="-415" rx="94.7523" ry="18.3848"/>
<text text-anchor="middle" x="95" y="-411.4" font-family="Times Roman,serif" font-size="14.00">match_contains3</text>
</g>
<!-- MatchModel2&#45;&gt;match_contains3 -->
<g id="edge10" class="edge"><title>MatchModel2&#45;&gt;match_contains3</title>
<path fill="none" stroke="black" d="M185.163,-544.555C167.199,-518.742 134.444,-471.677 113.749,-441.94"/>
<polygon fill="black" stroke="black" points="116.584,-439.886 107.999,-433.678 110.838,-443.885 116.584,-439.886"/>
</g>
<!-- paired_with6 -->
<g id="node7" class="node"><title>paired_with6</title>
<ellipse fill="lightgray" stroke="black" cx="260" cy="-489" rx="75.1594" ry="18.3848"/>
<text text-anchor="middle" x="260" y="-485.4" font-family="Times Roman,serif" font-size="14.00">paired_with6</text>
</g>
<!-- MatchModel2&#45;&gt;paired_with6 -->
<g id="edge8" class="edge"><title>MatchModel2&#45;&gt;paired_with6</title>
<path fill="none" stroke="black" d="M213.326,-544.708C220.778,-535.814 229.87,-524.962 238.043,-515.207"/>
<polygon fill="black" stroke="black" points="240.896,-517.251 244.636,-507.338 235.531,-512.756 240.896,-517.251"/>
</g>
<!-- Male_S4\n Classtype = male1\n Name = 3.m -->
<g id="node5" class="node"><title>Male_S4\n Classtype = male1\n Name = 3.m</title>
<ellipse fill="lightblue" stroke="black" cx="171" cy="-44" rx="106.066" ry="43.8406"/>
<text text-anchor="middle" x="171" y="-58.4" font-family="Times Roman,serif" font-size="14.00">Male_S4</text>
<text text-anchor="middle" x="171" y="-40.4" font-family="Times Roman,serif" font-size="14.00"> Classtype = male1</text>
<text text-anchor="middle" x="171" y="-22.4" font-family="Times Roman,serif" font-size="14.00"> Name = 3.m</text>
</g>
<!-- match_contains3&#45;&gt;Male_S4\n Classtype = male1\n Name = 3.m -->
<g id="edge12" class="edge"><title>match_contains3&#45;&gt;Male_S4\n Classtype = male1\n Name = 3.m</title>
<path fill="none" stroke="black" d="M98.8209,-396.348C109.943,-342.057 142.601,-182.632 159.921,-98.0844"/>
<polygon fill="black" stroke="black" points="163.376,-98.656 161.954,-88.157 156.519,-97.2511 163.376,-98.656"/>
</g>
<!-- trace_link7 -->
<g id="node8" class="node"><title>trace_link7</title>
<ellipse fill="#eedd82" stroke="black" cx="235" cy="-143" rx="65.7609" ry="18.3848"/>
<text text-anchor="middle" x="235" y="-139.4" font-family="Times Roman,serif" font-size="14.00">trace_link7</text>
</g>
<!-- Male_T5\n Classtype = male1\n Name = 3.m&#45;&gt;trace_link7 -->
<g id="edge16" class="edge"><title>Male_T5\n Classtype = male1\n Name = 3.m&#45;&gt;trace_link7</title>
<path fill="none" stroke="black" d="M253.43,-198.289C250.385,-189.156 247.252,-179.757 244.453,-171.358"/>
<polygon fill="black" stroke="black" points="247.714,-170.074 241.231,-161.694 241.073,-172.288 247.714,-170.074"/>
</g>
<!-- paired_with6&#45;&gt;ApplyModel1 -->
<g id="edge6" class="edge"><title>paired_with6&#45;&gt;ApplyModel1</title>
<path fill="none" stroke="black" d="M265.299,-470.327C267.612,-462.176 270.376,-452.438 272.935,-443.42"/>
<polygon fill="black" stroke="black" points="276.339,-444.243 275.703,-433.667 269.605,-442.332 276.339,-444.243"/>
</g>
<!-- trace_link7&#45;&gt;Male_S4\n Classtype = male1\n Name = 3.m -->
<g id="edge14" class="edge"><title>trace_link7&#45;&gt;Male_S4\n Classtype = male1\n Name = 3.m</title>
<path fill="none" stroke="black" d="M222.962,-124.379C217.587,-116.065 210.961,-105.815 204.262,-95.4517"/>
<polygon fill="black" stroke="black" points="207.011,-93.2572 198.642,-86.7594 201.132,-97.0576 207.011,-93.2572"/>
</g>
</g>
</svg>
