<?xml version="1.0" encoding="UTF-8" standalone="no"?>
<!DOCTYPE svg PUBLIC "-//W3C//DTD SVG 1.1//EN"
 "http://www.w3.org/Graphics/SVG/1.1/DTD/svg11.dtd">
<!-- Generated by graphviz version 2.26.3 (20100126.1600)
 -->
<!-- Title: HEmptyPathCondition_HF2F_HM2M_HS2S_HSF2SF Pages: 1 -->
<svg width="2744pt" height="1086pt"
 viewBox="0.00 0.00 2744.00 1086.00" xmlns="http://www.w3.org/2000/svg" xmlns:xlink="http://www.w3.org/1999/xlink">
<g id="graph1" class="graph" transform="scale(1 1) rotate(0) translate(4 1082)">
<title>HEmptyPathCondition_HF2F_HM2M_HS2S_HSF2SF</title>
<polygon fill="white" stroke="white" points="-4,5 -4,-1082 2741,-1082 2741,5 -4,5"/>
<!-- apply_contains0 -->
<g id="node1" class="node"><title>apply_contains0</title>
<ellipse fill="#fcdb58" stroke="black" cx="573" cy="-639" rx="90.0096" ry="18.3848"/>
<text text-anchor="middle" x="573" y="-635.4" font-family="Times Roman,serif" font-size="14.00">apply_contains0</text>
</g>
<!-- Female_T5\n Classtype = t_\n Name = s_ -->
<g id="node6" class="node"><title>Female_T5\n Classtype = t_\n Name = s_</title>
<ellipse fill="lightblue" stroke="black" cx="573" cy="-540" rx="85.7684" ry="43.8406"/>
<text text-anchor="middle" x="573" y="-554.4" font-family="Times Roman,serif" font-size="14.00">Female_T5</text>
<text text-anchor="middle" x="573" y="-536.4" font-family="Times Roman,serif" font-size="14.00"> Classtype = t_</text>
<text text-anchor="middle" x="573" y="-518.4" font-family="Times Roman,serif" font-size="14.00"> Name = s_</text>
</g>
<!-- apply_contains0&#45;&gt;Female_T5\n Classtype = t_\n Name = s_ -->
<g id="edge4" class="edge"><title>apply_contains0&#45;&gt;Female_T5\n Classtype = t_\n Name = s_</title>
<path fill="none" stroke="black" d="M573,-620.379C573,-612.81 573,-603.638 573,-594.236"/>
<polygon fill="black" stroke="black" points="576.5,-594.008 573,-584.008 569.5,-594.008 576.5,-594.008"/>
</g>
<!-- leftExpr1\n Classtype = None\n Name = None -->
<g id="node2" class="node"><title>leftExpr1\n Classtype = None\n Name = None</title>
<ellipse fill="lightblue" stroke="black" cx="324" cy="-168" rx="101.823" ry="43.8406"/>
<text text-anchor="middle" x="324" y="-182.4" font-family="Times Roman,serif" font-size="14.00">leftExpr1</text>
<text text-anchor="middle" x="324" y="-164.4" font-family="Times Roman,serif" font-size="14.00"> Classtype = None</text>
<text text-anchor="middle" x="324" y="-146.4" font-family="Times Roman,serif" font-size="14.00"> Name = None</text>
</g>
<!-- Attribute12\n Classtype = None\n Name = name -->
<g id="node13" class="node"><title>Attribute12\n Classtype = None\n Name = name</title>
<ellipse fill="lightblue" stroke="black" cx="546" cy="-44" rx="101.823" ry="43.8406"/>
<text text-anchor="middle" x="546" y="-58.4" font-family="Times Roman,serif" font-size="14.00">Attribute12</text>
<text text-anchor="middle" x="546" y="-40.4" font-family="Times Roman,serif" font-size="14.00"> Classtype = None</text>
<text text-anchor="middle" x="546" y="-22.4" font-family="Times Roman,serif" font-size="14.00"> Name = name</text>
</g>
<!-- leftExpr1\n Classtype = None\n Name = None&#45;&gt;Attribute12\n Classtype = None\n Name = name -->
<g id="edge8" class="edge"><title>leftExpr1\n Classtype = None\n Name = None&#45;&gt;Attribute12\n Classtype = None\n Name = name</title>
<path fill="none" stroke="black" d="M386.43,-133.129C413.741,-117.875 445.937,-99.8909 474.231,-84.0871"/>
<polygon fill="black" stroke="black" points="476.246,-86.971 483.269,-79.0388 472.832,-80.8596 476.246,-86.971"/>
</g>
<!-- paired_with2 -->
<g id="node3" class="node"><title>paired_with2</title>
<ellipse fill="lightgray" stroke="black" cx="586" cy="-837" rx="75.1594" ry="18.3848"/>
<text text-anchor="middle" x="586" y="-833.4" font-family="Times Roman,serif" font-size="14.00">paired_with2</text>
</g>
<!-- ApplyModel4 -->
<g id="node5" class="node"><title>ApplyModel4</title>
<ellipse fill="#fed017" stroke="black" cx="607" cy="-738" rx="73.0388" ry="18.3848"/>
<text text-anchor="middle" x="607" y="-734.4" font-family="Times Roman,serif" font-size="14.00">ApplyModel4</text>
</g>
<!-- paired_with2&#45;&gt;ApplyModel4 -->
<g id="edge12" class="edge"><title>paired_with2&#45;&gt;ApplyModel4</title>
<path fill="none" stroke="black" d="M589.95,-818.379C593.059,-803.721 597.444,-783.049 600.988,-766.34"/>
<polygon fill="black" stroke="black" points="604.416,-767.046 603.068,-756.538 597.569,-765.594 604.416,-767.046"/>
</g>
<!-- hasAttr_S3\n Classtype = None\n Name = None -->
<g id="node4" class="node"><title>hasAttr_S3\n Classtype = None\n Name = None</title>
<ellipse fill="lightblue" stroke="black" cx="546" cy="-168" rx="101.823" ry="43.8406"/>
<text text-anchor="middle" x="546" y="-182.4" font-family="Times Roman,serif" font-size="14.00">hasAttr_S3</text>
<text text-anchor="middle" x="546" y="-164.4" font-family="Times Roman,serif" font-size="14.00"> Classtype = None</text>
<text text-anchor="middle" x="546" y="-146.4" font-family="Times Roman,serif" font-size="14.00"> Name = None</text>
</g>
<!-- hasAttr_S3\n Classtype = None\n Name = None&#45;&gt;Attribute12\n Classtype = None\n Name = name -->
<g id="edge16" class="edge"><title>hasAttr_S3\n Classtype = None\n Name = None&#45;&gt;Attribute12\n Classtype = None\n Name = name</title>
<path fill="none" stroke="black" d="M546,-123.933C546,-115.718 546,-107.043 546,-98.5568"/>
<polygon fill="black" stroke="black" points="549.5,-98.3428 546,-88.3428 542.5,-98.3428 549.5,-98.3428"/>
</g>
<!-- ApplyModel4&#45;&gt;apply_contains0 -->
<g id="edge2" class="edge"><title>ApplyModel4&#45;&gt;apply_contains0</title>
<path fill="none" stroke="black" d="M600.605,-719.379C595.571,-704.721 588.472,-684.049 582.733,-667.34"/>
<polygon fill="black" stroke="black" points="585.925,-665.859 579.366,-657.538 579.304,-668.132 585.925,-665.859"/>
</g>
<!-- trace_link13 -->
<g id="node14" class="node"><title>trace_link13</title>
<ellipse fill="#eedd82" stroke="black" cx="555" cy="-416" rx="72.1249" ry="18.3848"/>
<text text-anchor="middle" x="555" y="-412.4" font-family="Times Roman,serif" font-size="14.00">trace_link13</text>
</g>
<!-- Female_T5\n Classtype = t_\n Name = s_&#45;&gt;trace_link13 -->
<g id="edge28" class="edge"><title>Female_T5\n Classtype = t_\n Name = s_&#45;&gt;trace_link13</title>
<path fill="none" stroke="black" d="M566.603,-495.933C564.148,-479.016 561.409,-460.151 559.209,-444.997"/>
<polygon fill="black" stroke="black" points="562.615,-444.094 557.715,-434.7 555.688,-445.1 562.615,-444.094"/>
</g>
<!-- Female_S6\n Classtype = 1\n Name = s_ -->
<g id="node7" class="node"><title>Female_S6\n Classtype = 1\n Name = s_</title>
<ellipse fill="lightblue" stroke="black" cx="552" cy="-292" rx="82.2301" ry="43.8406"/>
<text text-anchor="middle" x="552" y="-306.4" font-family="Times Roman,serif" font-size="14.00">Female_S6</text>
<text text-anchor="middle" x="552" y="-288.4" font-family="Times Roman,serif" font-size="14.00"> Classtype = 1</text>
<text text-anchor="middle" x="552" y="-270.4" font-family="Times Roman,serif" font-size="14.00"> Name = s_</text>
</g>
<!-- Female_S6\n Classtype = 1\n Name = s_&#45;&gt;hasAttr_S3\n Classtype = None\n Name = None -->
<g id="edge14" class="edge"><title>Female_S6\n Classtype = 1\n Name = s_&#45;&gt;hasAttr_S3\n Classtype = None\n Name = None</title>
<path fill="none" stroke="black" d="M549.868,-247.933C549.47,-239.718 549.05,-231.043 548.64,-222.557"/>
<polygon fill="black" stroke="black" points="552.125,-222.162 548.146,-212.343 545.133,-222.5 552.125,-222.162"/>
</g>
<!-- Equation7\n Classtype = None\n Name = None -->
<g id="node8" class="node"><title>Equation7\n Classtype = None\n Name = None</title>
<ellipse fill="lightblue" stroke="black" cx="213" cy="-292" rx="101.823" ry="43.8406"/>
<text text-anchor="middle" x="213" y="-306.4" font-family="Times Roman,serif" font-size="14.00">Equation7</text>
<text text-anchor="middle" x="213" y="-288.4" font-family="Times Roman,serif" font-size="14.00"> Classtype = None</text>
<text text-anchor="middle" x="213" y="-270.4" font-family="Times Roman,serif" font-size="14.00"> Name = None</text>
</g>
<!-- Equation7\n Classtype = None\n Name = None&#45;&gt;leftExpr1\n Classtype = None\n Name = None -->
<g id="edge6" class="edge"><title>Equation7\n Classtype = None\n Name = None&#45;&gt;leftExpr1\n Classtype = None\n Name = None</title>
<path fill="none" stroke="black" d="M249.961,-250.71C259.697,-239.834 270.293,-227.997 280.345,-216.768"/>
<polygon fill="black" stroke="black" points="283.138,-218.895 287.2,-209.11 277.922,-214.226 283.138,-218.895"/>
</g>
<!-- rightExpr10\n Classtype = None\n Name = None -->
<g id="node11" class="node"><title>rightExpr10\n Classtype = None\n Name = None</title>
<ellipse fill="lightblue" stroke="black" cx="102" cy="-168" rx="101.823" ry="43.8406"/>
<text text-anchor="middle" x="102" y="-182.4" font-family="Times Roman,serif" font-size="14.00">rightExpr10</text>
<text text-anchor="middle" x="102" y="-164.4" font-family="Times Roman,serif" font-size="14.00"> Classtype = None</text>
<text text-anchor="middle" x="102" y="-146.4" font-family="Times Roman,serif" font-size="14.00"> Name = None</text>
</g>
<!-- Equation7\n Classtype = None\n Name = None&#45;&gt;rightExpr10\n Classtype = None\n Name = None -->
<g id="edge20" class="edge"><title>Equation7\n Classtype = None\n Name = None&#45;&gt;rightExpr10\n Classtype = None\n Name = None</title>
<path fill="none" stroke="black" d="M176.039,-250.71C166.303,-239.834 155.707,-227.997 145.655,-216.768"/>
<polygon fill="black" stroke="black" points="148.078,-214.226 138.8,-209.11 142.862,-218.895 148.078,-214.226"/>
</g>
<!-- match_contains8 -->
<g id="node9" class="node"><title>match_contains8</title>
<ellipse fill="#f798a1" stroke="black" cx="421" cy="-738" rx="94.7523" ry="18.3848"/>
<text text-anchor="middle" x="421" y="-734.4" font-family="Times Roman,serif" font-size="14.00">match_contains8</text>
</g>
<!-- match_contains8&#45;&gt;Female_S6\n Classtype = 1\n Name = s_ -->
<g id="edge18" class="edge"><title>match_contains8&#45;&gt;Female_S6\n Classtype = 1\n Name = s_</title>
<path fill="none" stroke="black" d="M419.782,-719.311C416.925,-663.35 414.067,-493.493 474,-372 480.415,-358.996 489.734,-346.766 499.714,-335.966"/>
<polygon fill="black" stroke="black" points="502.275,-338.351 506.701,-328.725 497.238,-333.49 502.275,-338.351"/>
</g>
<!-- Constant9\n Classtype = None\n Name = None -->
<g id="node10" class="node"><title>Constant9\n Classtype = None\n Name = None</title>
<ellipse fill="lightblue" stroke="black" cx="102" cy="-44" rx="101.823" ry="43.8406"/>
<text text-anchor="middle" x="102" y="-58.4" font-family="Times Roman,serif" font-size="14.00">Constant9</text>
<text text-anchor="middle" x="102" y="-40.4" font-family="Times Roman,serif" font-size="14.00"> Classtype = None</text>
<text text-anchor="middle" x="102" y="-22.4" font-family="Times Roman,serif" font-size="14.00"> Name = None</text>
</g>
<!-- rightExpr10\n Classtype = None\n Name = None&#45;&gt;Constant9\n Classtype = None\n Name = None -->
<g id="edge24" class="edge"><title>rightExpr10\n Classtype = None\n Name = None&#45;&gt;Constant9\n Classtype = None\n Name = None</title>
<path fill="none" stroke="black" d="M102,-123.933C102,-115.718 102,-107.043 102,-98.5568"/>
<polygon fill="black" stroke="black" points="105.5,-98.3428 102,-88.3428 98.5001,-98.3428 105.5,-98.3428"/>
</g>
<!-- MatchModel11 -->
<g id="node12" class="node"><title>MatchModel11</title>
<ellipse fill="#e15c34" stroke="black" cx="493" cy="-911" rx="82.2301" ry="18.3848"/>
<text text-anchor="middle" x="493" y="-907.4" font-family="Times Roman,serif" font-size="14.00">MatchModel11</text>
</g>
<!-- MatchModel11&#45;&gt;paired_with2 -->
<g id="edge10" class="edge"><title>MatchModel11&#45;&gt;paired_with2</title>
<path fill="none" stroke="black" d="M515.513,-893.087C527.621,-883.452 542.719,-871.439 555.831,-861.005"/>
<polygon fill="black" stroke="black" points="558.049,-863.714 563.695,-854.748 553.69,-858.236 558.049,-863.714"/>
</g>
<!-- MatchModel11&#45;&gt;match_contains8 -->
<g id="edge22" class="edge"><title>MatchModel11&#45;&gt;match_contains8</title>
<path fill="none" stroke="black" d="M485.295,-892.486C472.661,-862.13 447.467,-801.595 432.645,-765.981"/>
<polygon fill="black" stroke="black" points="435.832,-764.53 428.759,-756.642 429.37,-767.22 435.832,-764.53"/>
</g>
<!-- trace_link13&#45;&gt;Female_S6\n Classtype = 1\n Name = s_ -->
<g id="edge26" class="edge"><title>trace_link13&#45;&gt;Female_S6\n Classtype = 1\n Name = s_</title>
<path fill="none" stroke="black" d="M554.551,-397.436C554.221,-383.812 553.756,-364.564 553.312,-346.235"/>
<polygon fill="black" stroke="black" points="556.81,-346.101 553.069,-336.189 549.812,-346.271 556.81,-346.101"/>
</g>
<!-- apply_contains14 -->
<g id="node15" class="node"><title>apply_contains14</title>
<ellipse fill="#fcdb58" stroke="black" cx="2455" cy="-837" rx="96.8736" ry="18.3848"/>
<text text-anchor="middle" x="2455" y="-833.4" font-family="Times Roman,serif" font-size="14.00">apply_contains14</text>
</g>
<!-- Male_T21\n Classtype = t_\n Name = s_ -->
<g id="node22" class="node"><title>Male_T21\n Classtype = t_\n Name = s_</title>
<ellipse fill="lightblue" stroke="black" cx="2470" cy="-738" rx="85.7684" ry="43.8406"/>
<text text-anchor="middle" x="2470" y="-752.4" font-family="Times Roman,serif" font-size="14.00">Male_T21</text>
<text text-anchor="middle" x="2470" y="-734.4" font-family="Times Roman,serif" font-size="14.00"> Classtype = t_</text>
<text text-anchor="middle" x="2470" y="-716.4" font-family="Times Roman,serif" font-size="14.00"> Name = s_</text>
</g>
<!-- apply_contains14&#45;&gt;Male_T21\n Classtype = t_\n Name = s_ -->
<g id="edge32" class="edge"><title>apply_contains14&#45;&gt;Male_T21\n Classtype = t_\n Name = s_</title>
<path fill="none" stroke="black" d="M2457.82,-818.379C2458.98,-810.73 2460.39,-801.443 2461.83,-791.936"/>
<polygon fill="black" stroke="black" points="2465.29,-792.42 2463.33,-782.008 2458.37,-791.371 2465.29,-792.42"/>
</g>
<!-- leftExpr15\n Classtype = None\n Name = None -->
<g id="node16" class="node"><title>leftExpr15\n Classtype = None\n Name = None</title>
<ellipse fill="lightblue" stroke="black" cx="2319" cy="-416" rx="101.823" ry="43.8406"/>
<text text-anchor="middle" x="2319" y="-430.4" font-family="Times Roman,serif" font-size="14.00">leftExpr15</text>
<text text-anchor="middle" x="2319" y="-412.4" font-family="Times Roman,serif" font-size="14.00"> Classtype = None</text>
<text text-anchor="middle" x="2319" y="-394.4" font-family="Times Roman,serif" font-size="14.00"> Name = None</text>
</g>
<!-- Attribute25\n Classtype = None\n Name = name -->
<g id="node26" class="node"><title>Attribute25\n Classtype = None\n Name = name</title>
<ellipse fill="lightblue" stroke="black" cx="2430" cy="-292" rx="101.823" ry="43.8406"/>
<text text-anchor="middle" x="2430" y="-306.4" font-family="Times Roman,serif" font-size="14.00">Attribute25</text>
<text text-anchor="middle" x="2430" y="-288.4" font-family="Times Roman,serif" font-size="14.00"> Classtype = None</text>
<text text-anchor="middle" x="2430" y="-270.4" font-family="Times Roman,serif" font-size="14.00"> Name = name</text>
</g>
<!-- leftExpr15\n Classtype = None\n Name = None&#45;&gt;Attribute25\n Classtype = None\n Name = name -->
<g id="edge36" class="edge"><title>leftExpr15\n Classtype = None\n Name = None&#45;&gt;Attribute25\n Classtype = None\n Name = name</title>
<path fill="none" stroke="black" d="M2355.96,-374.71C2365.7,-363.834 2376.29,-351.997 2386.35,-340.768"/>
<polygon fill="black" stroke="black" points="2389.14,-342.895 2393.2,-333.11 2383.92,-338.226 2389.14,-342.895"/>
</g>
<!-- paired_with16 -->
<g id="node17" class="node"><title>paired_with16</title>
<ellipse fill="lightgray" stroke="black" cx="2480" cy="-985" rx="82.0244" ry="18.3848"/>
<text text-anchor="middle" x="2480" y="-981.4" font-family="Times Roman,serif" font-size="14.00">paired_with16</text>
</g>
<!-- ApplyModel18 -->
<g id="node19" class="node"><title>ApplyModel18</title>
<ellipse fill="#fed017" stroke="black" cx="2436" cy="-911" rx="79.9031" ry="18.3848"/>
<text text-anchor="middle" x="2436" y="-907.4" font-family="Times Roman,serif" font-size="14.00">ApplyModel18</text>
</g>
<!-- paired_with16&#45;&gt;ApplyModel18 -->
<g id="edge40" class="edge"><title>paired_with16&#45;&gt;ApplyModel18</title>
<path fill="none" stroke="black" d="M2468.9,-966.327C2463.8,-957.761 2457.67,-947.442 2452.08,-938.047"/>
<polygon fill="black" stroke="black" points="2455.07,-936.218 2446.95,-929.411 2449.05,-939.795 2455.07,-936.218"/>
</g>
<!-- hasAttr_S17\n Classtype = None\n Name = None -->
<g id="node18" class="node"><title>hasAttr_S17\n Classtype = None\n Name = None</title>
<ellipse fill="lightblue" stroke="black" cx="2541" cy="-416" rx="101.823" ry="43.8406"/>
<text text-anchor="middle" x="2541" y="-430.4" font-family="Times Roman,serif" font-size="14.00">hasAttr_S17</text>
<text text-anchor="middle" x="2541" y="-412.4" font-family="Times Roman,serif" font-size="14.00"> Classtype = None</text>
<text text-anchor="middle" x="2541" y="-394.4" font-family="Times Roman,serif" font-size="14.00"> Name = None</text>
</g>
<!-- hasAttr_S17\n Classtype = None\n Name = None&#45;&gt;Attribute25\n Classtype = None\n Name = name -->
<g id="edge44" class="edge"><title>hasAttr_S17\n Classtype = None\n Name = None&#45;&gt;Attribute25\n Classtype = None\n Name = name</title>
<path fill="none" stroke="black" d="M2504.04,-374.71C2494.3,-363.834 2483.71,-351.997 2473.65,-340.768"/>
<polygon fill="black" stroke="black" points="2476.08,-338.226 2466.8,-333.11 2470.86,-342.895 2476.08,-338.226"/>
</g>
<!-- ApplyModel18&#45;&gt;apply_contains14 -->
<g id="edge30" class="edge"><title>ApplyModel18&#45;&gt;apply_contains14</title>
<path fill="none" stroke="black" d="M2440.79,-892.327C2442.89,-884.176 2445.39,-874.438 2447.7,-865.42"/>
<polygon fill="black" stroke="black" points="2451.11,-866.224 2450.21,-855.667 2444.33,-864.483 2451.11,-866.224"/>
</g>
<!-- Equation19\n Classtype = None\n Name = None -->
<g id="node20" class="node"><title>Equation19\n Classtype = None\n Name = None</title>
<ellipse fill="lightblue" stroke="black" cx="2208" cy="-540" rx="101.823" ry="43.8406"/>
<text text-anchor="middle" x="2208" y="-554.4" font-family="Times Roman,serif" font-size="14.00">Equation19</text>
<text text-anchor="middle" x="2208" y="-536.4" font-family="Times Roman,serif" font-size="14.00"> Classtype = None</text>
<text text-anchor="middle" x="2208" y="-518.4" font-family="Times Roman,serif" font-size="14.00"> Name = None</text>
</g>
<!-- Equation19\n Classtype = None\n Name = None&#45;&gt;leftExpr15\n Classtype = None\n Name = None -->
<g id="edge34" class="edge"><title>Equation19\n Classtype = None\n Name = None&#45;&gt;leftExpr15\n Classtype = None\n Name = None</title>
<path fill="none" stroke="black" d="M2244.96,-498.71C2254.7,-487.834 2265.29,-475.997 2275.35,-464.768"/>
<polygon fill="black" stroke="black" points="2278.14,-466.895 2282.2,-457.11 2272.92,-462.226 2278.14,-466.895"/>
</g>
<!-- rightExpr23\n Classtype = None\n Name = None -->
<g id="node24" class="node"><title>rightExpr23\n Classtype = None\n Name = None</title>
<ellipse fill="lightblue" stroke="black" cx="2097" cy="-416" rx="101.823" ry="43.8406"/>
<text text-anchor="middle" x="2097" y="-430.4" font-family="Times Roman,serif" font-size="14.00">rightExpr23</text>
<text text-anchor="middle" x="2097" y="-412.4" font-family="Times Roman,serif" font-size="14.00"> Classtype = None</text>
<text text-anchor="middle" x="2097" y="-394.4" font-family="Times Roman,serif" font-size="14.00"> Name = None</text>
</g>
<!-- Equation19\n Classtype = None\n Name = None&#45;&gt;rightExpr23\n Classtype = None\n Name = None -->
<g id="edge46" class="edge"><title>Equation19\n Classtype = None\n Name = None&#45;&gt;rightExpr23\n Classtype = None\n Name = None</title>
<path fill="none" stroke="black" d="M2171.04,-498.71C2161.3,-487.834 2150.71,-475.997 2140.65,-464.768"/>
<polygon fill="black" stroke="black" points="2143.08,-462.226 2133.8,-457.11 2137.86,-466.895 2143.08,-462.226"/>
</g>
<!-- match_contains20 -->
<g id="node21" class="node"><title>match_contains20</title>
<ellipse fill="#f798a1" stroke="black" cx="2635" cy="-911" rx="101.116" ry="18.3848"/>
<text text-anchor="middle" x="2635" y="-907.4" font-family="Times Roman,serif" font-size="14.00">match_contains20</text>
</g>
<!-- Male_S26\n Classtype = 1\n Name = s_ -->
<g id="node27" class="node"><title>Male_S26\n Classtype = 1\n Name = s_</title>
<ellipse fill="lightblue" stroke="black" cx="2541" cy="-540" rx="82.2301" ry="43.8406"/>
<text text-anchor="middle" x="2541" y="-554.4" font-family="Times Roman,serif" font-size="14.00">Male_S26</text>
<text text-anchor="middle" x="2541" y="-536.4" font-family="Times Roman,serif" font-size="14.00"> Classtype = 1</text>
<text text-anchor="middle" x="2541" y="-518.4" font-family="Times Roman,serif" font-size="14.00"> Name = s_</text>
</g>
<!-- match_contains20&#45;&gt;Male_S26\n Classtype = 1\n Name = s_ -->
<g id="edge50" class="edge"><title>match_contains20&#45;&gt;Male_S26\n Classtype = 1\n Name = s_</title>
<path fill="none" stroke="black" d="M2630.85,-892.184C2620.54,-845.754 2592.57,-722.086 2565,-620 2562.64,-611.262 2560,-602.028 2557.37,-593.061"/>
<polygon fill="black" stroke="black" points="2560.72,-592.06 2554.52,-583.471 2554.01,-594.053 2560.72,-592.06"/>
</g>
<!-- trace_link27 -->
<g id="node28" class="node"><title>trace_link27</title>
<ellipse fill="#eedd82" stroke="black" cx="2484" cy="-639" rx="72.1249" ry="18.3848"/>
<text text-anchor="middle" x="2484" y="-635.4" font-family="Times Roman,serif" font-size="14.00">trace_link27</text>
</g>
<!-- Male_T21\n Classtype = t_\n Name = s_&#45;&gt;trace_link27 -->
<g id="edge56" class="edge"><title>Male_T21\n Classtype = t_\n Name = s_&#45;&gt;trace_link27</title>
<path fill="none" stroke="black" d="M2476.22,-694.001C2477.48,-685.096 2478.77,-675.95 2479.94,-667.737"/>
<polygon fill="black" stroke="black" points="2483.44,-667.966 2481.37,-657.574 2476.51,-666.985 2483.44,-667.966"/>
</g>
<!-- Constant22\n Classtype = None\n Name = None -->
<g id="node23" class="node"><title>Constant22\n Classtype = None\n Name = None</title>
<ellipse fill="lightblue" stroke="black" cx="2097" cy="-292" rx="101.823" ry="43.8406"/>
<text text-anchor="middle" x="2097" y="-306.4" font-family="Times Roman,serif" font-size="14.00">Constant22</text>
<text text-anchor="middle" x="2097" y="-288.4" font-family="Times Roman,serif" font-size="14.00"> Classtype = None</text>
<text text-anchor="middle" x="2097" y="-270.4" font-family="Times Roman,serif" font-size="14.00"> Name = None</text>
</g>
<!-- rightExpr23\n Classtype = None\n Name = None&#45;&gt;Constant22\n Classtype = None\n Name = None -->
<g id="edge52" class="edge"><title>rightExpr23\n Classtype = None\n Name = None&#45;&gt;Constant22\n Classtype = None\n Name = None</title>
<path fill="none" stroke="black" d="M2097,-371.933C2097,-363.718 2097,-355.043 2097,-346.557"/>
<polygon fill="black" stroke="black" points="2100.5,-346.343 2097,-336.343 2093.5,-346.343 2100.5,-346.343"/>
</g>
<!-- MatchModel24 -->
<g id="node25" class="node"><title>MatchModel24</title>
<ellipse fill="#e15c34" stroke="black" cx="2546" cy="-1059" rx="82.2301" ry="18.3848"/>
<text text-anchor="middle" x="2546" y="-1055.4" font-family="Times Roman,serif" font-size="14.00">MatchModel24</text>
</g>
<!-- MatchModel24&#45;&gt;paired_with16 -->
<g id="edge38" class="edge"><title>MatchModel24&#45;&gt;paired_with16</title>
<path fill="none" stroke="black" d="M2529.69,-1040.71C2521.67,-1031.72 2511.88,-1020.74 2503.11,-1010.91"/>
<polygon fill="black" stroke="black" points="2505.62,-1008.47 2496.36,-1003.34 2500.4,-1013.13 2505.62,-1008.47"/>
</g>
<!-- MatchModel24&#45;&gt;match_contains20 -->
<g id="edge48" class="edge"><title>MatchModel24&#45;&gt;match_contains20</title>
<path fill="none" stroke="black" d="M2557.09,-1040.55C2572.55,-1014.85 2600.67,-968.08 2618.57,-938.324"/>
<polygon fill="black" stroke="black" points="2621.61,-940.051 2623.77,-929.678 2615.62,-936.444 2621.61,-940.051"/>
</g>
<!-- Male_S26\n Classtype = 1\n Name = s_&#45;&gt;hasAttr_S17\n Classtype = None\n Name = None -->
<g id="edge42" class="edge"><title>Male_S26\n Classtype = 1\n Name = s_&#45;&gt;hasAttr_S17\n Classtype = None\n Name = None</title>
<path fill="none" stroke="black" d="M2541,-495.933C2541,-487.718 2541,-479.043 2541,-470.557"/>
<polygon fill="black" stroke="black" points="2544.5,-470.343 2541,-460.343 2537.5,-470.343 2544.5,-470.343"/>
</g>
<!-- trace_link27&#45;&gt;Male_S26\n Classtype = 1\n Name = s_ -->
<g id="edge54" class="edge"><title>trace_link27&#45;&gt;Male_S26\n Classtype = 1\n Name = s_</title>
<path fill="none" stroke="black" d="M2494.72,-620.379C2499.56,-611.977 2505.53,-601.599 2511.56,-591.124"/>
<polygon fill="black" stroke="black" points="2514.66,-592.757 2516.62,-582.344 2508.6,-589.264 2514.66,-592.757"/>
</g>
<!-- apply_contains28 -->
<g id="node29" class="node"><title>apply_contains28</title>
<ellipse fill="#fcdb58" stroke="black" cx="838" cy="-837" rx="96.8736" ry="18.3848"/>
<text text-anchor="middle" x="838" y="-833.4" font-family="Times Roman,serif" font-size="14.00">apply_contains28</text>
</g>
<!-- Station_T34\n Classtype = t_\n Name = s_ -->
<g id="node35" class="node"><title>Station_T34\n Classtype = t_\n Name = s_</title>
<ellipse fill="lightblue" stroke="black" cx="838" cy="-738" rx="85.7684" ry="43.8406"/>
<text text-anchor="middle" x="838" y="-752.4" font-family="Times Roman,serif" font-size="14.00">Station_T34</text>
<text text-anchor="middle" x="838" y="-734.4" font-family="Times Roman,serif" font-size="14.00"> Classtype = t_</text>
<text text-anchor="middle" x="838" y="-716.4" font-family="Times Roman,serif" font-size="14.00"> Name = s_</text>
</g>
<!-- apply_contains28&#45;&gt;Station_T34\n Classtype = t_\n Name = s_ -->
<g id="edge60" class="edge"><title>apply_contains28&#45;&gt;Station_T34\n Classtype = t_\n Name = s_</title>
<path fill="none" stroke="black" d="M838,-818.379C838,-810.81 838,-801.638 838,-792.236"/>
<polygon fill="black" stroke="black" points="841.5,-792.008 838,-782.008 834.5,-792.008 841.5,-792.008"/>
</g>
<!-- leftExpr29\n Classtype = None\n Name = None -->
<g id="node30" class="node"><title>leftExpr29\n Classtype = None\n Name = None</title>
<ellipse fill="lightblue" stroke="black" cx="1431" cy="-416" rx="101.823" ry="43.8406"/>
<text text-anchor="middle" x="1431" y="-430.4" font-family="Times Roman,serif" font-size="14.00">leftExpr29</text>
<text text-anchor="middle" x="1431" y="-412.4" font-family="Times Roman,serif" font-size="14.00"> Classtype = None</text>
<text text-anchor="middle" x="1431" y="-394.4" font-family="Times Roman,serif" font-size="14.00"> Name = None</text>
</g>
<!-- Attribute40\n Classtype = None\n Name = name -->
<g id="node41" class="node"><title>Attribute40\n Classtype = None\n Name = name</title>
<ellipse fill="lightblue" stroke="black" cx="1431" cy="-292" rx="101.823" ry="43.8406"/>
<text text-anchor="middle" x="1431" y="-306.4" font-family="Times Roman,serif" font-size="14.00">Attribute40</text>
<text text-anchor="middle" x="1431" y="-288.4" font-family="Times Roman,serif" font-size="14.00"> Classtype = None</text>
<text text-anchor="middle" x="1431" y="-270.4" font-family="Times Roman,serif" font-size="14.00"> Name = name</text>
</g>
<!-- leftExpr29\n Classtype = None\n Name = None&#45;&gt;Attribute40\n Classtype = None\n Name = name -->
<g id="edge64" class="edge"><title>leftExpr29\n Classtype = None\n Name = None&#45;&gt;Attribute40\n Classtype = None\n Name = name</title>
<path fill="none" stroke="black" d="M1431,-371.933C1431,-363.718 1431,-355.043 1431,-346.557"/>
<polygon fill="black" stroke="black" points="1434.5,-346.343 1431,-336.343 1427.5,-346.343 1434.5,-346.343"/>
</g>
<!-- paired_with30 -->
<g id="node31" class="node"><title>paired_with30</title>
<ellipse fill="lightgray" stroke="black" cx="838" cy="-985" rx="82.0244" ry="18.3848"/>
<text text-anchor="middle" x="838" y="-981.4" font-family="Times Roman,serif" font-size="14.00">paired_with30</text>
</g>
<!-- ApplyModel32 -->
<g id="node33" class="node"><title>ApplyModel32</title>
<ellipse fill="#fed017" stroke="black" cx="838" cy="-911" rx="79.9031" ry="18.3848"/>
<text text-anchor="middle" x="838" y="-907.4" font-family="Times Roman,serif" font-size="14.00">ApplyModel32</text>
</g>
<!-- paired_with30&#45;&gt;ApplyModel32 -->
<g id="edge68" class="edge"><title>paired_with30&#45;&gt;ApplyModel32</title>
<path fill="none" stroke="black" d="M838,-966.327C838,-958.264 838,-948.648 838,-939.711"/>
<polygon fill="black" stroke="black" points="841.5,-939.667 838,-929.667 834.5,-939.667 841.5,-939.667"/>
</g>
<!-- hasAttr_S31\n Classtype = None\n Name = None -->
<g id="node32" class="node"><title>hasAttr_S31\n Classtype = None\n Name = None</title>
<ellipse fill="lightblue" stroke="black" cx="1209" cy="-416" rx="101.823" ry="43.8406"/>
<text text-anchor="middle" x="1209" y="-430.4" font-family="Times Roman,serif" font-size="14.00">hasAttr_S31</text>
<text text-anchor="middle" x="1209" y="-412.4" font-family="Times Roman,serif" font-size="14.00"> Classtype = None</text>
<text text-anchor="middle" x="1209" y="-394.4" font-family="Times Roman,serif" font-size="14.00"> Name = None</text>
</g>
<!-- hasAttr_S31\n Classtype = None\n Name = None&#45;&gt;Attribute40\n Classtype = None\n Name = name -->
<g id="edge72" class="edge"><title>hasAttr_S31\n Classtype = None\n Name = None&#45;&gt;Attribute40\n Classtype = None\n Name = name</title>
<path fill="none" stroke="black" d="M1271.43,-381.129C1298.74,-365.875 1330.94,-347.891 1359.23,-332.087"/>
<polygon fill="black" stroke="black" points="1361.25,-334.971 1368.27,-327.039 1357.83,-328.86 1361.25,-334.971"/>
</g>
<!-- ApplyModel32&#45;&gt;apply_contains28 -->
<g id="edge58" class="edge"><title>ApplyModel32&#45;&gt;apply_contains28</title>
<path fill="none" stroke="black" d="M838,-892.327C838,-884.264 838,-874.648 838,-865.711"/>
<polygon fill="black" stroke="black" points="841.5,-865.667 838,-855.667 834.5,-865.667 841.5,-865.667"/>
</g>
<!-- Station_S33\n Classtype = 1\n Name = s_ -->
<g id="node34" class="node"><title>Station_S33\n Classtype = 1\n Name = s_</title>
<ellipse fill="lightblue" stroke="black" cx="989" cy="-540" rx="82.2301" ry="43.8406"/>
<text text-anchor="middle" x="989" y="-554.4" font-family="Times Roman,serif" font-size="14.00">Station_S33</text>
<text text-anchor="middle" x="989" y="-536.4" font-family="Times Roman,serif" font-size="14.00"> Classtype = 1</text>
<text text-anchor="middle" x="989" y="-518.4" font-family="Times Roman,serif" font-size="14.00"> Name = s_</text>
</g>
<!-- Station_S33\n Classtype = 1\n Name = s_&#45;&gt;hasAttr_S31\n Classtype = None\n Name = None -->
<g id="edge70" class="edge"><title>Station_S33\n Classtype = 1\n Name = s_&#45;&gt;hasAttr_S31\n Classtype = None\n Name = None</title>
<path fill="none" stroke="black" d="M1045.66,-508.067C1073.81,-492.196 1108.12,-472.857 1138.02,-456.008"/>
<polygon fill="black" stroke="black" points="1139.74,-459.056 1146.73,-451.097 1136.3,-452.958 1139.74,-459.056"/>
</g>
<!-- indirectLink_S47 -->
<g id="node48" class="node"><title>indirectLink_S47</title>
<ellipse fill="lightgreen" stroke="black" cx="762" cy="-416" rx="92.839" ry="18.3848"/>
<text text-anchor="middle" x="762" y="-412.4" font-family="Times Roman,serif" font-size="14.00">indirectLink_S47</text>
</g>
<!-- Station_S33\n Classtype = 1\n Name = s_&#45;&gt;indirectLink_S47 -->
<g id="edge86" class="edge"><title>Station_S33\n Classtype = 1\n Name = s_&#45;&gt;indirectLink_S47</title>
<path fill="none" stroke="black" d="M931.425,-508.549C891.394,-486.682 838.989,-458.056 803.125,-438.465"/>
<polygon fill="black" stroke="black" points="804.382,-435.163 793.928,-433.441 801.026,-441.306 804.382,-435.163"/>
</g>
<!-- trace_link41 -->
<g id="node42" class="node"><title>trace_link41</title>
<ellipse fill="#eedd82" stroke="black" cx="939" cy="-639" rx="72.1249" ry="18.3848"/>
<text text-anchor="middle" x="939" y="-635.4" font-family="Times Roman,serif" font-size="14.00">trace_link41</text>
</g>
<!-- Station_T34\n Classtype = t_\n Name = s_&#45;&gt;trace_link41 -->
<g id="edge84" class="edge"><title>Station_T34\n Classtype = t_\n Name = s_&#45;&gt;trace_link41</title>
<path fill="none" stroke="black" d="M877.918,-698.873C889.809,-687.217 902.52,-674.758 913.25,-664.24"/>
<polygon fill="black" stroke="black" points="915.982,-666.464 920.673,-656.964 911.082,-661.465 915.982,-666.464"/>
</g>
<!-- directLink_T42\n -->
<g id="node43" class="node"><title>directLink_T42\n</title>
<ellipse fill="lightyellow" stroke="black" cx="765" cy="-639" rx="84.1457" ry="18.3848"/>
<text text-anchor="middle" x="765" y="-635.4" font-family="Times Roman,serif" font-size="14.00">directLink_T42</text>
</g>
<!-- Station_T34\n Classtype = t_\n Name = s_&#45;&gt;directLink_T42\n -->
<g id="edge106" class="edge"><title>Station_T34\n Classtype = t_\n Name = s_&#45;&gt;directLink_T42\n</title>
<path fill="none" stroke="black" d="M807.464,-696.589C799.747,-686.122 791.664,-675.16 784.646,-665.643"/>
<polygon fill="black" stroke="black" points="787.293,-663.335 778.541,-657.364 781.659,-667.49 787.293,-663.335"/>
</g>
<!-- Equation35\n Classtype = None\n Name = None -->
<g id="node36" class="node"><title>Equation35\n Classtype = None\n Name = None</title>
<ellipse fill="lightblue" stroke="black" cx="1372" cy="-540" rx="101.823" ry="43.8406"/>
<text text-anchor="middle" x="1372" y="-554.4" font-family="Times Roman,serif" font-size="14.00">Equation35</text>
<text text-anchor="middle" x="1372" y="-536.4" font-family="Times Roman,serif" font-size="14.00"> Classtype = None</text>
<text text-anchor="middle" x="1372" y="-518.4" font-family="Times Roman,serif" font-size="14.00"> Name = None</text>
</g>
<!-- Equation35\n Classtype = None\n Name = None&#45;&gt;leftExpr29\n Classtype = None\n Name = None -->
<g id="edge62" class="edge"><title>Equation35\n Classtype = None\n Name = None&#45;&gt;leftExpr29\n Classtype = None\n Name = None</title>
<path fill="none" stroke="black" d="M1392.64,-496.631C1396.97,-487.517 1401.59,-477.81 1406.06,-468.406"/>
<polygon fill="black" stroke="black" points="1409.34,-469.669 1410.48,-459.135 1403.02,-466.661 1409.34,-469.669"/>
</g>
<!-- rightExpr38\n Classtype = None\n Name = None -->
<g id="node39" class="node"><title>rightExpr38\n Classtype = None\n Name = None</title>
<ellipse fill="lightblue" stroke="black" cx="987" cy="-416" rx="101.823" ry="43.8406"/>
<text text-anchor="middle" x="987" y="-430.4" font-family="Times Roman,serif" font-size="14.00">rightExpr38</text>
<text text-anchor="middle" x="987" y="-412.4" font-family="Times Roman,serif" font-size="14.00"> Classtype = None</text>
<text text-anchor="middle" x="987" y="-394.4" font-family="Times Roman,serif" font-size="14.00"> Name = None</text>
</g>
<!-- Equation35\n Classtype = None\n Name = None&#45;&gt;rightExpr38\n Classtype = None\n Name = None -->
<g id="edge76" class="edge"><title>Equation35\n Classtype = None\n Name = None&#45;&gt;rightExpr38\n Classtype = None\n Name = None</title>
<path fill="none" stroke="black" d="M1284.97,-516.826C1230.78,-501.848 1159.87,-481.242 1098,-460 1089.05,-456.927 1079.76,-453.552 1070.54,-450.079"/>
<polygon fill="black" stroke="black" points="1071.57,-446.724 1060.98,-446.433 1069.08,-453.265 1071.57,-446.724"/>
</g>
<!-- match_contains36 -->
<g id="node37" class="node"><title>match_contains36</title>
<ellipse fill="#f798a1" stroke="black" cx="1039" cy="-985" rx="101.116" ry="18.3848"/>
<text text-anchor="middle" x="1039" y="-981.4" font-family="Times Roman,serif" font-size="14.00">match_contains36</text>
</g>
<!-- match_contains36&#45;&gt;Station_S33\n Classtype = 1\n Name = s_ -->
<g id="edge74" class="edge"><title>match_contains36&#45;&gt;Station_S33\n Classtype = 1\n Name = s_</title>
<path fill="none" stroke="black" d="M1039,-966.309C1039,-938.234 1039,-883.507 1039,-837 1039,-837 1039,-837 1039,-738 1039,-684.88 1033.9,-671.27 1020,-620 1017.57,-611.026 1014.48,-601.672 1011.2,-592.656"/>
<polygon fill="black" stroke="black" points="1014.38,-591.17 1007.58,-583.041 1007.83,-593.633 1014.38,-591.17"/>
</g>
<!-- Constant37\n Classtype = None\n Name = None -->
<g id="node38" class="node"><title>Constant37\n Classtype = None\n Name = None</title>
<ellipse fill="lightblue" stroke="black" cx="990" cy="-292" rx="101.823" ry="43.8406"/>
<text text-anchor="middle" x="990" y="-306.4" font-family="Times Roman,serif" font-size="14.00">Constant37</text>
<text text-anchor="middle" x="990" y="-288.4" font-family="Times Roman,serif" font-size="14.00"> Classtype = None</text>
<text text-anchor="middle" x="990" y="-270.4" font-family="Times Roman,serif" font-size="14.00"> Name = None</text>
</g>
<!-- rightExpr38\n Classtype = None\n Name = None&#45;&gt;Constant37\n Classtype = None\n Name = None -->
<g id="edge80" class="edge"><title>rightExpr38\n Classtype = None\n Name = None&#45;&gt;Constant37\n Classtype = None\n Name = None</title>
<path fill="none" stroke="black" d="M988.066,-371.933C988.265,-363.718 988.475,-355.043 988.68,-346.557"/>
<polygon fill="black" stroke="black" points="992.184,-346.425 988.927,-336.343 985.186,-346.255 992.184,-346.425"/>
</g>
<!-- MatchModel39 -->
<g id="node40" class="node"><title>MatchModel39</title>
<ellipse fill="#e15c34" stroke="black" cx="939" cy="-1059" rx="82.2301" ry="18.3848"/>
<text text-anchor="middle" x="939" y="-1055.4" font-family="Times Roman,serif" font-size="14.00">MatchModel39</text>
</g>
<!-- MatchModel39&#45;&gt;paired_with30 -->
<g id="edge66" class="edge"><title>MatchModel39&#45;&gt;paired_with30</title>
<path fill="none" stroke="black" d="M914.808,-1041.28C901.539,-1031.55 884.907,-1019.37 870.516,-1008.82"/>
<polygon fill="black" stroke="black" points="872.48,-1005.92 862.345,-1002.84 868.343,-1011.57 872.48,-1005.92"/>
</g>
<!-- MatchModel39&#45;&gt;match_contains36 -->
<g id="edge78" class="edge"><title>MatchModel39&#45;&gt;match_contains36</title>
<path fill="none" stroke="black" d="M962.952,-1041.28C975.994,-1031.62 992.316,-1019.55 1006.49,-1009.06"/>
<polygon fill="black" stroke="black" points="1008.59,-1011.86 1014.55,-1003.09 1004.43,-1006.23 1008.59,-1011.86"/>
</g>
<!-- trace_link41&#45;&gt;Station_S33\n Classtype = 1\n Name = s_ -->
<g id="edge82" class="edge"><title>trace_link41&#45;&gt;Station_S33\n Classtype = 1\n Name = s_</title>
<path fill="none" stroke="black" d="M948.405,-620.379C952.562,-612.148 957.677,-602.02 962.857,-591.763"/>
<polygon fill="black" stroke="black" points="966.02,-593.263 967.404,-582.759 959.772,-590.108 966.02,-593.263"/>
</g>
<!-- directLink_T42\n&#45;&gt;Female_T5\n Classtype = t_\n Name = s_ -->
<g id="edge108" class="edge"><title>directLink_T42\n&#45;&gt;Female_T5\n Classtype = t_\n Name = s_</title>
<path fill="none" stroke="black" d="M731.994,-621.981C707.5,-609.352 673.211,-591.671 642.743,-575.961"/>
<polygon fill="black" stroke="black" points="644.338,-572.846 633.846,-571.374 641.13,-579.067 644.338,-572.846"/>
</g>
<!-- rightExpr43\n Classtype = None\n Name = None -->
<g id="node44" class="node"><title>rightExpr43\n Classtype = None\n Name = None</title>
<ellipse fill="lightblue" stroke="black" cx="1875" cy="-416" rx="101.823" ry="43.8406"/>
<text text-anchor="middle" x="1875" y="-430.4" font-family="Times Roman,serif" font-size="14.00">rightExpr43</text>
<text text-anchor="middle" x="1875" y="-412.4" font-family="Times Roman,serif" font-size="14.00"> Classtype = None</text>
<text text-anchor="middle" x="1875" y="-394.4" font-family="Times Roman,serif" font-size="14.00"> Name = None</text>
</g>
<!-- Constant50\n Classtype = None\n Name = None -->
<g id="node51" class="node"><title>Constant50\n Classtype = None\n Name = None</title>
<ellipse fill="lightblue" stroke="black" cx="1875" cy="-292" rx="101.823" ry="43.8406"/>
<text text-anchor="middle" x="1875" y="-306.4" font-family="Times Roman,serif" font-size="14.00">Constant50</text>
<text text-anchor="middle" x="1875" y="-288.4" font-family="Times Roman,serif" font-size="14.00"> Classtype = None</text>
<text text-anchor="middle" x="1875" y="-270.4" font-family="Times Roman,serif" font-size="14.00"> Name = None</text>
</g>
<!-- rightExpr43\n Classtype = None\n Name = None&#45;&gt;Constant50\n Classtype = None\n Name = None -->
<g id="edge94" class="edge"><title>rightExpr43\n Classtype = None\n Name = None&#45;&gt;Constant50\n Classtype = None\n Name = None</title>
<path fill="none" stroke="black" d="M1875,-371.933C1875,-363.718 1875,-355.043 1875,-346.557"/>
<polygon fill="black" stroke="black" points="1878.5,-346.343 1875,-336.343 1871.5,-346.343 1878.5,-346.343"/>
</g>
<!-- rightExpr44\n Classtype = None\n Name = None -->
<g id="node45" class="node"><title>rightExpr44\n Classtype = None\n Name = None</title>
<ellipse fill="lightblue" stroke="black" cx="990" cy="-168" rx="101.823" ry="43.8406"/>
<text text-anchor="middle" x="990" y="-182.4" font-family="Times Roman,serif" font-size="14.00">rightExpr44</text>
<text text-anchor="middle" x="990" y="-164.4" font-family="Times Roman,serif" font-size="14.00"> Classtype = None</text>
<text text-anchor="middle" x="990" y="-146.4" font-family="Times Roman,serif" font-size="14.00"> Name = None</text>
</g>
<!-- Constant51\n Classtype = None\n Name = None -->
<g id="node52" class="node"><title>Constant51\n Classtype = None\n Name = None</title>
<ellipse fill="lightblue" stroke="black" cx="990" cy="-44" rx="101.823" ry="43.8406"/>
<text text-anchor="middle" x="990" y="-58.4" font-family="Times Roman,serif" font-size="14.00">Constant51</text>
<text text-anchor="middle" x="990" y="-40.4" font-family="Times Roman,serif" font-size="14.00"> Classtype = None</text>
<text text-anchor="middle" x="990" y="-22.4" font-family="Times Roman,serif" font-size="14.00"> Name = None</text>
</g>
<!-- rightExpr44\n Classtype = None\n Name = None&#45;&gt;Constant51\n Classtype = None\n Name = None -->
<g id="edge100" class="edge"><title>rightExpr44\n Classtype = None\n Name = None&#45;&gt;Constant51\n Classtype = None\n Name = None</title>
<path fill="none" stroke="black" d="M990,-123.933C990,-115.718 990,-107.043 990,-98.5568"/>
<polygon fill="black" stroke="black" points="993.5,-98.3428 990,-88.3428 986.5,-98.3428 993.5,-98.3428"/>
</g>
<!-- Equation45\n Classtype = None\n Name = None -->
<g id="node46" class="node"><title>Equation45\n Classtype = None\n Name = None</title>
<ellipse fill="lightblue" stroke="black" cx="1712" cy="-540" rx="101.823" ry="43.8406"/>
<text text-anchor="middle" x="1712" y="-554.4" font-family="Times Roman,serif" font-size="14.00">Equation45</text>
<text text-anchor="middle" x="1712" y="-536.4" font-family="Times Roman,serif" font-size="14.00"> Classtype = None</text>
<text text-anchor="middle" x="1712" y="-518.4" font-family="Times Roman,serif" font-size="14.00"> Name = None</text>
</g>
<!-- Equation45\n Classtype = None\n Name = None&#45;&gt;rightExpr43\n Classtype = None\n Name = None -->
<g id="edge90" class="edge"><title>Equation45\n Classtype = None\n Name = None&#45;&gt;rightExpr43\n Classtype = None\n Name = None</title>
<path fill="none" stroke="black" d="M1762.68,-501.445C1779.78,-488.437 1799,-473.813 1816.65,-460.39"/>
<polygon fill="black" stroke="black" points="1818.79,-463.158 1824.63,-454.318 1814.55,-457.587 1818.79,-463.158"/>
</g>
<!-- leftExpr48\n Classtype = None\n Name = None -->
<g id="node49" class="node"><title>leftExpr48\n Classtype = None\n Name = None</title>
<ellipse fill="lightblue" stroke="black" cx="1653" cy="-416" rx="101.823" ry="43.8406"/>
<text text-anchor="middle" x="1653" y="-430.4" font-family="Times Roman,serif" font-size="14.00">leftExpr48</text>
<text text-anchor="middle" x="1653" y="-412.4" font-family="Times Roman,serif" font-size="14.00"> Classtype = None</text>
<text text-anchor="middle" x="1653" y="-394.4" font-family="Times Roman,serif" font-size="14.00"> Name = None</text>
</g>
<!-- Equation45\n Classtype = None\n Name = None&#45;&gt;leftExpr48\n Classtype = None\n Name = None -->
<g id="edge92" class="edge"><title>Equation45\n Classtype = None\n Name = None&#45;&gt;leftExpr48\n Classtype = None\n Name = None</title>
<path fill="none" stroke="black" d="M1691.36,-496.631C1687.03,-487.517 1682.41,-477.81 1677.94,-468.406"/>
<polygon fill="black" stroke="black" points="1680.98,-466.661 1673.52,-459.135 1674.66,-469.669 1680.98,-466.661"/>
</g>
<!-- Equation46\n Classtype = None\n Name = None -->
<g id="node47" class="node"><title>Equation46\n Classtype = None\n Name = None</title>
<ellipse fill="lightblue" stroke="black" cx="768" cy="-292" rx="101.823" ry="43.8406"/>
<text text-anchor="middle" x="768" y="-306.4" font-family="Times Roman,serif" font-size="14.00">Equation46</text>
<text text-anchor="middle" x="768" y="-288.4" font-family="Times Roman,serif" font-size="14.00"> Classtype = None</text>
<text text-anchor="middle" x="768" y="-270.4" font-family="Times Roman,serif" font-size="14.00"> Name = None</text>
</g>
<!-- Equation46\n Classtype = None\n Name = None&#45;&gt;rightExpr44\n Classtype = None\n Name = None -->
<g id="edge96" class="edge"><title>Equation46\n Classtype = None\n Name = None&#45;&gt;rightExpr44\n Classtype = None\n Name = None</title>
<path fill="none" stroke="black" d="M830.43,-257.129C857.741,-241.875 889.937,-223.891 918.231,-208.087"/>
<polygon fill="black" stroke="black" points="920.246,-210.971 927.269,-203.039 916.832,-204.86 920.246,-210.971"/>
</g>
<!-- leftExpr49\n Classtype = None\n Name = None -->
<g id="node50" class="node"><title>leftExpr49\n Classtype = None\n Name = None</title>
<ellipse fill="lightblue" stroke="black" cx="768" cy="-168" rx="101.823" ry="43.8406"/>
<text text-anchor="middle" x="768" y="-182.4" font-family="Times Roman,serif" font-size="14.00">leftExpr49</text>
<text text-anchor="middle" x="768" y="-164.4" font-family="Times Roman,serif" font-size="14.00"> Classtype = None</text>
<text text-anchor="middle" x="768" y="-146.4" font-family="Times Roman,serif" font-size="14.00"> Name = None</text>
</g>
<!-- Equation46\n Classtype = None\n Name = None&#45;&gt;leftExpr49\n Classtype = None\n Name = None -->
<g id="edge98" class="edge"><title>Equation46\n Classtype = None\n Name = None&#45;&gt;leftExpr49\n Classtype = None\n Name = None</title>
<path fill="none" stroke="black" d="M768,-247.933C768,-239.718 768,-231.043 768,-222.557"/>
<polygon fill="black" stroke="black" points="771.5,-222.343 768,-212.343 764.5,-222.343 771.5,-222.343"/>
</g>
<!-- indirectLink_S47&#45;&gt;Female_S6\n Classtype = 1\n Name = s_ -->
<g id="edge88" class="edge"><title>indirectLink_S47&#45;&gt;Female_S6\n Classtype = 1\n Name = s_</title>
<path fill="none" stroke="black" d="M731.912,-398.234C701.884,-380.503 654.799,-352.7 616.329,-329.985"/>
<polygon fill="black" stroke="black" points="617.647,-326.698 607.257,-324.628 614.088,-332.726 617.647,-326.698"/>
</g>
<!-- leftExpr48\n Classtype = None\n Name = None&#45;&gt;Attribute40\n Classtype = None\n Name = name -->
<g id="edge102" class="edge"><title>leftExpr48\n Classtype = None\n Name = None&#45;&gt;Attribute40\n Classtype = None\n Name = name</title>
<path fill="none" stroke="black" d="M1590.57,-381.129C1563.26,-365.875 1531.06,-347.891 1502.77,-332.087"/>
<polygon fill="black" stroke="black" points="1504.17,-328.86 1493.73,-327.039 1500.75,-334.971 1504.17,-328.86"/>
</g>
<!-- leftExpr49\n Classtype = None\n Name = None&#45;&gt;Attribute12\n Classtype = None\n Name = name -->
<g id="edge104" class="edge"><title>leftExpr49\n Classtype = None\n Name = None&#45;&gt;Attribute12\n Classtype = None\n Name = name</title>
<path fill="none" stroke="black" d="M705.57,-133.129C678.259,-117.875 646.063,-99.8909 617.769,-84.0871"/>
<polygon fill="black" stroke="black" points="619.168,-80.8596 608.731,-79.0388 615.754,-86.971 619.168,-80.8596"/>
</g>
</g>
</svg>
