<?xml version="1.0" encoding="UTF-8" standalone="no"?>
<!DOCTYPE svg PUBLIC "-//W3C//DTD SVG 1.1//EN"
 "http://www.w3.org/Graphics/SVG/1.1/DTD/svg11.dtd">
<!-- Generated by graphviz version 2.26.3 (20100126.1600)
 -->
<!-- Title: HEmptyPathCondition_HS2S_HM2M_HF2F_HSM2SM Pages: 1 -->
<svg width="2526pt" height="1086pt"
 viewBox="0.00 0.00 2526.00 1086.00" xmlns="http://www.w3.org/2000/svg" xmlns:xlink="http://www.w3.org/1999/xlink">
<g id="graph1" class="graph" transform="scale(1 1) rotate(0) translate(4 1082)">
<title>HEmptyPathCondition_HS2S_HM2M_HF2F_HSM2SM</title>
<polygon fill="white" stroke="white" points="-4,5 -4,-1082 2523,-1082 2523,5 -4,5"/>
<!-- apply_contains0 -->
<g id="node1" class="node"><title>apply_contains0</title>
<ellipse fill="#fcdb58" stroke="black" cx="1237" cy="-837" rx="90.0096" ry="18.3848"/>
<text text-anchor="middle" x="1237" y="-833.4" font-family="Times Roman,serif" font-size="14.00">apply_contains0</text>
</g>
<!-- Station_T6\n Classtype = t_\n Name = s_ -->
<g id="node7" class="node"><title>Station_T6\n Classtype = t_\n Name = s_</title>
<ellipse fill="lightblue" stroke="black" cx="1231" cy="-738" rx="85.7684" ry="43.8406"/>
<text text-anchor="middle" x="1231" y="-752.4" font-family="Times Roman,serif" font-size="14.00">Station_T6</text>
<text text-anchor="middle" x="1231" y="-734.4" font-family="Times Roman,serif" font-size="14.00"> Classtype = t_</text>
<text text-anchor="middle" x="1231" y="-716.4" font-family="Times Roman,serif" font-size="14.00"> Name = s_</text>
</g>
<!-- apply_contains0&#45;&gt;Station_T6\n Classtype = t_\n Name = s_ -->
<g id="edge4" class="edge"><title>apply_contains0&#45;&gt;Station_T6\n Classtype = t_\n Name = s_</title>
<path fill="none" stroke="black" d="M1235.87,-818.379C1235.41,-810.81 1234.86,-801.638 1234.29,-792.236"/>
<polygon fill="black" stroke="black" points="1237.77,-791.778 1233.67,-782.008 1230.78,-792.202 1237.77,-791.778"/>
</g>
<!-- leftExpr1\n Classtype = None\n Name = None -->
<g id="node2" class="node"><title>leftExpr1\n Classtype = None\n Name = None</title>
<ellipse fill="lightblue" stroke="black" cx="546" cy="-416" rx="101.823" ry="43.8406"/>
<text text-anchor="middle" x="546" y="-430.4" font-family="Times Roman,serif" font-size="14.00">leftExpr1</text>
<text text-anchor="middle" x="546" y="-412.4" font-family="Times Roman,serif" font-size="14.00"> Classtype = None</text>
<text text-anchor="middle" x="546" y="-394.4" font-family="Times Roman,serif" font-size="14.00"> Name = None</text>
</g>
<!-- Attribute12\n Classtype = None\n Name = name -->
<g id="node13" class="node"><title>Attribute12\n Classtype = None\n Name = name</title>
<ellipse fill="lightblue" stroke="black" cx="768" cy="-292" rx="101.823" ry="43.8406"/>
<text text-anchor="middle" x="768" y="-306.4" font-family="Times Roman,serif" font-size="14.00">Attribute12</text>
<text text-anchor="middle" x="768" y="-288.4" font-family="Times Roman,serif" font-size="14.00"> Classtype = None</text>
<text text-anchor="middle" x="768" y="-270.4" font-family="Times Roman,serif" font-size="14.00"> Name = name</text>
</g>
<!-- leftExpr1\n Classtype = None\n Name = None&#45;&gt;Attribute12\n Classtype = None\n Name = name -->
<g id="edge8" class="edge"><title>leftExpr1\n Classtype = None\n Name = None&#45;&gt;Attribute12\n Classtype = None\n Name = name</title>
<path fill="none" stroke="black" d="M608.43,-381.129C635.741,-365.875 667.937,-347.891 696.231,-332.087"/>
<polygon fill="black" stroke="black" points="698.246,-334.971 705.269,-327.039 694.832,-328.86 698.246,-334.971"/>
</g>
<!-- paired_with2 -->
<g id="node3" class="node"><title>paired_with2</title>
<ellipse fill="lightgray" stroke="black" cx="1296" cy="-985" rx="75.1594" ry="18.3848"/>
<text text-anchor="middle" x="1296" y="-981.4" font-family="Times Roman,serif" font-size="14.00">paired_with2</text>
</g>
<!-- ApplyModel4 -->
<g id="node5" class="node"><title>ApplyModel4</title>
<ellipse fill="#fed017" stroke="black" cx="1291" cy="-911" rx="73.0388" ry="18.3848"/>
<text text-anchor="middle" x="1291" y="-907.4" font-family="Times Roman,serif" font-size="14.00">ApplyModel4</text>
</g>
<!-- paired_with2&#45;&gt;ApplyModel4 -->
<g id="edge12" class="edge"><title>paired_with2&#45;&gt;ApplyModel4</title>
<path fill="none" stroke="black" d="M1294.74,-966.327C1294.19,-958.264 1293.54,-948.648 1292.94,-939.711"/>
<polygon fill="black" stroke="black" points="1296.43,-939.409 1292.26,-929.667 1289.44,-939.881 1296.43,-939.409"/>
</g>
<!-- hasAttr_S3\n Classtype = None\n Name = None -->
<g id="node4" class="node"><title>hasAttr_S3\n Classtype = None\n Name = None</title>
<ellipse fill="lightblue" stroke="black" cx="990" cy="-416" rx="101.823" ry="43.8406"/>
<text text-anchor="middle" x="990" y="-430.4" font-family="Times Roman,serif" font-size="14.00">hasAttr_S3</text>
<text text-anchor="middle" x="990" y="-412.4" font-family="Times Roman,serif" font-size="14.00"> Classtype = None</text>
<text text-anchor="middle" x="990" y="-394.4" font-family="Times Roman,serif" font-size="14.00"> Name = None</text>
</g>
<!-- hasAttr_S3\n Classtype = None\n Name = None&#45;&gt;Attribute12\n Classtype = None\n Name = name -->
<g id="edge16" class="edge"><title>hasAttr_S3\n Classtype = None\n Name = None&#45;&gt;Attribute12\n Classtype = None\n Name = name</title>
<path fill="none" stroke="black" d="M927.57,-381.129C900.259,-365.875 868.063,-347.891 839.769,-332.087"/>
<polygon fill="black" stroke="black" points="841.168,-328.86 830.731,-327.039 837.754,-334.971 841.168,-328.86"/>
</g>
<!-- ApplyModel4&#45;&gt;apply_contains0 -->
<g id="edge2" class="edge"><title>ApplyModel4&#45;&gt;apply_contains0</title>
<path fill="none" stroke="black" d="M1277.65,-892.708C1271.23,-883.902 1263.4,-873.179 1256.34,-863.5"/>
<polygon fill="black" stroke="black" points="1259.1,-861.353 1250.38,-855.338 1253.45,-865.479 1259.1,-861.353"/>
</g>
<!-- Station_S5\n Classtype = 1\n Name = s_ -->
<g id="node6" class="node"><title>Station_S5\n Classtype = 1\n Name = s_</title>
<ellipse fill="lightblue" stroke="black" cx="1158" cy="-540" rx="82.2301" ry="43.8406"/>
<text text-anchor="middle" x="1158" y="-554.4" font-family="Times Roman,serif" font-size="14.00">Station_S5</text>
<text text-anchor="middle" x="1158" y="-536.4" font-family="Times Roman,serif" font-size="14.00"> Classtype = 1</text>
<text text-anchor="middle" x="1158" y="-518.4" font-family="Times Roman,serif" font-size="14.00"> Name = s_</text>
</g>
<!-- Station_S5\n Classtype = 1\n Name = s_&#45;&gt;hasAttr_S3\n Classtype = None\n Name = None -->
<g id="edge14" class="edge"><title>Station_S5\n Classtype = 1\n Name = s_&#45;&gt;hasAttr_S3\n Classtype = None\n Name = None</title>
<path fill="none" stroke="black" d="M1109.41,-504.134C1090.84,-490.428 1069.44,-474.636 1049.94,-460.239"/>
<polygon fill="black" stroke="black" points="1051.83,-457.287 1041.71,-454.164 1047.67,-462.919 1051.83,-457.287"/>
</g>
<!-- indirectLink_S47 -->
<g id="node48" class="node"><title>indirectLink_S47</title>
<ellipse fill="lightgreen" stroke="black" cx="1203" cy="-416" rx="92.839" ry="18.3848"/>
<text text-anchor="middle" x="1203" y="-412.4" font-family="Times Roman,serif" font-size="14.00">indirectLink_S47</text>
</g>
<!-- Station_S5\n Classtype = 1\n Name = s_&#45;&gt;indirectLink_S47 -->
<g id="edge86" class="edge"><title>Station_S5\n Classtype = 1\n Name = s_&#45;&gt;indirectLink_S47</title>
<path fill="none" stroke="black" d="M1173.74,-496.631C1180.06,-479.214 1187.16,-459.636 1192.79,-444.133"/>
<polygon fill="black" stroke="black" points="1196.13,-445.192 1196.25,-434.598 1189.55,-442.804 1196.13,-445.192"/>
</g>
<!-- trace_link13 -->
<g id="node14" class="node"><title>trace_link13</title>
<ellipse fill="#eedd82" stroke="black" cx="1218" cy="-639" rx="72.1249" ry="18.3848"/>
<text text-anchor="middle" x="1218" y="-635.4" font-family="Times Roman,serif" font-size="14.00">trace_link13</text>
</g>
<!-- Station_T6\n Classtype = t_\n Name = s_&#45;&gt;trace_link13 -->
<g id="edge28" class="edge"><title>Station_T6\n Classtype = t_\n Name = s_&#45;&gt;trace_link13</title>
<path fill="none" stroke="black" d="M1225.22,-694.001C1224.05,-685.096 1222.85,-675.95 1221.77,-667.737"/>
<polygon fill="black" stroke="black" points="1225.21,-667.033 1220.44,-657.574 1218.27,-667.945 1225.21,-667.033"/>
</g>
<!-- directLink_T42\n -->
<g id="node43" class="node"><title>directLink_T42\n</title>
<ellipse fill="lightyellow" stroke="black" cx="1436" cy="-639" rx="84.1457" ry="18.3848"/>
<text text-anchor="middle" x="1436" y="-635.4" font-family="Times Roman,serif" font-size="14.00">directLink_T42</text>
</g>
<!-- Station_T6\n Classtype = t_\n Name = s_&#45;&gt;directLink_T42\n -->
<g id="edge90" class="edge"><title>Station_T6\n Classtype = t_\n Name = s_&#45;&gt;directLink_T42\n</title>
<path fill="none" stroke="black" d="M1293.62,-707.759C1325.25,-692.483 1362.89,-674.309 1391.52,-660.483"/>
<polygon fill="black" stroke="black" points="1393.37,-663.472 1400.86,-655.971 1390.33,-657.168 1393.37,-663.472"/>
</g>
<!-- Equation7\n Classtype = None\n Name = None -->
<g id="node8" class="node"><title>Equation7\n Classtype = None\n Name = None</title>
<ellipse fill="lightblue" stroke="black" cx="213" cy="-540" rx="101.823" ry="43.8406"/>
<text text-anchor="middle" x="213" y="-554.4" font-family="Times Roman,serif" font-size="14.00">Equation7</text>
<text text-anchor="middle" x="213" y="-536.4" font-family="Times Roman,serif" font-size="14.00"> Classtype = None</text>
<text text-anchor="middle" x="213" y="-518.4" font-family="Times Roman,serif" font-size="14.00"> Name = None</text>
</g>
<!-- Equation7\n Classtype = None\n Name = None&#45;&gt;leftExpr1\n Classtype = None\n Name = None -->
<g id="edge6" class="edge"><title>Equation7\n Classtype = None\n Name = None&#45;&gt;leftExpr1\n Classtype = None\n Name = None</title>
<path fill="none" stroke="black" d="M292.078,-512.186C334.563,-497.071 387.773,-477.865 435,-460 443.706,-456.707 452.773,-453.215 461.806,-449.696"/>
<polygon fill="black" stroke="black" points="463.153,-452.928 471.191,-446.026 460.603,-446.408 463.153,-452.928"/>
</g>
<!-- rightExpr10\n Classtype = None\n Name = None -->
<g id="node11" class="node"><title>rightExpr10\n Classtype = None\n Name = None</title>
<ellipse fill="lightblue" stroke="black" cx="102" cy="-416" rx="101.823" ry="43.8406"/>
<text text-anchor="middle" x="102" y="-430.4" font-family="Times Roman,serif" font-size="14.00">rightExpr10</text>
<text text-anchor="middle" x="102" y="-412.4" font-family="Times Roman,serif" font-size="14.00"> Classtype = None</text>
<text text-anchor="middle" x="102" y="-394.4" font-family="Times Roman,serif" font-size="14.00"> Name = None</text>
</g>
<!-- Equation7\n Classtype = None\n Name = None&#45;&gt;rightExpr10\n Classtype = None\n Name = None -->
<g id="edge20" class="edge"><title>Equation7\n Classtype = None\n Name = None&#45;&gt;rightExpr10\n Classtype = None\n Name = None</title>
<path fill="none" stroke="black" d="M176.039,-498.71C166.303,-487.834 155.707,-475.997 145.655,-464.768"/>
<polygon fill="black" stroke="black" points="148.078,-462.226 138.8,-457.11 142.862,-466.895 148.078,-462.226"/>
</g>
<!-- match_contains8 -->
<g id="node9" class="node"><title>match_contains8</title>
<ellipse fill="#f798a1" stroke="black" cx="1108" cy="-985" rx="94.7523" ry="18.3848"/>
<text text-anchor="middle" x="1108" y="-981.4" font-family="Times Roman,serif" font-size="14.00">match_contains8</text>
</g>
<!-- match_contains8&#45;&gt;Station_S5\n Classtype = 1\n Name = s_ -->
<g id="edge18" class="edge"><title>match_contains8&#45;&gt;Station_S5\n Classtype = 1\n Name = s_</title>
<path fill="none" stroke="black" d="M1108.83,-966.314C1110,-938.244 1112,-883.524 1112,-837 1112,-837 1112,-837 1112,-738 1112,-687.899 1126.15,-632.473 1138.75,-593.036"/>
<polygon fill="black" stroke="black" points="1142.13,-593.96 1141.91,-583.367 1135.48,-591.785 1142.13,-593.96"/>
</g>
<!-- Constant9\n Classtype = None\n Name = None -->
<g id="node10" class="node"><title>Constant9\n Classtype = None\n Name = None</title>
<ellipse fill="lightblue" stroke="black" cx="102" cy="-292" rx="101.823" ry="43.8406"/>
<text text-anchor="middle" x="102" y="-306.4" font-family="Times Roman,serif" font-size="14.00">Constant9</text>
<text text-anchor="middle" x="102" y="-288.4" font-family="Times Roman,serif" font-size="14.00"> Classtype = None</text>
<text text-anchor="middle" x="102" y="-270.4" font-family="Times Roman,serif" font-size="14.00"> Name = None</text>
</g>
<!-- rightExpr10\n Classtype = None\n Name = None&#45;&gt;Constant9\n Classtype = None\n Name = None -->
<g id="edge24" class="edge"><title>rightExpr10\n Classtype = None\n Name = None&#45;&gt;Constant9\n Classtype = None\n Name = None</title>
<path fill="none" stroke="black" d="M102,-371.933C102,-363.718 102,-355.043 102,-346.557"/>
<polygon fill="black" stroke="black" points="105.5,-346.343 102,-336.343 98.5001,-346.343 105.5,-346.343"/>
</g>
<!-- MatchModel11 -->
<g id="node12" class="node"><title>MatchModel11</title>
<ellipse fill="#e15c34" stroke="black" cx="1202" cy="-1059" rx="82.2301" ry="18.3848"/>
<text text-anchor="middle" x="1202" y="-1055.4" font-family="Times Roman,serif" font-size="14.00">MatchModel11</text>
</g>
<!-- MatchModel11&#45;&gt;paired_with2 -->
<g id="edge10" class="edge"><title>MatchModel11&#45;&gt;paired_with2</title>
<path fill="none" stroke="black" d="M1224.75,-1041.09C1236.99,-1031.45 1252.25,-1019.44 1265.51,-1009.01"/>
<polygon fill="black" stroke="black" points="1267.76,-1011.68 1273.45,-1002.75 1263.43,-1006.18 1267.76,-1011.68"/>
</g>
<!-- MatchModel11&#45;&gt;match_contains8 -->
<g id="edge22" class="edge"><title>MatchModel11&#45;&gt;match_contains8</title>
<path fill="none" stroke="black" d="M1179.25,-1041.09C1167.1,-1031.52 1151.97,-1019.62 1138.79,-1009.24"/>
<polygon fill="black" stroke="black" points="1140.89,-1006.44 1130.87,-1003 1136.56,-1011.94 1140.89,-1006.44"/>
</g>
<!-- trace_link13&#45;&gt;Station_S5\n Classtype = 1\n Name = s_ -->
<g id="edge26" class="edge"><title>trace_link13&#45;&gt;Station_S5\n Classtype = 1\n Name = s_</title>
<path fill="none" stroke="black" d="M1206.71,-620.379C1201.57,-611.89 1195.2,-601.383 1188.79,-590.797"/>
<polygon fill="black" stroke="black" points="1191.59,-588.667 1183.41,-581.929 1185.6,-592.295 1191.59,-588.667"/>
</g>
<!-- apply_contains14 -->
<g id="node15" class="node"><title>apply_contains14</title>
<ellipse fill="#fcdb58" stroke="black" cx="1635" cy="-639" rx="96.8736" ry="18.3848"/>
<text text-anchor="middle" x="1635" y="-635.4" font-family="Times Roman,serif" font-size="14.00">apply_contains14</text>
</g>
<!-- Male_T21\n Classtype = t_\n Name = s_ -->
<g id="node22" class="node"><title>Male_T21\n Classtype = t_\n Name = s_</title>
<ellipse fill="lightblue" stroke="black" cx="1438" cy="-540" rx="85.7684" ry="43.8406"/>
<text text-anchor="middle" x="1438" y="-554.4" font-family="Times Roman,serif" font-size="14.00">Male_T21</text>
<text text-anchor="middle" x="1438" y="-536.4" font-family="Times Roman,serif" font-size="14.00"> Classtype = t_</text>
<text text-anchor="middle" x="1438" y="-518.4" font-family="Times Roman,serif" font-size="14.00"> Name = s_</text>
</g>
<!-- apply_contains14&#45;&gt;Male_T21\n Classtype = t_\n Name = s_ -->
<g id="edge32" class="edge"><title>apply_contains14&#45;&gt;Male_T21\n Classtype = t_\n Name = s_</title>
<path fill="none" stroke="black" d="M1600.23,-621.529C1574.9,-608.797 1539.71,-591.111 1508.57,-575.465"/>
<polygon fill="black" stroke="black" points="1509.99,-572.261 1499.48,-570.898 1506.85,-578.516 1509.99,-572.261"/>
</g>
<!-- leftExpr15\n Classtype = None\n Name = None -->
<g id="node16" class="node"><title>leftExpr15\n Classtype = None\n Name = None</title>
<ellipse fill="lightblue" stroke="black" cx="1102" cy="-168" rx="101.823" ry="43.8406"/>
<text text-anchor="middle" x="1102" y="-182.4" font-family="Times Roman,serif" font-size="14.00">leftExpr15</text>
<text text-anchor="middle" x="1102" y="-164.4" font-family="Times Roman,serif" font-size="14.00"> Classtype = None</text>
<text text-anchor="middle" x="1102" y="-146.4" font-family="Times Roman,serif" font-size="14.00"> Name = None</text>
</g>
<!-- Attribute25\n Classtype = None\n Name = name -->
<g id="node26" class="node"><title>Attribute25\n Classtype = None\n Name = name</title>
<ellipse fill="lightblue" stroke="black" cx="1324" cy="-44" rx="101.823" ry="43.8406"/>
<text text-anchor="middle" x="1324" y="-58.4" font-family="Times Roman,serif" font-size="14.00">Attribute25</text>
<text text-anchor="middle" x="1324" y="-40.4" font-family="Times Roman,serif" font-size="14.00"> Classtype = None</text>
<text text-anchor="middle" x="1324" y="-22.4" font-family="Times Roman,serif" font-size="14.00"> Name = name</text>
</g>
<!-- leftExpr15\n Classtype = None\n Name = None&#45;&gt;Attribute25\n Classtype = None\n Name = name -->
<g id="edge36" class="edge"><title>leftExpr15\n Classtype = None\n Name = None&#45;&gt;Attribute25\n Classtype = None\n Name = name</title>
<path fill="none" stroke="black" d="M1164.43,-133.129C1191.74,-117.875 1223.94,-99.8909 1252.23,-84.0871"/>
<polygon fill="black" stroke="black" points="1254.25,-86.971 1261.27,-79.0388 1250.83,-80.8596 1254.25,-86.971"/>
</g>
<!-- paired_with16 -->
<g id="node17" class="node"><title>paired_with16</title>
<ellipse fill="lightgray" stroke="black" cx="1598" cy="-837" rx="82.0244" ry="18.3848"/>
<text text-anchor="middle" x="1598" y="-833.4" font-family="Times Roman,serif" font-size="14.00">paired_with16</text>
</g>
<!-- ApplyModel18 -->
<g id="node19" class="node"><title>ApplyModel18</title>
<ellipse fill="#fed017" stroke="black" cx="1635" cy="-738" rx="79.9031" ry="18.3848"/>
<text text-anchor="middle" x="1635" y="-734.4" font-family="Times Roman,serif" font-size="14.00">ApplyModel18</text>
</g>
<!-- paired_with16&#45;&gt;ApplyModel18 -->
<g id="edge40" class="edge"><title>paired_with16&#45;&gt;ApplyModel18</title>
<path fill="none" stroke="black" d="M1604.96,-818.379C1610.44,-803.721 1618.16,-783.049 1624.41,-766.34"/>
<polygon fill="black" stroke="black" points="1627.85,-767.13 1628.07,-756.538 1621.29,-764.68 1627.85,-767.13"/>
</g>
<!-- hasAttr_S17\n Classtype = None\n Name = None -->
<g id="node18" class="node"><title>hasAttr_S17\n Classtype = None\n Name = None</title>
<ellipse fill="lightblue" stroke="black" cx="1324" cy="-168" rx="101.823" ry="43.8406"/>
<text text-anchor="middle" x="1324" y="-182.4" font-family="Times Roman,serif" font-size="14.00">hasAttr_S17</text>
<text text-anchor="middle" x="1324" y="-164.4" font-family="Times Roman,serif" font-size="14.00"> Classtype = None</text>
<text text-anchor="middle" x="1324" y="-146.4" font-family="Times Roman,serif" font-size="14.00"> Name = None</text>
</g>
<!-- hasAttr_S17\n Classtype = None\n Name = None&#45;&gt;Attribute25\n Classtype = None\n Name = name -->
<g id="edge44" class="edge"><title>hasAttr_S17\n Classtype = None\n Name = None&#45;&gt;Attribute25\n Classtype = None\n Name = name</title>
<path fill="none" stroke="black" d="M1324,-123.933C1324,-115.718 1324,-107.043 1324,-98.5568"/>
<polygon fill="black" stroke="black" points="1327.5,-98.3428 1324,-88.3428 1320.5,-98.3428 1327.5,-98.3428"/>
</g>
<!-- ApplyModel18&#45;&gt;apply_contains14 -->
<g id="edge30" class="edge"><title>ApplyModel18&#45;&gt;apply_contains14</title>
<path fill="none" stroke="black" d="M1635,-719.379C1635,-704.86 1635,-684.439 1635,-667.814"/>
<polygon fill="black" stroke="black" points="1638.5,-667.538 1635,-657.538 1631.5,-667.538 1638.5,-667.538"/>
</g>
<!-- Equation19\n Classtype = None\n Name = None -->
<g id="node20" class="node"><title>Equation19\n Classtype = None\n Name = None</title>
<ellipse fill="lightblue" stroke="black" cx="1046" cy="-292" rx="101.823" ry="43.8406"/>
<text text-anchor="middle" x="1046" y="-306.4" font-family="Times Roman,serif" font-size="14.00">Equation19</text>
<text text-anchor="middle" x="1046" y="-288.4" font-family="Times Roman,serif" font-size="14.00"> Classtype = None</text>
<text text-anchor="middle" x="1046" y="-270.4" font-family="Times Roman,serif" font-size="14.00"> Name = None</text>
</g>
<!-- Equation19\n Classtype = None\n Name = None&#45;&gt;leftExpr15\n Classtype = None\n Name = None -->
<g id="edge34" class="edge"><title>Equation19\n Classtype = None\n Name = None&#45;&gt;leftExpr15\n Classtype = None\n Name = None</title>
<path fill="none" stroke="black" d="M1065.59,-248.631C1069.65,-239.621 1073.98,-230.034 1078.19,-220.73"/>
<polygon fill="black" stroke="black" points="1081.4,-222.109 1082.33,-211.554 1075.02,-219.227 1081.4,-222.109"/>
</g>
<!-- rightExpr23\n Classtype = None\n Name = None -->
<g id="node24" class="node"><title>rightExpr23\n Classtype = None\n Name = None</title>
<ellipse fill="lightblue" stroke="black" cx="880" cy="-168" rx="101.823" ry="43.8406"/>
<text text-anchor="middle" x="880" y="-182.4" font-family="Times Roman,serif" font-size="14.00">rightExpr23</text>
<text text-anchor="middle" x="880" y="-164.4" font-family="Times Roman,serif" font-size="14.00"> Classtype = None</text>
<text text-anchor="middle" x="880" y="-146.4" font-family="Times Roman,serif" font-size="14.00"> Name = None</text>
</g>
<!-- Equation19\n Classtype = None\n Name = None&#45;&gt;rightExpr23\n Classtype = None\n Name = None -->
<g id="edge46" class="edge"><title>Equation19\n Classtype = None\n Name = None&#45;&gt;rightExpr23\n Classtype = None\n Name = None</title>
<path fill="none" stroke="black" d="M994.84,-253.784C977.326,-240.702 957.584,-225.954 939.471,-212.424"/>
<polygon fill="black" stroke="black" points="941.383,-209.484 931.277,-206.303 937.194,-215.092 941.383,-209.484"/>
</g>
<!-- match_contains20 -->
<g id="node21" class="node"><title>match_contains20</title>
<ellipse fill="#f798a1" stroke="black" cx="1436" cy="-738" rx="101.116" ry="18.3848"/>
<text text-anchor="middle" x="1436" y="-734.4" font-family="Times Roman,serif" font-size="14.00">match_contains20</text>
</g>
<!-- Male_S26\n Classtype = 1\n Name = s_ -->
<g id="node27" class="node"><title>Male_S26\n Classtype = 1\n Name = s_</title>
<ellipse fill="lightblue" stroke="black" cx="1324" cy="-292" rx="82.2301" ry="43.8406"/>
<text text-anchor="middle" x="1324" y="-306.4" font-family="Times Roman,serif" font-size="14.00">Male_S26</text>
<text text-anchor="middle" x="1324" y="-288.4" font-family="Times Roman,serif" font-size="14.00"> Classtype = 1</text>
<text text-anchor="middle" x="1324" y="-270.4" font-family="Times Roman,serif" font-size="14.00"> Name = s_</text>
</g>
<!-- match_contains20&#45;&gt;Male_S26\n Classtype = 1\n Name = s_ -->
<g id="edge50" class="edge"><title>match_contains20&#45;&gt;Male_S26\n Classtype = 1\n Name = s_</title>
<path fill="none" stroke="black" d="M1404.57,-720.394C1383.1,-706.49 1356.23,-684.959 1343,-658 1293.35,-556.798 1303.32,-420.378 1314.17,-345.955"/>
<polygon fill="black" stroke="black" points="1317.66,-346.288 1315.7,-335.876 1310.74,-345.237 1317.66,-346.288"/>
</g>
<!-- trace_link27 -->
<g id="node28" class="node"><title>trace_link27</title>
<ellipse fill="#eedd82" stroke="black" cx="1431" cy="-416" rx="72.1249" ry="18.3848"/>
<text text-anchor="middle" x="1431" y="-412.4" font-family="Times Roman,serif" font-size="14.00">trace_link27</text>
</g>
<!-- Male_T21\n Classtype = t_\n Name = s_&#45;&gt;trace_link27 -->
<g id="edge56" class="edge"><title>Male_T21\n Classtype = t_\n Name = s_&#45;&gt;trace_link27</title>
<path fill="none" stroke="black" d="M1435.51,-495.933C1434.56,-479.016 1433.49,-460.151 1432.64,-444.997"/>
<polygon fill="black" stroke="black" points="1436.11,-444.487 1432.06,-434.7 1429.12,-444.882 1436.11,-444.487"/>
</g>
<!-- Constant22\n Classtype = None\n Name = None -->
<g id="node23" class="node"><title>Constant22\n Classtype = None\n Name = None</title>
<ellipse fill="lightblue" stroke="black" cx="880" cy="-44" rx="101.823" ry="43.8406"/>
<text text-anchor="middle" x="880" y="-58.4" font-family="Times Roman,serif" font-size="14.00">Constant22</text>
<text text-anchor="middle" x="880" y="-40.4" font-family="Times Roman,serif" font-size="14.00"> Classtype = None</text>
<text text-anchor="middle" x="880" y="-22.4" font-family="Times Roman,serif" font-size="14.00"> Name = None</text>
</g>
<!-- rightExpr23\n Classtype = None\n Name = None&#45;&gt;Constant22\n Classtype = None\n Name = None -->
<g id="edge52" class="edge"><title>rightExpr23\n Classtype = None\n Name = None&#45;&gt;Constant22\n Classtype = None\n Name = None</title>
<path fill="none" stroke="black" d="M880,-123.933C880,-115.718 880,-107.043 880,-98.5568"/>
<polygon fill="black" stroke="black" points="883.5,-98.3428 880,-88.3428 876.5,-98.3428 883.5,-98.3428"/>
</g>
<!-- MatchModel24 -->
<g id="node25" class="node"><title>MatchModel24</title>
<ellipse fill="#e15c34" stroke="black" cx="1478" cy="-911" rx="82.2301" ry="18.3848"/>
<text text-anchor="middle" x="1478" y="-907.4" font-family="Times Roman,serif" font-size="14.00">MatchModel24</text>
</g>
<!-- MatchModel24&#45;&gt;paired_with16 -->
<g id="edge38" class="edge"><title>MatchModel24&#45;&gt;paired_with16</title>
<path fill="none" stroke="black" d="M1506.44,-893.463C1522.73,-883.418 1543.36,-870.697 1560.91,-859.874"/>
<polygon fill="black" stroke="black" points="1563.09,-862.639 1569.77,-854.411 1559.42,-856.681 1563.09,-862.639"/>
</g>
<!-- MatchModel24&#45;&gt;match_contains20 -->
<g id="edge48" class="edge"><title>MatchModel24&#45;&gt;match_contains20</title>
<path fill="none" stroke="black" d="M1473.51,-892.486C1466.17,-862.259 1451.56,-802.112 1442.9,-766.439"/>
<polygon fill="black" stroke="black" points="1446.29,-765.534 1440.53,-756.642 1439.48,-767.186 1446.29,-765.534"/>
</g>
<!-- Male_S26\n Classtype = 1\n Name = s_&#45;&gt;hasAttr_S17\n Classtype = None\n Name = None -->
<g id="edge42" class="edge"><title>Male_S26\n Classtype = 1\n Name = s_&#45;&gt;hasAttr_S17\n Classtype = None\n Name = None</title>
<path fill="none" stroke="black" d="M1324,-247.933C1324,-239.718 1324,-231.043 1324,-222.557"/>
<polygon fill="black" stroke="black" points="1327.5,-222.343 1324,-212.343 1320.5,-222.343 1327.5,-222.343"/>
</g>
<!-- trace_link27&#45;&gt;Male_S26\n Classtype = 1\n Name = s_ -->
<g id="edge54" class="edge"><title>trace_link27&#45;&gt;Male_S26\n Classtype = 1\n Name = s_</title>
<path fill="none" stroke="black" d="M1415.21,-397.703C1402.07,-382.47 1382.74,-360.076 1365.26,-339.817"/>
<polygon fill="black" stroke="black" points="1367.85,-337.461 1358.67,-332.176 1362.55,-342.034 1367.85,-337.461"/>
</g>
<!-- apply_contains28 -->
<g id="node29" class="node"><title>apply_contains28</title>
<ellipse fill="#fcdb58" stroke="black" cx="2237" cy="-837" rx="96.8736" ry="18.3848"/>
<text text-anchor="middle" x="2237" y="-833.4" font-family="Times Roman,serif" font-size="14.00">apply_contains28</text>
</g>
<!-- Female_T33\n Classtype = t_\n Name = s_ -->
<g id="node34" class="node"><title>Female_T33\n Classtype = t_\n Name = s_</title>
<ellipse fill="lightblue" stroke="black" cx="2252" cy="-738" rx="85.7684" ry="43.8406"/>
<text text-anchor="middle" x="2252" y="-752.4" font-family="Times Roman,serif" font-size="14.00">Female_T33</text>
<text text-anchor="middle" x="2252" y="-734.4" font-family="Times Roman,serif" font-size="14.00"> Classtype = t_</text>
<text text-anchor="middle" x="2252" y="-716.4" font-family="Times Roman,serif" font-size="14.00"> Name = s_</text>
</g>
<!-- apply_contains28&#45;&gt;Female_T33\n Classtype = t_\n Name = s_ -->
<g id="edge60" class="edge"><title>apply_contains28&#45;&gt;Female_T33\n Classtype = t_\n Name = s_</title>
<path fill="none" stroke="black" d="M2239.82,-818.379C2240.98,-810.73 2242.39,-801.443 2243.83,-791.936"/>
<polygon fill="black" stroke="black" points="2247.29,-792.42 2245.33,-782.008 2240.37,-791.371 2247.29,-792.42"/>
</g>
<!-- leftExpr29\n Classtype = None\n Name = None -->
<g id="node30" class="node"><title>leftExpr29\n Classtype = None\n Name = None</title>
<ellipse fill="lightblue" stroke="black" cx="2101" cy="-416" rx="101.823" ry="43.8406"/>
<text text-anchor="middle" x="2101" y="-430.4" font-family="Times Roman,serif" font-size="14.00">leftExpr29</text>
<text text-anchor="middle" x="2101" y="-412.4" font-family="Times Roman,serif" font-size="14.00"> Classtype = None</text>
<text text-anchor="middle" x="2101" y="-394.4" font-family="Times Roman,serif" font-size="14.00"> Name = None</text>
</g>
<!-- Attribute40\n Classtype = None\n Name = name -->
<g id="node41" class="node"><title>Attribute40\n Classtype = None\n Name = name</title>
<ellipse fill="lightblue" stroke="black" cx="2212" cy="-292" rx="101.823" ry="43.8406"/>
<text text-anchor="middle" x="2212" y="-306.4" font-family="Times Roman,serif" font-size="14.00">Attribute40</text>
<text text-anchor="middle" x="2212" y="-288.4" font-family="Times Roman,serif" font-size="14.00"> Classtype = None</text>
<text text-anchor="middle" x="2212" y="-270.4" font-family="Times Roman,serif" font-size="14.00"> Name = name</text>
</g>
<!-- leftExpr29\n Classtype = None\n Name = None&#45;&gt;Attribute40\n Classtype = None\n Name = name -->
<g id="edge64" class="edge"><title>leftExpr29\n Classtype = None\n Name = None&#45;&gt;Attribute40\n Classtype = None\n Name = name</title>
<path fill="none" stroke="black" d="M2137.96,-374.71C2147.7,-363.834 2158.29,-351.997 2168.35,-340.768"/>
<polygon fill="black" stroke="black" points="2171.14,-342.895 2175.2,-333.11 2165.92,-338.226 2171.14,-342.895"/>
</g>
<!-- paired_with30 -->
<g id="node31" class="node"><title>paired_with30</title>
<ellipse fill="lightgray" stroke="black" cx="2240" cy="-985" rx="82.0244" ry="18.3848"/>
<text text-anchor="middle" x="2240" y="-981.4" font-family="Times Roman,serif" font-size="14.00">paired_with30</text>
</g>
<!-- ApplyModel32 -->
<g id="node33" class="node"><title>ApplyModel32</title>
<ellipse fill="#fed017" stroke="black" cx="2218" cy="-911" rx="79.9031" ry="18.3848"/>
<text text-anchor="middle" x="2218" y="-907.4" font-family="Times Roman,serif" font-size="14.00">ApplyModel32</text>
</g>
<!-- paired_with30&#45;&gt;ApplyModel32 -->
<g id="edge68" class="edge"><title>paired_with30&#45;&gt;ApplyModel32</title>
<path fill="none" stroke="black" d="M2234.45,-966.327C2232.03,-958.176 2229.13,-948.438 2226.45,-939.42"/>
<polygon fill="black" stroke="black" points="2229.75,-938.255 2223.55,-929.667 2223.04,-940.25 2229.75,-938.255"/>
</g>
<!-- hasAttr_S31\n Classtype = None\n Name = None -->
<g id="node32" class="node"><title>hasAttr_S31\n Classtype = None\n Name = None</title>
<ellipse fill="lightblue" stroke="black" cx="2323" cy="-416" rx="101.823" ry="43.8406"/>
<text text-anchor="middle" x="2323" y="-430.4" font-family="Times Roman,serif" font-size="14.00">hasAttr_S31</text>
<text text-anchor="middle" x="2323" y="-412.4" font-family="Times Roman,serif" font-size="14.00"> Classtype = None</text>
<text text-anchor="middle" x="2323" y="-394.4" font-family="Times Roman,serif" font-size="14.00"> Name = None</text>
</g>
<!-- hasAttr_S31\n Classtype = None\n Name = None&#45;&gt;Attribute40\n Classtype = None\n Name = name -->
<g id="edge72" class="edge"><title>hasAttr_S31\n Classtype = None\n Name = None&#45;&gt;Attribute40\n Classtype = None\n Name = name</title>
<path fill="none" stroke="black" d="M2286.04,-374.71C2276.3,-363.834 2265.71,-351.997 2255.65,-340.768"/>
<polygon fill="black" stroke="black" points="2258.08,-338.226 2248.8,-333.11 2252.86,-342.895 2258.08,-338.226"/>
</g>
<!-- ApplyModel32&#45;&gt;apply_contains28 -->
<g id="edge58" class="edge"><title>ApplyModel32&#45;&gt;apply_contains28</title>
<path fill="none" stroke="black" d="M2222.79,-892.327C2224.89,-884.176 2227.39,-874.438 2229.7,-865.42"/>
<polygon fill="black" stroke="black" points="2233.11,-866.224 2232.21,-855.667 2226.33,-864.483 2233.11,-866.224"/>
</g>
<!-- trace_link41 -->
<g id="node42" class="node"><title>trace_link41</title>
<ellipse fill="#eedd82" stroke="black" cx="2266" cy="-639" rx="72.1249" ry="18.3848"/>
<text text-anchor="middle" x="2266" y="-635.4" font-family="Times Roman,serif" font-size="14.00">trace_link41</text>
</g>
<!-- Female_T33\n Classtype = t_\n Name = s_&#45;&gt;trace_link41 -->
<g id="edge84" class="edge"><title>Female_T33\n Classtype = t_\n Name = s_&#45;&gt;trace_link41</title>
<path fill="none" stroke="black" d="M2258.22,-694.001C2259.48,-685.096 2260.77,-675.95 2261.94,-667.737"/>
<polygon fill="black" stroke="black" points="2265.44,-667.966 2263.37,-657.574 2258.51,-666.985 2265.44,-667.966"/>
</g>
<!-- Female_S34\n Classtype = 1\n Name = s_ -->
<g id="node35" class="node"><title>Female_S34\n Classtype = 1\n Name = s_</title>
<ellipse fill="lightblue" stroke="black" cx="2323" cy="-540" rx="82.2301" ry="43.8406"/>
<text text-anchor="middle" x="2323" y="-554.4" font-family="Times Roman,serif" font-size="14.00">Female_S34</text>
<text text-anchor="middle" x="2323" y="-536.4" font-family="Times Roman,serif" font-size="14.00"> Classtype = 1</text>
<text text-anchor="middle" x="2323" y="-518.4" font-family="Times Roman,serif" font-size="14.00"> Name = s_</text>
</g>
<!-- Female_S34\n Classtype = 1\n Name = s_&#45;&gt;hasAttr_S31\n Classtype = None\n Name = None -->
<g id="edge70" class="edge"><title>Female_S34\n Classtype = 1\n Name = s_&#45;&gt;hasAttr_S31\n Classtype = None\n Name = None</title>
<path fill="none" stroke="black" d="M2323,-495.933C2323,-487.718 2323,-479.043 2323,-470.557"/>
<polygon fill="black" stroke="black" points="2326.5,-470.343 2323,-460.343 2319.5,-470.343 2326.5,-470.343"/>
</g>
<!-- Equation35\n Classtype = None\n Name = None -->
<g id="node36" class="node"><title>Equation35\n Classtype = None\n Name = None</title>
<ellipse fill="lightblue" stroke="black" cx="1990" cy="-540" rx="101.823" ry="43.8406"/>
<text text-anchor="middle" x="1990" y="-554.4" font-family="Times Roman,serif" font-size="14.00">Equation35</text>
<text text-anchor="middle" x="1990" y="-536.4" font-family="Times Roman,serif" font-size="14.00"> Classtype = None</text>
<text text-anchor="middle" x="1990" y="-518.4" font-family="Times Roman,serif" font-size="14.00"> Name = None</text>
</g>
<!-- Equation35\n Classtype = None\n Name = None&#45;&gt;leftExpr29\n Classtype = None\n Name = None -->
<g id="edge62" class="edge"><title>Equation35\n Classtype = None\n Name = None&#45;&gt;leftExpr29\n Classtype = None\n Name = None</title>
<path fill="none" stroke="black" d="M2026.96,-498.71C2036.7,-487.834 2047.29,-475.997 2057.35,-464.768"/>
<polygon fill="black" stroke="black" points="2060.14,-466.895 2064.2,-457.11 2054.92,-462.226 2060.14,-466.895"/>
</g>
<!-- rightExpr38\n Classtype = None\n Name = None -->
<g id="node39" class="node"><title>rightExpr38\n Classtype = None\n Name = None</title>
<ellipse fill="lightblue" stroke="black" cx="1879" cy="-416" rx="101.823" ry="43.8406"/>
<text text-anchor="middle" x="1879" y="-430.4" font-family="Times Roman,serif" font-size="14.00">rightExpr38</text>
<text text-anchor="middle" x="1879" y="-412.4" font-family="Times Roman,serif" font-size="14.00"> Classtype = None</text>
<text text-anchor="middle" x="1879" y="-394.4" font-family="Times Roman,serif" font-size="14.00"> Name = None</text>
</g>
<!-- Equation35\n Classtype = None\n Name = None&#45;&gt;rightExpr38\n Classtype = None\n Name = None -->
<g id="edge76" class="edge"><title>Equation35\n Classtype = None\n Name = None&#45;&gt;rightExpr38\n Classtype = None\n Name = None</title>
<path fill="none" stroke="black" d="M1953.04,-498.71C1943.3,-487.834 1932.71,-475.997 1922.65,-464.768"/>
<polygon fill="black" stroke="black" points="1925.08,-462.226 1915.8,-457.11 1919.86,-466.895 1925.08,-462.226"/>
</g>
<!-- match_contains36 -->
<g id="node37" class="node"><title>match_contains36</title>
<ellipse fill="#f798a1" stroke="black" cx="2417" cy="-911" rx="101.116" ry="18.3848"/>
<text text-anchor="middle" x="2417" y="-907.4" font-family="Times Roman,serif" font-size="14.00">match_contains36</text>
</g>
<!-- match_contains36&#45;&gt;Female_S34\n Classtype = 1\n Name = s_ -->
<g id="edge74" class="edge"><title>match_contains36&#45;&gt;Female_S34\n Classtype = 1\n Name = s_</title>
<path fill="none" stroke="black" d="M2412.85,-892.184C2402.54,-845.754 2374.57,-722.086 2347,-620 2344.64,-611.262 2342,-602.028 2339.37,-593.061"/>
<polygon fill="black" stroke="black" points="2342.72,-592.06 2336.52,-583.471 2336.01,-594.053 2342.72,-592.06"/>
</g>
<!-- Constant37\n Classtype = None\n Name = None -->
<g id="node38" class="node"><title>Constant37\n Classtype = None\n Name = None</title>
<ellipse fill="lightblue" stroke="black" cx="1879" cy="-292" rx="101.823" ry="43.8406"/>
<text text-anchor="middle" x="1879" y="-306.4" font-family="Times Roman,serif" font-size="14.00">Constant37</text>
<text text-anchor="middle" x="1879" y="-288.4" font-family="Times Roman,serif" font-size="14.00"> Classtype = None</text>
<text text-anchor="middle" x="1879" y="-270.4" font-family="Times Roman,serif" font-size="14.00"> Name = None</text>
</g>
<!-- rightExpr38\n Classtype = None\n Name = None&#45;&gt;Constant37\n Classtype = None\n Name = None -->
<g id="edge80" class="edge"><title>rightExpr38\n Classtype = None\n Name = None&#45;&gt;Constant37\n Classtype = None\n Name = None</title>
<path fill="none" stroke="black" d="M1879,-371.933C1879,-363.718 1879,-355.043 1879,-346.557"/>
<polygon fill="black" stroke="black" points="1882.5,-346.343 1879,-336.343 1875.5,-346.343 1882.5,-346.343"/>
</g>
<!-- MatchModel39 -->
<g id="node40" class="node"><title>MatchModel39</title>
<ellipse fill="#e15c34" stroke="black" cx="2317" cy="-1059" rx="82.2301" ry="18.3848"/>
<text text-anchor="middle" x="2317" y="-1055.4" font-family="Times Roman,serif" font-size="14.00">MatchModel39</text>
</g>
<!-- MatchModel39&#45;&gt;paired_with30 -->
<g id="edge66" class="edge"><title>MatchModel39&#45;&gt;paired_with30</title>
<path fill="none" stroke="black" d="M2297.97,-1040.71C2288.36,-1031.48 2276.56,-1020.14 2266.13,-1010.11"/>
<polygon fill="black" stroke="black" points="2268.45,-1007.49 2258.81,-1003.08 2263.6,-1012.53 2268.45,-1007.49"/>
</g>
<!-- MatchModel39&#45;&gt;match_contains36 -->
<g id="edge78" class="edge"><title>MatchModel39&#45;&gt;match_contains36</title>
<path fill="none" stroke="black" d="M2329.46,-1040.55C2346.83,-1014.85 2378.43,-968.08 2398.54,-938.324"/>
<polygon fill="black" stroke="black" points="2401.68,-939.923 2404.38,-929.678 2395.88,-936.004 2401.68,-939.923"/>
</g>
<!-- trace_link41&#45;&gt;Female_S34\n Classtype = 1\n Name = s_ -->
<g id="edge82" class="edge"><title>trace_link41&#45;&gt;Female_S34\n Classtype = 1\n Name = s_</title>
<path fill="none" stroke="black" d="M2276.72,-620.379C2281.56,-611.977 2287.53,-601.599 2293.56,-591.124"/>
<polygon fill="black" stroke="black" points="2296.66,-592.757 2298.62,-582.344 2290.6,-589.264 2296.66,-592.757"/>
</g>
<!-- directLink_T42\n&#45;&gt;Male_T21\n Classtype = t_\n Name = s_ -->
<g id="edge92" class="edge"><title>directLink_T42\n&#45;&gt;Male_T21\n Classtype = t_\n Name = s_</title>
<path fill="none" stroke="black" d="M1436.38,-620.379C1436.53,-612.81 1436.71,-603.638 1436.9,-594.236"/>
<polygon fill="black" stroke="black" points="1440.41,-594.077 1437.11,-584.008 1433.41,-593.936 1440.41,-594.077"/>
</g>
<!-- rightExpr43\n Classtype = None\n Name = None -->
<g id="node44" class="node"><title>rightExpr43\n Classtype = None\n Name = None</title>
<ellipse fill="lightblue" stroke="black" cx="324" cy="-416" rx="101.823" ry="43.8406"/>
<text text-anchor="middle" x="324" y="-430.4" font-family="Times Roman,serif" font-size="14.00">rightExpr43</text>
<text text-anchor="middle" x="324" y="-412.4" font-family="Times Roman,serif" font-size="14.00"> Classtype = None</text>
<text text-anchor="middle" x="324" y="-394.4" font-family="Times Roman,serif" font-size="14.00"> Name = None</text>
</g>
<!-- Constant50\n Classtype = None\n Name = None -->
<g id="node51" class="node"><title>Constant50\n Classtype = None\n Name = None</title>
<ellipse fill="lightblue" stroke="black" cx="324" cy="-292" rx="101.823" ry="43.8406"/>
<text text-anchor="middle" x="324" y="-306.4" font-family="Times Roman,serif" font-size="14.00">Constant50</text>
<text text-anchor="middle" x="324" y="-288.4" font-family="Times Roman,serif" font-size="14.00"> Classtype = None</text>
<text text-anchor="middle" x="324" y="-270.4" font-family="Times Roman,serif" font-size="14.00"> Name = None</text>
</g>
<!-- rightExpr43\n Classtype = None\n Name = None&#45;&gt;Constant50\n Classtype = None\n Name = None -->
<g id="edge98" class="edge"><title>rightExpr43\n Classtype = None\n Name = None&#45;&gt;Constant50\n Classtype = None\n Name = None</title>
<path fill="none" stroke="black" d="M324,-371.933C324,-363.718 324,-355.043 324,-346.557"/>
<polygon fill="black" stroke="black" points="327.5,-346.343 324,-336.343 320.5,-346.343 327.5,-346.343"/>
</g>
<!-- rightExpr44\n Classtype = None\n Name = None -->
<g id="node45" class="node"><title>rightExpr44\n Classtype = None\n Name = None</title>
<ellipse fill="lightblue" stroke="black" cx="1768" cy="-168" rx="101.823" ry="43.8406"/>
<text text-anchor="middle" x="1768" y="-182.4" font-family="Times Roman,serif" font-size="14.00">rightExpr44</text>
<text text-anchor="middle" x="1768" y="-164.4" font-family="Times Roman,serif" font-size="14.00"> Classtype = None</text>
<text text-anchor="middle" x="1768" y="-146.4" font-family="Times Roman,serif" font-size="14.00"> Name = None</text>
</g>
<!-- Constant51\n Classtype = None\n Name = None -->
<g id="node52" class="node"><title>Constant51\n Classtype = None\n Name = None</title>
<ellipse fill="lightblue" stroke="black" cx="1768" cy="-44" rx="101.823" ry="43.8406"/>
<text text-anchor="middle" x="1768" y="-58.4" font-family="Times Roman,serif" font-size="14.00">Constant51</text>
<text text-anchor="middle" x="1768" y="-40.4" font-family="Times Roman,serif" font-size="14.00"> Classtype = None</text>
<text text-anchor="middle" x="1768" y="-22.4" font-family="Times Roman,serif" font-size="14.00"> Name = None</text>
</g>
<!-- rightExpr44\n Classtype = None\n Name = None&#45;&gt;Constant51\n Classtype = None\n Name = None -->
<g id="edge104" class="edge"><title>rightExpr44\n Classtype = None\n Name = None&#45;&gt;Constant51\n Classtype = None\n Name = None</title>
<path fill="none" stroke="black" d="M1768,-123.933C1768,-115.718 1768,-107.043 1768,-98.5568"/>
<polygon fill="black" stroke="black" points="1771.5,-98.3428 1768,-88.3428 1764.5,-98.3428 1771.5,-98.3428"/>
</g>
<!-- Equation45\n Classtype = None\n Name = None -->
<g id="node46" class="node"><title>Equation45\n Classtype = None\n Name = None</title>
<ellipse fill="lightblue" stroke="black" cx="657" cy="-540" rx="101.823" ry="43.8406"/>
<text text-anchor="middle" x="657" y="-554.4" font-family="Times Roman,serif" font-size="14.00">Equation45</text>
<text text-anchor="middle" x="657" y="-536.4" font-family="Times Roman,serif" font-size="14.00"> Classtype = None</text>
<text text-anchor="middle" x="657" y="-518.4" font-family="Times Roman,serif" font-size="14.00"> Name = None</text>
</g>
<!-- Equation45\n Classtype = None\n Name = None&#45;&gt;rightExpr43\n Classtype = None\n Name = None -->
<g id="edge94" class="edge"><title>Equation45\n Classtype = None\n Name = None&#45;&gt;rightExpr43\n Classtype = None\n Name = None</title>
<path fill="none" stroke="black" d="M577.922,-512.186C535.437,-497.071 482.227,-477.865 435,-460 426.294,-456.707 417.227,-453.215 408.194,-449.696"/>
<polygon fill="black" stroke="black" points="409.397,-446.408 398.809,-446.026 406.847,-452.928 409.397,-446.408"/>
</g>
<!-- leftExpr48\n Classtype = None\n Name = None -->
<g id="node49" class="node"><title>leftExpr48\n Classtype = None\n Name = None</title>
<ellipse fill="lightblue" stroke="black" cx="768" cy="-416" rx="101.823" ry="43.8406"/>
<text text-anchor="middle" x="768" y="-430.4" font-family="Times Roman,serif" font-size="14.00">leftExpr48</text>
<text text-anchor="middle" x="768" y="-412.4" font-family="Times Roman,serif" font-size="14.00"> Classtype = None</text>
<text text-anchor="middle" x="768" y="-394.4" font-family="Times Roman,serif" font-size="14.00"> Name = None</text>
</g>
<!-- Equation45\n Classtype = None\n Name = None&#45;&gt;leftExpr48\n Classtype = None\n Name = None -->
<g id="edge96" class="edge"><title>Equation45\n Classtype = None\n Name = None&#45;&gt;leftExpr48\n Classtype = None\n Name = None</title>
<path fill="none" stroke="black" d="M693.961,-498.71C703.697,-487.834 714.293,-475.997 724.345,-464.768"/>
<polygon fill="black" stroke="black" points="727.138,-466.895 731.2,-457.11 721.922,-462.226 727.138,-466.895"/>
</g>
<!-- Equation46\n Classtype = None\n Name = None -->
<g id="node47" class="node"><title>Equation46\n Classtype = None\n Name = None</title>
<ellipse fill="lightblue" stroke="black" cx="1657" cy="-292" rx="101.823" ry="43.8406"/>
<text text-anchor="middle" x="1657" y="-306.4" font-family="Times Roman,serif" font-size="14.00">Equation46</text>
<text text-anchor="middle" x="1657" y="-288.4" font-family="Times Roman,serif" font-size="14.00"> Classtype = None</text>
<text text-anchor="middle" x="1657" y="-270.4" font-family="Times Roman,serif" font-size="14.00"> Name = None</text>
</g>
<!-- Equation46\n Classtype = None\n Name = None&#45;&gt;rightExpr44\n Classtype = None\n Name = None -->
<g id="edge100" class="edge"><title>Equation46\n Classtype = None\n Name = None&#45;&gt;rightExpr44\n Classtype = None\n Name = None</title>
<path fill="none" stroke="black" d="M1693.96,-250.71C1703.7,-239.834 1714.29,-227.997 1724.35,-216.768"/>
<polygon fill="black" stroke="black" points="1727.14,-218.895 1731.2,-209.11 1721.92,-214.226 1727.14,-218.895"/>
</g>
<!-- leftExpr49\n Classtype = None\n Name = None -->
<g id="node50" class="node"><title>leftExpr49\n Classtype = None\n Name = None</title>
<ellipse fill="lightblue" stroke="black" cx="1546" cy="-168" rx="101.823" ry="43.8406"/>
<text text-anchor="middle" x="1546" y="-182.4" font-family="Times Roman,serif" font-size="14.00">leftExpr49</text>
<text text-anchor="middle" x="1546" y="-164.4" font-family="Times Roman,serif" font-size="14.00"> Classtype = None</text>
<text text-anchor="middle" x="1546" y="-146.4" font-family="Times Roman,serif" font-size="14.00"> Name = None</text>
</g>
<!-- Equation46\n Classtype = None\n Name = None&#45;&gt;leftExpr49\n Classtype = None\n Name = None -->
<g id="edge102" class="edge"><title>Equation46\n Classtype = None\n Name = None&#45;&gt;leftExpr49\n Classtype = None\n Name = None</title>
<path fill="none" stroke="black" d="M1620.04,-250.71C1610.3,-239.834 1599.71,-227.997 1589.65,-216.768"/>
<polygon fill="black" stroke="black" points="1592.08,-214.226 1582.8,-209.11 1586.86,-218.895 1592.08,-214.226"/>
</g>
<!-- indirectLink_S47&#45;&gt;Male_S26\n Classtype = 1\n Name = s_ -->
<g id="edge88" class="edge"><title>indirectLink_S47&#45;&gt;Male_S26\n Classtype = 1\n Name = s_</title>
<path fill="none" stroke="black" d="M1220.85,-397.703C1236.08,-382.095 1258.65,-358.969 1278.8,-338.324"/>
<polygon fill="black" stroke="black" points="1281.33,-340.743 1285.81,-331.141 1276.32,-335.854 1281.33,-340.743"/>
</g>
<!-- leftExpr48\n Classtype = None\n Name = None&#45;&gt;Attribute12\n Classtype = None\n Name = name -->
<g id="edge106" class="edge"><title>leftExpr48\n Classtype = None\n Name = None&#45;&gt;Attribute12\n Classtype = None\n Name = name</title>
<path fill="none" stroke="black" d="M768,-371.933C768,-363.718 768,-355.043 768,-346.557"/>
<polygon fill="black" stroke="black" points="771.5,-346.343 768,-336.343 764.5,-346.343 771.5,-346.343"/>
</g>
<!-- leftExpr49\n Classtype = None\n Name = None&#45;&gt;Attribute25\n Classtype = None\n Name = name -->
<g id="edge108" class="edge"><title>leftExpr49\n Classtype = None\n Name = None&#45;&gt;Attribute25\n Classtype = None\n Name = name</title>
<path fill="none" stroke="black" d="M1483.57,-133.129C1456.26,-117.875 1424.06,-99.8909 1395.77,-84.0871"/>
<polygon fill="black" stroke="black" points="1397.17,-80.8596 1386.73,-79.0388 1393.75,-86.971 1397.17,-80.8596"/>
</g>
</g>
</svg>
