<?xml version="1.0" encoding="UTF-8" standalone="no"?>
<!DOCTYPE svg PUBLIC "-//W3C//DTD SVG 1.1//EN"
 "http://www.w3.org/Graphics/SVG/1.1/DTD/svg11.dtd">
<!-- Generated by graphviz version 2.26.3 (20100126.1600)
 -->
<!-- Title: HEmptyPathCondition_HS2S_HM2M_HF2F Pages: 1 -->
<svg width="2184pt" height="740pt"
 viewBox="0.00 0.00 2184.00 740.00" xmlns="http://www.w3.org/2000/svg" xmlns:xlink="http://www.w3.org/1999/xlink">
<g id="graph1" class="graph" transform="scale(1 1) rotate(0) translate(4 736)">
<title>HEmptyPathCondition_HS2S_HM2M_HF2F</title>
<polygon fill="white" stroke="white" points="-4,5 -4,-736 2181,-736 2181,5 -4,5"/>
<!-- apply_contains0 -->
<g id="node1" class="node"><title>apply_contains0</title>
<ellipse fill="#fcdb58" stroke="black" cx="599" cy="-416" rx="90.0096" ry="18.3848"/>
<text text-anchor="middle" x="599" y="-412.4" font-family="Times Roman,serif" font-size="14.00">apply_contains0</text>
</g>
<!-- Station_T7\n Classtype = t_\n Name = s_ -->
<g id="node8" class="node"><title>Station_T7\n Classtype = t_\n Name = s_</title>
<ellipse fill="lightblue" stroke="black" cx="597" cy="-292" rx="85.7684" ry="43.8406"/>
<text text-anchor="middle" x="597" y="-306.4" font-family="Times Roman,serif" font-size="14.00">Station_T7</text>
<text text-anchor="middle" x="597" y="-288.4" font-family="Times Roman,serif" font-size="14.00"> Classtype = t_</text>
<text text-anchor="middle" x="597" y="-270.4" font-family="Times Roman,serif" font-size="14.00"> Name = s_</text>
</g>
<!-- apply_contains0&#45;&gt;Station_T7\n Classtype = t_\n Name = s_ -->
<g id="edge4" class="edge"><title>apply_contains0&#45;&gt;Station_T7\n Classtype = t_\n Name = s_</title>
<path fill="none" stroke="black" d="M598.701,-397.436C598.481,-383.812 598.17,-364.564 597.875,-346.235"/>
<polygon fill="black" stroke="black" points="601.374,-346.131 597.713,-336.189 594.375,-346.244 601.374,-346.131"/>
</g>
<!-- hasAttr_T1\n Classtype = None\n Name = None -->
<g id="node2" class="node"><title>hasAttr_T1\n Classtype = None\n Name = None</title>
<ellipse fill="lightblue" stroke="black" cx="513" cy="-168" rx="101.823" ry="43.8406"/>
<text text-anchor="middle" x="513" y="-182.4" font-family="Times Roman,serif" font-size="14.00">hasAttr_T1</text>
<text text-anchor="middle" x="513" y="-164.4" font-family="Times Roman,serif" font-size="14.00"> Classtype = None</text>
<text text-anchor="middle" x="513" y="-146.4" font-family="Times Roman,serif" font-size="14.00"> Name = None</text>
</g>
<!-- Attribute13\n Classtype = None\n Name = name -->
<g id="node14" class="node"><title>Attribute13\n Classtype = None\n Name = name</title>
<ellipse fill="lightblue" stroke="black" cx="318" cy="-44" rx="101.823" ry="43.8406"/>
<text text-anchor="middle" x="318" y="-58.4" font-family="Times Roman,serif" font-size="14.00">Attribute13</text>
<text text-anchor="middle" x="318" y="-40.4" font-family="Times Roman,serif" font-size="14.00"> Classtype = None</text>
<text text-anchor="middle" x="318" y="-22.4" font-family="Times Roman,serif" font-size="14.00"> Name = name</text>
</g>
<!-- hasAttr_T1\n Classtype = None\n Name = None&#45;&gt;Attribute13\n Classtype = None\n Name = name -->
<g id="edge8" class="edge"><title>hasAttr_T1\n Classtype = None\n Name = None&#45;&gt;Attribute13\n Classtype = None\n Name = name</title>
<path fill="none" stroke="black" d="M455.548,-131.467C433.134,-117.214 407.303,-100.787 384.12,-86.0457"/>
<polygon fill="black" stroke="black" points="385.694,-82.8989 375.378,-80.4864 381.938,-88.8058 385.694,-82.8989"/>
</g>
<!-- leftExpr2\n Classtype = None\n Name = None -->
<g id="node3" class="node"><title>leftExpr2\n Classtype = None\n Name = None</title>
<ellipse fill="lightblue" stroke="black" cx="167" cy="-416" rx="101.823" ry="43.8406"/>
<text text-anchor="middle" x="167" y="-430.4" font-family="Times Roman,serif" font-size="14.00">leftExpr2</text>
<text text-anchor="middle" x="167" y="-412.4" font-family="Times Roman,serif" font-size="14.00"> Classtype = None</text>
<text text-anchor="middle" x="167" y="-394.4" font-family="Times Roman,serif" font-size="14.00"> Name = None</text>
</g>
<!-- Attribute12\n Classtype = None\n Name = name -->
<g id="node13" class="node"><title>Attribute12\n Classtype = None\n Name = name</title>
<ellipse fill="lightblue" stroke="black" cx="278" cy="-292" rx="101.823" ry="43.8406"/>
<text text-anchor="middle" x="278" y="-306.4" font-family="Times Roman,serif" font-size="14.00">Attribute12</text>
<text text-anchor="middle" x="278" y="-288.4" font-family="Times Roman,serif" font-size="14.00"> Classtype = None</text>
<text text-anchor="middle" x="278" y="-270.4" font-family="Times Roman,serif" font-size="14.00"> Name = name</text>
</g>
<!-- leftExpr2\n Classtype = None\n Name = None&#45;&gt;Attribute12\n Classtype = None\n Name = name -->
<g id="edge12" class="edge"><title>leftExpr2\n Classtype = None\n Name = None&#45;&gt;Attribute12\n Classtype = None\n Name = name</title>
<path fill="none" stroke="black" d="M203.961,-374.71C213.697,-363.834 224.293,-351.997 234.345,-340.768"/>
<polygon fill="black" stroke="black" points="237.138,-342.895 241.2,-333.11 231.922,-338.226 237.138,-342.895"/>
</g>
<!-- paired_with3 -->
<g id="node4" class="node"><title>paired_with3</title>
<ellipse fill="lightgray" stroke="black" cx="583" cy="-639" rx="75.1594" ry="18.3848"/>
<text text-anchor="middle" x="583" y="-635.4" font-family="Times Roman,serif" font-size="14.00">paired_with3</text>
</g>
<!-- ApplyModel5 -->
<g id="node6" class="node"><title>ApplyModel5</title>
<ellipse fill="#fed017" stroke="black" cx="588" cy="-540" rx="73.0388" ry="18.3848"/>
<text text-anchor="middle" x="588" y="-536.4" font-family="Times Roman,serif" font-size="14.00">ApplyModel5</text>
</g>
<!-- paired_with3&#45;&gt;ApplyModel5 -->
<g id="edge16" class="edge"><title>paired_with3&#45;&gt;ApplyModel5</title>
<path fill="none" stroke="black" d="M583.94,-620.379C584.674,-605.86 585.705,-585.439 586.545,-568.814"/>
<polygon fill="black" stroke="black" points="590.055,-568.701 587.064,-558.538 583.064,-568.348 590.055,-568.701"/>
</g>
<!-- hasAttr_S4\n Classtype = None\n Name = None -->
<g id="node5" class="node"><title>hasAttr_S4\n Classtype = None\n Name = None</title>
<ellipse fill="lightblue" stroke="black" cx="389" cy="-416" rx="101.823" ry="43.8406"/>
<text text-anchor="middle" x="389" y="-430.4" font-family="Times Roman,serif" font-size="14.00">hasAttr_S4</text>
<text text-anchor="middle" x="389" y="-412.4" font-family="Times Roman,serif" font-size="14.00"> Classtype = None</text>
<text text-anchor="middle" x="389" y="-394.4" font-family="Times Roman,serif" font-size="14.00"> Name = None</text>
</g>
<!-- hasAttr_S4\n Classtype = None\n Name = None&#45;&gt;Attribute12\n Classtype = None\n Name = name -->
<g id="edge20" class="edge"><title>hasAttr_S4\n Classtype = None\n Name = None&#45;&gt;Attribute12\n Classtype = None\n Name = name</title>
<path fill="none" stroke="black" d="M352.039,-374.71C342.303,-363.834 331.707,-351.997 321.655,-340.768"/>
<polygon fill="black" stroke="black" points="324.078,-338.226 314.8,-333.11 318.862,-342.895 324.078,-338.226"/>
</g>
<!-- ApplyModel5&#45;&gt;apply_contains0 -->
<g id="edge2" class="edge"><title>ApplyModel5&#45;&gt;apply_contains0</title>
<path fill="none" stroke="black" d="M589.647,-521.436C591.445,-501.164 594.348,-468.442 596.443,-444.824"/>
<polygon fill="black" stroke="black" points="599.945,-444.961 597.342,-434.691 592.972,-444.343 599.945,-444.961"/>
</g>
<!-- Station_S6\n Classtype = 1\n Name = s_ -->
<g id="node7" class="node"><title>Station_S6\n Classtype = 1\n Name = s_</title>
<ellipse fill="lightblue" stroke="black" cx="391" cy="-540" rx="82.2301" ry="43.8406"/>
<text text-anchor="middle" x="391" y="-554.4" font-family="Times Roman,serif" font-size="14.00">Station_S6</text>
<text text-anchor="middle" x="391" y="-536.4" font-family="Times Roman,serif" font-size="14.00"> Classtype = 1</text>
<text text-anchor="middle" x="391" y="-518.4" font-family="Times Roman,serif" font-size="14.00"> Name = s_</text>
</g>
<!-- Station_S6\n Classtype = 1\n Name = s_&#45;&gt;hasAttr_S4\n Classtype = None\n Name = None -->
<g id="edge18" class="edge"><title>Station_S6\n Classtype = 1\n Name = s_&#45;&gt;hasAttr_S4\n Classtype = None\n Name = None</title>
<path fill="none" stroke="black" d="M390.289,-495.933C390.157,-487.718 390.017,-479.043 389.88,-470.557"/>
<polygon fill="black" stroke="black" points="393.376,-470.285 389.715,-460.343 386.377,-470.398 393.376,-470.285"/>
</g>
<!-- Station_T7\n Classtype = t_\n Name = s_&#45;&gt;hasAttr_T1\n Classtype = None\n Name = None -->
<g id="edge6" class="edge"><title>Station_T7\n Classtype = t_\n Name = s_&#45;&gt;hasAttr_T1\n Classtype = None\n Name = None</title>
<path fill="none" stroke="black" d="M568.796,-250.365C561.951,-240.261 554.556,-229.345 547.459,-218.868"/>
<polygon fill="black" stroke="black" points="550.353,-216.899 541.847,-210.583 544.557,-220.825 550.353,-216.899"/>
</g>
<!-- Equation8\n Classtype = None\n Name = None -->
<g id="node9" class="node"><title>Equation8\n Classtype = None\n Name = None</title>
<ellipse fill="lightblue" stroke="black" cx="102" cy="-540" rx="101.823" ry="43.8406"/>
<text text-anchor="middle" x="102" y="-554.4" font-family="Times Roman,serif" font-size="14.00">Equation8</text>
<text text-anchor="middle" x="102" y="-536.4" font-family="Times Roman,serif" font-size="14.00"> Classtype = None</text>
<text text-anchor="middle" x="102" y="-518.4" font-family="Times Roman,serif" font-size="14.00"> Name = None</text>
</g>
<!-- Equation8\n Classtype = None\n Name = None&#45;&gt;leftExpr2\n Classtype = None\n Name = None -->
<g id="edge10" class="edge"><title>Equation8\n Classtype = None\n Name = None&#45;&gt;leftExpr2\n Classtype = None\n Name = None</title>
<path fill="none" stroke="black" d="M124.551,-496.979C129.442,-487.649 134.665,-477.685 139.716,-468.05"/>
<polygon fill="black" stroke="black" points="142.946,-469.427 144.488,-458.945 136.746,-466.177 142.946,-469.427"/>
</g>
<!-- rightExpr10\n Classtype = None\n Name = None -->
<g id="node11" class="node"><title>rightExpr10\n Classtype = None\n Name = None</title>
<ellipse fill="lightblue" stroke="black" cx="122" cy="-168" rx="101.823" ry="43.8406"/>
<text text-anchor="middle" x="122" y="-182.4" font-family="Times Roman,serif" font-size="14.00">rightExpr10</text>
<text text-anchor="middle" x="122" y="-164.4" font-family="Times Roman,serif" font-size="14.00"> Classtype = None</text>
<text text-anchor="middle" x="122" y="-146.4" font-family="Times Roman,serif" font-size="14.00"> Name = None</text>
</g>
<!-- Equation8\n Classtype = None\n Name = None&#45;&gt;rightExpr10\n Classtype = None\n Name = None -->
<g id="edge24" class="edge"><title>Equation8\n Classtype = None\n Name = None&#45;&gt;rightExpr10\n Classtype = None\n Name = None</title>
<path fill="none" stroke="black" d="M72.3092,-497.796C65.6177,-486.085 59.4717,-473.002 56,-460 33.7922,-376.826 67.9529,-279.04 94.8354,-220.371"/>
<polygon fill="black" stroke="black" points="98.0121,-221.84 99.0777,-211.299 91.6712,-218.874 98.0121,-221.84"/>
</g>
<!-- match_contains9 -->
<g id="node10" class="node"><title>match_contains9</title>
<ellipse fill="#f798a1" stroke="black" cx="392" cy="-639" rx="94.7523" ry="18.3848"/>
<text text-anchor="middle" x="392" y="-635.4" font-family="Times Roman,serif" font-size="14.00">match_contains9</text>
</g>
<!-- match_contains9&#45;&gt;Station_S6\n Classtype = 1\n Name = s_ -->
<g id="edge22" class="edge"><title>match_contains9&#45;&gt;Station_S6\n Classtype = 1\n Name = s_</title>
<path fill="none" stroke="black" d="M391.812,-620.379C391.735,-612.81 391.643,-603.638 391.548,-594.236"/>
<polygon fill="black" stroke="black" points="395.045,-593.972 391.445,-584.008 388.046,-594.043 395.045,-593.972"/>
</g>
<!-- rightExpr10\n Classtype = None\n Name = None&#45;&gt;Attribute13\n Classtype = None\n Name = name -->
<g id="edge28" class="edge"><title>rightExpr10\n Classtype = None\n Name = None&#45;&gt;Attribute13\n Classtype = None\n Name = name</title>
<path fill="none" stroke="black" d="M179.482,-131.634C202.218,-117.25 228.486,-100.631 251.994,-85.7587"/>
<polygon fill="black" stroke="black" points="253.939,-88.6698 260.519,-80.3656 250.197,-82.7543 253.939,-88.6698"/>
</g>
<!-- MatchModel11 -->
<g id="node12" class="node"><title>MatchModel11</title>
<ellipse fill="#e15c34" stroke="black" cx="488" cy="-713" rx="82.2301" ry="18.3848"/>
<text text-anchor="middle" x="488" y="-709.4" font-family="Times Roman,serif" font-size="14.00">MatchModel11</text>
</g>
<!-- MatchModel11&#45;&gt;paired_with3 -->
<g id="edge14" class="edge"><title>MatchModel11&#45;&gt;paired_with3</title>
<path fill="none" stroke="black" d="M510.997,-695.087C523.366,-685.452 538.788,-673.439 552.182,-663.005"/>
<polygon fill="black" stroke="black" points="554.477,-665.655 560.215,-656.748 550.175,-660.132 554.477,-665.655"/>
</g>
<!-- MatchModel11&#45;&gt;match_contains9 -->
<g id="edge26" class="edge"><title>MatchModel11&#45;&gt;match_contains9</title>
<path fill="none" stroke="black" d="M464.761,-695.087C452.354,-685.523 436.907,-673.615 423.441,-663.236"/>
<polygon fill="black" stroke="black" points="425.415,-660.338 415.358,-657.005 421.141,-665.882 425.415,-660.338"/>
</g>
<!-- apply_contains14 -->
<g id="node15" class="node"><title>apply_contains14</title>
<ellipse fill="#fcdb58" stroke="black" cx="1337" cy="-416" rx="96.8736" ry="18.3848"/>
<text text-anchor="middle" x="1337" y="-412.4" font-family="Times Roman,serif" font-size="14.00">apply_contains14</text>
</g>
<!-- Male_T22\n Classtype = t_\n Name = s_ -->
<g id="node23" class="node"><title>Male_T22\n Classtype = t_\n Name = s_</title>
<ellipse fill="lightblue" stroke="black" cx="1313" cy="-292" rx="85.7684" ry="43.8406"/>
<text text-anchor="middle" x="1313" y="-306.4" font-family="Times Roman,serif" font-size="14.00">Male_T22</text>
<text text-anchor="middle" x="1313" y="-288.4" font-family="Times Roman,serif" font-size="14.00"> Classtype = t_</text>
<text text-anchor="middle" x="1313" y="-270.4" font-family="Times Roman,serif" font-size="14.00"> Name = s_</text>
</g>
<!-- apply_contains14&#45;&gt;Male_T22\n Classtype = t_\n Name = s_ -->
<g id="edge32" class="edge"><title>apply_contains14&#45;&gt;Male_T22\n Classtype = t_\n Name = s_</title>
<path fill="none" stroke="black" d="M1333.41,-397.436C1330.75,-383.691 1326.98,-364.223 1323.4,-345.75"/>
<polygon fill="black" stroke="black" points="1326.84,-345.078 1321.5,-335.925 1319.97,-346.408 1326.84,-345.078"/>
</g>
<!-- hasAttr_T15\n Classtype = None\n Name = None -->
<g id="node16" class="node"><title>hasAttr_T15\n Classtype = None\n Name = None</title>
<ellipse fill="lightblue" stroke="black" cx="1269" cy="-168" rx="101.823" ry="43.8406"/>
<text text-anchor="middle" x="1269" y="-182.4" font-family="Times Roman,serif" font-size="14.00">hasAttr_T15</text>
<text text-anchor="middle" x="1269" y="-164.4" font-family="Times Roman,serif" font-size="14.00"> Classtype = None</text>
<text text-anchor="middle" x="1269" y="-146.4" font-family="Times Roman,serif" font-size="14.00"> Name = None</text>
</g>
<!-- Attribute27\n Classtype = None\n Name = name -->
<g id="node28" class="node"><title>Attribute27\n Classtype = None\n Name = name</title>
<ellipse fill="lightblue" stroke="black" cx="1096" cy="-44" rx="101.823" ry="43.8406"/>
<text text-anchor="middle" x="1096" y="-58.4" font-family="Times Roman,serif" font-size="14.00">Attribute27</text>
<text text-anchor="middle" x="1096" y="-40.4" font-family="Times Roman,serif" font-size="14.00"> Classtype = None</text>
<text text-anchor="middle" x="1096" y="-22.4" font-family="Times Roman,serif" font-size="14.00"> Name = name</text>
</g>
<!-- hasAttr_T15\n Classtype = None\n Name = None&#45;&gt;Attribute27\n Classtype = None\n Name = name -->
<g id="edge36" class="edge"><title>hasAttr_T15\n Classtype = None\n Name = None&#45;&gt;Attribute27\n Classtype = None\n Name = name</title>
<path fill="none" stroke="black" d="M1216.15,-130.122C1197.46,-116.723 1176.28,-101.544 1156.97,-87.7011"/>
<polygon fill="black" stroke="black" points="1158.99,-84.8404 1148.82,-81.8594 1154.91,-90.5299 1158.99,-84.8404"/>
</g>
<!-- leftExpr16\n Classtype = None\n Name = None -->
<g id="node17" class="node"><title>leftExpr16\n Classtype = None\n Name = None</title>
<ellipse fill="lightblue" stroke="black" cx="898" cy="-416" rx="101.823" ry="43.8406"/>
<text text-anchor="middle" x="898" y="-430.4" font-family="Times Roman,serif" font-size="14.00">leftExpr16</text>
<text text-anchor="middle" x="898" y="-412.4" font-family="Times Roman,serif" font-size="14.00"> Classtype = None</text>
<text text-anchor="middle" x="898" y="-394.4" font-family="Times Roman,serif" font-size="14.00"> Name = None</text>
</g>
<!-- Attribute26\n Classtype = None\n Name = name -->
<g id="node27" class="node"><title>Attribute26\n Classtype = None\n Name = name</title>
<ellipse fill="lightblue" stroke="black" cx="1009" cy="-292" rx="101.823" ry="43.8406"/>
<text text-anchor="middle" x="1009" y="-306.4" font-family="Times Roman,serif" font-size="14.00">Attribute26</text>
<text text-anchor="middle" x="1009" y="-288.4" font-family="Times Roman,serif" font-size="14.00"> Classtype = None</text>
<text text-anchor="middle" x="1009" y="-270.4" font-family="Times Roman,serif" font-size="14.00"> Name = name</text>
</g>
<!-- leftExpr16\n Classtype = None\n Name = None&#45;&gt;Attribute26\n Classtype = None\n Name = name -->
<g id="edge40" class="edge"><title>leftExpr16\n Classtype = None\n Name = None&#45;&gt;Attribute26\n Classtype = None\n Name = name</title>
<path fill="none" stroke="black" d="M934.961,-374.71C944.697,-363.834 955.293,-351.997 965.345,-340.768"/>
<polygon fill="black" stroke="black" points="968.138,-342.895 972.2,-333.11 962.922,-338.226 968.138,-342.895"/>
</g>
<!-- paired_with17 -->
<g id="node18" class="node"><title>paired_with17</title>
<ellipse fill="lightgray" stroke="black" cx="1327" cy="-639" rx="82.0244" ry="18.3848"/>
<text text-anchor="middle" x="1327" y="-635.4" font-family="Times Roman,serif" font-size="14.00">paired_with17</text>
</g>
<!-- ApplyModel19 -->
<g id="node20" class="node"><title>ApplyModel19</title>
<ellipse fill="#fed017" stroke="black" cx="1335" cy="-540" rx="79.9031" ry="18.3848"/>
<text text-anchor="middle" x="1335" y="-536.4" font-family="Times Roman,serif" font-size="14.00">ApplyModel19</text>
</g>
<!-- paired_with17&#45;&gt;ApplyModel19 -->
<g id="edge44" class="edge"><title>paired_with17&#45;&gt;ApplyModel19</title>
<path fill="none" stroke="black" d="M1328.5,-620.379C1329.68,-605.86 1331.33,-585.439 1332.67,-568.814"/>
<polygon fill="black" stroke="black" points="1336.19,-568.787 1333.5,-558.538 1329.21,-568.223 1336.19,-568.787"/>
</g>
<!-- hasAttr_S18\n Classtype = None\n Name = None -->
<g id="node19" class="node"><title>hasAttr_S18\n Classtype = None\n Name = None</title>
<ellipse fill="lightblue" stroke="black" cx="1120" cy="-416" rx="101.823" ry="43.8406"/>
<text text-anchor="middle" x="1120" y="-430.4" font-family="Times Roman,serif" font-size="14.00">hasAttr_S18</text>
<text text-anchor="middle" x="1120" y="-412.4" font-family="Times Roman,serif" font-size="14.00"> Classtype = None</text>
<text text-anchor="middle" x="1120" y="-394.4" font-family="Times Roman,serif" font-size="14.00"> Name = None</text>
</g>
<!-- hasAttr_S18\n Classtype = None\n Name = None&#45;&gt;Attribute26\n Classtype = None\n Name = name -->
<g id="edge48" class="edge"><title>hasAttr_S18\n Classtype = None\n Name = None&#45;&gt;Attribute26\n Classtype = None\n Name = name</title>
<path fill="none" stroke="black" d="M1083.04,-374.71C1073.3,-363.834 1062.71,-351.997 1052.65,-340.768"/>
<polygon fill="black" stroke="black" points="1055.08,-338.226 1045.8,-333.11 1049.86,-342.895 1055.08,-338.226"/>
</g>
<!-- ApplyModel19&#45;&gt;apply_contains14 -->
<g id="edge30" class="edge"><title>ApplyModel19&#45;&gt;apply_contains14</title>
<path fill="none" stroke="black" d="M1335.3,-521.436C1335.63,-501.164 1336.15,-468.442 1336.54,-444.824"/>
<polygon fill="black" stroke="black" points="1340.04,-444.746 1336.7,-434.691 1333.04,-444.633 1340.04,-444.746"/>
</g>
<!-- Equation20\n Classtype = None\n Name = None -->
<g id="node21" class="node"><title>Equation20\n Classtype = None\n Name = None</title>
<ellipse fill="lightblue" stroke="black" cx="808" cy="-540" rx="101.823" ry="43.8406"/>
<text text-anchor="middle" x="808" y="-554.4" font-family="Times Roman,serif" font-size="14.00">Equation20</text>
<text text-anchor="middle" x="808" y="-536.4" font-family="Times Roman,serif" font-size="14.00"> Classtype = None</text>
<text text-anchor="middle" x="808" y="-518.4" font-family="Times Roman,serif" font-size="14.00"> Name = None</text>
</g>
<!-- Equation20\n Classtype = None\n Name = None&#45;&gt;leftExpr16\n Classtype = None\n Name = None -->
<g id="edge38" class="edge"><title>Equation20\n Classtype = None\n Name = None&#45;&gt;leftExpr16\n Classtype = None\n Name = None</title>
<path fill="none" stroke="black" d="M838.721,-497.673C846.034,-487.597 853.908,-476.749 861.454,-466.353"/>
<polygon fill="black" stroke="black" points="864.376,-468.285 867.417,-458.136 858.711,-464.173 864.376,-468.285"/>
</g>
<!-- rightExpr23\n Classtype = None\n Name = None -->
<g id="node24" class="node"><title>rightExpr23\n Classtype = None\n Name = None</title>
<ellipse fill="lightblue" stroke="black" cx="924" cy="-168" rx="101.823" ry="43.8406"/>
<text text-anchor="middle" x="924" y="-182.4" font-family="Times Roman,serif" font-size="14.00">rightExpr23</text>
<text text-anchor="middle" x="924" y="-164.4" font-family="Times Roman,serif" font-size="14.00"> Classtype = None</text>
<text text-anchor="middle" x="924" y="-146.4" font-family="Times Roman,serif" font-size="14.00"> Name = None</text>
</g>
<!-- Equation20\n Classtype = None\n Name = None&#45;&gt;rightExpr23\n Classtype = None\n Name = None -->
<g id="edge50" class="edge"><title>Equation20\n Classtype = None\n Name = None&#45;&gt;rightExpr23\n Classtype = None\n Name = None</title>
<path fill="none" stroke="black" d="M792.774,-496.341C783.083,-461.922 774.494,-413.052 787,-372 804.932,-313.135 846.149,-255.841 878.719,-217.035"/>
<polygon fill="black" stroke="black" points="881.708,-218.924 885.527,-209.041 876.379,-214.386 881.708,-218.924"/>
</g>
<!-- match_contains21 -->
<g id="node22" class="node"><title>match_contains21</title>
<ellipse fill="#f798a1" stroke="black" cx="1122" cy="-639" rx="101.116" ry="18.3848"/>
<text text-anchor="middle" x="1122" y="-635.4" font-family="Times Roman,serif" font-size="14.00">match_contains21</text>
</g>
<!-- Male_S25\n Classtype = 1\n Name = s_ -->
<g id="node26" class="node"><title>Male_S25\n Classtype = 1\n Name = s_</title>
<ellipse fill="lightblue" stroke="black" cx="1121" cy="-540" rx="82.2301" ry="43.8406"/>
<text text-anchor="middle" x="1121" y="-554.4" font-family="Times Roman,serif" font-size="14.00">Male_S25</text>
<text text-anchor="middle" x="1121" y="-536.4" font-family="Times Roman,serif" font-size="14.00"> Classtype = 1</text>
<text text-anchor="middle" x="1121" y="-518.4" font-family="Times Roman,serif" font-size="14.00"> Name = s_</text>
</g>
<!-- match_contains21&#45;&gt;Male_S25\n Classtype = 1\n Name = s_ -->
<g id="edge54" class="edge"><title>match_contains21&#45;&gt;Male_S25\n Classtype = 1\n Name = s_</title>
<path fill="none" stroke="black" d="M1121.81,-620.379C1121.74,-612.81 1121.64,-603.638 1121.55,-594.236"/>
<polygon fill="black" stroke="black" points="1125.05,-593.972 1121.44,-584.008 1118.05,-594.043 1125.05,-593.972"/>
</g>
<!-- Male_T22\n Classtype = t_\n Name = s_&#45;&gt;hasAttr_T15\n Classtype = None\n Name = None -->
<g id="edge34" class="edge"><title>Male_T22\n Classtype = t_\n Name = s_&#45;&gt;hasAttr_T15\n Classtype = None\n Name = None</title>
<path fill="none" stroke="black" d="M1297.61,-248.631C1294.45,-239.715 1291.08,-230.233 1287.81,-221.021"/>
<polygon fill="black" stroke="black" points="1291.1,-219.808 1284.45,-211.554 1284.5,-222.149 1291.1,-219.808"/>
</g>
<!-- rightExpr23\n Classtype = None\n Name = None&#45;&gt;Attribute27\n Classtype = None\n Name = name -->
<g id="edge56" class="edge"><title>rightExpr23\n Classtype = None\n Name = None&#45;&gt;Attribute27\n Classtype = None\n Name = name</title>
<path fill="none" stroke="black" d="M976.54,-130.122C995.043,-116.783 1015.99,-101.679 1035.13,-87.8865"/>
<polygon fill="black" stroke="black" points="1037.42,-90.5466 1043.49,-81.8594 1033.33,-84.8683 1037.42,-90.5466"/>
</g>
<!-- MatchModel24 -->
<g id="node25" class="node"><title>MatchModel24</title>
<ellipse fill="#e15c34" stroke="black" cx="1224" cy="-713" rx="82.2301" ry="18.3848"/>
<text text-anchor="middle" x="1224" y="-709.4" font-family="Times Roman,serif" font-size="14.00">MatchModel24</text>
</g>
<!-- MatchModel24&#45;&gt;paired_with17 -->
<g id="edge42" class="edge"><title>MatchModel24&#45;&gt;paired_with17</title>
<path fill="none" stroke="black" d="M1248.67,-695.275C1262.2,-685.553 1279.16,-673.367 1293.84,-662.824"/>
<polygon fill="black" stroke="black" points="1296.09,-665.514 1302.17,-656.837 1292.01,-659.829 1296.09,-665.514"/>
</g>
<!-- MatchModel24&#45;&gt;match_contains21 -->
<g id="edge52" class="edge"><title>MatchModel24&#45;&gt;match_contains21</title>
<path fill="none" stroke="black" d="M1199.57,-695.275C1186.27,-685.624 1169.62,-673.547 1155.16,-663.057"/>
<polygon fill="black" stroke="black" points="1157.09,-660.134 1146.94,-657.094 1152.98,-665.8 1157.09,-660.134"/>
</g>
<!-- Male_S25\n Classtype = 1\n Name = s_&#45;&gt;hasAttr_S18\n Classtype = None\n Name = None -->
<g id="edge46" class="edge"><title>Male_S25\n Classtype = 1\n Name = s_&#45;&gt;hasAttr_S18\n Classtype = None\n Name = None</title>
<path fill="none" stroke="black" d="M1120.64,-495.933C1120.58,-487.718 1120.51,-479.043 1120.44,-470.557"/>
<polygon fill="black" stroke="black" points="1123.94,-470.314 1120.36,-460.343 1116.94,-470.371 1123.94,-470.314"/>
</g>
<!-- apply_contains28 -->
<g id="node29" class="node"><title>apply_contains28</title>
<ellipse fill="#fcdb58" stroke="black" cx="2079" cy="-416" rx="96.8736" ry="18.3848"/>
<text text-anchor="middle" x="2079" y="-412.4" font-family="Times Roman,serif" font-size="14.00">apply_contains28</text>
</g>
<!-- Female_T34\n Classtype = t_\n Name = s_ -->
<g id="node35" class="node"><title>Female_T34\n Classtype = t_\n Name = s_</title>
<ellipse fill="lightblue" stroke="black" cx="2018" cy="-292" rx="85.7684" ry="43.8406"/>
<text text-anchor="middle" x="2018" y="-306.4" font-family="Times Roman,serif" font-size="14.00">Female_T34</text>
<text text-anchor="middle" x="2018" y="-288.4" font-family="Times Roman,serif" font-size="14.00"> Classtype = t_</text>
<text text-anchor="middle" x="2018" y="-270.4" font-family="Times Roman,serif" font-size="14.00"> Name = s_</text>
</g>
<!-- apply_contains28&#45;&gt;Female_T34\n Classtype = t_\n Name = s_ -->
<g id="edge60" class="edge"><title>apply_contains28&#45;&gt;Female_T34\n Classtype = t_\n Name = s_</title>
<path fill="none" stroke="black" d="M2069.87,-397.436C2062.9,-383.269 2052.94,-363.022 2043.61,-344.05"/>
<polygon fill="black" stroke="black" points="2046.64,-342.3 2039.09,-334.872 2040.36,-345.39 2046.64,-342.3"/>
</g>
<!-- hasAttr_T29\n Classtype = None\n Name = None -->
<g id="node30" class="node"><title>hasAttr_T29\n Classtype = None\n Name = None</title>
<ellipse fill="lightblue" stroke="black" cx="1918" cy="-168" rx="101.823" ry="43.8406"/>
<text text-anchor="middle" x="1918" y="-182.4" font-family="Times Roman,serif" font-size="14.00">hasAttr_T29</text>
<text text-anchor="middle" x="1918" y="-164.4" font-family="Times Roman,serif" font-size="14.00"> Classtype = None</text>
<text text-anchor="middle" x="1918" y="-146.4" font-family="Times Roman,serif" font-size="14.00"> Name = None</text>
</g>
<!-- Attribute41\n Classtype = None\n Name = name -->
<g id="node42" class="node"><title>Attribute41\n Classtype = None\n Name = name</title>
<ellipse fill="lightblue" stroke="black" cx="1735" cy="-44" rx="101.823" ry="43.8406"/>
<text text-anchor="middle" x="1735" y="-58.4" font-family="Times Roman,serif" font-size="14.00">Attribute41</text>
<text text-anchor="middle" x="1735" y="-40.4" font-family="Times Roman,serif" font-size="14.00"> Classtype = None</text>
<text text-anchor="middle" x="1735" y="-22.4" font-family="Times Roman,serif" font-size="14.00"> Name = name</text>
</g>
<!-- hasAttr_T29\n Classtype = None\n Name = None&#45;&gt;Attribute41\n Classtype = None\n Name = name -->
<g id="edge64" class="edge"><title>hasAttr_T29\n Classtype = None\n Name = None&#45;&gt;Attribute41\n Classtype = None\n Name = name</title>
<path fill="none" stroke="black" d="M1863.09,-130.796C1842.65,-116.941 1819.28,-101.108 1798.15,-86.7909"/>
<polygon fill="black" stroke="black" points="1800.11,-83.8899 1789.87,-81.1778 1796.18,-89.6848 1800.11,-83.8899"/>
</g>
<!-- leftExpr30\n Classtype = None\n Name = None -->
<g id="node31" class="node"><title>leftExpr30\n Classtype = None\n Name = None</title>
<ellipse fill="lightblue" stroke="black" cx="1640" cy="-416" rx="101.823" ry="43.8406"/>
<text text-anchor="middle" x="1640" y="-430.4" font-family="Times Roman,serif" font-size="14.00">leftExpr30</text>
<text text-anchor="middle" x="1640" y="-412.4" font-family="Times Roman,serif" font-size="14.00"> Classtype = None</text>
<text text-anchor="middle" x="1640" y="-394.4" font-family="Times Roman,serif" font-size="14.00"> Name = None</text>
</g>
<!-- Attribute40\n Classtype = None\n Name = name -->
<g id="node41" class="node"><title>Attribute40\n Classtype = None\n Name = name</title>
<ellipse fill="lightblue" stroke="black" cx="1751" cy="-292" rx="101.823" ry="43.8406"/>
<text text-anchor="middle" x="1751" y="-306.4" font-family="Times Roman,serif" font-size="14.00">Attribute40</text>
<text text-anchor="middle" x="1751" y="-288.4" font-family="Times Roman,serif" font-size="14.00"> Classtype = None</text>
<text text-anchor="middle" x="1751" y="-270.4" font-family="Times Roman,serif" font-size="14.00"> Name = name</text>
</g>
<!-- leftExpr30\n Classtype = None\n Name = None&#45;&gt;Attribute40\n Classtype = None\n Name = name -->
<g id="edge68" class="edge"><title>leftExpr30\n Classtype = None\n Name = None&#45;&gt;Attribute40\n Classtype = None\n Name = name</title>
<path fill="none" stroke="black" d="M1676.96,-374.71C1686.7,-363.834 1697.29,-351.997 1707.35,-340.768"/>
<polygon fill="black" stroke="black" points="1710.14,-342.895 1714.2,-333.11 1704.92,-338.226 1710.14,-342.895"/>
</g>
<!-- paired_with31 -->
<g id="node32" class="node"><title>paired_with31</title>
<ellipse fill="lightgray" stroke="black" cx="2070" cy="-639" rx="82.0244" ry="18.3848"/>
<text text-anchor="middle" x="2070" y="-635.4" font-family="Times Roman,serif" font-size="14.00">paired_with31</text>
</g>
<!-- ApplyModel33 -->
<g id="node34" class="node"><title>ApplyModel33</title>
<ellipse fill="#fed017" stroke="black" cx="2078" cy="-540" rx="79.9031" ry="18.3848"/>
<text text-anchor="middle" x="2078" y="-536.4" font-family="Times Roman,serif" font-size="14.00">ApplyModel33</text>
</g>
<!-- paired_with31&#45;&gt;ApplyModel33 -->
<g id="edge72" class="edge"><title>paired_with31&#45;&gt;ApplyModel33</title>
<path fill="none" stroke="black" d="M2071.5,-620.379C2072.68,-605.86 2074.33,-585.439 2075.67,-568.814"/>
<polygon fill="black" stroke="black" points="2079.19,-568.787 2076.5,-558.538 2072.21,-568.223 2079.19,-568.787"/>
</g>
<!-- hasAttr_S32\n Classtype = None\n Name = None -->
<g id="node33" class="node"><title>hasAttr_S32\n Classtype = None\n Name = None</title>
<ellipse fill="lightblue" stroke="black" cx="1862" cy="-416" rx="101.823" ry="43.8406"/>
<text text-anchor="middle" x="1862" y="-430.4" font-family="Times Roman,serif" font-size="14.00">hasAttr_S32</text>
<text text-anchor="middle" x="1862" y="-412.4" font-family="Times Roman,serif" font-size="14.00"> Classtype = None</text>
<text text-anchor="middle" x="1862" y="-394.4" font-family="Times Roman,serif" font-size="14.00"> Name = None</text>
</g>
<!-- hasAttr_S32\n Classtype = None\n Name = None&#45;&gt;Attribute40\n Classtype = None\n Name = name -->
<g id="edge76" class="edge"><title>hasAttr_S32\n Classtype = None\n Name = None&#45;&gt;Attribute40\n Classtype = None\n Name = name</title>
<path fill="none" stroke="black" d="M1825.04,-374.71C1815.3,-363.834 1804.71,-351.997 1794.65,-340.768"/>
<polygon fill="black" stroke="black" points="1797.08,-338.226 1787.8,-333.11 1791.86,-342.895 1797.08,-338.226"/>
</g>
<!-- ApplyModel33&#45;&gt;apply_contains28 -->
<g id="edge58" class="edge"><title>ApplyModel33&#45;&gt;apply_contains28</title>
<path fill="none" stroke="black" d="M2078.15,-521.436C2078.31,-501.164 2078.58,-468.442 2078.77,-444.824"/>
<polygon fill="black" stroke="black" points="2082.27,-444.719 2078.85,-434.691 2075.27,-444.662 2082.27,-444.719"/>
</g>
<!-- Female_T34\n Classtype = t_\n Name = s_&#45;&gt;hasAttr_T29\n Classtype = None\n Name = None -->
<g id="edge62" class="edge"><title>Female_T34\n Classtype = t_\n Name = s_&#45;&gt;hasAttr_T29\n Classtype = None\n Name = None</title>
<path fill="none" stroke="black" d="M1984.98,-251.054C1976.37,-240.382 1967,-228.766 1958.08,-217.695"/>
<polygon fill="black" stroke="black" points="1960.67,-215.338 1951.67,-209.751 1955.22,-219.732 1960.67,-215.338"/>
</g>
<!-- Female_S35\n Classtype = 1\n Name = s_ -->
<g id="node36" class="node"><title>Female_S35\n Classtype = 1\n Name = s_</title>
<ellipse fill="lightblue" stroke="black" cx="1863" cy="-540" rx="82.2301" ry="43.8406"/>
<text text-anchor="middle" x="1863" y="-554.4" font-family="Times Roman,serif" font-size="14.00">Female_S35</text>
<text text-anchor="middle" x="1863" y="-536.4" font-family="Times Roman,serif" font-size="14.00"> Classtype = 1</text>
<text text-anchor="middle" x="1863" y="-518.4" font-family="Times Roman,serif" font-size="14.00"> Name = s_</text>
</g>
<!-- Female_S35\n Classtype = 1\n Name = s_&#45;&gt;hasAttr_S32\n Classtype = None\n Name = None -->
<g id="edge74" class="edge"><title>Female_S35\n Classtype = 1\n Name = s_&#45;&gt;hasAttr_S32\n Classtype = None\n Name = None</title>
<path fill="none" stroke="black" d="M1862.64,-495.933C1862.58,-487.718 1862.51,-479.043 1862.44,-470.557"/>
<polygon fill="black" stroke="black" points="1865.94,-470.314 1862.36,-460.343 1858.94,-470.371 1865.94,-470.314"/>
</g>
<!-- Equation36\n Classtype = None\n Name = None -->
<g id="node37" class="node"><title>Equation36\n Classtype = None\n Name = None</title>
<ellipse fill="lightblue" stroke="black" cx="1562" cy="-540" rx="101.823" ry="43.8406"/>
<text text-anchor="middle" x="1562" y="-554.4" font-family="Times Roman,serif" font-size="14.00">Equation36</text>
<text text-anchor="middle" x="1562" y="-536.4" font-family="Times Roman,serif" font-size="14.00"> Classtype = None</text>
<text text-anchor="middle" x="1562" y="-518.4" font-family="Times Roman,serif" font-size="14.00"> Name = None</text>
</g>
<!-- Equation36\n Classtype = None\n Name = None&#45;&gt;leftExpr30\n Classtype = None\n Name = None -->
<g id="edge66" class="edge"><title>Equation36\n Classtype = None\n Name = None&#45;&gt;leftExpr30\n Classtype = None\n Name = None</title>
<path fill="none" stroke="black" d="M1588.84,-497.326C1594.91,-487.681 1601.41,-477.343 1607.68,-467.382"/>
<polygon fill="black" stroke="black" points="1610.75,-469.081 1613.11,-458.752 1604.82,-465.353 1610.75,-469.081"/>
</g>
<!-- rightExpr38\n Classtype = None\n Name = None -->
<g id="node39" class="node"><title>rightExpr38\n Classtype = None\n Name = None</title>
<ellipse fill="lightblue" stroke="black" cx="1553" cy="-168" rx="101.823" ry="43.8406"/>
<text text-anchor="middle" x="1553" y="-182.4" font-family="Times Roman,serif" font-size="14.00">rightExpr38</text>
<text text-anchor="middle" x="1553" y="-164.4" font-family="Times Roman,serif" font-size="14.00"> Classtype = None</text>
<text text-anchor="middle" x="1553" y="-146.4" font-family="Times Roman,serif" font-size="14.00"> Name = None</text>
</g>
<!-- Equation36\n Classtype = None\n Name = None&#45;&gt;rightExpr38\n Classtype = None\n Name = None -->
<g id="edge80" class="edge"><title>Equation36\n Classtype = None\n Name = None&#45;&gt;rightExpr38\n Classtype = None\n Name = None</title>
<path fill="none" stroke="black" d="M1540.65,-496.952C1535.85,-485.248 1531.45,-472.38 1529,-460 1512.74,-377.93 1527.28,-280.777 1539.76,-221.804"/>
<polygon fill="black" stroke="black" points="1543.19,-222.478 1541.9,-211.963 1536.35,-220.991 1543.19,-222.478"/>
</g>
<!-- match_contains37 -->
<g id="node38" class="node"><title>match_contains37</title>
<ellipse fill="#f798a1" stroke="black" cx="1865" cy="-639" rx="101.116" ry="18.3848"/>
<text text-anchor="middle" x="1865" y="-635.4" font-family="Times Roman,serif" font-size="14.00">match_contains37</text>
</g>
<!-- match_contains37&#45;&gt;Female_S35\n Classtype = 1\n Name = s_ -->
<g id="edge78" class="edge"><title>match_contains37&#45;&gt;Female_S35\n Classtype = 1\n Name = s_</title>
<path fill="none" stroke="black" d="M1864.62,-620.379C1864.47,-612.81 1864.29,-603.638 1864.1,-594.236"/>
<polygon fill="black" stroke="black" points="1867.59,-593.936 1863.89,-584.008 1860.59,-594.077 1867.59,-593.936"/>
</g>
<!-- rightExpr38\n Classtype = None\n Name = None&#45;&gt;Attribute41\n Classtype = None\n Name = name -->
<g id="edge84" class="edge"><title>rightExpr38\n Classtype = None\n Name = None&#45;&gt;Attribute41\n Classtype = None\n Name = name</title>
<path fill="none" stroke="black" d="M1607.61,-130.796C1627.85,-117.002 1650.98,-101.248 1671.91,-86.981"/>
<polygon fill="black" stroke="black" points="1674.14,-89.7009 1680.43,-81.1778 1670.2,-83.916 1674.14,-89.7009"/>
</g>
<!-- MatchModel39 -->
<g id="node40" class="node"><title>MatchModel39</title>
<ellipse fill="#e15c34" stroke="black" cx="1967" cy="-713" rx="82.2301" ry="18.3848"/>
<text text-anchor="middle" x="1967" y="-709.4" font-family="Times Roman,serif" font-size="14.00">MatchModel39</text>
</g>
<!-- MatchModel39&#45;&gt;paired_with31 -->
<g id="edge70" class="edge"><title>MatchModel39&#45;&gt;paired_with31</title>
<path fill="none" stroke="black" d="M1991.67,-695.275C2005.2,-685.553 2022.16,-673.367 2036.84,-662.824"/>
<polygon fill="black" stroke="black" points="2039.09,-665.514 2045.17,-656.837 2035.01,-659.829 2039.09,-665.514"/>
</g>
<!-- MatchModel39&#45;&gt;match_contains37 -->
<g id="edge82" class="edge"><title>MatchModel39&#45;&gt;match_contains37</title>
<path fill="none" stroke="black" d="M1942.57,-695.275C1929.27,-685.624 1912.62,-673.547 1898.16,-663.057"/>
<polygon fill="black" stroke="black" points="1900.09,-660.134 1889.94,-657.094 1895.98,-665.8 1900.09,-660.134"/>
</g>
</g>
</svg>
