<?xml version="1.0" encoding="UTF-8" standalone="no"?>
<!DOCTYPE svg PUBLIC "-//W3C//DTD SVG 1.1//EN"
 "http://www.w3.org/Graphics/SVG/1.1/DTD/svg11.dtd">
<!-- Generated by graphviz version 2.26.3 (20100126.1600)
 -->
<!-- Title: HEmptyPathCondition_HM2M_HS2S_HSM2SM Pages: 1 -->
<svg width="1821pt" height="1136pt"
 viewBox="0.00 0.00 1821.00 1136.00" xmlns="http://www.w3.org/2000/svg" xmlns:xlink="http://www.w3.org/1999/xlink">
<g id="graph1" class="graph" transform="scale(1 1) rotate(0) translate(4 1132)">
<title>HEmptyPathCondition_HM2M_HS2S_HSM2SM</title>
<polygon fill="white" stroke="white" points="-4,5 -4,-1132 1818,-1132 1818,5 -4,5"/>
<!-- apply_contains0 -->
<g id="node1" class="node"><title>apply_contains0</title>
<ellipse fill="#fcdb58" stroke="black" cx="288" cy="-664" rx="90.0096" ry="18.3848"/>
<text text-anchor="middle" x="288" y="-660.4" font-family="Times Roman,serif" font-size="14.00">apply_contains0</text>
</g>
<!-- Male_T8\n Classtype = t_\n Name = s_ -->
<g id="node9" class="node"><title>Male_T8\n Classtype = t_\n Name = s_</title>
<ellipse fill="lightblue" stroke="black" cx="337" cy="-540" rx="85.7684" ry="43.8406"/>
<text text-anchor="middle" x="337" y="-554.4" font-family="Times Roman,serif" font-size="14.00">Male_T8</text>
<text text-anchor="middle" x="337" y="-536.4" font-family="Times Roman,serif" font-size="14.00"> Classtype = t_</text>
<text text-anchor="middle" x="337" y="-518.4" font-family="Times Roman,serif" font-size="14.00"> Name = s_</text>
</g>
<!-- apply_contains0&#45;&gt;Male_T8\n Classtype = t_\n Name = s_ -->
<g id="edge4" class="edge"><title>apply_contains0&#45;&gt;Male_T8\n Classtype = t_\n Name = s_</title>
<path fill="none" stroke="black" d="M295.336,-645.436C300.886,-631.391 308.797,-611.37 316.238,-592.541"/>
<polygon fill="black" stroke="black" points="319.535,-593.721 319.955,-583.135 313.025,-591.149 319.535,-593.721"/>
</g>
<!-- hasAttr_T1\n Classtype = None\n Name = None -->
<g id="node2" class="node"><title>hasAttr_T1\n Classtype = None\n Name = None</title>
<ellipse fill="lightblue" stroke="black" cx="386" cy="-416" rx="101.823" ry="43.8406"/>
<text text-anchor="middle" x="386" y="-430.4" font-family="Times Roman,serif" font-size="14.00">hasAttr_T1</text>
<text text-anchor="middle" x="386" y="-412.4" font-family="Times Roman,serif" font-size="14.00"> Classtype = None</text>
<text text-anchor="middle" x="386" y="-394.4" font-family="Times Roman,serif" font-size="14.00"> Name = None</text>
</g>
<!-- Attribute13\n Classtype = None\n Name = name -->
<g id="node14" class="node"><title>Attribute13\n Classtype = None\n Name = name</title>
<ellipse fill="lightblue" stroke="black" cx="555" cy="-292" rx="101.823" ry="43.8406"/>
<text text-anchor="middle" x="555" y="-306.4" font-family="Times Roman,serif" font-size="14.00">Attribute13</text>
<text text-anchor="middle" x="555" y="-288.4" font-family="Times Roman,serif" font-size="14.00"> Classtype = None</text>
<text text-anchor="middle" x="555" y="-270.4" font-family="Times Roman,serif" font-size="14.00"> Name = name</text>
</g>
<!-- hasAttr_T1\n Classtype = None\n Name = None&#45;&gt;Attribute13\n Classtype = None\n Name = name -->
<g id="edge8" class="edge"><title>hasAttr_T1\n Classtype = None\n Name = None&#45;&gt;Attribute13\n Classtype = None\n Name = name</title>
<path fill="none" stroke="black" d="M438.085,-377.784C456.079,-364.581 476.386,-349.681 494.966,-336.049"/>
<polygon fill="black" stroke="black" points="497.095,-338.827 503.087,-330.09 492.954,-333.184 497.095,-338.827"/>
</g>
<!-- leftExpr2\n Classtype = None\n Name = None -->
<g id="node3" class="node"><title>leftExpr2\n Classtype = None\n Name = None</title>
<ellipse fill="lightblue" stroke="black" cx="942" cy="-168" rx="101.823" ry="43.8406"/>
<text text-anchor="middle" x="942" y="-182.4" font-family="Times Roman,serif" font-size="14.00">leftExpr2</text>
<text text-anchor="middle" x="942" y="-164.4" font-family="Times Roman,serif" font-size="14.00"> Classtype = None</text>
<text text-anchor="middle" x="942" y="-146.4" font-family="Times Roman,serif" font-size="14.00"> Name = None</text>
</g>
<!-- Attribute12\n Classtype = None\n Name = name -->
<g id="node13" class="node"><title>Attribute12\n Classtype = None\n Name = name</title>
<ellipse fill="lightblue" stroke="black" cx="942" cy="-44" rx="101.823" ry="43.8406"/>
<text text-anchor="middle" x="942" y="-58.4" font-family="Times Roman,serif" font-size="14.00">Attribute12</text>
<text text-anchor="middle" x="942" y="-40.4" font-family="Times Roman,serif" font-size="14.00"> Classtype = None</text>
<text text-anchor="middle" x="942" y="-22.4" font-family="Times Roman,serif" font-size="14.00"> Name = name</text>
</g>
<!-- leftExpr2\n Classtype = None\n Name = None&#45;&gt;Attribute12\n Classtype = None\n Name = name -->
<g id="edge12" class="edge"><title>leftExpr2\n Classtype = None\n Name = None&#45;&gt;Attribute12\n Classtype = None\n Name = name</title>
<path fill="none" stroke="black" d="M942,-123.933C942,-115.718 942,-107.043 942,-98.5568"/>
<polygon fill="black" stroke="black" points="945.5,-98.3428 942,-88.3428 938.5,-98.3428 945.5,-98.3428"/>
</g>
<!-- paired_with3 -->
<g id="node4" class="node"><title>paired_with3</title>
<ellipse fill="lightgray" stroke="black" cx="284" cy="-887" rx="75.1594" ry="18.3848"/>
<text text-anchor="middle" x="284" y="-883.4" font-family="Times Roman,serif" font-size="14.00">paired_with3</text>
</g>
<!-- ApplyModel5 -->
<g id="node6" class="node"><title>ApplyModel5</title>
<ellipse fill="#fed017" stroke="black" cx="287" cy="-788" rx="73.0388" ry="18.3848"/>
<text text-anchor="middle" x="287" y="-784.4" font-family="Times Roman,serif" font-size="14.00">ApplyModel5</text>
</g>
<!-- paired_with3&#45;&gt;ApplyModel5 -->
<g id="edge16" class="edge"><title>paired_with3&#45;&gt;ApplyModel5</title>
<path fill="none" stroke="black" d="M284.564,-868.379C285.004,-853.86 285.623,-833.439 286.127,-816.814"/>
<polygon fill="black" stroke="black" points="289.634,-816.639 286.438,-806.538 282.637,-816.427 289.634,-816.639"/>
</g>
<!-- hasAttr_S4\n Classtype = None\n Name = None -->
<g id="node5" class="node"><title>hasAttr_S4\n Classtype = None\n Name = None</title>
<ellipse fill="lightblue" stroke="black" cx="404" cy="-168" rx="101.823" ry="43.8406"/>
<text text-anchor="middle" x="404" y="-182.4" font-family="Times Roman,serif" font-size="14.00">hasAttr_S4</text>
<text text-anchor="middle" x="404" y="-164.4" font-family="Times Roman,serif" font-size="14.00"> Classtype = None</text>
<text text-anchor="middle" x="404" y="-146.4" font-family="Times Roman,serif" font-size="14.00"> Name = None</text>
</g>
<!-- hasAttr_S4\n Classtype = None\n Name = None&#45;&gt;Attribute12\n Classtype = None\n Name = name -->
<g id="edge20" class="edge"><title>hasAttr_S4\n Classtype = None\n Name = None&#45;&gt;Attribute12\n Classtype = None\n Name = name</title>
<path fill="none" stroke="black" d="M494.049,-147.245C590.16,-125.093 742.05,-90.085 841.863,-67.0799"/>
<polygon fill="black" stroke="black" points="842.699,-70.4791 851.657,-64.8225 841.126,-63.658 842.699,-70.4791"/>
</g>
<!-- ApplyModel5&#45;&gt;apply_contains0 -->
<g id="edge2" class="edge"><title>ApplyModel5&#45;&gt;apply_contains0</title>
<path fill="none" stroke="black" d="M287.15,-769.436C287.313,-749.164 287.577,-716.442 287.768,-692.824"/>
<polygon fill="black" stroke="black" points="291.268,-692.719 287.849,-682.691 284.269,-692.662 291.268,-692.719"/>
</g>
<!-- Equation6\n Classtype = None\n Name = None -->
<g id="node7" class="node"><title>Equation6\n Classtype = None\n Name = None</title>
<ellipse fill="lightblue" stroke="black" cx="613" cy="-540" rx="101.823" ry="43.8406"/>
<text text-anchor="middle" x="613" y="-554.4" font-family="Times Roman,serif" font-size="14.00">Equation6</text>
<text text-anchor="middle" x="613" y="-536.4" font-family="Times Roman,serif" font-size="14.00"> Classtype = None</text>
<text text-anchor="middle" x="613" y="-518.4" font-family="Times Roman,serif" font-size="14.00"> Name = None</text>
</g>
<!-- Equation6\n Classtype = None\n Name = None&#45;&gt;leftExpr2\n Classtype = None\n Name = None -->
<g id="edge10" class="edge"><title>Equation6\n Classtype = None\n Name = None&#45;&gt;leftExpr2\n Classtype = None\n Name = None</title>
<path fill="none" stroke="black" d="M687.223,-509.6C700.97,-504.614 715.311,-499.833 729,-496 813.446,-472.355 864.772,-525.572 923,-460 953.163,-426.033 950.455,-297.021 946.083,-222.335"/>
<polygon fill="black" stroke="black" points="949.565,-221.939 945.458,-212.172 942.579,-222.368 949.565,-221.939"/>
</g>
<!-- rightExpr9\n Classtype = None\n Name = None -->
<g id="node10" class="node"><title>rightExpr9\n Classtype = None\n Name = None</title>
<ellipse fill="lightblue" stroke="black" cx="608" cy="-416" rx="101.823" ry="43.8406"/>
<text text-anchor="middle" x="608" y="-430.4" font-family="Times Roman,serif" font-size="14.00">rightExpr9</text>
<text text-anchor="middle" x="608" y="-412.4" font-family="Times Roman,serif" font-size="14.00"> Classtype = None</text>
<text text-anchor="middle" x="608" y="-394.4" font-family="Times Roman,serif" font-size="14.00"> Name = None</text>
</g>
<!-- Equation6\n Classtype = None\n Name = None&#45;&gt;rightExpr9\n Classtype = None\n Name = None -->
<g id="edge22" class="edge"><title>Equation6\n Classtype = None\n Name = None&#45;&gt;rightExpr9\n Classtype = None\n Name = None</title>
<path fill="none" stroke="black" d="M611.223,-495.933C610.892,-487.718 610.542,-479.043 610.2,-470.557"/>
<polygon fill="black" stroke="black" points="613.688,-470.194 609.788,-460.343 606.694,-470.476 613.688,-470.194"/>
</g>
<!-- match_contains7 -->
<g id="node8" class="node"><title>match_contains7</title>
<ellipse fill="#f798a1" stroke="black" cx="95" cy="-887" rx="94.7523" ry="18.3848"/>
<text text-anchor="middle" x="95" y="-883.4" font-family="Times Roman,serif" font-size="14.00">match_contains7</text>
</g>
<!-- Male_S11\n Classtype = 1\n Name = s_ -->
<g id="node12" class="node"><title>Male_S11\n Classtype = 1\n Name = s_</title>
<ellipse fill="lightblue" stroke="black" cx="247" cy="-292" rx="82.2301" ry="43.8406"/>
<text text-anchor="middle" x="247" y="-306.4" font-family="Times Roman,serif" font-size="14.00">Male_S11</text>
<text text-anchor="middle" x="247" y="-288.4" font-family="Times Roman,serif" font-size="14.00"> Classtype = 1</text>
<text text-anchor="middle" x="247" y="-270.4" font-family="Times Roman,serif" font-size="14.00"> Name = s_</text>
</g>
<!-- match_contains7&#45;&gt;Male_S11\n Classtype = 1\n Name = s_ -->
<g id="edge26" class="edge"><title>match_contains7&#45;&gt;Male_S11\n Classtype = 1\n Name = s_</title>
<path fill="none" stroke="black" d="M94.861,-868.498C94.5862,-830.289 94,-739.883 94,-664 94,-664 94,-664 94,-540 94,-464.857 72.2865,-435.157 113,-372 126.741,-350.684 148.348,-334.26 170.232,-322.001"/>
<polygon fill="black" stroke="black" points="172.104,-324.97 179.274,-317.17 168.804,-318.796 172.104,-324.97"/>
</g>
<!-- Male_T8\n Classtype = t_\n Name = s_&#45;&gt;hasAttr_T1\n Classtype = None\n Name = None -->
<g id="edge6" class="edge"><title>Male_T8\n Classtype = t_\n Name = s_&#45;&gt;hasAttr_T1\n Classtype = None\n Name = None</title>
<path fill="none" stroke="black" d="M354.138,-496.631C357.661,-487.715 361.408,-478.233 365.048,-469.021"/>
<polygon fill="black" stroke="black" points="368.369,-470.141 368.789,-459.554 361.859,-467.568 368.369,-470.141"/>
</g>
<!-- trace_link14 -->
<g id="node15" class="node"><title>trace_link14</title>
<ellipse fill="#eedd82" stroke="black" cx="194" cy="-416" rx="72.1249" ry="18.3848"/>
<text text-anchor="middle" x="194" y="-412.4" font-family="Times Roman,serif" font-size="14.00">trace_link14</text>
</g>
<!-- Male_T8\n Classtype = t_\n Name = s_&#45;&gt;trace_link14 -->
<g id="edge32" class="edge"><title>Male_T8\n Classtype = t_\n Name = s_&#45;&gt;trace_link14</title>
<path fill="none" stroke="black" d="M292.928,-501.784C269.89,-481.807 242.374,-457.947 222.217,-440.468"/>
<polygon fill="black" stroke="black" points="224.454,-437.775 214.606,-433.868 219.868,-443.064 224.454,-437.775"/>
</g>
<!-- rightExpr9\n Classtype = None\n Name = None&#45;&gt;Attribute13\n Classtype = None\n Name = name -->
<g id="edge28" class="edge"><title>rightExpr9\n Classtype = None\n Name = None&#45;&gt;Attribute13\n Classtype = None\n Name = name</title>
<path fill="none" stroke="black" d="M589.463,-372.631C585.653,-363.715 581.6,-354.233 577.662,-345.021"/>
<polygon fill="black" stroke="black" points="580.765,-343.374 573.616,-335.554 574.328,-346.125 580.765,-343.374"/>
</g>
<!-- MatchModel10 -->
<g id="node11" class="node"><title>MatchModel10</title>
<ellipse fill="#e15c34" stroke="black" cx="190" cy="-961" rx="82.2301" ry="18.3848"/>
<text text-anchor="middle" x="190" y="-957.4" font-family="Times Roman,serif" font-size="14.00">MatchModel10</text>
</g>
<!-- MatchModel10&#45;&gt;paired_with3 -->
<g id="edge14" class="edge"><title>MatchModel10&#45;&gt;paired_with3</title>
<path fill="none" stroke="black" d="M212.755,-943.087C224.994,-933.452 240.253,-921.439 253.507,-911.005"/>
<polygon fill="black" stroke="black" points="255.762,-913.684 261.455,-904.748 251.432,-908.184 255.762,-913.684"/>
</g>
<!-- MatchModel10&#45;&gt;match_contains7 -->
<g id="edge24" class="edge"><title>MatchModel10&#45;&gt;match_contains7</title>
<path fill="none" stroke="black" d="M167.003,-943.087C154.725,-933.523 139.439,-921.615 126.113,-911.236"/>
<polygon fill="black" stroke="black" points="128.154,-908.389 118.114,-905.005 123.853,-913.911 128.154,-908.389"/>
</g>
<!-- Male_S11\n Classtype = 1\n Name = s_&#45;&gt;hasAttr_S4\n Classtype = None\n Name = None -->
<g id="edge18" class="edge"><title>Male_S11\n Classtype = 1\n Name = s_&#45;&gt;hasAttr_S4\n Classtype = None\n Name = None</title>
<path fill="none" stroke="black" d="M293.256,-255.467C310.12,-242.147 329.388,-226.93 347.071,-212.963"/>
<polygon fill="black" stroke="black" points="349.393,-215.59 355.071,-206.645 345.054,-210.096 349.393,-215.59"/>
</g>
<!-- trace_link14&#45;&gt;Male_S11\n Classtype = 1\n Name = s_ -->
<g id="edge30" class="edge"><title>trace_link14&#45;&gt;Male_S11\n Classtype = 1\n Name = s_</title>
<path fill="none" stroke="black" d="M201.935,-397.436C207.938,-383.391 216.495,-363.37 224.543,-344.541"/>
<polygon fill="black" stroke="black" points="227.851,-345.706 228.563,-335.135 221.415,-342.954 227.851,-345.706"/>
</g>
<!-- apply_contains15 -->
<g id="node16" class="node"><title>apply_contains15</title>
<ellipse fill="#fcdb58" stroke="black" cx="761" cy="-887" rx="96.8736" ry="18.3848"/>
<text text-anchor="middle" x="761" y="-883.4" font-family="Times Roman,serif" font-size="14.00">apply_contains15</text>
</g>
<!-- Station_T22\n Classtype = t_\n Name = s_ -->
<g id="node23" class="node"><title>Station_T22\n Classtype = t_\n Name = s_</title>
<ellipse fill="lightblue" stroke="black" cx="713" cy="-788" rx="85.7684" ry="43.8406"/>
<text text-anchor="middle" x="713" y="-802.4" font-family="Times Roman,serif" font-size="14.00">Station_T22</text>
<text text-anchor="middle" x="713" y="-784.4" font-family="Times Roman,serif" font-size="14.00"> Classtype = t_</text>
<text text-anchor="middle" x="713" y="-766.4" font-family="Times Roman,serif" font-size="14.00"> Name = s_</text>
</g>
<!-- apply_contains15&#45;&gt;Station_T22\n Classtype = t_\n Name = s_ -->
<g id="edge36" class="edge"><title>apply_contains15&#45;&gt;Station_T22\n Classtype = t_\n Name = s_</title>
<path fill="none" stroke="black" d="M751.972,-868.379C747.981,-860.148 743.07,-850.02 738.097,-839.763"/>
<polygon fill="black" stroke="black" points="741.244,-838.231 733.732,-830.759 734.945,-841.285 741.244,-838.231"/>
</g>
<!-- hasAttr_T16\n Classtype = None\n Name = None -->
<g id="node17" class="node"><title>hasAttr_T16\n Classtype = None\n Name = None</title>
<ellipse fill="lightblue" stroke="black" cx="900" cy="-664" rx="101.823" ry="43.8406"/>
<text text-anchor="middle" x="900" y="-678.4" font-family="Times Roman,serif" font-size="14.00">hasAttr_T16</text>
<text text-anchor="middle" x="900" y="-660.4" font-family="Times Roman,serif" font-size="14.00"> Classtype = None</text>
<text text-anchor="middle" x="900" y="-642.4" font-family="Times Roman,serif" font-size="14.00"> Name = None</text>
</g>
<!-- Attribute28\n Classtype = None\n Name = name -->
<g id="node29" class="node"><title>Attribute28\n Classtype = None\n Name = name</title>
<ellipse fill="lightblue" stroke="black" cx="1027" cy="-540" rx="101.823" ry="43.8406"/>
<text text-anchor="middle" x="1027" y="-554.4" font-family="Times Roman,serif" font-size="14.00">Attribute28</text>
<text text-anchor="middle" x="1027" y="-536.4" font-family="Times Roman,serif" font-size="14.00"> Classtype = None</text>
<text text-anchor="middle" x="1027" y="-518.4" font-family="Times Roman,serif" font-size="14.00"> Name = name</text>
</g>
<!-- hasAttr_T16\n Classtype = None\n Name = None&#45;&gt;Attribute28\n Classtype = None\n Name = name -->
<g id="edge40" class="edge"><title>hasAttr_T16\n Classtype = None\n Name = None&#45;&gt;Attribute28\n Classtype = None\n Name = name</title>
<path fill="none" stroke="black" d="M941.233,-623.741C952.989,-612.262 965.911,-599.646 978.078,-587.766"/>
<polygon fill="black" stroke="black" points="980.829,-589.972 985.539,-580.482 975.939,-584.963 980.829,-589.972"/>
</g>
<!-- leftExpr17\n Classtype = None\n Name = None -->
<g id="node18" class="node"><title>leftExpr17\n Classtype = None\n Name = None</title>
<ellipse fill="lightblue" stroke="black" cx="1251" cy="-540" rx="101.823" ry="43.8406"/>
<text text-anchor="middle" x="1251" y="-554.4" font-family="Times Roman,serif" font-size="14.00">leftExpr17</text>
<text text-anchor="middle" x="1251" y="-536.4" font-family="Times Roman,serif" font-size="14.00"> Classtype = None</text>
<text text-anchor="middle" x="1251" y="-518.4" font-family="Times Roman,serif" font-size="14.00"> Name = None</text>
</g>
<!-- Attribute27\n Classtype = None\n Name = name -->
<g id="node28" class="node"><title>Attribute27\n Classtype = None\n Name = name</title>
<ellipse fill="lightblue" stroke="black" cx="1202" cy="-292" rx="101.823" ry="43.8406"/>
<text text-anchor="middle" x="1202" y="-306.4" font-family="Times Roman,serif" font-size="14.00">Attribute27</text>
<text text-anchor="middle" x="1202" y="-288.4" font-family="Times Roman,serif" font-size="14.00"> Classtype = None</text>
<text text-anchor="middle" x="1202" y="-270.4" font-family="Times Roman,serif" font-size="14.00"> Name = name</text>
</g>
<!-- leftExpr17\n Classtype = None\n Name = None&#45;&gt;Attribute27\n Classtype = None\n Name = name -->
<g id="edge44" class="edge"><title>leftExpr17\n Classtype = None\n Name = None&#45;&gt;Attribute27\n Classtype = None\n Name = name</title>
<path fill="none" stroke="black" d="M1232.51,-496.595C1228.14,-484.894 1223.91,-472.116 1221,-460 1212.03,-422.657 1207.27,-379.601 1204.75,-346.427"/>
<polygon fill="black" stroke="black" points="1208.21,-345.749 1204.01,-336.023 1201.23,-346.246 1208.21,-345.749"/>
</g>
<!-- paired_with18 -->
<g id="node19" class="node"><title>paired_with18</title>
<ellipse fill="lightgray" stroke="black" cx="789" cy="-1035" rx="82.0244" ry="18.3848"/>
<text text-anchor="middle" x="789" y="-1031.4" font-family="Times Roman,serif" font-size="14.00">paired_with18</text>
</g>
<!-- ApplyModel20 -->
<g id="node21" class="node"><title>ApplyModel20</title>
<ellipse fill="#fed017" stroke="black" cx="780" cy="-961" rx="79.9031" ry="18.3848"/>
<text text-anchor="middle" x="780" y="-957.4" font-family="Times Roman,serif" font-size="14.00">ApplyModel20</text>
</g>
<!-- paired_with18&#45;&gt;ApplyModel20 -->
<g id="edge48" class="edge"><title>paired_with18&#45;&gt;ApplyModel20</title>
<path fill="none" stroke="black" d="M786.729,-1016.33C785.748,-1008.26 784.579,-998.648 783.492,-989.711"/>
<polygon fill="black" stroke="black" points="786.952,-989.172 782.27,-979.667 780.003,-990.017 786.952,-989.172"/>
</g>
<!-- hasAttr_S19\n Classtype = None\n Name = None -->
<g id="node20" class="node"><title>hasAttr_S19\n Classtype = None\n Name = None</title>
<ellipse fill="lightblue" stroke="black" cx="1072" cy="-416" rx="101.823" ry="43.8406"/>
<text text-anchor="middle" x="1072" y="-430.4" font-family="Times Roman,serif" font-size="14.00">hasAttr_S19</text>
<text text-anchor="middle" x="1072" y="-412.4" font-family="Times Roman,serif" font-size="14.00"> Classtype = None</text>
<text text-anchor="middle" x="1072" y="-394.4" font-family="Times Roman,serif" font-size="14.00"> Name = None</text>
</g>
<!-- hasAttr_S19\n Classtype = None\n Name = None&#45;&gt;Attribute27\n Classtype = None\n Name = name -->
<g id="edge52" class="edge"><title>hasAttr_S19\n Classtype = None\n Name = None&#45;&gt;Attribute27\n Classtype = None\n Name = name</title>
<path fill="none" stroke="black" d="M1114.21,-375.741C1126.35,-364.154 1139.72,-351.408 1152.27,-339.43"/>
<polygon fill="black" stroke="black" points="1154.74,-341.916 1159.56,-332.482 1149.91,-336.851 1154.74,-341.916"/>
</g>
<!-- ApplyModel20&#45;&gt;apply_contains15 -->
<g id="edge34" class="edge"><title>ApplyModel20&#45;&gt;apply_contains15</title>
<path fill="none" stroke="black" d="M775.205,-942.327C773.113,-934.176 770.613,-924.438 768.297,-915.42"/>
<polygon fill="black" stroke="black" points="771.67,-914.483 765.793,-905.667 764.89,-916.224 771.67,-914.483"/>
</g>
<!-- Station_S21\n Classtype = 1\n Name = s_ -->
<g id="node22" class="node"><title>Station_S21\n Classtype = 1\n Name = s_</title>
<ellipse fill="lightblue" stroke="black" cx="820" cy="-540" rx="82.2301" ry="43.8406"/>
<text text-anchor="middle" x="820" y="-554.4" font-family="Times Roman,serif" font-size="14.00">Station_S21</text>
<text text-anchor="middle" x="820" y="-536.4" font-family="Times Roman,serif" font-size="14.00"> Classtype = 1</text>
<text text-anchor="middle" x="820" y="-518.4" font-family="Times Roman,serif" font-size="14.00"> Name = s_</text>
</g>
<!-- Station_S21\n Classtype = 1\n Name = s_&#45;&gt;hasAttr_S19\n Classtype = None\n Name = None -->
<g id="edge50" class="edge"><title>Station_S21\n Classtype = 1\n Name = s_&#45;&gt;hasAttr_S19\n Classtype = None\n Name = None</title>
<path fill="none" stroke="black" d="M880.681,-510.141C915.186,-493.163 958.724,-471.739 995.546,-453.62"/>
<polygon fill="black" stroke="black" points="997.326,-456.645 1004.75,-449.089 994.236,-450.364 997.326,-456.645"/>
</g>
<!-- indirectLink_S35 -->
<g id="node36" class="node"><title>indirectLink_S35</title>
<ellipse fill="lightgreen" stroke="black" cx="821" cy="-416" rx="92.839" ry="18.3848"/>
<text text-anchor="middle" x="821" y="-412.4" font-family="Times Roman,serif" font-size="14.00">indirectLink_S35</text>
</g>
<!-- Station_S21\n Classtype = 1\n Name = s_&#45;&gt;indirectLink_S35 -->
<g id="edge66" class="edge"><title>Station_S21\n Classtype = 1\n Name = s_&#45;&gt;indirectLink_S35</title>
<path fill="none" stroke="black" d="M820.355,-495.933C820.492,-479.016 820.644,-460.151 820.766,-444.997"/>
<polygon fill="black" stroke="black" points="824.268,-444.728 820.849,-434.7 817.269,-444.672 824.268,-444.728"/>
</g>
<!-- Station_T22\n Classtype = t_\n Name = s_&#45;&gt;hasAttr_T16\n Classtype = None\n Name = None -->
<g id="edge38" class="edge"><title>Station_T22\n Classtype = t_\n Name = s_&#45;&gt;hasAttr_T16\n Classtype = None\n Name = None</title>
<path fill="none" stroke="black" d="M765.588,-753.129C787.332,-738.71 812.753,-721.853 835.6,-706.704"/>
<polygon fill="black" stroke="black" points="837.817,-709.433 844.217,-700.99 833.949,-703.599 837.817,-709.433"/>
</g>
<!-- trace_link29 -->
<g id="node30" class="node"><title>trace_link29</title>
<ellipse fill="#eedd82" stroke="black" cx="708" cy="-664" rx="72.1249" ry="18.3848"/>
<text text-anchor="middle" x="708" y="-660.4" font-family="Times Roman,serif" font-size="14.00">trace_link29</text>
</g>
<!-- Station_T22\n Classtype = t_\n Name = s_&#45;&gt;trace_link29 -->
<g id="edge64" class="edge"><title>Station_T22\n Classtype = t_\n Name = s_&#45;&gt;trace_link29</title>
<path fill="none" stroke="black" d="M711.223,-743.933C710.541,-727.016 709.78,-708.151 709.169,-692.997"/>
<polygon fill="black" stroke="black" points="712.654,-692.551 708.754,-682.7 705.66,-692.833 712.654,-692.551"/>
</g>
<!-- directLink_T30\n -->
<g id="node31" class="node"><title>directLink_T30\n</title>
<ellipse fill="lightyellow" stroke="black" cx="482" cy="-664" rx="84.1457" ry="18.3848"/>
<text text-anchor="middle" x="482" y="-660.4" font-family="Times Roman,serif" font-size="14.00">directLink_T30</text>
</g>
<!-- Station_T22\n Classtype = t_\n Name = s_&#45;&gt;directLink_T30\n -->
<g id="edge70" class="edge"><title>Station_T22\n Classtype = t_\n Name = s_&#45;&gt;directLink_T30\n</title>
<path fill="none" stroke="black" d="M653.512,-756.067C612.474,-734.038 558.99,-705.328 522.737,-685.867"/>
<polygon fill="black" stroke="black" points="524.375,-682.775 513.909,-681.129 521.065,-688.942 524.375,-682.775"/>
</g>
<!-- Equation23\n Classtype = None\n Name = None -->
<g id="node24" class="node"><title>Equation23\n Classtype = None\n Name = None</title>
<ellipse fill="lightblue" stroke="black" cx="1187" cy="-788" rx="101.823" ry="43.8406"/>
<text text-anchor="middle" x="1187" y="-802.4" font-family="Times Roman,serif" font-size="14.00">Equation23</text>
<text text-anchor="middle" x="1187" y="-784.4" font-family="Times Roman,serif" font-size="14.00"> Classtype = None</text>
<text text-anchor="middle" x="1187" y="-766.4" font-family="Times Roman,serif" font-size="14.00"> Name = None</text>
</g>
<!-- Equation23\n Classtype = None\n Name = None&#45;&gt;leftExpr17\n Classtype = None\n Name = None -->
<g id="edge42" class="edge"><title>Equation23\n Classtype = None\n Name = None&#45;&gt;leftExpr17\n Classtype = None\n Name = None</title>
<path fill="none" stroke="black" d="M1215.76,-745.52C1222.46,-733.811 1228.84,-720.799 1233,-708 1244.96,-671.215 1249.37,-627.754 1250.84,-594.252"/>
<polygon fill="black" stroke="black" points="1254.34,-594.314 1251.21,-584.193 1247.35,-594.059 1254.34,-594.314"/>
</g>
<!-- rightExpr25\n Classtype = None\n Name = None -->
<g id="node26" class="node"><title>rightExpr25\n Classtype = None\n Name = None</title>
<ellipse fill="lightblue" stroke="black" cx="1122" cy="-664" rx="101.823" ry="43.8406"/>
<text text-anchor="middle" x="1122" y="-678.4" font-family="Times Roman,serif" font-size="14.00">rightExpr25</text>
<text text-anchor="middle" x="1122" y="-660.4" font-family="Times Roman,serif" font-size="14.00"> Classtype = None</text>
<text text-anchor="middle" x="1122" y="-642.4" font-family="Times Roman,serif" font-size="14.00"> Name = None</text>
</g>
<!-- Equation23\n Classtype = None\n Name = None&#45;&gt;rightExpr25\n Classtype = None\n Name = None -->
<g id="edge56" class="edge"><title>Equation23\n Classtype = None\n Name = None&#45;&gt;rightExpr25\n Classtype = None\n Name = None</title>
<path fill="none" stroke="black" d="M1164.45,-744.979C1159.56,-735.649 1154.34,-725.685 1149.28,-716.05"/>
<polygon fill="black" stroke="black" points="1152.25,-714.177 1144.51,-706.945 1146.05,-717.427 1152.25,-714.177"/>
</g>
<!-- match_contains24 -->
<g id="node25" class="node"><title>match_contains24</title>
<ellipse fill="#f798a1" stroke="black" cx="588" cy="-1035" rx="101.116" ry="18.3848"/>
<text text-anchor="middle" x="588" y="-1031.4" font-family="Times Roman,serif" font-size="14.00">match_contains24</text>
</g>
<!-- match_contains24&#45;&gt;Station_S21\n Classtype = 1\n Name = s_ -->
<g id="edge54" class="edge"><title>match_contains24&#45;&gt;Station_S21\n Classtype = 1\n Name = s_</title>
<path fill="none" stroke="black" d="M590.072,-1016.34C593.001,-988.296 598,-933.613 598,-887 598,-887 598,-887 598,-788 598,-712.229 578.584,-678.285 627,-620 656.383,-584.628 681.514,-601.592 724,-584 732.123,-580.637 740.571,-576.989 748.938,-573.283"/>
<polygon fill="black" stroke="black" points="750.627,-576.361 758.327,-569.084 747.77,-569.971 750.627,-576.361"/>
</g>
<!-- rightExpr25\n Classtype = None\n Name = None&#45;&gt;Attribute28\n Classtype = None\n Name = name -->
<g id="edge60" class="edge"><title>rightExpr25\n Classtype = None\n Name = None&#45;&gt;Attribute28\n Classtype = None\n Name = name</title>
<path fill="none" stroke="black" d="M1089.84,-622.019C1081.94,-611.717 1073.42,-600.589 1065.27,-589.953"/>
<polygon fill="black" stroke="black" points="1067.99,-587.747 1059.13,-581.938 1062.43,-592.004 1067.99,-587.747"/>
</g>
<!-- MatchModel26 -->
<g id="node27" class="node"><title>MatchModel26</title>
<ellipse fill="#e15c34" stroke="black" cx="688" cy="-1109" rx="82.2301" ry="18.3848"/>
<text text-anchor="middle" x="688" y="-1105.4" font-family="Times Roman,serif" font-size="14.00">MatchModel26</text>
</g>
<!-- MatchModel26&#45;&gt;paired_with18 -->
<g id="edge46" class="edge"><title>MatchModel26&#45;&gt;paired_with18</title>
<path fill="none" stroke="black" d="M712.192,-1091.28C725.461,-1081.55 742.093,-1069.37 756.484,-1058.82"/>
<polygon fill="black" stroke="black" points="758.657,-1061.57 764.655,-1052.84 754.52,-1055.92 758.657,-1061.57"/>
</g>
<!-- MatchModel26&#45;&gt;match_contains24 -->
<g id="edge58" class="edge"><title>MatchModel26&#45;&gt;match_contains24</title>
<path fill="none" stroke="black" d="M664.048,-1091.28C651.006,-1081.62 634.684,-1069.55 620.509,-1059.06"/>
<polygon fill="black" stroke="black" points="622.572,-1056.23 612.452,-1053.09 618.408,-1061.86 622.572,-1056.23"/>
</g>
<!-- trace_link29&#45;&gt;Station_S21\n Classtype = 1\n Name = s_ -->
<g id="edge62" class="edge"><title>trace_link29&#45;&gt;Station_S21\n Classtype = 1\n Name = s_</title>
<path fill="none" stroke="black" d="M724.286,-645.969C738.173,-630.595 758.772,-607.788 777.307,-587.267"/>
<polygon fill="black" stroke="black" points="779.921,-589.595 784.026,-579.828 774.726,-584.903 779.921,-589.595"/>
</g>
<!-- directLink_T30\n&#45;&gt;Male_T8\n Classtype = t_\n Name = s_ -->
<g id="edge72" class="edge"><title>directLink_T30\n&#45;&gt;Male_T8\n Classtype = t_\n Name = s_</title>
<path fill="none" stroke="black" d="M460.916,-645.969C442.134,-629.908 413.867,-605.734 389.071,-584.53"/>
<polygon fill="black" stroke="black" points="391.034,-581.603 381.159,-577.764 386.485,-586.923 391.034,-581.603"/>
</g>
<!-- rightExpr31\n Classtype = None\n Name = None -->
<g id="node32" class="node"><title>rightExpr31\n Classtype = None\n Name = None</title>
<ellipse fill="lightblue" stroke="black" cx="1554" cy="-416" rx="101.823" ry="43.8406"/>
<text text-anchor="middle" x="1554" y="-430.4" font-family="Times Roman,serif" font-size="14.00">rightExpr31</text>
<text text-anchor="middle" x="1554" y="-412.4" font-family="Times Roman,serif" font-size="14.00"> Classtype = None</text>
<text text-anchor="middle" x="1554" y="-394.4" font-family="Times Roman,serif" font-size="14.00"> Name = None</text>
</g>
<!-- Constant38\n Classtype = None\n Name = None -->
<g id="node39" class="node"><title>Constant38\n Classtype = None\n Name = None</title>
<ellipse fill="lightblue" stroke="black" cx="1489" cy="-292" rx="101.823" ry="43.8406"/>
<text text-anchor="middle" x="1489" y="-306.4" font-family="Times Roman,serif" font-size="14.00">Constant38</text>
<text text-anchor="middle" x="1489" y="-288.4" font-family="Times Roman,serif" font-size="14.00"> Classtype = None</text>
<text text-anchor="middle" x="1489" y="-270.4" font-family="Times Roman,serif" font-size="14.00"> Name = None</text>
</g>
<!-- rightExpr31\n Classtype = None\n Name = None&#45;&gt;Constant38\n Classtype = None\n Name = None -->
<g id="edge78" class="edge"><title>rightExpr31\n Classtype = None\n Name = None&#45;&gt;Constant38\n Classtype = None\n Name = None</title>
<path fill="none" stroke="black" d="M1531.45,-372.979C1526.56,-363.649 1521.34,-353.685 1516.28,-344.05"/>
<polygon fill="black" stroke="black" points="1519.25,-342.177 1511.51,-334.945 1513.05,-345.427 1519.25,-342.177"/>
</g>
<!-- rightExpr32\n Classtype = None\n Name = None -->
<g id="node33" class="node"><title>rightExpr32\n Classtype = None\n Name = None</title>
<ellipse fill="lightblue" stroke="black" cx="1711" cy="-168" rx="101.823" ry="43.8406"/>
<text text-anchor="middle" x="1711" y="-182.4" font-family="Times Roman,serif" font-size="14.00">rightExpr32</text>
<text text-anchor="middle" x="1711" y="-164.4" font-family="Times Roman,serif" font-size="14.00"> Classtype = None</text>
<text text-anchor="middle" x="1711" y="-146.4" font-family="Times Roman,serif" font-size="14.00"> Name = None</text>
</g>
<!-- Constant39\n Classtype = None\n Name = None -->
<g id="node40" class="node"><title>Constant39\n Classtype = None\n Name = None</title>
<ellipse fill="lightblue" stroke="black" cx="1711" cy="-44" rx="101.823" ry="43.8406"/>
<text text-anchor="middle" x="1711" y="-58.4" font-family="Times Roman,serif" font-size="14.00">Constant39</text>
<text text-anchor="middle" x="1711" y="-40.4" font-family="Times Roman,serif" font-size="14.00"> Classtype = None</text>
<text text-anchor="middle" x="1711" y="-22.4" font-family="Times Roman,serif" font-size="14.00"> Name = None</text>
</g>
<!-- rightExpr32\n Classtype = None\n Name = None&#45;&gt;Constant39\n Classtype = None\n Name = None -->
<g id="edge84" class="edge"><title>rightExpr32\n Classtype = None\n Name = None&#45;&gt;Constant39\n Classtype = None\n Name = None</title>
<path fill="none" stroke="black" d="M1711,-123.933C1711,-115.718 1711,-107.043 1711,-98.5568"/>
<polygon fill="black" stroke="black" points="1714.5,-98.3428 1711,-88.3428 1707.5,-98.3428 1714.5,-98.3428"/>
</g>
<!-- Equation33\n Classtype = None\n Name = None -->
<g id="node34" class="node"><title>Equation33\n Classtype = None\n Name = None</title>
<ellipse fill="lightblue" stroke="black" cx="1517" cy="-540" rx="101.823" ry="43.8406"/>
<text text-anchor="middle" x="1517" y="-554.4" font-family="Times Roman,serif" font-size="14.00">Equation33</text>
<text text-anchor="middle" x="1517" y="-536.4" font-family="Times Roman,serif" font-size="14.00"> Classtype = None</text>
<text text-anchor="middle" x="1517" y="-518.4" font-family="Times Roman,serif" font-size="14.00"> Name = None</text>
</g>
<!-- Equation33\n Classtype = None\n Name = None&#45;&gt;rightExpr31\n Classtype = None\n Name = None -->
<g id="edge74" class="edge"><title>Equation33\n Classtype = None\n Name = None&#45;&gt;rightExpr31\n Classtype = None\n Name = None</title>
<path fill="none" stroke="black" d="M1530.04,-496.282C1532.64,-487.577 1535.4,-478.344 1538.08,-469.358"/>
<polygon fill="black" stroke="black" points="1541.44,-470.324 1540.95,-459.741 1534.74,-468.323 1541.44,-470.324"/>
</g>
<!-- leftExpr36\n Classtype = None\n Name = None -->
<g id="node37" class="node"><title>leftExpr36\n Classtype = None\n Name = None</title>
<ellipse fill="lightblue" stroke="black" cx="1332" cy="-416" rx="101.823" ry="43.8406"/>
<text text-anchor="middle" x="1332" y="-430.4" font-family="Times Roman,serif" font-size="14.00">leftExpr36</text>
<text text-anchor="middle" x="1332" y="-412.4" font-family="Times Roman,serif" font-size="14.00"> Classtype = None</text>
<text text-anchor="middle" x="1332" y="-394.4" font-family="Times Roman,serif" font-size="14.00"> Name = None</text>
</g>
<!-- Equation33\n Classtype = None\n Name = None&#45;&gt;leftExpr36\n Classtype = None\n Name = None -->
<g id="edge76" class="edge"><title>Equation33\n Classtype = None\n Name = None&#45;&gt;leftExpr36\n Classtype = None\n Name = None</title>
<path fill="none" stroke="black" d="M1461.74,-502.964C1440.97,-489.041 1417.19,-473.101 1395.71,-458.703"/>
<polygon fill="black" stroke="black" points="1397.55,-455.72 1387.29,-453.059 1393.65,-461.534 1397.55,-455.72"/>
</g>
<!-- Equation34\n Classtype = None\n Name = None -->
<g id="node35" class="node"><title>Equation34\n Classtype = None\n Name = None</title>
<ellipse fill="lightblue" stroke="black" cx="1711" cy="-292" rx="101.823" ry="43.8406"/>
<text text-anchor="middle" x="1711" y="-306.4" font-family="Times Roman,serif" font-size="14.00">Equation34</text>
<text text-anchor="middle" x="1711" y="-288.4" font-family="Times Roman,serif" font-size="14.00"> Classtype = None</text>
<text text-anchor="middle" x="1711" y="-270.4" font-family="Times Roman,serif" font-size="14.00"> Name = None</text>
</g>
<!-- Equation34\n Classtype = None\n Name = None&#45;&gt;rightExpr32\n Classtype = None\n Name = None -->
<g id="edge80" class="edge"><title>Equation34\n Classtype = None\n Name = None&#45;&gt;rightExpr32\n Classtype = None\n Name = None</title>
<path fill="none" stroke="black" d="M1711,-247.933C1711,-239.718 1711,-231.043 1711,-222.557"/>
<polygon fill="black" stroke="black" points="1714.5,-222.343 1711,-212.343 1707.5,-222.343 1714.5,-222.343"/>
</g>
<!-- leftExpr37\n Classtype = None\n Name = None -->
<g id="node38" class="node"><title>leftExpr37\n Classtype = None\n Name = None</title>
<ellipse fill="lightblue" stroke="black" cx="1359" cy="-168" rx="101.823" ry="43.8406"/>
<text text-anchor="middle" x="1359" y="-182.4" font-family="Times Roman,serif" font-size="14.00">leftExpr37</text>
<text text-anchor="middle" x="1359" y="-164.4" font-family="Times Roman,serif" font-size="14.00"> Classtype = None</text>
<text text-anchor="middle" x="1359" y="-146.4" font-family="Times Roman,serif" font-size="14.00"> Name = None</text>
</g>
<!-- Equation34\n Classtype = None\n Name = None&#45;&gt;leftExpr37\n Classtype = None\n Name = None -->
<g id="edge82" class="edge"><title>Equation34\n Classtype = None\n Name = None&#45;&gt;leftExpr37\n Classtype = None\n Name = None</title>
<path fill="none" stroke="black" d="M1636.59,-261.83C1624.41,-257.085 1611.88,-252.324 1600,-248 1551.18,-230.236 1496.23,-211.873 1451.14,-197.227"/>
<polygon fill="black" stroke="black" points="1451.98,-193.818 1441.39,-194.065 1449.82,-200.477 1451.98,-193.818"/>
</g>
<!-- indirectLink_S35&#45;&gt;Male_S11\n Classtype = 1\n Name = s_ -->
<g id="edge68" class="edge"><title>indirectLink_S35&#45;&gt;Male_S11\n Classtype = 1\n Name = s_</title>
<path fill="none" stroke="black" d="M787.391,-398.696C767.901,-389.382 742.614,-378.503 719,-372 600.158,-339.274 565.383,-357.456 444,-336 407.095,-329.477 366.645,-320.725 332.052,-312.745"/>
<polygon fill="black" stroke="black" points="332.52,-309.261 321.988,-310.407 330.937,-316.079 332.52,-309.261"/>
</g>
<!-- leftExpr36\n Classtype = None\n Name = None&#45;&gt;Attribute27\n Classtype = None\n Name = name -->
<g id="edge86" class="edge"><title>leftExpr36\n Classtype = None\n Name = None&#45;&gt;Attribute27\n Classtype = None\n Name = name</title>
<path fill="none" stroke="black" d="M1289.79,-375.741C1277.65,-364.154 1264.28,-351.408 1251.73,-339.43"/>
<polygon fill="black" stroke="black" points="1254.09,-336.851 1244.44,-332.482 1249.26,-341.916 1254.09,-336.851"/>
</g>
<!-- leftExpr37\n Classtype = None\n Name = None&#45;&gt;Attribute12\n Classtype = None\n Name = name -->
<g id="edge88" class="edge"><title>leftExpr37\n Classtype = None\n Name = None&#45;&gt;Attribute12\n Classtype = None\n Name = name</title>
<path fill="none" stroke="black" d="M1274.86,-142.981C1205.68,-122.407 1107.69,-93.2707 1035.95,-71.9369"/>
<polygon fill="black" stroke="black" points="1036.59,-68.4756 1026.01,-68.9801 1034.59,-75.1853 1036.59,-68.4756"/>
</g>
</g>
</svg>
