<?xml version="1.0" encoding="UTF-8" standalone="no"?>
<!DOCTYPE svg PUBLIC "-//W3C//DTD SVG 1.1//EN"
 "http://www.w3.org/Graphics/SVG/1.1/DTD/svg11.dtd">
<!-- Generated by graphviz version 2.26.3 (20100126.1600)
 -->
<!-- Title: HEmptyPathCondition_HF2F_HS2S_HM2M_HSM2SM Pages: 1 -->
<svg width="2544pt" height="1086pt"
 viewBox="0.00 0.00 2544.00 1086.00" xmlns="http://www.w3.org/2000/svg" xmlns:xlink="http://www.w3.org/1999/xlink">
<g id="graph1" class="graph" transform="scale(1 1) rotate(0) translate(4 1082)">
<title>HEmptyPathCondition_HF2F_HS2S_HM2M_HSM2SM</title>
<polygon fill="white" stroke="white" points="-4,5 -4,-1082 2541,-1082 2541,5 -4,5"/>
<!-- rightExpr0\n Classtype = None\n Name = None -->
<g id="node1" class="node"><title>rightExpr0\n Classtype = None\n Name = None</title>
<ellipse fill="lightblue" stroke="black" cx="102" cy="-416" rx="101.823" ry="43.8406"/>
<text text-anchor="middle" x="102" y="-430.4" font-family="Times Roman,serif" font-size="14.00">rightExpr0</text>
<text text-anchor="middle" x="102" y="-412.4" font-family="Times Roman,serif" font-size="14.00"> Classtype = None</text>
<text text-anchor="middle" x="102" y="-394.4" font-family="Times Roman,serif" font-size="14.00"> Name = None</text>
</g>
<!-- Constant12\n Classtype = None\n Name = None -->
<g id="node13" class="node"><title>Constant12\n Classtype = None\n Name = None</title>
<ellipse fill="lightblue" stroke="black" cx="102" cy="-292" rx="101.823" ry="43.8406"/>
<text text-anchor="middle" x="102" y="-306.4" font-family="Times Roman,serif" font-size="14.00">Constant12</text>
<text text-anchor="middle" x="102" y="-288.4" font-family="Times Roman,serif" font-size="14.00"> Classtype = None</text>
<text text-anchor="middle" x="102" y="-270.4" font-family="Times Roman,serif" font-size="14.00"> Name = None</text>
</g>
<!-- rightExpr0\n Classtype = None\n Name = None&#45;&gt;Constant12\n Classtype = None\n Name = None -->
<g id="edge4" class="edge"><title>rightExpr0\n Classtype = None\n Name = None&#45;&gt;Constant12\n Classtype = None\n Name = None</title>
<path fill="none" stroke="black" d="M102,-371.933C102,-363.718 102,-355.043 102,-346.557"/>
<polygon fill="black" stroke="black" points="105.5,-346.343 102,-336.343 98.5001,-346.343 105.5,-346.343"/>
</g>
<!-- hasAttr_S1\n Classtype = None\n Name = None -->
<g id="node2" class="node"><title>hasAttr_S1\n Classtype = None\n Name = None</title>
<ellipse fill="lightblue" stroke="black" cx="546" cy="-416" rx="101.823" ry="43.8406"/>
<text text-anchor="middle" x="546" y="-430.4" font-family="Times Roman,serif" font-size="14.00">hasAttr_S1</text>
<text text-anchor="middle" x="546" y="-412.4" font-family="Times Roman,serif" font-size="14.00"> Classtype = None</text>
<text text-anchor="middle" x="546" y="-394.4" font-family="Times Roman,serif" font-size="14.00"> Name = None</text>
</g>
<!-- Attribute9\n Classtype = None\n Name = name -->
<g id="node10" class="node"><title>Attribute9\n Classtype = None\n Name = name</title>
<ellipse fill="lightblue" stroke="black" cx="435" cy="-292" rx="101.823" ry="43.8406"/>
<text text-anchor="middle" x="435" y="-306.4" font-family="Times Roman,serif" font-size="14.00">Attribute9</text>
<text text-anchor="middle" x="435" y="-288.4" font-family="Times Roman,serif" font-size="14.00"> Classtype = None</text>
<text text-anchor="middle" x="435" y="-270.4" font-family="Times Roman,serif" font-size="14.00"> Name = name</text>
</g>
<!-- hasAttr_S1\n Classtype = None\n Name = None&#45;&gt;Attribute9\n Classtype = None\n Name = name -->
<g id="edge8" class="edge"><title>hasAttr_S1\n Classtype = None\n Name = None&#45;&gt;Attribute9\n Classtype = None\n Name = name</title>
<path fill="none" stroke="black" d="M509.039,-374.71C499.303,-363.834 488.707,-351.997 478.655,-340.768"/>
<polygon fill="black" stroke="black" points="481.078,-338.226 471.8,-333.11 475.862,-342.895 481.078,-338.226"/>
</g>
<!-- ApplyModel2 -->
<g id="node3" class="node"><title>ApplyModel2</title>
<ellipse fill="#fed017" stroke="black" cx="658" cy="-911" rx="73.0388" ry="18.3848"/>
<text text-anchor="middle" x="658" y="-907.4" font-family="Times Roman,serif" font-size="14.00">ApplyModel2</text>
</g>
<!-- apply_contains10 -->
<g id="node11" class="node"><title>apply_contains10</title>
<ellipse fill="#fcdb58" stroke="black" cx="652" cy="-837" rx="96.8736" ry="18.3848"/>
<text text-anchor="middle" x="652" y="-833.4" font-family="Times Roman,serif" font-size="14.00">apply_contains10</text>
</g>
<!-- ApplyModel2&#45;&gt;apply_contains10 -->
<g id="edge12" class="edge"><title>ApplyModel2&#45;&gt;apply_contains10</title>
<path fill="none" stroke="black" d="M656.486,-892.327C655.832,-884.264 655.053,-874.648 654.328,-865.711"/>
<polygon fill="black" stroke="black" points="657.81,-865.352 653.514,-855.667 650.833,-865.918 657.81,-865.352"/>
</g>
<!-- match_contains3 -->
<g id="node4" class="node"><title>match_contains3</title>
<ellipse fill="#f798a1" stroke="black" cx="472" cy="-911" rx="94.7523" ry="18.3848"/>
<text text-anchor="middle" x="472" y="-907.4" font-family="Times Roman,serif" font-size="14.00">match_contains3</text>
</g>
<!-- Female_S6\n Classtype = 1\n Name = s_ -->
<g id="node7" class="node"><title>Female_S6\n Classtype = 1\n Name = s_</title>
<ellipse fill="lightblue" stroke="black" cx="546" cy="-540" rx="82.2301" ry="43.8406"/>
<text text-anchor="middle" x="546" y="-554.4" font-family="Times Roman,serif" font-size="14.00">Female_S6</text>
<text text-anchor="middle" x="546" y="-536.4" font-family="Times Roman,serif" font-size="14.00"> Classtype = 1</text>
<text text-anchor="middle" x="546" y="-518.4" font-family="Times Roman,serif" font-size="14.00"> Name = s_</text>
</g>
<!-- match_contains3&#45;&gt;Female_S6\n Classtype = 1\n Name = s_ -->
<g id="edge16" class="edge"><title>match_contains3&#45;&gt;Female_S6\n Classtype = 1\n Name = s_</title>
<path fill="none" stroke="black" d="M475.401,-892.235C483.842,-845.92 506.614,-722.489 528,-620 529.775,-611.495 531.726,-602.498 533.67,-593.727"/>
<polygon fill="black" stroke="black" points="537.087,-594.482 535.85,-583.96 530.255,-592.957 537.087,-594.482"/>
</g>
<!-- paired_with4 -->
<g id="node5" class="node"><title>paired_with4</title>
<ellipse fill="lightgray" stroke="black" cx="617" cy="-985" rx="75.1594" ry="18.3848"/>
<text text-anchor="middle" x="617" y="-981.4" font-family="Times Roman,serif" font-size="14.00">paired_with4</text>
</g>
<!-- paired_with4&#45;&gt;ApplyModel2 -->
<g id="edge10" class="edge"><title>paired_with4&#45;&gt;ApplyModel2</title>
<path fill="none" stroke="black" d="M627.346,-966.327C632.043,-957.849 637.692,-947.654 642.853,-938.338"/>
<polygon fill="black" stroke="black" points="646.014,-939.854 647.799,-929.411 639.891,-936.462 646.014,-939.854"/>
</g>
<!-- Female_T5\n Classtype = t_\n Name = s_ -->
<g id="node6" class="node"><title>Female_T5\n Classtype = t_\n Name = s_</title>
<ellipse fill="lightblue" stroke="black" cx="616" cy="-738" rx="85.7684" ry="43.8406"/>
<text text-anchor="middle" x="616" y="-752.4" font-family="Times Roman,serif" font-size="14.00">Female_T5</text>
<text text-anchor="middle" x="616" y="-734.4" font-family="Times Roman,serif" font-size="14.00"> Classtype = t_</text>
<text text-anchor="middle" x="616" y="-716.4" font-family="Times Roman,serif" font-size="14.00"> Name = s_</text>
</g>
<!-- trace_link13 -->
<g id="node14" class="node"><title>trace_link13</title>
<ellipse fill="#eedd82" stroke="black" cx="609" cy="-639" rx="72.1249" ry="18.3848"/>
<text text-anchor="middle" x="609" y="-635.4" font-family="Times Roman,serif" font-size="14.00">trace_link13</text>
</g>
<!-- Female_T5\n Classtype = t_\n Name = s_&#45;&gt;trace_link13 -->
<g id="edge28" class="edge"><title>Female_T5\n Classtype = t_\n Name = s_&#45;&gt;trace_link13</title>
<path fill="none" stroke="black" d="M612.889,-694.001C612.259,-685.096 611.613,-675.95 611.032,-667.737"/>
<polygon fill="black" stroke="black" points="614.51,-667.302 610.313,-657.574 607.527,-667.796 614.51,-667.302"/>
</g>
<!-- Female_S6\n Classtype = 1\n Name = s_&#45;&gt;hasAttr_S1\n Classtype = None\n Name = None -->
<g id="edge6" class="edge"><title>Female_S6\n Classtype = 1\n Name = s_&#45;&gt;hasAttr_S1\n Classtype = None\n Name = None</title>
<path fill="none" stroke="black" d="M546,-495.933C546,-487.718 546,-479.043 546,-470.557"/>
<polygon fill="black" stroke="black" points="549.5,-470.343 546,-460.343 542.5,-470.343 549.5,-470.343"/>
</g>
<!-- Equation7\n Classtype = None\n Name = None -->
<g id="node8" class="node"><title>Equation7\n Classtype = None\n Name = None</title>
<ellipse fill="lightblue" stroke="black" cx="213" cy="-540" rx="101.823" ry="43.8406"/>
<text text-anchor="middle" x="213" y="-554.4" font-family="Times Roman,serif" font-size="14.00">Equation7</text>
<text text-anchor="middle" x="213" y="-536.4" font-family="Times Roman,serif" font-size="14.00"> Classtype = None</text>
<text text-anchor="middle" x="213" y="-518.4" font-family="Times Roman,serif" font-size="14.00"> Name = None</text>
</g>
<!-- Equation7\n Classtype = None\n Name = None&#45;&gt;rightExpr0\n Classtype = None\n Name = None -->
<g id="edge2" class="edge"><title>Equation7\n Classtype = None\n Name = None&#45;&gt;rightExpr0\n Classtype = None\n Name = None</title>
<path fill="none" stroke="black" d="M176.039,-498.71C166.303,-487.834 155.707,-475.997 145.655,-464.768"/>
<polygon fill="black" stroke="black" points="148.078,-462.226 138.8,-457.11 142.862,-466.895 148.078,-462.226"/>
</g>
<!-- leftExpr11\n Classtype = None\n Name = None -->
<g id="node12" class="node"><title>leftExpr11\n Classtype = None\n Name = None</title>
<ellipse fill="lightblue" stroke="black" cx="324" cy="-416" rx="101.823" ry="43.8406"/>
<text text-anchor="middle" x="324" y="-430.4" font-family="Times Roman,serif" font-size="14.00">leftExpr11</text>
<text text-anchor="middle" x="324" y="-412.4" font-family="Times Roman,serif" font-size="14.00"> Classtype = None</text>
<text text-anchor="middle" x="324" y="-394.4" font-family="Times Roman,serif" font-size="14.00"> Name = None</text>
</g>
<!-- Equation7\n Classtype = None\n Name = None&#45;&gt;leftExpr11\n Classtype = None\n Name = None -->
<g id="edge22" class="edge"><title>Equation7\n Classtype = None\n Name = None&#45;&gt;leftExpr11\n Classtype = None\n Name = None</title>
<path fill="none" stroke="black" d="M249.961,-498.71C259.697,-487.834 270.293,-475.997 280.345,-464.768"/>
<polygon fill="black" stroke="black" points="283.138,-466.895 287.2,-457.11 277.922,-462.226 283.138,-466.895"/>
</g>
<!-- MatchModel8 -->
<g id="node9" class="node"><title>MatchModel8</title>
<ellipse fill="#e15c34" stroke="black" cx="555" cy="-1059" rx="75.8684" ry="18.3848"/>
<text text-anchor="middle" x="555" y="-1055.4" font-family="Times Roman,serif" font-size="14.00">MatchModel8</text>
</g>
<!-- MatchModel8&#45;&gt;match_contains3 -->
<g id="edge14" class="edge"><title>MatchModel8&#45;&gt;match_contains3</title>
<path fill="none" stroke="black" d="M544.656,-1040.55C530.304,-1014.96 504.237,-968.483 487.54,-938.71"/>
<polygon fill="black" stroke="black" points="490.419,-936.688 482.475,-929.678 484.313,-940.112 490.419,-936.688"/>
</g>
<!-- MatchModel8&#45;&gt;paired_with4 -->
<g id="edge18" class="edge"><title>MatchModel8&#45;&gt;paired_with4</title>
<path fill="none" stroke="black" d="M570.326,-1040.71C577.778,-1031.81 586.87,-1020.96 595.043,-1011.21"/>
<polygon fill="black" stroke="black" points="597.896,-1013.25 601.636,-1003.34 592.531,-1008.76 597.896,-1013.25"/>
</g>
<!-- apply_contains10&#45;&gt;Female_T5\n Classtype = t_\n Name = s_ -->
<g id="edge20" class="edge"><title>apply_contains10&#45;&gt;Female_T5\n Classtype = t_\n Name = s_</title>
<path fill="none" stroke="black" d="M645.229,-818.379C642.358,-810.484 638.852,-800.844 635.279,-791.018"/>
<polygon fill="black" stroke="black" points="638.558,-789.793 631.852,-781.592 631.98,-792.186 638.558,-789.793"/>
</g>
<!-- leftExpr11\n Classtype = None\n Name = None&#45;&gt;Attribute9\n Classtype = None\n Name = name -->
<g id="edge24" class="edge"><title>leftExpr11\n Classtype = None\n Name = None&#45;&gt;Attribute9\n Classtype = None\n Name = name</title>
<path fill="none" stroke="black" d="M360.961,-374.71C370.697,-363.834 381.293,-351.997 391.345,-340.768"/>
<polygon fill="black" stroke="black" points="394.138,-342.895 398.2,-333.11 388.922,-338.226 394.138,-342.895"/>
</g>
<!-- trace_link13&#45;&gt;Female_S6\n Classtype = 1\n Name = s_ -->
<g id="edge26" class="edge"><title>trace_link13&#45;&gt;Female_S6\n Classtype = 1\n Name = s_</title>
<path fill="none" stroke="black" d="M597.15,-620.379C591.694,-611.805 584.928,-601.173 578.123,-590.479"/>
<polygon fill="black" stroke="black" points="581.004,-588.486 572.682,-581.929 575.098,-592.245 581.004,-588.486"/>
</g>
<!-- apply_contains14 -->
<g id="node15" class="node"><title>apply_contains14</title>
<ellipse fill="#fcdb58" stroke="black" cx="1912" cy="-837" rx="96.8736" ry="18.3848"/>
<text text-anchor="middle" x="1912" y="-833.4" font-family="Times Roman,serif" font-size="14.00">apply_contains14</text>
</g>
<!-- Station_T20\n Classtype = t_\n Name = s_ -->
<g id="node21" class="node"><title>Station_T20\n Classtype = t_\n Name = s_</title>
<ellipse fill="lightblue" stroke="black" cx="1897" cy="-738" rx="85.7684" ry="43.8406"/>
<text text-anchor="middle" x="1897" y="-752.4" font-family="Times Roman,serif" font-size="14.00">Station_T20</text>
<text text-anchor="middle" x="1897" y="-734.4" font-family="Times Roman,serif" font-size="14.00"> Classtype = t_</text>
<text text-anchor="middle" x="1897" y="-716.4" font-family="Times Roman,serif" font-size="14.00"> Name = s_</text>
</g>
<!-- apply_contains14&#45;&gt;Station_T20\n Classtype = t_\n Name = s_ -->
<g id="edge32" class="edge"><title>apply_contains14&#45;&gt;Station_T20\n Classtype = t_\n Name = s_</title>
<path fill="none" stroke="black" d="M1909.18,-818.379C1908.02,-810.73 1906.61,-801.443 1905.17,-791.936"/>
<polygon fill="black" stroke="black" points="1908.63,-791.371 1903.67,-782.008 1901.71,-792.42 1908.63,-791.371"/>
</g>
<!-- leftExpr15\n Classtype = None\n Name = None -->
<g id="node16" class="node"><title>leftExpr15\n Classtype = None\n Name = None</title>
<ellipse fill="lightblue" stroke="black" cx="1212" cy="-416" rx="101.823" ry="43.8406"/>
<text text-anchor="middle" x="1212" y="-430.4" font-family="Times Roman,serif" font-size="14.00">leftExpr15</text>
<text text-anchor="middle" x="1212" y="-412.4" font-family="Times Roman,serif" font-size="14.00"> Classtype = None</text>
<text text-anchor="middle" x="1212" y="-394.4" font-family="Times Roman,serif" font-size="14.00"> Name = None</text>
</g>
<!-- Attribute26\n Classtype = None\n Name = name -->
<g id="node27" class="node"><title>Attribute26\n Classtype = None\n Name = name</title>
<ellipse fill="lightblue" stroke="black" cx="1434" cy="-292" rx="101.823" ry="43.8406"/>
<text text-anchor="middle" x="1434" y="-306.4" font-family="Times Roman,serif" font-size="14.00">Attribute26</text>
<text text-anchor="middle" x="1434" y="-288.4" font-family="Times Roman,serif" font-size="14.00"> Classtype = None</text>
<text text-anchor="middle" x="1434" y="-270.4" font-family="Times Roman,serif" font-size="14.00"> Name = name</text>
</g>
<!-- leftExpr15\n Classtype = None\n Name = None&#45;&gt;Attribute26\n Classtype = None\n Name = name -->
<g id="edge36" class="edge"><title>leftExpr15\n Classtype = None\n Name = None&#45;&gt;Attribute26\n Classtype = None\n Name = name</title>
<path fill="none" stroke="black" d="M1274.43,-381.129C1301.74,-365.875 1333.94,-347.891 1362.23,-332.087"/>
<polygon fill="black" stroke="black" points="1364.25,-334.971 1371.27,-327.039 1360.83,-328.86 1364.25,-334.971"/>
</g>
<!-- paired_with16 -->
<g id="node17" class="node"><title>paired_with16</title>
<ellipse fill="lightgray" stroke="black" cx="1936" cy="-985" rx="82.0244" ry="18.3848"/>
<text text-anchor="middle" x="1936" y="-981.4" font-family="Times Roman,serif" font-size="14.00">paired_with16</text>
</g>
<!-- ApplyModel18 -->
<g id="node19" class="node"><title>ApplyModel18</title>
<ellipse fill="#fed017" stroke="black" cx="1931" cy="-911" rx="79.9031" ry="18.3848"/>
<text text-anchor="middle" x="1931" y="-907.4" font-family="Times Roman,serif" font-size="14.00">ApplyModel18</text>
</g>
<!-- paired_with16&#45;&gt;ApplyModel18 -->
<g id="edge40" class="edge"><title>paired_with16&#45;&gt;ApplyModel18</title>
<path fill="none" stroke="black" d="M1934.74,-966.327C1934.19,-958.264 1933.54,-948.648 1932.94,-939.711"/>
<polygon fill="black" stroke="black" points="1936.43,-939.409 1932.26,-929.667 1929.44,-939.881 1936.43,-939.409"/>
</g>
<!-- hasAttr_S17\n Classtype = None\n Name = None -->
<g id="node18" class="node"><title>hasAttr_S17\n Classtype = None\n Name = None</title>
<ellipse fill="lightblue" stroke="black" cx="1656" cy="-416" rx="101.823" ry="43.8406"/>
<text text-anchor="middle" x="1656" y="-430.4" font-family="Times Roman,serif" font-size="14.00">hasAttr_S17</text>
<text text-anchor="middle" x="1656" y="-412.4" font-family="Times Roman,serif" font-size="14.00"> Classtype = None</text>
<text text-anchor="middle" x="1656" y="-394.4" font-family="Times Roman,serif" font-size="14.00"> Name = None</text>
</g>
<!-- hasAttr_S17\n Classtype = None\n Name = None&#45;&gt;Attribute26\n Classtype = None\n Name = name -->
<g id="edge44" class="edge"><title>hasAttr_S17\n Classtype = None\n Name = None&#45;&gt;Attribute26\n Classtype = None\n Name = name</title>
<path fill="none" stroke="black" d="M1593.57,-381.129C1566.26,-365.875 1534.06,-347.891 1505.77,-332.087"/>
<polygon fill="black" stroke="black" points="1507.17,-328.86 1496.73,-327.039 1503.75,-334.971 1507.17,-328.86"/>
</g>
<!-- ApplyModel18&#45;&gt;apply_contains14 -->
<g id="edge30" class="edge"><title>ApplyModel18&#45;&gt;apply_contains14</title>
<path fill="none" stroke="black" d="M1926.21,-892.327C1924.11,-884.176 1921.61,-874.438 1919.3,-865.42"/>
<polygon fill="black" stroke="black" points="1922.67,-864.483 1916.79,-855.667 1915.89,-866.224 1922.67,-864.483"/>
</g>
<!-- Station_S19\n Classtype = 1\n Name = s_ -->
<g id="node20" class="node"><title>Station_S19\n Classtype = 1\n Name = s_</title>
<ellipse fill="lightblue" stroke="black" cx="1823" cy="-540" rx="82.2301" ry="43.8406"/>
<text text-anchor="middle" x="1823" y="-554.4" font-family="Times Roman,serif" font-size="14.00">Station_S19</text>
<text text-anchor="middle" x="1823" y="-536.4" font-family="Times Roman,serif" font-size="14.00"> Classtype = 1</text>
<text text-anchor="middle" x="1823" y="-518.4" font-family="Times Roman,serif" font-size="14.00"> Name = s_</text>
</g>
<!-- Station_S19\n Classtype = 1\n Name = s_&#45;&gt;hasAttr_S17\n Classtype = None\n Name = None -->
<g id="edge42" class="edge"><title>Station_S19\n Classtype = 1\n Name = s_&#45;&gt;hasAttr_S17\n Classtype = None\n Name = None</title>
<path fill="none" stroke="black" d="M1774.7,-504.134C1756.24,-490.428 1734.97,-474.636 1715.58,-460.239"/>
<polygon fill="black" stroke="black" points="1717.51,-457.316 1707.4,-454.164 1713.34,-462.936 1717.51,-457.316"/>
</g>
<!-- indirectLink_S47 -->
<g id="node48" class="node"><title>indirectLink_S47</title>
<ellipse fill="lightgreen" stroke="black" cx="1869" cy="-416" rx="92.839" ry="18.3848"/>
<text text-anchor="middle" x="1869" y="-412.4" font-family="Times Roman,serif" font-size="14.00">indirectLink_S47</text>
</g>
<!-- Station_S19\n Classtype = 1\n Name = s_&#45;&gt;indirectLink_S47 -->
<g id="edge86" class="edge"><title>Station_S19\n Classtype = 1\n Name = s_&#45;&gt;indirectLink_S47</title>
<path fill="none" stroke="black" d="M1839.09,-496.631C1845.55,-479.214 1852.81,-459.636 1858.56,-444.133"/>
<polygon fill="black" stroke="black" points="1861.9,-445.191 1862.1,-434.598 1855.34,-442.756 1861.9,-445.191"/>
</g>
<!-- trace_link27 -->
<g id="node28" class="node"><title>trace_link27</title>
<ellipse fill="#eedd82" stroke="black" cx="1884" cy="-639" rx="72.1249" ry="18.3848"/>
<text text-anchor="middle" x="1884" y="-635.4" font-family="Times Roman,serif" font-size="14.00">trace_link27</text>
</g>
<!-- Station_T20\n Classtype = t_\n Name = s_&#45;&gt;trace_link27 -->
<g id="edge56" class="edge"><title>Station_T20\n Classtype = t_\n Name = s_&#45;&gt;trace_link27</title>
<path fill="none" stroke="black" d="M1891.22,-694.001C1890.05,-685.096 1888.85,-675.95 1887.77,-667.737"/>
<polygon fill="black" stroke="black" points="1891.21,-667.033 1886.44,-657.574 1884.27,-667.945 1891.21,-667.033"/>
</g>
<!-- directLink_T42\n -->
<g id="node43" class="node"><title>directLink_T42\n</title>
<ellipse fill="lightyellow" stroke="black" cx="2102" cy="-639" rx="84.1457" ry="18.3848"/>
<text text-anchor="middle" x="2102" y="-635.4" font-family="Times Roman,serif" font-size="14.00">directLink_T42</text>
</g>
<!-- Station_T20\n Classtype = t_\n Name = s_&#45;&gt;directLink_T42\n -->
<g id="edge90" class="edge"><title>Station_T20\n Classtype = t_\n Name = s_&#45;&gt;directLink_T42\n</title>
<path fill="none" stroke="black" d="M1959.62,-707.759C1991.25,-692.483 2028.89,-674.309 2057.52,-660.483"/>
<polygon fill="black" stroke="black" points="2059.37,-663.472 2066.86,-655.971 2056.33,-657.168 2059.37,-663.472"/>
</g>
<!-- Equation21\n Classtype = None\n Name = None -->
<g id="node22" class="node"><title>Equation21\n Classtype = None\n Name = None</title>
<ellipse fill="lightblue" stroke="black" cx="990" cy="-540" rx="101.823" ry="43.8406"/>
<text text-anchor="middle" x="990" y="-554.4" font-family="Times Roman,serif" font-size="14.00">Equation21</text>
<text text-anchor="middle" x="990" y="-536.4" font-family="Times Roman,serif" font-size="14.00"> Classtype = None</text>
<text text-anchor="middle" x="990" y="-518.4" font-family="Times Roman,serif" font-size="14.00"> Name = None</text>
</g>
<!-- Equation21\n Classtype = None\n Name = None&#45;&gt;leftExpr15\n Classtype = None\n Name = None -->
<g id="edge34" class="edge"><title>Equation21\n Classtype = None\n Name = None&#45;&gt;leftExpr15\n Classtype = None\n Name = None</title>
<path fill="none" stroke="black" d="M1052.43,-505.129C1079.74,-489.875 1111.94,-471.891 1140.23,-456.087"/>
<polygon fill="black" stroke="black" points="1142.25,-458.971 1149.27,-451.039 1138.83,-452.86 1142.25,-458.971"/>
</g>
<!-- rightExpr24\n Classtype = None\n Name = None -->
<g id="node25" class="node"><title>rightExpr24\n Classtype = None\n Name = None</title>
<ellipse fill="lightblue" stroke="black" cx="768" cy="-416" rx="101.823" ry="43.8406"/>
<text text-anchor="middle" x="768" y="-430.4" font-family="Times Roman,serif" font-size="14.00">rightExpr24</text>
<text text-anchor="middle" x="768" y="-412.4" font-family="Times Roman,serif" font-size="14.00"> Classtype = None</text>
<text text-anchor="middle" x="768" y="-394.4" font-family="Times Roman,serif" font-size="14.00"> Name = None</text>
</g>
<!-- Equation21\n Classtype = None\n Name = None&#45;&gt;rightExpr24\n Classtype = None\n Name = None -->
<g id="edge48" class="edge"><title>Equation21\n Classtype = None\n Name = None&#45;&gt;rightExpr24\n Classtype = None\n Name = None</title>
<path fill="none" stroke="black" d="M927.57,-505.129C900.259,-489.875 868.063,-471.891 839.769,-456.087"/>
<polygon fill="black" stroke="black" points="841.168,-452.86 830.731,-451.039 837.754,-458.971 841.168,-452.86"/>
</g>
<!-- match_contains22 -->
<g id="node23" class="node"><title>match_contains22</title>
<ellipse fill="#f798a1" stroke="black" cx="1735" cy="-985" rx="101.116" ry="18.3848"/>
<text text-anchor="middle" x="1735" y="-981.4" font-family="Times Roman,serif" font-size="14.00">match_contains22</text>
</g>
<!-- match_contains22&#45;&gt;Station_S19\n Classtype = 1\n Name = s_ -->
<g id="edge46" class="edge"><title>match_contains22&#45;&gt;Station_S19\n Classtype = 1\n Name = s_</title>
<path fill="none" stroke="black" d="M1743.06,-966.238C1754.21,-938.521 1773,-884.75 1773,-837 1773,-837 1773,-837 1773,-738 1773,-687.666 1788.38,-632.266 1802.08,-592.898"/>
<polygon fill="black" stroke="black" points="1805.46,-593.842 1805.51,-583.247 1798.86,-591.494 1805.46,-593.842"/>
</g>
<!-- Constant23\n Classtype = None\n Name = None -->
<g id="node24" class="node"><title>Constant23\n Classtype = None\n Name = None</title>
<ellipse fill="lightblue" stroke="black" cx="768" cy="-292" rx="101.823" ry="43.8406"/>
<text text-anchor="middle" x="768" y="-306.4" font-family="Times Roman,serif" font-size="14.00">Constant23</text>
<text text-anchor="middle" x="768" y="-288.4" font-family="Times Roman,serif" font-size="14.00"> Classtype = None</text>
<text text-anchor="middle" x="768" y="-270.4" font-family="Times Roman,serif" font-size="14.00"> Name = None</text>
</g>
<!-- rightExpr24\n Classtype = None\n Name = None&#45;&gt;Constant23\n Classtype = None\n Name = None -->
<g id="edge52" class="edge"><title>rightExpr24\n Classtype = None\n Name = None&#45;&gt;Constant23\n Classtype = None\n Name = None</title>
<path fill="none" stroke="black" d="M768,-371.933C768,-363.718 768,-355.043 768,-346.557"/>
<polygon fill="black" stroke="black" points="771.5,-346.343 768,-336.343 764.5,-346.343 771.5,-346.343"/>
</g>
<!-- MatchModel25 -->
<g id="node26" class="node"><title>MatchModel25</title>
<ellipse fill="#e15c34" stroke="black" cx="1835" cy="-1059" rx="82.2301" ry="18.3848"/>
<text text-anchor="middle" x="1835" y="-1055.4" font-family="Times Roman,serif" font-size="14.00">MatchModel25</text>
</g>
<!-- MatchModel25&#45;&gt;paired_with16 -->
<g id="edge38" class="edge"><title>MatchModel25&#45;&gt;paired_with16</title>
<path fill="none" stroke="black" d="M1859.19,-1041.28C1872.46,-1031.55 1889.09,-1019.37 1903.48,-1008.82"/>
<polygon fill="black" stroke="black" points="1905.66,-1011.57 1911.66,-1002.84 1901.52,-1005.92 1905.66,-1011.57"/>
</g>
<!-- MatchModel25&#45;&gt;match_contains22 -->
<g id="edge50" class="edge"><title>MatchModel25&#45;&gt;match_contains22</title>
<path fill="none" stroke="black" d="M1811.05,-1041.28C1798.01,-1031.62 1781.68,-1019.55 1767.51,-1009.06"/>
<polygon fill="black" stroke="black" points="1769.57,-1006.23 1759.45,-1003.09 1765.41,-1011.86 1769.57,-1006.23"/>
</g>
<!-- trace_link27&#45;&gt;Station_S19\n Classtype = 1\n Name = s_ -->
<g id="edge54" class="edge"><title>trace_link27&#45;&gt;Station_S19\n Classtype = 1\n Name = s_</title>
<path fill="none" stroke="black" d="M1872.53,-620.379C1867.24,-611.805 1860.69,-601.173 1854.1,-590.479"/>
<polygon fill="black" stroke="black" points="1857.06,-588.606 1848.83,-581.929 1851.1,-592.279 1857.06,-588.606"/>
</g>
<!-- apply_contains28 -->
<g id="node29" class="node"><title>apply_contains28</title>
<ellipse fill="#fcdb58" stroke="black" cx="2301" cy="-639" rx="96.8736" ry="18.3848"/>
<text text-anchor="middle" x="2301" y="-635.4" font-family="Times Roman,serif" font-size="14.00">apply_contains28</text>
</g>
<!-- Male_T35\n Classtype = t_\n Name = s_ -->
<g id="node36" class="node"><title>Male_T35\n Classtype = t_\n Name = s_</title>
<ellipse fill="lightblue" stroke="black" cx="2104" cy="-540" rx="85.7684" ry="43.8406"/>
<text text-anchor="middle" x="2104" y="-554.4" font-family="Times Roman,serif" font-size="14.00">Male_T35</text>
<text text-anchor="middle" x="2104" y="-536.4" font-family="Times Roman,serif" font-size="14.00"> Classtype = t_</text>
<text text-anchor="middle" x="2104" y="-518.4" font-family="Times Roman,serif" font-size="14.00"> Name = s_</text>
</g>
<!-- apply_contains28&#45;&gt;Male_T35\n Classtype = t_\n Name = s_ -->
<g id="edge60" class="edge"><title>apply_contains28&#45;&gt;Male_T35\n Classtype = t_\n Name = s_</title>
<path fill="none" stroke="black" d="M2266.23,-621.529C2240.9,-608.797 2205.71,-591.111 2174.57,-575.465"/>
<polygon fill="black" stroke="black" points="2175.99,-572.261 2165.48,-570.898 2172.85,-578.516 2175.99,-572.261"/>
</g>
<!-- leftExpr29\n Classtype = None\n Name = None -->
<g id="node30" class="node"><title>leftExpr29\n Classtype = None\n Name = None</title>
<ellipse fill="lightblue" stroke="black" cx="1768" cy="-168" rx="101.823" ry="43.8406"/>
<text text-anchor="middle" x="1768" y="-182.4" font-family="Times Roman,serif" font-size="14.00">leftExpr29</text>
<text text-anchor="middle" x="1768" y="-164.4" font-family="Times Roman,serif" font-size="14.00"> Classtype = None</text>
<text text-anchor="middle" x="1768" y="-146.4" font-family="Times Roman,serif" font-size="14.00"> Name = None</text>
</g>
<!-- Attribute39\n Classtype = None\n Name = name -->
<g id="node40" class="node"><title>Attribute39\n Classtype = None\n Name = name</title>
<ellipse fill="lightblue" stroke="black" cx="1990" cy="-44" rx="101.823" ry="43.8406"/>
<text text-anchor="middle" x="1990" y="-58.4" font-family="Times Roman,serif" font-size="14.00">Attribute39</text>
<text text-anchor="middle" x="1990" y="-40.4" font-family="Times Roman,serif" font-size="14.00"> Classtype = None</text>
<text text-anchor="middle" x="1990" y="-22.4" font-family="Times Roman,serif" font-size="14.00"> Name = name</text>
</g>
<!-- leftExpr29\n Classtype = None\n Name = None&#45;&gt;Attribute39\n Classtype = None\n Name = name -->
<g id="edge64" class="edge"><title>leftExpr29\n Classtype = None\n Name = None&#45;&gt;Attribute39\n Classtype = None\n Name = name</title>
<path fill="none" stroke="black" d="M1830.43,-133.129C1857.74,-117.875 1889.94,-99.8909 1918.23,-84.0871"/>
<polygon fill="black" stroke="black" points="1920.25,-86.971 1927.27,-79.0388 1916.83,-80.8596 1920.25,-86.971"/>
</g>
<!-- paired_with30 -->
<g id="node31" class="node"><title>paired_with30</title>
<ellipse fill="lightgray" stroke="black" cx="2278" cy="-837" rx="82.0244" ry="18.3848"/>
<text text-anchor="middle" x="2278" y="-833.4" font-family="Times Roman,serif" font-size="14.00">paired_with30</text>
</g>
<!-- ApplyModel32 -->
<g id="node33" class="node"><title>ApplyModel32</title>
<ellipse fill="#fed017" stroke="black" cx="2301" cy="-738" rx="79.9031" ry="18.3848"/>
<text text-anchor="middle" x="2301" y="-734.4" font-family="Times Roman,serif" font-size="14.00">ApplyModel32</text>
</g>
<!-- paired_with30&#45;&gt;ApplyModel32 -->
<g id="edge68" class="edge"><title>paired_with30&#45;&gt;ApplyModel32</title>
<path fill="none" stroke="black" d="M2282.33,-818.379C2285.73,-803.721 2290.53,-783.049 2294.42,-766.34"/>
<polygon fill="black" stroke="black" points="2297.84,-767.07 2296.69,-756.538 2291.02,-765.486 2297.84,-767.07"/>
</g>
<!-- hasAttr_S31\n Classtype = None\n Name = None -->
<g id="node32" class="node"><title>hasAttr_S31\n Classtype = None\n Name = None</title>
<ellipse fill="lightblue" stroke="black" cx="1990" cy="-168" rx="101.823" ry="43.8406"/>
<text text-anchor="middle" x="1990" y="-182.4" font-family="Times Roman,serif" font-size="14.00">hasAttr_S31</text>
<text text-anchor="middle" x="1990" y="-164.4" font-family="Times Roman,serif" font-size="14.00"> Classtype = None</text>
<text text-anchor="middle" x="1990" y="-146.4" font-family="Times Roman,serif" font-size="14.00"> Name = None</text>
</g>
<!-- hasAttr_S31\n Classtype = None\n Name = None&#45;&gt;Attribute39\n Classtype = None\n Name = name -->
<g id="edge72" class="edge"><title>hasAttr_S31\n Classtype = None\n Name = None&#45;&gt;Attribute39\n Classtype = None\n Name = name</title>
<path fill="none" stroke="black" d="M1990,-123.933C1990,-115.718 1990,-107.043 1990,-98.5568"/>
<polygon fill="black" stroke="black" points="1993.5,-98.3428 1990,-88.3428 1986.5,-98.3428 1993.5,-98.3428"/>
</g>
<!-- ApplyModel32&#45;&gt;apply_contains28 -->
<g id="edge58" class="edge"><title>ApplyModel32&#45;&gt;apply_contains28</title>
<path fill="none" stroke="black" d="M2301,-719.379C2301,-704.86 2301,-684.439 2301,-667.814"/>
<polygon fill="black" stroke="black" points="2304.5,-667.538 2301,-657.538 2297.5,-667.538 2304.5,-667.538"/>
</g>
<!-- Equation33\n Classtype = None\n Name = None -->
<g id="node34" class="node"><title>Equation33\n Classtype = None\n Name = None</title>
<ellipse fill="lightblue" stroke="black" cx="1712" cy="-292" rx="101.823" ry="43.8406"/>
<text text-anchor="middle" x="1712" y="-306.4" font-family="Times Roman,serif" font-size="14.00">Equation33</text>
<text text-anchor="middle" x="1712" y="-288.4" font-family="Times Roman,serif" font-size="14.00"> Classtype = None</text>
<text text-anchor="middle" x="1712" y="-270.4" font-family="Times Roman,serif" font-size="14.00"> Name = None</text>
</g>
<!-- Equation33\n Classtype = None\n Name = None&#45;&gt;leftExpr29\n Classtype = None\n Name = None -->
<g id="edge62" class="edge"><title>Equation33\n Classtype = None\n Name = None&#45;&gt;leftExpr29\n Classtype = None\n Name = None</title>
<path fill="none" stroke="black" d="M1731.59,-248.631C1735.65,-239.621 1739.98,-230.034 1744.19,-220.73"/>
<polygon fill="black" stroke="black" points="1747.4,-222.109 1748.33,-211.554 1741.02,-219.227 1747.4,-222.109"/>
</g>
<!-- rightExpr37\n Classtype = None\n Name = None -->
<g id="node38" class="node"><title>rightExpr37\n Classtype = None\n Name = None</title>
<ellipse fill="lightblue" stroke="black" cx="1546" cy="-168" rx="101.823" ry="43.8406"/>
<text text-anchor="middle" x="1546" y="-182.4" font-family="Times Roman,serif" font-size="14.00">rightExpr37</text>
<text text-anchor="middle" x="1546" y="-164.4" font-family="Times Roman,serif" font-size="14.00"> Classtype = None</text>
<text text-anchor="middle" x="1546" y="-146.4" font-family="Times Roman,serif" font-size="14.00"> Name = None</text>
</g>
<!-- Equation33\n Classtype = None\n Name = None&#45;&gt;rightExpr37\n Classtype = None\n Name = None -->
<g id="edge74" class="edge"><title>Equation33\n Classtype = None\n Name = None&#45;&gt;rightExpr37\n Classtype = None\n Name = None</title>
<path fill="none" stroke="black" d="M1660.84,-253.784C1643.33,-240.702 1623.58,-225.954 1605.47,-212.424"/>
<polygon fill="black" stroke="black" points="1607.38,-209.484 1597.28,-206.303 1603.19,-215.092 1607.38,-209.484"/>
</g>
<!-- match_contains34 -->
<g id="node35" class="node"><title>match_contains34</title>
<ellipse fill="#f798a1" stroke="black" cx="2102" cy="-738" rx="101.116" ry="18.3848"/>
<text text-anchor="middle" x="2102" y="-734.4" font-family="Times Roman,serif" font-size="14.00">match_contains34</text>
</g>
<!-- Male_S40\n Classtype = 1\n Name = s_ -->
<g id="node41" class="node"><title>Male_S40\n Classtype = 1\n Name = s_</title>
<ellipse fill="lightblue" stroke="black" cx="1990" cy="-292" rx="82.2301" ry="43.8406"/>
<text text-anchor="middle" x="1990" y="-306.4" font-family="Times Roman,serif" font-size="14.00">Male_S40</text>
<text text-anchor="middle" x="1990" y="-288.4" font-family="Times Roman,serif" font-size="14.00"> Classtype = 1</text>
<text text-anchor="middle" x="1990" y="-270.4" font-family="Times Roman,serif" font-size="14.00"> Name = s_</text>
</g>
<!-- match_contains34&#45;&gt;Male_S40\n Classtype = 1\n Name = s_ -->
<g id="edge78" class="edge"><title>match_contains34&#45;&gt;Male_S40\n Classtype = 1\n Name = s_</title>
<path fill="none" stroke="black" d="M2070.57,-720.394C2049.1,-706.49 2022.23,-684.959 2009,-658 1959.35,-556.798 1969.32,-420.378 1980.17,-345.955"/>
<polygon fill="black" stroke="black" points="1983.66,-346.288 1981.7,-335.876 1976.74,-345.237 1983.66,-346.288"/>
</g>
<!-- trace_link41 -->
<g id="node42" class="node"><title>trace_link41</title>
<ellipse fill="#eedd82" stroke="black" cx="2097" cy="-416" rx="72.1249" ry="18.3848"/>
<text text-anchor="middle" x="2097" y="-412.4" font-family="Times Roman,serif" font-size="14.00">trace_link41</text>
</g>
<!-- Male_T35\n Classtype = t_\n Name = s_&#45;&gt;trace_link41 -->
<g id="edge84" class="edge"><title>Male_T35\n Classtype = t_\n Name = s_&#45;&gt;trace_link41</title>
<path fill="none" stroke="black" d="M2101.51,-495.933C2100.56,-479.016 2099.49,-460.151 2098.64,-444.997"/>
<polygon fill="black" stroke="black" points="2102.11,-444.487 2098.06,-434.7 2095.12,-444.882 2102.11,-444.487"/>
</g>
<!-- Constant36\n Classtype = None\n Name = None -->
<g id="node37" class="node"><title>Constant36\n Classtype = None\n Name = None</title>
<ellipse fill="lightblue" stroke="black" cx="1546" cy="-44" rx="101.823" ry="43.8406"/>
<text text-anchor="middle" x="1546" y="-58.4" font-family="Times Roman,serif" font-size="14.00">Constant36</text>
<text text-anchor="middle" x="1546" y="-40.4" font-family="Times Roman,serif" font-size="14.00"> Classtype = None</text>
<text text-anchor="middle" x="1546" y="-22.4" font-family="Times Roman,serif" font-size="14.00"> Name = None</text>
</g>
<!-- rightExpr37\n Classtype = None\n Name = None&#45;&gt;Constant36\n Classtype = None\n Name = None -->
<g id="edge80" class="edge"><title>rightExpr37\n Classtype = None\n Name = None&#45;&gt;Constant36\n Classtype = None\n Name = None</title>
<path fill="none" stroke="black" d="M1546,-123.933C1546,-115.718 1546,-107.043 1546,-98.5568"/>
<polygon fill="black" stroke="black" points="1549.5,-98.3428 1546,-88.3428 1542.5,-98.3428 1549.5,-98.3428"/>
</g>
<!-- MatchModel38 -->
<g id="node39" class="node"><title>MatchModel38</title>
<ellipse fill="#e15c34" stroke="black" cx="2179" cy="-911" rx="82.2301" ry="18.3848"/>
<text text-anchor="middle" x="2179" y="-907.4" font-family="Times Roman,serif" font-size="14.00">MatchModel38</text>
</g>
<!-- MatchModel38&#45;&gt;paired_with30 -->
<g id="edge66" class="edge"><title>MatchModel38&#45;&gt;paired_with30</title>
<path fill="none" stroke="black" d="M2202.71,-893.275C2215.72,-883.553 2232.02,-871.367 2246.13,-860.824"/>
<polygon fill="black" stroke="black" points="2248.22,-863.627 2254.14,-854.837 2244.03,-858.02 2248.22,-863.627"/>
</g>
<!-- MatchModel38&#45;&gt;match_contains34 -->
<g id="edge76" class="edge"><title>MatchModel38&#45;&gt;match_contains34</title>
<path fill="none" stroke="black" d="M2170.76,-892.486C2157.25,-862.13 2130.31,-801.595 2114.45,-765.981"/>
<polygon fill="black" stroke="black" points="2117.56,-764.355 2110.3,-756.642 2111.17,-767.202 2117.56,-764.355"/>
</g>
<!-- Male_S40\n Classtype = 1\n Name = s_&#45;&gt;hasAttr_S31\n Classtype = None\n Name = None -->
<g id="edge70" class="edge"><title>Male_S40\n Classtype = 1\n Name = s_&#45;&gt;hasAttr_S31\n Classtype = None\n Name = None</title>
<path fill="none" stroke="black" d="M1990,-247.933C1990,-239.718 1990,-231.043 1990,-222.557"/>
<polygon fill="black" stroke="black" points="1993.5,-222.343 1990,-212.343 1986.5,-222.343 1993.5,-222.343"/>
</g>
<!-- trace_link41&#45;&gt;Male_S40\n Classtype = 1\n Name = s_ -->
<g id="edge82" class="edge"><title>trace_link41&#45;&gt;Male_S40\n Classtype = 1\n Name = s_</title>
<path fill="none" stroke="black" d="M2081.21,-397.703C2068.07,-382.47 2048.74,-360.076 2031.26,-339.817"/>
<polygon fill="black" stroke="black" points="2033.85,-337.461 2024.67,-332.176 2028.55,-342.034 2033.85,-337.461"/>
</g>
<!-- directLink_T42\n&#45;&gt;Male_T35\n Classtype = t_\n Name = s_ -->
<g id="edge92" class="edge"><title>directLink_T42\n&#45;&gt;Male_T35\n Classtype = t_\n Name = s_</title>
<path fill="none" stroke="black" d="M2102.38,-620.379C2102.53,-612.81 2102.71,-603.638 2102.9,-594.236"/>
<polygon fill="black" stroke="black" points="2106.41,-594.077 2103.11,-584.008 2099.41,-593.936 2106.41,-594.077"/>
</g>
<!-- rightExpr43\n Classtype = None\n Name = None -->
<g id="node44" class="node"><title>rightExpr43\n Classtype = None\n Name = None</title>
<ellipse fill="lightblue" stroke="black" cx="990" cy="-416" rx="101.823" ry="43.8406"/>
<text text-anchor="middle" x="990" y="-430.4" font-family="Times Roman,serif" font-size="14.00">rightExpr43</text>
<text text-anchor="middle" x="990" y="-412.4" font-family="Times Roman,serif" font-size="14.00"> Classtype = None</text>
<text text-anchor="middle" x="990" y="-394.4" font-family="Times Roman,serif" font-size="14.00"> Name = None</text>
</g>
<!-- Constant50\n Classtype = None\n Name = None -->
<g id="node51" class="node"><title>Constant50\n Classtype = None\n Name = None</title>
<ellipse fill="lightblue" stroke="black" cx="990" cy="-292" rx="101.823" ry="43.8406"/>
<text text-anchor="middle" x="990" y="-306.4" font-family="Times Roman,serif" font-size="14.00">Constant50</text>
<text text-anchor="middle" x="990" y="-288.4" font-family="Times Roman,serif" font-size="14.00"> Classtype = None</text>
<text text-anchor="middle" x="990" y="-270.4" font-family="Times Roman,serif" font-size="14.00"> Name = None</text>
</g>
<!-- rightExpr43\n Classtype = None\n Name = None&#45;&gt;Constant50\n Classtype = None\n Name = None -->
<g id="edge98" class="edge"><title>rightExpr43\n Classtype = None\n Name = None&#45;&gt;Constant50\n Classtype = None\n Name = None</title>
<path fill="none" stroke="black" d="M990,-371.933C990,-363.718 990,-355.043 990,-346.557"/>
<polygon fill="black" stroke="black" points="993.5,-346.343 990,-336.343 986.5,-346.343 993.5,-346.343"/>
</g>
<!-- rightExpr44\n Classtype = None\n Name = None -->
<g id="node45" class="node"><title>rightExpr44\n Classtype = None\n Name = None</title>
<ellipse fill="lightblue" stroke="black" cx="2434" cy="-168" rx="101.823" ry="43.8406"/>
<text text-anchor="middle" x="2434" y="-182.4" font-family="Times Roman,serif" font-size="14.00">rightExpr44</text>
<text text-anchor="middle" x="2434" y="-164.4" font-family="Times Roman,serif" font-size="14.00"> Classtype = None</text>
<text text-anchor="middle" x="2434" y="-146.4" font-family="Times Roman,serif" font-size="14.00"> Name = None</text>
</g>
<!-- Constant51\n Classtype = None\n Name = None -->
<g id="node52" class="node"><title>Constant51\n Classtype = None\n Name = None</title>
<ellipse fill="lightblue" stroke="black" cx="2434" cy="-44" rx="101.823" ry="43.8406"/>
<text text-anchor="middle" x="2434" y="-58.4" font-family="Times Roman,serif" font-size="14.00">Constant51</text>
<text text-anchor="middle" x="2434" y="-40.4" font-family="Times Roman,serif" font-size="14.00"> Classtype = None</text>
<text text-anchor="middle" x="2434" y="-22.4" font-family="Times Roman,serif" font-size="14.00"> Name = None</text>
</g>
<!-- rightExpr44\n Classtype = None\n Name = None&#45;&gt;Constant51\n Classtype = None\n Name = None -->
<g id="edge104" class="edge"><title>rightExpr44\n Classtype = None\n Name = None&#45;&gt;Constant51\n Classtype = None\n Name = None</title>
<path fill="none" stroke="black" d="M2434,-123.933C2434,-115.718 2434,-107.043 2434,-98.5568"/>
<polygon fill="black" stroke="black" points="2437.5,-98.3428 2434,-88.3428 2430.5,-98.3428 2437.5,-98.3428"/>
</g>
<!-- Equation45\n Classtype = None\n Name = None -->
<g id="node46" class="node"><title>Equation45\n Classtype = None\n Name = None</title>
<ellipse fill="lightblue" stroke="black" cx="1212" cy="-540" rx="101.823" ry="43.8406"/>
<text text-anchor="middle" x="1212" y="-554.4" font-family="Times Roman,serif" font-size="14.00">Equation45</text>
<text text-anchor="middle" x="1212" y="-536.4" font-family="Times Roman,serif" font-size="14.00"> Classtype = None</text>
<text text-anchor="middle" x="1212" y="-518.4" font-family="Times Roman,serif" font-size="14.00"> Name = None</text>
</g>
<!-- Equation45\n Classtype = None\n Name = None&#45;&gt;rightExpr43\n Classtype = None\n Name = None -->
<g id="edge94" class="edge"><title>Equation45\n Classtype = None\n Name = None&#45;&gt;rightExpr43\n Classtype = None\n Name = None</title>
<path fill="none" stroke="black" d="M1149.57,-505.129C1122.26,-489.875 1090.06,-471.891 1061.77,-456.087"/>
<polygon fill="black" stroke="black" points="1063.17,-452.86 1052.73,-451.039 1059.75,-458.971 1063.17,-452.86"/>
</g>
<!-- leftExpr48\n Classtype = None\n Name = None -->
<g id="node49" class="node"><title>leftExpr48\n Classtype = None\n Name = None</title>
<ellipse fill="lightblue" stroke="black" cx="1434" cy="-416" rx="101.823" ry="43.8406"/>
<text text-anchor="middle" x="1434" y="-430.4" font-family="Times Roman,serif" font-size="14.00">leftExpr48</text>
<text text-anchor="middle" x="1434" y="-412.4" font-family="Times Roman,serif" font-size="14.00"> Classtype = None</text>
<text text-anchor="middle" x="1434" y="-394.4" font-family="Times Roman,serif" font-size="14.00"> Name = None</text>
</g>
<!-- Equation45\n Classtype = None\n Name = None&#45;&gt;leftExpr48\n Classtype = None\n Name = None -->
<g id="edge96" class="edge"><title>Equation45\n Classtype = None\n Name = None&#45;&gt;leftExpr48\n Classtype = None\n Name = None</title>
<path fill="none" stroke="black" d="M1274.43,-505.129C1301.74,-489.875 1333.94,-471.891 1362.23,-456.087"/>
<polygon fill="black" stroke="black" points="1364.25,-458.971 1371.27,-451.039 1360.83,-452.86 1364.25,-458.971"/>
</g>
<!-- Equation46\n Classtype = None\n Name = None -->
<g id="node47" class="node"><title>Equation46\n Classtype = None\n Name = None</title>
<ellipse fill="lightblue" stroke="black" cx="2323" cy="-292" rx="101.823" ry="43.8406"/>
<text text-anchor="middle" x="2323" y="-306.4" font-family="Times Roman,serif" font-size="14.00">Equation46</text>
<text text-anchor="middle" x="2323" y="-288.4" font-family="Times Roman,serif" font-size="14.00"> Classtype = None</text>
<text text-anchor="middle" x="2323" y="-270.4" font-family="Times Roman,serif" font-size="14.00"> Name = None</text>
</g>
<!-- Equation46\n Classtype = None\n Name = None&#45;&gt;rightExpr44\n Classtype = None\n Name = None -->
<g id="edge100" class="edge"><title>Equation46\n Classtype = None\n Name = None&#45;&gt;rightExpr44\n Classtype = None\n Name = None</title>
<path fill="none" stroke="black" d="M2359.96,-250.71C2369.7,-239.834 2380.29,-227.997 2390.35,-216.768"/>
<polygon fill="black" stroke="black" points="2393.14,-218.895 2397.2,-209.11 2387.92,-214.226 2393.14,-218.895"/>
</g>
<!-- leftExpr49\n Classtype = None\n Name = None -->
<g id="node50" class="node"><title>leftExpr49\n Classtype = None\n Name = None</title>
<ellipse fill="lightblue" stroke="black" cx="2212" cy="-168" rx="101.823" ry="43.8406"/>
<text text-anchor="middle" x="2212" y="-182.4" font-family="Times Roman,serif" font-size="14.00">leftExpr49</text>
<text text-anchor="middle" x="2212" y="-164.4" font-family="Times Roman,serif" font-size="14.00"> Classtype = None</text>
<text text-anchor="middle" x="2212" y="-146.4" font-family="Times Roman,serif" font-size="14.00"> Name = None</text>
</g>
<!-- Equation46\n Classtype = None\n Name = None&#45;&gt;leftExpr49\n Classtype = None\n Name = None -->
<g id="edge102" class="edge"><title>Equation46\n Classtype = None\n Name = None&#45;&gt;leftExpr49\n Classtype = None\n Name = None</title>
<path fill="none" stroke="black" d="M2286.04,-250.71C2276.3,-239.834 2265.71,-227.997 2255.65,-216.768"/>
<polygon fill="black" stroke="black" points="2258.08,-214.226 2248.8,-209.11 2252.86,-218.895 2258.08,-214.226"/>
</g>
<!-- indirectLink_S47&#45;&gt;Male_S40\n Classtype = 1\n Name = s_ -->
<g id="edge88" class="edge"><title>indirectLink_S47&#45;&gt;Male_S40\n Classtype = 1\n Name = s_</title>
<path fill="none" stroke="black" d="M1886.85,-397.703C1902.08,-382.095 1924.65,-358.969 1944.8,-338.324"/>
<polygon fill="black" stroke="black" points="1947.33,-340.743 1951.81,-331.141 1942.32,-335.854 1947.33,-340.743"/>
</g>
<!-- leftExpr48\n Classtype = None\n Name = None&#45;&gt;Attribute26\n Classtype = None\n Name = name -->
<g id="edge106" class="edge"><title>leftExpr48\n Classtype = None\n Name = None&#45;&gt;Attribute26\n Classtype = None\n Name = name</title>
<path fill="none" stroke="black" d="M1434,-371.933C1434,-363.718 1434,-355.043 1434,-346.557"/>
<polygon fill="black" stroke="black" points="1437.5,-346.343 1434,-336.343 1430.5,-346.343 1437.5,-346.343"/>
</g>
<!-- leftExpr49\n Classtype = None\n Name = None&#45;&gt;Attribute39\n Classtype = None\n Name = name -->
<g id="edge108" class="edge"><title>leftExpr49\n Classtype = None\n Name = None&#45;&gt;Attribute39\n Classtype = None\n Name = name</title>
<path fill="none" stroke="black" d="M2149.57,-133.129C2122.26,-117.875 2090.06,-99.8909 2061.77,-84.0871"/>
<polygon fill="black" stroke="black" points="2063.17,-80.8596 2052.73,-79.0388 2059.75,-86.971 2063.17,-80.8596"/>
</g>
</g>
</svg>
