<?xml version="1.0" encoding="UTF-8" standalone="no"?>
<!DOCTYPE svg PUBLIC "-//W3C//DTD SVG 1.1//EN"
 "http://www.w3.org/Graphics/SVG/1.1/DTD/svg11.dtd">
<!-- Generated by graphviz version 2.26.3 (20100126.1600)
 -->
<!-- Title: HEmptyPathCondition_HS2S_run1_HM2M_run1_HF2F_run1_HSM2SM_run1_HSF2SF_run1 Pages: 1 -->
<svg width="1278pt" height="788pt"
 viewBox="0.00 0.00 1278.00 788.00" xmlns="http://www.w3.org/2000/svg" xmlns:xlink="http://www.w3.org/1999/xlink">
<g id="graph1" class="graph" transform="scale(1 1) rotate(0) translate(4 784)">
<title>HEmptyPathCondition_HS2S_run1_HM2M_run1_HF2F_run1_HSM2SM_run1_HSF2SF_run1</title>
<polygon fill="white" stroke="white" points="-4,5 -4,-784 1275,-784 1275,5 -4,5"/>
<!-- apply_contains0 -->
<g id="node1" class="node"><title>apply_contains0</title>
<ellipse fill="#fcdb58" stroke="black" cx="648" cy="-539" rx="90.0096" ry="18.3848"/>
<text text-anchor="middle" x="648" y="-535.4" font-family="Times Roman,serif" font-size="14.00">apply_contains0</text>
</g>
<!-- Station_T4\n Classtype = station1\n Name = 1.s -->
<g id="node5" class="node"><title>Station_T4\n Classtype = station1\n Name = 1.s</title>
<ellipse fill="lightblue" stroke="black" cx="671" cy="-440" rx="116.172" ry="43.8406"/>
<text text-anchor="middle" x="671" y="-454.4" font-family="Times Roman,serif" font-size="14.00">Station_T4</text>
<text text-anchor="middle" x="671" y="-436.4" font-family="Times Roman,serif" font-size="14.00"> Classtype = station1</text>
<text text-anchor="middle" x="671" y="-418.4" font-family="Times Roman,serif" font-size="14.00"> Name = 1.s</text>
</g>
<!-- apply_contains0&#45;&gt;Station_T4\n Classtype = station1\n Name = 1.s -->
<g id="edge4" class="edge"><title>apply_contains0&#45;&gt;Station_T4\n Classtype = station1\n Name = 1.s</title>
<path fill="none" stroke="black" d="M652.326,-520.379C654.103,-512.73 656.261,-503.443 658.469,-493.936"/>
<polygon fill="black" stroke="black" points="661.922,-494.541 660.776,-484.008 655.104,-492.957 661.922,-494.541"/>
</g>
<!-- ApplyModel1 -->
<g id="node2" class="node"><title>ApplyModel1</title>
<ellipse fill="#fed017" stroke="black" cx="602" cy="-613" rx="73.0388" ry="18.3848"/>
<text text-anchor="middle" x="602" y="-609.4" font-family="Times Roman,serif" font-size="14.00">ApplyModel1</text>
</g>
<!-- ApplyModel1&#45;&gt;apply_contains0 -->
<g id="edge2" class="edge"><title>ApplyModel1&#45;&gt;apply_contains0</title>
<path fill="none" stroke="black" d="M613.371,-594.708C618.694,-586.145 625.144,-575.769 631.028,-566.303"/>
<polygon fill="black" stroke="black" points="634.134,-567.936 636.441,-557.596 628.189,-564.241 634.134,-567.936"/>
</g>
<!-- MatchModel2 -->
<g id="node3" class="node"><title>MatchModel2</title>
<ellipse fill="#e15c34" stroke="black" cx="502" cy="-761" rx="75.8684" ry="18.3848"/>
<text text-anchor="middle" x="502" y="-757.4" font-family="Times Roman,serif" font-size="14.00">MatchModel2</text>
</g>
<!-- match_contains3 -->
<g id="node4" class="node"><title>match_contains3</title>
<ellipse fill="#f798a1" stroke="black" cx="405" cy="-687" rx="94.7523" ry="18.3848"/>
<text text-anchor="middle" x="405" y="-683.4" font-family="Times Roman,serif" font-size="14.00">match_contains3</text>
</g>
<!-- MatchModel2&#45;&gt;match_contains3 -->
<g id="edge10" class="edge"><title>MatchModel2&#45;&gt;match_contains3</title>
<path fill="none" stroke="black" d="M478.519,-743.087C465.982,-733.523 450.374,-721.615 436.768,-711.236"/>
<polygon fill="black" stroke="black" points="438.674,-708.288 428.601,-705.005 434.429,-713.853 438.674,-708.288"/>
</g>
<!-- paired_with6 -->
<g id="node7" class="node"><title>paired_with6</title>
<ellipse fill="lightgray" stroke="black" cx="599" cy="-687" rx="75.1594" ry="18.3848"/>
<text text-anchor="middle" x="599" y="-683.4" font-family="Times Roman,serif" font-size="14.00">paired_with6</text>
</g>
<!-- MatchModel2&#45;&gt;paired_with6 -->
<g id="edge8" class="edge"><title>MatchModel2&#45;&gt;paired_with6</title>
<path fill="none" stroke="black" d="M525.481,-743.087C538.111,-733.452 553.857,-721.439 567.534,-711.005"/>
<polygon fill="black" stroke="black" points="569.908,-713.596 575.735,-704.748 565.662,-708.031 569.908,-713.596"/>
</g>
<!-- Station_S5\n Classtype = station1\n Name = 1.s -->
<g id="node6" class="node"><title>Station_S5\n Classtype = station1\n Name = 1.s</title>
<ellipse fill="lightblue" stroke="black" cx="607" cy="-242" rx="116.172" ry="43.8406"/>
<text text-anchor="middle" x="607" y="-256.4" font-family="Times Roman,serif" font-size="14.00">Station_S5</text>
<text text-anchor="middle" x="607" y="-238.4" font-family="Times Roman,serif" font-size="14.00"> Classtype = station1</text>
<text text-anchor="middle" x="607" y="-220.4" font-family="Times Roman,serif" font-size="14.00"> Name = 1.s</text>
</g>
<!-- match_contains3&#45;&gt;Station_S5\n Classtype = station1\n Name = 1.s -->
<g id="edge12" class="edge"><title>match_contains3&#45;&gt;Station_S5\n Classtype = station1\n Name = 1.s</title>
<path fill="none" stroke="black" d="M404.378,-668.312C403.5,-640.24 402,-585.516 402,-539 402,-539 402,-539 402,-440 402,-386.88 388.342,-363.895 421,-322 440.306,-297.234 468.787,-280.011 497.689,-268.082"/>
<polygon fill="black" stroke="black" points="499.05,-271.308 507.076,-264.392 496.489,-264.793 499.05,-271.308"/>
</g>
<!-- trace_link7 -->
<g id="node8" class="node"><title>trace_link7</title>
<ellipse fill="#eedd82" stroke="black" cx="682" cy="-341" rx="65.7609" ry="18.3848"/>
<text text-anchor="middle" x="682" y="-337.4" font-family="Times Roman,serif" font-size="14.00">trace_link7</text>
</g>
<!-- Station_T4\n Classtype = station1\n Name = 1.s&#45;&gt;trace_link7 -->
<g id="edge16" class="edge"><title>Station_T4\n Classtype = station1\n Name = 1.s&#45;&gt;trace_link7</title>
<path fill="none" stroke="black" d="M675.889,-396.001C676.878,-387.096 677.894,-377.95 678.807,-369.737"/>
<polygon fill="black" stroke="black" points="682.31,-369.899 679.936,-359.574 675.353,-369.126 682.31,-369.899"/>
</g>
<!-- directLink_T24\n -->
<g id="node25" class="node"><title>directLink_T24\n</title>
<ellipse fill="lightyellow" stroke="black" cx="514" cy="-341" rx="84.1457" ry="18.3848"/>
<text text-anchor="middle" x="514" y="-337.4" font-family="Times Roman,serif" font-size="14.00">directLink_T24</text>
</g>
<!-- Station_T4\n Classtype = station1\n Name = 1.s&#45;&gt;directLink_T24\n -->
<g id="edge50" class="edge"><title>Station_T4\n Classtype = station1\n Name = 1.s&#45;&gt;directLink_T24\n</title>
<path fill="none" stroke="black" d="M611.197,-402.29C590.792,-389.423 568.598,-375.428 550.576,-364.064"/>
<polygon fill="black" stroke="black" points="552.415,-361.086 542.09,-358.713 548.682,-367.007 552.415,-361.086"/>
</g>
<!-- directLink_T26\n -->
<g id="node27" class="node"><title>directLink_T26\n</title>
<ellipse fill="lightyellow" stroke="black" cx="850" cy="-341" rx="84.1457" ry="18.3848"/>
<text text-anchor="middle" x="850" y="-337.4" font-family="Times Roman,serif" font-size="14.00">directLink_T26</text>
</g>
<!-- Station_T4\n Classtype = station1\n Name = 1.s&#45;&gt;directLink_T26\n -->
<g id="edge58" class="edge"><title>Station_T4\n Classtype = station1\n Name = 1.s&#45;&gt;directLink_T26\n</title>
<path fill="none" stroke="black" d="M736.637,-403.698C761.082,-390.178 788.09,-375.241 809.611,-363.338"/>
<polygon fill="black" stroke="black" points="811.418,-366.338 818.475,-358.436 808.03,-360.213 811.418,-366.338"/>
</g>
<!-- indirectLink_S25 -->
<g id="node26" class="node"><title>indirectLink_S25</title>
<ellipse fill="lightgreen" stroke="black" cx="494" cy="-143" rx="92.839" ry="18.3848"/>
<text text-anchor="middle" x="494" y="-139.4" font-family="Times Roman,serif" font-size="14.00">indirectLink_S25</text>
</g>
<!-- Station_S5\n Classtype = station1\n Name = 1.s&#45;&gt;indirectLink_S25 -->
<g id="edge54" class="edge"><title>Station_S5\n Classtype = station1\n Name = 1.s&#45;&gt;indirectLink_S25</title>
<path fill="none" stroke="black" d="M560.713,-201.447C547.738,-190.08 534.02,-178.062 522.419,-167.898"/>
<polygon fill="black" stroke="black" points="524.59,-165.147 514.762,-161.19 519.977,-170.412 524.59,-165.147"/>
</g>
<!-- indirectLink_S27 -->
<g id="node28" class="node"><title>indirectLink_S27</title>
<ellipse fill="lightgreen" stroke="black" cx="708" cy="-143" rx="92.839" ry="18.3848"/>
<text text-anchor="middle" x="708" y="-139.4" font-family="Times Roman,serif" font-size="14.00">indirectLink_S27</text>
</g>
<!-- Station_S5\n Classtype = station1\n Name = 1.s&#45;&gt;indirectLink_S27 -->
<g id="edge64" class="edge"><title>Station_S5\n Classtype = station1\n Name = 1.s&#45;&gt;indirectLink_S27</title>
<path fill="none" stroke="black" d="M648.956,-200.875C660.185,-189.868 671.995,-178.292 682.076,-168.41"/>
<polygon fill="black" stroke="black" points="684.719,-170.721 689.411,-161.221 679.819,-165.722 684.719,-170.721"/>
</g>
<!-- paired_with6&#45;&gt;ApplyModel1 -->
<g id="edge6" class="edge"><title>paired_with6&#45;&gt;ApplyModel1</title>
<path fill="none" stroke="black" d="M599.757,-668.327C600.084,-660.264 600.474,-650.648 600.836,-641.711"/>
<polygon fill="black" stroke="black" points="604.335,-641.801 601.243,-631.667 597.341,-641.517 604.335,-641.801"/>
</g>
<!-- trace_link7&#45;&gt;Station_S5\n Classtype = station1\n Name = 1.s -->
<g id="edge14" class="edge"><title>trace_link7&#45;&gt;Station_S5\n Classtype = station1\n Name = 1.s</title>
<path fill="none" stroke="black" d="M668.244,-322.842C661.774,-314.301 653.701,-303.646 645.562,-292.902"/>
<polygon fill="black" stroke="black" points="648.179,-290.561 639.351,-284.703 642.6,-294.788 648.179,-290.561"/>
</g>
<!-- apply_contains8 -->
<g id="node9" class="node"><title>apply_contains8</title>
<ellipse fill="#fcdb58" stroke="black" cx="284" cy="-341" rx="90.0096" ry="18.3848"/>
<text text-anchor="middle" x="284" y="-337.4" font-family="Times Roman,serif" font-size="14.00">apply_contains8</text>
</g>
<!-- Male_T13\n Classtype = male1\n Name = 3.m -->
<g id="node14" class="node"><title>Male_T13\n Classtype = male1\n Name = 3.m</title>
<ellipse fill="lightblue" stroke="black" cx="292" cy="-242" rx="106.066" ry="43.8406"/>
<text text-anchor="middle" x="292" y="-256.4" font-family="Times Roman,serif" font-size="14.00">Male_T13</text>
<text text-anchor="middle" x="292" y="-238.4" font-family="Times Roman,serif" font-size="14.00"> Classtype = male1</text>
<text text-anchor="middle" x="292" y="-220.4" font-family="Times Roman,serif" font-size="14.00"> Name = 3.m</text>
</g>
<!-- apply_contains8&#45;&gt;Male_T13\n Classtype = male1\n Name = 3.m -->
<g id="edge20" class="edge"><title>apply_contains8&#45;&gt;Male_T13\n Classtype = male1\n Name = 3.m</title>
<path fill="none" stroke="black" d="M285.505,-322.379C286.116,-314.81 286.858,-305.638 287.617,-296.236"/>
<polygon fill="black" stroke="black" points="291.127,-296.258 288.444,-286.008 284.15,-295.694 291.127,-296.258"/>
</g>
<!-- ApplyModel9 -->
<g id="node10" class="node"><title>ApplyModel9</title>
<ellipse fill="#fed017" stroke="black" cx="293" cy="-440" rx="73.0388" ry="18.3848"/>
<text text-anchor="middle" x="293" y="-436.4" font-family="Times Roman,serif" font-size="14.00">ApplyModel9</text>
</g>
<!-- ApplyModel9&#45;&gt;apply_contains8 -->
<g id="edge18" class="edge"><title>ApplyModel9&#45;&gt;apply_contains8</title>
<path fill="none" stroke="black" d="M291.307,-421.379C289.987,-406.86 288.131,-386.439 286.619,-369.814"/>
<polygon fill="black" stroke="black" points="290.076,-369.18 285.685,-359.538 283.105,-369.813 290.076,-369.18"/>
</g>
<!-- MatchModel10 -->
<g id="node11" class="node"><title>MatchModel10</title>
<ellipse fill="#e15c34" stroke="black" cx="183" cy="-613" rx="82.2301" ry="18.3848"/>
<text text-anchor="middle" x="183" y="-609.4" font-family="Times Roman,serif" font-size="14.00">MatchModel10</text>
</g>
<!-- match_contains11 -->
<g id="node12" class="node"><title>match_contains11</title>
<ellipse fill="#f798a1" stroke="black" cx="101" cy="-440" rx="101.116" ry="18.3848"/>
<text text-anchor="middle" x="101" y="-436.4" font-family="Times Roman,serif" font-size="14.00">match_contains11</text>
</g>
<!-- MatchModel10&#45;&gt;match_contains11 -->
<g id="edge26" class="edge"><title>MatchModel10&#45;&gt;match_contains11</title>
<path fill="none" stroke="black" d="M174.225,-594.486C159.836,-564.13 131.143,-503.595 114.263,-467.981"/>
<polygon fill="black" stroke="black" points="117.282,-466.18 109.836,-458.642 110.957,-469.178 117.282,-466.18"/>
</g>
<!-- paired_with14 -->
<g id="node15" class="node"><title>paired_with14</title>
<ellipse fill="lightgray" stroke="black" cx="274" cy="-539" rx="82.0244" ry="18.3848"/>
<text text-anchor="middle" x="274" y="-535.4" font-family="Times Roman,serif" font-size="14.00">paired_with14</text>
</g>
<!-- MatchModel10&#45;&gt;paired_with14 -->
<g id="edge24" class="edge"><title>MatchModel10&#45;&gt;paired_with14</title>
<path fill="none" stroke="black" d="M205.029,-595.087C216.679,-585.613 231.156,-573.84 243.835,-563.53"/>
<polygon fill="black" stroke="black" points="246.309,-566.03 251.859,-557.005 241.892,-560.599 246.309,-566.03"/>
</g>
<!-- Male_S12\n Classtype = male1\n Name = 3.m -->
<g id="node13" class="node"><title>Male_S12\n Classtype = male1\n Name = 3.m</title>
<ellipse fill="lightblue" stroke="black" cx="292" cy="-44" rx="106.066" ry="43.8406"/>
<text text-anchor="middle" x="292" y="-58.4" font-family="Times Roman,serif" font-size="14.00">Male_S12</text>
<text text-anchor="middle" x="292" y="-40.4" font-family="Times Roman,serif" font-size="14.00"> Classtype = male1</text>
<text text-anchor="middle" x="292" y="-22.4" font-family="Times Roman,serif" font-size="14.00"> Name = 3.m</text>
</g>
<!-- match_contains11&#45;&gt;Male_S12\n Classtype = male1\n Name = 3.m -->
<g id="edge28" class="edge"><title>match_contains11&#45;&gt;Male_S12\n Classtype = male1\n Name = 3.m</title>
<path fill="none" stroke="black" d="M103.839,-421.275C112.383,-369.718 141.668,-222.956 211,-124 219.031,-112.537 228.817,-101.295 238.772,-91.0281"/>
<polygon fill="black" stroke="black" points="241.456,-93.2929 246.028,-83.7354 236.494,-88.3556 241.456,-93.2929"/>
</g>
<!-- trace_link15 -->
<g id="node16" class="node"><title>trace_link15</title>
<ellipse fill="#eedd82" stroke="black" cx="292" cy="-143" rx="72.1249" ry="18.3848"/>
<text text-anchor="middle" x="292" y="-139.4" font-family="Times Roman,serif" font-size="14.00">trace_link15</text>
</g>
<!-- Male_T13\n Classtype = male1\n Name = 3.m&#45;&gt;trace_link15 -->
<g id="edge32" class="edge"><title>Male_T13\n Classtype = male1\n Name = 3.m&#45;&gt;trace_link15</title>
<path fill="none" stroke="black" d="M292,-197.712C292,-188.978 292,-180.024 292,-171.956"/>
<polygon fill="black" stroke="black" points="295.5,-171.953 292,-161.953 288.5,-171.953 295.5,-171.953"/>
</g>
<!-- paired_with14&#45;&gt;ApplyModel9 -->
<g id="edge22" class="edge"><title>paired_with14&#45;&gt;ApplyModel9</title>
<path fill="none" stroke="black" d="M277.574,-520.379C280.36,-505.86 284.279,-485.439 287.47,-468.814"/>
<polygon fill="black" stroke="black" points="290.995,-469.018 289.442,-458.538 284.12,-467.699 290.995,-469.018"/>
</g>
<!-- trace_link15&#45;&gt;Male_S12\n Classtype = male1\n Name = 3.m -->
<g id="edge30" class="edge"><title>trace_link15&#45;&gt;Male_S12\n Classtype = male1\n Name = 3.m</title>
<path fill="none" stroke="black" d="M292,-124.379C292,-116.81 292,-107.638 292,-98.236"/>
<polygon fill="black" stroke="black" points="295.5,-98.0084 292,-88.0084 288.5,-98.0084 295.5,-98.0084"/>
</g>
<!-- apply_contains16 -->
<g id="node17" class="node"><title>apply_contains16</title>
<ellipse fill="#fcdb58" stroke="black" cx="1049" cy="-341" rx="96.8736" ry="18.3848"/>
<text text-anchor="middle" x="1049" y="-337.4" font-family="Times Roman,serif" font-size="14.00">apply_contains16</text>
</g>
<!-- Female_T19\n Classtype = female1\n Name = 2.f -->
<g id="node20" class="node"><title>Female_T19\n Classtype = female1\n Name = 2.f</title>
<ellipse fill="lightblue" stroke="black" cx="896" cy="-242" rx="114.759" ry="43.8406"/>
<text text-anchor="middle" x="896" y="-256.4" font-family="Times Roman,serif" font-size="14.00">Female_T19</text>
<text text-anchor="middle" x="896" y="-238.4" font-family="Times Roman,serif" font-size="14.00"> Classtype = female1</text>
<text text-anchor="middle" x="896" y="-220.4" font-family="Times Roman,serif" font-size="14.00"> Name = 2.f</text>
</g>
<!-- apply_contains16&#45;&gt;Female_T19\n Classtype = female1\n Name = 2.f -->
<g id="edge36" class="edge"><title>apply_contains16&#45;&gt;Female_T19\n Classtype = female1\n Name = 2.f</title>
<path fill="none" stroke="black" d="M1021.29,-323.072C1004.94,-312.494 983.494,-298.614 962.973,-285.335"/>
<polygon fill="black" stroke="black" points="964.856,-282.385 954.559,-279.891 961.053,-288.262 964.856,-282.385"/>
</g>
<!-- ApplyModel17 -->
<g id="node18" class="node"><title>ApplyModel17</title>
<ellipse fill="#fed017" stroke="black" cx="1053" cy="-440" rx="79.9031" ry="18.3848"/>
<text text-anchor="middle" x="1053" y="-436.4" font-family="Times Roman,serif" font-size="14.00">ApplyModel17</text>
</g>
<!-- ApplyModel17&#45;&gt;apply_contains16 -->
<g id="edge34" class="edge"><title>ApplyModel17&#45;&gt;apply_contains16</title>
<path fill="none" stroke="black" d="M1052.25,-421.379C1051.66,-406.86 1050.84,-386.439 1050.16,-369.814"/>
<polygon fill="black" stroke="black" points="1053.65,-369.388 1049.75,-359.538 1046.66,-369.671 1053.65,-369.388"/>
</g>
<!-- MatchModel18 -->
<g id="node19" class="node"><title>MatchModel18</title>
<ellipse fill="#e15c34" stroke="black" cx="1122" cy="-613" rx="82.2301" ry="18.3848"/>
<text text-anchor="middle" x="1122" y="-609.4" font-family="Times Roman,serif" font-size="14.00">MatchModel18</text>
</g>
<!-- match_contains20 -->
<g id="node21" class="node"><title>match_contains20</title>
<ellipse fill="#f798a1" stroke="black" cx="1169" cy="-242" rx="101.116" ry="18.3848"/>
<text text-anchor="middle" x="1169" y="-238.4" font-family="Times Roman,serif" font-size="14.00">match_contains20</text>
</g>
<!-- MatchModel18&#45;&gt;match_contains20 -->
<g id="edge42" class="edge"><title>MatchModel18&#45;&gt;match_contains20</title>
<path fill="none" stroke="black" d="M1134.32,-594.498C1140.5,-584.204 1147.42,-570.897 1151,-558 1179.48,-455.504 1175.18,-327.315 1171.39,-270.908"/>
<polygon fill="black" stroke="black" points="1174.86,-270.335 1170.65,-260.612 1167.88,-270.838 1174.86,-270.335"/>
</g>
<!-- paired_with22 -->
<g id="node23" class="node"><title>paired_with22</title>
<ellipse fill="lightgray" stroke="black" cx="1060" cy="-539" rx="82.0244" ry="18.3848"/>
<text text-anchor="middle" x="1060" y="-535.4" font-family="Times Roman,serif" font-size="14.00">paired_with22</text>
</g>
<!-- MatchModel18&#45;&gt;paired_with22 -->
<g id="edge40" class="edge"><title>MatchModel18&#45;&gt;paired_with22</title>
<path fill="none" stroke="black" d="M1106.67,-594.708C1099.22,-585.814 1090.13,-574.962 1081.96,-565.207"/>
<polygon fill="black" stroke="black" points="1084.47,-562.756 1075.36,-557.338 1079.1,-567.251 1084.47,-562.756"/>
</g>
<!-- trace_link23 -->
<g id="node24" class="node"><title>trace_link23</title>
<ellipse fill="#eedd82" stroke="black" cx="896" cy="-143" rx="72.1249" ry="18.3848"/>
<text text-anchor="middle" x="896" y="-139.4" font-family="Times Roman,serif" font-size="14.00">trace_link23</text>
</g>
<!-- Female_T19\n Classtype = female1\n Name = 2.f&#45;&gt;trace_link23 -->
<g id="edge48" class="edge"><title>Female_T19\n Classtype = female1\n Name = 2.f&#45;&gt;trace_link23</title>
<path fill="none" stroke="black" d="M896,-197.712C896,-188.978 896,-180.024 896,-171.956"/>
<polygon fill="black" stroke="black" points="899.5,-171.953 896,-161.953 892.5,-171.953 899.5,-171.953"/>
</g>
<!-- Female_S21\n Classtype = female1\n Name = 2.f -->
<g id="node22" class="node"><title>Female_S21\n Classtype = female1\n Name = 2.f</title>
<ellipse fill="lightblue" stroke="black" cx="896" cy="-44" rx="114.759" ry="43.8406"/>
<text text-anchor="middle" x="896" y="-58.4" font-family="Times Roman,serif" font-size="14.00">Female_S21</text>
<text text-anchor="middle" x="896" y="-40.4" font-family="Times Roman,serif" font-size="14.00"> Classtype = female1</text>
<text text-anchor="middle" x="896" y="-22.4" font-family="Times Roman,serif" font-size="14.00"> Name = 2.f</text>
</g>
<!-- match_contains20&#45;&gt;Female_S21\n Classtype = female1\n Name = 2.f -->
<g id="edge44" class="edge"><title>match_contains20&#45;&gt;Female_S21\n Classtype = female1\n Name = 2.f</title>
<path fill="none" stroke="black" d="M1143.81,-223.728C1101.89,-193.325 1016.64,-131.496 957.934,-88.9192"/>
<polygon fill="black" stroke="black" points="959.984,-86.0825 949.834,-83.0445 955.874,-91.749 959.984,-86.0825"/>
</g>
<!-- paired_with22&#45;&gt;ApplyModel17 -->
<g id="edge38" class="edge"><title>paired_with22&#45;&gt;ApplyModel17</title>
<path fill="none" stroke="black" d="M1058.68,-520.379C1057.66,-505.86 1056.21,-485.439 1055.04,-468.814"/>
<polygon fill="black" stroke="black" points="1058.51,-468.266 1054.31,-458.538 1051.52,-468.76 1058.51,-468.266"/>
</g>
<!-- trace_link23&#45;&gt;Female_S21\n Classtype = female1\n Name = 2.f -->
<g id="edge46" class="edge"><title>trace_link23&#45;&gt;Female_S21\n Classtype = female1\n Name = 2.f</title>
<path fill="none" stroke="black" d="M896,-124.379C896,-116.81 896,-107.638 896,-98.236"/>
<polygon fill="black" stroke="black" points="899.5,-98.0084 896,-88.0084 892.5,-98.0084 899.5,-98.0084"/>
</g>
<!-- directLink_T24\n&#45;&gt;Male_T13\n Classtype = male1\n Name = 3.m -->
<g id="edge52" class="edge"><title>directLink_T24\n&#45;&gt;Male_T13\n Classtype = male1\n Name = 3.m</title>
<path fill="none" stroke="black" d="M476.592,-324.318C448.574,-311.823 409.17,-294.251 373.959,-278.549"/>
<polygon fill="black" stroke="black" points="375.19,-275.266 364.632,-274.39 372.339,-281.659 375.19,-275.266"/>
</g>
<!-- indirectLink_S25&#45;&gt;Male_S12\n Classtype = male1\n Name = 3.m -->
<g id="edge56" class="edge"><title>indirectLink_S25&#45;&gt;Male_S12\n Classtype = male1\n Name = 3.m</title>
<path fill="none" stroke="black" d="M458.814,-125.756C434.226,-113.705 400.42,-97.1365 369.667,-82.0646"/>
<polygon fill="black" stroke="black" points="371.181,-78.9088 360.661,-77.6507 368.1,-85.1945 371.181,-78.9088"/>
</g>
<!-- directLink_T26\n&#45;&gt;Female_T19\n Classtype = female1\n Name = 2.f -->
<g id="edge60" class="edge"><title>directLink_T26\n&#45;&gt;Female_T19\n Classtype = female1\n Name = 2.f</title>
<path fill="none" stroke="black" d="M858.652,-322.379C862.358,-314.402 866.892,-304.645 871.506,-294.714"/>
<polygon fill="black" stroke="black" points="874.706,-296.135 875.745,-285.592 868.357,-293.186 874.706,-296.135"/>
</g>
<!-- indirectLink_S27&#45;&gt;Female_S21\n Classtype = female1\n Name = 2.f -->
<g id="edge62" class="edge"><title>indirectLink_S27&#45;&gt;Female_S21\n Classtype = female1\n Name = 2.f</title>
<path fill="none" stroke="black" d="M741.178,-125.529C762.771,-114.158 791.868,-98.8355 819.008,-84.5436"/>
<polygon fill="black" stroke="black" points="820.906,-87.4998 828.124,-79.7435 817.645,-81.3061 820.906,-87.4998"/>
</g>
</g>
</svg>
