<?xml version="1.0" encoding="UTF-8" standalone="no"?>
<!DOCTYPE svg PUBLIC "-//W3C//DTD SVG 1.1//EN"
 "http://www.w3.org/Graphics/SVG/1.1/DTD/svg11.dtd">
<!-- Generated by graphviz version 2.26.3 (20100126.1600)
 -->
<!-- Title: HEmptyPathCondition_HS2S_run1_HF2F_run1 Pages: 1 -->
<svg width="814pt" height="590pt"
 viewBox="0.00 0.00 814.00 590.00" xmlns="http://www.w3.org/2000/svg" xmlns:xlink="http://www.w3.org/1999/xlink">
<g id="graph1" class="graph" transform="scale(1 1) rotate(0) translate(4 586)">
<title>HEmptyPathCondition_HS2S_run1_HF2F_run1</title>
<polygon fill="white" stroke="white" points="-4,5 -4,-586 811,-586 811,5 -4,5"/>
<!-- apply_contains0 -->
<g id="node1" class="node"><title>apply_contains0</title>
<ellipse fill="#fcdb58" stroke="black" cx="260" cy="-341" rx="90.0096" ry="18.3848"/>
<text text-anchor="middle" x="260" y="-337.4" font-family="Times Roman,serif" font-size="14.00">apply_contains0</text>
</g>
<!-- Station_T4\n Classtype = station1\n Name = 1.s -->
<g id="node5" class="node"><title>Station_T4\n Classtype = station1\n Name = 1.s</title>
<ellipse fill="lightblue" stroke="black" cx="255" cy="-242" rx="116.172" ry="43.8406"/>
<text text-anchor="middle" x="255" y="-256.4" font-family="Times Roman,serif" font-size="14.00">Station_T4</text>
<text text-anchor="middle" x="255" y="-238.4" font-family="Times Roman,serif" font-size="14.00"> Classtype = station1</text>
<text text-anchor="middle" x="255" y="-220.4" font-family="Times Roman,serif" font-size="14.00"> Name = 1.s</text>
</g>
<!-- apply_contains0&#45;&gt;Station_T4\n Classtype = station1\n Name = 1.s -->
<g id="edge4" class="edge"><title>apply_contains0&#45;&gt;Station_T4\n Classtype = station1\n Name = 1.s</title>
<path fill="none" stroke="black" d="M259.06,-322.379C258.677,-314.81 258.214,-305.638 257.739,-296.236"/>
<polygon fill="black" stroke="black" points="261.223,-295.819 257.223,-286.008 254.232,-296.172 261.223,-295.819"/>
</g>
<!-- ApplyModel1 -->
<g id="node2" class="node"><title>ApplyModel1</title>
<ellipse fill="#fed017" stroke="black" cx="281" cy="-415" rx="73.0388" ry="18.3848"/>
<text text-anchor="middle" x="281" y="-411.4" font-family="Times Roman,serif" font-size="14.00">ApplyModel1</text>
</g>
<!-- ApplyModel1&#45;&gt;apply_contains0 -->
<g id="edge2" class="edge"><title>ApplyModel1&#45;&gt;apply_contains0</title>
<path fill="none" stroke="black" d="M275.701,-396.327C273.388,-388.176 270.624,-378.438 268.065,-369.42"/>
<polygon fill="black" stroke="black" points="271.395,-368.332 265.297,-359.667 264.661,-370.243 271.395,-368.332"/>
</g>
<!-- MatchModel2 -->
<g id="node3" class="node"><title>MatchModel2</title>
<ellipse fill="#e15c34" stroke="black" cx="178" cy="-563" rx="75.8684" ry="18.3848"/>
<text text-anchor="middle" x="178" y="-559.4" font-family="Times Roman,serif" font-size="14.00">MatchModel2</text>
</g>
<!-- match_contains3 -->
<g id="node4" class="node"><title>match_contains3</title>
<ellipse fill="#f798a1" stroke="black" cx="95" cy="-415" rx="94.7523" ry="18.3848"/>
<text text-anchor="middle" x="95" y="-411.4" font-family="Times Roman,serif" font-size="14.00">match_contains3</text>
</g>
<!-- MatchModel2&#45;&gt;match_contains3 -->
<g id="edge10" class="edge"><title>MatchModel2&#45;&gt;match_contains3</title>
<path fill="none" stroke="black" d="M167.656,-544.555C153.304,-518.964 127.237,-472.483 110.54,-442.71"/>
<polygon fill="black" stroke="black" points="113.419,-440.688 105.475,-433.678 107.313,-444.112 113.419,-440.688"/>
</g>
<!-- paired_with6 -->
<g id="node7" class="node"><title>paired_with6</title>
<ellipse fill="lightgray" stroke="black" cx="240" cy="-489" rx="75.1594" ry="18.3848"/>
<text text-anchor="middle" x="240" y="-485.4" font-family="Times Roman,serif" font-size="14.00">paired_with6</text>
</g>
<!-- MatchModel2&#45;&gt;paired_with6 -->
<g id="edge8" class="edge"><title>MatchModel2&#45;&gt;paired_with6</title>
<path fill="none" stroke="black" d="M193.326,-544.708C200.778,-535.814 209.87,-524.962 218.043,-515.207"/>
<polygon fill="black" stroke="black" points="220.896,-517.251 224.636,-507.338 215.531,-512.756 220.896,-517.251"/>
</g>
<!-- Station_S5\n Classtype = station1\n Name = 1.s -->
<g id="node6" class="node"><title>Station_S5\n Classtype = station1\n Name = 1.s</title>
<ellipse fill="lightblue" stroke="black" cx="215" cy="-44" rx="116.172" ry="43.8406"/>
<text text-anchor="middle" x="215" y="-58.4" font-family="Times Roman,serif" font-size="14.00">Station_S5</text>
<text text-anchor="middle" x="215" y="-40.4" font-family="Times Roman,serif" font-size="14.00"> Classtype = station1</text>
<text text-anchor="middle" x="215" y="-22.4" font-family="Times Roman,serif" font-size="14.00"> Name = 1.s</text>
</g>
<!-- match_contains3&#45;&gt;Station_S5\n Classtype = station1\n Name = 1.s -->
<g id="edge12" class="edge"><title>match_contains3&#45;&gt;Station_S5\n Classtype = station1\n Name = 1.s</title>
<path fill="none" stroke="black" d="M96.4375,-396.369C99.7068,-358.402 109.094,-269.615 130,-198 140.041,-163.603 144.927,-155.503 162,-124 167.166,-114.468 173.13,-104.612 179.154,-95.2131"/>
<polygon fill="black" stroke="black" points="182.153,-97.0214 184.68,-86.7324 176.288,-93.1994 182.153,-97.0214"/>
</g>
<!-- trace_link7 -->
<g id="node8" class="node"><title>trace_link7</title>
<ellipse fill="#eedd82" stroke="black" cx="237" cy="-143" rx="65.7609" ry="18.3848"/>
<text text-anchor="middle" x="237" y="-139.4" font-family="Times Roman,serif" font-size="14.00">trace_link7</text>
</g>
<!-- Station_T4\n Classtype = station1\n Name = 1.s&#45;&gt;trace_link7 -->
<g id="edge16" class="edge"><title>Station_T4\n Classtype = station1\n Name = 1.s&#45;&gt;trace_link7</title>
<path fill="none" stroke="black" d="M247,-198.001C245.363,-188.996 243.681,-179.745 242.175,-171.46"/>
<polygon fill="black" stroke="black" points="245.61,-170.787 240.377,-161.574 238.722,-172.039 245.61,-170.787"/>
</g>
<!-- paired_with6&#45;&gt;ApplyModel1 -->
<g id="edge6" class="edge"><title>paired_with6&#45;&gt;ApplyModel1</title>
<path fill="none" stroke="black" d="M250.346,-470.327C255.043,-461.849 260.692,-451.654 265.853,-442.338"/>
<polygon fill="black" stroke="black" points="269.014,-443.854 270.799,-433.411 262.891,-440.462 269.014,-443.854"/>
</g>
<!-- trace_link7&#45;&gt;Station_S5\n Classtype = station1\n Name = 1.s -->
<g id="edge14" class="edge"><title>trace_link7&#45;&gt;Station_S5\n Classtype = station1\n Name = 1.s</title>
<path fill="none" stroke="black" d="M232.862,-124.379C231.162,-116.73 229.098,-107.443 226.986,-97.9359"/>
<polygon fill="black" stroke="black" points="230.366,-97.011 224.78,-88.0084 223.532,-98.5295 230.366,-97.011"/>
</g>
<!-- apply_contains8 -->
<g id="node9" class="node"><title>apply_contains8</title>
<ellipse fill="#fcdb58" stroke="black" cx="697" cy="-341" rx="90.0096" ry="18.3848"/>
<text text-anchor="middle" x="697" y="-337.4" font-family="Times Roman,serif" font-size="14.00">apply_contains8</text>
</g>
<!-- Female_T11\n Classtype = female1\n Name = 2.f -->
<g id="node12" class="node"><title>Female_T11\n Classtype = female1\n Name = 2.f</title>
<ellipse fill="lightblue" stroke="black" cx="691" cy="-242" rx="114.759" ry="43.8406"/>
<text text-anchor="middle" x="691" y="-256.4" font-family="Times Roman,serif" font-size="14.00">Female_T11</text>
<text text-anchor="middle" x="691" y="-238.4" font-family="Times Roman,serif" font-size="14.00"> Classtype = female1</text>
<text text-anchor="middle" x="691" y="-220.4" font-family="Times Roman,serif" font-size="14.00"> Name = 2.f</text>
</g>
<!-- apply_contains8&#45;&gt;Female_T11\n Classtype = female1\n Name = 2.f -->
<g id="edge20" class="edge"><title>apply_contains8&#45;&gt;Female_T11\n Classtype = female1\n Name = 2.f</title>
<path fill="none" stroke="black" d="M695.871,-322.379C695.413,-314.81 694.857,-305.638 694.287,-296.236"/>
<polygon fill="black" stroke="black" points="697.766,-295.778 693.667,-286.008 690.779,-296.202 697.766,-295.778"/>
</g>
<!-- ApplyModel9 -->
<g id="node10" class="node"><title>ApplyModel9</title>
<ellipse fill="#fed017" stroke="black" cx="704" cy="-415" rx="73.0388" ry="18.3848"/>
<text text-anchor="middle" x="704" y="-411.4" font-family="Times Roman,serif" font-size="14.00">ApplyModel9</text>
</g>
<!-- ApplyModel9&#45;&gt;apply_contains8 -->
<g id="edge18" class="edge"><title>ApplyModel9&#45;&gt;apply_contains8</title>
<path fill="none" stroke="black" d="M702.234,-396.327C701.471,-388.264 700.561,-378.648 699.716,-369.711"/>
<polygon fill="black" stroke="black" points="703.192,-369.293 698.766,-359.667 696.223,-369.953 703.192,-369.293"/>
</g>
<!-- MatchModel10 -->
<g id="node11" class="node"><title>MatchModel10</title>
<ellipse fill="#e15c34" stroke="black" cx="607" cy="-563" rx="82.2301" ry="18.3848"/>
<text text-anchor="middle" x="607" y="-559.4" font-family="Times Roman,serif" font-size="14.00">MatchModel10</text>
</g>
<!-- match_contains12 -->
<g id="node13" class="node"><title>match_contains12</title>
<ellipse fill="#f798a1" stroke="black" cx="512" cy="-415" rx="101.116" ry="18.3848"/>
<text text-anchor="middle" x="512" y="-411.4" font-family="Times Roman,serif" font-size="14.00">match_contains12</text>
</g>
<!-- MatchModel10&#45;&gt;match_contains12 -->
<g id="edge26" class="edge"><title>MatchModel10&#45;&gt;match_contains12</title>
<path fill="none" stroke="black" d="M595.16,-544.555C578.662,-518.853 548.639,-472.08 529.539,-442.324"/>
<polygon fill="black" stroke="black" points="532.336,-440.202 523.989,-433.678 526.445,-443.984 532.336,-440.202"/>
</g>
<!-- paired_with14 -->
<g id="node15" class="node"><title>paired_with14</title>
<ellipse fill="lightgray" stroke="black" cx="683" cy="-489" rx="82.0244" ry="18.3848"/>
<text text-anchor="middle" x="683" y="-485.4" font-family="Times Roman,serif" font-size="14.00">paired_with14</text>
</g>
<!-- MatchModel10&#45;&gt;paired_with14 -->
<g id="edge24" class="edge"><title>MatchModel10&#45;&gt;paired_with14</title>
<path fill="none" stroke="black" d="M625.787,-544.708C635.266,-535.478 646.91,-524.14 657.214,-514.107"/>
<polygon fill="black" stroke="black" points="659.707,-516.566 664.43,-507.082 654.823,-511.55 659.707,-516.566"/>
</g>
<!-- trace_link15 -->
<g id="node16" class="node"><title>trace_link15</title>
<ellipse fill="#eedd82" stroke="black" cx="657" cy="-143" rx="72.1249" ry="18.3848"/>
<text text-anchor="middle" x="657" y="-139.4" font-family="Times Roman,serif" font-size="14.00">trace_link15</text>
</g>
<!-- Female_T11\n Classtype = female1\n Name = 2.f&#45;&gt;trace_link15 -->
<g id="edge32" class="edge"><title>Female_T11\n Classtype = female1\n Name = 2.f&#45;&gt;trace_link15</title>
<path fill="none" stroke="black" d="M675.988,-198.289C672.852,-189.156 669.624,-179.757 666.739,-171.358"/>
<polygon fill="black" stroke="black" points="669.979,-170.015 663.42,-161.694 663.358,-172.289 669.979,-170.015"/>
</g>
<!-- Female_S13\n Classtype = female1\n Name = 2.f -->
<g id="node14" class="node"><title>Female_S13\n Classtype = female1\n Name = 2.f</title>
<ellipse fill="lightblue" stroke="black" cx="533" cy="-44" rx="114.759" ry="43.8406"/>
<text text-anchor="middle" x="533" y="-58.4" font-family="Times Roman,serif" font-size="14.00">Female_S13</text>
<text text-anchor="middle" x="533" y="-40.4" font-family="Times Roman,serif" font-size="14.00"> Classtype = female1</text>
<text text-anchor="middle" x="533" y="-22.4" font-family="Times Roman,serif" font-size="14.00"> Name = 2.f</text>
</g>
<!-- match_contains12&#45;&gt;Female_S13\n Classtype = female1\n Name = 2.f -->
<g id="edge28" class="edge"><title>match_contains12&#45;&gt;Female_S13\n Classtype = female1\n Name = 2.f</title>
<path fill="none" stroke="black" d="M513.056,-396.348C516.126,-342.112 525.135,-182.956 529.924,-98.3424"/>
<polygon fill="black" stroke="black" points="533.43,-98.3389 530.501,-88.157 526.441,-97.9432 533.43,-98.3389"/>
</g>
<!-- paired_with14&#45;&gt;ApplyModel9 -->
<g id="edge22" class="edge"><title>paired_with14&#45;&gt;ApplyModel9</title>
<path fill="none" stroke="black" d="M688.299,-470.327C690.612,-462.176 693.376,-452.438 695.935,-443.42"/>
<polygon fill="black" stroke="black" points="699.339,-444.243 698.703,-433.667 692.605,-442.332 699.339,-444.243"/>
</g>
<!-- trace_link15&#45;&gt;Female_S13\n Classtype = female1\n Name = 2.f -->
<g id="edge30" class="edge"><title>trace_link15&#45;&gt;Female_S13\n Classtype = female1\n Name = 2.f</title>
<path fill="none" stroke="black" d="M634.831,-125.301C622.492,-115.45 606.504,-102.684 590.867,-90.2003"/>
<polygon fill="black" stroke="black" points="592.742,-87.2186 582.743,-83.7145 588.374,-92.689 592.742,-87.2186"/>
</g>
</g>
</svg>
