<?xml version="1.0" encoding="UTF-8" standalone="no"?>
<!DOCTYPE svg PUBLIC "-//W3C//DTD SVG 1.1//EN"
 "http://www.w3.org/Graphics/SVG/1.1/DTD/svg11.dtd">
<!-- Generated by graphviz version 2.26.3 (20100126.1600)
 -->
<!-- Title: HEmptyPathCondition_HS2S_run1_HM2M_run1_HF2F_run1_HSF2SF_run1 Pages: 1 -->
<svg width="1174pt" height="788pt"
 viewBox="0.00 0.00 1174.00 788.00" xmlns="http://www.w3.org/2000/svg" xmlns:xlink="http://www.w3.org/1999/xlink">
<g id="graph1" class="graph" transform="scale(1 1) rotate(0) translate(4 784)">
<title>HEmptyPathCondition_HS2S_run1_HM2M_run1_HF2F_run1_HSF2SF_run1</title>
<polygon fill="white" stroke="white" points="-4,5 -4,-784 1171,-784 1171,5 -4,5"/>
<!-- apply_contains0 -->
<g id="node1" class="node"><title>apply_contains0</title>
<ellipse fill="#fcdb58" stroke="black" cx="543" cy="-539" rx="90.0096" ry="18.3848"/>
<text text-anchor="middle" x="543" y="-535.4" font-family="Times Roman,serif" font-size="14.00">apply_contains0</text>
</g>
<!-- Station_T4\n Classtype = station1\n Name = 1.s -->
<g id="node5" class="node"><title>Station_T4\n Classtype = station1\n Name = 1.s</title>
<ellipse fill="lightblue" stroke="black" cx="543" cy="-440" rx="116.172" ry="43.8406"/>
<text text-anchor="middle" x="543" y="-454.4" font-family="Times Roman,serif" font-size="14.00">Station_T4</text>
<text text-anchor="middle" x="543" y="-436.4" font-family="Times Roman,serif" font-size="14.00"> Classtype = station1</text>
<text text-anchor="middle" x="543" y="-418.4" font-family="Times Roman,serif" font-size="14.00"> Name = 1.s</text>
</g>
<!-- apply_contains0&#45;&gt;Station_T4\n Classtype = station1\n Name = 1.s -->
<g id="edge4" class="edge"><title>apply_contains0&#45;&gt;Station_T4\n Classtype = station1\n Name = 1.s</title>
<path fill="none" stroke="black" d="M543,-520.379C543,-512.81 543,-503.638 543,-494.236"/>
<polygon fill="black" stroke="black" points="546.5,-494.008 543,-484.008 539.5,-494.008 546.5,-494.008"/>
</g>
<!-- ApplyModel1 -->
<g id="node2" class="node"><title>ApplyModel1</title>
<ellipse fill="#fed017" stroke="black" cx="543" cy="-613" rx="73.0388" ry="18.3848"/>
<text text-anchor="middle" x="543" y="-609.4" font-family="Times Roman,serif" font-size="14.00">ApplyModel1</text>
</g>
<!-- ApplyModel1&#45;&gt;apply_contains0 -->
<g id="edge2" class="edge"><title>ApplyModel1&#45;&gt;apply_contains0</title>
<path fill="none" stroke="black" d="M543,-594.327C543,-586.264 543,-576.648 543,-567.711"/>
<polygon fill="black" stroke="black" points="546.5,-567.667 543,-557.667 539.5,-567.667 546.5,-567.667"/>
</g>
<!-- MatchModel2 -->
<g id="node3" class="node"><title>MatchModel2</title>
<ellipse fill="#e15c34" stroke="black" cx="681" cy="-761" rx="75.8684" ry="18.3848"/>
<text text-anchor="middle" x="681" y="-757.4" font-family="Times Roman,serif" font-size="14.00">MatchModel2</text>
</g>
<!-- match_contains3 -->
<g id="node4" class="node"><title>match_contains3</title>
<ellipse fill="#f798a1" stroke="black" cx="731" cy="-687" rx="94.7523" ry="18.3848"/>
<text text-anchor="middle" x="731" y="-683.4" font-family="Times Roman,serif" font-size="14.00">match_contains3</text>
</g>
<!-- MatchModel2&#45;&gt;match_contains3 -->
<g id="edge10" class="edge"><title>MatchModel2&#45;&gt;match_contains3</title>
<path fill="none" stroke="black" d="M693.36,-742.708C699.205,-734.057 706.301,-723.554 712.75,-714.01"/>
<polygon fill="black" stroke="black" points="715.737,-715.841 718.435,-705.596 709.937,-711.922 715.737,-715.841"/>
</g>
<!-- paired_with6 -->
<g id="node7" class="node"><title>paired_with6</title>
<ellipse fill="lightgray" stroke="black" cx="543" cy="-687" rx="75.1594" ry="18.3848"/>
<text text-anchor="middle" x="543" y="-683.4" font-family="Times Roman,serif" font-size="14.00">paired_with6</text>
</g>
<!-- MatchModel2&#45;&gt;paired_with6 -->
<g id="edge8" class="edge"><title>MatchModel2&#45;&gt;paired_with6</title>
<path fill="none" stroke="black" d="M649.34,-744.023C629.793,-733.541 604.524,-719.991 583.523,-708.73"/>
<polygon fill="black" stroke="black" points="584.98,-705.539 574.513,-703.898 581.672,-711.708 584.98,-705.539"/>
</g>
<!-- Station_S5\n Classtype = station1\n Name = 1.s -->
<g id="node6" class="node"><title>Station_S5\n Classtype = station1\n Name = 1.s</title>
<ellipse fill="lightblue" stroke="black" cx="637" cy="-242" rx="116.172" ry="43.8406"/>
<text text-anchor="middle" x="637" y="-256.4" font-family="Times Roman,serif" font-size="14.00">Station_S5</text>
<text text-anchor="middle" x="637" y="-238.4" font-family="Times Roman,serif" font-size="14.00"> Classtype = station1</text>
<text text-anchor="middle" x="637" y="-220.4" font-family="Times Roman,serif" font-size="14.00"> Name = 1.s</text>
</g>
<!-- match_contains3&#45;&gt;Station_S5\n Classtype = station1\n Name = 1.s -->
<g id="edge12" class="edge"><title>match_contains3&#45;&gt;Station_S5\n Classtype = station1\n Name = 1.s</title>
<path fill="none" stroke="black" d="M731,-668.309C731,-640.234 731,-585.507 731,-539 731,-539 731,-539 731,-440 731,-386.88 735.411,-369.683 712,-322 706.439,-310.673 698.73,-299.849 690.358,-290.026"/>
<polygon fill="black" stroke="black" points="692.799,-287.504 683.53,-282.372 687.575,-292.164 692.799,-287.504"/>
</g>
<!-- trace_link7 -->
<g id="node8" class="node"><title>trace_link7</title>
<ellipse fill="#eedd82" stroke="black" cx="637" cy="-341" rx="65.7609" ry="18.3848"/>
<text text-anchor="middle" x="637" y="-337.4" font-family="Times Roman,serif" font-size="14.00">trace_link7</text>
</g>
<!-- Station_T4\n Classtype = station1\n Name = 1.s&#45;&gt;trace_link7 -->
<g id="edge16" class="edge"><title>Station_T4\n Classtype = station1\n Name = 1.s&#45;&gt;trace_link7</title>
<path fill="none" stroke="black" d="M582.32,-398.589C592.641,-387.718 603.47,-376.313 612.743,-366.547"/>
<polygon fill="black" stroke="black" points="615.459,-368.77 619.807,-359.108 610.383,-363.95 615.459,-368.77"/>
</g>
<!-- directLink_T24\n -->
<g id="node25" class="node"><title>directLink_T24\n</title>
<ellipse fill="lightyellow" stroke="black" cx="469" cy="-341" rx="84.1457" ry="18.3848"/>
<text text-anchor="middle" x="469" y="-337.4" font-family="Times Roman,serif" font-size="14.00">directLink_T24</text>
</g>
<!-- Station_T4\n Classtype = station1\n Name = 1.s&#45;&gt;directLink_T24\n -->
<g id="edge50" class="edge"><title>Station_T4\n Classtype = station1\n Name = 1.s&#45;&gt;directLink_T24\n</title>
<path fill="none" stroke="black" d="M511.188,-397.441C503.57,-387.249 495.653,-376.657 488.763,-367.439"/>
<polygon fill="black" stroke="black" points="491.552,-365.325 482.762,-359.411 485.945,-369.516 491.552,-365.325"/>
</g>
<!-- indirectLink_S25 -->
<g id="node26" class="node"><title>indirectLink_S25</title>
<ellipse fill="lightgreen" stroke="black" cx="576" cy="-143" rx="92.839" ry="18.3848"/>
<text text-anchor="middle" x="576" y="-139.4" font-family="Times Roman,serif" font-size="14.00">indirectLink_S25</text>
</g>
<!-- Station_S5\n Classtype = station1\n Name = 1.s&#45;&gt;indirectLink_S25 -->
<g id="edge56" class="edge"><title>Station_S5\n Classtype = station1\n Name = 1.s&#45;&gt;indirectLink_S25</title>
<path fill="none" stroke="black" d="M610.599,-199.153C604.577,-189.379 598.338,-179.253 592.843,-170.336"/>
<polygon fill="black" stroke="black" points="595.653,-168.224 587.428,-161.547 589.694,-171.896 595.653,-168.224"/>
</g>
<!-- paired_with6&#45;&gt;ApplyModel1 -->
<g id="edge6" class="edge"><title>paired_with6&#45;&gt;ApplyModel1</title>
<path fill="none" stroke="black" d="M543,-668.327C543,-660.264 543,-650.648 543,-641.711"/>
<polygon fill="black" stroke="black" points="546.5,-641.667 543,-631.667 539.5,-641.667 546.5,-641.667"/>
</g>
<!-- trace_link7&#45;&gt;Station_S5\n Classtype = station1\n Name = 1.s -->
<g id="edge14" class="edge"><title>trace_link7&#45;&gt;Station_S5\n Classtype = station1\n Name = 1.s</title>
<path fill="none" stroke="black" d="M637,-322.379C637,-314.81 637,-305.638 637,-296.236"/>
<polygon fill="black" stroke="black" points="640.5,-296.008 637,-286.008 633.5,-296.008 640.5,-296.008"/>
</g>
<!-- apply_contains8 -->
<g id="node9" class="node"><title>apply_contains8</title>
<ellipse fill="#fcdb58" stroke="black" cx="1067" cy="-539" rx="90.0096" ry="18.3848"/>
<text text-anchor="middle" x="1067" y="-535.4" font-family="Times Roman,serif" font-size="14.00">apply_contains8</text>
</g>
<!-- Male_T13\n Classtype = male1\n Name = 3.m -->
<g id="node14" class="node"><title>Male_T13\n Classtype = male1\n Name = 3.m</title>
<ellipse fill="lightblue" stroke="black" cx="1060" cy="-440" rx="106.066" ry="43.8406"/>
<text text-anchor="middle" x="1060" y="-454.4" font-family="Times Roman,serif" font-size="14.00">Male_T13</text>
<text text-anchor="middle" x="1060" y="-436.4" font-family="Times Roman,serif" font-size="14.00"> Classtype = male1</text>
<text text-anchor="middle" x="1060" y="-418.4" font-family="Times Roman,serif" font-size="14.00"> Name = 3.m</text>
</g>
<!-- apply_contains8&#45;&gt;Male_T13\n Classtype = male1\n Name = 3.m -->
<g id="edge20" class="edge"><title>apply_contains8&#45;&gt;Male_T13\n Classtype = male1\n Name = 3.m</title>
<path fill="none" stroke="black" d="M1065.68,-520.379C1065.15,-512.81 1064.5,-503.638 1063.83,-494.236"/>
<polygon fill="black" stroke="black" points="1067.31,-493.737 1063.11,-484.008 1060.33,-494.23 1067.31,-493.737"/>
</g>
<!-- ApplyModel9 -->
<g id="node10" class="node"><title>ApplyModel9</title>
<ellipse fill="#fed017" stroke="black" cx="1075" cy="-613" rx="73.0388" ry="18.3848"/>
<text text-anchor="middle" x="1075" y="-609.4" font-family="Times Roman,serif" font-size="14.00">ApplyModel9</text>
</g>
<!-- ApplyModel9&#45;&gt;apply_contains8 -->
<g id="edge18" class="edge"><title>ApplyModel9&#45;&gt;apply_contains8</title>
<path fill="none" stroke="black" d="M1072.98,-594.327C1072.11,-586.264 1071.07,-576.648 1070.1,-567.711"/>
<polygon fill="black" stroke="black" points="1073.57,-567.233 1069.02,-557.667 1066.61,-567.986 1073.57,-567.233"/>
</g>
<!-- MatchModel10 -->
<g id="node11" class="node"><title>MatchModel10</title>
<ellipse fill="#e15c34" stroke="black" cx="945" cy="-761" rx="82.2301" ry="18.3848"/>
<text text-anchor="middle" x="945" y="-757.4" font-family="Times Roman,serif" font-size="14.00">MatchModel10</text>
</g>
<!-- match_contains11 -->
<g id="node12" class="node"><title>match_contains11</title>
<ellipse fill="#f798a1" stroke="black" cx="883" cy="-613" rx="101.116" ry="18.3848"/>
<text text-anchor="middle" x="883" y="-609.4" font-family="Times Roman,serif" font-size="14.00">match_contains11</text>
</g>
<!-- MatchModel10&#45;&gt;match_contains11 -->
<g id="edge26" class="edge"><title>MatchModel10&#45;&gt;match_contains11</title>
<path fill="none" stroke="black" d="M937.273,-742.555C926.599,-717.075 907.249,-670.885 894.77,-641.097"/>
<polygon fill="black" stroke="black" points="897.916,-639.549 890.824,-631.678 891.46,-642.253 897.916,-639.549"/>
</g>
<!-- paired_with14 -->
<g id="node15" class="node"><title>paired_with14</title>
<ellipse fill="lightgray" stroke="black" cx="1046" cy="-687" rx="82.0244" ry="18.3848"/>
<text text-anchor="middle" x="1046" y="-683.4" font-family="Times Roman,serif" font-size="14.00">paired_with14</text>
</g>
<!-- MatchModel10&#45;&gt;paired_with14 -->
<g id="edge24" class="edge"><title>MatchModel10&#45;&gt;paired_with14</title>
<path fill="none" stroke="black" d="M969.192,-743.275C982.461,-733.553 999.093,-721.367 1013.48,-710.824"/>
<polygon fill="black" stroke="black" points="1015.66,-713.57 1021.66,-704.837 1011.52,-707.924 1015.66,-713.57"/>
</g>
<!-- Male_S12\n Classtype = male1\n Name = 3.m -->
<g id="node13" class="node"><title>Male_S12\n Classtype = male1\n Name = 3.m</title>
<ellipse fill="lightblue" stroke="black" cx="934" cy="-242" rx="106.066" ry="43.8406"/>
<text text-anchor="middle" x="934" y="-256.4" font-family="Times Roman,serif" font-size="14.00">Male_S12</text>
<text text-anchor="middle" x="934" y="-238.4" font-family="Times Roman,serif" font-size="14.00"> Classtype = male1</text>
<text text-anchor="middle" x="934" y="-220.4" font-family="Times Roman,serif" font-size="14.00"> Name = 3.m</text>
</g>
<!-- match_contains11&#45;&gt;Male_S12\n Classtype = male1\n Name = 3.m -->
<g id="edge28" class="edge"><title>match_contains11&#45;&gt;Male_S12\n Classtype = male1\n Name = 3.m</title>
<path fill="none" stroke="black" d="M885.564,-594.348C893.027,-540.057 914.943,-380.632 926.565,-296.084"/>
<polygon fill="black" stroke="black" points="930.035,-296.541 927.93,-286.157 923.101,-295.587 930.035,-296.541"/>
</g>
<!-- trace_link15 -->
<g id="node16" class="node"><title>trace_link15</title>
<ellipse fill="#eedd82" stroke="black" cx="1028" cy="-341" rx="72.1249" ry="18.3848"/>
<text text-anchor="middle" x="1028" y="-337.4" font-family="Times Roman,serif" font-size="14.00">trace_link15</text>
</g>
<!-- Male_T13\n Classtype = male1\n Name = 3.m&#45;&gt;trace_link15 -->
<g id="edge32" class="edge"><title>Male_T13\n Classtype = male1\n Name = 3.m&#45;&gt;trace_link15</title>
<path fill="none" stroke="black" d="M1045.87,-396.289C1042.92,-387.156 1039.88,-377.757 1037.17,-369.358"/>
<polygon fill="black" stroke="black" points="1040.45,-368.133 1034.04,-359.694 1033.79,-370.286 1040.45,-368.133"/>
</g>
<!-- paired_with14&#45;&gt;ApplyModel9 -->
<g id="edge22" class="edge"><title>paired_with14&#45;&gt;ApplyModel9</title>
<path fill="none" stroke="black" d="M1053.32,-668.327C1056.57,-660.026 1060.47,-650.078 1064.06,-640.921"/>
<polygon fill="black" stroke="black" points="1067.39,-641.999 1067.78,-631.411 1060.88,-639.445 1067.39,-641.999"/>
</g>
<!-- trace_link15&#45;&gt;Male_S12\n Classtype = male1\n Name = 3.m -->
<g id="edge30" class="edge"><title>trace_link15&#45;&gt;Male_S12\n Classtype = male1\n Name = 3.m</title>
<path fill="none" stroke="black" d="M1010.76,-322.842C1002.06,-313.684 991.059,-302.094 980.118,-290.571"/>
<polygon fill="black" stroke="black" points="982.387,-287.877 972.963,-283.035 977.31,-292.697 982.387,-287.877"/>
</g>
<!-- apply_contains16 -->
<g id="node17" class="node"><title>apply_contains16</title>
<ellipse fill="#fcdb58" stroke="black" cx="270" cy="-341" rx="96.8736" ry="18.3848"/>
<text text-anchor="middle" x="270" y="-337.4" font-family="Times Roman,serif" font-size="14.00">apply_contains16</text>
</g>
<!-- Female_T19\n Classtype = female1\n Name = 2.f -->
<g id="node20" class="node"><title>Female_T19\n Classtype = female1\n Name = 2.f</title>
<ellipse fill="lightblue" stroke="black" cx="333" cy="-242" rx="114.759" ry="43.8406"/>
<text text-anchor="middle" x="333" y="-256.4" font-family="Times Roman,serif" font-size="14.00">Female_T19</text>
<text text-anchor="middle" x="333" y="-238.4" font-family="Times Roman,serif" font-size="14.00"> Classtype = female1</text>
<text text-anchor="middle" x="333" y="-220.4" font-family="Times Roman,serif" font-size="14.00"> Name = 2.f</text>
</g>
<!-- apply_contains16&#45;&gt;Female_T19\n Classtype = female1\n Name = 2.f -->
<g id="edge36" class="edge"><title>apply_contains16&#45;&gt;Female_T19\n Classtype = female1\n Name = 2.f</title>
<path fill="none" stroke="black" d="M281.85,-322.379C287.141,-314.065 293.663,-303.815 300.258,-293.452"/>
<polygon fill="black" stroke="black" points="303.373,-295.075 305.789,-284.759 297.468,-291.317 303.373,-295.075"/>
</g>
<!-- ApplyModel17 -->
<g id="node18" class="node"><title>ApplyModel17</title>
<ellipse fill="#fed017" stroke="black" cx="300" cy="-440" rx="79.9031" ry="18.3848"/>
<text text-anchor="middle" x="300" y="-436.4" font-family="Times Roman,serif" font-size="14.00">ApplyModel17</text>
</g>
<!-- ApplyModel17&#45;&gt;apply_contains16 -->
<g id="edge34" class="edge"><title>ApplyModel17&#45;&gt;apply_contains16</title>
<path fill="none" stroke="black" d="M294.357,-421.379C289.916,-406.721 283.651,-386.049 278.588,-369.34"/>
<polygon fill="black" stroke="black" points="281.867,-368.093 275.617,-359.538 275.168,-370.123 281.867,-368.093"/>
</g>
<!-- MatchModel18 -->
<g id="node19" class="node"><title>MatchModel18</title>
<ellipse fill="#e15c34" stroke="black" cx="201" cy="-613" rx="82.2301" ry="18.3848"/>
<text text-anchor="middle" x="201" y="-609.4" font-family="Times Roman,serif" font-size="14.00">MatchModel18</text>
</g>
<!-- match_contains20 -->
<g id="node21" class="node"><title>match_contains20</title>
<ellipse fill="#f798a1" stroke="black" cx="101" cy="-440" rx="101.116" ry="18.3848"/>
<text text-anchor="middle" x="101" y="-436.4" font-family="Times Roman,serif" font-size="14.00">match_contains20</text>
</g>
<!-- MatchModel18&#45;&gt;match_contains20 -->
<g id="edge42" class="edge"><title>MatchModel18&#45;&gt;match_contains20</title>
<path fill="none" stroke="black" d="M190.298,-594.486C172.676,-564 137.461,-503.077 116.911,-467.526"/>
<polygon fill="black" stroke="black" points="119.811,-465.549 111.776,-458.642 113.75,-469.052 119.811,-465.549"/>
</g>
<!-- paired_with22 -->
<g id="node23" class="node"><title>paired_with22</title>
<ellipse fill="lightgray" stroke="black" cx="278" cy="-539" rx="82.0244" ry="18.3848"/>
<text text-anchor="middle" x="278" y="-535.4" font-family="Times Roman,serif" font-size="14.00">paired_with22</text>
</g>
<!-- MatchModel18&#45;&gt;paired_with22 -->
<g id="edge40" class="edge"><title>MatchModel18&#45;&gt;paired_with22</title>
<path fill="none" stroke="black" d="M220.034,-594.708C229.638,-585.478 241.435,-574.14 251.875,-564.107"/>
<polygon fill="black" stroke="black" points="254.4,-566.535 259.185,-557.082 249.55,-561.487 254.4,-566.535"/>
</g>
<!-- trace_link23 -->
<g id="node24" class="node"><title>trace_link23</title>
<ellipse fill="#eedd82" stroke="black" cx="333" cy="-143" rx="72.1249" ry="18.3848"/>
<text text-anchor="middle" x="333" y="-139.4" font-family="Times Roman,serif" font-size="14.00">trace_link23</text>
</g>
<!-- Female_T19\n Classtype = female1\n Name = 2.f&#45;&gt;trace_link23 -->
<g id="edge48" class="edge"><title>Female_T19\n Classtype = female1\n Name = 2.f&#45;&gt;trace_link23</title>
<path fill="none" stroke="black" d="M333,-197.712C333,-188.978 333,-180.024 333,-171.956"/>
<polygon fill="black" stroke="black" points="336.5,-171.953 333,-161.953 329.5,-171.953 336.5,-171.953"/>
</g>
<!-- Female_S21\n Classtype = female1\n Name = 2.f -->
<g id="node22" class="node"><title>Female_S21\n Classtype = female1\n Name = 2.f</title>
<ellipse fill="lightblue" stroke="black" cx="333" cy="-44" rx="114.759" ry="43.8406"/>
<text text-anchor="middle" x="333" y="-58.4" font-family="Times Roman,serif" font-size="14.00">Female_S21</text>
<text text-anchor="middle" x="333" y="-40.4" font-family="Times Roman,serif" font-size="14.00"> Classtype = female1</text>
<text text-anchor="middle" x="333" y="-22.4" font-family="Times Roman,serif" font-size="14.00"> Name = 2.f</text>
</g>
<!-- match_contains20&#45;&gt;Female_S21\n Classtype = female1\n Name = 2.f -->
<g id="edge44" class="edge"><title>match_contains20&#45;&gt;Female_S21\n Classtype = female1\n Name = 2.f</title>
<path fill="none" stroke="black" d="M106.767,-421.383C123.276,-370.105 174.559,-223.988 252,-124 260.473,-113.06 270.369,-102.121 280.277,-92.0005"/>
<polygon fill="black" stroke="black" points="282.888,-94.3387 287.473,-84.7873 277.932,-89.3948 282.888,-94.3387"/>
</g>
<!-- paired_with22&#45;&gt;ApplyModel17 -->
<g id="edge38" class="edge"><title>paired_with22&#45;&gt;ApplyModel17</title>
<path fill="none" stroke="black" d="M282.138,-520.379C285.395,-505.721 289.989,-485.049 293.702,-468.34"/>
<polygon fill="black" stroke="black" points="297.128,-469.059 295.881,-458.538 290.294,-467.54 297.128,-469.059"/>
</g>
<!-- trace_link23&#45;&gt;Female_S21\n Classtype = female1\n Name = 2.f -->
<g id="edge46" class="edge"><title>trace_link23&#45;&gt;Female_S21\n Classtype = female1\n Name = 2.f</title>
<path fill="none" stroke="black" d="M333,-124.379C333,-116.81 333,-107.638 333,-98.236"/>
<polygon fill="black" stroke="black" points="336.5,-98.0084 333,-88.0084 329.5,-98.0084 336.5,-98.0084"/>
</g>
<!-- directLink_T24\n&#45;&gt;Female_T19\n Classtype = female1\n Name = 2.f -->
<g id="edge52" class="edge"><title>directLink_T24\n&#45;&gt;Female_T19\n Classtype = female1\n Name = 2.f</title>
<path fill="none" stroke="black" d="M444.371,-323.072C430.557,-313.016 412.645,-299.977 395.239,-287.306"/>
<polygon fill="black" stroke="black" points="396.9,-284.186 386.755,-281.131 392.78,-289.846 396.9,-284.186"/>
</g>
<!-- indirectLink_S25&#45;&gt;Female_S21\n Classtype = female1\n Name = 2.f -->
<g id="edge54" class="edge"><title>indirectLink_S25&#45;&gt;Female_S21\n Classtype = female1\n Name = 2.f</title>
<path fill="none" stroke="black" d="M535.053,-126.318C504.129,-113.719 460.535,-95.9586 421.751,-80.1579"/>
<polygon fill="black" stroke="black" points="422.587,-76.7191 412.005,-76.1874 419.946,-83.2017 422.587,-76.7191"/>
</g>
</g>
</svg>
