<?xml version="1.0" encoding="UTF-8" standalone="no"?>
<!DOCTYPE svg PUBLIC "-//W3C//DTD SVG 1.1//EN"
 "http://www.w3.org/Graphics/SVG/1.1/DTD/svg11.dtd">
<!-- Generated by graphviz version 2.26.3 (20100126.1600)
 -->
<!-- Title: HEmptyPathCondition_HF2F_HM2M_HS2S_HSM2SM Pages: 1 -->
<svg width="2307pt" height="1086pt"
 viewBox="0.00 0.00 2307.00 1086.00" xmlns="http://www.w3.org/2000/svg" xmlns:xlink="http://www.w3.org/1999/xlink">
<g id="graph1" class="graph" transform="scale(1 1) rotate(0) translate(4 1082)">
<title>HEmptyPathCondition_HF2F_HM2M_HS2S_HSM2SM</title>
<polygon fill="white" stroke="white" points="-4,5 -4,-1082 2304,-1082 2304,5 -4,5"/>
<!-- apply_contains0 -->
<g id="node1" class="node"><title>apply_contains0</title>
<ellipse fill="#fcdb58" stroke="black" cx="465" cy="-837" rx="90.0096" ry="18.3848"/>
<text text-anchor="middle" x="465" y="-833.4" font-family="Times Roman,serif" font-size="14.00">apply_contains0</text>
</g>
<!-- Female_T5\n Classtype = t_\n Name = s_ -->
<g id="node6" class="node"><title>Female_T5\n Classtype = t_\n Name = s_</title>
<ellipse fill="lightblue" stroke="black" cx="467" cy="-738" rx="85.7684" ry="43.8406"/>
<text text-anchor="middle" x="467" y="-752.4" font-family="Times Roman,serif" font-size="14.00">Female_T5</text>
<text text-anchor="middle" x="467" y="-734.4" font-family="Times Roman,serif" font-size="14.00"> Classtype = t_</text>
<text text-anchor="middle" x="467" y="-716.4" font-family="Times Roman,serif" font-size="14.00"> Name = s_</text>
</g>
<!-- apply_contains0&#45;&gt;Female_T5\n Classtype = t_\n Name = s_ -->
<g id="edge4" class="edge"><title>apply_contains0&#45;&gt;Female_T5\n Classtype = t_\n Name = s_</title>
<path fill="none" stroke="black" d="M465.376,-818.379C465.529,-810.81 465.714,-801.638 465.904,-792.236"/>
<polygon fill="black" stroke="black" points="469.408,-792.077 466.111,-782.008 462.41,-791.936 469.408,-792.077"/>
</g>
<!-- leftExpr1\n Classtype = None\n Name = None -->
<g id="node2" class="node"><title>leftExpr1\n Classtype = None\n Name = None</title>
<ellipse fill="lightblue" stroke="black" cx="324" cy="-416" rx="101.823" ry="43.8406"/>
<text text-anchor="middle" x="324" y="-430.4" font-family="Times Roman,serif" font-size="14.00">leftExpr1</text>
<text text-anchor="middle" x="324" y="-412.4" font-family="Times Roman,serif" font-size="14.00"> Classtype = None</text>
<text text-anchor="middle" x="324" y="-394.4" font-family="Times Roman,serif" font-size="14.00"> Name = None</text>
</g>
<!-- Attribute12\n Classtype = None\n Name = name -->
<g id="node13" class="node"><title>Attribute12\n Classtype = None\n Name = name</title>
<ellipse fill="lightblue" stroke="black" cx="351" cy="-292" rx="101.823" ry="43.8406"/>
<text text-anchor="middle" x="351" y="-306.4" font-family="Times Roman,serif" font-size="14.00">Attribute12</text>
<text text-anchor="middle" x="351" y="-288.4" font-family="Times Roman,serif" font-size="14.00"> Classtype = None</text>
<text text-anchor="middle" x="351" y="-270.4" font-family="Times Roman,serif" font-size="14.00"> Name = name</text>
</g>
<!-- leftExpr1\n Classtype = None\n Name = None&#45;&gt;Attribute12\n Classtype = None\n Name = name -->
<g id="edge8" class="edge"><title>leftExpr1\n Classtype = None\n Name = None&#45;&gt;Attribute12\n Classtype = None\n Name = name</title>
<path fill="none" stroke="black" d="M333.595,-371.933C335.425,-363.527 337.36,-354.641 339.249,-345.967"/>
<polygon fill="black" stroke="black" points="342.728,-346.441 341.436,-335.925 335.888,-344.951 342.728,-346.441"/>
</g>
<!-- paired_with2 -->
<g id="node3" class="node"><title>paired_with2</title>
<ellipse fill="lightgray" stroke="black" cx="469" cy="-985" rx="75.1594" ry="18.3848"/>
<text text-anchor="middle" x="469" y="-981.4" font-family="Times Roman,serif" font-size="14.00">paired_with2</text>
</g>
<!-- ApplyModel4 -->
<g id="node5" class="node"><title>ApplyModel4</title>
<ellipse fill="#fed017" stroke="black" cx="448" cy="-911" rx="73.0388" ry="18.3848"/>
<text text-anchor="middle" x="448" y="-907.4" font-family="Times Roman,serif" font-size="14.00">ApplyModel4</text>
</g>
<!-- paired_with2&#45;&gt;ApplyModel4 -->
<g id="edge12" class="edge"><title>paired_with2&#45;&gt;ApplyModel4</title>
<path fill="none" stroke="black" d="M463.701,-966.327C461.388,-958.176 458.624,-948.438 456.065,-939.42"/>
<polygon fill="black" stroke="black" points="459.395,-938.332 453.297,-929.667 452.661,-940.243 459.395,-938.332"/>
</g>
<!-- hasAttr_S3\n Classtype = None\n Name = None -->
<g id="node4" class="node"><title>hasAttr_S3\n Classtype = None\n Name = None</title>
<ellipse fill="lightblue" stroke="black" cx="546" cy="-416" rx="101.823" ry="43.8406"/>
<text text-anchor="middle" x="546" y="-430.4" font-family="Times Roman,serif" font-size="14.00">hasAttr_S3</text>
<text text-anchor="middle" x="546" y="-412.4" font-family="Times Roman,serif" font-size="14.00"> Classtype = None</text>
<text text-anchor="middle" x="546" y="-394.4" font-family="Times Roman,serif" font-size="14.00"> Name = None</text>
</g>
<!-- hasAttr_S3\n Classtype = None\n Name = None&#45;&gt;Attribute12\n Classtype = None\n Name = name -->
<g id="edge16" class="edge"><title>hasAttr_S3\n Classtype = None\n Name = None&#45;&gt;Attribute12\n Classtype = None\n Name = name</title>
<path fill="none" stroke="black" d="M488.548,-379.467C466.134,-365.214 440.303,-348.787 417.12,-334.046"/>
<polygon fill="black" stroke="black" points="418.694,-330.899 408.378,-328.486 414.938,-336.806 418.694,-330.899"/>
</g>
<!-- ApplyModel4&#45;&gt;apply_contains0 -->
<g id="edge2" class="edge"><title>ApplyModel4&#45;&gt;apply_contains0</title>
<path fill="none" stroke="black" d="M452.29,-892.327C454.162,-884.176 456.399,-874.438 458.471,-865.42"/>
<polygon fill="black" stroke="black" points="461.884,-866.197 460.712,-855.667 455.061,-864.63 461.884,-866.197"/>
</g>
<!-- trace_link13 -->
<g id="node14" class="node"><title>trace_link13</title>
<ellipse fill="#eedd82" stroke="black" cx="476" cy="-639" rx="72.1249" ry="18.3848"/>
<text text-anchor="middle" x="476" y="-635.4" font-family="Times Roman,serif" font-size="14.00">trace_link13</text>
</g>
<!-- Female_T5\n Classtype = t_\n Name = s_&#45;&gt;trace_link13 -->
<g id="edge28" class="edge"><title>Female_T5\n Classtype = t_\n Name = s_&#45;&gt;trace_link13</title>
<path fill="none" stroke="black" d="M471,-694.001C471.809,-685.096 472.641,-675.95 473.388,-667.737"/>
<polygon fill="black" stroke="black" points="476.892,-667.85 474.311,-657.574 469.92,-667.216 476.892,-667.85"/>
</g>
<!-- Female_S6\n Classtype = 1\n Name = s_ -->
<g id="node7" class="node"><title>Female_S6\n Classtype = 1\n Name = s_</title>
<ellipse fill="lightblue" stroke="black" cx="546" cy="-540" rx="82.2301" ry="43.8406"/>
<text text-anchor="middle" x="546" y="-554.4" font-family="Times Roman,serif" font-size="14.00">Female_S6</text>
<text text-anchor="middle" x="546" y="-536.4" font-family="Times Roman,serif" font-size="14.00"> Classtype = 1</text>
<text text-anchor="middle" x="546" y="-518.4" font-family="Times Roman,serif" font-size="14.00"> Name = s_</text>
</g>
<!-- Female_S6\n Classtype = 1\n Name = s_&#45;&gt;hasAttr_S3\n Classtype = None\n Name = None -->
<g id="edge14" class="edge"><title>Female_S6\n Classtype = 1\n Name = s_&#45;&gt;hasAttr_S3\n Classtype = None\n Name = None</title>
<path fill="none" stroke="black" d="M546,-495.933C546,-487.718 546,-479.043 546,-470.557"/>
<polygon fill="black" stroke="black" points="549.5,-470.343 546,-460.343 542.5,-470.343 549.5,-470.343"/>
</g>
<!-- Equation7\n Classtype = None\n Name = None -->
<g id="node8" class="node"><title>Equation7\n Classtype = None\n Name = None</title>
<ellipse fill="lightblue" stroke="black" cx="213" cy="-540" rx="101.823" ry="43.8406"/>
<text text-anchor="middle" x="213" y="-554.4" font-family="Times Roman,serif" font-size="14.00">Equation7</text>
<text text-anchor="middle" x="213" y="-536.4" font-family="Times Roman,serif" font-size="14.00"> Classtype = None</text>
<text text-anchor="middle" x="213" y="-518.4" font-family="Times Roman,serif" font-size="14.00"> Name = None</text>
</g>
<!-- Equation7\n Classtype = None\n Name = None&#45;&gt;leftExpr1\n Classtype = None\n Name = None -->
<g id="edge6" class="edge"><title>Equation7\n Classtype = None\n Name = None&#45;&gt;leftExpr1\n Classtype = None\n Name = None</title>
<path fill="none" stroke="black" d="M249.961,-498.71C259.697,-487.834 270.293,-475.997 280.345,-464.768"/>
<polygon fill="black" stroke="black" points="283.138,-466.895 287.2,-457.11 277.922,-462.226 283.138,-466.895"/>
</g>
<!-- rightExpr10\n Classtype = None\n Name = None -->
<g id="node11" class="node"><title>rightExpr10\n Classtype = None\n Name = None</title>
<ellipse fill="lightblue" stroke="black" cx="102" cy="-416" rx="101.823" ry="43.8406"/>
<text text-anchor="middle" x="102" y="-430.4" font-family="Times Roman,serif" font-size="14.00">rightExpr10</text>
<text text-anchor="middle" x="102" y="-412.4" font-family="Times Roman,serif" font-size="14.00"> Classtype = None</text>
<text text-anchor="middle" x="102" y="-394.4" font-family="Times Roman,serif" font-size="14.00"> Name = None</text>
</g>
<!-- Equation7\n Classtype = None\n Name = None&#45;&gt;rightExpr10\n Classtype = None\n Name = None -->
<g id="edge20" class="edge"><title>Equation7\n Classtype = None\n Name = None&#45;&gt;rightExpr10\n Classtype = None\n Name = None</title>
<path fill="none" stroke="black" d="M176.039,-498.71C166.303,-487.834 155.707,-475.997 145.655,-464.768"/>
<polygon fill="black" stroke="black" points="148.078,-462.226 138.8,-457.11 142.862,-466.895 148.078,-462.226"/>
</g>
<!-- match_contains8 -->
<g id="node9" class="node"><title>match_contains8</title>
<ellipse fill="#f798a1" stroke="black" cx="634" cy="-911" rx="94.7523" ry="18.3848"/>
<text text-anchor="middle" x="634" y="-907.4" font-family="Times Roman,serif" font-size="14.00">match_contains8</text>
</g>
<!-- match_contains8&#45;&gt;Female_S6\n Classtype = 1\n Name = s_ -->
<g id="edge18" class="edge"><title>match_contains8&#45;&gt;Female_S6\n Classtype = 1\n Name = s_</title>
<path fill="none" stroke="black" d="M629.576,-892.348C616.681,-837.986 578.785,-678.217 558.751,-593.755"/>
<polygon fill="black" stroke="black" points="562.112,-592.762 556.399,-583.84 555.301,-594.378 562.112,-592.762"/>
</g>
<!-- Constant9\n Classtype = None\n Name = None -->
<g id="node10" class="node"><title>Constant9\n Classtype = None\n Name = None</title>
<ellipse fill="lightblue" stroke="black" cx="102" cy="-292" rx="101.823" ry="43.8406"/>
<text text-anchor="middle" x="102" y="-306.4" font-family="Times Roman,serif" font-size="14.00">Constant9</text>
<text text-anchor="middle" x="102" y="-288.4" font-family="Times Roman,serif" font-size="14.00"> Classtype = None</text>
<text text-anchor="middle" x="102" y="-270.4" font-family="Times Roman,serif" font-size="14.00"> Name = None</text>
</g>
<!-- rightExpr10\n Classtype = None\n Name = None&#45;&gt;Constant9\n Classtype = None\n Name = None -->
<g id="edge24" class="edge"><title>rightExpr10\n Classtype = None\n Name = None&#45;&gt;Constant9\n Classtype = None\n Name = None</title>
<path fill="none" stroke="black" d="M102,-371.933C102,-363.718 102,-355.043 102,-346.557"/>
<polygon fill="black" stroke="black" points="105.5,-346.343 102,-336.343 98.5001,-346.343 105.5,-346.343"/>
</g>
<!-- MatchModel11 -->
<g id="node12" class="node"><title>MatchModel11</title>
<ellipse fill="#e15c34" stroke="black" cx="531" cy="-1059" rx="82.2301" ry="18.3848"/>
<text text-anchor="middle" x="531" y="-1055.4" font-family="Times Roman,serif" font-size="14.00">MatchModel11</text>
</g>
<!-- MatchModel11&#45;&gt;paired_with2 -->
<g id="edge10" class="edge"><title>MatchModel11&#45;&gt;paired_with2</title>
<path fill="none" stroke="black" d="M515.674,-1040.71C508.222,-1031.81 499.13,-1020.96 490.957,-1011.21"/>
<polygon fill="black" stroke="black" points="493.469,-1008.76 484.364,-1003.34 488.104,-1013.25 493.469,-1008.76"/>
</g>
<!-- MatchModel11&#45;&gt;match_contains8 -->
<g id="edge22" class="edge"><title>MatchModel11&#45;&gt;match_contains8</title>
<path fill="none" stroke="black" d="M543.837,-1040.55C561.801,-1014.74 594.556,-967.677 615.251,-937.94"/>
<polygon fill="black" stroke="black" points="618.162,-939.885 621.001,-929.678 612.416,-935.886 618.162,-939.885"/>
</g>
<!-- trace_link13&#45;&gt;Female_S6\n Classtype = 1\n Name = s_ -->
<g id="edge26" class="edge"><title>trace_link13&#45;&gt;Female_S6\n Classtype = 1\n Name = s_</title>
<path fill="none" stroke="black" d="M489.166,-620.379C495.352,-611.631 503.053,-600.74 510.768,-589.828"/>
<polygon fill="black" stroke="black" points="513.731,-591.7 516.646,-581.514 508.015,-587.659 513.731,-591.7"/>
</g>
<!-- apply_contains14 -->
<g id="node15" class="node"><title>apply_contains14</title>
<ellipse fill="#fcdb58" stroke="black" cx="908" cy="-639" rx="96.8736" ry="18.3848"/>
<text text-anchor="middle" x="908" y="-635.4" font-family="Times Roman,serif" font-size="14.00">apply_contains14</text>
</g>
<!-- Male_T21\n Classtype = t_\n Name = s_ -->
<g id="node22" class="node"><title>Male_T21\n Classtype = t_\n Name = s_</title>
<ellipse fill="lightblue" stroke="black" cx="908" cy="-540" rx="85.7684" ry="43.8406"/>
<text text-anchor="middle" x="908" y="-554.4" font-family="Times Roman,serif" font-size="14.00">Male_T21</text>
<text text-anchor="middle" x="908" y="-536.4" font-family="Times Roman,serif" font-size="14.00"> Classtype = t_</text>
<text text-anchor="middle" x="908" y="-518.4" font-family="Times Roman,serif" font-size="14.00"> Name = s_</text>
</g>
<!-- apply_contains14&#45;&gt;Male_T21\n Classtype = t_\n Name = s_ -->
<g id="edge32" class="edge"><title>apply_contains14&#45;&gt;Male_T21\n Classtype = t_\n Name = s_</title>
<path fill="none" stroke="black" d="M908,-620.379C908,-612.81 908,-603.638 908,-594.236"/>
<polygon fill="black" stroke="black" points="911.5,-594.008 908,-584.008 904.5,-594.008 911.5,-594.008"/>
</g>
<!-- leftExpr15\n Classtype = None\n Name = None -->
<g id="node16" class="node"><title>leftExpr15\n Classtype = None\n Name = None</title>
<ellipse fill="lightblue" stroke="black" cx="646" cy="-168" rx="101.823" ry="43.8406"/>
<text text-anchor="middle" x="646" y="-182.4" font-family="Times Roman,serif" font-size="14.00">leftExpr15</text>
<text text-anchor="middle" x="646" y="-164.4" font-family="Times Roman,serif" font-size="14.00"> Classtype = None</text>
<text text-anchor="middle" x="646" y="-146.4" font-family="Times Roman,serif" font-size="14.00"> Name = None</text>
</g>
<!-- Attribute25\n Classtype = None\n Name = name -->
<g id="node26" class="node"><title>Attribute25\n Classtype = None\n Name = name</title>
<ellipse fill="lightblue" stroke="black" cx="868" cy="-44" rx="101.823" ry="43.8406"/>
<text text-anchor="middle" x="868" y="-58.4" font-family="Times Roman,serif" font-size="14.00">Attribute25</text>
<text text-anchor="middle" x="868" y="-40.4" font-family="Times Roman,serif" font-size="14.00"> Classtype = None</text>
<text text-anchor="middle" x="868" y="-22.4" font-family="Times Roman,serif" font-size="14.00"> Name = name</text>
</g>
<!-- leftExpr15\n Classtype = None\n Name = None&#45;&gt;Attribute25\n Classtype = None\n Name = name -->
<g id="edge36" class="edge"><title>leftExpr15\n Classtype = None\n Name = None&#45;&gt;Attribute25\n Classtype = None\n Name = name</title>
<path fill="none" stroke="black" d="M708.43,-133.129C735.741,-117.875 767.937,-99.8909 796.231,-84.0871"/>
<polygon fill="black" stroke="black" points="798.246,-86.971 805.269,-79.0388 794.832,-80.8596 798.246,-86.971"/>
</g>
<!-- paired_with16 -->
<g id="node17" class="node"><title>paired_with16</title>
<ellipse fill="lightgray" stroke="black" cx="913" cy="-837" rx="82.0244" ry="18.3848"/>
<text text-anchor="middle" x="913" y="-833.4" font-family="Times Roman,serif" font-size="14.00">paired_with16</text>
</g>
<!-- ApplyModel18 -->
<g id="node19" class="node"><title>ApplyModel18</title>
<ellipse fill="#fed017" stroke="black" cx="945" cy="-738" rx="79.9031" ry="18.3848"/>
<text text-anchor="middle" x="945" y="-734.4" font-family="Times Roman,serif" font-size="14.00">ApplyModel18</text>
</g>
<!-- paired_with16&#45;&gt;ApplyModel18 -->
<g id="edge40" class="edge"><title>paired_with16&#45;&gt;ApplyModel18</title>
<path fill="none" stroke="black" d="M919.019,-818.379C923.757,-803.721 930.439,-783.049 935.84,-766.34"/>
<polygon fill="black" stroke="black" points="939.263,-767.129 939.008,-756.538 932.602,-764.976 939.263,-767.129"/>
</g>
<!-- hasAttr_S17\n Classtype = None\n Name = None -->
<g id="node18" class="node"><title>hasAttr_S17\n Classtype = None\n Name = None</title>
<ellipse fill="lightblue" stroke="black" cx="868" cy="-168" rx="101.823" ry="43.8406"/>
<text text-anchor="middle" x="868" y="-182.4" font-family="Times Roman,serif" font-size="14.00">hasAttr_S17</text>
<text text-anchor="middle" x="868" y="-164.4" font-family="Times Roman,serif" font-size="14.00"> Classtype = None</text>
<text text-anchor="middle" x="868" y="-146.4" font-family="Times Roman,serif" font-size="14.00"> Name = None</text>
</g>
<!-- hasAttr_S17\n Classtype = None\n Name = None&#45;&gt;Attribute25\n Classtype = None\n Name = name -->
<g id="edge44" class="edge"><title>hasAttr_S17\n Classtype = None\n Name = None&#45;&gt;Attribute25\n Classtype = None\n Name = name</title>
<path fill="none" stroke="black" d="M868,-123.933C868,-115.718 868,-107.043 868,-98.5568"/>
<polygon fill="black" stroke="black" points="871.5,-98.3428 868,-88.3428 864.5,-98.3428 871.5,-98.3428"/>
</g>
<!-- ApplyModel18&#45;&gt;apply_contains14 -->
<g id="edge30" class="edge"><title>ApplyModel18&#45;&gt;apply_contains14</title>
<path fill="none" stroke="black" d="M938.041,-719.379C932.563,-704.721 924.837,-684.049 918.592,-667.34"/>
<polygon fill="black" stroke="black" points="921.708,-665.68 914.928,-657.538 915.151,-668.13 921.708,-665.68"/>
</g>
<!-- Equation19\n Classtype = None\n Name = None -->
<g id="node20" class="node"><title>Equation19\n Classtype = None\n Name = None</title>
<ellipse fill="lightblue" stroke="black" cx="627" cy="-292" rx="101.823" ry="43.8406"/>
<text text-anchor="middle" x="627" y="-306.4" font-family="Times Roman,serif" font-size="14.00">Equation19</text>
<text text-anchor="middle" x="627" y="-288.4" font-family="Times Roman,serif" font-size="14.00"> Classtype = None</text>
<text text-anchor="middle" x="627" y="-270.4" font-family="Times Roman,serif" font-size="14.00"> Name = None</text>
</g>
<!-- Equation19\n Classtype = None\n Name = None&#45;&gt;leftExpr15\n Classtype = None\n Name = None -->
<g id="edge34" class="edge"><title>Equation19\n Classtype = None\n Name = None&#45;&gt;leftExpr15\n Classtype = None\n Name = None</title>
<path fill="none" stroke="black" d="M633.752,-247.933C635.04,-239.527 636.402,-230.641 637.731,-221.967"/>
<polygon fill="black" stroke="black" points="641.215,-222.34 639.27,-211.925 634.295,-221.28 641.215,-222.34"/>
</g>
<!-- rightExpr23\n Classtype = None\n Name = None -->
<g id="node24" class="node"><title>rightExpr23\n Classtype = None\n Name = None</title>
<ellipse fill="lightblue" stroke="black" cx="424" cy="-168" rx="101.823" ry="43.8406"/>
<text text-anchor="middle" x="424" y="-182.4" font-family="Times Roman,serif" font-size="14.00">rightExpr23</text>
<text text-anchor="middle" x="424" y="-164.4" font-family="Times Roman,serif" font-size="14.00"> Classtype = None</text>
<text text-anchor="middle" x="424" y="-146.4" font-family="Times Roman,serif" font-size="14.00"> Name = None</text>
</g>
<!-- Equation19\n Classtype = None\n Name = None&#45;&gt;rightExpr23\n Classtype = None\n Name = None -->
<g id="edge46" class="edge"><title>Equation19\n Classtype = None\n Name = None&#45;&gt;rightExpr23\n Classtype = None\n Name = None</title>
<path fill="none" stroke="black" d="M568.011,-255.967C544.136,-241.384 516.43,-224.46 491.734,-209.375"/>
<polygon fill="black" stroke="black" points="493.494,-206.348 483.136,-204.122 489.845,-212.322 493.494,-206.348"/>
</g>
<!-- match_contains20 -->
<g id="node21" class="node"><title>match_contains20</title>
<ellipse fill="#f798a1" stroke="black" cx="746" cy="-738" rx="101.116" ry="18.3848"/>
<text text-anchor="middle" x="746" y="-734.4" font-family="Times Roman,serif" font-size="14.00">match_contains20</text>
</g>
<!-- Male_S26\n Classtype = 1\n Name = s_ -->
<g id="node27" class="node"><title>Male_S26\n Classtype = 1\n Name = s_</title>
<ellipse fill="lightblue" stroke="black" cx="874" cy="-292" rx="82.2301" ry="43.8406"/>
<text text-anchor="middle" x="874" y="-306.4" font-family="Times Roman,serif" font-size="14.00">Male_S26</text>
<text text-anchor="middle" x="874" y="-288.4" font-family="Times Roman,serif" font-size="14.00"> Classtype = 1</text>
<text text-anchor="middle" x="874" y="-270.4" font-family="Times Roman,serif" font-size="14.00"> Name = s_</text>
</g>
<!-- match_contains20&#45;&gt;Male_S26\n Classtype = 1\n Name = s_ -->
<g id="edge50" class="edge"><title>match_contains20&#45;&gt;Male_S26\n Classtype = 1\n Name = s_</title>
<path fill="none" stroke="black" d="M744.588,-719.32C741.159,-663.386 736.623,-493.595 796,-372 802.362,-358.971 811.66,-346.729 821.635,-335.927"/>
<polygon fill="black" stroke="black" points="824.197,-338.313 828.622,-328.686 819.159,-333.452 824.197,-338.313"/>
</g>
<!-- trace_link27 -->
<g id="node28" class="node"><title>trace_link27</title>
<ellipse fill="#eedd82" stroke="black" cx="877" cy="-416" rx="72.1249" ry="18.3848"/>
<text text-anchor="middle" x="877" y="-412.4" font-family="Times Roman,serif" font-size="14.00">trace_link27</text>
</g>
<!-- Male_T21\n Classtype = t_\n Name = s_&#45;&gt;trace_link27 -->
<g id="edge56" class="edge"><title>Male_T21\n Classtype = t_\n Name = s_&#45;&gt;trace_link27</title>
<path fill="none" stroke="black" d="M897.071,-496.282C892.765,-479.06 887.942,-459.77 884.104,-444.416"/>
<polygon fill="black" stroke="black" points="887.443,-443.341 881.622,-434.489 880.652,-445.039 887.443,-443.341"/>
</g>
<!-- Constant22\n Classtype = None\n Name = None -->
<g id="node23" class="node"><title>Constant22\n Classtype = None\n Name = None</title>
<ellipse fill="lightblue" stroke="black" cx="424" cy="-44" rx="101.823" ry="43.8406"/>
<text text-anchor="middle" x="424" y="-58.4" font-family="Times Roman,serif" font-size="14.00">Constant22</text>
<text text-anchor="middle" x="424" y="-40.4" font-family="Times Roman,serif" font-size="14.00"> Classtype = None</text>
<text text-anchor="middle" x="424" y="-22.4" font-family="Times Roman,serif" font-size="14.00"> Name = None</text>
</g>
<!-- rightExpr23\n Classtype = None\n Name = None&#45;&gt;Constant22\n Classtype = None\n Name = None -->
<g id="edge52" class="edge"><title>rightExpr23\n Classtype = None\n Name = None&#45;&gt;Constant22\n Classtype = None\n Name = None</title>
<path fill="none" stroke="black" d="M424,-123.933C424,-115.718 424,-107.043 424,-98.5568"/>
<polygon fill="black" stroke="black" points="427.5,-98.3428 424,-88.3428 420.5,-98.3428 427.5,-98.3428"/>
</g>
<!-- MatchModel24 -->
<g id="node25" class="node"><title>MatchModel24</title>
<ellipse fill="#e15c34" stroke="black" cx="880" cy="-911" rx="82.2301" ry="18.3848"/>
<text text-anchor="middle" x="880" y="-907.4" font-family="Times Roman,serif" font-size="14.00">MatchModel24</text>
</g>
<!-- MatchModel24&#45;&gt;paired_with16 -->
<g id="edge38" class="edge"><title>MatchModel24&#45;&gt;paired_with16</title>
<path fill="none" stroke="black" d="M888.327,-892.327C892.068,-883.937 896.56,-873.866 900.679,-864.629"/>
<polygon fill="black" stroke="black" points="903.913,-865.97 904.79,-855.411 897.52,-863.119 903.913,-865.97"/>
</g>
<!-- MatchModel24&#45;&gt;match_contains20 -->
<g id="edge48" class="edge"><title>MatchModel24&#45;&gt;match_contains20</title>
<path fill="none" stroke="black" d="M858.676,-893.025C847.157,-882.781 833.069,-869.355 822,-856 798.009,-827.053 775.33,-790.137 761.096,-765.371"/>
<polygon fill="black" stroke="black" points="764.05,-763.485 756.07,-756.517 757.963,-766.941 764.05,-763.485"/>
</g>
<!-- Male_S26\n Classtype = 1\n Name = s_&#45;&gt;hasAttr_S17\n Classtype = None\n Name = None -->
<g id="edge42" class="edge"><title>Male_S26\n Classtype = 1\n Name = s_&#45;&gt;hasAttr_S17\n Classtype = None\n Name = None</title>
<path fill="none" stroke="black" d="M871.868,-247.933C871.47,-239.718 871.05,-231.043 870.64,-222.557"/>
<polygon fill="black" stroke="black" points="874.125,-222.162 870.146,-212.343 867.133,-222.5 874.125,-222.162"/>
</g>
<!-- trace_link27&#45;&gt;Male_S26\n Classtype = 1\n Name = s_ -->
<g id="edge54" class="edge"><title>trace_link27&#45;&gt;Male_S26\n Classtype = 1\n Name = s_</title>
<path fill="none" stroke="black" d="M876.551,-397.436C876.221,-383.812 875.756,-364.564 875.312,-346.235"/>
<polygon fill="black" stroke="black" points="878.81,-346.101 875.069,-336.189 871.812,-346.271 878.81,-346.101"/>
</g>
<!-- apply_contains28 -->
<g id="node29" class="node"><title>apply_contains28</title>
<ellipse fill="#fcdb58" stroke="black" cx="1180" cy="-837" rx="96.8736" ry="18.3848"/>
<text text-anchor="middle" x="1180" y="-833.4" font-family="Times Roman,serif" font-size="14.00">apply_contains28</text>
</g>
<!-- Station_T34\n Classtype = t_\n Name = s_ -->
<g id="node35" class="node"><title>Station_T34\n Classtype = t_\n Name = s_</title>
<ellipse fill="lightblue" stroke="black" cx="1180" cy="-738" rx="85.7684" ry="43.8406"/>
<text text-anchor="middle" x="1180" y="-752.4" font-family="Times Roman,serif" font-size="14.00">Station_T34</text>
<text text-anchor="middle" x="1180" y="-734.4" font-family="Times Roman,serif" font-size="14.00"> Classtype = t_</text>
<text text-anchor="middle" x="1180" y="-716.4" font-family="Times Roman,serif" font-size="14.00"> Name = s_</text>
</g>
<!-- apply_contains28&#45;&gt;Station_T34\n Classtype = t_\n Name = s_ -->
<g id="edge60" class="edge"><title>apply_contains28&#45;&gt;Station_T34\n Classtype = t_\n Name = s_</title>
<path fill="none" stroke="black" d="M1180,-818.379C1180,-810.81 1180,-801.638 1180,-792.236"/>
<polygon fill="black" stroke="black" points="1183.5,-792.008 1180,-782.008 1176.5,-792.008 1183.5,-792.008"/>
</g>
<!-- leftExpr29\n Classtype = None\n Name = None -->
<g id="node30" class="node"><title>leftExpr29\n Classtype = None\n Name = None</title>
<ellipse fill="lightblue" stroke="black" cx="1753" cy="-416" rx="101.823" ry="43.8406"/>
<text text-anchor="middle" x="1753" y="-430.4" font-family="Times Roman,serif" font-size="14.00">leftExpr29</text>
<text text-anchor="middle" x="1753" y="-412.4" font-family="Times Roman,serif" font-size="14.00"> Classtype = None</text>
<text text-anchor="middle" x="1753" y="-394.4" font-family="Times Roman,serif" font-size="14.00"> Name = None</text>
</g>
<!-- Attribute40\n Classtype = None\n Name = name -->
<g id="node41" class="node"><title>Attribute40\n Classtype = None\n Name = name</title>
<ellipse fill="lightblue" stroke="black" cx="1753" cy="-292" rx="101.823" ry="43.8406"/>
<text text-anchor="middle" x="1753" y="-306.4" font-family="Times Roman,serif" font-size="14.00">Attribute40</text>
<text text-anchor="middle" x="1753" y="-288.4" font-family="Times Roman,serif" font-size="14.00"> Classtype = None</text>
<text text-anchor="middle" x="1753" y="-270.4" font-family="Times Roman,serif" font-size="14.00"> Name = name</text>
</g>
<!-- leftExpr29\n Classtype = None\n Name = None&#45;&gt;Attribute40\n Classtype = None\n Name = name -->
<g id="edge64" class="edge"><title>leftExpr29\n Classtype = None\n Name = None&#45;&gt;Attribute40\n Classtype = None\n Name = name</title>
<path fill="none" stroke="black" d="M1753,-371.933C1753,-363.718 1753,-355.043 1753,-346.557"/>
<polygon fill="black" stroke="black" points="1756.5,-346.343 1753,-336.343 1749.5,-346.343 1756.5,-346.343"/>
</g>
<!-- paired_with30 -->
<g id="node31" class="node"><title>paired_with30</title>
<ellipse fill="lightgray" stroke="black" cx="1180" cy="-985" rx="82.0244" ry="18.3848"/>
<text text-anchor="middle" x="1180" y="-981.4" font-family="Times Roman,serif" font-size="14.00">paired_with30</text>
</g>
<!-- ApplyModel32 -->
<g id="node33" class="node"><title>ApplyModel32</title>
<ellipse fill="#fed017" stroke="black" cx="1180" cy="-911" rx="79.9031" ry="18.3848"/>
<text text-anchor="middle" x="1180" y="-907.4" font-family="Times Roman,serif" font-size="14.00">ApplyModel32</text>
</g>
<!-- paired_with30&#45;&gt;ApplyModel32 -->
<g id="edge68" class="edge"><title>paired_with30&#45;&gt;ApplyModel32</title>
<path fill="none" stroke="black" d="M1180,-966.327C1180,-958.264 1180,-948.648 1180,-939.711"/>
<polygon fill="black" stroke="black" points="1183.5,-939.667 1180,-929.667 1176.5,-939.667 1183.5,-939.667"/>
</g>
<!-- hasAttr_S31\n Classtype = None\n Name = None -->
<g id="node32" class="node"><title>hasAttr_S31\n Classtype = None\n Name = None</title>
<ellipse fill="lightblue" stroke="black" cx="1531" cy="-416" rx="101.823" ry="43.8406"/>
<text text-anchor="middle" x="1531" y="-430.4" font-family="Times Roman,serif" font-size="14.00">hasAttr_S31</text>
<text text-anchor="middle" x="1531" y="-412.4" font-family="Times Roman,serif" font-size="14.00"> Classtype = None</text>
<text text-anchor="middle" x="1531" y="-394.4" font-family="Times Roman,serif" font-size="14.00"> Name = None</text>
</g>
<!-- hasAttr_S31\n Classtype = None\n Name = None&#45;&gt;Attribute40\n Classtype = None\n Name = name -->
<g id="edge72" class="edge"><title>hasAttr_S31\n Classtype = None\n Name = None&#45;&gt;Attribute40\n Classtype = None\n Name = name</title>
<path fill="none" stroke="black" d="M1593.43,-381.129C1620.74,-365.875 1652.94,-347.891 1681.23,-332.087"/>
<polygon fill="black" stroke="black" points="1683.25,-334.971 1690.27,-327.039 1679.83,-328.86 1683.25,-334.971"/>
</g>
<!-- ApplyModel32&#45;&gt;apply_contains28 -->
<g id="edge58" class="edge"><title>ApplyModel32&#45;&gt;apply_contains28</title>
<path fill="none" stroke="black" d="M1180,-892.327C1180,-884.264 1180,-874.648 1180,-865.711"/>
<polygon fill="black" stroke="black" points="1183.5,-865.667 1180,-855.667 1176.5,-865.667 1183.5,-865.667"/>
</g>
<!-- Station_S33\n Classtype = 1\n Name = s_ -->
<g id="node34" class="node"><title>Station_S33\n Classtype = 1\n Name = s_</title>
<ellipse fill="lightblue" stroke="black" cx="1331" cy="-540" rx="82.2301" ry="43.8406"/>
<text text-anchor="middle" x="1331" y="-554.4" font-family="Times Roman,serif" font-size="14.00">Station_S33</text>
<text text-anchor="middle" x="1331" y="-536.4" font-family="Times Roman,serif" font-size="14.00"> Classtype = 1</text>
<text text-anchor="middle" x="1331" y="-518.4" font-family="Times Roman,serif" font-size="14.00"> Name = s_</text>
</g>
<!-- Station_S33\n Classtype = 1\n Name = s_&#45;&gt;hasAttr_S31\n Classtype = None\n Name = None -->
<g id="edge70" class="edge"><title>Station_S33\n Classtype = 1\n Name = s_&#45;&gt;hasAttr_S31\n Classtype = None\n Name = None</title>
<path fill="none" stroke="black" d="M1384.86,-506.607C1409.18,-491.527 1438.17,-473.554 1463.89,-457.607"/>
<polygon fill="black" stroke="black" points="1465.82,-460.527 1472.48,-452.283 1462.14,-454.578 1465.82,-460.527"/>
</g>
<!-- indirectLink_S47 -->
<g id="node48" class="node"><title>indirectLink_S47</title>
<ellipse fill="lightgreen" stroke="black" cx="1072" cy="-416" rx="92.839" ry="18.3848"/>
<text text-anchor="middle" x="1072" y="-412.4" font-family="Times Roman,serif" font-size="14.00">indirectLink_S47</text>
</g>
<!-- Station_S33\n Classtype = 1\n Name = s_&#45;&gt;indirectLink_S47 -->
<g id="edge86" class="edge"><title>Station_S33\n Classtype = 1\n Name = s_&#45;&gt;indirectLink_S47</title>
<path fill="none" stroke="black" d="M1269.62,-510.614C1222.75,-488.175 1159.25,-457.77 1117.01,-437.55"/>
<polygon fill="black" stroke="black" points="1118.34,-434.306 1107.81,-433.145 1115.32,-440.62 1118.34,-434.306"/>
</g>
<!-- trace_link41 -->
<g id="node42" class="node"><title>trace_link41</title>
<ellipse fill="#eedd82" stroke="black" cx="1281" cy="-639" rx="72.1249" ry="18.3848"/>
<text text-anchor="middle" x="1281" y="-635.4" font-family="Times Roman,serif" font-size="14.00">trace_link41</text>
</g>
<!-- Station_T34\n Classtype = t_\n Name = s_&#45;&gt;trace_link41 -->
<g id="edge84" class="edge"><title>Station_T34\n Classtype = t_\n Name = s_&#45;&gt;trace_link41</title>
<path fill="none" stroke="black" d="M1219.92,-698.873C1231.81,-687.217 1244.52,-674.758 1255.25,-664.24"/>
<polygon fill="black" stroke="black" points="1257.98,-666.464 1262.67,-656.964 1253.08,-661.465 1257.98,-666.464"/>
</g>
<!-- directLink_T42\n -->
<g id="node43" class="node"><title>directLink_T42\n</title>
<ellipse fill="lightyellow" stroke="black" cx="1107" cy="-639" rx="84.1457" ry="18.3848"/>
<text text-anchor="middle" x="1107" y="-635.4" font-family="Times Roman,serif" font-size="14.00">directLink_T42</text>
</g>
<!-- Station_T34\n Classtype = t_\n Name = s_&#45;&gt;directLink_T42\n -->
<g id="edge90" class="edge"><title>Station_T34\n Classtype = t_\n Name = s_&#45;&gt;directLink_T42\n</title>
<path fill="none" stroke="black" d="M1149.46,-696.589C1141.75,-686.122 1133.66,-675.16 1126.65,-665.643"/>
<polygon fill="black" stroke="black" points="1129.29,-663.335 1120.54,-657.364 1123.66,-667.49 1129.29,-663.335"/>
</g>
<!-- Equation35\n Classtype = None\n Name = None -->
<g id="node36" class="node"><title>Equation35\n Classtype = None\n Name = None</title>
<ellipse fill="lightblue" stroke="black" cx="1693" cy="-540" rx="101.823" ry="43.8406"/>
<text text-anchor="middle" x="1693" y="-554.4" font-family="Times Roman,serif" font-size="14.00">Equation35</text>
<text text-anchor="middle" x="1693" y="-536.4" font-family="Times Roman,serif" font-size="14.00"> Classtype = None</text>
<text text-anchor="middle" x="1693" y="-518.4" font-family="Times Roman,serif" font-size="14.00"> Name = None</text>
</g>
<!-- Equation35\n Classtype = None\n Name = None&#45;&gt;leftExpr29\n Classtype = None\n Name = None -->
<g id="edge62" class="edge"><title>Equation35\n Classtype = None\n Name = None&#45;&gt;leftExpr29\n Classtype = None\n Name = None</title>
<path fill="none" stroke="black" d="M1713.99,-496.631C1718.4,-487.517 1723.09,-477.81 1727.64,-468.406"/>
<polygon fill="black" stroke="black" points="1730.92,-469.661 1732.13,-459.135 1724.62,-466.612 1730.92,-469.661"/>
</g>
<!-- rightExpr38\n Classtype = None\n Name = None -->
<g id="node39" class="node"><title>rightExpr38\n Classtype = None\n Name = None</title>
<ellipse fill="lightblue" stroke="black" cx="1309" cy="-416" rx="101.823" ry="43.8406"/>
<text text-anchor="middle" x="1309" y="-430.4" font-family="Times Roman,serif" font-size="14.00">rightExpr38</text>
<text text-anchor="middle" x="1309" y="-412.4" font-family="Times Roman,serif" font-size="14.00"> Classtype = None</text>
<text text-anchor="middle" x="1309" y="-394.4" font-family="Times Roman,serif" font-size="14.00"> Name = None</text>
</g>
<!-- Equation35\n Classtype = None\n Name = None&#45;&gt;rightExpr38\n Classtype = None\n Name = None -->
<g id="edge76" class="edge"><title>Equation35\n Classtype = None\n Name = None&#45;&gt;rightExpr38\n Classtype = None\n Name = None</title>
<path fill="none" stroke="black" d="M1606.29,-516.797C1552.31,-501.808 1481.65,-481.201 1420,-460 1411.05,-456.923 1401.77,-453.544 1392.55,-450.07"/>
<polygon fill="black" stroke="black" points="1393.57,-446.715 1382.98,-446.422 1391.08,-453.255 1393.57,-446.715"/>
</g>
<!-- match_contains36 -->
<g id="node37" class="node"><title>match_contains36</title>
<ellipse fill="#f798a1" stroke="black" cx="1381" cy="-985" rx="101.116" ry="18.3848"/>
<text text-anchor="middle" x="1381" y="-981.4" font-family="Times Roman,serif" font-size="14.00">match_contains36</text>
</g>
<!-- match_contains36&#45;&gt;Station_S33\n Classtype = 1\n Name = s_ -->
<g id="edge74" class="edge"><title>match_contains36&#45;&gt;Station_S33\n Classtype = 1\n Name = s_</title>
<path fill="none" stroke="black" d="M1381,-966.309C1381,-938.234 1381,-883.507 1381,-837 1381,-837 1381,-837 1381,-738 1381,-684.88 1375.9,-671.27 1362,-620 1359.57,-611.026 1356.48,-601.672 1353.2,-592.656"/>
<polygon fill="black" stroke="black" points="1356.38,-591.17 1349.58,-583.041 1349.83,-593.633 1356.38,-591.17"/>
</g>
<!-- Constant37\n Classtype = None\n Name = None -->
<g id="node38" class="node"><title>Constant37\n Classtype = None\n Name = None</title>
<ellipse fill="lightblue" stroke="black" cx="1312" cy="-292" rx="101.823" ry="43.8406"/>
<text text-anchor="middle" x="1312" y="-306.4" font-family="Times Roman,serif" font-size="14.00">Constant37</text>
<text text-anchor="middle" x="1312" y="-288.4" font-family="Times Roman,serif" font-size="14.00"> Classtype = None</text>
<text text-anchor="middle" x="1312" y="-270.4" font-family="Times Roman,serif" font-size="14.00"> Name = None</text>
</g>
<!-- rightExpr38\n Classtype = None\n Name = None&#45;&gt;Constant37\n Classtype = None\n Name = None -->
<g id="edge80" class="edge"><title>rightExpr38\n Classtype = None\n Name = None&#45;&gt;Constant37\n Classtype = None\n Name = None</title>
<path fill="none" stroke="black" d="M1310.07,-371.933C1310.26,-363.718 1310.47,-355.043 1310.68,-346.557"/>
<polygon fill="black" stroke="black" points="1314.18,-346.425 1310.93,-336.343 1307.19,-346.255 1314.18,-346.425"/>
</g>
<!-- MatchModel39 -->
<g id="node40" class="node"><title>MatchModel39</title>
<ellipse fill="#e15c34" stroke="black" cx="1280" cy="-1059" rx="82.2301" ry="18.3848"/>
<text text-anchor="middle" x="1280" y="-1055.4" font-family="Times Roman,serif" font-size="14.00">MatchModel39</text>
</g>
<!-- MatchModel39&#45;&gt;paired_with30 -->
<g id="edge66" class="edge"><title>MatchModel39&#45;&gt;paired_with30</title>
<path fill="none" stroke="black" d="M1256.05,-1041.28C1242.91,-1031.55 1226.44,-1019.37 1212.19,-1008.82"/>
<polygon fill="black" stroke="black" points="1214.22,-1005.97 1204.1,-1002.84 1210.06,-1011.6 1214.22,-1005.97"/>
</g>
<!-- MatchModel39&#45;&gt;match_contains36 -->
<g id="edge78" class="edge"><title>MatchModel39&#45;&gt;match_contains36</title>
<path fill="none" stroke="black" d="M1304.19,-1041.28C1317.36,-1031.62 1333.85,-1019.55 1348.17,-1009.06"/>
<polygon fill="black" stroke="black" points="1350.31,-1011.83 1356.3,-1003.09 1346.17,-1006.18 1350.31,-1011.83"/>
</g>
<!-- trace_link41&#45;&gt;Station_S33\n Classtype = 1\n Name = s_ -->
<g id="edge82" class="edge"><title>trace_link41&#45;&gt;Station_S33\n Classtype = 1\n Name = s_</title>
<path fill="none" stroke="black" d="M1290.4,-620.379C1294.56,-612.148 1299.68,-602.02 1304.86,-591.763"/>
<polygon fill="black" stroke="black" points="1308.02,-593.263 1309.4,-582.759 1301.77,-590.108 1308.02,-593.263"/>
</g>
<!-- directLink_T42\n&#45;&gt;Male_T21\n Classtype = t_\n Name = s_ -->
<g id="edge92" class="edge"><title>directLink_T42\n&#45;&gt;Male_T21\n Classtype = t_\n Name = s_</title>
<path fill="none" stroke="black" d="M1072.79,-621.981C1047.1,-609.201 1011.01,-591.248 979.156,-575.399"/>
<polygon fill="black" stroke="black" points="980.371,-572.095 969.859,-570.774 977.253,-578.362 980.371,-572.095"/>
</g>
<!-- rightExpr43\n Classtype = None\n Name = None -->
<g id="node44" class="node"><title>rightExpr43\n Classtype = None\n Name = None</title>
<ellipse fill="lightblue" stroke="black" cx="2197" cy="-416" rx="101.823" ry="43.8406"/>
<text text-anchor="middle" x="2197" y="-430.4" font-family="Times Roman,serif" font-size="14.00">rightExpr43</text>
<text text-anchor="middle" x="2197" y="-412.4" font-family="Times Roman,serif" font-size="14.00"> Classtype = None</text>
<text text-anchor="middle" x="2197" y="-394.4" font-family="Times Roman,serif" font-size="14.00"> Name = None</text>
</g>
<!-- Constant50\n Classtype = None\n Name = None -->
<g id="node51" class="node"><title>Constant50\n Classtype = None\n Name = None</title>
<ellipse fill="lightblue" stroke="black" cx="2197" cy="-292" rx="101.823" ry="43.8406"/>
<text text-anchor="middle" x="2197" y="-306.4" font-family="Times Roman,serif" font-size="14.00">Constant50</text>
<text text-anchor="middle" x="2197" y="-288.4" font-family="Times Roman,serif" font-size="14.00"> Classtype = None</text>
<text text-anchor="middle" x="2197" y="-270.4" font-family="Times Roman,serif" font-size="14.00"> Name = None</text>
</g>
<!-- rightExpr43\n Classtype = None\n Name = None&#45;&gt;Constant50\n Classtype = None\n Name = None -->
<g id="edge98" class="edge"><title>rightExpr43\n Classtype = None\n Name = None&#45;&gt;Constant50\n Classtype = None\n Name = None</title>
<path fill="none" stroke="black" d="M2197,-371.933C2197,-363.718 2197,-355.043 2197,-346.557"/>
<polygon fill="black" stroke="black" points="2200.5,-346.343 2197,-336.343 2193.5,-346.343 2200.5,-346.343"/>
</g>
<!-- rightExpr44\n Classtype = None\n Name = None -->
<g id="node45" class="node"><title>rightExpr44\n Classtype = None\n Name = None</title>
<ellipse fill="lightblue" stroke="black" cx="1312" cy="-168" rx="101.823" ry="43.8406"/>
<text text-anchor="middle" x="1312" y="-182.4" font-family="Times Roman,serif" font-size="14.00">rightExpr44</text>
<text text-anchor="middle" x="1312" y="-164.4" font-family="Times Roman,serif" font-size="14.00"> Classtype = None</text>
<text text-anchor="middle" x="1312" y="-146.4" font-family="Times Roman,serif" font-size="14.00"> Name = None</text>
</g>
<!-- Constant51\n Classtype = None\n Name = None -->
<g id="node52" class="node"><title>Constant51\n Classtype = None\n Name = None</title>
<ellipse fill="lightblue" stroke="black" cx="1312" cy="-44" rx="101.823" ry="43.8406"/>
<text text-anchor="middle" x="1312" y="-58.4" font-family="Times Roman,serif" font-size="14.00">Constant51</text>
<text text-anchor="middle" x="1312" y="-40.4" font-family="Times Roman,serif" font-size="14.00"> Classtype = None</text>
<text text-anchor="middle" x="1312" y="-22.4" font-family="Times Roman,serif" font-size="14.00"> Name = None</text>
</g>
<!-- rightExpr44\n Classtype = None\n Name = None&#45;&gt;Constant51\n Classtype = None\n Name = None -->
<g id="edge104" class="edge"><title>rightExpr44\n Classtype = None\n Name = None&#45;&gt;Constant51\n Classtype = None\n Name = None</title>
<path fill="none" stroke="black" d="M1312,-123.933C1312,-115.718 1312,-107.043 1312,-98.5568"/>
<polygon fill="black" stroke="black" points="1315.5,-98.3428 1312,-88.3428 1308.5,-98.3428 1315.5,-98.3428"/>
</g>
<!-- Equation45\n Classtype = None\n Name = None -->
<g id="node46" class="node"><title>Equation45\n Classtype = None\n Name = None</title>
<ellipse fill="lightblue" stroke="black" cx="2035" cy="-540" rx="101.823" ry="43.8406"/>
<text text-anchor="middle" x="2035" y="-554.4" font-family="Times Roman,serif" font-size="14.00">Equation45</text>
<text text-anchor="middle" x="2035" y="-536.4" font-family="Times Roman,serif" font-size="14.00"> Classtype = None</text>
<text text-anchor="middle" x="2035" y="-518.4" font-family="Times Roman,serif" font-size="14.00"> Name = None</text>
</g>
<!-- Equation45\n Classtype = None\n Name = None&#45;&gt;rightExpr43\n Classtype = None\n Name = None -->
<g id="edge94" class="edge"><title>Equation45\n Classtype = None\n Name = None&#45;&gt;rightExpr43\n Classtype = None\n Name = None</title>
<path fill="none" stroke="black" d="M2085.37,-501.445C2102.13,-488.615 2120.95,-474.214 2138.28,-460.943"/>
<polygon fill="black" stroke="black" points="2140.85,-463.388 2146.66,-454.531 2136.59,-457.83 2140.85,-463.388"/>
</g>
<!-- leftExpr48\n Classtype = None\n Name = None -->
<g id="node49" class="node"><title>leftExpr48\n Classtype = None\n Name = None</title>
<ellipse fill="lightblue" stroke="black" cx="1975" cy="-416" rx="101.823" ry="43.8406"/>
<text text-anchor="middle" x="1975" y="-430.4" font-family="Times Roman,serif" font-size="14.00">leftExpr48</text>
<text text-anchor="middle" x="1975" y="-412.4" font-family="Times Roman,serif" font-size="14.00"> Classtype = None</text>
<text text-anchor="middle" x="1975" y="-394.4" font-family="Times Roman,serif" font-size="14.00"> Name = None</text>
</g>
<!-- Equation45\n Classtype = None\n Name = None&#45;&gt;leftExpr48\n Classtype = None\n Name = None -->
<g id="edge96" class="edge"><title>Equation45\n Classtype = None\n Name = None&#45;&gt;leftExpr48\n Classtype = None\n Name = None</title>
<path fill="none" stroke="black" d="M2014.01,-496.631C2009.6,-487.517 2004.91,-477.81 2000.36,-468.406"/>
<polygon fill="black" stroke="black" points="2003.38,-466.612 1995.87,-459.135 1997.08,-469.661 2003.38,-466.612"/>
</g>
<!-- Equation46\n Classtype = None\n Name = None -->
<g id="node47" class="node"><title>Equation46\n Classtype = None\n Name = None</title>
<ellipse fill="lightblue" stroke="black" cx="1090" cy="-292" rx="101.823" ry="43.8406"/>
<text text-anchor="middle" x="1090" y="-306.4" font-family="Times Roman,serif" font-size="14.00">Equation46</text>
<text text-anchor="middle" x="1090" y="-288.4" font-family="Times Roman,serif" font-size="14.00"> Classtype = None</text>
<text text-anchor="middle" x="1090" y="-270.4" font-family="Times Roman,serif" font-size="14.00"> Name = None</text>
</g>
<!-- Equation46\n Classtype = None\n Name = None&#45;&gt;rightExpr44\n Classtype = None\n Name = None -->
<g id="edge100" class="edge"><title>Equation46\n Classtype = None\n Name = None&#45;&gt;rightExpr44\n Classtype = None\n Name = None</title>
<path fill="none" stroke="black" d="M1152.43,-257.129C1179.74,-241.875 1211.94,-223.891 1240.23,-208.087"/>
<polygon fill="black" stroke="black" points="1242.25,-210.971 1249.27,-203.039 1238.83,-204.86 1242.25,-210.971"/>
</g>
<!-- leftExpr49\n Classtype = None\n Name = None -->
<g id="node50" class="node"><title>leftExpr49\n Classtype = None\n Name = None</title>
<ellipse fill="lightblue" stroke="black" cx="1090" cy="-168" rx="101.823" ry="43.8406"/>
<text text-anchor="middle" x="1090" y="-182.4" font-family="Times Roman,serif" font-size="14.00">leftExpr49</text>
<text text-anchor="middle" x="1090" y="-164.4" font-family="Times Roman,serif" font-size="14.00"> Classtype = None</text>
<text text-anchor="middle" x="1090" y="-146.4" font-family="Times Roman,serif" font-size="14.00"> Name = None</text>
</g>
<!-- Equation46\n Classtype = None\n Name = None&#45;&gt;leftExpr49\n Classtype = None\n Name = None -->
<g id="edge102" class="edge"><title>Equation46\n Classtype = None\n Name = None&#45;&gt;leftExpr49\n Classtype = None\n Name = None</title>
<path fill="none" stroke="black" d="M1090,-247.933C1090,-239.718 1090,-231.043 1090,-222.557"/>
<polygon fill="black" stroke="black" points="1093.5,-222.343 1090,-212.343 1086.5,-222.343 1093.5,-222.343"/>
</g>
<!-- indirectLink_S47&#45;&gt;Male_S26\n Classtype = 1\n Name = s_ -->
<g id="edge88" class="edge"><title>indirectLink_S47&#45;&gt;Male_S26\n Classtype = 1\n Name = s_</title>
<path fill="none" stroke="black" d="M1043.63,-398.234C1015.71,-380.751 972.163,-353.476 936.18,-330.941"/>
<polygon fill="black" stroke="black" points="938.017,-327.961 927.684,-325.62 934.301,-333.894 938.017,-327.961"/>
</g>
<!-- leftExpr48\n Classtype = None\n Name = None&#45;&gt;Attribute40\n Classtype = None\n Name = name -->
<g id="edge106" class="edge"><title>leftExpr48\n Classtype = None\n Name = None&#45;&gt;Attribute40\n Classtype = None\n Name = name</title>
<path fill="none" stroke="black" d="M1912.57,-381.129C1885.26,-365.875 1853.06,-347.891 1824.77,-332.087"/>
<polygon fill="black" stroke="black" points="1826.17,-328.86 1815.73,-327.039 1822.75,-334.971 1826.17,-328.86"/>
</g>
<!-- leftExpr49\n Classtype = None\n Name = None&#45;&gt;Attribute25\n Classtype = None\n Name = name -->
<g id="edge108" class="edge"><title>leftExpr49\n Classtype = None\n Name = None&#45;&gt;Attribute25\n Classtype = None\n Name = name</title>
<path fill="none" stroke="black" d="M1027.57,-133.129C1000.26,-117.875 968.063,-99.8909 939.769,-84.0871"/>
<polygon fill="black" stroke="black" points="941.168,-80.8596 930.731,-79.0388 937.754,-86.971 941.168,-80.8596"/>
</g>
</g>
</svg>
