<?xml version="1.0" encoding="UTF-8" standalone="no"?>
<!DOCTYPE svg PUBLIC "-//W3C//DTD SVG 1.1//EN"
 "http://www.w3.org/Graphics/SVG/1.1/DTD/svg11.dtd">
<!-- Generated by graphviz version 2.26.3 (20100126.1600)
 -->
<!-- Title: HEmptyPathCondition_HS2S_run1_HF2F_run1_HSF2SF_run1 Pages: 1 -->
<svg width="820pt" height="788pt"
 viewBox="0.00 0.00 820.00 788.00" xmlns="http://www.w3.org/2000/svg" xmlns:xlink="http://www.w3.org/1999/xlink">
<g id="graph1" class="graph" transform="scale(1 1) rotate(0) translate(4 784)">
<title>HEmptyPathCondition_HS2S_run1_HF2F_run1_HSF2SF_run1</title>
<polygon fill="white" stroke="white" points="-4,5 -4,-784 817,-784 817,5 -4,5"/>
<!-- apply_contains0 -->
<g id="node1" class="node"><title>apply_contains0</title>
<ellipse fill="#fcdb58" stroke="black" cx="529" cy="-539" rx="90.0096" ry="18.3848"/>
<text text-anchor="middle" x="529" y="-535.4" font-family="Times Roman,serif" font-size="14.00">apply_contains0</text>
</g>
<!-- Station_T4\n Classtype = station1\n Name = 1.s -->
<g id="node5" class="node"><title>Station_T4\n Classtype = station1\n Name = 1.s</title>
<ellipse fill="lightblue" stroke="black" cx="529" cy="-440" rx="116.172" ry="43.8406"/>
<text text-anchor="middle" x="529" y="-454.4" font-family="Times Roman,serif" font-size="14.00">Station_T4</text>
<text text-anchor="middle" x="529" y="-436.4" font-family="Times Roman,serif" font-size="14.00"> Classtype = station1</text>
<text text-anchor="middle" x="529" y="-418.4" font-family="Times Roman,serif" font-size="14.00"> Name = 1.s</text>
</g>
<!-- apply_contains0&#45;&gt;Station_T4\n Classtype = station1\n Name = 1.s -->
<g id="edge4" class="edge"><title>apply_contains0&#45;&gt;Station_T4\n Classtype = station1\n Name = 1.s</title>
<path fill="none" stroke="black" d="M529,-520.379C529,-512.81 529,-503.638 529,-494.236"/>
<polygon fill="black" stroke="black" points="532.5,-494.008 529,-484.008 525.5,-494.008 532.5,-494.008"/>
</g>
<!-- ApplyModel1 -->
<g id="node2" class="node"><title>ApplyModel1</title>
<ellipse fill="#fed017" stroke="black" cx="529" cy="-613" rx="73.0388" ry="18.3848"/>
<text text-anchor="middle" x="529" y="-609.4" font-family="Times Roman,serif" font-size="14.00">ApplyModel1</text>
</g>
<!-- ApplyModel1&#45;&gt;apply_contains0 -->
<g id="edge2" class="edge"><title>ApplyModel1&#45;&gt;apply_contains0</title>
<path fill="none" stroke="black" d="M529,-594.327C529,-586.264 529,-576.648 529,-567.711"/>
<polygon fill="black" stroke="black" points="532.5,-567.667 529,-557.667 525.5,-567.667 532.5,-567.667"/>
</g>
<!-- MatchModel2 -->
<g id="node3" class="node"><title>MatchModel2</title>
<ellipse fill="#e15c34" stroke="black" cx="623" cy="-761" rx="75.8684" ry="18.3848"/>
<text text-anchor="middle" x="623" y="-757.4" font-family="Times Roman,serif" font-size="14.00">MatchModel2</text>
</g>
<!-- match_contains3 -->
<g id="node4" class="node"><title>match_contains3</title>
<ellipse fill="#f798a1" stroke="black" cx="717" cy="-687" rx="94.7523" ry="18.3848"/>
<text text-anchor="middle" x="717" y="-683.4" font-family="Times Roman,serif" font-size="14.00">match_contains3</text>
</g>
<!-- MatchModel2&#45;&gt;match_contains3 -->
<g id="edge10" class="edge"><title>MatchModel2&#45;&gt;match_contains3</title>
<path fill="none" stroke="black" d="M645.755,-743.087C657.904,-733.523 673.029,-721.615 686.214,-711.236"/>
<polygon fill="black" stroke="black" points="688.437,-713.941 694.129,-705.005 684.107,-708.44 688.437,-713.941"/>
</g>
<!-- paired_with6 -->
<g id="node7" class="node"><title>paired_with6</title>
<ellipse fill="lightgray" stroke="black" cx="529" cy="-687" rx="75.1594" ry="18.3848"/>
<text text-anchor="middle" x="529" y="-683.4" font-family="Times Roman,serif" font-size="14.00">paired_with6</text>
</g>
<!-- MatchModel2&#45;&gt;paired_with6 -->
<g id="edge8" class="edge"><title>MatchModel2&#45;&gt;paired_with6</title>
<path fill="none" stroke="black" d="M600.245,-743.087C588.006,-733.452 572.747,-721.439 559.493,-711.005"/>
<polygon fill="black" stroke="black" points="561.568,-708.184 551.545,-704.748 557.238,-713.684 561.568,-708.184"/>
</g>
<!-- Station_S5\n Classtype = station1\n Name = 1.s -->
<g id="node6" class="node"><title>Station_S5\n Classtype = station1\n Name = 1.s</title>
<ellipse fill="lightblue" stroke="black" cx="623" cy="-242" rx="116.172" ry="43.8406"/>
<text text-anchor="middle" x="623" y="-256.4" font-family="Times Roman,serif" font-size="14.00">Station_S5</text>
<text text-anchor="middle" x="623" y="-238.4" font-family="Times Roman,serif" font-size="14.00"> Classtype = station1</text>
<text text-anchor="middle" x="623" y="-220.4" font-family="Times Roman,serif" font-size="14.00"> Name = 1.s</text>
</g>
<!-- match_contains3&#45;&gt;Station_S5\n Classtype = station1\n Name = 1.s -->
<g id="edge12" class="edge"><title>match_contains3&#45;&gt;Station_S5\n Classtype = station1\n Name = 1.s</title>
<path fill="none" stroke="black" d="M717,-668.309C717,-640.234 717,-585.507 717,-539 717,-539 717,-539 717,-440 717,-386.88 721.411,-369.683 698,-322 692.439,-310.673 684.73,-299.849 676.358,-290.026"/>
<polygon fill="black" stroke="black" points="678.799,-287.504 669.53,-282.372 673.575,-292.164 678.799,-287.504"/>
</g>
<!-- trace_link7 -->
<g id="node8" class="node"><title>trace_link7</title>
<ellipse fill="#eedd82" stroke="black" cx="623" cy="-341" rx="65.7609" ry="18.3848"/>
<text text-anchor="middle" x="623" y="-337.4" font-family="Times Roman,serif" font-size="14.00">trace_link7</text>
</g>
<!-- Station_T4\n Classtype = station1\n Name = 1.s&#45;&gt;trace_link7 -->
<g id="edge16" class="edge"><title>Station_T4\n Classtype = station1\n Name = 1.s&#45;&gt;trace_link7</title>
<path fill="none" stroke="black" d="M568.32,-398.589C578.641,-387.718 589.47,-376.313 598.743,-366.547"/>
<polygon fill="black" stroke="black" points="601.459,-368.77 605.807,-359.108 596.383,-363.95 601.459,-368.77"/>
</g>
<!-- directLink_T16\n -->
<g id="node17" class="node"><title>directLink_T16\n</title>
<ellipse fill="lightyellow" stroke="black" cx="455" cy="-341" rx="84.1457" ry="18.3848"/>
<text text-anchor="middle" x="455" y="-337.4" font-family="Times Roman,serif" font-size="14.00">directLink_T16</text>
</g>
<!-- Station_T4\n Classtype = station1\n Name = 1.s&#45;&gt;directLink_T16\n -->
<g id="edge34" class="edge"><title>Station_T4\n Classtype = station1\n Name = 1.s&#45;&gt;directLink_T16\n</title>
<path fill="none" stroke="black" d="M497.188,-397.441C489.57,-387.249 481.653,-376.657 474.763,-367.439"/>
<polygon fill="black" stroke="black" points="477.552,-365.325 468.762,-359.411 471.945,-369.516 477.552,-365.325"/>
</g>
<!-- indirectLink_S17 -->
<g id="node18" class="node"><title>indirectLink_S17</title>
<ellipse fill="lightgreen" stroke="black" cx="565" cy="-143" rx="92.839" ry="18.3848"/>
<text text-anchor="middle" x="565" y="-139.4" font-family="Times Roman,serif" font-size="14.00">indirectLink_S17</text>
</g>
<!-- Station_S5\n Classtype = station1\n Name = 1.s&#45;&gt;indirectLink_S17 -->
<g id="edge40" class="edge"><title>Station_S5\n Classtype = station1\n Name = 1.s&#45;&gt;indirectLink_S17</title>
<path fill="none" stroke="black" d="M597.729,-198.865C592.02,-189.12 586.114,-179.039 580.917,-170.169"/>
<polygon fill="black" stroke="black" points="583.872,-168.288 575.797,-161.429 577.832,-171.826 583.872,-168.288"/>
</g>
<!-- paired_with6&#45;&gt;ApplyModel1 -->
<g id="edge6" class="edge"><title>paired_with6&#45;&gt;ApplyModel1</title>
<path fill="none" stroke="black" d="M529,-668.327C529,-660.264 529,-650.648 529,-641.711"/>
<polygon fill="black" stroke="black" points="532.5,-641.667 529,-631.667 525.5,-641.667 532.5,-641.667"/>
</g>
<!-- trace_link7&#45;&gt;Station_S5\n Classtype = station1\n Name = 1.s -->
<g id="edge14" class="edge"><title>trace_link7&#45;&gt;Station_S5\n Classtype = station1\n Name = 1.s</title>
<path fill="none" stroke="black" d="M623,-322.379C623,-314.81 623,-305.638 623,-296.236"/>
<polygon fill="black" stroke="black" points="626.5,-296.008 623,-286.008 619.5,-296.008 626.5,-296.008"/>
</g>
<!-- apply_contains8 -->
<g id="node9" class="node"><title>apply_contains8</title>
<ellipse fill="#fcdb58" stroke="black" cx="263" cy="-341" rx="90.0096" ry="18.3848"/>
<text text-anchor="middle" x="263" y="-337.4" font-family="Times Roman,serif" font-size="14.00">apply_contains8</text>
</g>
<!-- Female_T11\n Classtype = female1\n Name = 2.f -->
<g id="node12" class="node"><title>Female_T11\n Classtype = female1\n Name = 2.f</title>
<ellipse fill="lightblue" stroke="black" cx="325" cy="-242" rx="114.759" ry="43.8406"/>
<text text-anchor="middle" x="325" y="-256.4" font-family="Times Roman,serif" font-size="14.00">Female_T11</text>
<text text-anchor="middle" x="325" y="-238.4" font-family="Times Roman,serif" font-size="14.00"> Classtype = female1</text>
<text text-anchor="middle" x="325" y="-220.4" font-family="Times Roman,serif" font-size="14.00"> Name = 2.f</text>
</g>
<!-- apply_contains8&#45;&gt;Female_T11\n Classtype = female1\n Name = 2.f -->
<g id="edge20" class="edge"><title>apply_contains8&#45;&gt;Female_T11\n Classtype = female1\n Name = 2.f</title>
<path fill="none" stroke="black" d="M274.662,-322.379C279.814,-314.152 286.152,-304.031 292.573,-293.779"/>
<polygon fill="black" stroke="black" points="295.619,-295.508 297.961,-285.175 289.687,-291.793 295.619,-295.508"/>
</g>
<!-- ApplyModel9 -->
<g id="node10" class="node"><title>ApplyModel9</title>
<ellipse fill="#fed017" stroke="black" cx="293" cy="-440" rx="73.0388" ry="18.3848"/>
<text text-anchor="middle" x="293" y="-436.4" font-family="Times Roman,serif" font-size="14.00">ApplyModel9</text>
</g>
<!-- ApplyModel9&#45;&gt;apply_contains8 -->
<g id="edge18" class="edge"><title>ApplyModel9&#45;&gt;apply_contains8</title>
<path fill="none" stroke="black" d="M287.357,-421.379C282.916,-406.721 276.651,-386.049 271.588,-369.34"/>
<polygon fill="black" stroke="black" points="274.867,-368.093 268.617,-359.538 268.168,-370.123 274.867,-368.093"/>
</g>
<!-- MatchModel10 -->
<g id="node11" class="node"><title>MatchModel10</title>
<ellipse fill="#e15c34" stroke="black" cx="217" cy="-613" rx="82.2301" ry="18.3848"/>
<text text-anchor="middle" x="217" y="-609.4" font-family="Times Roman,serif" font-size="14.00">MatchModel10</text>
</g>
<!-- match_contains12 -->
<g id="node13" class="node"><title>match_contains12</title>
<ellipse fill="#f798a1" stroke="black" cx="101" cy="-440" rx="101.116" ry="18.3848"/>
<text text-anchor="middle" x="101" y="-436.4" font-family="Times Roman,serif" font-size="14.00">match_contains12</text>
</g>
<!-- MatchModel10&#45;&gt;match_contains12 -->
<g id="edge26" class="edge"><title>MatchModel10&#45;&gt;match_contains12</title>
<path fill="none" stroke="black" d="M195.654,-595.083C184.439,-584.96 170.988,-571.63 161,-558 140.133,-529.524 122.705,-492.736 112.102,-467.864"/>
<polygon fill="black" stroke="black" points="115.332,-466.515 108.249,-458.636 108.873,-469.213 115.332,-466.515"/>
</g>
<!-- paired_with14 -->
<g id="node15" class="node"><title>paired_with14</title>
<ellipse fill="lightgray" stroke="black" cx="252" cy="-539" rx="82.0244" ry="18.3848"/>
<text text-anchor="middle" x="252" y="-535.4" font-family="Times Roman,serif" font-size="14.00">paired_with14</text>
</g>
<!-- MatchModel10&#45;&gt;paired_with14 -->
<g id="edge24" class="edge"><title>MatchModel10&#45;&gt;paired_with14</title>
<path fill="none" stroke="black" d="M225.832,-594.327C229.8,-585.937 234.563,-575.866 238.932,-566.629"/>
<polygon fill="black" stroke="black" points="242.18,-567.947 243.292,-557.411 235.852,-564.954 242.18,-567.947"/>
</g>
<!-- trace_link15 -->
<g id="node16" class="node"><title>trace_link15</title>
<ellipse fill="#eedd82" stroke="black" cx="325" cy="-143" rx="72.1249" ry="18.3848"/>
<text text-anchor="middle" x="325" y="-139.4" font-family="Times Roman,serif" font-size="14.00">trace_link15</text>
</g>
<!-- Female_T11\n Classtype = female1\n Name = 2.f&#45;&gt;trace_link15 -->
<g id="edge32" class="edge"><title>Female_T11\n Classtype = female1\n Name = 2.f&#45;&gt;trace_link15</title>
<path fill="none" stroke="black" d="M325,-197.712C325,-188.978 325,-180.024 325,-171.956"/>
<polygon fill="black" stroke="black" points="328.5,-171.953 325,-161.953 321.5,-171.953 328.5,-171.953"/>
</g>
<!-- Female_S13\n Classtype = female1\n Name = 2.f -->
<g id="node14" class="node"><title>Female_S13\n Classtype = female1\n Name = 2.f</title>
<ellipse fill="lightblue" stroke="black" cx="325" cy="-44" rx="114.759" ry="43.8406"/>
<text text-anchor="middle" x="325" y="-58.4" font-family="Times Roman,serif" font-size="14.00">Female_S13</text>
<text text-anchor="middle" x="325" y="-40.4" font-family="Times Roman,serif" font-size="14.00"> Classtype = female1</text>
<text text-anchor="middle" x="325" y="-22.4" font-family="Times Roman,serif" font-size="14.00"> Name = 2.f</text>
</g>
<!-- match_contains12&#45;&gt;Female_S13\n Classtype = female1\n Name = 2.f -->
<g id="edge28" class="edge"><title>match_contains12&#45;&gt;Female_S13\n Classtype = female1\n Name = 2.f</title>
<path fill="none" stroke="black" d="M106.108,-421.282C120.837,-369.744 167.305,-223.024 244,-124 252.473,-113.06 262.369,-102.121 272.277,-92.0005"/>
<polygon fill="black" stroke="black" points="274.888,-94.3387 279.473,-84.7873 269.932,-89.3948 274.888,-94.3387"/>
</g>
<!-- paired_with14&#45;&gt;ApplyModel9 -->
<g id="edge22" class="edge"><title>paired_with14&#45;&gt;ApplyModel9</title>
<path fill="none" stroke="black" d="M259.712,-520.379C265.839,-505.583 274.505,-484.659 281.459,-467.868"/>
<polygon fill="black" stroke="black" points="284.73,-469.116 285.323,-458.538 278.263,-466.437 284.73,-469.116"/>
</g>
<!-- trace_link15&#45;&gt;Female_S13\n Classtype = female1\n Name = 2.f -->
<g id="edge30" class="edge"><title>trace_link15&#45;&gt;Female_S13\n Classtype = female1\n Name = 2.f</title>
<path fill="none" stroke="black" d="M325,-124.379C325,-116.81 325,-107.638 325,-98.236"/>
<polygon fill="black" stroke="black" points="328.5,-98.0084 325,-88.0084 321.5,-98.0084 328.5,-98.0084"/>
</g>
<!-- directLink_T16\n&#45;&gt;Female_T11\n Classtype = female1\n Name = 2.f -->
<g id="edge36" class="edge"><title>directLink_T16\n&#45;&gt;Female_T11\n Classtype = female1\n Name = 2.f</title>
<path fill="none" stroke="black" d="M431.458,-323.072C418.316,-313.064 401.294,-300.101 384.731,-287.487"/>
<polygon fill="black" stroke="black" points="386.732,-284.612 376.656,-281.338 382.491,-290.181 386.732,-284.612"/>
</g>
<!-- indirectLink_S17&#45;&gt;Female_S13\n Classtype = female1\n Name = 2.f -->
<g id="edge38" class="edge"><title>indirectLink_S17&#45;&gt;Female_S13\n Classtype = female1\n Name = 2.f</title>
<path fill="none" stroke="black" d="M524.559,-126.318C494.14,-113.77 451.307,-96.1018 413.119,-80.3491"/>
<polygon fill="black" stroke="black" points="414.1,-76.9676 403.521,-76.3898 411.43,-83.4387 414.1,-76.9676"/>
</g>
</g>
</svg>
