<?xml version="1.0" encoding="UTF-8" standalone="no"?>
<!DOCTYPE svg PUBLIC "-//W3C//DTD SVG 1.1//EN"
 "http://www.w3.org/Graphics/SVG/1.1/DTD/svg11.dtd">
<!-- Generated by graphviz version 2.26.3 (20100126.1600)
 -->
<!-- Title: HEmptyPathCondition_HS2S_HF2F_HSF2SF Pages: 1 -->
<svg width="1668pt" height="1136pt"
 viewBox="0.00 0.00 1668.00 1136.00" xmlns="http://www.w3.org/2000/svg" xmlns:xlink="http://www.w3.org/1999/xlink">
<g id="graph1" class="graph" transform="scale(1 1) rotate(0) translate(4 1132)">
<title>HEmptyPathCondition_HS2S_HF2F_HSF2SF</title>
<polygon fill="white" stroke="white" points="-4,5 -4,-1132 1665,-1132 1665,5 -4,5"/>
<!-- apply_contains0 -->
<g id="node1" class="node"><title>apply_contains0</title>
<ellipse fill="#fcdb58" stroke="black" cx="774" cy="-887" rx="90.0096" ry="18.3848"/>
<text text-anchor="middle" x="774" y="-883.4" font-family="Times Roman,serif" font-size="14.00">apply_contains0</text>
</g>
<!-- Station_T7\n Classtype = t_\n Name = s_ -->
<g id="node8" class="node"><title>Station_T7\n Classtype = t_\n Name = s_</title>
<ellipse fill="lightblue" stroke="black" cx="841" cy="-788" rx="85.7684" ry="43.8406"/>
<text text-anchor="middle" x="841" y="-802.4" font-family="Times Roman,serif" font-size="14.00">Station_T7</text>
<text text-anchor="middle" x="841" y="-784.4" font-family="Times Roman,serif" font-size="14.00"> Classtype = t_</text>
<text text-anchor="middle" x="841" y="-766.4" font-family="Times Roman,serif" font-size="14.00"> Name = s_</text>
</g>
<!-- apply_contains0&#45;&gt;Station_T7\n Classtype = t_\n Name = s_ -->
<g id="edge4" class="edge"><title>apply_contains0&#45;&gt;Station_T7\n Classtype = t_\n Name = s_</title>
<path fill="none" stroke="black" d="M786.602,-868.379C792.405,-859.805 799.6,-849.173 806.837,-838.479"/>
<polygon fill="black" stroke="black" points="809.918,-840.172 812.624,-829.929 804.12,-836.249 809.918,-840.172"/>
</g>
<!-- hasAttr_T1\n Classtype = None\n Name = None -->
<g id="node2" class="node"><title>hasAttr_T1\n Classtype = None\n Name = None</title>
<ellipse fill="lightblue" stroke="black" cx="666" cy="-664" rx="101.823" ry="43.8406"/>
<text text-anchor="middle" x="666" y="-678.4" font-family="Times Roman,serif" font-size="14.00">hasAttr_T1</text>
<text text-anchor="middle" x="666" y="-660.4" font-family="Times Roman,serif" font-size="14.00"> Classtype = None</text>
<text text-anchor="middle" x="666" y="-642.4" font-family="Times Roman,serif" font-size="14.00"> Name = None</text>
</g>
<!-- Attribute13\n Classtype = None\n Name = name -->
<g id="node14" class="node"><title>Attribute13\n Classtype = None\n Name = name</title>
<ellipse fill="lightblue" stroke="black" cx="634" cy="-540" rx="101.823" ry="43.8406"/>
<text text-anchor="middle" x="634" y="-554.4" font-family="Times Roman,serif" font-size="14.00">Attribute13</text>
<text text-anchor="middle" x="634" y="-536.4" font-family="Times Roman,serif" font-size="14.00"> Classtype = None</text>
<text text-anchor="middle" x="634" y="-518.4" font-family="Times Roman,serif" font-size="14.00"> Name = name</text>
</g>
<!-- hasAttr_T1\n Classtype = None\n Name = None&#45;&gt;Attribute13\n Classtype = None\n Name = name -->
<g id="edge8" class="edge"><title>hasAttr_T1\n Classtype = None\n Name = None&#45;&gt;Attribute13\n Classtype = None\n Name = name</title>
<path fill="none" stroke="black" d="M654.628,-619.933C652.435,-611.436 650.115,-602.447 647.854,-593.685"/>
<polygon fill="black" stroke="black" points="651.223,-592.733 645.335,-583.925 644.445,-594.482 651.223,-592.733"/>
</g>
<!-- leftExpr2\n Classtype = None\n Name = None -->
<g id="node3" class="node"><title>leftExpr2\n Classtype = None\n Name = None</title>
<ellipse fill="lightblue" stroke="black" cx="385" cy="-540" rx="101.823" ry="43.8406"/>
<text text-anchor="middle" x="385" y="-554.4" font-family="Times Roman,serif" font-size="14.00">leftExpr2</text>
<text text-anchor="middle" x="385" y="-536.4" font-family="Times Roman,serif" font-size="14.00"> Classtype = None</text>
<text text-anchor="middle" x="385" y="-518.4" font-family="Times Roman,serif" font-size="14.00"> Name = None</text>
</g>
<!-- Attribute12\n Classtype = None\n Name = name -->
<g id="node13" class="node"><title>Attribute12\n Classtype = None\n Name = name</title>
<ellipse fill="lightblue" stroke="black" cx="454" cy="-292" rx="101.823" ry="43.8406"/>
<text text-anchor="middle" x="454" y="-306.4" font-family="Times Roman,serif" font-size="14.00">Attribute12</text>
<text text-anchor="middle" x="454" y="-288.4" font-family="Times Roman,serif" font-size="14.00"> Classtype = None</text>
<text text-anchor="middle" x="454" y="-270.4" font-family="Times Roman,serif" font-size="14.00"> Name = name</text>
</g>
<!-- leftExpr2\n Classtype = None\n Name = None&#45;&gt;Attribute12\n Classtype = None\n Name = name -->
<g id="edge12" class="edge"><title>leftExpr2\n Classtype = None\n Name = None&#45;&gt;Attribute12\n Classtype = None\n Name = name</title>
<path fill="none" stroke="black" d="M416.247,-497.78C423.528,-486.069 430.469,-472.99 435,-460 447.747,-423.455 452.403,-379.986 453.922,-346.421"/>
<polygon fill="black" stroke="black" points="457.423,-346.465 454.298,-336.341 450.428,-346.204 457.423,-346.465"/>
</g>
<!-- paired_with3 -->
<g id="node4" class="node"><title>paired_with3</title>
<ellipse fill="lightgray" stroke="black" cx="736" cy="-1035" rx="75.1594" ry="18.3848"/>
<text text-anchor="middle" x="736" y="-1031.4" font-family="Times Roman,serif" font-size="14.00">paired_with3</text>
</g>
<!-- ApplyModel5 -->
<g id="node6" class="node"><title>ApplyModel5</title>
<ellipse fill="#fed017" stroke="black" cx="741" cy="-961" rx="73.0388" ry="18.3848"/>
<text text-anchor="middle" x="741" y="-957.4" font-family="Times Roman,serif" font-size="14.00">ApplyModel5</text>
</g>
<!-- paired_with3&#45;&gt;ApplyModel5 -->
<g id="edge16" class="edge"><title>paired_with3&#45;&gt;ApplyModel5</title>
<path fill="none" stroke="black" d="M737.262,-1016.33C737.806,-1008.26 738.456,-998.648 739.06,-989.711"/>
<polygon fill="black" stroke="black" points="742.556,-989.881 739.739,-979.667 735.572,-989.409 742.556,-989.881"/>
</g>
<!-- hasAttr_S4\n Classtype = None\n Name = None -->
<g id="node5" class="node"><title>hasAttr_S4\n Classtype = None\n Name = None</title>
<ellipse fill="lightblue" stroke="black" cx="624" cy="-416" rx="101.823" ry="43.8406"/>
<text text-anchor="middle" x="624" y="-430.4" font-family="Times Roman,serif" font-size="14.00">hasAttr_S4</text>
<text text-anchor="middle" x="624" y="-412.4" font-family="Times Roman,serif" font-size="14.00"> Classtype = None</text>
<text text-anchor="middle" x="624" y="-394.4" font-family="Times Roman,serif" font-size="14.00"> Name = None</text>
</g>
<!-- hasAttr_S4\n Classtype = None\n Name = None&#45;&gt;Attribute12\n Classtype = None\n Name = name -->
<g id="edge20" class="edge"><title>hasAttr_S4\n Classtype = None\n Name = None&#45;&gt;Attribute12\n Classtype = None\n Name = name</title>
<path fill="none" stroke="black" d="M572.071,-378.122C553.868,-364.845 533.269,-349.82 514.431,-336.079"/>
<polygon fill="black" stroke="black" points="516.339,-333.139 506.197,-330.073 512.214,-338.794 516.339,-333.139"/>
</g>
<!-- ApplyModel5&#45;&gt;apply_contains0 -->
<g id="edge2" class="edge"><title>ApplyModel5&#45;&gt;apply_contains0</title>
<path fill="none" stroke="black" d="M749.327,-942.327C753.04,-934.001 757.492,-924.019 761.585,-914.84"/>
<polygon fill="black" stroke="black" points="764.799,-916.226 765.675,-905.667 758.406,-913.375 764.799,-916.226"/>
</g>
<!-- Station_S6\n Classtype = 1\n Name = s_ -->
<g id="node7" class="node"><title>Station_S6\n Classtype = 1\n Name = s_</title>
<ellipse fill="lightblue" stroke="black" cx="850" cy="-540" rx="82.2301" ry="43.8406"/>
<text text-anchor="middle" x="850" y="-554.4" font-family="Times Roman,serif" font-size="14.00">Station_S6</text>
<text text-anchor="middle" x="850" y="-536.4" font-family="Times Roman,serif" font-size="14.00"> Classtype = 1</text>
<text text-anchor="middle" x="850" y="-518.4" font-family="Times Roman,serif" font-size="14.00"> Name = s_</text>
</g>
<!-- Station_S6\n Classtype = 1\n Name = s_&#45;&gt;hasAttr_S4\n Classtype = None\n Name = None -->
<g id="edge18" class="edge"><title>Station_S6\n Classtype = 1\n Name = s_&#45;&gt;hasAttr_S4\n Classtype = None\n Name = None</title>
<path fill="none" stroke="black" d="M792.386,-508.389C763.105,-492.323 727.232,-472.641 696.133,-455.577"/>
<polygon fill="black" stroke="black" points="697.524,-452.348 687.073,-450.607 694.157,-458.485 697.524,-452.348"/>
</g>
<!-- indirectLink_S35 -->
<g id="node36" class="node"><title>indirectLink_S35</title>
<ellipse fill="lightgreen" stroke="black" cx="857" cy="-416" rx="92.839" ry="18.3848"/>
<text text-anchor="middle" x="857" y="-412.4" font-family="Times Roman,serif" font-size="14.00">indirectLink_S35</text>
</g>
<!-- Station_S6\n Classtype = 1\n Name = s_&#45;&gt;indirectLink_S35 -->
<g id="edge66" class="edge"><title>Station_S6\n Classtype = 1\n Name = s_&#45;&gt;indirectLink_S35</title>
<path fill="none" stroke="black" d="M852.488,-495.933C853.443,-479.016 854.508,-460.151 855.363,-444.997"/>
<polygon fill="black" stroke="black" points="858.875,-444.882 855.944,-434.7 851.886,-444.487 858.875,-444.882"/>
</g>
<!-- Station_T7\n Classtype = t_\n Name = s_&#45;&gt;hasAttr_T1\n Classtype = None\n Name = None -->
<g id="edge6" class="edge"><title>Station_T7\n Classtype = t_\n Name = s_&#45;&gt;hasAttr_T1\n Classtype = None\n Name = None</title>
<path fill="none" stroke="black" d="M790.383,-752.134C770.775,-738.241 748.143,-722.204 727.604,-707.651"/>
<polygon fill="black" stroke="black" points="729.429,-704.655 719.246,-701.729 725.382,-710.366 729.429,-704.655"/>
</g>
<!-- trace_link14 -->
<g id="node15" class="node"><title>trace_link14</title>
<ellipse fill="#eedd82" stroke="black" cx="858" cy="-664" rx="72.1249" ry="18.3848"/>
<text text-anchor="middle" x="858" y="-660.4" font-family="Times Roman,serif" font-size="14.00">trace_link14</text>
</g>
<!-- Station_T7\n Classtype = t_\n Name = s_&#45;&gt;trace_link14 -->
<g id="edge32" class="edge"><title>Station_T7\n Classtype = t_\n Name = s_&#45;&gt;trace_link14</title>
<path fill="none" stroke="black" d="M847.041,-743.933C849.361,-727.016 851.947,-708.151 854.025,-692.997"/>
<polygon fill="black" stroke="black" points="857.545,-693.083 855.436,-682.7 850.61,-692.132 857.545,-693.083"/>
</g>
<!-- directLink_T30\n -->
<g id="node31" class="node"><title>directLink_T30\n</title>
<ellipse fill="lightyellow" stroke="black" cx="1032" cy="-664" rx="84.1457" ry="18.3848"/>
<text text-anchor="middle" x="1032" y="-660.4" font-family="Times Roman,serif" font-size="14.00">directLink_T30</text>
</g>
<!-- Station_T7\n Classtype = t_\n Name = s_&#45;&gt;directLink_T30\n -->
<g id="edge86" class="edge"><title>Station_T7\n Classtype = t_\n Name = s_&#45;&gt;directLink_T30\n</title>
<path fill="none" stroke="black" d="M894.458,-753.294C927.063,-732.127 967.836,-705.656 996.494,-687.051"/>
<polygon fill="black" stroke="black" points="998.496,-689.925 1004.98,-681.544 994.684,-684.053 998.496,-689.925"/>
</g>
<!-- Equation8\n Classtype = None\n Name = None -->
<g id="node9" class="node"><title>Equation8\n Classtype = None\n Name = None</title>
<ellipse fill="lightblue" stroke="black" cx="341" cy="-788" rx="101.823" ry="43.8406"/>
<text text-anchor="middle" x="341" y="-802.4" font-family="Times Roman,serif" font-size="14.00">Equation8</text>
<text text-anchor="middle" x="341" y="-784.4" font-family="Times Roman,serif" font-size="14.00"> Classtype = None</text>
<text text-anchor="middle" x="341" y="-766.4" font-family="Times Roman,serif" font-size="14.00"> Name = None</text>
</g>
<!-- Equation8\n Classtype = None\n Name = None&#45;&gt;leftExpr2\n Classtype = None\n Name = None -->
<g id="edge10" class="edge"><title>Equation8\n Classtype = None\n Name = None&#45;&gt;leftExpr2\n Classtype = None\n Name = None</title>
<path fill="none" stroke="black" d="M311.309,-745.796C304.618,-734.085 298.472,-721.002 295,-708 284.911,-670.213 278.978,-655.679 295,-620 301.054,-606.519 310.626,-594.384 321.313,-583.878"/>
<polygon fill="black" stroke="black" points="323.914,-586.239 328.86,-576.869 319.15,-581.11 323.914,-586.239"/>
</g>
<!-- rightExpr10\n Classtype = None\n Name = None -->
<g id="node11" class="node"><title>rightExpr10\n Classtype = None\n Name = None</title>
<ellipse fill="lightblue" stroke="black" cx="406" cy="-664" rx="101.823" ry="43.8406"/>
<text text-anchor="middle" x="406" y="-678.4" font-family="Times Roman,serif" font-size="14.00">rightExpr10</text>
<text text-anchor="middle" x="406" y="-660.4" font-family="Times Roman,serif" font-size="14.00"> Classtype = None</text>
<text text-anchor="middle" x="406" y="-642.4" font-family="Times Roman,serif" font-size="14.00"> Name = None</text>
</g>
<!-- Equation8\n Classtype = None\n Name = None&#45;&gt;rightExpr10\n Classtype = None\n Name = None -->
<g id="edge24" class="edge"><title>Equation8\n Classtype = None\n Name = None&#45;&gt;rightExpr10\n Classtype = None\n Name = None</title>
<path fill="none" stroke="black" d="M363.551,-744.979C368.442,-735.649 373.665,-725.685 378.716,-716.05"/>
<polygon fill="black" stroke="black" points="381.946,-717.427 383.488,-706.945 375.746,-714.177 381.946,-717.427"/>
</g>
<!-- match_contains9 -->
<g id="node10" class="node"><title>match_contains9</title>
<ellipse fill="#f798a1" stroke="black" cx="544" cy="-1035" rx="94.7523" ry="18.3848"/>
<text text-anchor="middle" x="544" y="-1031.4" font-family="Times Roman,serif" font-size="14.00">match_contains9</text>
</g>
<!-- match_contains9&#45;&gt;Station_S6\n Classtype = 1\n Name = s_ -->
<g id="edge22" class="edge"><title>match_contains9&#45;&gt;Station_S6\n Classtype = 1\n Name = s_</title>
<path fill="none" stroke="black" d="M542.342,-1016.33C539.999,-988.274 536,-933.575 536,-887 536,-887 536,-887 536,-788 536,-712.857 503.886,-675.079 555,-620 613.464,-557.001 662.692,-608.744 745,-584 755.833,-580.743 767.071,-576.743 777.991,-572.495"/>
<polygon fill="black" stroke="black" points="779.493,-575.664 787.487,-568.711 776.902,-569.162 779.493,-575.664"/>
</g>
<!-- rightExpr10\n Classtype = None\n Name = None&#45;&gt;Attribute13\n Classtype = None\n Name = name -->
<g id="edge28" class="edge"><title>rightExpr10\n Classtype = None\n Name = None&#45;&gt;Attribute13\n Classtype = None\n Name = name</title>
<path fill="none" stroke="black" d="M469.511,-629.459C498.05,-613.938 531.88,-595.539 561.417,-579.475"/>
<polygon fill="black" stroke="black" points="563.322,-582.423 570.435,-574.571 559.978,-576.274 563.322,-582.423"/>
</g>
<!-- MatchModel11 -->
<g id="node12" class="node"><title>MatchModel11</title>
<ellipse fill="#e15c34" stroke="black" cx="640" cy="-1109" rx="82.2301" ry="18.3848"/>
<text text-anchor="middle" x="640" y="-1105.4" font-family="Times Roman,serif" font-size="14.00">MatchModel11</text>
</g>
<!-- MatchModel11&#45;&gt;paired_with3 -->
<g id="edge14" class="edge"><title>MatchModel11&#45;&gt;paired_with3</title>
<path fill="none" stroke="black" d="M663.239,-1091.09C675.738,-1081.45 691.322,-1069.44 704.858,-1059.01"/>
<polygon fill="black" stroke="black" points="707.192,-1061.63 712.975,-1052.75 702.918,-1056.08 707.192,-1061.63"/>
</g>
<!-- MatchModel11&#45;&gt;match_contains9 -->
<g id="edge26" class="edge"><title>MatchModel11&#45;&gt;match_contains9</title>
<path fill="none" stroke="black" d="M616.761,-1091.09C604.354,-1081.52 588.907,-1069.62 575.441,-1059.24"/>
<polygon fill="black" stroke="black" points="577.415,-1056.34 567.358,-1053 573.141,-1061.88 577.415,-1056.34"/>
</g>
<!-- trace_link14&#45;&gt;Station_S6\n Classtype = 1\n Name = s_ -->
<g id="edge30" class="edge"><title>trace_link14&#45;&gt;Station_S6\n Classtype = 1\n Name = s_</title>
<path fill="none" stroke="black" d="M856.802,-645.436C855.923,-631.812 854.682,-612.564 853.499,-594.235"/>
<polygon fill="black" stroke="black" points="856.988,-593.943 852.851,-584.189 850.002,-594.394 856.988,-593.943"/>
</g>
<!-- apply_contains15 -->
<g id="node16" class="node"><title>apply_contains15</title>
<ellipse fill="#fcdb58" stroke="black" cx="1231" cy="-664" rx="96.8736" ry="18.3848"/>
<text text-anchor="middle" x="1231" y="-660.4" font-family="Times Roman,serif" font-size="14.00">apply_contains15</text>
</g>
<!-- Female_T21\n Classtype = t_\n Name = s_ -->
<g id="node22" class="node"><title>Female_T21\n Classtype = t_\n Name = s_</title>
<ellipse fill="lightblue" stroke="black" cx="1131" cy="-540" rx="85.7684" ry="43.8406"/>
<text text-anchor="middle" x="1131" y="-554.4" font-family="Times Roman,serif" font-size="14.00">Female_T21</text>
<text text-anchor="middle" x="1131" y="-536.4" font-family="Times Roman,serif" font-size="14.00"> Classtype = t_</text>
<text text-anchor="middle" x="1131" y="-518.4" font-family="Times Roman,serif" font-size="14.00"> Name = s_</text>
</g>
<!-- apply_contains15&#45;&gt;Female_T21\n Classtype = t_\n Name = s_ -->
<g id="edge36" class="edge"><title>apply_contains15&#45;&gt;Female_T21\n Classtype = t_\n Name = s_</title>
<path fill="none" stroke="black" d="M1216.24,-645.703C1204.11,-630.657 1186.34,-608.622 1170.16,-588.56"/>
<polygon fill="black" stroke="black" points="1172.82,-586.283 1163.82,-580.696 1167.37,-590.677 1172.82,-586.283"/>
</g>
<!-- hasAttr_T16\n Classtype = None\n Name = None -->
<g id="node17" class="node"><title>hasAttr_T16\n Classtype = None\n Name = None</title>
<ellipse fill="lightblue" stroke="black" cx="1233" cy="-416" rx="101.823" ry="43.8406"/>
<text text-anchor="middle" x="1233" y="-430.4" font-family="Times Roman,serif" font-size="14.00">hasAttr_T16</text>
<text text-anchor="middle" x="1233" y="-412.4" font-family="Times Roman,serif" font-size="14.00"> Classtype = None</text>
<text text-anchor="middle" x="1233" y="-394.4" font-family="Times Roman,serif" font-size="14.00"> Name = None</text>
</g>
<!-- Attribute28\n Classtype = None\n Name = name -->
<g id="node29" class="node"><title>Attribute28\n Classtype = None\n Name = name</title>
<ellipse fill="lightblue" stroke="black" cx="1368" cy="-292" rx="101.823" ry="43.8406"/>
<text text-anchor="middle" x="1368" y="-306.4" font-family="Times Roman,serif" font-size="14.00">Attribute28</text>
<text text-anchor="middle" x="1368" y="-288.4" font-family="Times Roman,serif" font-size="14.00"> Classtype = None</text>
<text text-anchor="middle" x="1368" y="-270.4" font-family="Times Roman,serif" font-size="14.00"> Name = name</text>
</g>
<!-- hasAttr_T16\n Classtype = None\n Name = None&#45;&gt;Attribute28\n Classtype = None\n Name = name -->
<g id="edge40" class="edge"><title>hasAttr_T16\n Classtype = None\n Name = None&#45;&gt;Attribute28\n Classtype = None\n Name = name</title>
<path fill="none" stroke="black" d="M1276.46,-376.083C1289.34,-364.246 1303.58,-351.174 1316.9,-338.936"/>
<polygon fill="black" stroke="black" points="1319.63,-341.184 1324.62,-331.842 1314.89,-336.029 1319.63,-341.184"/>
</g>
<!-- leftExpr17\n Classtype = None\n Name = None -->
<g id="node18" class="node"><title>leftExpr17\n Classtype = None\n Name = None</title>
<ellipse fill="lightblue" stroke="black" cx="1510" cy="-168" rx="101.823" ry="43.8406"/>
<text text-anchor="middle" x="1510" y="-182.4" font-family="Times Roman,serif" font-size="14.00">leftExpr17</text>
<text text-anchor="middle" x="1510" y="-164.4" font-family="Times Roman,serif" font-size="14.00"> Classtype = None</text>
<text text-anchor="middle" x="1510" y="-146.4" font-family="Times Roman,serif" font-size="14.00"> Name = None</text>
</g>
<!-- Attribute27\n Classtype = None\n Name = name -->
<g id="node28" class="node"><title>Attribute27\n Classtype = None\n Name = name</title>
<ellipse fill="lightblue" stroke="black" cx="1113" cy="-44" rx="101.823" ry="43.8406"/>
<text text-anchor="middle" x="1113" y="-58.4" font-family="Times Roman,serif" font-size="14.00">Attribute27</text>
<text text-anchor="middle" x="1113" y="-40.4" font-family="Times Roman,serif" font-size="14.00"> Classtype = None</text>
<text text-anchor="middle" x="1113" y="-22.4" font-family="Times Roman,serif" font-size="14.00"> Name = name</text>
</g>
<!-- leftExpr17\n Classtype = None\n Name = None&#45;&gt;Attribute27\n Classtype = None\n Name = name -->
<g id="edge44" class="edge"><title>leftExpr17\n Classtype = None\n Name = None&#45;&gt;Attribute27\n Classtype = None\n Name = name</title>
<path fill="none" stroke="black" d="M1427.26,-142.156C1362.5,-121.929 1272.47,-93.8087 1205.36,-72.8489"/>
<polygon fill="black" stroke="black" points="1206.22,-69.4509 1195.63,-69.8103 1204.14,-76.1325 1206.22,-69.4509"/>
</g>
<!-- paired_with18 -->
<g id="node19" class="node"><title>paired_with18</title>
<ellipse fill="lightgray" stroke="black" cx="1179" cy="-887" rx="82.0244" ry="18.3848"/>
<text text-anchor="middle" x="1179" y="-883.4" font-family="Times Roman,serif" font-size="14.00">paired_with18</text>
</g>
<!-- ApplyModel20 -->
<g id="node21" class="node"><title>ApplyModel20</title>
<ellipse fill="#fed017" stroke="black" cx="1197" cy="-788" rx="79.9031" ry="18.3848"/>
<text text-anchor="middle" x="1197" y="-784.4" font-family="Times Roman,serif" font-size="14.00">ApplyModel20</text>
</g>
<!-- paired_with18&#45;&gt;ApplyModel20 -->
<g id="edge48" class="edge"><title>paired_with18&#45;&gt;ApplyModel20</title>
<path fill="none" stroke="black" d="M1182.39,-868.379C1185.03,-853.86 1188.74,-833.439 1191.76,-816.814"/>
<polygon fill="black" stroke="black" points="1195.28,-817.002 1193.63,-806.538 1188.4,-815.75 1195.28,-817.002"/>
</g>
<!-- hasAttr_S19\n Classtype = None\n Name = None -->
<g id="node20" class="node"><title>hasAttr_S19\n Classtype = None\n Name = None</title>
<ellipse fill="lightblue" stroke="black" cx="1113" cy="-168" rx="101.823" ry="43.8406"/>
<text text-anchor="middle" x="1113" y="-182.4" font-family="Times Roman,serif" font-size="14.00">hasAttr_S19</text>
<text text-anchor="middle" x="1113" y="-164.4" font-family="Times Roman,serif" font-size="14.00"> Classtype = None</text>
<text text-anchor="middle" x="1113" y="-146.4" font-family="Times Roman,serif" font-size="14.00"> Name = None</text>
</g>
<!-- hasAttr_S19\n Classtype = None\n Name = None&#45;&gt;Attribute27\n Classtype = None\n Name = name -->
<g id="edge52" class="edge"><title>hasAttr_S19\n Classtype = None\n Name = None&#45;&gt;Attribute27\n Classtype = None\n Name = name</title>
<path fill="none" stroke="black" d="M1113,-123.933C1113,-115.718 1113,-107.043 1113,-98.5568"/>
<polygon fill="black" stroke="black" points="1116.5,-98.3428 1113,-88.3428 1109.5,-98.3428 1116.5,-98.3428"/>
</g>
<!-- ApplyModel20&#45;&gt;apply_contains15 -->
<g id="edge34" class="edge"><title>ApplyModel20&#45;&gt;apply_contains15</title>
<path fill="none" stroke="black" d="M1202.09,-769.436C1207.67,-749.073 1216.7,-716.147 1223.18,-692.506"/>
<polygon fill="black" stroke="black" points="1226.61,-693.261 1225.88,-682.691 1219.86,-691.409 1226.61,-693.261"/>
</g>
<!-- Female_T21\n Classtype = t_\n Name = s_&#45;&gt;hasAttr_T16\n Classtype = None\n Name = None -->
<g id="edge38" class="edge"><title>Female_T21\n Classtype = t_\n Name = s_&#45;&gt;hasAttr_T16\n Classtype = None\n Name = None</title>
<path fill="none" stroke="black" d="M1164.4,-499.398C1173.28,-488.599 1182.98,-476.813 1192.21,-465.592"/>
<polygon fill="black" stroke="black" points="1195.18,-467.49 1198.83,-457.543 1189.77,-463.043 1195.18,-467.49"/>
</g>
<!-- trace_link29 -->
<g id="node30" class="node"><title>trace_link29</title>
<ellipse fill="#eedd82" stroke="black" cx="1041" cy="-416" rx="72.1249" ry="18.3848"/>
<text text-anchor="middle" x="1041" y="-412.4" font-family="Times Roman,serif" font-size="14.00">trace_link29</text>
</g>
<!-- Female_T21\n Classtype = t_\n Name = s_&#45;&gt;trace_link29 -->
<g id="edge64" class="edge"><title>Female_T21\n Classtype = t_\n Name = s_&#45;&gt;trace_link29</title>
<path fill="none" stroke="black" d="M1101.03,-498.71C1087.66,-480.282 1072.28,-459.097 1060.44,-442.781"/>
<polygon fill="black" stroke="black" points="1062.96,-440.303 1054.26,-434.265 1057.3,-444.414 1062.96,-440.303"/>
</g>
<!-- Female_S22\n Classtype = 1\n Name = s_ -->
<g id="node23" class="node"><title>Female_S22\n Classtype = 1\n Name = s_</title>
<ellipse fill="lightblue" stroke="black" cx="1103" cy="-292" rx="82.2301" ry="43.8406"/>
<text text-anchor="middle" x="1103" y="-306.4" font-family="Times Roman,serif" font-size="14.00">Female_S22</text>
<text text-anchor="middle" x="1103" y="-288.4" font-family="Times Roman,serif" font-size="14.00"> Classtype = 1</text>
<text text-anchor="middle" x="1103" y="-270.4" font-family="Times Roman,serif" font-size="14.00"> Name = s_</text>
</g>
<!-- Female_S22\n Classtype = 1\n Name = s_&#45;&gt;hasAttr_S19\n Classtype = None\n Name = None -->
<g id="edge50" class="edge"><title>Female_S22\n Classtype = 1\n Name = s_&#45;&gt;hasAttr_S19\n Classtype = None\n Name = None</title>
<path fill="none" stroke="black" d="M1106.55,-247.933C1107.22,-239.718 1107.92,-231.043 1108.6,-222.557"/>
<polygon fill="black" stroke="black" points="1112.11,-222.592 1109.42,-212.343 1105.13,-222.029 1112.11,-222.592"/>
</g>
<!-- Equation23\n Classtype = None\n Name = None -->
<g id="node24" class="node"><title>Equation23\n Classtype = None\n Name = None</title>
<ellipse fill="lightblue" stroke="black" cx="1558" cy="-540" rx="101.823" ry="43.8406"/>
<text text-anchor="middle" x="1558" y="-554.4" font-family="Times Roman,serif" font-size="14.00">Equation23</text>
<text text-anchor="middle" x="1558" y="-536.4" font-family="Times Roman,serif" font-size="14.00"> Classtype = None</text>
<text text-anchor="middle" x="1558" y="-518.4" font-family="Times Roman,serif" font-size="14.00"> Name = None</text>
</g>
<!-- Equation23\n Classtype = None\n Name = None&#45;&gt;leftExpr17\n Classtype = None\n Name = None -->
<g id="edge42" class="edge"><title>Equation23\n Classtype = None\n Name = None&#45;&gt;leftExpr17\n Classtype = None\n Name = None</title>
<path fill="none" stroke="black" d="M1587.69,-497.796C1594.38,-486.085 1600.53,-473.002 1604,-460 1614.09,-422.213 1612.38,-410.203 1604,-372 1591.96,-317.111 1563.69,-259.378 1541.28,-219.394"/>
<polygon fill="black" stroke="black" points="1544.29,-217.602 1536.3,-210.636 1538.2,-221.059 1544.29,-217.602"/>
</g>
<!-- rightExpr25\n Classtype = None\n Name = None -->
<g id="node26" class="node"><title>rightExpr25\n Classtype = None\n Name = None</title>
<ellipse fill="lightblue" stroke="black" cx="1493" cy="-416" rx="101.823" ry="43.8406"/>
<text text-anchor="middle" x="1493" y="-430.4" font-family="Times Roman,serif" font-size="14.00">rightExpr25</text>
<text text-anchor="middle" x="1493" y="-412.4" font-family="Times Roman,serif" font-size="14.00"> Classtype = None</text>
<text text-anchor="middle" x="1493" y="-394.4" font-family="Times Roman,serif" font-size="14.00"> Name = None</text>
</g>
<!-- Equation23\n Classtype = None\n Name = None&#45;&gt;rightExpr25\n Classtype = None\n Name = None -->
<g id="edge56" class="edge"><title>Equation23\n Classtype = None\n Name = None&#45;&gt;rightExpr25\n Classtype = None\n Name = None</title>
<path fill="none" stroke="black" d="M1535.45,-496.979C1530.56,-487.649 1525.34,-477.685 1520.28,-468.05"/>
<polygon fill="black" stroke="black" points="1523.25,-466.177 1515.51,-458.945 1517.05,-469.427 1523.25,-466.177"/>
</g>
<!-- match_contains24 -->
<g id="node25" class="node"><title>match_contains24</title>
<ellipse fill="#f798a1" stroke="black" cx="1380" cy="-887" rx="101.116" ry="18.3848"/>
<text text-anchor="middle" x="1380" y="-883.4" font-family="Times Roman,serif" font-size="14.00">match_contains24</text>
</g>
<!-- match_contains24&#45;&gt;Female_S22\n Classtype = 1\n Name = s_ -->
<g id="edge54" class="edge"><title>match_contains24&#45;&gt;Female_S22\n Classtype = 1\n Name = s_</title>
<path fill="none" stroke="black" d="M1377.6,-868.241C1372.91,-829.931 1363,-739.908 1363,-664 1363,-664 1363,-664 1363,-540 1363,-464.857 1391.33,-430.36 1344,-372 1333.52,-359.075 1251.55,-333.564 1186.08,-314.812"/>
<polygon fill="black" stroke="black" points="1186.72,-311.354 1176.14,-311.98 1184.8,-318.086 1186.72,-311.354"/>
</g>
<!-- rightExpr25\n Classtype = None\n Name = None&#45;&gt;Attribute28\n Classtype = None\n Name = name -->
<g id="edge60" class="edge"><title>rightExpr25\n Classtype = None\n Name = None&#45;&gt;Attribute28\n Classtype = None\n Name = name</title>
<path fill="none" stroke="black" d="M1452.07,-375.398C1440.63,-364.05 1428.09,-351.613 1416.27,-339.887"/>
<polygon fill="black" stroke="black" points="1418.59,-337.251 1409.02,-332.693 1413.66,-342.221 1418.59,-337.251"/>
</g>
<!-- MatchModel26 -->
<g id="node27" class="node"><title>MatchModel26</title>
<ellipse fill="#e15c34" stroke="black" cx="1279" cy="-961" rx="82.2301" ry="18.3848"/>
<text text-anchor="middle" x="1279" y="-957.4" font-family="Times Roman,serif" font-size="14.00">MatchModel26</text>
</g>
<!-- MatchModel26&#45;&gt;paired_with18 -->
<g id="edge46" class="edge"><title>MatchModel26&#45;&gt;paired_with18</title>
<path fill="none" stroke="black" d="M1255.05,-943.275C1241.91,-933.553 1225.44,-921.367 1211.19,-910.824"/>
<polygon fill="black" stroke="black" points="1213.22,-907.972 1203.1,-904.837 1209.06,-913.599 1213.22,-907.972"/>
</g>
<!-- MatchModel26&#45;&gt;match_contains24 -->
<g id="edge58" class="edge"><title>MatchModel26&#45;&gt;match_contains24</title>
<path fill="none" stroke="black" d="M1303.19,-943.275C1316.36,-933.624 1332.85,-921.547 1347.17,-911.057"/>
<polygon fill="black" stroke="black" points="1349.31,-913.828 1355.3,-905.094 1345.17,-908.181 1349.31,-913.828"/>
</g>
<!-- trace_link29&#45;&gt;Female_S22\n Classtype = 1\n Name = s_ -->
<g id="edge62" class="edge"><title>trace_link29&#45;&gt;Female_S22\n Classtype = 1\n Name = s_</title>
<path fill="none" stroke="black" d="M1050.28,-397.436C1057.43,-383.146 1067.66,-362.67 1077.22,-343.558"/>
<polygon fill="black" stroke="black" points="1080.35,-345.119 1081.7,-334.609 1074.09,-341.988 1080.35,-345.119"/>
</g>
<!-- directLink_T30\n&#45;&gt;Female_T21\n Classtype = t_\n Name = s_ -->
<g id="edge88" class="edge"><title>directLink_T30\n&#45;&gt;Female_T21\n Classtype = t_\n Name = s_</title>
<path fill="none" stroke="black" d="M1046.61,-645.703C1058.57,-630.716 1076.07,-608.796 1092.04,-588.798"/>
<polygon fill="black" stroke="black" points="1094.8,-590.955 1098.3,-580.957 1089.33,-586.588 1094.8,-590.955"/>
</g>
<!-- rightExpr31\n Classtype = None\n Name = None -->
<g id="node32" class="node"><title>rightExpr31\n Classtype = None\n Name = None</title>
<ellipse fill="lightblue" stroke="black" cx="102" cy="-416" rx="101.823" ry="43.8406"/>
<text text-anchor="middle" x="102" y="-430.4" font-family="Times Roman,serif" font-size="14.00">rightExpr31</text>
<text text-anchor="middle" x="102" y="-412.4" font-family="Times Roman,serif" font-size="14.00"> Classtype = None</text>
<text text-anchor="middle" x="102" y="-394.4" font-family="Times Roman,serif" font-size="14.00"> Name = None</text>
</g>
<!-- Constant38\n Classtype = None\n Name = None -->
<g id="node39" class="node"><title>Constant38\n Classtype = None\n Name = None</title>
<ellipse fill="lightblue" stroke="black" cx="102" cy="-292" rx="101.823" ry="43.8406"/>
<text text-anchor="middle" x="102" y="-306.4" font-family="Times Roman,serif" font-size="14.00">Constant38</text>
<text text-anchor="middle" x="102" y="-288.4" font-family="Times Roman,serif" font-size="14.00"> Classtype = None</text>
<text text-anchor="middle" x="102" y="-270.4" font-family="Times Roman,serif" font-size="14.00"> Name = None</text>
</g>
<!-- rightExpr31\n Classtype = None\n Name = None&#45;&gt;Constant38\n Classtype = None\n Name = None -->
<g id="edge74" class="edge"><title>rightExpr31\n Classtype = None\n Name = None&#45;&gt;Constant38\n Classtype = None\n Name = None</title>
<path fill="none" stroke="black" d="M102,-371.933C102,-363.718 102,-355.043 102,-346.557"/>
<polygon fill="black" stroke="black" points="105.5,-346.343 102,-336.343 98.5001,-346.343 105.5,-346.343"/>
</g>
<!-- rightExpr32\n Classtype = None\n Name = None -->
<g id="node33" class="node"><title>rightExpr32\n Classtype = None\n Name = None</title>
<ellipse fill="lightblue" stroke="black" cx="669" cy="-168" rx="101.823" ry="43.8406"/>
<text text-anchor="middle" x="669" y="-182.4" font-family="Times Roman,serif" font-size="14.00">rightExpr32</text>
<text text-anchor="middle" x="669" y="-164.4" font-family="Times Roman,serif" font-size="14.00"> Classtype = None</text>
<text text-anchor="middle" x="669" y="-146.4" font-family="Times Roman,serif" font-size="14.00"> Name = None</text>
</g>
<!-- Constant39\n Classtype = None\n Name = None -->
<g id="node40" class="node"><title>Constant39\n Classtype = None\n Name = None</title>
<ellipse fill="lightblue" stroke="black" cx="669" cy="-44" rx="101.823" ry="43.8406"/>
<text text-anchor="middle" x="669" y="-58.4" font-family="Times Roman,serif" font-size="14.00">Constant39</text>
<text text-anchor="middle" x="669" y="-40.4" font-family="Times Roman,serif" font-size="14.00"> Classtype = None</text>
<text text-anchor="middle" x="669" y="-22.4" font-family="Times Roman,serif" font-size="14.00"> Name = None</text>
</g>
<!-- rightExpr32\n Classtype = None\n Name = None&#45;&gt;Constant39\n Classtype = None\n Name = None -->
<g id="edge80" class="edge"><title>rightExpr32\n Classtype = None\n Name = None&#45;&gt;Constant39\n Classtype = None\n Name = None</title>
<path fill="none" stroke="black" d="M669,-123.933C669,-115.718 669,-107.043 669,-98.5568"/>
<polygon fill="black" stroke="black" points="672.5,-98.3428 669,-88.3428 665.5,-98.3428 672.5,-98.3428"/>
</g>
<!-- Equation33\n Classtype = None\n Name = None -->
<g id="node34" class="node"><title>Equation33\n Classtype = None\n Name = None</title>
<ellipse fill="lightblue" stroke="black" cx="109" cy="-540" rx="101.823" ry="43.8406"/>
<text text-anchor="middle" x="109" y="-554.4" font-family="Times Roman,serif" font-size="14.00">Equation33</text>
<text text-anchor="middle" x="109" y="-536.4" font-family="Times Roman,serif" font-size="14.00"> Classtype = None</text>
<text text-anchor="middle" x="109" y="-518.4" font-family="Times Roman,serif" font-size="14.00"> Name = None</text>
</g>
<!-- Equation33\n Classtype = None\n Name = None&#45;&gt;rightExpr31\n Classtype = None\n Name = None -->
<g id="edge70" class="edge"><title>Equation33\n Classtype = None\n Name = None&#45;&gt;rightExpr31\n Classtype = None\n Name = None</title>
<path fill="none" stroke="black" d="M106.512,-495.933C106.049,-487.718 105.559,-479.043 105.08,-470.557"/>
<polygon fill="black" stroke="black" points="108.561,-470.13 104.503,-460.343 101.572,-470.524 108.561,-470.13"/>
</g>
<!-- leftExpr36\n Classtype = None\n Name = None -->
<g id="node37" class="node"><title>leftExpr36\n Classtype = None\n Name = None</title>
<ellipse fill="lightblue" stroke="black" cx="324" cy="-416" rx="101.823" ry="43.8406"/>
<text text-anchor="middle" x="324" y="-430.4" font-family="Times Roman,serif" font-size="14.00">leftExpr36</text>
<text text-anchor="middle" x="324" y="-412.4" font-family="Times Roman,serif" font-size="14.00"> Classtype = None</text>
<text text-anchor="middle" x="324" y="-394.4" font-family="Times Roman,serif" font-size="14.00"> Name = None</text>
</g>
<!-- Equation33\n Classtype = None\n Name = None&#45;&gt;leftExpr36\n Classtype = None\n Name = None -->
<g id="edge72" class="edge"><title>Equation33\n Classtype = None\n Name = None&#45;&gt;leftExpr36\n Classtype = None\n Name = None</title>
<path fill="none" stroke="black" d="M170.323,-504.633C196.305,-489.647 226.731,-472.1 253.623,-456.59"/>
<polygon fill="black" stroke="black" points="255.682,-459.442 262.596,-451.414 252.185,-453.379 255.682,-459.442"/>
</g>
<!-- Equation34\n Classtype = None\n Name = None -->
<g id="node35" class="node"><title>Equation34\n Classtype = None\n Name = None</title>
<ellipse fill="lightblue" stroke="black" cx="815" cy="-292" rx="101.823" ry="43.8406"/>
<text text-anchor="middle" x="815" y="-306.4" font-family="Times Roman,serif" font-size="14.00">Equation34</text>
<text text-anchor="middle" x="815" y="-288.4" font-family="Times Roman,serif" font-size="14.00"> Classtype = None</text>
<text text-anchor="middle" x="815" y="-270.4" font-family="Times Roman,serif" font-size="14.00"> Name = None</text>
</g>
<!-- Equation34\n Classtype = None\n Name = None&#45;&gt;rightExpr32\n Classtype = None\n Name = None -->
<g id="edge76" class="edge"><title>Equation34\n Classtype = None\n Name = None&#45;&gt;rightExpr32\n Classtype = None\n Name = None</title>
<path fill="none" stroke="black" d="M768.805,-252.766C754.292,-240.44 738.138,-226.72 723.127,-213.971"/>
<polygon fill="black" stroke="black" points="725.284,-211.211 715.396,-207.405 720.752,-216.546 725.284,-211.211"/>
</g>
<!-- leftExpr37\n Classtype = None\n Name = None -->
<g id="node38" class="node"><title>leftExpr37\n Classtype = None\n Name = None</title>
<ellipse fill="lightblue" stroke="black" cx="891" cy="-168" rx="101.823" ry="43.8406"/>
<text text-anchor="middle" x="891" y="-182.4" font-family="Times Roman,serif" font-size="14.00">leftExpr37</text>
<text text-anchor="middle" x="891" y="-164.4" font-family="Times Roman,serif" font-size="14.00"> Classtype = None</text>
<text text-anchor="middle" x="891" y="-146.4" font-family="Times Roman,serif" font-size="14.00"> Name = None</text>
</g>
<!-- Equation34\n Classtype = None\n Name = None&#45;&gt;leftExpr37\n Classtype = None\n Name = None -->
<g id="edge78" class="edge"><title>Equation34\n Classtype = None\n Name = None&#45;&gt;leftExpr37\n Classtype = None\n Name = None</title>
<path fill="none" stroke="black" d="M841.155,-249.326C847.066,-239.681 853.402,-229.343 859.508,-219.382"/>
<polygon fill="black" stroke="black" points="862.555,-221.107 864.797,-210.752 856.587,-217.449 862.555,-221.107"/>
</g>
<!-- indirectLink_S35&#45;&gt;Female_S22\n Classtype = 1\n Name = s_ -->
<g id="edge68" class="edge"><title>indirectLink_S35&#45;&gt;Female_S22\n Classtype = 1\n Name = s_</title>
<path fill="none" stroke="black" d="M891.205,-398.758C927.964,-380.229 987.38,-350.28 1033.94,-326.812"/>
<polygon fill="black" stroke="black" points="1035.71,-329.837 1043.07,-322.21 1032.56,-323.586 1035.71,-329.837"/>
</g>
<!-- leftExpr36\n Classtype = None\n Name = None&#45;&gt;Attribute12\n Classtype = None\n Name = name -->
<g id="edge82" class="edge"><title>leftExpr36\n Classtype = None\n Name = None&#45;&gt;Attribute12\n Classtype = None\n Name = name</title>
<path fill="none" stroke="black" d="M366.207,-375.741C378.354,-364.154 391.718,-351.408 404.275,-339.43"/>
<polygon fill="black" stroke="black" points="406.739,-341.916 411.56,-332.482 401.908,-336.851 406.739,-341.916"/>
</g>
<!-- leftExpr37\n Classtype = None\n Name = None&#45;&gt;Attribute27\n Classtype = None\n Name = name -->
<g id="edge84" class="edge"><title>leftExpr37\n Classtype = None\n Name = None&#45;&gt;Attribute27\n Classtype = None\n Name = name</title>
<path fill="none" stroke="black" d="M953.43,-133.129C980.741,-117.875 1012.94,-99.8909 1041.23,-84.0871"/>
<polygon fill="black" stroke="black" points="1043.25,-86.971 1050.27,-79.0388 1039.83,-80.8596 1043.25,-86.971"/>
</g>
</g>
</svg>
