<?xml version="1.0" encoding="UTF-8" standalone="no"?>
<!DOCTYPE svg PUBLIC "-//W3C//DTD SVG 1.1//EN"
 "http://www.w3.org/Graphics/SVG/1.1/DTD/svg11.dtd">
<!-- Generated by graphviz version 2.26.3 (20100126.1600)
 -->
<!-- Title: HEmptyPathCondition_HS2S_run1 Pages: 1 -->
<svg width="394pt" height="590pt"
 viewBox="0.00 0.00 394.00 590.00" xmlns="http://www.w3.org/2000/svg" xmlns:xlink="http://www.w3.org/1999/xlink">
<g id="graph1" class="graph" transform="scale(1 1) rotate(0) translate(4 586)">
<title>HEmptyPathCondition_HS2S_run1</title>
<polygon fill="white" stroke="white" points="-4,5 -4,-586 391,-586 391,5 -4,5"/>
<!-- apply_contains0 -->
<g id="node1" class="node"><title>apply_contains0</title>
<ellipse fill="#fcdb58" stroke="black" cx="275" cy="-341" rx="90.0096" ry="18.3848"/>
<text text-anchor="middle" x="275" y="-337.4" font-family="Times Roman,serif" font-size="14.00">apply_contains0</text>
</g>
<!-- Station_T4\n Classtype = station1\n Name = 1.s -->
<g id="node5" class="node"><title>Station_T4\n Classtype = station1\n Name = 1.s</title>
<ellipse fill="lightblue" stroke="black" cx="270" cy="-242" rx="116.172" ry="43.8406"/>
<text text-anchor="middle" x="270" y="-256.4" font-family="Times Roman,serif" font-size="14.00">Station_T4</text>
<text text-anchor="middle" x="270" y="-238.4" font-family="Times Roman,serif" font-size="14.00"> Classtype = station1</text>
<text text-anchor="middle" x="270" y="-220.4" font-family="Times Roman,serif" font-size="14.00"> Name = 1.s</text>
</g>
<!-- apply_contains0&#45;&gt;Station_T4\n Classtype = station1\n Name = 1.s -->
<g id="edge4" class="edge"><title>apply_contains0&#45;&gt;Station_T4\n Classtype = station1\n Name = 1.s</title>
<path fill="none" stroke="black" d="M274.06,-322.379C273.677,-314.81 273.214,-305.638 272.739,-296.236"/>
<polygon fill="black" stroke="black" points="276.223,-295.819 272.223,-286.008 269.232,-296.172 276.223,-295.819"/>
</g>
<!-- ApplyModel1 -->
<g id="node2" class="node"><title>ApplyModel1</title>
<ellipse fill="#fed017" stroke="black" cx="281" cy="-415" rx="73.0388" ry="18.3848"/>
<text text-anchor="middle" x="281" y="-411.4" font-family="Times Roman,serif" font-size="14.00">ApplyModel1</text>
</g>
<!-- ApplyModel1&#45;&gt;apply_contains0 -->
<g id="edge2" class="edge"><title>ApplyModel1&#45;&gt;apply_contains0</title>
<path fill="none" stroke="black" d="M279.486,-396.327C278.832,-388.264 278.053,-378.648 277.328,-369.711"/>
<polygon fill="black" stroke="black" points="280.81,-369.352 276.514,-359.667 273.833,-369.918 280.81,-369.352"/>
</g>
<!-- MatchModel2 -->
<g id="node3" class="node"><title>MatchModel2</title>
<ellipse fill="#e15c34" stroke="black" cx="198" cy="-563" rx="75.8684" ry="18.3848"/>
<text text-anchor="middle" x="198" y="-559.4" font-family="Times Roman,serif" font-size="14.00">MatchModel2</text>
</g>
<!-- match_contains3 -->
<g id="node4" class="node"><title>match_contains3</title>
<ellipse fill="#f798a1" stroke="black" cx="95" cy="-415" rx="94.7523" ry="18.3848"/>
<text text-anchor="middle" x="95" y="-411.4" font-family="Times Roman,serif" font-size="14.00">match_contains3</text>
</g>
<!-- MatchModel2&#45;&gt;match_contains3 -->
<g id="edge10" class="edge"><title>MatchModel2&#45;&gt;match_contains3</title>
<path fill="none" stroke="black" d="M185.163,-544.555C167.199,-518.742 134.444,-471.677 113.749,-441.94"/>
<polygon fill="black" stroke="black" points="116.584,-439.886 107.999,-433.678 110.838,-443.885 116.584,-439.886"/>
</g>
<!-- paired_with6 -->
<g id="node7" class="node"><title>paired_with6</title>
<ellipse fill="lightgray" stroke="black" cx="260" cy="-489" rx="75.1594" ry="18.3848"/>
<text text-anchor="middle" x="260" y="-485.4" font-family="Times Roman,serif" font-size="14.00">paired_with6</text>
</g>
<!-- MatchModel2&#45;&gt;paired_with6 -->
<g id="edge8" class="edge"><title>MatchModel2&#45;&gt;paired_with6</title>
<path fill="none" stroke="black" d="M213.326,-544.708C220.778,-535.814 229.87,-524.962 238.043,-515.207"/>
<polygon fill="black" stroke="black" points="240.896,-517.251 244.636,-507.338 235.531,-512.756 240.896,-517.251"/>
</g>
<!-- Station_S5\n Classtype = station1\n Name = 1.s -->
<g id="node6" class="node"><title>Station_S5\n Classtype = station1\n Name = 1.s</title>
<ellipse fill="lightblue" stroke="black" cx="169" cy="-44" rx="116.172" ry="43.8406"/>
<text text-anchor="middle" x="169" y="-58.4" font-family="Times Roman,serif" font-size="14.00">Station_S5</text>
<text text-anchor="middle" x="169" y="-40.4" font-family="Times Roman,serif" font-size="14.00"> Classtype = station1</text>
<text text-anchor="middle" x="169" y="-22.4" font-family="Times Roman,serif" font-size="14.00"> Name = 1.s</text>
</g>
<!-- match_contains3&#45;&gt;Station_S5\n Classtype = station1\n Name = 1.s -->
<g id="edge12" class="edge"><title>match_contains3&#45;&gt;Station_S5\n Classtype = station1\n Name = 1.s</title>
<path fill="none" stroke="black" d="M98.7204,-396.348C109.549,-342.057 141.348,-182.632 158.212,-98.0844"/>
<polygon fill="black" stroke="black" points="161.669,-98.6485 160.192,-88.157 154.804,-97.2792 161.669,-98.6485"/>
</g>
<!-- trace_link7 -->
<g id="node8" class="node"><title>trace_link7</title>
<ellipse fill="#eedd82" stroke="black" cx="234" cy="-143" rx="65.7609" ry="18.3848"/>
<text text-anchor="middle" x="234" y="-139.4" font-family="Times Roman,serif" font-size="14.00">trace_link7</text>
</g>
<!-- Station_T4\n Classtype = station1\n Name = 1.s&#45;&gt;trace_link7 -->
<g id="edge16" class="edge"><title>Station_T4\n Classtype = station1\n Name = 1.s&#45;&gt;trace_link7</title>
<path fill="none" stroke="black" d="M254.105,-198.289C250.784,-189.156 247.366,-179.757 244.312,-171.358"/>
<polygon fill="black" stroke="black" points="247.505,-169.896 240.798,-161.694 240.926,-172.288 247.505,-169.896"/>
</g>
<!-- paired_with6&#45;&gt;ApplyModel1 -->
<g id="edge6" class="edge"><title>paired_with6&#45;&gt;ApplyModel1</title>
<path fill="none" stroke="black" d="M265.299,-470.327C267.612,-462.176 270.376,-452.438 272.935,-443.42"/>
<polygon fill="black" stroke="black" points="276.339,-444.243 275.703,-433.667 269.605,-442.332 276.339,-444.243"/>
</g>
<!-- trace_link7&#45;&gt;Station_S5\n Classtype = station1\n Name = 1.s -->
<g id="edge14" class="edge"><title>trace_link7&#45;&gt;Station_S5\n Classtype = station1\n Name = 1.s</title>
<path fill="none" stroke="black" d="M221.774,-124.379C216.261,-115.982 209.451,-105.61 202.577,-95.1408"/>
<polygon fill="black" stroke="black" points="205.489,-93.1977 197.074,-86.7594 199.637,-97.0396 205.489,-93.1977"/>
</g>
</g>
</svg>
