<?xml version="1.0" encoding="UTF-8" standalone="no"?>
<!DOCTYPE svg PUBLIC "-//W3C//DTD SVG 1.1//EN"
 "http://www.w3.org/Graphics/SVG/1.1/DTD/svg11.dtd">
<!-- Generated by graphviz version 2.26.3 (20100126.1600)
 -->
<!-- Title: HEmptyPathCondition_HM2M Pages: 1 -->
<svg width="722pt" height="838pt"
 viewBox="0.00 0.00 722.00 838.00" xmlns="http://www.w3.org/2000/svg" xmlns:xlink="http://www.w3.org/1999/xlink">
<g id="graph1" class="graph" transform="scale(1 1) rotate(0) translate(4 834)">
<title>HEmptyPathCondition_HM2M</title>
<polygon fill="white" stroke="white" points="-4,5 -4,-834 719,-834 719,5 -4,5"/>
<!-- apply_contains0 -->
<g id="node1" class="node"><title>apply_contains0</title>
<ellipse fill="#fcdb58" stroke="black" cx="467" cy="-589" rx="90.0096" ry="18.3848"/>
<text text-anchor="middle" x="467" y="-585.4" font-family="Times Roman,serif" font-size="14.00">apply_contains0</text>
</g>
<!-- Male_T7\n Classtype = t_\n Name = s_ -->
<g id="node8" class="node"><title>Male_T7\n Classtype = t_\n Name = s_</title>
<ellipse fill="lightblue" stroke="black" cx="478" cy="-490" rx="85.7684" ry="43.8406"/>
<text text-anchor="middle" x="478" y="-504.4" font-family="Times Roman,serif" font-size="14.00">Male_T7</text>
<text text-anchor="middle" x="478" y="-486.4" font-family="Times Roman,serif" font-size="14.00"> Classtype = t_</text>
<text text-anchor="middle" x="478" y="-468.4" font-family="Times Roman,serif" font-size="14.00"> Name = s_</text>
</g>
<!-- apply_contains0&#45;&gt;Male_T7\n Classtype = t_\n Name = s_ -->
<g id="edge4" class="edge"><title>apply_contains0&#45;&gt;Male_T7\n Classtype = t_\n Name = s_</title>
<path fill="none" stroke="black" d="M469.069,-570.379C469.91,-562.81 470.929,-553.638 471.974,-544.236"/>
<polygon fill="black" stroke="black" points="475.484,-544.334 473.11,-534.008 468.527,-543.561 475.484,-544.334"/>
</g>
<!-- leftExpr1\n Classtype = None\n Name = None -->
<g id="node2" class="node"><title>leftExpr1\n Classtype = None\n Name = None</title>
<ellipse fill="lightblue" stroke="black" cx="324" cy="-168" rx="101.823" ry="43.8406"/>
<text text-anchor="middle" x="324" y="-182.4" font-family="Times Roman,serif" font-size="14.00">leftExpr1</text>
<text text-anchor="middle" x="324" y="-164.4" font-family="Times Roman,serif" font-size="14.00"> Classtype = None</text>
<text text-anchor="middle" x="324" y="-146.4" font-family="Times Roman,serif" font-size="14.00"> Name = None</text>
</g>
<!-- Attribute11\n Classtype = None\n Name = name -->
<g id="node12" class="node"><title>Attribute11\n Classtype = None\n Name = name</title>
<ellipse fill="lightblue" stroke="black" cx="435" cy="-44" rx="101.823" ry="43.8406"/>
<text text-anchor="middle" x="435" y="-58.4" font-family="Times Roman,serif" font-size="14.00">Attribute11</text>
<text text-anchor="middle" x="435" y="-40.4" font-family="Times Roman,serif" font-size="14.00"> Classtype = None</text>
<text text-anchor="middle" x="435" y="-22.4" font-family="Times Roman,serif" font-size="14.00"> Name = name</text>
</g>
<!-- leftExpr1\n Classtype = None\n Name = None&#45;&gt;Attribute11\n Classtype = None\n Name = name -->
<g id="edge8" class="edge"><title>leftExpr1\n Classtype = None\n Name = None&#45;&gt;Attribute11\n Classtype = None\n Name = name</title>
<path fill="none" stroke="black" d="M360.961,-126.71C370.697,-115.834 381.293,-103.997 391.345,-92.7677"/>
<polygon fill="black" stroke="black" points="394.138,-94.8952 398.2,-85.1099 388.922,-90.2264 394.138,-94.8952"/>
</g>
<!-- paired_with2 -->
<g id="node3" class="node"><title>paired_with2</title>
<ellipse fill="lightgray" stroke="black" cx="474" cy="-737" rx="75.1594" ry="18.3848"/>
<text text-anchor="middle" x="474" y="-733.4" font-family="Times Roman,serif" font-size="14.00">paired_with2</text>
</g>
<!-- ApplyModel4 -->
<g id="node5" class="node"><title>ApplyModel4</title>
<ellipse fill="#fed017" stroke="black" cx="433" cy="-663" rx="73.0388" ry="18.3848"/>
<text text-anchor="middle" x="433" y="-659.4" font-family="Times Roman,serif" font-size="14.00">ApplyModel4</text>
</g>
<!-- paired_with2&#45;&gt;ApplyModel4 -->
<g id="edge12" class="edge"><title>paired_with2&#45;&gt;ApplyModel4</title>
<path fill="none" stroke="black" d="M463.654,-718.327C458.957,-709.849 453.308,-699.654 448.147,-690.338"/>
<polygon fill="black" stroke="black" points="451.109,-688.462 443.201,-681.411 444.986,-691.854 451.109,-688.462"/>
</g>
<!-- hasAttr_S3\n Classtype = None\n Name = None -->
<g id="node4" class="node"><title>hasAttr_S3\n Classtype = None\n Name = None</title>
<ellipse fill="lightblue" stroke="black" cx="546" cy="-168" rx="101.823" ry="43.8406"/>
<text text-anchor="middle" x="546" y="-182.4" font-family="Times Roman,serif" font-size="14.00">hasAttr_S3</text>
<text text-anchor="middle" x="546" y="-164.4" font-family="Times Roman,serif" font-size="14.00"> Classtype = None</text>
<text text-anchor="middle" x="546" y="-146.4" font-family="Times Roman,serif" font-size="14.00"> Name = None</text>
</g>
<!-- hasAttr_S3\n Classtype = None\n Name = None&#45;&gt;Attribute11\n Classtype = None\n Name = name -->
<g id="edge16" class="edge"><title>hasAttr_S3\n Classtype = None\n Name = None&#45;&gt;Attribute11\n Classtype = None\n Name = name</title>
<path fill="none" stroke="black" d="M509.039,-126.71C499.303,-115.834 488.707,-103.997 478.655,-92.7677"/>
<polygon fill="black" stroke="black" points="481.078,-90.2264 471.8,-85.1099 475.862,-94.8952 481.078,-90.2264"/>
</g>
<!-- ApplyModel4&#45;&gt;apply_contains0 -->
<g id="edge2" class="edge"><title>ApplyModel4&#45;&gt;apply_contains0</title>
<path fill="none" stroke="black" d="M441.58,-644.327C445.405,-636.001 449.991,-626.019 454.209,-616.84"/>
<polygon fill="black" stroke="black" points="457.428,-618.215 458.423,-607.667 451.068,-615.293 457.428,-618.215"/>
</g>
<!-- Equation5\n Classtype = None\n Name = None -->
<g id="node6" class="node"><title>Equation5\n Classtype = None\n Name = None</title>
<ellipse fill="lightblue" stroke="black" cx="213" cy="-292" rx="101.823" ry="43.8406"/>
<text text-anchor="middle" x="213" y="-306.4" font-family="Times Roman,serif" font-size="14.00">Equation5</text>
<text text-anchor="middle" x="213" y="-288.4" font-family="Times Roman,serif" font-size="14.00"> Classtype = None</text>
<text text-anchor="middle" x="213" y="-270.4" font-family="Times Roman,serif" font-size="14.00"> Name = None</text>
</g>
<!-- Equation5\n Classtype = None\n Name = None&#45;&gt;leftExpr1\n Classtype = None\n Name = None -->
<g id="edge6" class="edge"><title>Equation5\n Classtype = None\n Name = None&#45;&gt;leftExpr1\n Classtype = None\n Name = None</title>
<path fill="none" stroke="black" d="M249.961,-250.71C259.697,-239.834 270.293,-227.997 280.345,-216.768"/>
<polygon fill="black" stroke="black" points="283.138,-218.895 287.2,-209.11 277.922,-214.226 283.138,-218.895"/>
</g>
<!-- rightExpr9\n Classtype = None\n Name = None -->
<g id="node10" class="node"><title>rightExpr9\n Classtype = None\n Name = None</title>
<ellipse fill="lightblue" stroke="black" cx="102" cy="-168" rx="101.823" ry="43.8406"/>
<text text-anchor="middle" x="102" y="-182.4" font-family="Times Roman,serif" font-size="14.00">rightExpr9</text>
<text text-anchor="middle" x="102" y="-164.4" font-family="Times Roman,serif" font-size="14.00"> Classtype = None</text>
<text text-anchor="middle" x="102" y="-146.4" font-family="Times Roman,serif" font-size="14.00"> Name = None</text>
</g>
<!-- Equation5\n Classtype = None\n Name = None&#45;&gt;rightExpr9\n Classtype = None\n Name = None -->
<g id="edge18" class="edge"><title>Equation5\n Classtype = None\n Name = None&#45;&gt;rightExpr9\n Classtype = None\n Name = None</title>
<path fill="none" stroke="black" d="M176.039,-250.71C166.303,-239.834 155.707,-227.997 145.655,-216.768"/>
<polygon fill="black" stroke="black" points="148.078,-214.226 138.8,-209.11 142.862,-218.895 148.078,-214.226"/>
</g>
<!-- match_contains6 -->
<g id="node7" class="node"><title>match_contains6</title>
<ellipse fill="#f798a1" stroke="black" cx="619" cy="-663" rx="94.7523" ry="18.3848"/>
<text text-anchor="middle" x="619" y="-659.4" font-family="Times Roman,serif" font-size="14.00">match_contains6</text>
</g>
<!-- Male_S12\n Classtype = 1\n Name = s_ -->
<g id="node13" class="node"><title>Male_S12\n Classtype = 1\n Name = s_</title>
<ellipse fill="lightblue" stroke="black" cx="546" cy="-292" rx="82.2301" ry="43.8406"/>
<text text-anchor="middle" x="546" y="-306.4" font-family="Times Roman,serif" font-size="14.00">Male_S12</text>
<text text-anchor="middle" x="546" y="-288.4" font-family="Times Roman,serif" font-size="14.00"> Classtype = 1</text>
<text text-anchor="middle" x="546" y="-270.4" font-family="Times Roman,serif" font-size="14.00"> Name = s_</text>
</g>
<!-- match_contains6&#45;&gt;Male_S12\n Classtype = 1\n Name = s_ -->
<g id="edge22" class="edge"><title>match_contains6&#45;&gt;Male_S12\n Classtype = 1\n Name = s_</title>
<path fill="none" stroke="black" d="M616.851,-644.437C611.286,-598.074 595.137,-473.628 571,-372 568.901,-363.163 566.339,-353.879 563.665,-344.891"/>
<polygon fill="black" stroke="black" points="567.002,-343.834 560.736,-335.29 560.307,-345.876 567.002,-343.834"/>
</g>
<!-- trace_link13 -->
<g id="node14" class="node"><title>trace_link13</title>
<ellipse fill="#eedd82" stroke="black" cx="490" cy="-391" rx="72.1249" ry="18.3848"/>
<text text-anchor="middle" x="490" y="-387.4" font-family="Times Roman,serif" font-size="14.00">trace_link13</text>
</g>
<!-- Male_T7\n Classtype = t_\n Name = s_&#45;&gt;trace_link13 -->
<g id="edge28" class="edge"><title>Male_T7\n Classtype = t_\n Name = s_&#45;&gt;trace_link13</title>
<path fill="none" stroke="black" d="M483.333,-446.001C484.413,-437.096 485.521,-427.95 486.517,-419.737"/>
<polygon fill="black" stroke="black" points="490.02,-419.922 487.749,-409.574 483.071,-419.08 490.02,-419.922"/>
</g>
<!-- Constant8\n Classtype = None\n Name = None -->
<g id="node9" class="node"><title>Constant8\n Classtype = None\n Name = None</title>
<ellipse fill="lightblue" stroke="black" cx="102" cy="-44" rx="101.823" ry="43.8406"/>
<text text-anchor="middle" x="102" y="-58.4" font-family="Times Roman,serif" font-size="14.00">Constant8</text>
<text text-anchor="middle" x="102" y="-40.4" font-family="Times Roman,serif" font-size="14.00"> Classtype = None</text>
<text text-anchor="middle" x="102" y="-22.4" font-family="Times Roman,serif" font-size="14.00"> Name = None</text>
</g>
<!-- rightExpr9\n Classtype = None\n Name = None&#45;&gt;Constant8\n Classtype = None\n Name = None -->
<g id="edge24" class="edge"><title>rightExpr9\n Classtype = None\n Name = None&#45;&gt;Constant8\n Classtype = None\n Name = None</title>
<path fill="none" stroke="black" d="M102,-123.933C102,-115.718 102,-107.043 102,-98.5568"/>
<polygon fill="black" stroke="black" points="105.5,-98.3428 102,-88.3428 98.5001,-98.3428 105.5,-98.3428"/>
</g>
<!-- MatchModel10 -->
<g id="node11" class="node"><title>MatchModel10</title>
<ellipse fill="#e15c34" stroke="black" cx="536" cy="-811" rx="82.2301" ry="18.3848"/>
<text text-anchor="middle" x="536" y="-807.4" font-family="Times Roman,serif" font-size="14.00">MatchModel10</text>
</g>
<!-- MatchModel10&#45;&gt;paired_with2 -->
<g id="edge10" class="edge"><title>MatchModel10&#45;&gt;paired_with2</title>
<path fill="none" stroke="black" d="M520.674,-792.708C513.222,-783.814 504.13,-772.962 495.957,-763.207"/>
<polygon fill="black" stroke="black" points="498.469,-760.756 489.364,-755.338 493.104,-765.251 498.469,-760.756"/>
</g>
<!-- MatchModel10&#45;&gt;match_contains6 -->
<g id="edge20" class="edge"><title>MatchModel10&#45;&gt;match_contains6</title>
<path fill="none" stroke="black" d="M546.344,-792.555C560.696,-766.964 586.763,-720.483 603.46,-690.71"/>
<polygon fill="black" stroke="black" points="606.687,-692.112 608.525,-681.678 600.581,-688.688 606.687,-692.112"/>
</g>
<!-- Male_S12\n Classtype = 1\n Name = s_&#45;&gt;hasAttr_S3\n Classtype = None\n Name = None -->
<g id="edge14" class="edge"><title>Male_S12\n Classtype = 1\n Name = s_&#45;&gt;hasAttr_S3\n Classtype = None\n Name = None</title>
<path fill="none" stroke="black" d="M546,-247.933C546,-239.718 546,-231.043 546,-222.557"/>
<polygon fill="black" stroke="black" points="549.5,-222.343 546,-212.343 542.5,-222.343 549.5,-222.343"/>
</g>
<!-- trace_link13&#45;&gt;Male_S12\n Classtype = 1\n Name = s_ -->
<g id="edge26" class="edge"><title>trace_link13&#45;&gt;Male_S12\n Classtype = 1\n Name = s_</title>
<path fill="none" stroke="black" d="M500.533,-372.379C505.286,-363.977 511.156,-353.599 517.081,-343.124"/>
<polygon fill="black" stroke="black" points="520.171,-344.771 522.048,-334.344 514.078,-341.325 520.171,-344.771"/>
</g>
</g>
</svg>
