<?xml version="1.0" encoding="UTF-8" standalone="no"?>
<!DOCTYPE svg PUBLIC "-//W3C//DTD SVG 1.1//EN"
 "http://www.w3.org/Graphics/SVG/1.1/DTD/svg11.dtd">
<!-- Generated by graphviz version 2.26.3 (20100126.1600)
 -->
<!-- Title: HEmptyPathCondition_HF2F Pages: 1 -->
<svg width="749pt" height="838pt"
 viewBox="0.00 0.00 749.00 838.00" xmlns="http://www.w3.org/2000/svg" xmlns:xlink="http://www.w3.org/1999/xlink">
<g id="graph1" class="graph" transform="scale(1 1) rotate(0) translate(4 834)">
<title>HEmptyPathCondition_HF2F</title>
<polygon fill="white" stroke="white" points="-4,5 -4,-834 746,-834 746,5 -4,5"/>
<!-- rightExpr0\n Classtype = None\n Name = None -->
<g id="node1" class="node"><title>rightExpr0\n Classtype = None\n Name = None</title>
<ellipse fill="lightblue" stroke="black" cx="102" cy="-168" rx="101.823" ry="43.8406"/>
<text text-anchor="middle" x="102" y="-182.4" font-family="Times Roman,serif" font-size="14.00">rightExpr0</text>
<text text-anchor="middle" x="102" y="-164.4" font-family="Times Roman,serif" font-size="14.00"> Classtype = None</text>
<text text-anchor="middle" x="102" y="-146.4" font-family="Times Roman,serif" font-size="14.00"> Name = None</text>
</g>
<!-- Constant12\n Classtype = None\n Name = None -->
<g id="node13" class="node"><title>Constant12\n Classtype = None\n Name = None</title>
<ellipse fill="lightblue" stroke="black" cx="102" cy="-44" rx="101.823" ry="43.8406"/>
<text text-anchor="middle" x="102" y="-58.4" font-family="Times Roman,serif" font-size="14.00">Constant12</text>
<text text-anchor="middle" x="102" y="-40.4" font-family="Times Roman,serif" font-size="14.00"> Classtype = None</text>
<text text-anchor="middle" x="102" y="-22.4" font-family="Times Roman,serif" font-size="14.00"> Name = None</text>
</g>
<!-- rightExpr0\n Classtype = None\n Name = None&#45;&gt;Constant12\n Classtype = None\n Name = None -->
<g id="edge4" class="edge"><title>rightExpr0\n Classtype = None\n Name = None&#45;&gt;Constant12\n Classtype = None\n Name = None</title>
<path fill="none" stroke="black" d="M102,-123.933C102,-115.718 102,-107.043 102,-98.5568"/>
<polygon fill="black" stroke="black" points="105.5,-98.3428 102,-88.3428 98.5001,-98.3428 105.5,-98.3428"/>
</g>
<!-- hasAttr_S1\n Classtype = None\n Name = None -->
<g id="node2" class="node"><title>hasAttr_S1\n Classtype = None\n Name = None</title>
<ellipse fill="lightblue" stroke="black" cx="546" cy="-168" rx="101.823" ry="43.8406"/>
<text text-anchor="middle" x="546" y="-182.4" font-family="Times Roman,serif" font-size="14.00">hasAttr_S1</text>
<text text-anchor="middle" x="546" y="-164.4" font-family="Times Roman,serif" font-size="14.00"> Classtype = None</text>
<text text-anchor="middle" x="546" y="-146.4" font-family="Times Roman,serif" font-size="14.00"> Name = None</text>
</g>
<!-- Attribute9\n Classtype = None\n Name = name -->
<g id="node10" class="node"><title>Attribute9\n Classtype = None\n Name = name</title>
<ellipse fill="lightblue" stroke="black" cx="435" cy="-44" rx="101.823" ry="43.8406"/>
<text text-anchor="middle" x="435" y="-58.4" font-family="Times Roman,serif" font-size="14.00">Attribute9</text>
<text text-anchor="middle" x="435" y="-40.4" font-family="Times Roman,serif" font-size="14.00"> Classtype = None</text>
<text text-anchor="middle" x="435" y="-22.4" font-family="Times Roman,serif" font-size="14.00"> Name = name</text>
</g>
<!-- hasAttr_S1\n Classtype = None\n Name = None&#45;&gt;Attribute9\n Classtype = None\n Name = name -->
<g id="edge8" class="edge"><title>hasAttr_S1\n Classtype = None\n Name = None&#45;&gt;Attribute9\n Classtype = None\n Name = name</title>
<path fill="none" stroke="black" d="M509.039,-126.71C499.303,-115.834 488.707,-103.997 478.655,-92.7677"/>
<polygon fill="black" stroke="black" points="481.078,-90.2264 471.8,-85.1099 475.862,-94.8952 481.078,-90.2264"/>
</g>
<!-- ApplyModel2 -->
<g id="node3" class="node"><title>ApplyModel2</title>
<ellipse fill="#fed017" stroke="black" cx="660" cy="-663" rx="73.0388" ry="18.3848"/>
<text text-anchor="middle" x="660" y="-659.4" font-family="Times Roman,serif" font-size="14.00">ApplyModel2</text>
</g>
<!-- apply_contains10 -->
<g id="node11" class="node"><title>apply_contains10</title>
<ellipse fill="#fcdb58" stroke="black" cx="644" cy="-589" rx="96.8736" ry="18.3848"/>
<text text-anchor="middle" x="644" y="-585.4" font-family="Times Roman,serif" font-size="14.00">apply_contains10</text>
</g>
<!-- ApplyModel2&#45;&gt;apply_contains10 -->
<g id="edge12" class="edge"><title>ApplyModel2&#45;&gt;apply_contains10</title>
<path fill="none" stroke="black" d="M655.963,-644.327C654.219,-636.264 652.14,-626.648 650.208,-617.711"/>
<polygon fill="black" stroke="black" points="653.571,-616.702 648.036,-607.667 646.729,-618.181 653.571,-616.702"/>
</g>
<!-- match_contains3 -->
<g id="node4" class="node"><title>match_contains3</title>
<ellipse fill="#f798a1" stroke="black" cx="474" cy="-663" rx="94.7523" ry="18.3848"/>
<text text-anchor="middle" x="474" y="-659.4" font-family="Times Roman,serif" font-size="14.00">match_contains3</text>
</g>
<!-- Female_S6\n Classtype = 1\n Name = s_ -->
<g id="node7" class="node"><title>Female_S6\n Classtype = 1\n Name = s_</title>
<ellipse fill="lightblue" stroke="black" cx="546" cy="-292" rx="82.2301" ry="43.8406"/>
<text text-anchor="middle" x="546" y="-306.4" font-family="Times Roman,serif" font-size="14.00">Female_S6</text>
<text text-anchor="middle" x="546" y="-288.4" font-family="Times Roman,serif" font-size="14.00"> Classtype = 1</text>
<text text-anchor="middle" x="546" y="-270.4" font-family="Times Roman,serif" font-size="14.00"> Name = s_</text>
</g>
<!-- match_contains3&#45;&gt;Female_S6\n Classtype = 1\n Name = s_ -->
<g id="edge16" class="edge"><title>match_contains3&#45;&gt;Female_S6\n Classtype = 1\n Name = s_</title>
<path fill="none" stroke="black" d="M475.14,-644.325C478.306,-597.705 488.763,-472.719 515,-372 517.344,-363.002 520.388,-353.636 523.651,-344.616"/>
<polygon fill="black" stroke="black" points="527.024,-345.59 527.255,-334.998 520.469,-343.134 527.024,-345.59"/>
</g>
<!-- paired_with4 -->
<g id="node5" class="node"><title>paired_with4</title>
<ellipse fill="lightgray" stroke="black" cx="639" cy="-737" rx="75.1594" ry="18.3848"/>
<text text-anchor="middle" x="639" y="-733.4" font-family="Times Roman,serif" font-size="14.00">paired_with4</text>
</g>
<!-- paired_with4&#45;&gt;ApplyModel2 -->
<g id="edge10" class="edge"><title>paired_with4&#45;&gt;ApplyModel2</title>
<path fill="none" stroke="black" d="M644.299,-718.327C646.612,-710.176 649.376,-700.438 651.935,-691.42"/>
<polygon fill="black" stroke="black" points="655.339,-692.243 654.703,-681.667 648.605,-690.332 655.339,-692.243"/>
</g>
<!-- Female_T5\n Classtype = t_\n Name = s_ -->
<g id="node6" class="node"><title>Female_T5\n Classtype = t_\n Name = s_</title>
<ellipse fill="lightblue" stroke="black" cx="608" cy="-490" rx="85.7684" ry="43.8406"/>
<text text-anchor="middle" x="608" y="-504.4" font-family="Times Roman,serif" font-size="14.00">Female_T5</text>
<text text-anchor="middle" x="608" y="-486.4" font-family="Times Roman,serif" font-size="14.00"> Classtype = t_</text>
<text text-anchor="middle" x="608" y="-468.4" font-family="Times Roman,serif" font-size="14.00"> Name = s_</text>
</g>
<!-- trace_link13 -->
<g id="node14" class="node"><title>trace_link13</title>
<ellipse fill="#eedd82" stroke="black" cx="596" cy="-391" rx="72.1249" ry="18.3848"/>
<text text-anchor="middle" x="596" y="-387.4" font-family="Times Roman,serif" font-size="14.00">trace_link13</text>
</g>
<!-- Female_T5\n Classtype = t_\n Name = s_&#45;&gt;trace_link13 -->
<g id="edge28" class="edge"><title>Female_T5\n Classtype = t_\n Name = s_&#45;&gt;trace_link13</title>
<path fill="none" stroke="black" d="M602.667,-446.001C601.587,-437.096 600.479,-427.95 599.483,-419.737"/>
<polygon fill="black" stroke="black" points="602.929,-419.08 598.251,-409.574 595.98,-419.922 602.929,-419.08"/>
</g>
<!-- Female_S6\n Classtype = 1\n Name = s_&#45;&gt;hasAttr_S1\n Classtype = None\n Name = None -->
<g id="edge6" class="edge"><title>Female_S6\n Classtype = 1\n Name = s_&#45;&gt;hasAttr_S1\n Classtype = None\n Name = None</title>
<path fill="none" stroke="black" d="M546,-247.933C546,-239.718 546,-231.043 546,-222.557"/>
<polygon fill="black" stroke="black" points="549.5,-222.343 546,-212.343 542.5,-222.343 549.5,-222.343"/>
</g>
<!-- Equation7\n Classtype = None\n Name = None -->
<g id="node8" class="node"><title>Equation7\n Classtype = None\n Name = None</title>
<ellipse fill="lightblue" stroke="black" cx="213" cy="-292" rx="101.823" ry="43.8406"/>
<text text-anchor="middle" x="213" y="-306.4" font-family="Times Roman,serif" font-size="14.00">Equation7</text>
<text text-anchor="middle" x="213" y="-288.4" font-family="Times Roman,serif" font-size="14.00"> Classtype = None</text>
<text text-anchor="middle" x="213" y="-270.4" font-family="Times Roman,serif" font-size="14.00"> Name = None</text>
</g>
<!-- Equation7\n Classtype = None\n Name = None&#45;&gt;rightExpr0\n Classtype = None\n Name = None -->
<g id="edge2" class="edge"><title>Equation7\n Classtype = None\n Name = None&#45;&gt;rightExpr0\n Classtype = None\n Name = None</title>
<path fill="none" stroke="black" d="M176.039,-250.71C166.303,-239.834 155.707,-227.997 145.655,-216.768"/>
<polygon fill="black" stroke="black" points="148.078,-214.226 138.8,-209.11 142.862,-218.895 148.078,-214.226"/>
</g>
<!-- leftExpr11\n Classtype = None\n Name = None -->
<g id="node12" class="node"><title>leftExpr11\n Classtype = None\n Name = None</title>
<ellipse fill="lightblue" stroke="black" cx="324" cy="-168" rx="101.823" ry="43.8406"/>
<text text-anchor="middle" x="324" y="-182.4" font-family="Times Roman,serif" font-size="14.00">leftExpr11</text>
<text text-anchor="middle" x="324" y="-164.4" font-family="Times Roman,serif" font-size="14.00"> Classtype = None</text>
<text text-anchor="middle" x="324" y="-146.4" font-family="Times Roman,serif" font-size="14.00"> Name = None</text>
</g>
<!-- Equation7\n Classtype = None\n Name = None&#45;&gt;leftExpr11\n Classtype = None\n Name = None -->
<g id="edge22" class="edge"><title>Equation7\n Classtype = None\n Name = None&#45;&gt;leftExpr11\n Classtype = None\n Name = None</title>
<path fill="none" stroke="black" d="M249.961,-250.71C259.697,-239.834 270.293,-227.997 280.345,-216.768"/>
<polygon fill="black" stroke="black" points="283.138,-218.895 287.2,-209.11 277.922,-214.226 283.138,-218.895"/>
</g>
<!-- MatchModel8 -->
<g id="node9" class="node"><title>MatchModel8</title>
<ellipse fill="#e15c34" stroke="black" cx="577" cy="-811" rx="75.8684" ry="18.3848"/>
<text text-anchor="middle" x="577" y="-807.4" font-family="Times Roman,serif" font-size="14.00">MatchModel8</text>
</g>
<!-- MatchModel8&#45;&gt;match_contains3 -->
<g id="edge14" class="edge"><title>MatchModel8&#45;&gt;match_contains3</title>
<path fill="none" stroke="black" d="M564.163,-792.555C546.199,-766.742 513.444,-719.677 492.749,-689.94"/>
<polygon fill="black" stroke="black" points="495.584,-687.886 486.999,-681.678 489.838,-691.885 495.584,-687.886"/>
</g>
<!-- MatchModel8&#45;&gt;paired_with4 -->
<g id="edge18" class="edge"><title>MatchModel8&#45;&gt;paired_with4</title>
<path fill="none" stroke="black" d="M592.326,-792.708C599.778,-783.814 608.87,-772.962 617.043,-763.207"/>
<polygon fill="black" stroke="black" points="619.896,-765.251 623.636,-755.338 614.531,-760.756 619.896,-765.251"/>
</g>
<!-- apply_contains10&#45;&gt;Female_T5\n Classtype = t_\n Name = s_ -->
<g id="edge20" class="edge"><title>apply_contains10&#45;&gt;Female_T5\n Classtype = t_\n Name = s_</title>
<path fill="none" stroke="black" d="M637.229,-570.379C634.358,-562.484 630.852,-552.844 627.279,-543.018"/>
<polygon fill="black" stroke="black" points="630.558,-541.793 623.852,-533.592 623.98,-544.186 630.558,-541.793"/>
</g>
<!-- leftExpr11\n Classtype = None\n Name = None&#45;&gt;Attribute9\n Classtype = None\n Name = name -->
<g id="edge24" class="edge"><title>leftExpr11\n Classtype = None\n Name = None&#45;&gt;Attribute9\n Classtype = None\n Name = name</title>
<path fill="none" stroke="black" d="M360.961,-126.71C370.697,-115.834 381.293,-103.997 391.345,-92.7677"/>
<polygon fill="black" stroke="black" points="394.138,-94.8952 398.2,-85.1099 388.922,-90.2264 394.138,-94.8952"/>
</g>
<!-- trace_link13&#45;&gt;Female_S6\n Classtype = 1\n Name = s_ -->
<g id="edge26" class="edge"><title>trace_link13&#45;&gt;Female_S6\n Classtype = 1\n Name = s_</title>
<path fill="none" stroke="black" d="M586.595,-372.379C582.438,-364.148 577.323,-354.02 572.143,-343.763"/>
<polygon fill="black" stroke="black" points="575.228,-342.108 567.596,-334.759 568.98,-345.263 575.228,-342.108"/>
</g>
</g>
</svg>
