<?xml version="1.0" encoding="UTF-8" standalone="no"?>
<!DOCTYPE svg PUBLIC "-//W3C//DTD SVG 1.1//EN"
 "http://www.w3.org/Graphics/SVG/1.1/DTD/svg11.dtd">
<!-- Generated by graphviz version 2.26.3 (20100126.1600)
 -->
<!-- Title: HEmptyPathCondition_HS2S_HM2M_HSM2SM Pages: 1 -->
<svg width="1878pt" height="1086pt"
 viewBox="0.00 0.00 1878.00 1086.00" xmlns="http://www.w3.org/2000/svg" xmlns:xlink="http://www.w3.org/1999/xlink">
<g id="graph1" class="graph" transform="scale(1 1) rotate(0) translate(4 1082)">
<title>HEmptyPathCondition_HS2S_HM2M_HSM2SM</title>
<polygon fill="white" stroke="white" points="-4,5 -4,-1082 1875,-1082 1875,5 -4,5"/>
<!-- apply_contains0 -->
<g id="node1" class="node"><title>apply_contains0</title>
<ellipse fill="#fcdb58" stroke="black" cx="1239" cy="-837" rx="90.0096" ry="18.3848"/>
<text text-anchor="middle" x="1239" y="-833.4" font-family="Times Roman,serif" font-size="14.00">apply_contains0</text>
</g>
<!-- Station_T6\n Classtype = t_\n Name = s_ -->
<g id="node7" class="node"><title>Station_T6\n Classtype = t_\n Name = s_</title>
<ellipse fill="lightblue" stroke="black" cx="1231" cy="-738" rx="85.7684" ry="43.8406"/>
<text text-anchor="middle" x="1231" y="-752.4" font-family="Times Roman,serif" font-size="14.00">Station_T6</text>
<text text-anchor="middle" x="1231" y="-734.4" font-family="Times Roman,serif" font-size="14.00"> Classtype = t_</text>
<text text-anchor="middle" x="1231" y="-716.4" font-family="Times Roman,serif" font-size="14.00"> Name = s_</text>
</g>
<!-- apply_contains0&#45;&gt;Station_T6\n Classtype = t_\n Name = s_ -->
<g id="edge4" class="edge"><title>apply_contains0&#45;&gt;Station_T6\n Classtype = t_\n Name = s_</title>
<path fill="none" stroke="black" d="M1237.5,-818.379C1236.88,-810.81 1236.14,-801.638 1235.38,-792.236"/>
<polygon fill="black" stroke="black" points="1238.85,-791.694 1234.56,-782.008 1231.87,-792.258 1238.85,-791.694"/>
</g>
<!-- leftExpr1\n Classtype = None\n Name = None -->
<g id="node2" class="node"><title>leftExpr1\n Classtype = None\n Name = None</title>
<ellipse fill="lightblue" stroke="black" cx="546" cy="-416" rx="101.823" ry="43.8406"/>
<text text-anchor="middle" x="546" y="-430.4" font-family="Times Roman,serif" font-size="14.00">leftExpr1</text>
<text text-anchor="middle" x="546" y="-412.4" font-family="Times Roman,serif" font-size="14.00"> Classtype = None</text>
<text text-anchor="middle" x="546" y="-394.4" font-family="Times Roman,serif" font-size="14.00"> Name = None</text>
</g>
<!-- Attribute12\n Classtype = None\n Name = name -->
<g id="node13" class="node"><title>Attribute12\n Classtype = None\n Name = name</title>
<ellipse fill="lightblue" stroke="black" cx="768" cy="-292" rx="101.823" ry="43.8406"/>
<text text-anchor="middle" x="768" y="-306.4" font-family="Times Roman,serif" font-size="14.00">Attribute12</text>
<text text-anchor="middle" x="768" y="-288.4" font-family="Times Roman,serif" font-size="14.00"> Classtype = None</text>
<text text-anchor="middle" x="768" y="-270.4" font-family="Times Roman,serif" font-size="14.00"> Name = name</text>
</g>
<!-- leftExpr1\n Classtype = None\n Name = None&#45;&gt;Attribute12\n Classtype = None\n Name = name -->
<g id="edge8" class="edge"><title>leftExpr1\n Classtype = None\n Name = None&#45;&gt;Attribute12\n Classtype = None\n Name = name</title>
<path fill="none" stroke="black" d="M608.43,-381.129C635.741,-365.875 667.937,-347.891 696.231,-332.087"/>
<polygon fill="black" stroke="black" points="698.246,-334.971 705.269,-327.039 694.832,-328.86 698.246,-334.971"/>
</g>
<!-- paired_with2 -->
<g id="node3" class="node"><title>paired_with2</title>
<ellipse fill="lightgray" stroke="black" cx="1291" cy="-985" rx="75.1594" ry="18.3848"/>
<text text-anchor="middle" x="1291" y="-981.4" font-family="Times Roman,serif" font-size="14.00">paired_with2</text>
</g>
<!-- ApplyModel4 -->
<g id="node5" class="node"><title>ApplyModel4</title>
<ellipse fill="#fed017" stroke="black" cx="1274" cy="-911" rx="73.0388" ry="18.3848"/>
<text text-anchor="middle" x="1274" y="-907.4" font-family="Times Roman,serif" font-size="14.00">ApplyModel4</text>
</g>
<!-- paired_with2&#45;&gt;ApplyModel4 -->
<g id="edge12" class="edge"><title>paired_with2&#45;&gt;ApplyModel4</title>
<path fill="none" stroke="black" d="M1286.71,-966.327C1284.84,-958.176 1282.6,-948.438 1280.53,-939.42"/>
<polygon fill="black" stroke="black" points="1283.94,-938.63 1278.29,-929.667 1277.12,-940.197 1283.94,-938.63"/>
</g>
<!-- hasAttr_S3\n Classtype = None\n Name = None -->
<g id="node4" class="node"><title>hasAttr_S3\n Classtype = None\n Name = None</title>
<ellipse fill="lightblue" stroke="black" cx="990" cy="-416" rx="101.823" ry="43.8406"/>
<text text-anchor="middle" x="990" y="-430.4" font-family="Times Roman,serif" font-size="14.00">hasAttr_S3</text>
<text text-anchor="middle" x="990" y="-412.4" font-family="Times Roman,serif" font-size="14.00"> Classtype = None</text>
<text text-anchor="middle" x="990" y="-394.4" font-family="Times Roman,serif" font-size="14.00"> Name = None</text>
</g>
<!-- hasAttr_S3\n Classtype = None\n Name = None&#45;&gt;Attribute12\n Classtype = None\n Name = name -->
<g id="edge16" class="edge"><title>hasAttr_S3\n Classtype = None\n Name = None&#45;&gt;Attribute12\n Classtype = None\n Name = name</title>
<path fill="none" stroke="black" d="M927.57,-381.129C900.259,-365.875 868.063,-347.891 839.769,-332.087"/>
<polygon fill="black" stroke="black" points="841.168,-328.86 830.731,-327.039 837.754,-334.971 841.168,-328.86"/>
</g>
<!-- ApplyModel4&#45;&gt;apply_contains0 -->
<g id="edge2" class="edge"><title>ApplyModel4&#45;&gt;apply_contains0</title>
<path fill="none" stroke="black" d="M1265.17,-892.327C1261.23,-884.001 1256.51,-874.019 1252.17,-864.84"/>
<polygon fill="black" stroke="black" points="1255.27,-863.211 1247.83,-855.667 1248.94,-866.204 1255.27,-863.211"/>
</g>
<!-- Station_S5\n Classtype = 1\n Name = s_ -->
<g id="node6" class="node"><title>Station_S5\n Classtype = 1\n Name = s_</title>
<ellipse fill="lightblue" stroke="black" cx="1157" cy="-540" rx="82.2301" ry="43.8406"/>
<text text-anchor="middle" x="1157" y="-554.4" font-family="Times Roman,serif" font-size="14.00">Station_S5</text>
<text text-anchor="middle" x="1157" y="-536.4" font-family="Times Roman,serif" font-size="14.00"> Classtype = 1</text>
<text text-anchor="middle" x="1157" y="-518.4" font-family="Times Roman,serif" font-size="14.00"> Name = s_</text>
</g>
<!-- Station_S5\n Classtype = 1\n Name = s_&#45;&gt;hasAttr_S3\n Classtype = None\n Name = None -->
<g id="edge14" class="edge"><title>Station_S5\n Classtype = 1\n Name = s_&#45;&gt;hasAttr_S3\n Classtype = None\n Name = None</title>
<path fill="none" stroke="black" d="M1108.7,-504.134C1090.24,-490.428 1068.97,-474.636 1049.58,-460.239"/>
<polygon fill="black" stroke="black" points="1051.51,-457.316 1041.4,-454.164 1047.34,-462.936 1051.51,-457.316"/>
</g>
<!-- indirectLink_S33 -->
<g id="node34" class="node"><title>indirectLink_S33</title>
<ellipse fill="lightgreen" stroke="black" cx="1203" cy="-416" rx="92.839" ry="18.3848"/>
<text text-anchor="middle" x="1203" y="-412.4" font-family="Times Roman,serif" font-size="14.00">indirectLink_S33</text>
</g>
<!-- Station_S5\n Classtype = 1\n Name = s_&#45;&gt;indirectLink_S33 -->
<g id="edge58" class="edge"><title>Station_S5\n Classtype = 1\n Name = s_&#45;&gt;indirectLink_S33</title>
<path fill="none" stroke="black" d="M1173.09,-496.631C1179.55,-479.214 1186.81,-459.636 1192.56,-444.133"/>
<polygon fill="black" stroke="black" points="1195.9,-445.191 1196.1,-434.598 1189.34,-442.756 1195.9,-445.191"/>
</g>
<!-- trace_link13 -->
<g id="node14" class="node"><title>trace_link13</title>
<ellipse fill="#eedd82" stroke="black" cx="1217" cy="-639" rx="72.1249" ry="18.3848"/>
<text text-anchor="middle" x="1217" y="-635.4" font-family="Times Roman,serif" font-size="14.00">trace_link13</text>
</g>
<!-- Station_T6\n Classtype = t_\n Name = s_&#45;&gt;trace_link13 -->
<g id="edge28" class="edge"><title>Station_T6\n Classtype = t_\n Name = s_&#45;&gt;trace_link13</title>
<path fill="none" stroke="black" d="M1224.78,-694.001C1223.52,-685.096 1222.23,-675.95 1221.06,-667.737"/>
<polygon fill="black" stroke="black" points="1224.49,-666.985 1219.63,-657.574 1217.56,-667.966 1224.49,-666.985"/>
</g>
<!-- directLink_T28\n -->
<g id="node29" class="node"><title>directLink_T28\n</title>
<ellipse fill="lightyellow" stroke="black" cx="1436" cy="-639" rx="84.1457" ry="18.3848"/>
<text text-anchor="middle" x="1436" y="-635.4" font-family="Times Roman,serif" font-size="14.00">directLink_T28</text>
</g>
<!-- Station_T6\n Classtype = t_\n Name = s_&#45;&gt;directLink_T28\n -->
<g id="edge62" class="edge"><title>Station_T6\n Classtype = t_\n Name = s_&#45;&gt;directLink_T28\n</title>
<path fill="none" stroke="black" d="M1293.62,-707.759C1325.25,-692.483 1362.89,-674.309 1391.52,-660.483"/>
<polygon fill="black" stroke="black" points="1393.37,-663.472 1400.86,-655.971 1390.33,-657.168 1393.37,-663.472"/>
</g>
<!-- Equation7\n Classtype = None\n Name = None -->
<g id="node8" class="node"><title>Equation7\n Classtype = None\n Name = None</title>
<ellipse fill="lightblue" stroke="black" cx="213" cy="-540" rx="101.823" ry="43.8406"/>
<text text-anchor="middle" x="213" y="-554.4" font-family="Times Roman,serif" font-size="14.00">Equation7</text>
<text text-anchor="middle" x="213" y="-536.4" font-family="Times Roman,serif" font-size="14.00"> Classtype = None</text>
<text text-anchor="middle" x="213" y="-518.4" font-family="Times Roman,serif" font-size="14.00"> Name = None</text>
</g>
<!-- Equation7\n Classtype = None\n Name = None&#45;&gt;leftExpr1\n Classtype = None\n Name = None -->
<g id="edge6" class="edge"><title>Equation7\n Classtype = None\n Name = None&#45;&gt;leftExpr1\n Classtype = None\n Name = None</title>
<path fill="none" stroke="black" d="M292.078,-512.186C334.563,-497.071 387.773,-477.865 435,-460 443.706,-456.707 452.773,-453.215 461.806,-449.696"/>
<polygon fill="black" stroke="black" points="463.153,-452.928 471.191,-446.026 460.603,-446.408 463.153,-452.928"/>
</g>
<!-- rightExpr10\n Classtype = None\n Name = None -->
<g id="node11" class="node"><title>rightExpr10\n Classtype = None\n Name = None</title>
<ellipse fill="lightblue" stroke="black" cx="102" cy="-416" rx="101.823" ry="43.8406"/>
<text text-anchor="middle" x="102" y="-430.4" font-family="Times Roman,serif" font-size="14.00">rightExpr10</text>
<text text-anchor="middle" x="102" y="-412.4" font-family="Times Roman,serif" font-size="14.00"> Classtype = None</text>
<text text-anchor="middle" x="102" y="-394.4" font-family="Times Roman,serif" font-size="14.00"> Name = None</text>
</g>
<!-- Equation7\n Classtype = None\n Name = None&#45;&gt;rightExpr10\n Classtype = None\n Name = None -->
<g id="edge20" class="edge"><title>Equation7\n Classtype = None\n Name = None&#45;&gt;rightExpr10\n Classtype = None\n Name = None</title>
<path fill="none" stroke="black" d="M176.039,-498.71C166.303,-487.834 155.707,-475.997 145.655,-464.768"/>
<polygon fill="black" stroke="black" points="148.078,-462.226 138.8,-457.11 142.862,-466.895 148.078,-462.226"/>
</g>
<!-- match_contains8 -->
<g id="node9" class="node"><title>match_contains8</title>
<ellipse fill="#f798a1" stroke="black" cx="1103" cy="-985" rx="94.7523" ry="18.3848"/>
<text text-anchor="middle" x="1103" y="-981.4" font-family="Times Roman,serif" font-size="14.00">match_contains8</text>
</g>
<!-- match_contains8&#45;&gt;Station_S5\n Classtype = 1\n Name = s_ -->
<g id="edge18" class="edge"><title>match_contains8&#45;&gt;Station_S5\n Classtype = 1\n Name = s_</title>
<path fill="none" stroke="black" d="M1104.45,-966.323C1106.5,-938.265 1110,-883.559 1110,-837 1110,-837 1110,-837 1110,-738 1110,-687.842 1124.45,-632.422 1137.33,-593.003"/>
<polygon fill="black" stroke="black" points="1140.71,-593.932 1140.56,-583.338 1134.07,-591.713 1140.71,-593.932"/>
</g>
<!-- Constant9\n Classtype = None\n Name = None -->
<g id="node10" class="node"><title>Constant9\n Classtype = None\n Name = None</title>
<ellipse fill="lightblue" stroke="black" cx="102" cy="-292" rx="101.823" ry="43.8406"/>
<text text-anchor="middle" x="102" y="-306.4" font-family="Times Roman,serif" font-size="14.00">Constant9</text>
<text text-anchor="middle" x="102" y="-288.4" font-family="Times Roman,serif" font-size="14.00"> Classtype = None</text>
<text text-anchor="middle" x="102" y="-270.4" font-family="Times Roman,serif" font-size="14.00"> Name = None</text>
</g>
<!-- rightExpr10\n Classtype = None\n Name = None&#45;&gt;Constant9\n Classtype = None\n Name = None -->
<g id="edge24" class="edge"><title>rightExpr10\n Classtype = None\n Name = None&#45;&gt;Constant9\n Classtype = None\n Name = None</title>
<path fill="none" stroke="black" d="M102,-371.933C102,-363.718 102,-355.043 102,-346.557"/>
<polygon fill="black" stroke="black" points="105.5,-346.343 102,-336.343 98.5001,-346.343 105.5,-346.343"/>
</g>
<!-- MatchModel11 -->
<g id="node12" class="node"><title>MatchModel11</title>
<ellipse fill="#e15c34" stroke="black" cx="1197" cy="-1059" rx="82.2301" ry="18.3848"/>
<text text-anchor="middle" x="1197" y="-1055.4" font-family="Times Roman,serif" font-size="14.00">MatchModel11</text>
</g>
<!-- MatchModel11&#45;&gt;paired_with2 -->
<g id="edge10" class="edge"><title>MatchModel11&#45;&gt;paired_with2</title>
<path fill="none" stroke="black" d="M1219.75,-1041.09C1231.99,-1031.45 1247.25,-1019.44 1260.51,-1009.01"/>
<polygon fill="black" stroke="black" points="1262.76,-1011.68 1268.45,-1002.75 1258.43,-1006.18 1262.76,-1011.68"/>
</g>
<!-- MatchModel11&#45;&gt;match_contains8 -->
<g id="edge22" class="edge"><title>MatchModel11&#45;&gt;match_contains8</title>
<path fill="none" stroke="black" d="M1174.25,-1041.09C1162.1,-1031.52 1146.97,-1019.62 1133.79,-1009.24"/>
<polygon fill="black" stroke="black" points="1135.89,-1006.44 1125.87,-1003 1131.56,-1011.94 1135.89,-1006.44"/>
</g>
<!-- trace_link13&#45;&gt;Station_S5\n Classtype = 1\n Name = s_ -->
<g id="edge26" class="edge"><title>trace_link13&#45;&gt;Station_S5\n Classtype = 1\n Name = s_</title>
<path fill="none" stroke="black" d="M1205.71,-620.379C1200.57,-611.89 1194.2,-601.383 1187.79,-590.797"/>
<polygon fill="black" stroke="black" points="1190.59,-588.667 1182.41,-581.929 1184.6,-592.295 1190.59,-588.667"/>
</g>
<!-- apply_contains14 -->
<g id="node15" class="node"><title>apply_contains14</title>
<ellipse fill="#fcdb58" stroke="black" cx="1635" cy="-639" rx="96.8736" ry="18.3848"/>
<text text-anchor="middle" x="1635" y="-635.4" font-family="Times Roman,serif" font-size="14.00">apply_contains14</text>
</g>
<!-- Male_T21\n Classtype = t_\n Name = s_ -->
<g id="node22" class="node"><title>Male_T21\n Classtype = t_\n Name = s_</title>
<ellipse fill="lightblue" stroke="black" cx="1438" cy="-540" rx="85.7684" ry="43.8406"/>
<text text-anchor="middle" x="1438" y="-554.4" font-family="Times Roman,serif" font-size="14.00">Male_T21</text>
<text text-anchor="middle" x="1438" y="-536.4" font-family="Times Roman,serif" font-size="14.00"> Classtype = t_</text>
<text text-anchor="middle" x="1438" y="-518.4" font-family="Times Roman,serif" font-size="14.00"> Name = s_</text>
</g>
<!-- apply_contains14&#45;&gt;Male_T21\n Classtype = t_\n Name = s_ -->
<g id="edge32" class="edge"><title>apply_contains14&#45;&gt;Male_T21\n Classtype = t_\n Name = s_</title>
<path fill="none" stroke="black" d="M1600.23,-621.529C1574.9,-608.797 1539.71,-591.111 1508.57,-575.465"/>
<polygon fill="black" stroke="black" points="1509.99,-572.261 1499.48,-570.898 1506.85,-578.516 1509.99,-572.261"/>
</g>
<!-- leftExpr15\n Classtype = None\n Name = None -->
<g id="node16" class="node"><title>leftExpr15\n Classtype = None\n Name = None</title>
<ellipse fill="lightblue" stroke="black" cx="1102" cy="-168" rx="101.823" ry="43.8406"/>
<text text-anchor="middle" x="1102" y="-182.4" font-family="Times Roman,serif" font-size="14.00">leftExpr15</text>
<text text-anchor="middle" x="1102" y="-164.4" font-family="Times Roman,serif" font-size="14.00"> Classtype = None</text>
<text text-anchor="middle" x="1102" y="-146.4" font-family="Times Roman,serif" font-size="14.00"> Name = None</text>
</g>
<!-- Attribute25\n Classtype = None\n Name = name -->
<g id="node26" class="node"><title>Attribute25\n Classtype = None\n Name = name</title>
<ellipse fill="lightblue" stroke="black" cx="1324" cy="-44" rx="101.823" ry="43.8406"/>
<text text-anchor="middle" x="1324" y="-58.4" font-family="Times Roman,serif" font-size="14.00">Attribute25</text>
<text text-anchor="middle" x="1324" y="-40.4" font-family="Times Roman,serif" font-size="14.00"> Classtype = None</text>
<text text-anchor="middle" x="1324" y="-22.4" font-family="Times Roman,serif" font-size="14.00"> Name = name</text>
</g>
<!-- leftExpr15\n Classtype = None\n Name = None&#45;&gt;Attribute25\n Classtype = None\n Name = name -->
<g id="edge36" class="edge"><title>leftExpr15\n Classtype = None\n Name = None&#45;&gt;Attribute25\n Classtype = None\n Name = name</title>
<path fill="none" stroke="black" d="M1164.43,-133.129C1191.74,-117.875 1223.94,-99.8909 1252.23,-84.0871"/>
<polygon fill="black" stroke="black" points="1254.25,-86.971 1261.27,-79.0388 1250.83,-80.8596 1254.25,-86.971"/>
</g>
<!-- paired_with16 -->
<g id="node17" class="node"><title>paired_with16</title>
<ellipse fill="lightgray" stroke="black" cx="1612" cy="-837" rx="82.0244" ry="18.3848"/>
<text text-anchor="middle" x="1612" y="-833.4" font-family="Times Roman,serif" font-size="14.00">paired_with16</text>
</g>
<!-- ApplyModel18 -->
<g id="node19" class="node"><title>ApplyModel18</title>
<ellipse fill="#fed017" stroke="black" cx="1635" cy="-738" rx="79.9031" ry="18.3848"/>
<text text-anchor="middle" x="1635" y="-734.4" font-family="Times Roman,serif" font-size="14.00">ApplyModel18</text>
</g>
<!-- paired_with16&#45;&gt;ApplyModel18 -->
<g id="edge40" class="edge"><title>paired_with16&#45;&gt;ApplyModel18</title>
<path fill="none" stroke="black" d="M1616.33,-818.379C1619.73,-803.721 1624.53,-783.049 1628.42,-766.34"/>
<polygon fill="black" stroke="black" points="1631.84,-767.07 1630.69,-756.538 1625.02,-765.486 1631.84,-767.07"/>
</g>
<!-- hasAttr_S17\n Classtype = None\n Name = None -->
<g id="node18" class="node"><title>hasAttr_S17\n Classtype = None\n Name = None</title>
<ellipse fill="lightblue" stroke="black" cx="1324" cy="-168" rx="101.823" ry="43.8406"/>
<text text-anchor="middle" x="1324" y="-182.4" font-family="Times Roman,serif" font-size="14.00">hasAttr_S17</text>
<text text-anchor="middle" x="1324" y="-164.4" font-family="Times Roman,serif" font-size="14.00"> Classtype = None</text>
<text text-anchor="middle" x="1324" y="-146.4" font-family="Times Roman,serif" font-size="14.00"> Name = None</text>
</g>
<!-- hasAttr_S17\n Classtype = None\n Name = None&#45;&gt;Attribute25\n Classtype = None\n Name = name -->
<g id="edge44" class="edge"><title>hasAttr_S17\n Classtype = None\n Name = None&#45;&gt;Attribute25\n Classtype = None\n Name = name</title>
<path fill="none" stroke="black" d="M1324,-123.933C1324,-115.718 1324,-107.043 1324,-98.5568"/>
<polygon fill="black" stroke="black" points="1327.5,-98.3428 1324,-88.3428 1320.5,-98.3428 1327.5,-98.3428"/>
</g>
<!-- ApplyModel18&#45;&gt;apply_contains14 -->
<g id="edge30" class="edge"><title>ApplyModel18&#45;&gt;apply_contains14</title>
<path fill="none" stroke="black" d="M1635,-719.379C1635,-704.86 1635,-684.439 1635,-667.814"/>
<polygon fill="black" stroke="black" points="1638.5,-667.538 1635,-657.538 1631.5,-667.538 1638.5,-667.538"/>
</g>
<!-- Equation19\n Classtype = None\n Name = None -->
<g id="node20" class="node"><title>Equation19\n Classtype = None\n Name = None</title>
<ellipse fill="lightblue" stroke="black" cx="1046" cy="-292" rx="101.823" ry="43.8406"/>
<text text-anchor="middle" x="1046" y="-306.4" font-family="Times Roman,serif" font-size="14.00">Equation19</text>
<text text-anchor="middle" x="1046" y="-288.4" font-family="Times Roman,serif" font-size="14.00"> Classtype = None</text>
<text text-anchor="middle" x="1046" y="-270.4" font-family="Times Roman,serif" font-size="14.00"> Name = None</text>
</g>
<!-- Equation19\n Classtype = None\n Name = None&#45;&gt;leftExpr15\n Classtype = None\n Name = None -->
<g id="edge34" class="edge"><title>Equation19\n Classtype = None\n Name = None&#45;&gt;leftExpr15\n Classtype = None\n Name = None</title>
<path fill="none" stroke="black" d="M1065.59,-248.631C1069.65,-239.621 1073.98,-230.034 1078.19,-220.73"/>
<polygon fill="black" stroke="black" points="1081.4,-222.109 1082.33,-211.554 1075.02,-219.227 1081.4,-222.109"/>
</g>
<!-- rightExpr23\n Classtype = None\n Name = None -->
<g id="node24" class="node"><title>rightExpr23\n Classtype = None\n Name = None</title>
<ellipse fill="lightblue" stroke="black" cx="880" cy="-168" rx="101.823" ry="43.8406"/>
<text text-anchor="middle" x="880" y="-182.4" font-family="Times Roman,serif" font-size="14.00">rightExpr23</text>
<text text-anchor="middle" x="880" y="-164.4" font-family="Times Roman,serif" font-size="14.00"> Classtype = None</text>
<text text-anchor="middle" x="880" y="-146.4" font-family="Times Roman,serif" font-size="14.00"> Name = None</text>
</g>
<!-- Equation19\n Classtype = None\n Name = None&#45;&gt;rightExpr23\n Classtype = None\n Name = None -->
<g id="edge46" class="edge"><title>Equation19\n Classtype = None\n Name = None&#45;&gt;rightExpr23\n Classtype = None\n Name = None</title>
<path fill="none" stroke="black" d="M994.84,-253.784C977.326,-240.702 957.584,-225.954 939.471,-212.424"/>
<polygon fill="black" stroke="black" points="941.383,-209.484 931.277,-206.303 937.194,-215.092 941.383,-209.484"/>
</g>
<!-- match_contains20 -->
<g id="node21" class="node"><title>match_contains20</title>
<ellipse fill="#f798a1" stroke="black" cx="1436" cy="-738" rx="101.116" ry="18.3848"/>
<text text-anchor="middle" x="1436" y="-734.4" font-family="Times Roman,serif" font-size="14.00">match_contains20</text>
</g>
<!-- Male_S26\n Classtype = 1\n Name = s_ -->
<g id="node27" class="node"><title>Male_S26\n Classtype = 1\n Name = s_</title>
<ellipse fill="lightblue" stroke="black" cx="1324" cy="-292" rx="82.2301" ry="43.8406"/>
<text text-anchor="middle" x="1324" y="-306.4" font-family="Times Roman,serif" font-size="14.00">Male_S26</text>
<text text-anchor="middle" x="1324" y="-288.4" font-family="Times Roman,serif" font-size="14.00"> Classtype = 1</text>
<text text-anchor="middle" x="1324" y="-270.4" font-family="Times Roman,serif" font-size="14.00"> Name = s_</text>
</g>
<!-- match_contains20&#45;&gt;Male_S26\n Classtype = 1\n Name = s_ -->
<g id="edge50" class="edge"><title>match_contains20&#45;&gt;Male_S26\n Classtype = 1\n Name = s_</title>
<path fill="none" stroke="black" d="M1404.57,-720.394C1383.1,-706.49 1356.23,-684.959 1343,-658 1293.35,-556.798 1303.32,-420.378 1314.17,-345.955"/>
<polygon fill="black" stroke="black" points="1317.66,-346.288 1315.7,-335.876 1310.74,-345.237 1317.66,-346.288"/>
</g>
<!-- trace_link27 -->
<g id="node28" class="node"><title>trace_link27</title>
<ellipse fill="#eedd82" stroke="black" cx="1431" cy="-416" rx="72.1249" ry="18.3848"/>
<text text-anchor="middle" x="1431" y="-412.4" font-family="Times Roman,serif" font-size="14.00">trace_link27</text>
</g>
<!-- Male_T21\n Classtype = t_\n Name = s_&#45;&gt;trace_link27 -->
<g id="edge56" class="edge"><title>Male_T21\n Classtype = t_\n Name = s_&#45;&gt;trace_link27</title>
<path fill="none" stroke="black" d="M1435.51,-495.933C1434.56,-479.016 1433.49,-460.151 1432.64,-444.997"/>
<polygon fill="black" stroke="black" points="1436.11,-444.487 1432.06,-434.7 1429.12,-444.882 1436.11,-444.487"/>
</g>
<!-- Constant22\n Classtype = None\n Name = None -->
<g id="node23" class="node"><title>Constant22\n Classtype = None\n Name = None</title>
<ellipse fill="lightblue" stroke="black" cx="880" cy="-44" rx="101.823" ry="43.8406"/>
<text text-anchor="middle" x="880" y="-58.4" font-family="Times Roman,serif" font-size="14.00">Constant22</text>
<text text-anchor="middle" x="880" y="-40.4" font-family="Times Roman,serif" font-size="14.00"> Classtype = None</text>
<text text-anchor="middle" x="880" y="-22.4" font-family="Times Roman,serif" font-size="14.00"> Name = None</text>
</g>
<!-- rightExpr23\n Classtype = None\n Name = None&#45;&gt;Constant22\n Classtype = None\n Name = None -->
<g id="edge52" class="edge"><title>rightExpr23\n Classtype = None\n Name = None&#45;&gt;Constant22\n Classtype = None\n Name = None</title>
<path fill="none" stroke="black" d="M880,-123.933C880,-115.718 880,-107.043 880,-98.5568"/>
<polygon fill="black" stroke="black" points="883.5,-98.3428 880,-88.3428 876.5,-98.3428 883.5,-98.3428"/>
</g>
<!-- MatchModel24 -->
<g id="node25" class="node"><title>MatchModel24</title>
<ellipse fill="#e15c34" stroke="black" cx="1481" cy="-911" rx="82.2301" ry="18.3848"/>
<text text-anchor="middle" x="1481" y="-907.4" font-family="Times Roman,serif" font-size="14.00">MatchModel24</text>
</g>
<!-- MatchModel24&#45;&gt;paired_with16 -->
<g id="edge38" class="edge"><title>MatchModel24&#45;&gt;paired_with16</title>
<path fill="none" stroke="black" d="M1511.71,-893.65C1529.86,-883.398 1553.03,-870.31 1572.53,-859.298"/>
<polygon fill="black" stroke="black" points="1574.49,-862.207 1581.48,-854.241 1571.05,-856.112 1574.49,-862.207"/>
</g>
<!-- MatchModel24&#45;&gt;match_contains20 -->
<g id="edge48" class="edge"><title>MatchModel24&#45;&gt;match_contains20</title>
<path fill="none" stroke="black" d="M1476.18,-892.486C1468.32,-862.259 1452.68,-802.112 1443.4,-766.439"/>
<polygon fill="black" stroke="black" points="1446.75,-765.439 1440.85,-756.642 1439.98,-767.201 1446.75,-765.439"/>
</g>
<!-- Male_S26\n Classtype = 1\n Name = s_&#45;&gt;hasAttr_S17\n Classtype = None\n Name = None -->
<g id="edge42" class="edge"><title>Male_S26\n Classtype = 1\n Name = s_&#45;&gt;hasAttr_S17\n Classtype = None\n Name = None</title>
<path fill="none" stroke="black" d="M1324,-247.933C1324,-239.718 1324,-231.043 1324,-222.557"/>
<polygon fill="black" stroke="black" points="1327.5,-222.343 1324,-212.343 1320.5,-222.343 1327.5,-222.343"/>
</g>
<!-- trace_link27&#45;&gt;Male_S26\n Classtype = 1\n Name = s_ -->
<g id="edge54" class="edge"><title>trace_link27&#45;&gt;Male_S26\n Classtype = 1\n Name = s_</title>
<path fill="none" stroke="black" d="M1415.21,-397.703C1402.07,-382.47 1382.74,-360.076 1365.26,-339.817"/>
<polygon fill="black" stroke="black" points="1367.85,-337.461 1358.67,-332.176 1362.55,-342.034 1367.85,-337.461"/>
</g>
<!-- directLink_T28\n&#45;&gt;Male_T21\n Classtype = t_\n Name = s_ -->
<g id="edge64" class="edge"><title>directLink_T28\n&#45;&gt;Male_T21\n Classtype = t_\n Name = s_</title>
<path fill="none" stroke="black" d="M1436.38,-620.379C1436.53,-612.81 1436.71,-603.638 1436.9,-594.236"/>
<polygon fill="black" stroke="black" points="1440.41,-594.077 1437.11,-584.008 1433.41,-593.936 1440.41,-594.077"/>
</g>
<!-- rightExpr29\n Classtype = None\n Name = None -->
<g id="node30" class="node"><title>rightExpr29\n Classtype = None\n Name = None</title>
<ellipse fill="lightblue" stroke="black" cx="324" cy="-416" rx="101.823" ry="43.8406"/>
<text text-anchor="middle" x="324" y="-430.4" font-family="Times Roman,serif" font-size="14.00">rightExpr29</text>
<text text-anchor="middle" x="324" y="-412.4" font-family="Times Roman,serif" font-size="14.00"> Classtype = None</text>
<text text-anchor="middle" x="324" y="-394.4" font-family="Times Roman,serif" font-size="14.00"> Name = None</text>
</g>
<!-- Constant36\n Classtype = None\n Name = None -->
<g id="node37" class="node"><title>Constant36\n Classtype = None\n Name = None</title>
<ellipse fill="lightblue" stroke="black" cx="324" cy="-292" rx="101.823" ry="43.8406"/>
<text text-anchor="middle" x="324" y="-306.4" font-family="Times Roman,serif" font-size="14.00">Constant36</text>
<text text-anchor="middle" x="324" y="-288.4" font-family="Times Roman,serif" font-size="14.00"> Classtype = None</text>
<text text-anchor="middle" x="324" y="-270.4" font-family="Times Roman,serif" font-size="14.00"> Name = None</text>
</g>
<!-- rightExpr29\n Classtype = None\n Name = None&#45;&gt;Constant36\n Classtype = None\n Name = None -->
<g id="edge70" class="edge"><title>rightExpr29\n Classtype = None\n Name = None&#45;&gt;Constant36\n Classtype = None\n Name = None</title>
<path fill="none" stroke="black" d="M324,-371.933C324,-363.718 324,-355.043 324,-346.557"/>
<polygon fill="black" stroke="black" points="327.5,-346.343 324,-336.343 320.5,-346.343 327.5,-346.343"/>
</g>
<!-- rightExpr30\n Classtype = None\n Name = None -->
<g id="node31" class="node"><title>rightExpr30\n Classtype = None\n Name = None</title>
<ellipse fill="lightblue" stroke="black" cx="1768" cy="-168" rx="101.823" ry="43.8406"/>
<text text-anchor="middle" x="1768" y="-182.4" font-family="Times Roman,serif" font-size="14.00">rightExpr30</text>
<text text-anchor="middle" x="1768" y="-164.4" font-family="Times Roman,serif" font-size="14.00"> Classtype = None</text>
<text text-anchor="middle" x="1768" y="-146.4" font-family="Times Roman,serif" font-size="14.00"> Name = None</text>
</g>
<!-- Constant37\n Classtype = None\n Name = None -->
<g id="node38" class="node"><title>Constant37\n Classtype = None\n Name = None</title>
<ellipse fill="lightblue" stroke="black" cx="1768" cy="-44" rx="101.823" ry="43.8406"/>
<text text-anchor="middle" x="1768" y="-58.4" font-family="Times Roman,serif" font-size="14.00">Constant37</text>
<text text-anchor="middle" x="1768" y="-40.4" font-family="Times Roman,serif" font-size="14.00"> Classtype = None</text>
<text text-anchor="middle" x="1768" y="-22.4" font-family="Times Roman,serif" font-size="14.00"> Name = None</text>
</g>
<!-- rightExpr30\n Classtype = None\n Name = None&#45;&gt;Constant37\n Classtype = None\n Name = None -->
<g id="edge76" class="edge"><title>rightExpr30\n Classtype = None\n Name = None&#45;&gt;Constant37\n Classtype = None\n Name = None</title>
<path fill="none" stroke="black" d="M1768,-123.933C1768,-115.718 1768,-107.043 1768,-98.5568"/>
<polygon fill="black" stroke="black" points="1771.5,-98.3428 1768,-88.3428 1764.5,-98.3428 1771.5,-98.3428"/>
</g>
<!-- Equation31\n Classtype = None\n Name = None -->
<g id="node32" class="node"><title>Equation31\n Classtype = None\n Name = None</title>
<ellipse fill="lightblue" stroke="black" cx="657" cy="-540" rx="101.823" ry="43.8406"/>
<text text-anchor="middle" x="657" y="-554.4" font-family="Times Roman,serif" font-size="14.00">Equation31</text>
<text text-anchor="middle" x="657" y="-536.4" font-family="Times Roman,serif" font-size="14.00"> Classtype = None</text>
<text text-anchor="middle" x="657" y="-518.4" font-family="Times Roman,serif" font-size="14.00"> Name = None</text>
</g>
<!-- Equation31\n Classtype = None\n Name = None&#45;&gt;rightExpr29\n Classtype = None\n Name = None -->
<g id="edge66" class="edge"><title>Equation31\n Classtype = None\n Name = None&#45;&gt;rightExpr29\n Classtype = None\n Name = None</title>
<path fill="none" stroke="black" d="M577.922,-512.186C535.437,-497.071 482.227,-477.865 435,-460 426.294,-456.707 417.227,-453.215 408.194,-449.696"/>
<polygon fill="black" stroke="black" points="409.397,-446.408 398.809,-446.026 406.847,-452.928 409.397,-446.408"/>
</g>
<!-- leftExpr34\n Classtype = None\n Name = None -->
<g id="node35" class="node"><title>leftExpr34\n Classtype = None\n Name = None</title>
<ellipse fill="lightblue" stroke="black" cx="768" cy="-416" rx="101.823" ry="43.8406"/>
<text text-anchor="middle" x="768" y="-430.4" font-family="Times Roman,serif" font-size="14.00">leftExpr34</text>
<text text-anchor="middle" x="768" y="-412.4" font-family="Times Roman,serif" font-size="14.00"> Classtype = None</text>
<text text-anchor="middle" x="768" y="-394.4" font-family="Times Roman,serif" font-size="14.00"> Name = None</text>
</g>
<!-- Equation31\n Classtype = None\n Name = None&#45;&gt;leftExpr34\n Classtype = None\n Name = None -->
<g id="edge68" class="edge"><title>Equation31\n Classtype = None\n Name = None&#45;&gt;leftExpr34\n Classtype = None\n Name = None</title>
<path fill="none" stroke="black" d="M693.961,-498.71C703.697,-487.834 714.293,-475.997 724.345,-464.768"/>
<polygon fill="black" stroke="black" points="727.138,-466.895 731.2,-457.11 721.922,-462.226 727.138,-466.895"/>
</g>
<!-- Equation32\n Classtype = None\n Name = None -->
<g id="node33" class="node"><title>Equation32\n Classtype = None\n Name = None</title>
<ellipse fill="lightblue" stroke="black" cx="1657" cy="-292" rx="101.823" ry="43.8406"/>
<text text-anchor="middle" x="1657" y="-306.4" font-family="Times Roman,serif" font-size="14.00">Equation32</text>
<text text-anchor="middle" x="1657" y="-288.4" font-family="Times Roman,serif" font-size="14.00"> Classtype = None</text>
<text text-anchor="middle" x="1657" y="-270.4" font-family="Times Roman,serif" font-size="14.00"> Name = None</text>
</g>
<!-- Equation32\n Classtype = None\n Name = None&#45;&gt;rightExpr30\n Classtype = None\n Name = None -->
<g id="edge72" class="edge"><title>Equation32\n Classtype = None\n Name = None&#45;&gt;rightExpr30\n Classtype = None\n Name = None</title>
<path fill="none" stroke="black" d="M1693.96,-250.71C1703.7,-239.834 1714.29,-227.997 1724.35,-216.768"/>
<polygon fill="black" stroke="black" points="1727.14,-218.895 1731.2,-209.11 1721.92,-214.226 1727.14,-218.895"/>
</g>
<!-- leftExpr35\n Classtype = None\n Name = None -->
<g id="node36" class="node"><title>leftExpr35\n Classtype = None\n Name = None</title>
<ellipse fill="lightblue" stroke="black" cx="1546" cy="-168" rx="101.823" ry="43.8406"/>
<text text-anchor="middle" x="1546" y="-182.4" font-family="Times Roman,serif" font-size="14.00">leftExpr35</text>
<text text-anchor="middle" x="1546" y="-164.4" font-family="Times Roman,serif" font-size="14.00"> Classtype = None</text>
<text text-anchor="middle" x="1546" y="-146.4" font-family="Times Roman,serif" font-size="14.00"> Name = None</text>
</g>
<!-- Equation32\n Classtype = None\n Name = None&#45;&gt;leftExpr35\n Classtype = None\n Name = None -->
<g id="edge74" class="edge"><title>Equation32\n Classtype = None\n Name = None&#45;&gt;leftExpr35\n Classtype = None\n Name = None</title>
<path fill="none" stroke="black" d="M1620.04,-250.71C1610.3,-239.834 1599.71,-227.997 1589.65,-216.768"/>
<polygon fill="black" stroke="black" points="1592.08,-214.226 1582.8,-209.11 1586.86,-218.895 1592.08,-214.226"/>
</g>
<!-- indirectLink_S33&#45;&gt;Male_S26\n Classtype = 1\n Name = s_ -->
<g id="edge60" class="edge"><title>indirectLink_S33&#45;&gt;Male_S26\n Classtype = 1\n Name = s_</title>
<path fill="none" stroke="black" d="M1220.85,-397.703C1236.08,-382.095 1258.65,-358.969 1278.8,-338.324"/>
<polygon fill="black" stroke="black" points="1281.33,-340.743 1285.81,-331.141 1276.32,-335.854 1281.33,-340.743"/>
</g>
<!-- leftExpr34\n Classtype = None\n Name = None&#45;&gt;Attribute12\n Classtype = None\n Name = name -->
<g id="edge78" class="edge"><title>leftExpr34\n Classtype = None\n Name = None&#45;&gt;Attribute12\n Classtype = None\n Name = name</title>
<path fill="none" stroke="black" d="M768,-371.933C768,-363.718 768,-355.043 768,-346.557"/>
<polygon fill="black" stroke="black" points="771.5,-346.343 768,-336.343 764.5,-346.343 771.5,-346.343"/>
</g>
<!-- leftExpr35\n Classtype = None\n Name = None&#45;&gt;Attribute25\n Classtype = None\n Name = name -->
<g id="edge80" class="edge"><title>leftExpr35\n Classtype = None\n Name = None&#45;&gt;Attribute25\n Classtype = None\n Name = name</title>
<path fill="none" stroke="black" d="M1483.57,-133.129C1456.26,-117.875 1424.06,-99.8909 1395.77,-84.0871"/>
<polygon fill="black" stroke="black" points="1397.17,-80.8596 1386.73,-79.0388 1393.75,-86.971 1397.17,-80.8596"/>
</g>
</g>
</svg>
