<?xml version="1.0" encoding="UTF-8" standalone="no"?>
<!DOCTYPE svg PUBLIC "-//W3C//DTD SVG 1.1//EN"
 "http://www.w3.org/Graphics/SVG/1.1/DTD/svg11.dtd">
<!-- Generated by graphviz version 2.26.3 (20100126.1600)
 -->
<!-- Title: HEmptyPathCondition_HS2S_HM2M_HSM2SM Pages: 1 -->
<svg width="1918pt" height="1086pt"
 viewBox="0.00 0.00 1918.00 1086.00" xmlns="http://www.w3.org/2000/svg" xmlns:xlink="http://www.w3.org/1999/xlink">
<g id="graph1" class="graph" transform="scale(1 1) rotate(0) translate(4 1082)">
<title>HEmptyPathCondition_HS2S_HM2M_HSM2SM</title>
<polygon fill="white" stroke="white" points="-4,5 -4,-1082 1915,-1082 1915,5 -4,5"/>
<!-- apply_contains0 -->
<g id="node1" class="node"><title>apply_contains0</title>
<ellipse fill="#fcdb58" stroke="black" cx="1060" cy="-837" rx="90.0096" ry="18.3848"/>
<text text-anchor="middle" x="1060" y="-833.4" font-family="Times Roman,serif" font-size="14.00">apply_contains0</text>
</g>
<!-- Station_T6\n Classtype = t_\n Name = s_ -->
<g id="node7" class="node"><title>Station_T6\n Classtype = t_\n Name = s_</title>
<ellipse fill="lightblue" stroke="black" cx="1060" cy="-738" rx="85.7684" ry="43.8406"/>
<text text-anchor="middle" x="1060" y="-752.4" font-family="Times Roman,serif" font-size="14.00">Station_T6</text>
<text text-anchor="middle" x="1060" y="-734.4" font-family="Times Roman,serif" font-size="14.00"> Classtype = t_</text>
<text text-anchor="middle" x="1060" y="-716.4" font-family="Times Roman,serif" font-size="14.00"> Name = s_</text>
</g>
<!-- apply_contains0&#45;&gt;Station_T6\n Classtype = t_\n Name = s_ -->
<g id="edge4" class="edge"><title>apply_contains0&#45;&gt;Station_T6\n Classtype = t_\n Name = s_</title>
<path fill="none" stroke="black" d="M1060,-818.379C1060,-810.81 1060,-801.638 1060,-792.236"/>
<polygon fill="black" stroke="black" points="1063.5,-792.008 1060,-782.008 1056.5,-792.008 1063.5,-792.008"/>
</g>
<!-- leftExpr1\n Classtype = None\n Name = None -->
<g id="node2" class="node"><title>leftExpr1\n Classtype = None\n Name = None</title>
<ellipse fill="lightblue" stroke="black" cx="324" cy="-416" rx="101.823" ry="43.8406"/>
<text text-anchor="middle" x="324" y="-430.4" font-family="Times Roman,serif" font-size="14.00">leftExpr1</text>
<text text-anchor="middle" x="324" y="-412.4" font-family="Times Roman,serif" font-size="14.00"> Classtype = None</text>
<text text-anchor="middle" x="324" y="-394.4" font-family="Times Roman,serif" font-size="14.00"> Name = None</text>
</g>
<!-- Attribute12\n Classtype = None\n Name = name -->
<g id="node13" class="node"><title>Attribute12\n Classtype = None\n Name = name</title>
<ellipse fill="lightblue" stroke="black" cx="324" cy="-292" rx="101.823" ry="43.8406"/>
<text text-anchor="middle" x="324" y="-306.4" font-family="Times Roman,serif" font-size="14.00">Attribute12</text>
<text text-anchor="middle" x="324" y="-288.4" font-family="Times Roman,serif" font-size="14.00"> Classtype = None</text>
<text text-anchor="middle" x="324" y="-270.4" font-family="Times Roman,serif" font-size="14.00"> Name = name</text>
</g>
<!-- leftExpr1\n Classtype = None\n Name = None&#45;&gt;Attribute12\n Classtype = None\n Name = name -->
<g id="edge8" class="edge"><title>leftExpr1\n Classtype = None\n Name = None&#45;&gt;Attribute12\n Classtype = None\n Name = name</title>
<path fill="none" stroke="black" d="M324,-371.933C324,-363.718 324,-355.043 324,-346.557"/>
<polygon fill="black" stroke="black" points="327.5,-346.343 324,-336.343 320.5,-346.343 327.5,-346.343"/>
</g>
<!-- paired_with2 -->
<g id="node3" class="node"><title>paired_with2</title>
<ellipse fill="lightgray" stroke="black" cx="1060" cy="-985" rx="75.1594" ry="18.3848"/>
<text text-anchor="middle" x="1060" y="-981.4" font-family="Times Roman,serif" font-size="14.00">paired_with2</text>
</g>
<!-- ApplyModel4 -->
<g id="node5" class="node"><title>ApplyModel4</title>
<ellipse fill="#fed017" stroke="black" cx="1060" cy="-911" rx="73.0388" ry="18.3848"/>
<text text-anchor="middle" x="1060" y="-907.4" font-family="Times Roman,serif" font-size="14.00">ApplyModel4</text>
</g>
<!-- paired_with2&#45;&gt;ApplyModel4 -->
<g id="edge12" class="edge"><title>paired_with2&#45;&gt;ApplyModel4</title>
<path fill="none" stroke="black" d="M1060,-966.327C1060,-958.264 1060,-948.648 1060,-939.711"/>
<polygon fill="black" stroke="black" points="1063.5,-939.667 1060,-929.667 1056.5,-939.667 1063.5,-939.667"/>
</g>
<!-- hasAttr_S3\n Classtype = None\n Name = None -->
<g id="node4" class="node"><title>hasAttr_S3\n Classtype = None\n Name = None</title>
<ellipse fill="lightblue" stroke="black" cx="938" cy="-416" rx="101.823" ry="43.8406"/>
<text text-anchor="middle" x="938" y="-430.4" font-family="Times Roman,serif" font-size="14.00">hasAttr_S3</text>
<text text-anchor="middle" x="938" y="-412.4" font-family="Times Roman,serif" font-size="14.00"> Classtype = None</text>
<text text-anchor="middle" x="938" y="-394.4" font-family="Times Roman,serif" font-size="14.00"> Name = None</text>
</g>
<!-- hasAttr_S3\n Classtype = None\n Name = None&#45;&gt;Attribute12\n Classtype = None\n Name = name -->
<g id="edge16" class="edge"><title>hasAttr_S3\n Classtype = None\n Name = None&#45;&gt;Attribute12\n Classtype = None\n Name = name</title>
<path fill="none" stroke="black" d="M866.72,-384.297C853.712,-379.508 840.106,-375.131 827,-372 656.833,-331.35 605.167,-376.65 435,-336 425.068,-333.628 414.849,-330.539 404.821,-327.098"/>
<polygon fill="black" stroke="black" points="405.875,-323.758 395.28,-323.703 403.528,-330.353 405.875,-323.758"/>
</g>
<!-- ApplyModel4&#45;&gt;apply_contains0 -->
<g id="edge2" class="edge"><title>ApplyModel4&#45;&gt;apply_contains0</title>
<path fill="none" stroke="black" d="M1060,-892.327C1060,-884.264 1060,-874.648 1060,-865.711"/>
<polygon fill="black" stroke="black" points="1063.5,-865.667 1060,-855.667 1056.5,-865.667 1063.5,-865.667"/>
</g>
<!-- Station_S5\n Classtype = 1\n Name = s_ -->
<g id="node6" class="node"><title>Station_S5\n Classtype = 1\n Name = s_</title>
<ellipse fill="lightblue" stroke="black" cx="1151" cy="-540" rx="82.2301" ry="43.8406"/>
<text text-anchor="middle" x="1151" y="-554.4" font-family="Times Roman,serif" font-size="14.00">Station_S5</text>
<text text-anchor="middle" x="1151" y="-536.4" font-family="Times Roman,serif" font-size="14.00"> Classtype = 1</text>
<text text-anchor="middle" x="1151" y="-518.4" font-family="Times Roman,serif" font-size="14.00"> Name = s_</text>
</g>
<!-- Station_S5\n Classtype = 1\n Name = s_&#45;&gt;hasAttr_S3\n Classtype = None\n Name = None -->
<g id="edge14" class="edge"><title>Station_S5\n Classtype = 1\n Name = s_&#45;&gt;hasAttr_S3\n Classtype = None\n Name = None</title>
<path fill="none" stroke="black" d="M1095.31,-507.582C1068.51,-491.975 1036.08,-473.101 1007.66,-456.552"/>
<polygon fill="black" stroke="black" points="1009.38,-453.504 998.975,-451.497 1005.86,-459.553 1009.38,-453.504"/>
</g>
<!-- indirectLink_S35 -->
<g id="node36" class="node"><title>indirectLink_S35</title>
<ellipse fill="lightgreen" stroke="black" cx="1151" cy="-416" rx="92.839" ry="18.3848"/>
<text text-anchor="middle" x="1151" y="-412.4" font-family="Times Roman,serif" font-size="14.00">indirectLink_S35</text>
</g>
<!-- Station_S5\n Classtype = 1\n Name = s_&#45;&gt;indirectLink_S35 -->
<g id="edge58" class="edge"><title>Station_S5\n Classtype = 1\n Name = s_&#45;&gt;indirectLink_S35</title>
<path fill="none" stroke="black" d="M1151,-495.933C1151,-479.016 1151,-460.151 1151,-444.997"/>
<polygon fill="black" stroke="black" points="1154.5,-444.7 1151,-434.7 1147.5,-444.7 1154.5,-444.7"/>
</g>
<!-- hasAttr_S38\n Classtype = None\n Name = None -->
<g id="node39" class="node"><title>hasAttr_S38\n Classtype = None\n Name = None</title>
<ellipse fill="lightblue" stroke="black" cx="1364" cy="-416" rx="101.823" ry="43.8406"/>
<text text-anchor="middle" x="1364" y="-430.4" font-family="Times Roman,serif" font-size="14.00">hasAttr_S38</text>
<text text-anchor="middle" x="1364" y="-412.4" font-family="Times Roman,serif" font-size="14.00"> Classtype = None</text>
<text text-anchor="middle" x="1364" y="-394.4" font-family="Times Roman,serif" font-size="14.00"> Name = None</text>
</g>
<!-- Station_S5\n Classtype = 1\n Name = s_&#45;&gt;hasAttr_S38\n Classtype = None\n Name = None -->
<g id="edge76" class="edge"><title>Station_S5\n Classtype = 1\n Name = s_&#45;&gt;hasAttr_S38\n Classtype = None\n Name = None</title>
<path fill="none" stroke="black" d="M1206.69,-507.582C1233.49,-491.975 1265.92,-473.101 1294.34,-456.552"/>
<polygon fill="black" stroke="black" points="1296.14,-459.553 1303.03,-451.497 1292.62,-453.504 1296.14,-459.553"/>
</g>
<!-- trace_link13 -->
<g id="node14" class="node"><title>trace_link13</title>
<ellipse fill="#eedd82" stroke="black" cx="1148" cy="-639" rx="72.1249" ry="18.3848"/>
<text text-anchor="middle" x="1148" y="-635.4" font-family="Times Roman,serif" font-size="14.00">trace_link13</text>
</g>
<!-- Station_T6\n Classtype = t_\n Name = s_&#45;&gt;trace_link13 -->
<g id="edge28" class="edge"><title>Station_T6\n Classtype = t_\n Name = s_&#45;&gt;trace_link13</title>
<path fill="none" stroke="black" d="M1095.79,-697.733C1105.71,-686.581 1116.19,-674.782 1125.15,-664.707"/>
<polygon fill="black" stroke="black" points="1127.93,-666.842 1131.96,-657.043 1122.7,-662.192 1127.93,-666.842"/>
</g>
<!-- directLink_T30\n -->
<g id="node31" class="node"><title>directLink_T30\n</title>
<ellipse fill="lightyellow" stroke="black" cx="974" cy="-639" rx="84.1457" ry="18.3848"/>
<text text-anchor="middle" x="974" y="-635.4" font-family="Times Roman,serif" font-size="14.00">directLink_T30</text>
</g>
<!-- Station_T6\n Classtype = t_\n Name = s_&#45;&gt;directLink_T30\n -->
<g id="edge62" class="edge"><title>Station_T6\n Classtype = t_\n Name = s_&#45;&gt;directLink_T30\n</title>
<path fill="none" stroke="black" d="M1025.02,-697.733C1015.41,-686.666 1005.24,-674.96 996.531,-664.937"/>
<polygon fill="black" stroke="black" points="999.099,-662.556 989.899,-657.302 993.815,-667.147 999.099,-662.556"/>
</g>
<!-- Equation7\n Classtype = None\n Name = None -->
<g id="node8" class="node"><title>Equation7\n Classtype = None\n Name = None</title>
<ellipse fill="lightblue" stroke="black" cx="213" cy="-540" rx="101.823" ry="43.8406"/>
<text text-anchor="middle" x="213" y="-554.4" font-family="Times Roman,serif" font-size="14.00">Equation7</text>
<text text-anchor="middle" x="213" y="-536.4" font-family="Times Roman,serif" font-size="14.00"> Classtype = None</text>
<text text-anchor="middle" x="213" y="-518.4" font-family="Times Roman,serif" font-size="14.00"> Name = None</text>
</g>
<!-- Equation7\n Classtype = None\n Name = None&#45;&gt;leftExpr1\n Classtype = None\n Name = None -->
<g id="edge6" class="edge"><title>Equation7\n Classtype = None\n Name = None&#45;&gt;leftExpr1\n Classtype = None\n Name = None</title>
<path fill="none" stroke="black" d="M249.961,-498.71C259.697,-487.834 270.293,-475.997 280.345,-464.768"/>
<polygon fill="black" stroke="black" points="283.138,-466.895 287.2,-457.11 277.922,-462.226 283.138,-466.895"/>
</g>
<!-- rightExpr10\n Classtype = None\n Name = None -->
<g id="node11" class="node"><title>rightExpr10\n Classtype = None\n Name = None</title>
<ellipse fill="lightblue" stroke="black" cx="102" cy="-416" rx="101.823" ry="43.8406"/>
<text text-anchor="middle" x="102" y="-430.4" font-family="Times Roman,serif" font-size="14.00">rightExpr10</text>
<text text-anchor="middle" x="102" y="-412.4" font-family="Times Roman,serif" font-size="14.00"> Classtype = None</text>
<text text-anchor="middle" x="102" y="-394.4" font-family="Times Roman,serif" font-size="14.00"> Name = None</text>
</g>
<!-- Equation7\n Classtype = None\n Name = None&#45;&gt;rightExpr10\n Classtype = None\n Name = None -->
<g id="edge20" class="edge"><title>Equation7\n Classtype = None\n Name = None&#45;&gt;rightExpr10\n Classtype = None\n Name = None</title>
<path fill="none" stroke="black" d="M176.039,-498.71C166.303,-487.834 155.707,-475.997 145.655,-464.768"/>
<polygon fill="black" stroke="black" points="148.078,-462.226 138.8,-457.11 142.862,-466.895 148.078,-462.226"/>
</g>
<!-- match_contains8 -->
<g id="node9" class="node"><title>match_contains8</title>
<ellipse fill="#f798a1" stroke="black" cx="1248" cy="-985" rx="94.7523" ry="18.3848"/>
<text text-anchor="middle" x="1248" y="-981.4" font-family="Times Roman,serif" font-size="14.00">match_contains8</text>
</g>
<!-- match_contains8&#45;&gt;Station_S5\n Classtype = 1\n Name = s_ -->
<g id="edge18" class="edge"><title>match_contains8&#45;&gt;Station_S5\n Classtype = 1\n Name = s_</title>
<path fill="none" stroke="black" d="M1248,-966.309C1248,-938.234 1248,-883.507 1248,-837 1248,-837 1248,-837 1248,-738 1248,-684.88 1252.88,-667.451 1229,-620 1222.48,-607.047 1213.12,-594.838 1203.13,-584.043"/>
<polygon fill="black" stroke="black" points="1205.61,-581.567 1196.14,-576.803 1200.57,-586.428 1205.61,-581.567"/>
</g>
<!-- Constant9\n Classtype = None\n Name = None -->
<g id="node10" class="node"><title>Constant9\n Classtype = None\n Name = None</title>
<ellipse fill="lightblue" stroke="black" cx="102" cy="-292" rx="101.823" ry="43.8406"/>
<text text-anchor="middle" x="102" y="-306.4" font-family="Times Roman,serif" font-size="14.00">Constant9</text>
<text text-anchor="middle" x="102" y="-288.4" font-family="Times Roman,serif" font-size="14.00"> Classtype = None</text>
<text text-anchor="middle" x="102" y="-270.4" font-family="Times Roman,serif" font-size="14.00"> Name = None</text>
</g>
<!-- rightExpr10\n Classtype = None\n Name = None&#45;&gt;Constant9\n Classtype = None\n Name = None -->
<g id="edge24" class="edge"><title>rightExpr10\n Classtype = None\n Name = None&#45;&gt;Constant9\n Classtype = None\n Name = None</title>
<path fill="none" stroke="black" d="M102,-371.933C102,-363.718 102,-355.043 102,-346.557"/>
<polygon fill="black" stroke="black" points="105.5,-346.343 102,-336.343 98.5001,-346.343 105.5,-346.343"/>
</g>
<!-- MatchModel11 -->
<g id="node12" class="node"><title>MatchModel11</title>
<ellipse fill="#e15c34" stroke="black" cx="1154" cy="-1059" rx="82.2301" ry="18.3848"/>
<text text-anchor="middle" x="1154" y="-1055.4" font-family="Times Roman,serif" font-size="14.00">MatchModel11</text>
</g>
<!-- MatchModel11&#45;&gt;paired_with2 -->
<g id="edge10" class="edge"><title>MatchModel11&#45;&gt;paired_with2</title>
<path fill="none" stroke="black" d="M1131.25,-1041.09C1119.01,-1031.45 1103.75,-1019.44 1090.49,-1009.01"/>
<polygon fill="black" stroke="black" points="1092.57,-1006.18 1082.55,-1002.75 1088.24,-1011.68 1092.57,-1006.18"/>
</g>
<!-- MatchModel11&#45;&gt;match_contains8 -->
<g id="edge22" class="edge"><title>MatchModel11&#45;&gt;match_contains8</title>
<path fill="none" stroke="black" d="M1176.75,-1041.09C1188.9,-1031.52 1204.03,-1019.62 1217.21,-1009.24"/>
<polygon fill="black" stroke="black" points="1219.44,-1011.94 1225.13,-1003 1215.11,-1006.44 1219.44,-1011.94"/>
</g>
<!-- trace_link13&#45;&gt;Station_S5\n Classtype = 1\n Name = s_ -->
<g id="edge26" class="edge"><title>trace_link13&#45;&gt;Station_S5\n Classtype = 1\n Name = s_</title>
<path fill="none" stroke="black" d="M1148.56,-620.379C1148.79,-612.81 1149.07,-603.638 1149.36,-594.236"/>
<polygon fill="black" stroke="black" points="1152.86,-594.11 1149.67,-584.008 1145.87,-593.898 1152.86,-594.11"/>
</g>
<!-- apply_contains14 -->
<g id="node15" class="node"><title>apply_contains14</title>
<ellipse fill="#fcdb58" stroke="black" cx="775" cy="-639" rx="96.8736" ry="18.3848"/>
<text text-anchor="middle" x="775" y="-635.4" font-family="Times Roman,serif" font-size="14.00">apply_contains14</text>
</g>
<!-- Male_T21\n Classtype = t_\n Name = s_ -->
<g id="node22" class="node"><title>Male_T21\n Classtype = t_\n Name = s_</title>
<ellipse fill="lightblue" stroke="black" cx="775" cy="-540" rx="85.7684" ry="43.8406"/>
<text text-anchor="middle" x="775" y="-554.4" font-family="Times Roman,serif" font-size="14.00">Male_T21</text>
<text text-anchor="middle" x="775" y="-536.4" font-family="Times Roman,serif" font-size="14.00"> Classtype = t_</text>
<text text-anchor="middle" x="775" y="-518.4" font-family="Times Roman,serif" font-size="14.00"> Name = s_</text>
</g>
<!-- apply_contains14&#45;&gt;Male_T21\n Classtype = t_\n Name = s_ -->
<g id="edge32" class="edge"><title>apply_contains14&#45;&gt;Male_T21\n Classtype = t_\n Name = s_</title>
<path fill="none" stroke="black" d="M775,-620.379C775,-612.81 775,-603.638 775,-594.236"/>
<polygon fill="black" stroke="black" points="778.5,-594.008 775,-584.008 771.5,-594.008 778.5,-594.008"/>
</g>
<!-- leftExpr15\n Classtype = None\n Name = None -->
<g id="node16" class="node"><title>leftExpr15\n Classtype = None\n Name = None</title>
<ellipse fill="lightblue" stroke="black" cx="546" cy="-168" rx="101.823" ry="43.8406"/>
<text text-anchor="middle" x="546" y="-182.4" font-family="Times Roman,serif" font-size="14.00">leftExpr15</text>
<text text-anchor="middle" x="546" y="-164.4" font-family="Times Roman,serif" font-size="14.00"> Classtype = None</text>
<text text-anchor="middle" x="546" y="-146.4" font-family="Times Roman,serif" font-size="14.00"> Name = None</text>
</g>
<!-- Attribute25\n Classtype = None\n Name = name -->
<g id="node26" class="node"><title>Attribute25\n Classtype = None\n Name = name</title>
<ellipse fill="lightblue" stroke="black" cx="657" cy="-44" rx="101.823" ry="43.8406"/>
<text text-anchor="middle" x="657" y="-58.4" font-family="Times Roman,serif" font-size="14.00">Attribute25</text>
<text text-anchor="middle" x="657" y="-40.4" font-family="Times Roman,serif" font-size="14.00"> Classtype = None</text>
<text text-anchor="middle" x="657" y="-22.4" font-family="Times Roman,serif" font-size="14.00"> Name = name</text>
</g>
<!-- leftExpr15\n Classtype = None\n Name = None&#45;&gt;Attribute25\n Classtype = None\n Name = name -->
<g id="edge36" class="edge"><title>leftExpr15\n Classtype = None\n Name = None&#45;&gt;Attribute25\n Classtype = None\n Name = name</title>
<path fill="none" stroke="black" d="M582.961,-126.71C592.697,-115.834 603.293,-103.997 613.345,-92.7677"/>
<polygon fill="black" stroke="black" points="616.138,-94.8952 620.2,-85.1099 610.922,-90.2264 616.138,-94.8952"/>
</g>
<!-- paired_with16 -->
<g id="node17" class="node"><title>paired_with16</title>
<ellipse fill="lightgray" stroke="black" cx="772" cy="-837" rx="82.0244" ry="18.3848"/>
<text text-anchor="middle" x="772" y="-833.4" font-family="Times Roman,serif" font-size="14.00">paired_with16</text>
</g>
<!-- ApplyModel18 -->
<g id="node19" class="node"><title>ApplyModel18</title>
<ellipse fill="#fed017" stroke="black" cx="794" cy="-738" rx="79.9031" ry="18.3848"/>
<text text-anchor="middle" x="794" y="-734.4" font-family="Times Roman,serif" font-size="14.00">ApplyModel18</text>
</g>
<!-- paired_with16&#45;&gt;ApplyModel18 -->
<g id="edge40" class="edge"><title>paired_with16&#45;&gt;ApplyModel18</title>
<path fill="none" stroke="black" d="M776.138,-818.379C779.395,-803.721 783.989,-783.049 787.702,-766.34"/>
<polygon fill="black" stroke="black" points="791.128,-767.059 789.881,-756.538 784.294,-765.54 791.128,-767.059"/>
</g>
<!-- hasAttr_S17\n Classtype = None\n Name = None -->
<g id="node18" class="node"><title>hasAttr_S17\n Classtype = None\n Name = None</title>
<ellipse fill="lightblue" stroke="black" cx="768" cy="-168" rx="101.823" ry="43.8406"/>
<text text-anchor="middle" x="768" y="-182.4" font-family="Times Roman,serif" font-size="14.00">hasAttr_S17</text>
<text text-anchor="middle" x="768" y="-164.4" font-family="Times Roman,serif" font-size="14.00"> Classtype = None</text>
<text text-anchor="middle" x="768" y="-146.4" font-family="Times Roman,serif" font-size="14.00"> Name = None</text>
</g>
<!-- hasAttr_S17\n Classtype = None\n Name = None&#45;&gt;Attribute25\n Classtype = None\n Name = name -->
<g id="edge44" class="edge"><title>hasAttr_S17\n Classtype = None\n Name = None&#45;&gt;Attribute25\n Classtype = None\n Name = name</title>
<path fill="none" stroke="black" d="M731.039,-126.71C721.303,-115.834 710.707,-103.997 700.655,-92.7677"/>
<polygon fill="black" stroke="black" points="703.078,-90.2264 693.8,-85.1099 697.862,-94.8952 703.078,-90.2264"/>
</g>
<!-- ApplyModel18&#45;&gt;apply_contains14 -->
<g id="edge30" class="edge"><title>ApplyModel18&#45;&gt;apply_contains14</title>
<path fill="none" stroke="black" d="M790.426,-719.379C787.64,-704.86 783.721,-684.439 780.53,-667.814"/>
<polygon fill="black" stroke="black" points="783.88,-666.699 778.558,-657.538 777.005,-668.018 783.88,-666.699"/>
</g>
<!-- Equation19\n Classtype = None\n Name = None -->
<g id="node20" class="node"><title>Equation19\n Classtype = None\n Name = None</title>
<ellipse fill="lightblue" stroke="black" cx="546" cy="-292" rx="101.823" ry="43.8406"/>
<text text-anchor="middle" x="546" y="-306.4" font-family="Times Roman,serif" font-size="14.00">Equation19</text>
<text text-anchor="middle" x="546" y="-288.4" font-family="Times Roman,serif" font-size="14.00"> Classtype = None</text>
<text text-anchor="middle" x="546" y="-270.4" font-family="Times Roman,serif" font-size="14.00"> Name = None</text>
</g>
<!-- Equation19\n Classtype = None\n Name = None&#45;&gt;leftExpr15\n Classtype = None\n Name = None -->
<g id="edge34" class="edge"><title>Equation19\n Classtype = None\n Name = None&#45;&gt;leftExpr15\n Classtype = None\n Name = None</title>
<path fill="none" stroke="black" d="M546,-247.933C546,-239.718 546,-231.043 546,-222.557"/>
<polygon fill="black" stroke="black" points="549.5,-222.343 546,-212.343 542.5,-222.343 549.5,-222.343"/>
</g>
<!-- rightExpr23\n Classtype = None\n Name = None -->
<g id="node24" class="node"><title>rightExpr23\n Classtype = None\n Name = None</title>
<ellipse fill="lightblue" stroke="black" cx="324" cy="-168" rx="101.823" ry="43.8406"/>
<text text-anchor="middle" x="324" y="-182.4" font-family="Times Roman,serif" font-size="14.00">rightExpr23</text>
<text text-anchor="middle" x="324" y="-164.4" font-family="Times Roman,serif" font-size="14.00"> Classtype = None</text>
<text text-anchor="middle" x="324" y="-146.4" font-family="Times Roman,serif" font-size="14.00"> Name = None</text>
</g>
<!-- Equation19\n Classtype = None\n Name = None&#45;&gt;rightExpr23\n Classtype = None\n Name = None -->
<g id="edge46" class="edge"><title>Equation19\n Classtype = None\n Name = None&#45;&gt;rightExpr23\n Classtype = None\n Name = None</title>
<path fill="none" stroke="black" d="M483.57,-257.129C456.259,-241.875 424.063,-223.891 395.769,-208.087"/>
<polygon fill="black" stroke="black" points="397.168,-204.86 386.731,-203.039 393.754,-210.971 397.168,-204.86"/>
</g>
<!-- match_contains20 -->
<g id="node21" class="node"><title>match_contains20</title>
<ellipse fill="#f798a1" stroke="black" cx="595" cy="-738" rx="101.116" ry="18.3848"/>
<text text-anchor="middle" x="595" y="-734.4" font-family="Times Roman,serif" font-size="14.00">match_contains20</text>
</g>
<!-- Male_S26\n Classtype = 1\n Name = s_ -->
<g id="node27" class="node"><title>Male_S26\n Classtype = 1\n Name = s_</title>
<ellipse fill="lightblue" stroke="black" cx="768" cy="-292" rx="82.2301" ry="43.8406"/>
<text text-anchor="middle" x="768" y="-306.4" font-family="Times Roman,serif" font-size="14.00">Male_S26</text>
<text text-anchor="middle" x="768" y="-288.4" font-family="Times Roman,serif" font-size="14.00"> Classtype = 1</text>
<text text-anchor="middle" x="768" y="-270.4" font-family="Times Roman,serif" font-size="14.00"> Name = s_</text>
</g>
<!-- match_contains20&#45;&gt;Male_S26\n Classtype = 1\n Name = s_ -->
<g id="edge50" class="edge"><title>match_contains20&#45;&gt;Male_S26\n Classtype = 1\n Name = s_</title>
<path fill="none" stroke="black" d="M594.13,-719.243C592.369,-662.378 593.518,-488.669 665,-372 674.781,-356.036 688.989,-342.038 703.744,-330.402"/>
<polygon fill="black" stroke="black" points="706.106,-333.005 711.973,-324.184 701.885,-327.421 706.106,-333.005"/>
</g>
<!-- trace_link27 -->
<g id="node28" class="node"><title>trace_link27</title>
<ellipse fill="#eedd82" stroke="black" cx="746" cy="-416" rx="72.1249" ry="18.3848"/>
<text text-anchor="middle" x="746" y="-412.4" font-family="Times Roman,serif" font-size="14.00">trace_link27</text>
</g>
<!-- Male_T21\n Classtype = t_\n Name = s_&#45;&gt;trace_link27 -->
<g id="edge56" class="edge"><title>Male_T21\n Classtype = t_\n Name = s_&#45;&gt;trace_link27</title>
<path fill="none" stroke="black" d="M764.776,-496.282C760.748,-479.06 756.237,-459.77 752.646,-444.416"/>
<polygon fill="black" stroke="black" points="756.009,-443.429 750.324,-434.489 749.193,-445.023 756.009,-443.429"/>
</g>
<!-- Constant22\n Classtype = None\n Name = None -->
<g id="node23" class="node"><title>Constant22\n Classtype = None\n Name = None</title>
<ellipse fill="lightblue" stroke="black" cx="324" cy="-44" rx="101.823" ry="43.8406"/>
<text text-anchor="middle" x="324" y="-58.4" font-family="Times Roman,serif" font-size="14.00">Constant22</text>
<text text-anchor="middle" x="324" y="-40.4" font-family="Times Roman,serif" font-size="14.00"> Classtype = None</text>
<text text-anchor="middle" x="324" y="-22.4" font-family="Times Roman,serif" font-size="14.00"> Name = None</text>
</g>
<!-- rightExpr23\n Classtype = None\n Name = None&#45;&gt;Constant22\n Classtype = None\n Name = None -->
<g id="edge52" class="edge"><title>rightExpr23\n Classtype = None\n Name = None&#45;&gt;Constant22\n Classtype = None\n Name = None</title>
<path fill="none" stroke="black" d="M324,-123.933C324,-115.718 324,-107.043 324,-98.5568"/>
<polygon fill="black" stroke="black" points="327.5,-98.3428 324,-88.3428 320.5,-98.3428 327.5,-98.3428"/>
</g>
<!-- MatchModel24 -->
<g id="node25" class="node"><title>MatchModel24</title>
<ellipse fill="#e15c34" stroke="black" cx="738" cy="-911" rx="82.2301" ry="18.3848"/>
<text text-anchor="middle" x="738" y="-907.4" font-family="Times Roman,serif" font-size="14.00">MatchModel24</text>
</g>
<!-- MatchModel24&#45;&gt;paired_with16 -->
<g id="edge38" class="edge"><title>MatchModel24&#45;&gt;paired_with16</title>
<path fill="none" stroke="black" d="M746.58,-892.327C750.434,-883.937 755.061,-873.866 759.305,-864.629"/>
<polygon fill="black" stroke="black" points="762.546,-865.959 763.541,-855.411 756.185,-863.037 762.546,-865.959"/>
</g>
<!-- MatchModel24&#45;&gt;match_contains20 -->
<g id="edge48" class="edge"><title>MatchModel24&#45;&gt;match_contains20</title>
<path fill="none" stroke="black" d="M717.636,-892.964C706.366,-882.594 692.38,-869.066 681,-856 655.348,-826.547 629.421,-789.802 612.843,-765.213"/>
<polygon fill="black" stroke="black" points="615.644,-763.106 607.175,-756.74 609.826,-766.998 615.644,-763.106"/>
</g>
<!-- Male_S26\n Classtype = 1\n Name = s_&#45;&gt;hasAttr_S17\n Classtype = None\n Name = None -->
<g id="edge42" class="edge"><title>Male_S26\n Classtype = 1\n Name = s_&#45;&gt;hasAttr_S17\n Classtype = None\n Name = None</title>
<path fill="none" stroke="black" d="M768,-247.933C768,-239.718 768,-231.043 768,-222.557"/>
<polygon fill="black" stroke="black" points="771.5,-222.343 768,-212.343 764.5,-222.343 771.5,-222.343"/>
</g>
<!-- hasAttr_S39\n Classtype = None\n Name = None -->
<g id="node40" class="node"><title>hasAttr_S39\n Classtype = None\n Name = None</title>
<ellipse fill="lightblue" stroke="black" cx="990" cy="-168" rx="101.823" ry="43.8406"/>
<text text-anchor="middle" x="990" y="-182.4" font-family="Times Roman,serif" font-size="14.00">hasAttr_S39</text>
<text text-anchor="middle" x="990" y="-164.4" font-family="Times Roman,serif" font-size="14.00"> Classtype = None</text>
<text text-anchor="middle" x="990" y="-146.4" font-family="Times Roman,serif" font-size="14.00"> Name = None</text>
</g>
<!-- Male_S26\n Classtype = 1\n Name = s_&#45;&gt;hasAttr_S39\n Classtype = None\n Name = None -->
<g id="edge88" class="edge"><title>Male_S26\n Classtype = 1\n Name = s_&#45;&gt;hasAttr_S39\n Classtype = None\n Name = None</title>
<path fill="none" stroke="black" d="M824.882,-260.228C853.412,-244.292 888.257,-224.829 918.571,-207.897"/>
<polygon fill="black" stroke="black" points="920.382,-210.895 927.406,-202.963 916.969,-204.783 920.382,-210.895"/>
</g>
<!-- trace_link27&#45;&gt;Male_S26\n Classtype = 1\n Name = s_ -->
<g id="edge54" class="edge"><title>trace_link27&#45;&gt;Male_S26\n Classtype = 1\n Name = s_</title>
<path fill="none" stroke="black" d="M749.294,-397.436C751.721,-383.755 755.154,-364.402 758.418,-346.005"/>
<polygon fill="black" stroke="black" points="761.906,-346.383 760.207,-335.925 755.014,-345.16 761.906,-346.383"/>
</g>
<!-- Attribute28\n Classtype = None\n Name = name -->
<g id="node29" class="node"><title>Attribute28\n Classtype = None\n Name = name</title>
<ellipse fill="lightblue" stroke="black" cx="1499" cy="-292" rx="101.823" ry="43.8406"/>
<text text-anchor="middle" x="1499" y="-306.4" font-family="Times Roman,serif" font-size="14.00">Attribute28</text>
<text text-anchor="middle" x="1499" y="-288.4" font-family="Times Roman,serif" font-size="14.00"> Classtype = None</text>
<text text-anchor="middle" x="1499" y="-270.4" font-family="Times Roman,serif" font-size="14.00"> Name = name</text>
</g>
<!-- Attribute29\n Classtype = None\n Name = name -->
<g id="node30" class="node"><title>Attribute29\n Classtype = None\n Name = name</title>
<ellipse fill="lightblue" stroke="black" cx="1101" cy="-44" rx="101.823" ry="43.8406"/>
<text text-anchor="middle" x="1101" y="-58.4" font-family="Times Roman,serif" font-size="14.00">Attribute29</text>
<text text-anchor="middle" x="1101" y="-40.4" font-family="Times Roman,serif" font-size="14.00"> Classtype = None</text>
<text text-anchor="middle" x="1101" y="-22.4" font-family="Times Roman,serif" font-size="14.00"> Name = name</text>
</g>
<!-- directLink_T30\n&#45;&gt;Male_T21\n Classtype = t_\n Name = s_ -->
<g id="edge64" class="edge"><title>directLink_T30\n&#45;&gt;Male_T21\n Classtype = t_\n Name = s_</title>
<path fill="none" stroke="black" d="M939.791,-621.981C914.1,-609.201 878.013,-591.248 846.156,-575.399"/>
<polygon fill="black" stroke="black" points="847.371,-572.095 836.859,-570.774 844.253,-578.362 847.371,-572.095"/>
</g>
<!-- rightExpr31\n Classtype = None\n Name = None -->
<g id="node32" class="node"><title>rightExpr31\n Classtype = None\n Name = None</title>
<ellipse fill="lightblue" stroke="black" cx="1808" cy="-416" rx="101.823" ry="43.8406"/>
<text text-anchor="middle" x="1808" y="-430.4" font-family="Times Roman,serif" font-size="14.00">rightExpr31</text>
<text text-anchor="middle" x="1808" y="-412.4" font-family="Times Roman,serif" font-size="14.00"> Classtype = None</text>
<text text-anchor="middle" x="1808" y="-394.4" font-family="Times Roman,serif" font-size="14.00"> Name = None</text>
</g>
<!-- Constant40\n Classtype = None\n Name = None -->
<g id="node41" class="node"><title>Constant40\n Classtype = None\n Name = None</title>
<ellipse fill="lightblue" stroke="black" cx="1808" cy="-292" rx="101.823" ry="43.8406"/>
<text text-anchor="middle" x="1808" y="-306.4" font-family="Times Roman,serif" font-size="14.00">Constant40</text>
<text text-anchor="middle" x="1808" y="-288.4" font-family="Times Roman,serif" font-size="14.00"> Classtype = None</text>
<text text-anchor="middle" x="1808" y="-270.4" font-family="Times Roman,serif" font-size="14.00"> Name = None</text>
</g>
<!-- rightExpr31\n Classtype = None\n Name = None&#45;&gt;Constant40\n Classtype = None\n Name = None -->
<g id="edge74" class="edge"><title>rightExpr31\n Classtype = None\n Name = None&#45;&gt;Constant40\n Classtype = None\n Name = None</title>
<path fill="none" stroke="black" d="M1808,-371.933C1808,-363.718 1808,-355.043 1808,-346.557"/>
<polygon fill="black" stroke="black" points="1811.5,-346.343 1808,-336.343 1804.5,-346.343 1811.5,-346.343"/>
</g>
<!-- rightExpr32\n Classtype = None\n Name = None -->
<g id="node33" class="node"><title>rightExpr32\n Classtype = None\n Name = None</title>
<ellipse fill="lightblue" stroke="black" cx="1434" cy="-168" rx="101.823" ry="43.8406"/>
<text text-anchor="middle" x="1434" y="-182.4" font-family="Times Roman,serif" font-size="14.00">rightExpr32</text>
<text text-anchor="middle" x="1434" y="-164.4" font-family="Times Roman,serif" font-size="14.00"> Classtype = None</text>
<text text-anchor="middle" x="1434" y="-146.4" font-family="Times Roman,serif" font-size="14.00"> Name = None</text>
</g>
<!-- Constant41\n Classtype = None\n Name = None -->
<g id="node42" class="node"><title>Constant41\n Classtype = None\n Name = None</title>
<ellipse fill="lightblue" stroke="black" cx="1434" cy="-44" rx="101.823" ry="43.8406"/>
<text text-anchor="middle" x="1434" y="-58.4" font-family="Times Roman,serif" font-size="14.00">Constant41</text>
<text text-anchor="middle" x="1434" y="-40.4" font-family="Times Roman,serif" font-size="14.00"> Classtype = None</text>
<text text-anchor="middle" x="1434" y="-22.4" font-family="Times Roman,serif" font-size="14.00"> Name = None</text>
</g>
<!-- rightExpr32\n Classtype = None\n Name = None&#45;&gt;Constant41\n Classtype = None\n Name = None -->
<g id="edge86" class="edge"><title>rightExpr32\n Classtype = None\n Name = None&#45;&gt;Constant41\n Classtype = None\n Name = None</title>
<path fill="none" stroke="black" d="M1434,-123.933C1434,-115.718 1434,-107.043 1434,-98.5568"/>
<polygon fill="black" stroke="black" points="1437.5,-98.3428 1434,-88.3428 1430.5,-98.3428 1437.5,-98.3428"/>
</g>
<!-- Equation33\n Classtype = None\n Name = None -->
<g id="node34" class="node"><title>Equation33\n Classtype = None\n Name = None</title>
<ellipse fill="lightblue" stroke="black" cx="1697" cy="-540" rx="101.823" ry="43.8406"/>
<text text-anchor="middle" x="1697" y="-554.4" font-family="Times Roman,serif" font-size="14.00">Equation33</text>
<text text-anchor="middle" x="1697" y="-536.4" font-family="Times Roman,serif" font-size="14.00"> Classtype = None</text>
<text text-anchor="middle" x="1697" y="-518.4" font-family="Times Roman,serif" font-size="14.00"> Name = None</text>
</g>
<!-- Equation33\n Classtype = None\n Name = None&#45;&gt;rightExpr31\n Classtype = None\n Name = None -->
<g id="edge70" class="edge"><title>Equation33\n Classtype = None\n Name = None&#45;&gt;rightExpr31\n Classtype = None\n Name = None</title>
<path fill="none" stroke="black" d="M1733.96,-498.71C1743.7,-487.834 1754.29,-475.997 1764.35,-464.768"/>
<polygon fill="black" stroke="black" points="1767.14,-466.895 1771.2,-457.11 1761.92,-462.226 1767.14,-466.895"/>
</g>
<!-- leftExpr36\n Classtype = None\n Name = None -->
<g id="node37" class="node"><title>leftExpr36\n Classtype = None\n Name = None</title>
<ellipse fill="lightblue" stroke="black" cx="1586" cy="-416" rx="101.823" ry="43.8406"/>
<text text-anchor="middle" x="1586" y="-430.4" font-family="Times Roman,serif" font-size="14.00">leftExpr36</text>
<text text-anchor="middle" x="1586" y="-412.4" font-family="Times Roman,serif" font-size="14.00"> Classtype = None</text>
<text text-anchor="middle" x="1586" y="-394.4" font-family="Times Roman,serif" font-size="14.00"> Name = None</text>
</g>
<!-- Equation33\n Classtype = None\n Name = None&#45;&gt;leftExpr36\n Classtype = None\n Name = None -->
<g id="edge72" class="edge"><title>Equation33\n Classtype = None\n Name = None&#45;&gt;leftExpr36\n Classtype = None\n Name = None</title>
<path fill="none" stroke="black" d="M1660.04,-498.71C1650.3,-487.834 1639.71,-475.997 1629.65,-464.768"/>
<polygon fill="black" stroke="black" points="1632.08,-462.226 1622.8,-457.11 1626.86,-466.895 1632.08,-462.226"/>
</g>
<!-- Equation34\n Classtype = None\n Name = None -->
<g id="node35" class="node"><title>Equation34\n Classtype = None\n Name = None</title>
<ellipse fill="lightblue" stroke="black" cx="1234" cy="-292" rx="101.823" ry="43.8406"/>
<text text-anchor="middle" x="1234" y="-306.4" font-family="Times Roman,serif" font-size="14.00">Equation34</text>
<text text-anchor="middle" x="1234" y="-288.4" font-family="Times Roman,serif" font-size="14.00"> Classtype = None</text>
<text text-anchor="middle" x="1234" y="-270.4" font-family="Times Roman,serif" font-size="14.00"> Name = None</text>
</g>
<!-- Equation34\n Classtype = None\n Name = None&#45;&gt;rightExpr32\n Classtype = None\n Name = None -->
<g id="edge82" class="edge"><title>Equation34\n Classtype = None\n Name = None&#45;&gt;rightExpr32\n Classtype = None\n Name = None</title>
<path fill="none" stroke="black" d="M1292.39,-255.801C1315.7,-241.348 1342.68,-224.62 1366.8,-209.666"/>
<polygon fill="black" stroke="black" points="1368.89,-212.488 1375.54,-204.244 1365.2,-206.539 1368.89,-212.488"/>
</g>
<!-- leftExpr37\n Classtype = None\n Name = None -->
<g id="node38" class="node"><title>leftExpr37\n Classtype = None\n Name = None</title>
<ellipse fill="lightblue" stroke="black" cx="1212" cy="-168" rx="101.823" ry="43.8406"/>
<text text-anchor="middle" x="1212" y="-182.4" font-family="Times Roman,serif" font-size="14.00">leftExpr37</text>
<text text-anchor="middle" x="1212" y="-164.4" font-family="Times Roman,serif" font-size="14.00"> Classtype = None</text>
<text text-anchor="middle" x="1212" y="-146.4" font-family="Times Roman,serif" font-size="14.00"> Name = None</text>
</g>
<!-- Equation34\n Classtype = None\n Name = None&#45;&gt;leftExpr37\n Classtype = None\n Name = None -->
<g id="edge84" class="edge"><title>Equation34\n Classtype = None\n Name = None&#45;&gt;leftExpr37\n Classtype = None\n Name = None</title>
<path fill="none" stroke="black" d="M1226.18,-247.933C1224.69,-239.527 1223.11,-230.641 1221.57,-221.967"/>
<polygon fill="black" stroke="black" points="1224.99,-221.16 1219.79,-211.925 1218.09,-222.383 1224.99,-221.16"/>
</g>
<!-- indirectLink_S35&#45;&gt;Male_S26\n Classtype = 1\n Name = s_ -->
<g id="edge60" class="edge"><title>indirectLink_S35&#45;&gt;Male_S26\n Classtype = 1\n Name = s_</title>
<path fill="none" stroke="black" d="M1114.63,-398.946C1095.37,-390.261 1071.16,-379.898 1049,-372 984.093,-348.871 908.947,-327.762 852.705,-313.042"/>
<polygon fill="black" stroke="black" points="853.344,-309.592 842.785,-310.461 851.581,-316.366 853.344,-309.592"/>
</g>
<!-- leftExpr36\n Classtype = None\n Name = None&#45;&gt;Attribute28\n Classtype = None\n Name = name -->
<g id="edge68" class="edge"><title>leftExpr36\n Classtype = None\n Name = None&#45;&gt;Attribute28\n Classtype = None\n Name = name</title>
<path fill="none" stroke="black" d="M1556.3,-373.673C1549.23,-363.597 1541.62,-352.749 1534.33,-342.353"/>
<polygon fill="black" stroke="black" points="1537.17,-340.312 1528.56,-334.136 1531.44,-344.333 1537.17,-340.312"/>
</g>
<!-- leftExpr37\n Classtype = None\n Name = None&#45;&gt;Attribute29\n Classtype = None\n Name = name -->
<g id="edge80" class="edge"><title>leftExpr37\n Classtype = None\n Name = None&#45;&gt;Attribute29\n Classtype = None\n Name = name</title>
<path fill="none" stroke="black" d="M1175.04,-126.71C1165.3,-115.834 1154.71,-103.997 1144.65,-92.7677"/>
<polygon fill="black" stroke="black" points="1147.08,-90.2264 1137.8,-85.1099 1141.86,-94.8952 1147.08,-90.2264"/>
</g>
<!-- hasAttr_S38\n Classtype = None\n Name = None&#45;&gt;Attribute28\n Classtype = None\n Name = name -->
<g id="edge66" class="edge"><title>hasAttr_S38\n Classtype = None\n Name = None&#45;&gt;Attribute28\n Classtype = None\n Name = name</title>
<path fill="none" stroke="black" d="M1407.46,-376.083C1420.34,-364.246 1434.58,-351.174 1447.9,-338.936"/>
<polygon fill="black" stroke="black" points="1450.63,-341.184 1455.62,-331.842 1445.89,-336.029 1450.63,-341.184"/>
</g>
<!-- hasAttr_S39\n Classtype = None\n Name = None&#45;&gt;Attribute29\n Classtype = None\n Name = name -->
<g id="edge78" class="edge"><title>hasAttr_S39\n Classtype = None\n Name = None&#45;&gt;Attribute29\n Classtype = None\n Name = name</title>
<path fill="none" stroke="black" d="M1026.96,-126.71C1036.7,-115.834 1047.29,-103.997 1057.35,-92.7677"/>
<polygon fill="black" stroke="black" points="1060.14,-94.8952 1064.2,-85.1099 1054.92,-90.2264 1060.14,-94.8952"/>
</g>
</g>
</svg>
