<?xml version="1.0" encoding="UTF-8" standalone="no"?>
<!DOCTYPE svg PUBLIC "-//W3C//DTD SVG 1.1//EN"
 "http://www.w3.org/Graphics/SVG/1.1/DTD/svg11.dtd">
<!-- Generated by graphviz version 2.26.3 (20100126.1600)
 -->
<!-- Title: HEmptyPathCondition_HF2F_HS2S Pages: 1 -->
<svg width="1408pt" height="838pt"
 viewBox="0.00 0.00 1408.00 838.00" xmlns="http://www.w3.org/2000/svg" xmlns:xlink="http://www.w3.org/1999/xlink">
<g id="graph1" class="graph" transform="scale(1 1) rotate(0) translate(4 834)">
<title>HEmptyPathCondition_HF2F_HS2S</title>
<polygon fill="white" stroke="white" points="-4,5 -4,-834 1405,-834 1405,5 -4,5"/>
<!-- rightExpr0\n Classtype = None\n Name = None -->
<g id="node1" class="node"><title>rightExpr0\n Classtype = None\n Name = None</title>
<ellipse fill="lightblue" stroke="black" cx="102" cy="-168" rx="101.823" ry="43.8406"/>
<text text-anchor="middle" x="102" y="-182.4" font-family="Times Roman,serif" font-size="14.00">rightExpr0</text>
<text text-anchor="middle" x="102" y="-164.4" font-family="Times Roman,serif" font-size="14.00"> Classtype = None</text>
<text text-anchor="middle" x="102" y="-146.4" font-family="Times Roman,serif" font-size="14.00"> Name = None</text>
</g>
<!-- Constant12\n Classtype = None\n Name = None -->
<g id="node13" class="node"><title>Constant12\n Classtype = None\n Name = None</title>
<ellipse fill="lightblue" stroke="black" cx="102" cy="-44" rx="101.823" ry="43.8406"/>
<text text-anchor="middle" x="102" y="-58.4" font-family="Times Roman,serif" font-size="14.00">Constant12</text>
<text text-anchor="middle" x="102" y="-40.4" font-family="Times Roman,serif" font-size="14.00"> Classtype = None</text>
<text text-anchor="middle" x="102" y="-22.4" font-family="Times Roman,serif" font-size="14.00"> Name = None</text>
</g>
<!-- rightExpr0\n Classtype = None\n Name = None&#45;&gt;Constant12\n Classtype = None\n Name = None -->
<g id="edge4" class="edge"><title>rightExpr0\n Classtype = None\n Name = None&#45;&gt;Constant12\n Classtype = None\n Name = None</title>
<path fill="none" stroke="black" d="M102,-123.933C102,-115.718 102,-107.043 102,-98.5568"/>
<polygon fill="black" stroke="black" points="105.5,-98.3428 102,-88.3428 98.5001,-98.3428 105.5,-98.3428"/>
</g>
<!-- hasAttr_S1\n Classtype = None\n Name = None -->
<g id="node2" class="node"><title>hasAttr_S1\n Classtype = None\n Name = None</title>
<ellipse fill="lightblue" stroke="black" cx="546" cy="-168" rx="101.823" ry="43.8406"/>
<text text-anchor="middle" x="546" y="-182.4" font-family="Times Roman,serif" font-size="14.00">hasAttr_S1</text>
<text text-anchor="middle" x="546" y="-164.4" font-family="Times Roman,serif" font-size="14.00"> Classtype = None</text>
<text text-anchor="middle" x="546" y="-146.4" font-family="Times Roman,serif" font-size="14.00"> Name = None</text>
</g>
<!-- Attribute9\n Classtype = None\n Name = name -->
<g id="node10" class="node"><title>Attribute9\n Classtype = None\n Name = name</title>
<ellipse fill="lightblue" stroke="black" cx="435" cy="-44" rx="101.823" ry="43.8406"/>
<text text-anchor="middle" x="435" y="-58.4" font-family="Times Roman,serif" font-size="14.00">Attribute9</text>
<text text-anchor="middle" x="435" y="-40.4" font-family="Times Roman,serif" font-size="14.00"> Classtype = None</text>
<text text-anchor="middle" x="435" y="-22.4" font-family="Times Roman,serif" font-size="14.00"> Name = name</text>
</g>
<!-- hasAttr_S1\n Classtype = None\n Name = None&#45;&gt;Attribute9\n Classtype = None\n Name = name -->
<g id="edge8" class="edge"><title>hasAttr_S1\n Classtype = None\n Name = None&#45;&gt;Attribute9\n Classtype = None\n Name = name</title>
<path fill="none" stroke="black" d="M509.039,-126.71C499.303,-115.834 488.707,-103.997 478.655,-92.7677"/>
<polygon fill="black" stroke="black" points="481.078,-90.2264 471.8,-85.1099 475.862,-94.8952 481.078,-90.2264"/>
</g>
<!-- ApplyModel2 -->
<g id="node3" class="node"><title>ApplyModel2</title>
<ellipse fill="#fed017" stroke="black" cx="659" cy="-663" rx="73.0388" ry="18.3848"/>
<text text-anchor="middle" x="659" y="-659.4" font-family="Times Roman,serif" font-size="14.00">ApplyModel2</text>
</g>
<!-- apply_contains10 -->
<g id="node11" class="node"><title>apply_contains10</title>
<ellipse fill="#fcdb58" stroke="black" cx="643" cy="-589" rx="96.8736" ry="18.3848"/>
<text text-anchor="middle" x="643" y="-585.4" font-family="Times Roman,serif" font-size="14.00">apply_contains10</text>
</g>
<!-- ApplyModel2&#45;&gt;apply_contains10 -->
<g id="edge12" class="edge"><title>ApplyModel2&#45;&gt;apply_contains10</title>
<path fill="none" stroke="black" d="M654.963,-644.327C653.219,-636.264 651.14,-626.648 649.208,-617.711"/>
<polygon fill="black" stroke="black" points="652.571,-616.702 647.036,-607.667 645.729,-618.181 652.571,-616.702"/>
</g>
<!-- match_contains3 -->
<g id="node4" class="node"><title>match_contains3</title>
<ellipse fill="#f798a1" stroke="black" cx="473" cy="-663" rx="94.7523" ry="18.3848"/>
<text text-anchor="middle" x="473" y="-659.4" font-family="Times Roman,serif" font-size="14.00">match_contains3</text>
</g>
<!-- Female_S6\n Classtype = 1\n Name = s_ -->
<g id="node7" class="node"><title>Female_S6\n Classtype = 1\n Name = s_</title>
<ellipse fill="lightblue" stroke="black" cx="546" cy="-292" rx="82.2301" ry="43.8406"/>
<text text-anchor="middle" x="546" y="-306.4" font-family="Times Roman,serif" font-size="14.00">Female_S6</text>
<text text-anchor="middle" x="546" y="-288.4" font-family="Times Roman,serif" font-size="14.00"> Classtype = 1</text>
<text text-anchor="middle" x="546" y="-270.4" font-family="Times Roman,serif" font-size="14.00"> Name = s_</text>
</g>
<!-- match_contains3&#45;&gt;Female_S6\n Classtype = 1\n Name = s_ -->
<g id="edge16" class="edge"><title>match_contains3&#45;&gt;Female_S6\n Classtype = 1\n Name = s_</title>
<path fill="none" stroke="black" d="M475.62,-644.495C482.3,-598.262 501.071,-474.09 524,-372 525.926,-363.422 528.185,-354.388 530.507,-345.602"/>
<polygon fill="black" stroke="black" points="533.919,-346.391 533.142,-335.825 527.16,-344.569 533.919,-346.391"/>
</g>
<!-- paired_with4 -->
<g id="node5" class="node"><title>paired_with4</title>
<ellipse fill="lightgray" stroke="black" cx="618" cy="-737" rx="75.1594" ry="18.3848"/>
<text text-anchor="middle" x="618" y="-733.4" font-family="Times Roman,serif" font-size="14.00">paired_with4</text>
</g>
<!-- paired_with4&#45;&gt;ApplyModel2 -->
<g id="edge10" class="edge"><title>paired_with4&#45;&gt;ApplyModel2</title>
<path fill="none" stroke="black" d="M628.346,-718.327C633.043,-709.849 638.692,-699.654 643.853,-690.338"/>
<polygon fill="black" stroke="black" points="647.014,-691.854 648.799,-681.411 640.891,-688.462 647.014,-691.854"/>
</g>
<!-- Female_T5\n Classtype = t_\n Name = s_ -->
<g id="node6" class="node"><title>Female_T5\n Classtype = t_\n Name = s_</title>
<ellipse fill="lightblue" stroke="black" cx="623" cy="-490" rx="85.7684" ry="43.8406"/>
<text text-anchor="middle" x="623" y="-504.4" font-family="Times Roman,serif" font-size="14.00">Female_T5</text>
<text text-anchor="middle" x="623" y="-486.4" font-family="Times Roman,serif" font-size="14.00"> Classtype = t_</text>
<text text-anchor="middle" x="623" y="-468.4" font-family="Times Roman,serif" font-size="14.00"> Name = s_</text>
</g>
<!-- trace_link13 -->
<g id="node14" class="node"><title>trace_link13</title>
<ellipse fill="#eedd82" stroke="black" cx="605" cy="-391" rx="72.1249" ry="18.3848"/>
<text text-anchor="middle" x="605" y="-387.4" font-family="Times Roman,serif" font-size="14.00">trace_link13</text>
</g>
<!-- Female_T5\n Classtype = t_\n Name = s_&#45;&gt;trace_link13 -->
<g id="edge28" class="edge"><title>Female_T5\n Classtype = t_\n Name = s_&#45;&gt;trace_link13</title>
<path fill="none" stroke="black" d="M615,-446.001C613.363,-436.996 611.681,-427.745 610.175,-419.46"/>
<polygon fill="black" stroke="black" points="613.61,-418.787 608.377,-409.574 606.722,-420.039 613.61,-418.787"/>
</g>
<!-- Female_S6\n Classtype = 1\n Name = s_&#45;&gt;hasAttr_S1\n Classtype = None\n Name = None -->
<g id="edge6" class="edge"><title>Female_S6\n Classtype = 1\n Name = s_&#45;&gt;hasAttr_S1\n Classtype = None\n Name = None</title>
<path fill="none" stroke="black" d="M546,-247.933C546,-239.718 546,-231.043 546,-222.557"/>
<polygon fill="black" stroke="black" points="549.5,-222.343 546,-212.343 542.5,-222.343 549.5,-222.343"/>
</g>
<!-- Equation7\n Classtype = None\n Name = None -->
<g id="node8" class="node"><title>Equation7\n Classtype = None\n Name = None</title>
<ellipse fill="lightblue" stroke="black" cx="213" cy="-292" rx="101.823" ry="43.8406"/>
<text text-anchor="middle" x="213" y="-306.4" font-family="Times Roman,serif" font-size="14.00">Equation7</text>
<text text-anchor="middle" x="213" y="-288.4" font-family="Times Roman,serif" font-size="14.00"> Classtype = None</text>
<text text-anchor="middle" x="213" y="-270.4" font-family="Times Roman,serif" font-size="14.00"> Name = None</text>
</g>
<!-- Equation7\n Classtype = None\n Name = None&#45;&gt;rightExpr0\n Classtype = None\n Name = None -->
<g id="edge2" class="edge"><title>Equation7\n Classtype = None\n Name = None&#45;&gt;rightExpr0\n Classtype = None\n Name = None</title>
<path fill="none" stroke="black" d="M176.039,-250.71C166.303,-239.834 155.707,-227.997 145.655,-216.768"/>
<polygon fill="black" stroke="black" points="148.078,-214.226 138.8,-209.11 142.862,-218.895 148.078,-214.226"/>
</g>
<!-- leftExpr11\n Classtype = None\n Name = None -->
<g id="node12" class="node"><title>leftExpr11\n Classtype = None\n Name = None</title>
<ellipse fill="lightblue" stroke="black" cx="324" cy="-168" rx="101.823" ry="43.8406"/>
<text text-anchor="middle" x="324" y="-182.4" font-family="Times Roman,serif" font-size="14.00">leftExpr11</text>
<text text-anchor="middle" x="324" y="-164.4" font-family="Times Roman,serif" font-size="14.00"> Classtype = None</text>
<text text-anchor="middle" x="324" y="-146.4" font-family="Times Roman,serif" font-size="14.00"> Name = None</text>
</g>
<!-- Equation7\n Classtype = None\n Name = None&#45;&gt;leftExpr11\n Classtype = None\n Name = None -->
<g id="edge22" class="edge"><title>Equation7\n Classtype = None\n Name = None&#45;&gt;leftExpr11\n Classtype = None\n Name = None</title>
<path fill="none" stroke="black" d="M249.961,-250.71C259.697,-239.834 270.293,-227.997 280.345,-216.768"/>
<polygon fill="black" stroke="black" points="283.138,-218.895 287.2,-209.11 277.922,-214.226 283.138,-218.895"/>
</g>
<!-- MatchModel8 -->
<g id="node9" class="node"><title>MatchModel8</title>
<ellipse fill="#e15c34" stroke="black" cx="556" cy="-811" rx="75.8684" ry="18.3848"/>
<text text-anchor="middle" x="556" y="-807.4" font-family="Times Roman,serif" font-size="14.00">MatchModel8</text>
</g>
<!-- MatchModel8&#45;&gt;match_contains3 -->
<g id="edge14" class="edge"><title>MatchModel8&#45;&gt;match_contains3</title>
<path fill="none" stroke="black" d="M545.656,-792.555C531.304,-766.964 505.237,-720.483 488.54,-690.71"/>
<polygon fill="black" stroke="black" points="491.419,-688.688 483.475,-681.678 485.313,-692.112 491.419,-688.688"/>
</g>
<!-- MatchModel8&#45;&gt;paired_with4 -->
<g id="edge18" class="edge"><title>MatchModel8&#45;&gt;paired_with4</title>
<path fill="none" stroke="black" d="M571.326,-792.708C578.778,-783.814 587.87,-772.962 596.043,-763.207"/>
<polygon fill="black" stroke="black" points="598.896,-765.251 602.636,-755.338 593.531,-760.756 598.896,-765.251"/>
</g>
<!-- apply_contains10&#45;&gt;Female_T5\n Classtype = t_\n Name = s_ -->
<g id="edge20" class="edge"><title>apply_contains10&#45;&gt;Female_T5\n Classtype = t_\n Name = s_</title>
<path fill="none" stroke="black" d="M639.238,-570.379C637.693,-562.73 635.817,-553.443 633.896,-543.936"/>
<polygon fill="black" stroke="black" points="637.302,-543.117 631.891,-534.008 630.44,-544.503 637.302,-543.117"/>
</g>
<!-- leftExpr11\n Classtype = None\n Name = None&#45;&gt;Attribute9\n Classtype = None\n Name = name -->
<g id="edge24" class="edge"><title>leftExpr11\n Classtype = None\n Name = None&#45;&gt;Attribute9\n Classtype = None\n Name = name</title>
<path fill="none" stroke="black" d="M360.961,-126.71C370.697,-115.834 381.293,-103.997 391.345,-92.7677"/>
<polygon fill="black" stroke="black" points="394.138,-94.8952 398.2,-85.1099 388.922,-90.2264 394.138,-94.8952"/>
</g>
<!-- trace_link13&#45;&gt;Female_S6\n Classtype = 1\n Name = s_ -->
<g id="edge26" class="edge"><title>trace_link13&#45;&gt;Female_S6\n Classtype = 1\n Name = s_</title>
<path fill="none" stroke="black" d="M593.903,-372.379C588.843,-363.89 582.582,-353.383 576.273,-342.797"/>
<polygon fill="black" stroke="black" points="579.114,-340.727 570.988,-333.929 573.101,-344.311 579.114,-340.727"/>
</g>
<!-- apply_contains14 -->
<g id="node15" class="node"><title>apply_contains14</title>
<ellipse fill="#fcdb58" stroke="black" cx="1119" cy="-589" rx="96.8736" ry="18.3848"/>
<text text-anchor="middle" x="1119" y="-585.4" font-family="Times Roman,serif" font-size="14.00">apply_contains14</text>
</g>
<!-- Station_T20\n Classtype = t_\n Name = s_ -->
<g id="node21" class="node"><title>Station_T20\n Classtype = t_\n Name = s_</title>
<ellipse fill="lightblue" stroke="black" cx="1143" cy="-490" rx="85.7684" ry="43.8406"/>
<text text-anchor="middle" x="1143" y="-504.4" font-family="Times Roman,serif" font-size="14.00">Station_T20</text>
<text text-anchor="middle" x="1143" y="-486.4" font-family="Times Roman,serif" font-size="14.00"> Classtype = t_</text>
<text text-anchor="middle" x="1143" y="-468.4" font-family="Times Roman,serif" font-size="14.00"> Name = s_</text>
</g>
<!-- apply_contains14&#45;&gt;Station_T20\n Classtype = t_\n Name = s_ -->
<g id="edge32" class="edge"><title>apply_contains14&#45;&gt;Station_T20\n Classtype = t_\n Name = s_</title>
<path fill="none" stroke="black" d="M1123.51,-570.379C1125.37,-562.73 1127.62,-553.443 1129.92,-543.936"/>
<polygon fill="black" stroke="black" points="1133.38,-544.552 1132.33,-534.008 1126.57,-542.902 1133.38,-544.552"/>
</g>
<!-- leftExpr15\n Classtype = None\n Name = None -->
<g id="node16" class="node"><title>leftExpr15\n Classtype = None\n Name = None</title>
<ellipse fill="lightblue" stroke="black" cx="990" cy="-168" rx="101.823" ry="43.8406"/>
<text text-anchor="middle" x="990" y="-182.4" font-family="Times Roman,serif" font-size="14.00">leftExpr15</text>
<text text-anchor="middle" x="990" y="-164.4" font-family="Times Roman,serif" font-size="14.00"> Classtype = None</text>
<text text-anchor="middle" x="990" y="-146.4" font-family="Times Roman,serif" font-size="14.00"> Name = None</text>
</g>
<!-- Attribute26\n Classtype = None\n Name = name -->
<g id="node27" class="node"><title>Attribute26\n Classtype = None\n Name = name</title>
<ellipse fill="lightblue" stroke="black" cx="1101" cy="-44" rx="101.823" ry="43.8406"/>
<text text-anchor="middle" x="1101" y="-58.4" font-family="Times Roman,serif" font-size="14.00">Attribute26</text>
<text text-anchor="middle" x="1101" y="-40.4" font-family="Times Roman,serif" font-size="14.00"> Classtype = None</text>
<text text-anchor="middle" x="1101" y="-22.4" font-family="Times Roman,serif" font-size="14.00"> Name = name</text>
</g>
<!-- leftExpr15\n Classtype = None\n Name = None&#45;&gt;Attribute26\n Classtype = None\n Name = name -->
<g id="edge36" class="edge"><title>leftExpr15\n Classtype = None\n Name = None&#45;&gt;Attribute26\n Classtype = None\n Name = name</title>
<path fill="none" stroke="black" d="M1026.96,-126.71C1036.7,-115.834 1047.29,-103.997 1057.35,-92.7677"/>
<polygon fill="black" stroke="black" points="1060.14,-94.8952 1064.2,-85.1099 1054.92,-90.2264 1060.14,-94.8952"/>
</g>
<!-- paired_with16 -->
<g id="node17" class="node"><title>paired_with16</title>
<ellipse fill="lightgray" stroke="black" cx="1122" cy="-737" rx="82.0244" ry="18.3848"/>
<text text-anchor="middle" x="1122" y="-733.4" font-family="Times Roman,serif" font-size="14.00">paired_with16</text>
</g>
<!-- ApplyModel18 -->
<g id="node19" class="node"><title>ApplyModel18</title>
<ellipse fill="#fed017" stroke="black" cx="1100" cy="-663" rx="79.9031" ry="18.3848"/>
<text text-anchor="middle" x="1100" y="-659.4" font-family="Times Roman,serif" font-size="14.00">ApplyModel18</text>
</g>
<!-- paired_with16&#45;&gt;ApplyModel18 -->
<g id="edge40" class="edge"><title>paired_with16&#45;&gt;ApplyModel18</title>
<path fill="none" stroke="black" d="M1116.45,-718.327C1114.03,-710.176 1111.13,-700.438 1108.45,-691.42"/>
<polygon fill="black" stroke="black" points="1111.75,-690.255 1105.55,-681.667 1105.04,-692.25 1111.75,-690.255"/>
</g>
<!-- hasAttr_S17\n Classtype = None\n Name = None -->
<g id="node18" class="node"><title>hasAttr_S17\n Classtype = None\n Name = None</title>
<ellipse fill="lightblue" stroke="black" cx="1212" cy="-168" rx="101.823" ry="43.8406"/>
<text text-anchor="middle" x="1212" y="-182.4" font-family="Times Roman,serif" font-size="14.00">hasAttr_S17</text>
<text text-anchor="middle" x="1212" y="-164.4" font-family="Times Roman,serif" font-size="14.00"> Classtype = None</text>
<text text-anchor="middle" x="1212" y="-146.4" font-family="Times Roman,serif" font-size="14.00"> Name = None</text>
</g>
<!-- hasAttr_S17\n Classtype = None\n Name = None&#45;&gt;Attribute26\n Classtype = None\n Name = name -->
<g id="edge44" class="edge"><title>hasAttr_S17\n Classtype = None\n Name = None&#45;&gt;Attribute26\n Classtype = None\n Name = name</title>
<path fill="none" stroke="black" d="M1175.04,-126.71C1165.3,-115.834 1154.71,-103.997 1144.65,-92.7677"/>
<polygon fill="black" stroke="black" points="1147.08,-90.2264 1137.8,-85.1099 1141.86,-94.8952 1147.08,-90.2264"/>
</g>
<!-- ApplyModel18&#45;&gt;apply_contains14 -->
<g id="edge30" class="edge"><title>ApplyModel18&#45;&gt;apply_contains14</title>
<path fill="none" stroke="black" d="M1104.79,-644.327C1106.89,-636.176 1109.39,-626.438 1111.7,-617.42"/>
<polygon fill="black" stroke="black" points="1115.11,-618.224 1114.21,-607.667 1108.33,-616.483 1115.11,-618.224"/>
</g>
<!-- Station_S19\n Classtype = 1\n Name = s_ -->
<g id="node20" class="node"><title>Station_S19\n Classtype = 1\n Name = s_</title>
<ellipse fill="lightblue" stroke="black" cx="1212" cy="-292" rx="82.2301" ry="43.8406"/>
<text text-anchor="middle" x="1212" y="-306.4" font-family="Times Roman,serif" font-size="14.00">Station_S19</text>
<text text-anchor="middle" x="1212" y="-288.4" font-family="Times Roman,serif" font-size="14.00"> Classtype = 1</text>
<text text-anchor="middle" x="1212" y="-270.4" font-family="Times Roman,serif" font-size="14.00"> Name = s_</text>
</g>
<!-- Station_S19\n Classtype = 1\n Name = s_&#45;&gt;hasAttr_S17\n Classtype = None\n Name = None -->
<g id="edge42" class="edge"><title>Station_S19\n Classtype = 1\n Name = s_&#45;&gt;hasAttr_S17\n Classtype = None\n Name = None</title>
<path fill="none" stroke="black" d="M1212,-247.933C1212,-239.718 1212,-231.043 1212,-222.557"/>
<polygon fill="black" stroke="black" points="1215.5,-222.343 1212,-212.343 1208.5,-222.343 1215.5,-222.343"/>
</g>
<!-- trace_link27 -->
<g id="node28" class="node"><title>trace_link27</title>
<ellipse fill="#eedd82" stroke="black" cx="1162" cy="-391" rx="72.1249" ry="18.3848"/>
<text text-anchor="middle" x="1162" y="-387.4" font-family="Times Roman,serif" font-size="14.00">trace_link27</text>
</g>
<!-- Station_T20\n Classtype = t_\n Name = s_&#45;&gt;trace_link27 -->
<g id="edge56" class="edge"><title>Station_T20\n Classtype = t_\n Name = s_&#45;&gt;trace_link27</title>
<path fill="none" stroke="black" d="M1151.44,-446.001C1153.17,-436.996 1154.95,-427.745 1156.54,-419.46"/>
<polygon fill="black" stroke="black" points="1159.99,-420.054 1158.44,-409.574 1153.11,-418.735 1159.99,-420.054"/>
</g>
<!-- Equation21\n Classtype = None\n Name = None -->
<g id="node22" class="node"><title>Equation21\n Classtype = None\n Name = None</title>
<ellipse fill="lightblue" stroke="black" cx="879" cy="-292" rx="101.823" ry="43.8406"/>
<text text-anchor="middle" x="879" y="-306.4" font-family="Times Roman,serif" font-size="14.00">Equation21</text>
<text text-anchor="middle" x="879" y="-288.4" font-family="Times Roman,serif" font-size="14.00"> Classtype = None</text>
<text text-anchor="middle" x="879" y="-270.4" font-family="Times Roman,serif" font-size="14.00"> Name = None</text>
</g>
<!-- Equation21\n Classtype = None\n Name = None&#45;&gt;leftExpr15\n Classtype = None\n Name = None -->
<g id="edge34" class="edge"><title>Equation21\n Classtype = None\n Name = None&#45;&gt;leftExpr15\n Classtype = None\n Name = None</title>
<path fill="none" stroke="black" d="M915.961,-250.71C925.697,-239.834 936.293,-227.997 946.345,-216.768"/>
<polygon fill="black" stroke="black" points="949.138,-218.895 953.2,-209.11 943.922,-214.226 949.138,-218.895"/>
</g>
<!-- rightExpr24\n Classtype = None\n Name = None -->
<g id="node25" class="node"><title>rightExpr24\n Classtype = None\n Name = None</title>
<ellipse fill="lightblue" stroke="black" cx="768" cy="-168" rx="101.823" ry="43.8406"/>
<text text-anchor="middle" x="768" y="-182.4" font-family="Times Roman,serif" font-size="14.00">rightExpr24</text>
<text text-anchor="middle" x="768" y="-164.4" font-family="Times Roman,serif" font-size="14.00"> Classtype = None</text>
<text text-anchor="middle" x="768" y="-146.4" font-family="Times Roman,serif" font-size="14.00"> Name = None</text>
</g>
<!-- Equation21\n Classtype = None\n Name = None&#45;&gt;rightExpr24\n Classtype = None\n Name = None -->
<g id="edge48" class="edge"><title>Equation21\n Classtype = None\n Name = None&#45;&gt;rightExpr24\n Classtype = None\n Name = None</title>
<path fill="none" stroke="black" d="M842.039,-250.71C832.303,-239.834 821.707,-227.997 811.655,-216.768"/>
<polygon fill="black" stroke="black" points="814.078,-214.226 804.8,-209.11 808.862,-218.895 814.078,-214.226"/>
</g>
<!-- match_contains22 -->
<g id="node23" class="node"><title>match_contains22</title>
<ellipse fill="#f798a1" stroke="black" cx="1299" cy="-663" rx="101.116" ry="18.3848"/>
<text text-anchor="middle" x="1299" y="-659.4" font-family="Times Roman,serif" font-size="14.00">match_contains22</text>
</g>
<!-- match_contains22&#45;&gt;Station_S19\n Classtype = 1\n Name = s_ -->
<g id="edge46" class="edge"><title>match_contains22&#45;&gt;Station_S19\n Classtype = 1\n Name = s_</title>
<path fill="none" stroke="black" d="M1296.6,-644.343C1290.34,-597.766 1271.99,-472.869 1243,-372 1240.43,-363.064 1237.27,-353.729 1233.96,-344.722"/>
<polygon fill="black" stroke="black" points="1237.14,-343.23 1230.33,-335.11 1230.59,-345.702 1237.14,-343.23"/>
</g>
<!-- Constant23\n Classtype = None\n Name = None -->
<g id="node24" class="node"><title>Constant23\n Classtype = None\n Name = None</title>
<ellipse fill="lightblue" stroke="black" cx="768" cy="-44" rx="101.823" ry="43.8406"/>
<text text-anchor="middle" x="768" y="-58.4" font-family="Times Roman,serif" font-size="14.00">Constant23</text>
<text text-anchor="middle" x="768" y="-40.4" font-family="Times Roman,serif" font-size="14.00"> Classtype = None</text>
<text text-anchor="middle" x="768" y="-22.4" font-family="Times Roman,serif" font-size="14.00"> Name = None</text>
</g>
<!-- rightExpr24\n Classtype = None\n Name = None&#45;&gt;Constant23\n Classtype = None\n Name = None -->
<g id="edge52" class="edge"><title>rightExpr24\n Classtype = None\n Name = None&#45;&gt;Constant23\n Classtype = None\n Name = None</title>
<path fill="none" stroke="black" d="M768,-123.933C768,-115.718 768,-107.043 768,-98.5568"/>
<polygon fill="black" stroke="black" points="771.5,-98.3428 768,-88.3428 764.5,-98.3428 771.5,-98.3428"/>
</g>
<!-- MatchModel25 -->
<g id="node26" class="node"><title>MatchModel25</title>
<ellipse fill="#e15c34" stroke="black" cx="1199" cy="-811" rx="82.2301" ry="18.3848"/>
<text text-anchor="middle" x="1199" y="-807.4" font-family="Times Roman,serif" font-size="14.00">MatchModel25</text>
</g>
<!-- MatchModel25&#45;&gt;paired_with16 -->
<g id="edge38" class="edge"><title>MatchModel25&#45;&gt;paired_with16</title>
<path fill="none" stroke="black" d="M1179.97,-792.708C1170.36,-783.478 1158.56,-772.14 1148.13,-762.107"/>
<polygon fill="black" stroke="black" points="1150.45,-759.487 1140.81,-755.082 1145.6,-764.535 1150.45,-759.487"/>
</g>
<!-- MatchModel25&#45;&gt;match_contains22 -->
<g id="edge50" class="edge"><title>MatchModel25&#45;&gt;match_contains22</title>
<path fill="none" stroke="black" d="M1211.46,-792.555C1228.83,-766.853 1260.43,-720.08 1280.54,-690.324"/>
<polygon fill="black" stroke="black" points="1283.68,-691.923 1286.38,-681.678 1277.88,-688.004 1283.68,-691.923"/>
</g>
<!-- trace_link27&#45;&gt;Station_S19\n Classtype = 1\n Name = s_ -->
<g id="edge54" class="edge"><title>trace_link27&#45;&gt;Station_S19\n Classtype = 1\n Name = s_</title>
<path fill="none" stroke="black" d="M1171.4,-372.379C1175.56,-364.148 1180.68,-354.02 1185.86,-343.763"/>
<polygon fill="black" stroke="black" points="1189.02,-345.263 1190.4,-334.759 1182.77,-342.108 1189.02,-345.263"/>
</g>
</g>
</svg>
