<?xml version="1.0" encoding="UTF-8" standalone="no"?>
<!DOCTYPE svg PUBLIC "-//W3C//DTD SVG 1.1//EN"
 "http://www.w3.org/Graphics/SVG/1.1/DTD/svg11.dtd">
<!-- Generated by graphviz version 2.26.3 (20100126.1600)
 -->
<!-- Title: HEmptyPathCondition_HS2S_HM2M_HF2F Pages: 1 -->
<svg width="2088pt" height="838pt"
 viewBox="0.00 0.00 2088.00 838.00" xmlns="http://www.w3.org/2000/svg" xmlns:xlink="http://www.w3.org/1999/xlink">
<g id="graph1" class="graph" transform="scale(1 1) rotate(0) translate(4 834)">
<title>HEmptyPathCondition_HS2S_HM2M_HF2F</title>
<polygon fill="white" stroke="white" points="-4,5 -4,-834 2085,-834 2085,5 -4,5"/>
<!-- apply_contains0 -->
<g id="node1" class="node"><title>apply_contains0</title>
<ellipse fill="#fcdb58" stroke="black" cx="452" cy="-589" rx="90.0096" ry="18.3848"/>
<text text-anchor="middle" x="452" y="-585.4" font-family="Times Roman,serif" font-size="14.00">apply_contains0</text>
</g>
<!-- Station_T6\n Classtype = t_\n Name = s_ -->
<g id="node7" class="node"><title>Station_T6\n Classtype = t_\n Name = s_</title>
<ellipse fill="lightblue" stroke="black" cx="471" cy="-490" rx="85.7684" ry="43.8406"/>
<text text-anchor="middle" x="471" y="-504.4" font-family="Times Roman,serif" font-size="14.00">Station_T6</text>
<text text-anchor="middle" x="471" y="-486.4" font-family="Times Roman,serif" font-size="14.00"> Classtype = t_</text>
<text text-anchor="middle" x="471" y="-468.4" font-family="Times Roman,serif" font-size="14.00"> Name = s_</text>
</g>
<!-- apply_contains0&#45;&gt;Station_T6\n Classtype = t_\n Name = s_ -->
<g id="edge4" class="edge"><title>apply_contains0&#45;&gt;Station_T6\n Classtype = t_\n Name = s_</title>
<path fill="none" stroke="black" d="M455.574,-570.379C457.042,-562.73 458.824,-553.443 460.649,-543.936"/>
<polygon fill="black" stroke="black" points="464.106,-544.489 462.554,-534.008 457.232,-543.169 464.106,-544.489"/>
</g>
<!-- leftExpr1\n Classtype = None\n Name = None -->
<g id="node2" class="node"><title>leftExpr1\n Classtype = None\n Name = None</title>
<ellipse fill="lightblue" stroke="black" cx="324" cy="-168" rx="101.823" ry="43.8406"/>
<text text-anchor="middle" x="324" y="-182.4" font-family="Times Roman,serif" font-size="14.00">leftExpr1</text>
<text text-anchor="middle" x="324" y="-164.4" font-family="Times Roman,serif" font-size="14.00"> Classtype = None</text>
<text text-anchor="middle" x="324" y="-146.4" font-family="Times Roman,serif" font-size="14.00"> Name = None</text>
</g>
<!-- Attribute12\n Classtype = None\n Name = name -->
<g id="node13" class="node"><title>Attribute12\n Classtype = None\n Name = name</title>
<ellipse fill="lightblue" stroke="black" cx="435" cy="-44" rx="101.823" ry="43.8406"/>
<text text-anchor="middle" x="435" y="-58.4" font-family="Times Roman,serif" font-size="14.00">Attribute12</text>
<text text-anchor="middle" x="435" y="-40.4" font-family="Times Roman,serif" font-size="14.00"> Classtype = None</text>
<text text-anchor="middle" x="435" y="-22.4" font-family="Times Roman,serif" font-size="14.00"> Name = name</text>
</g>
<!-- leftExpr1\n Classtype = None\n Name = None&#45;&gt;Attribute12\n Classtype = None\n Name = name -->
<g id="edge8" class="edge"><title>leftExpr1\n Classtype = None\n Name = None&#45;&gt;Attribute12\n Classtype = None\n Name = name</title>
<path fill="none" stroke="black" d="M360.961,-126.71C370.697,-115.834 381.293,-103.997 391.345,-92.7677"/>
<polygon fill="black" stroke="black" points="394.138,-94.8952 398.2,-85.1099 388.922,-90.2264 394.138,-94.8952"/>
</g>
<!-- paired_with2 -->
<g id="node3" class="node"><title>paired_with2</title>
<ellipse fill="lightgray" stroke="black" cx="456" cy="-737" rx="75.1594" ry="18.3848"/>
<text text-anchor="middle" x="456" y="-733.4" font-family="Times Roman,serif" font-size="14.00">paired_with2</text>
</g>
<!-- ApplyModel4 -->
<g id="node5" class="node"><title>ApplyModel4</title>
<ellipse fill="#fed017" stroke="black" cx="435" cy="-663" rx="73.0388" ry="18.3848"/>
<text text-anchor="middle" x="435" y="-659.4" font-family="Times Roman,serif" font-size="14.00">ApplyModel4</text>
</g>
<!-- paired_with2&#45;&gt;ApplyModel4 -->
<g id="edge12" class="edge"><title>paired_with2&#45;&gt;ApplyModel4</title>
<path fill="none" stroke="black" d="M450.701,-718.327C448.388,-710.176 445.624,-700.438 443.065,-691.42"/>
<polygon fill="black" stroke="black" points="446.395,-690.332 440.297,-681.667 439.661,-692.243 446.395,-690.332"/>
</g>
<!-- hasAttr_S3\n Classtype = None\n Name = None -->
<g id="node4" class="node"><title>hasAttr_S3\n Classtype = None\n Name = None</title>
<ellipse fill="lightblue" stroke="black" cx="546" cy="-168" rx="101.823" ry="43.8406"/>
<text text-anchor="middle" x="546" y="-182.4" font-family="Times Roman,serif" font-size="14.00">hasAttr_S3</text>
<text text-anchor="middle" x="546" y="-164.4" font-family="Times Roman,serif" font-size="14.00"> Classtype = None</text>
<text text-anchor="middle" x="546" y="-146.4" font-family="Times Roman,serif" font-size="14.00"> Name = None</text>
</g>
<!-- hasAttr_S3\n Classtype = None\n Name = None&#45;&gt;Attribute12\n Classtype = None\n Name = name -->
<g id="edge16" class="edge"><title>hasAttr_S3\n Classtype = None\n Name = None&#45;&gt;Attribute12\n Classtype = None\n Name = name</title>
<path fill="none" stroke="black" d="M509.039,-126.71C499.303,-115.834 488.707,-103.997 478.655,-92.7677"/>
<polygon fill="black" stroke="black" points="481.078,-90.2264 471.8,-85.1099 475.862,-94.8952 481.078,-90.2264"/>
</g>
<!-- ApplyModel4&#45;&gt;apply_contains0 -->
<g id="edge2" class="edge"><title>ApplyModel4&#45;&gt;apply_contains0</title>
<path fill="none" stroke="black" d="M439.29,-644.327C441.162,-636.176 443.399,-626.438 445.471,-617.42"/>
<polygon fill="black" stroke="black" points="448.884,-618.197 447.712,-607.667 442.061,-616.63 448.884,-618.197"/>
</g>
<!-- Station_S5\n Classtype = 1\n Name = s_ -->
<g id="node6" class="node"><title>Station_S5\n Classtype = 1\n Name = s_</title>
<ellipse fill="lightblue" stroke="black" cx="546" cy="-292" rx="82.2301" ry="43.8406"/>
<text text-anchor="middle" x="546" y="-306.4" font-family="Times Roman,serif" font-size="14.00">Station_S5</text>
<text text-anchor="middle" x="546" y="-288.4" font-family="Times Roman,serif" font-size="14.00"> Classtype = 1</text>
<text text-anchor="middle" x="546" y="-270.4" font-family="Times Roman,serif" font-size="14.00"> Name = s_</text>
</g>
<!-- Station_S5\n Classtype = 1\n Name = s_&#45;&gt;hasAttr_S3\n Classtype = None\n Name = None -->
<g id="edge14" class="edge"><title>Station_S5\n Classtype = 1\n Name = s_&#45;&gt;hasAttr_S3\n Classtype = None\n Name = None</title>
<path fill="none" stroke="black" d="M546,-247.933C546,-239.718 546,-231.043 546,-222.557"/>
<polygon fill="black" stroke="black" points="549.5,-222.343 546,-212.343 542.5,-222.343 549.5,-222.343"/>
</g>
<!-- trace_link13 -->
<g id="node14" class="node"><title>trace_link13</title>
<ellipse fill="#eedd82" stroke="black" cx="488" cy="-391" rx="72.1249" ry="18.3848"/>
<text text-anchor="middle" x="488" y="-387.4" font-family="Times Roman,serif" font-size="14.00">trace_link13</text>
</g>
<!-- Station_T6\n Classtype = t_\n Name = s_&#45;&gt;trace_link13 -->
<g id="edge28" class="edge"><title>Station_T6\n Classtype = t_\n Name = s_&#45;&gt;trace_link13</title>
<path fill="none" stroke="black" d="M478.555,-446.001C480.102,-436.996 481.69,-427.745 483.113,-419.46"/>
<polygon fill="black" stroke="black" points="486.568,-420.022 484.811,-409.574 479.669,-418.837 486.568,-420.022"/>
</g>
<!-- Equation7\n Classtype = None\n Name = None -->
<g id="node8" class="node"><title>Equation7\n Classtype = None\n Name = None</title>
<ellipse fill="lightblue" stroke="black" cx="213" cy="-292" rx="101.823" ry="43.8406"/>
<text text-anchor="middle" x="213" y="-306.4" font-family="Times Roman,serif" font-size="14.00">Equation7</text>
<text text-anchor="middle" x="213" y="-288.4" font-family="Times Roman,serif" font-size="14.00"> Classtype = None</text>
<text text-anchor="middle" x="213" y="-270.4" font-family="Times Roman,serif" font-size="14.00"> Name = None</text>
</g>
<!-- Equation7\n Classtype = None\n Name = None&#45;&gt;leftExpr1\n Classtype = None\n Name = None -->
<g id="edge6" class="edge"><title>Equation7\n Classtype = None\n Name = None&#45;&gt;leftExpr1\n Classtype = None\n Name = None</title>
<path fill="none" stroke="black" d="M249.961,-250.71C259.697,-239.834 270.293,-227.997 280.345,-216.768"/>
<polygon fill="black" stroke="black" points="283.138,-218.895 287.2,-209.11 277.922,-214.226 283.138,-218.895"/>
</g>
<!-- rightExpr10\n Classtype = None\n Name = None -->
<g id="node11" class="node"><title>rightExpr10\n Classtype = None\n Name = None</title>
<ellipse fill="lightblue" stroke="black" cx="102" cy="-168" rx="101.823" ry="43.8406"/>
<text text-anchor="middle" x="102" y="-182.4" font-family="Times Roman,serif" font-size="14.00">rightExpr10</text>
<text text-anchor="middle" x="102" y="-164.4" font-family="Times Roman,serif" font-size="14.00"> Classtype = None</text>
<text text-anchor="middle" x="102" y="-146.4" font-family="Times Roman,serif" font-size="14.00"> Name = None</text>
</g>
<!-- Equation7\n Classtype = None\n Name = None&#45;&gt;rightExpr10\n Classtype = None\n Name = None -->
<g id="edge20" class="edge"><title>Equation7\n Classtype = None\n Name = None&#45;&gt;rightExpr10\n Classtype = None\n Name = None</title>
<path fill="none" stroke="black" d="M176.039,-250.71C166.303,-239.834 155.707,-227.997 145.655,-216.768"/>
<polygon fill="black" stroke="black" points="148.078,-214.226 138.8,-209.11 142.862,-218.895 148.078,-214.226"/>
</g>
<!-- match_contains8 -->
<g id="node9" class="node"><title>match_contains8</title>
<ellipse fill="#f798a1" stroke="black" cx="621" cy="-663" rx="94.7523" ry="18.3848"/>
<text text-anchor="middle" x="621" y="-659.4" font-family="Times Roman,serif" font-size="14.00">match_contains8</text>
</g>
<!-- match_contains8&#45;&gt;Station_S5\n Classtype = 1\n Name = s_ -->
<g id="edge18" class="edge"><title>match_contains8&#45;&gt;Station_S5\n Classtype = 1\n Name = s_</title>
<path fill="none" stroke="black" d="M618.369,-644.48C611.65,-598.216 592.704,-473.976 569,-372 567.003,-363.409 564.651,-354.368 562.227,-345.578"/>
<polygon fill="black" stroke="black" points="565.553,-344.477 559.474,-335.8 558.815,-346.374 565.553,-344.477"/>
</g>
<!-- Constant9\n Classtype = None\n Name = None -->
<g id="node10" class="node"><title>Constant9\n Classtype = None\n Name = None</title>
<ellipse fill="lightblue" stroke="black" cx="102" cy="-44" rx="101.823" ry="43.8406"/>
<text text-anchor="middle" x="102" y="-58.4" font-family="Times Roman,serif" font-size="14.00">Constant9</text>
<text text-anchor="middle" x="102" y="-40.4" font-family="Times Roman,serif" font-size="14.00"> Classtype = None</text>
<text text-anchor="middle" x="102" y="-22.4" font-family="Times Roman,serif" font-size="14.00"> Name = None</text>
</g>
<!-- rightExpr10\n Classtype = None\n Name = None&#45;&gt;Constant9\n Classtype = None\n Name = None -->
<g id="edge24" class="edge"><title>rightExpr10\n Classtype = None\n Name = None&#45;&gt;Constant9\n Classtype = None\n Name = None</title>
<path fill="none" stroke="black" d="M102,-123.933C102,-115.718 102,-107.043 102,-98.5568"/>
<polygon fill="black" stroke="black" points="105.5,-98.3428 102,-88.3428 98.5001,-98.3428 105.5,-98.3428"/>
</g>
<!-- MatchModel11 -->
<g id="node12" class="node"><title>MatchModel11</title>
<ellipse fill="#e15c34" stroke="black" cx="518" cy="-811" rx="82.2301" ry="18.3848"/>
<text text-anchor="middle" x="518" y="-807.4" font-family="Times Roman,serif" font-size="14.00">MatchModel11</text>
</g>
<!-- MatchModel11&#45;&gt;paired_with2 -->
<g id="edge10" class="edge"><title>MatchModel11&#45;&gt;paired_with2</title>
<path fill="none" stroke="black" d="M502.674,-792.708C495.222,-783.814 486.13,-772.962 477.957,-763.207"/>
<polygon fill="black" stroke="black" points="480.469,-760.756 471.364,-755.338 475.104,-765.251 480.469,-760.756"/>
</g>
<!-- MatchModel11&#45;&gt;match_contains8 -->
<g id="edge22" class="edge"><title>MatchModel11&#45;&gt;match_contains8</title>
<path fill="none" stroke="black" d="M530.837,-792.555C548.801,-766.742 581.556,-719.677 602.251,-689.94"/>
<polygon fill="black" stroke="black" points="605.162,-691.885 608.001,-681.678 599.416,-687.886 605.162,-691.885"/>
</g>
<!-- trace_link13&#45;&gt;Station_S5\n Classtype = 1\n Name = s_ -->
<g id="edge26" class="edge"><title>trace_link13&#45;&gt;Station_S5\n Classtype = 1\n Name = s_</title>
<path fill="none" stroke="black" d="M498.909,-372.379C503.832,-363.977 509.912,-353.599 516.048,-343.124"/>
<polygon fill="black" stroke="black" points="519.157,-344.741 521.192,-334.344 513.118,-341.203 519.157,-344.741"/>
</g>
<!-- apply_contains14 -->
<g id="node15" class="node"><title>apply_contains14</title>
<ellipse fill="#fcdb58" stroke="black" cx="1137" cy="-589" rx="96.8736" ry="18.3848"/>
<text text-anchor="middle" x="1137" y="-585.4" font-family="Times Roman,serif" font-size="14.00">apply_contains14</text>
</g>
<!-- Male_T21\n Classtype = t_\n Name = s_ -->
<g id="node22" class="node"><title>Male_T21\n Classtype = t_\n Name = s_</title>
<ellipse fill="lightblue" stroke="black" cx="1142" cy="-490" rx="85.7684" ry="43.8406"/>
<text text-anchor="middle" x="1142" y="-504.4" font-family="Times Roman,serif" font-size="14.00">Male_T21</text>
<text text-anchor="middle" x="1142" y="-486.4" font-family="Times Roman,serif" font-size="14.00"> Classtype = t_</text>
<text text-anchor="middle" x="1142" y="-468.4" font-family="Times Roman,serif" font-size="14.00"> Name = s_</text>
</g>
<!-- apply_contains14&#45;&gt;Male_T21\n Classtype = t_\n Name = s_ -->
<g id="edge32" class="edge"><title>apply_contains14&#45;&gt;Male_T21\n Classtype = t_\n Name = s_</title>
<path fill="none" stroke="black" d="M1137.94,-570.379C1138.32,-562.81 1138.79,-553.638 1139.26,-544.236"/>
<polygon fill="black" stroke="black" points="1142.77,-544.172 1139.78,-534.008 1135.78,-543.819 1142.77,-544.172"/>
</g>
<!-- leftExpr15\n Classtype = None\n Name = None -->
<g id="node16" class="node"><title>leftExpr15\n Classtype = None\n Name = None</title>
<ellipse fill="lightblue" stroke="black" cx="990" cy="-168" rx="101.823" ry="43.8406"/>
<text text-anchor="middle" x="990" y="-182.4" font-family="Times Roman,serif" font-size="14.00">leftExpr15</text>
<text text-anchor="middle" x="990" y="-164.4" font-family="Times Roman,serif" font-size="14.00"> Classtype = None</text>
<text text-anchor="middle" x="990" y="-146.4" font-family="Times Roman,serif" font-size="14.00"> Name = None</text>
</g>
<!-- Attribute25\n Classtype = None\n Name = name -->
<g id="node26" class="node"><title>Attribute25\n Classtype = None\n Name = name</title>
<ellipse fill="lightblue" stroke="black" cx="1101" cy="-44" rx="101.823" ry="43.8406"/>
<text text-anchor="middle" x="1101" y="-58.4" font-family="Times Roman,serif" font-size="14.00">Attribute25</text>
<text text-anchor="middle" x="1101" y="-40.4" font-family="Times Roman,serif" font-size="14.00"> Classtype = None</text>
<text text-anchor="middle" x="1101" y="-22.4" font-family="Times Roman,serif" font-size="14.00"> Name = name</text>
</g>
<!-- leftExpr15\n Classtype = None\n Name = None&#45;&gt;Attribute25\n Classtype = None\n Name = name -->
<g id="edge36" class="edge"><title>leftExpr15\n Classtype = None\n Name = None&#45;&gt;Attribute25\n Classtype = None\n Name = name</title>
<path fill="none" stroke="black" d="M1026.96,-126.71C1036.7,-115.834 1047.29,-103.997 1057.35,-92.7677"/>
<polygon fill="black" stroke="black" points="1060.14,-94.8952 1064.2,-85.1099 1054.92,-90.2264 1060.14,-94.8952"/>
</g>
<!-- paired_with16 -->
<g id="node17" class="node"><title>paired_with16</title>
<ellipse fill="lightgray" stroke="black" cx="1142" cy="-737" rx="82.0244" ry="18.3848"/>
<text text-anchor="middle" x="1142" y="-733.4" font-family="Times Roman,serif" font-size="14.00">paired_with16</text>
</g>
<!-- ApplyModel18 -->
<g id="node19" class="node"><title>ApplyModel18</title>
<ellipse fill="#fed017" stroke="black" cx="1119" cy="-663" rx="79.9031" ry="18.3848"/>
<text text-anchor="middle" x="1119" y="-659.4" font-family="Times Roman,serif" font-size="14.00">ApplyModel18</text>
</g>
<!-- paired_with16&#45;&gt;ApplyModel18 -->
<g id="edge40" class="edge"><title>paired_with16&#45;&gt;ApplyModel18</title>
<path fill="none" stroke="black" d="M1136.2,-718.327C1133.66,-710.176 1130.64,-700.438 1127.83,-691.42"/>
<polygon fill="black" stroke="black" points="1131.11,-690.178 1124.8,-681.667 1124.43,-692.256 1131.11,-690.178"/>
</g>
<!-- hasAttr_S17\n Classtype = None\n Name = None -->
<g id="node18" class="node"><title>hasAttr_S17\n Classtype = None\n Name = None</title>
<ellipse fill="lightblue" stroke="black" cx="1212" cy="-168" rx="101.823" ry="43.8406"/>
<text text-anchor="middle" x="1212" y="-182.4" font-family="Times Roman,serif" font-size="14.00">hasAttr_S17</text>
<text text-anchor="middle" x="1212" y="-164.4" font-family="Times Roman,serif" font-size="14.00"> Classtype = None</text>
<text text-anchor="middle" x="1212" y="-146.4" font-family="Times Roman,serif" font-size="14.00"> Name = None</text>
</g>
<!-- hasAttr_S17\n Classtype = None\n Name = None&#45;&gt;Attribute25\n Classtype = None\n Name = name -->
<g id="edge44" class="edge"><title>hasAttr_S17\n Classtype = None\n Name = None&#45;&gt;Attribute25\n Classtype = None\n Name = name</title>
<path fill="none" stroke="black" d="M1175.04,-126.71C1165.3,-115.834 1154.71,-103.997 1144.65,-92.7677"/>
<polygon fill="black" stroke="black" points="1147.08,-90.2264 1137.8,-85.1099 1141.86,-94.8952 1147.08,-90.2264"/>
</g>
<!-- ApplyModel18&#45;&gt;apply_contains14 -->
<g id="edge30" class="edge"><title>ApplyModel18&#45;&gt;apply_contains14</title>
<path fill="none" stroke="black" d="M1123.54,-644.327C1125.52,-636.176 1127.89,-626.438 1130.09,-617.42"/>
<polygon fill="black" stroke="black" points="1133.5,-618.211 1132.46,-607.667 1126.69,-616.557 1133.5,-618.211"/>
</g>
<!-- Equation19\n Classtype = None\n Name = None -->
<g id="node20" class="node"><title>Equation19\n Classtype = None\n Name = None</title>
<ellipse fill="lightblue" stroke="black" cx="879" cy="-292" rx="101.823" ry="43.8406"/>
<text text-anchor="middle" x="879" y="-306.4" font-family="Times Roman,serif" font-size="14.00">Equation19</text>
<text text-anchor="middle" x="879" y="-288.4" font-family="Times Roman,serif" font-size="14.00"> Classtype = None</text>
<text text-anchor="middle" x="879" y="-270.4" font-family="Times Roman,serif" font-size="14.00"> Name = None</text>
</g>
<!-- Equation19\n Classtype = None\n Name = None&#45;&gt;leftExpr15\n Classtype = None\n Name = None -->
<g id="edge34" class="edge"><title>Equation19\n Classtype = None\n Name = None&#45;&gt;leftExpr15\n Classtype = None\n Name = None</title>
<path fill="none" stroke="black" d="M915.961,-250.71C925.697,-239.834 936.293,-227.997 946.345,-216.768"/>
<polygon fill="black" stroke="black" points="949.138,-218.895 953.2,-209.11 943.922,-214.226 949.138,-218.895"/>
</g>
<!-- rightExpr23\n Classtype = None\n Name = None -->
<g id="node24" class="node"><title>rightExpr23\n Classtype = None\n Name = None</title>
<ellipse fill="lightblue" stroke="black" cx="768" cy="-168" rx="101.823" ry="43.8406"/>
<text text-anchor="middle" x="768" y="-182.4" font-family="Times Roman,serif" font-size="14.00">rightExpr23</text>
<text text-anchor="middle" x="768" y="-164.4" font-family="Times Roman,serif" font-size="14.00"> Classtype = None</text>
<text text-anchor="middle" x="768" y="-146.4" font-family="Times Roman,serif" font-size="14.00"> Name = None</text>
</g>
<!-- Equation19\n Classtype = None\n Name = None&#45;&gt;rightExpr23\n Classtype = None\n Name = None -->
<g id="edge46" class="edge"><title>Equation19\n Classtype = None\n Name = None&#45;&gt;rightExpr23\n Classtype = None\n Name = None</title>
<path fill="none" stroke="black" d="M842.039,-250.71C832.303,-239.834 821.707,-227.997 811.655,-216.768"/>
<polygon fill="black" stroke="black" points="814.078,-214.226 804.8,-209.11 808.862,-218.895 814.078,-214.226"/>
</g>
<!-- match_contains20 -->
<g id="node21" class="node"><title>match_contains20</title>
<ellipse fill="#f798a1" stroke="black" cx="1318" cy="-663" rx="101.116" ry="18.3848"/>
<text text-anchor="middle" x="1318" y="-659.4" font-family="Times Roman,serif" font-size="14.00">match_contains20</text>
</g>
<!-- Male_S26\n Classtype = 1\n Name = s_ -->
<g id="node27" class="node"><title>Male_S26\n Classtype = 1\n Name = s_</title>
<ellipse fill="lightblue" stroke="black" cx="1212" cy="-292" rx="82.2301" ry="43.8406"/>
<text text-anchor="middle" x="1212" y="-306.4" font-family="Times Roman,serif" font-size="14.00">Male_S26</text>
<text text-anchor="middle" x="1212" y="-288.4" font-family="Times Roman,serif" font-size="14.00"> Classtype = 1</text>
<text text-anchor="middle" x="1212" y="-270.4" font-family="Times Roman,serif" font-size="14.00"> Name = s_</text>
</g>
<!-- match_contains20&#45;&gt;Male_S26\n Classtype = 1\n Name = s_ -->
<g id="edge50" class="edge"><title>match_contains20&#45;&gt;Male_S26\n Classtype = 1\n Name = s_</title>
<path fill="none" stroke="black" d="M1312.67,-644.348C1297.1,-589.86 1251.28,-429.477 1227.19,-345.169"/>
<polygon fill="black" stroke="black" points="1230.55,-344.178 1224.44,-335.524 1223.82,-346.101 1230.55,-344.178"/>
</g>
<!-- trace_link27 -->
<g id="node28" class="node"><title>trace_link27</title>
<ellipse fill="#eedd82" stroke="black" cx="1152" cy="-391" rx="72.1249" ry="18.3848"/>
<text text-anchor="middle" x="1152" y="-387.4" font-family="Times Roman,serif" font-size="14.00">trace_link27</text>
</g>
<!-- Male_T21\n Classtype = t_\n Name = s_&#45;&gt;trace_link27 -->
<g id="edge56" class="edge"><title>Male_T21\n Classtype = t_\n Name = s_&#45;&gt;trace_link27</title>
<path fill="none" stroke="black" d="M1146.44,-446.001C1147.34,-437.096 1148.27,-427.95 1149.1,-419.737"/>
<polygon fill="black" stroke="black" points="1152.6,-419.875 1150.12,-409.574 1145.64,-419.172 1152.6,-419.875"/>
</g>
<!-- Constant22\n Classtype = None\n Name = None -->
<g id="node23" class="node"><title>Constant22\n Classtype = None\n Name = None</title>
<ellipse fill="lightblue" stroke="black" cx="768" cy="-44" rx="101.823" ry="43.8406"/>
<text text-anchor="middle" x="768" y="-58.4" font-family="Times Roman,serif" font-size="14.00">Constant22</text>
<text text-anchor="middle" x="768" y="-40.4" font-family="Times Roman,serif" font-size="14.00"> Classtype = None</text>
<text text-anchor="middle" x="768" y="-22.4" font-family="Times Roman,serif" font-size="14.00"> Name = None</text>
</g>
<!-- rightExpr23\n Classtype = None\n Name = None&#45;&gt;Constant22\n Classtype = None\n Name = None -->
<g id="edge52" class="edge"><title>rightExpr23\n Classtype = None\n Name = None&#45;&gt;Constant22\n Classtype = None\n Name = None</title>
<path fill="none" stroke="black" d="M768,-123.933C768,-115.718 768,-107.043 768,-98.5568"/>
<polygon fill="black" stroke="black" points="771.5,-98.3428 768,-88.3428 764.5,-98.3428 771.5,-98.3428"/>
</g>
<!-- MatchModel24 -->
<g id="node25" class="node"><title>MatchModel24</title>
<ellipse fill="#e15c34" stroke="black" cx="1219" cy="-811" rx="82.2301" ry="18.3848"/>
<text text-anchor="middle" x="1219" y="-807.4" font-family="Times Roman,serif" font-size="14.00">MatchModel24</text>
</g>
<!-- MatchModel24&#45;&gt;paired_with16 -->
<g id="edge38" class="edge"><title>MatchModel24&#45;&gt;paired_with16</title>
<path fill="none" stroke="black" d="M1199.97,-792.708C1190.36,-783.478 1178.56,-772.14 1168.13,-762.107"/>
<polygon fill="black" stroke="black" points="1170.45,-759.487 1160.81,-755.082 1165.6,-764.535 1170.45,-759.487"/>
</g>
<!-- MatchModel24&#45;&gt;match_contains20 -->
<g id="edge48" class="edge"><title>MatchModel24&#45;&gt;match_contains20</title>
<path fill="none" stroke="black" d="M1231.34,-792.555C1248.53,-766.853 1279.82,-720.08 1299.72,-690.324"/>
<polygon fill="black" stroke="black" points="1302.86,-691.935 1305.51,-681.678 1297.04,-688.043 1302.86,-691.935"/>
</g>
<!-- Male_S26\n Classtype = 1\n Name = s_&#45;&gt;hasAttr_S17\n Classtype = None\n Name = None -->
<g id="edge42" class="edge"><title>Male_S26\n Classtype = 1\n Name = s_&#45;&gt;hasAttr_S17\n Classtype = None\n Name = None</title>
<path fill="none" stroke="black" d="M1212,-247.933C1212,-239.718 1212,-231.043 1212,-222.557"/>
<polygon fill="black" stroke="black" points="1215.5,-222.343 1212,-212.343 1208.5,-222.343 1215.5,-222.343"/>
</g>
<!-- trace_link27&#45;&gt;Male_S26\n Classtype = 1\n Name = s_ -->
<g id="edge54" class="edge"><title>trace_link27&#45;&gt;Male_S26\n Classtype = 1\n Name = s_</title>
<path fill="none" stroke="black" d="M1163.29,-372.379C1168.43,-363.89 1174.8,-353.383 1181.21,-342.797"/>
<polygon fill="black" stroke="black" points="1184.4,-344.295 1186.59,-333.929 1178.41,-340.667 1184.4,-344.295"/>
</g>
<!-- apply_contains28 -->
<g id="node29" class="node"><title>apply_contains28</title>
<ellipse fill="#fcdb58" stroke="black" cx="1799" cy="-589" rx="96.8736" ry="18.3848"/>
<text text-anchor="middle" x="1799" y="-585.4" font-family="Times Roman,serif" font-size="14.00">apply_contains28</text>
</g>
<!-- Female_T33\n Classtype = t_\n Name = s_ -->
<g id="node34" class="node"><title>Female_T33\n Classtype = t_\n Name = s_</title>
<ellipse fill="lightblue" stroke="black" cx="1814" cy="-490" rx="85.7684" ry="43.8406"/>
<text text-anchor="middle" x="1814" y="-504.4" font-family="Times Roman,serif" font-size="14.00">Female_T33</text>
<text text-anchor="middle" x="1814" y="-486.4" font-family="Times Roman,serif" font-size="14.00"> Classtype = t_</text>
<text text-anchor="middle" x="1814" y="-468.4" font-family="Times Roman,serif" font-size="14.00"> Name = s_</text>
</g>
<!-- apply_contains28&#45;&gt;Female_T33\n Classtype = t_\n Name = s_ -->
<g id="edge60" class="edge"><title>apply_contains28&#45;&gt;Female_T33\n Classtype = t_\n Name = s_</title>
<path fill="none" stroke="black" d="M1801.82,-570.379C1802.98,-562.73 1804.39,-553.443 1805.83,-543.936"/>
<polygon fill="black" stroke="black" points="1809.29,-544.42 1807.33,-534.008 1802.37,-543.371 1809.29,-544.42"/>
</g>
<!-- leftExpr29\n Classtype = None\n Name = None -->
<g id="node30" class="node"><title>leftExpr29\n Classtype = None\n Name = None</title>
<ellipse fill="lightblue" stroke="black" cx="1656" cy="-168" rx="101.823" ry="43.8406"/>
<text text-anchor="middle" x="1656" y="-182.4" font-family="Times Roman,serif" font-size="14.00">leftExpr29</text>
<text text-anchor="middle" x="1656" y="-164.4" font-family="Times Roman,serif" font-size="14.00"> Classtype = None</text>
<text text-anchor="middle" x="1656" y="-146.4" font-family="Times Roman,serif" font-size="14.00"> Name = None</text>
</g>
<!-- Attribute40\n Classtype = None\n Name = name -->
<g id="node41" class="node"><title>Attribute40\n Classtype = None\n Name = name</title>
<ellipse fill="lightblue" stroke="black" cx="1767" cy="-44" rx="101.823" ry="43.8406"/>
<text text-anchor="middle" x="1767" y="-58.4" font-family="Times Roman,serif" font-size="14.00">Attribute40</text>
<text text-anchor="middle" x="1767" y="-40.4" font-family="Times Roman,serif" font-size="14.00"> Classtype = None</text>
<text text-anchor="middle" x="1767" y="-22.4" font-family="Times Roman,serif" font-size="14.00"> Name = name</text>
</g>
<!-- leftExpr29\n Classtype = None\n Name = None&#45;&gt;Attribute40\n Classtype = None\n Name = name -->
<g id="edge64" class="edge"><title>leftExpr29\n Classtype = None\n Name = None&#45;&gt;Attribute40\n Classtype = None\n Name = name</title>
<path fill="none" stroke="black" d="M1692.96,-126.71C1702.7,-115.834 1713.29,-103.997 1723.35,-92.7677"/>
<polygon fill="black" stroke="black" points="1726.14,-94.8952 1730.2,-85.1099 1720.92,-90.2264 1726.14,-94.8952"/>
</g>
<!-- paired_with30 -->
<g id="node31" class="node"><title>paired_with30</title>
<ellipse fill="lightgray" stroke="black" cx="1802" cy="-737" rx="82.0244" ry="18.3848"/>
<text text-anchor="middle" x="1802" y="-733.4" font-family="Times Roman,serif" font-size="14.00">paired_with30</text>
</g>
<!-- ApplyModel32 -->
<g id="node33" class="node"><title>ApplyModel32</title>
<ellipse fill="#fed017" stroke="black" cx="1780" cy="-663" rx="79.9031" ry="18.3848"/>
<text text-anchor="middle" x="1780" y="-659.4" font-family="Times Roman,serif" font-size="14.00">ApplyModel32</text>
</g>
<!-- paired_with30&#45;&gt;ApplyModel32 -->
<g id="edge68" class="edge"><title>paired_with30&#45;&gt;ApplyModel32</title>
<path fill="none" stroke="black" d="M1796.45,-718.327C1794.03,-710.176 1791.13,-700.438 1788.45,-691.42"/>
<polygon fill="black" stroke="black" points="1791.75,-690.255 1785.55,-681.667 1785.04,-692.25 1791.75,-690.255"/>
</g>
<!-- hasAttr_S31\n Classtype = None\n Name = None -->
<g id="node32" class="node"><title>hasAttr_S31\n Classtype = None\n Name = None</title>
<ellipse fill="lightblue" stroke="black" cx="1878" cy="-168" rx="101.823" ry="43.8406"/>
<text text-anchor="middle" x="1878" y="-182.4" font-family="Times Roman,serif" font-size="14.00">hasAttr_S31</text>
<text text-anchor="middle" x="1878" y="-164.4" font-family="Times Roman,serif" font-size="14.00"> Classtype = None</text>
<text text-anchor="middle" x="1878" y="-146.4" font-family="Times Roman,serif" font-size="14.00"> Name = None</text>
</g>
<!-- hasAttr_S31\n Classtype = None\n Name = None&#45;&gt;Attribute40\n Classtype = None\n Name = name -->
<g id="edge72" class="edge"><title>hasAttr_S31\n Classtype = None\n Name = None&#45;&gt;Attribute40\n Classtype = None\n Name = name</title>
<path fill="none" stroke="black" d="M1841.04,-126.71C1831.3,-115.834 1820.71,-103.997 1810.65,-92.7677"/>
<polygon fill="black" stroke="black" points="1813.08,-90.2264 1803.8,-85.1099 1807.86,-94.8952 1813.08,-90.2264"/>
</g>
<!-- ApplyModel32&#45;&gt;apply_contains28 -->
<g id="edge58" class="edge"><title>ApplyModel32&#45;&gt;apply_contains28</title>
<path fill="none" stroke="black" d="M1784.79,-644.327C1786.89,-636.176 1789.39,-626.438 1791.7,-617.42"/>
<polygon fill="black" stroke="black" points="1795.11,-618.224 1794.21,-607.667 1788.33,-616.483 1795.11,-618.224"/>
</g>
<!-- trace_link41 -->
<g id="node42" class="node"><title>trace_link41</title>
<ellipse fill="#eedd82" stroke="black" cx="1828" cy="-391" rx="72.1249" ry="18.3848"/>
<text text-anchor="middle" x="1828" y="-387.4" font-family="Times Roman,serif" font-size="14.00">trace_link41</text>
</g>
<!-- Female_T33\n Classtype = t_\n Name = s_&#45;&gt;trace_link41 -->
<g id="edge84" class="edge"><title>Female_T33\n Classtype = t_\n Name = s_&#45;&gt;trace_link41</title>
<path fill="none" stroke="black" d="M1820.22,-446.001C1821.48,-437.096 1822.77,-427.95 1823.94,-419.737"/>
<polygon fill="black" stroke="black" points="1827.44,-419.966 1825.37,-409.574 1820.51,-418.985 1827.44,-419.966"/>
</g>
<!-- Female_S34\n Classtype = 1\n Name = s_ -->
<g id="node35" class="node"><title>Female_S34\n Classtype = 1\n Name = s_</title>
<ellipse fill="lightblue" stroke="black" cx="1878" cy="-292" rx="82.2301" ry="43.8406"/>
<text text-anchor="middle" x="1878" y="-306.4" font-family="Times Roman,serif" font-size="14.00">Female_S34</text>
<text text-anchor="middle" x="1878" y="-288.4" font-family="Times Roman,serif" font-size="14.00"> Classtype = 1</text>
<text text-anchor="middle" x="1878" y="-270.4" font-family="Times Roman,serif" font-size="14.00"> Name = s_</text>
</g>
<!-- Female_S34\n Classtype = 1\n Name = s_&#45;&gt;hasAttr_S31\n Classtype = None\n Name = None -->
<g id="edge70" class="edge"><title>Female_S34\n Classtype = 1\n Name = s_&#45;&gt;hasAttr_S31\n Classtype = None\n Name = None</title>
<path fill="none" stroke="black" d="M1878,-247.933C1878,-239.718 1878,-231.043 1878,-222.557"/>
<polygon fill="black" stroke="black" points="1881.5,-222.343 1878,-212.343 1874.5,-222.343 1881.5,-222.343"/>
</g>
<!-- Equation35\n Classtype = None\n Name = None -->
<g id="node36" class="node"><title>Equation35\n Classtype = None\n Name = None</title>
<ellipse fill="lightblue" stroke="black" cx="1545" cy="-292" rx="101.823" ry="43.8406"/>
<text text-anchor="middle" x="1545" y="-306.4" font-family="Times Roman,serif" font-size="14.00">Equation35</text>
<text text-anchor="middle" x="1545" y="-288.4" font-family="Times Roman,serif" font-size="14.00"> Classtype = None</text>
<text text-anchor="middle" x="1545" y="-270.4" font-family="Times Roman,serif" font-size="14.00"> Name = None</text>
</g>
<!-- Equation35\n Classtype = None\n Name = None&#45;&gt;leftExpr29\n Classtype = None\n Name = None -->
<g id="edge62" class="edge"><title>Equation35\n Classtype = None\n Name = None&#45;&gt;leftExpr29\n Classtype = None\n Name = None</title>
<path fill="none" stroke="black" d="M1581.96,-250.71C1591.7,-239.834 1602.29,-227.997 1612.35,-216.768"/>
<polygon fill="black" stroke="black" points="1615.14,-218.895 1619.2,-209.11 1609.92,-214.226 1615.14,-218.895"/>
</g>
<!-- rightExpr38\n Classtype = None\n Name = None -->
<g id="node39" class="node"><title>rightExpr38\n Classtype = None\n Name = None</title>
<ellipse fill="lightblue" stroke="black" cx="1434" cy="-168" rx="101.823" ry="43.8406"/>
<text text-anchor="middle" x="1434" y="-182.4" font-family="Times Roman,serif" font-size="14.00">rightExpr38</text>
<text text-anchor="middle" x="1434" y="-164.4" font-family="Times Roman,serif" font-size="14.00"> Classtype = None</text>
<text text-anchor="middle" x="1434" y="-146.4" font-family="Times Roman,serif" font-size="14.00"> Name = None</text>
</g>
<!-- Equation35\n Classtype = None\n Name = None&#45;&gt;rightExpr38\n Classtype = None\n Name = None -->
<g id="edge76" class="edge"><title>Equation35\n Classtype = None\n Name = None&#45;&gt;rightExpr38\n Classtype = None\n Name = None</title>
<path fill="none" stroke="black" d="M1508.04,-250.71C1498.3,-239.834 1487.71,-227.997 1477.65,-216.768"/>
<polygon fill="black" stroke="black" points="1480.08,-214.226 1470.8,-209.11 1474.86,-218.895 1480.08,-214.226"/>
</g>
<!-- match_contains36 -->
<g id="node37" class="node"><title>match_contains36</title>
<ellipse fill="#f798a1" stroke="black" cx="1979" cy="-663" rx="101.116" ry="18.3848"/>
<text text-anchor="middle" x="1979" y="-659.4" font-family="Times Roman,serif" font-size="14.00">match_contains36</text>
</g>
<!-- match_contains36&#45;&gt;Female_S34\n Classtype = 1\n Name = s_ -->
<g id="edge74" class="edge"><title>match_contains36&#45;&gt;Female_S34\n Classtype = 1\n Name = s_</title>
<path fill="none" stroke="black" d="M1975.42,-644.382C1966.3,-597.891 1940.62,-473.177 1909,-372 1906.23,-363.125 1902.96,-353.822 1899.61,-344.827"/>
<polygon fill="black" stroke="black" points="1902.79,-343.326 1895.96,-335.222 1896.24,-345.813 1902.79,-343.326"/>
</g>
<!-- Constant37\n Classtype = None\n Name = None -->
<g id="node38" class="node"><title>Constant37\n Classtype = None\n Name = None</title>
<ellipse fill="lightblue" stroke="black" cx="1434" cy="-44" rx="101.823" ry="43.8406"/>
<text text-anchor="middle" x="1434" y="-58.4" font-family="Times Roman,serif" font-size="14.00">Constant37</text>
<text text-anchor="middle" x="1434" y="-40.4" font-family="Times Roman,serif" font-size="14.00"> Classtype = None</text>
<text text-anchor="middle" x="1434" y="-22.4" font-family="Times Roman,serif" font-size="14.00"> Name = None</text>
</g>
<!-- rightExpr38\n Classtype = None\n Name = None&#45;&gt;Constant37\n Classtype = None\n Name = None -->
<g id="edge80" class="edge"><title>rightExpr38\n Classtype = None\n Name = None&#45;&gt;Constant37\n Classtype = None\n Name = None</title>
<path fill="none" stroke="black" d="M1434,-123.933C1434,-115.718 1434,-107.043 1434,-98.5568"/>
<polygon fill="black" stroke="black" points="1437.5,-98.3428 1434,-88.3428 1430.5,-98.3428 1437.5,-98.3428"/>
</g>
<!-- MatchModel39 -->
<g id="node40" class="node"><title>MatchModel39</title>
<ellipse fill="#e15c34" stroke="black" cx="1879" cy="-811" rx="82.2301" ry="18.3848"/>
<text text-anchor="middle" x="1879" y="-807.4" font-family="Times Roman,serif" font-size="14.00">MatchModel39</text>
</g>
<!-- MatchModel39&#45;&gt;paired_with30 -->
<g id="edge66" class="edge"><title>MatchModel39&#45;&gt;paired_with30</title>
<path fill="none" stroke="black" d="M1859.97,-792.708C1850.36,-783.478 1838.56,-772.14 1828.13,-762.107"/>
<polygon fill="black" stroke="black" points="1830.45,-759.487 1820.81,-755.082 1825.6,-764.535 1830.45,-759.487"/>
</g>
<!-- MatchModel39&#45;&gt;match_contains36 -->
<g id="edge78" class="edge"><title>MatchModel39&#45;&gt;match_contains36</title>
<path fill="none" stroke="black" d="M1891.46,-792.555C1908.83,-766.853 1940.43,-720.08 1960.54,-690.324"/>
<polygon fill="black" stroke="black" points="1963.68,-691.923 1966.38,-681.678 1957.88,-688.004 1963.68,-691.923"/>
</g>
<!-- trace_link41&#45;&gt;Female_S34\n Classtype = 1\n Name = s_ -->
<g id="edge82" class="edge"><title>trace_link41&#45;&gt;Female_S34\n Classtype = 1\n Name = s_</title>
<path fill="none" stroke="black" d="M1837.4,-372.379C1841.56,-364.148 1846.68,-354.02 1851.86,-343.763"/>
<polygon fill="black" stroke="black" points="1855.02,-345.263 1856.4,-334.759 1848.77,-342.108 1855.02,-345.263"/>
</g>
</g>
</svg>
