<?xml version="1.0" encoding="UTF-8" standalone="no"?>
<!DOCTYPE svg PUBLIC "-//W3C//DTD SVG 1.1//EN"
 "http://www.w3.org/Graphics/SVG/1.1/DTD/svg11.dtd">
<!-- Generated by graphviz version 2.26.3 (20100126.1600)
 -->
<!-- Title: HEmptyPathCondition_HM2M_HF2F Pages: 1 -->
<svg width="1442pt" height="740pt"
 viewBox="0.00 0.00 1442.00 740.00" xmlns="http://www.w3.org/2000/svg" xmlns:xlink="http://www.w3.org/1999/xlink">
<g id="graph1" class="graph" transform="scale(1 1) rotate(0) translate(4 736)">
<title>HEmptyPathCondition_HM2M_HF2F</title>
<polygon fill="white" stroke="white" points="-4,5 -4,-736 1439,-736 1439,5 -4,5"/>
<!-- apply_contains0 -->
<g id="node1" class="node"><title>apply_contains0</title>
<ellipse fill="#fcdb58" stroke="black" cx="599" cy="-416" rx="90.0096" ry="18.3848"/>
<text text-anchor="middle" x="599" y="-412.4" font-family="Times Roman,serif" font-size="14.00">apply_contains0</text>
</g>
<!-- Male_T8\n Classtype = t_\n Name = s_ -->
<g id="node9" class="node"><title>Male_T8\n Classtype = t_\n Name = s_</title>
<ellipse fill="lightblue" stroke="black" cx="573" cy="-292" rx="85.7684" ry="43.8406"/>
<text text-anchor="middle" x="573" y="-306.4" font-family="Times Roman,serif" font-size="14.00">Male_T8</text>
<text text-anchor="middle" x="573" y="-288.4" font-family="Times Roman,serif" font-size="14.00"> Classtype = t_</text>
<text text-anchor="middle" x="573" y="-270.4" font-family="Times Roman,serif" font-size="14.00"> Name = s_</text>
</g>
<!-- apply_contains0&#45;&gt;Male_T8\n Classtype = t_\n Name = s_ -->
<g id="edge4" class="edge"><title>apply_contains0&#45;&gt;Male_T8\n Classtype = t_\n Name = s_</title>
<path fill="none" stroke="black" d="M595.108,-397.436C592.226,-383.691 588.144,-364.223 584.27,-345.75"/>
<polygon fill="black" stroke="black" points="587.688,-344.994 582.21,-335.925 580.837,-346.43 587.688,-344.994"/>
</g>
<!-- hasAttr_T1\n Classtype = None\n Name = None -->
<g id="node2" class="node"><title>hasAttr_T1\n Classtype = None\n Name = None</title>
<ellipse fill="lightblue" stroke="black" cx="559" cy="-168" rx="101.823" ry="43.8406"/>
<text text-anchor="middle" x="559" y="-182.4" font-family="Times Roman,serif" font-size="14.00">hasAttr_T1</text>
<text text-anchor="middle" x="559" y="-164.4" font-family="Times Roman,serif" font-size="14.00"> Classtype = None</text>
<text text-anchor="middle" x="559" y="-146.4" font-family="Times Roman,serif" font-size="14.00"> Name = None</text>
</g>
<!-- Attribute13\n Classtype = None\n Name = name -->
<g id="node14" class="node"><title>Attribute13\n Classtype = None\n Name = name</title>
<ellipse fill="lightblue" stroke="black" cx="468" cy="-44" rx="101.823" ry="43.8406"/>
<text text-anchor="middle" x="468" y="-58.4" font-family="Times Roman,serif" font-size="14.00">Attribute13</text>
<text text-anchor="middle" x="468" y="-40.4" font-family="Times Roman,serif" font-size="14.00"> Classtype = None</text>
<text text-anchor="middle" x="468" y="-22.4" font-family="Times Roman,serif" font-size="14.00"> Name = name</text>
</g>
<!-- hasAttr_T1\n Classtype = None\n Name = None&#45;&gt;Attribute13\n Classtype = None\n Name = name -->
<g id="edge8" class="edge"><title>hasAttr_T1\n Classtype = None\n Name = None&#45;&gt;Attribute13\n Classtype = None\n Name = name</title>
<path fill="none" stroke="black" d="M528.192,-126.019C520.787,-115.929 512.8,-105.047 505.141,-94.6101"/>
<polygon fill="black" stroke="black" points="507.825,-92.3507 499.086,-86.3594 502.181,-96.4922 507.825,-92.3507"/>
</g>
<!-- leftExpr2\n Classtype = None\n Name = None -->
<g id="node3" class="node"><title>leftExpr2\n Classtype = None\n Name = None</title>
<ellipse fill="lightblue" stroke="black" cx="167" cy="-416" rx="101.823" ry="43.8406"/>
<text text-anchor="middle" x="167" y="-430.4" font-family="Times Roman,serif" font-size="14.00">leftExpr2</text>
<text text-anchor="middle" x="167" y="-412.4" font-family="Times Roman,serif" font-size="14.00"> Classtype = None</text>
<text text-anchor="middle" x="167" y="-394.4" font-family="Times Roman,serif" font-size="14.00"> Name = None</text>
</g>
<!-- Attribute12\n Classtype = None\n Name = name -->
<g id="node13" class="node"><title>Attribute12\n Classtype = None\n Name = name</title>
<ellipse fill="lightblue" stroke="black" cx="267" cy="-292" rx="101.823" ry="43.8406"/>
<text text-anchor="middle" x="267" y="-306.4" font-family="Times Roman,serif" font-size="14.00">Attribute12</text>
<text text-anchor="middle" x="267" y="-288.4" font-family="Times Roman,serif" font-size="14.00"> Classtype = None</text>
<text text-anchor="middle" x="267" y="-270.4" font-family="Times Roman,serif" font-size="14.00"> Name = name</text>
</g>
<!-- leftExpr2\n Classtype = None\n Name = None&#45;&gt;Attribute12\n Classtype = None\n Name = name -->
<g id="edge12" class="edge"><title>leftExpr2\n Classtype = None\n Name = None&#45;&gt;Attribute12\n Classtype = None\n Name = name</title>
<path fill="none" stroke="black" d="M200.577,-374.365C209.069,-363.834 218.273,-352.422 227.046,-341.543"/>
<polygon fill="black" stroke="black" points="229.789,-343.718 233.342,-333.736 224.34,-339.323 229.789,-343.718"/>
</g>
<!-- paired_with3 -->
<g id="node4" class="node"><title>paired_with3</title>
<ellipse fill="lightgray" stroke="black" cx="583" cy="-639" rx="75.1594" ry="18.3848"/>
<text text-anchor="middle" x="583" y="-635.4" font-family="Times Roman,serif" font-size="14.00">paired_with3</text>
</g>
<!-- ApplyModel5 -->
<g id="node6" class="node"><title>ApplyModel5</title>
<ellipse fill="#fed017" stroke="black" cx="588" cy="-540" rx="73.0388" ry="18.3848"/>
<text text-anchor="middle" x="588" y="-536.4" font-family="Times Roman,serif" font-size="14.00">ApplyModel5</text>
</g>
<!-- paired_with3&#45;&gt;ApplyModel5 -->
<g id="edge16" class="edge"><title>paired_with3&#45;&gt;ApplyModel5</title>
<path fill="none" stroke="black" d="M583.94,-620.379C584.674,-605.86 585.705,-585.439 586.545,-568.814"/>
<polygon fill="black" stroke="black" points="590.055,-568.701 587.064,-558.538 583.064,-568.348 590.055,-568.701"/>
</g>
<!-- hasAttr_S4\n Classtype = None\n Name = None -->
<g id="node5" class="node"><title>hasAttr_S4\n Classtype = None\n Name = None</title>
<ellipse fill="lightblue" stroke="black" cx="389" cy="-416" rx="101.823" ry="43.8406"/>
<text text-anchor="middle" x="389" y="-430.4" font-family="Times Roman,serif" font-size="14.00">hasAttr_S4</text>
<text text-anchor="middle" x="389" y="-412.4" font-family="Times Roman,serif" font-size="14.00"> Classtype = None</text>
<text text-anchor="middle" x="389" y="-394.4" font-family="Times Roman,serif" font-size="14.00"> Name = None</text>
</g>
<!-- hasAttr_S4\n Classtype = None\n Name = None&#45;&gt;Attribute12\n Classtype = None\n Name = name -->
<g id="edge20" class="edge"><title>hasAttr_S4\n Classtype = None\n Name = None&#45;&gt;Attribute12\n Classtype = None\n Name = name</title>
<path fill="none" stroke="black" d="M349.053,-375.398C337.888,-364.05 325.651,-351.613 314.114,-339.887"/>
<polygon fill="black" stroke="black" points="316.545,-337.367 307.037,-332.693 311.556,-342.276 316.545,-337.367"/>
</g>
<!-- ApplyModel5&#45;&gt;apply_contains0 -->
<g id="edge2" class="edge"><title>ApplyModel5&#45;&gt;apply_contains0</title>
<path fill="none" stroke="black" d="M589.647,-521.436C591.445,-501.164 594.348,-468.442 596.443,-444.824"/>
<polygon fill="black" stroke="black" points="599.945,-444.961 597.342,-434.691 592.972,-444.343 599.945,-444.961"/>
</g>
<!-- Equation6\n Classtype = None\n Name = None -->
<g id="node7" class="node"><title>Equation6\n Classtype = None\n Name = None</title>
<ellipse fill="lightblue" stroke="black" cx="102" cy="-540" rx="101.823" ry="43.8406"/>
<text text-anchor="middle" x="102" y="-554.4" font-family="Times Roman,serif" font-size="14.00">Equation6</text>
<text text-anchor="middle" x="102" y="-536.4" font-family="Times Roman,serif" font-size="14.00"> Classtype = None</text>
<text text-anchor="middle" x="102" y="-518.4" font-family="Times Roman,serif" font-size="14.00"> Name = None</text>
</g>
<!-- Equation6\n Classtype = None\n Name = None&#45;&gt;leftExpr2\n Classtype = None\n Name = None -->
<g id="edge10" class="edge"><title>Equation6\n Classtype = None\n Name = None&#45;&gt;leftExpr2\n Classtype = None\n Name = None</title>
<path fill="none" stroke="black" d="M124.551,-496.979C129.442,-487.649 134.665,-477.685 139.716,-468.05"/>
<polygon fill="black" stroke="black" points="142.946,-469.427 144.488,-458.945 136.746,-466.177 142.946,-469.427"/>
</g>
<!-- rightExpr9\n Classtype = None\n Name = None -->
<g id="node10" class="node"><title>rightExpr9\n Classtype = None\n Name = None</title>
<ellipse fill="lightblue" stroke="black" cx="194" cy="-168" rx="101.823" ry="43.8406"/>
<text text-anchor="middle" x="194" y="-182.4" font-family="Times Roman,serif" font-size="14.00">rightExpr9</text>
<text text-anchor="middle" x="194" y="-164.4" font-family="Times Roman,serif" font-size="14.00"> Classtype = None</text>
<text text-anchor="middle" x="194" y="-146.4" font-family="Times Roman,serif" font-size="14.00"> Name = None</text>
</g>
<!-- Equation6\n Classtype = None\n Name = None&#45;&gt;rightExpr9\n Classtype = None\n Name = None -->
<g id="edge22" class="edge"><title>Equation6\n Classtype = None\n Name = None&#45;&gt;rightExpr9\n Classtype = None\n Name = None</title>
<path fill="none" stroke="black" d="M72.3092,-497.796C65.6177,-486.085 59.4717,-473.002 56,-460 45.9106,-422.213 44.5398,-409.394 56,-372 74.072,-313.031 115.589,-255.751 148.394,-216.976"/>
<polygon fill="black" stroke="black" points="151.393,-218.857 155.251,-208.989 146.081,-214.297 151.393,-218.857"/>
</g>
<!-- match_contains7 -->
<g id="node8" class="node"><title>match_contains7</title>
<ellipse fill="#f798a1" stroke="black" cx="392" cy="-639" rx="94.7523" ry="18.3848"/>
<text text-anchor="middle" x="392" y="-635.4" font-family="Times Roman,serif" font-size="14.00">match_contains7</text>
</g>
<!-- Male_S11\n Classtype = 1\n Name = s_ -->
<g id="node12" class="node"><title>Male_S11\n Classtype = 1\n Name = s_</title>
<ellipse fill="lightblue" stroke="black" cx="391" cy="-540" rx="82.2301" ry="43.8406"/>
<text text-anchor="middle" x="391" y="-554.4" font-family="Times Roman,serif" font-size="14.00">Male_S11</text>
<text text-anchor="middle" x="391" y="-536.4" font-family="Times Roman,serif" font-size="14.00"> Classtype = 1</text>
<text text-anchor="middle" x="391" y="-518.4" font-family="Times Roman,serif" font-size="14.00"> Name = s_</text>
</g>
<!-- match_contains7&#45;&gt;Male_S11\n Classtype = 1\n Name = s_ -->
<g id="edge26" class="edge"><title>match_contains7&#45;&gt;Male_S11\n Classtype = 1\n Name = s_</title>
<path fill="none" stroke="black" d="M391.812,-620.379C391.735,-612.81 391.643,-603.638 391.548,-594.236"/>
<polygon fill="black" stroke="black" points="395.045,-593.972 391.445,-584.008 388.046,-594.043 395.045,-593.972"/>
</g>
<!-- Male_T8\n Classtype = t_\n Name = s_&#45;&gt;hasAttr_T1\n Classtype = None\n Name = None -->
<g id="edge6" class="edge"><title>Male_T8\n Classtype = t_\n Name = s_&#45;&gt;hasAttr_T1\n Classtype = None\n Name = None</title>
<path fill="none" stroke="black" d="M568.025,-247.933C567.097,-239.718 566.118,-231.043 565.16,-222.557"/>
<polygon fill="black" stroke="black" points="568.606,-221.887 564.006,-212.343 561.651,-222.672 568.606,-221.887"/>
</g>
<!-- rightExpr9\n Classtype = None\n Name = None&#45;&gt;Attribute13\n Classtype = None\n Name = name -->
<g id="edge28" class="edge"><title>rightExpr9\n Classtype = None\n Name = None&#45;&gt;Attribute13\n Classtype = None\n Name = name</title>
<path fill="none" stroke="black" d="M264.562,-136.067C302.288,-118.994 348.883,-97.9069 387.957,-80.2236"/>
<polygon fill="black" stroke="black" points="389.534,-83.3519 397.202,-76.0401 386.648,-76.9745 389.534,-83.3519"/>
</g>
<!-- MatchModel10 -->
<g id="node11" class="node"><title>MatchModel10</title>
<ellipse fill="#e15c34" stroke="black" cx="488" cy="-713" rx="82.2301" ry="18.3848"/>
<text text-anchor="middle" x="488" y="-709.4" font-family="Times Roman,serif" font-size="14.00">MatchModel10</text>
</g>
<!-- MatchModel10&#45;&gt;paired_with3 -->
<g id="edge14" class="edge"><title>MatchModel10&#45;&gt;paired_with3</title>
<path fill="none" stroke="black" d="M510.997,-695.087C523.366,-685.452 538.788,-673.439 552.182,-663.005"/>
<polygon fill="black" stroke="black" points="554.477,-665.655 560.215,-656.748 550.175,-660.132 554.477,-665.655"/>
</g>
<!-- MatchModel10&#45;&gt;match_contains7 -->
<g id="edge24" class="edge"><title>MatchModel10&#45;&gt;match_contains7</title>
<path fill="none" stroke="black" d="M464.761,-695.087C452.354,-685.523 436.907,-673.615 423.441,-663.236"/>
<polygon fill="black" stroke="black" points="425.415,-660.338 415.358,-657.005 421.141,-665.882 425.415,-660.338"/>
</g>
<!-- Male_S11\n Classtype = 1\n Name = s_&#45;&gt;hasAttr_S4\n Classtype = None\n Name = None -->
<g id="edge18" class="edge"><title>Male_S11\n Classtype = 1\n Name = s_&#45;&gt;hasAttr_S4\n Classtype = None\n Name = None</title>
<path fill="none" stroke="black" d="M390.289,-495.933C390.157,-487.718 390.017,-479.043 389.88,-470.557"/>
<polygon fill="black" stroke="black" points="393.376,-470.285 389.715,-460.343 386.377,-470.398 393.376,-470.285"/>
</g>
<!-- apply_contains14 -->
<g id="node15" class="node"><title>apply_contains14</title>
<ellipse fill="#fcdb58" stroke="black" cx="1337" cy="-416" rx="96.8736" ry="18.3848"/>
<text text-anchor="middle" x="1337" y="-412.4" font-family="Times Roman,serif" font-size="14.00">apply_contains14</text>
</g>
<!-- Female_T20\n Classtype = t_\n Name = s_ -->
<g id="node21" class="node"><title>Female_T20\n Classtype = t_\n Name = s_</title>
<ellipse fill="lightblue" stroke="black" cx="1276" cy="-292" rx="85.7684" ry="43.8406"/>
<text text-anchor="middle" x="1276" y="-306.4" font-family="Times Roman,serif" font-size="14.00">Female_T20</text>
<text text-anchor="middle" x="1276" y="-288.4" font-family="Times Roman,serif" font-size="14.00"> Classtype = t_</text>
<text text-anchor="middle" x="1276" y="-270.4" font-family="Times Roman,serif" font-size="14.00"> Name = s_</text>
</g>
<!-- apply_contains14&#45;&gt;Female_T20\n Classtype = t_\n Name = s_ -->
<g id="edge32" class="edge"><title>apply_contains14&#45;&gt;Female_T20\n Classtype = t_\n Name = s_</title>
<path fill="none" stroke="black" d="M1327.87,-397.436C1320.9,-383.269 1310.94,-363.022 1301.61,-344.05"/>
<polygon fill="black" stroke="black" points="1304.64,-342.3 1297.09,-334.872 1298.36,-345.39 1304.64,-342.3"/>
</g>
<!-- hasAttr_T15\n Classtype = None\n Name = None -->
<g id="node16" class="node"><title>hasAttr_T15\n Classtype = None\n Name = None</title>
<ellipse fill="lightblue" stroke="black" cx="1146" cy="-168" rx="101.823" ry="43.8406"/>
<text text-anchor="middle" x="1146" y="-182.4" font-family="Times Roman,serif" font-size="14.00">hasAttr_T15</text>
<text text-anchor="middle" x="1146" y="-164.4" font-family="Times Roman,serif" font-size="14.00"> Classtype = None</text>
<text text-anchor="middle" x="1146" y="-146.4" font-family="Times Roman,serif" font-size="14.00"> Name = None</text>
</g>
<!-- Attribute27\n Classtype = None\n Name = name -->
<g id="node28" class="node"><title>Attribute27\n Classtype = None\n Name = name</title>
<ellipse fill="lightblue" stroke="black" cx="872" cy="-44" rx="101.823" ry="43.8406"/>
<text text-anchor="middle" x="872" y="-58.4" font-family="Times Roman,serif" font-size="14.00">Attribute27</text>
<text text-anchor="middle" x="872" y="-40.4" font-family="Times Roman,serif" font-size="14.00"> Classtype = None</text>
<text text-anchor="middle" x="872" y="-22.4" font-family="Times Roman,serif" font-size="14.00"> Name = name</text>
</g>
<!-- hasAttr_T15\n Classtype = None\n Name = None&#45;&gt;Attribute27\n Classtype = None\n Name = name -->
<g id="edge36" class="edge"><title>hasAttr_T15\n Classtype = None\n Name = None&#45;&gt;Attribute27\n Classtype = None\n Name = name</title>
<path fill="none" stroke="black" d="M1075.44,-136.067C1037.71,-118.994 991.117,-97.9069 952.043,-80.2236"/>
<polygon fill="black" stroke="black" points="953.352,-76.9745 942.798,-76.0401 950.466,-83.3519 953.352,-76.9745"/>
</g>
<!-- leftExpr16\n Classtype = None\n Name = None -->
<g id="node17" class="node"><title>leftExpr16\n Classtype = None\n Name = None</title>
<ellipse fill="lightblue" stroke="black" cx="898" cy="-416" rx="101.823" ry="43.8406"/>
<text text-anchor="middle" x="898" y="-430.4" font-family="Times Roman,serif" font-size="14.00">leftExpr16</text>
<text text-anchor="middle" x="898" y="-412.4" font-family="Times Roman,serif" font-size="14.00"> Classtype = None</text>
<text text-anchor="middle" x="898" y="-394.4" font-family="Times Roman,serif" font-size="14.00"> Name = None</text>
</g>
<!-- Attribute26\n Classtype = None\n Name = name -->
<g id="node27" class="node"><title>Attribute26\n Classtype = None\n Name = name</title>
<ellipse fill="lightblue" stroke="black" cx="1009" cy="-292" rx="101.823" ry="43.8406"/>
<text text-anchor="middle" x="1009" y="-306.4" font-family="Times Roman,serif" font-size="14.00">Attribute26</text>
<text text-anchor="middle" x="1009" y="-288.4" font-family="Times Roman,serif" font-size="14.00"> Classtype = None</text>
<text text-anchor="middle" x="1009" y="-270.4" font-family="Times Roman,serif" font-size="14.00"> Name = name</text>
</g>
<!-- leftExpr16\n Classtype = None\n Name = None&#45;&gt;Attribute26\n Classtype = None\n Name = name -->
<g id="edge40" class="edge"><title>leftExpr16\n Classtype = None\n Name = None&#45;&gt;Attribute26\n Classtype = None\n Name = name</title>
<path fill="none" stroke="black" d="M934.961,-374.71C944.697,-363.834 955.293,-351.997 965.345,-340.768"/>
<polygon fill="black" stroke="black" points="968.138,-342.895 972.2,-333.11 962.922,-338.226 968.138,-342.895"/>
</g>
<!-- paired_with17 -->
<g id="node18" class="node"><title>paired_with17</title>
<ellipse fill="lightgray" stroke="black" cx="1328" cy="-639" rx="82.0244" ry="18.3848"/>
<text text-anchor="middle" x="1328" y="-635.4" font-family="Times Roman,serif" font-size="14.00">paired_with17</text>
</g>
<!-- ApplyModel19 -->
<g id="node20" class="node"><title>ApplyModel19</title>
<ellipse fill="#fed017" stroke="black" cx="1336" cy="-540" rx="79.9031" ry="18.3848"/>
<text text-anchor="middle" x="1336" y="-536.4" font-family="Times Roman,serif" font-size="14.00">ApplyModel19</text>
</g>
<!-- paired_with17&#45;&gt;ApplyModel19 -->
<g id="edge44" class="edge"><title>paired_with17&#45;&gt;ApplyModel19</title>
<path fill="none" stroke="black" d="M1329.5,-620.379C1330.68,-605.86 1332.33,-585.439 1333.67,-568.814"/>
<polygon fill="black" stroke="black" points="1337.19,-568.787 1334.5,-558.538 1330.21,-568.223 1337.19,-568.787"/>
</g>
<!-- hasAttr_S18\n Classtype = None\n Name = None -->
<g id="node19" class="node"><title>hasAttr_S18\n Classtype = None\n Name = None</title>
<ellipse fill="lightblue" stroke="black" cx="1120" cy="-416" rx="101.823" ry="43.8406"/>
<text text-anchor="middle" x="1120" y="-430.4" font-family="Times Roman,serif" font-size="14.00">hasAttr_S18</text>
<text text-anchor="middle" x="1120" y="-412.4" font-family="Times Roman,serif" font-size="14.00"> Classtype = None</text>
<text text-anchor="middle" x="1120" y="-394.4" font-family="Times Roman,serif" font-size="14.00"> Name = None</text>
</g>
<!-- hasAttr_S18\n Classtype = None\n Name = None&#45;&gt;Attribute26\n Classtype = None\n Name = name -->
<g id="edge48" class="edge"><title>hasAttr_S18\n Classtype = None\n Name = None&#45;&gt;Attribute26\n Classtype = None\n Name = name</title>
<path fill="none" stroke="black" d="M1083.04,-374.71C1073.3,-363.834 1062.71,-351.997 1052.65,-340.768"/>
<polygon fill="black" stroke="black" points="1055.08,-338.226 1045.8,-333.11 1049.86,-342.895 1055.08,-338.226"/>
</g>
<!-- ApplyModel19&#45;&gt;apply_contains14 -->
<g id="edge30" class="edge"><title>ApplyModel19&#45;&gt;apply_contains14</title>
<path fill="none" stroke="black" d="M1336.15,-521.436C1336.31,-501.164 1336.58,-468.442 1336.77,-444.824"/>
<polygon fill="black" stroke="black" points="1340.27,-444.719 1336.85,-434.691 1333.27,-444.662 1340.27,-444.719"/>
</g>
<!-- Female_T20\n Classtype = t_\n Name = s_&#45;&gt;hasAttr_T15\n Classtype = None\n Name = None -->
<g id="edge34" class="edge"><title>Female_T20\n Classtype = t_\n Name = s_&#45;&gt;hasAttr_T15\n Classtype = None\n Name = None</title>
<path fill="none" stroke="black" d="M1235.22,-253.106C1222.77,-241.231 1208.94,-228.037 1195.96,-215.651"/>
<polygon fill="black" stroke="black" points="1198.08,-212.838 1188.43,-208.468 1193.25,-217.903 1198.08,-212.838"/>
</g>
<!-- Female_S21\n Classtype = 1\n Name = s_ -->
<g id="node22" class="node"><title>Female_S21\n Classtype = 1\n Name = s_</title>
<ellipse fill="lightblue" stroke="black" cx="1121" cy="-540" rx="82.2301" ry="43.8406"/>
<text text-anchor="middle" x="1121" y="-554.4" font-family="Times Roman,serif" font-size="14.00">Female_S21</text>
<text text-anchor="middle" x="1121" y="-536.4" font-family="Times Roman,serif" font-size="14.00"> Classtype = 1</text>
<text text-anchor="middle" x="1121" y="-518.4" font-family="Times Roman,serif" font-size="14.00"> Name = s_</text>
</g>
<!-- Female_S21\n Classtype = 1\n Name = s_&#45;&gt;hasAttr_S18\n Classtype = None\n Name = None -->
<g id="edge46" class="edge"><title>Female_S21\n Classtype = 1\n Name = s_&#45;&gt;hasAttr_S18\n Classtype = None\n Name = None</title>
<path fill="none" stroke="black" d="M1120.64,-495.933C1120.58,-487.718 1120.51,-479.043 1120.44,-470.557"/>
<polygon fill="black" stroke="black" points="1123.94,-470.314 1120.36,-460.343 1116.94,-470.371 1123.94,-470.314"/>
</g>
<!-- Equation22\n Classtype = None\n Name = None -->
<g id="node23" class="node"><title>Equation22\n Classtype = None\n Name = None</title>
<ellipse fill="lightblue" stroke="black" cx="808" cy="-540" rx="101.823" ry="43.8406"/>
<text text-anchor="middle" x="808" y="-554.4" font-family="Times Roman,serif" font-size="14.00">Equation22</text>
<text text-anchor="middle" x="808" y="-536.4" font-family="Times Roman,serif" font-size="14.00"> Classtype = None</text>
<text text-anchor="middle" x="808" y="-518.4" font-family="Times Roman,serif" font-size="14.00"> Name = None</text>
</g>
<!-- Equation22\n Classtype = None\n Name = None&#45;&gt;leftExpr16\n Classtype = None\n Name = None -->
<g id="edge38" class="edge"><title>Equation22\n Classtype = None\n Name = None&#45;&gt;leftExpr16\n Classtype = None\n Name = None</title>
<path fill="none" stroke="black" d="M838.721,-497.673C846.034,-487.597 853.908,-476.749 861.454,-466.353"/>
<polygon fill="black" stroke="black" points="864.376,-468.285 867.417,-458.136 858.711,-464.173 864.376,-468.285"/>
</g>
<!-- rightExpr24\n Classtype = None\n Name = None -->
<g id="node25" class="node"><title>rightExpr24\n Classtype = None\n Name = None</title>
<ellipse fill="lightblue" stroke="black" cx="781" cy="-168" rx="101.823" ry="43.8406"/>
<text text-anchor="middle" x="781" y="-182.4" font-family="Times Roman,serif" font-size="14.00">rightExpr24</text>
<text text-anchor="middle" x="781" y="-164.4" font-family="Times Roman,serif" font-size="14.00"> Classtype = None</text>
<text text-anchor="middle" x="781" y="-146.4" font-family="Times Roman,serif" font-size="14.00"> Name = None</text>
</g>
<!-- Equation22\n Classtype = None\n Name = None&#45;&gt;rightExpr24\n Classtype = None\n Name = None -->
<g id="edge52" class="edge"><title>Equation22\n Classtype = None\n Name = None&#45;&gt;rightExpr24\n Classtype = None\n Name = None</title>
<path fill="none" stroke="black" d="M794.556,-496.366C791.501,-484.666 788.667,-471.946 787,-460 775.532,-377.806 776.276,-281.353 778.303,-222.473"/>
<polygon fill="black" stroke="black" points="781.808,-222.407 778.68,-212.285 774.813,-222.148 781.808,-222.407"/>
</g>
<!-- match_contains23 -->
<g id="node24" class="node"><title>match_contains23</title>
<ellipse fill="#f798a1" stroke="black" cx="1123" cy="-639" rx="101.116" ry="18.3848"/>
<text text-anchor="middle" x="1123" y="-635.4" font-family="Times Roman,serif" font-size="14.00">match_contains23</text>
</g>
<!-- match_contains23&#45;&gt;Female_S21\n Classtype = 1\n Name = s_ -->
<g id="edge50" class="edge"><title>match_contains23&#45;&gt;Female_S21\n Classtype = 1\n Name = s_</title>
<path fill="none" stroke="black" d="M1122.62,-620.379C1122.47,-612.81 1122.29,-603.638 1122.1,-594.236"/>
<polygon fill="black" stroke="black" points="1125.59,-593.936 1121.89,-584.008 1118.59,-594.077 1125.59,-593.936"/>
</g>
<!-- rightExpr24\n Classtype = None\n Name = None&#45;&gt;Attribute27\n Classtype = None\n Name = name -->
<g id="edge56" class="edge"><title>rightExpr24\n Classtype = None\n Name = None&#45;&gt;Attribute27\n Classtype = None\n Name = name</title>
<path fill="none" stroke="black" d="M811.808,-126.019C819.213,-115.929 827.2,-105.047 834.859,-94.6101"/>
<polygon fill="black" stroke="black" points="837.819,-96.4922 840.914,-86.3594 832.175,-92.3507 837.819,-96.4922"/>
</g>
<!-- MatchModel25 -->
<g id="node26" class="node"><title>MatchModel25</title>
<ellipse fill="#e15c34" stroke="black" cx="1225" cy="-713" rx="82.2301" ry="18.3848"/>
<text text-anchor="middle" x="1225" y="-709.4" font-family="Times Roman,serif" font-size="14.00">MatchModel25</text>
</g>
<!-- MatchModel25&#45;&gt;paired_with17 -->
<g id="edge42" class="edge"><title>MatchModel25&#45;&gt;paired_with17</title>
<path fill="none" stroke="black" d="M1249.67,-695.275C1263.2,-685.553 1280.16,-673.367 1294.84,-662.824"/>
<polygon fill="black" stroke="black" points="1297.09,-665.514 1303.17,-656.837 1293.01,-659.829 1297.09,-665.514"/>
</g>
<!-- MatchModel25&#45;&gt;match_contains23 -->
<g id="edge54" class="edge"><title>MatchModel25&#45;&gt;match_contains23</title>
<path fill="none" stroke="black" d="M1200.57,-695.275C1187.27,-685.624 1170.62,-673.547 1156.16,-663.057"/>
<polygon fill="black" stroke="black" points="1158.09,-660.134 1147.94,-657.094 1153.98,-665.8 1158.09,-660.134"/>
</g>
</g>
</svg>
