<?xml version="1.0" encoding="UTF-8" standalone="no"?>
<!DOCTYPE svg PUBLIC "-//W3C//DTD SVG 1.1//EN"
 "http://www.w3.org/Graphics/SVG/1.1/DTD/svg11.dtd">
<!-- Generated by graphviz version 2.26.3 (20100126.1600)
 -->
<!-- Title: HEmptyPathCondition_HF2F_HS2S_HSF2SF Pages: 1 -->
<svg width="1983pt" height="1086pt"
 viewBox="0.00 0.00 1983.00 1086.00" xmlns="http://www.w3.org/2000/svg" xmlns:xlink="http://www.w3.org/1999/xlink">
<g id="graph1" class="graph" transform="scale(1 1) rotate(0) translate(4 1082)">
<title>HEmptyPathCondition_HF2F_HS2S_HSF2SF</title>
<polygon fill="white" stroke="white" points="-4,5 -4,-1082 1980,-1082 1980,5 -4,5"/>
<!-- rightExpr0\n Classtype = None\n Name = None -->
<g id="node1" class="node"><title>rightExpr0\n Classtype = None\n Name = None</title>
<ellipse fill="lightblue" stroke="black" cx="102" cy="-168" rx="101.823" ry="43.8406"/>
<text text-anchor="middle" x="102" y="-182.4" font-family="Times Roman,serif" font-size="14.00">rightExpr0</text>
<text text-anchor="middle" x="102" y="-164.4" font-family="Times Roman,serif" font-size="14.00"> Classtype = None</text>
<text text-anchor="middle" x="102" y="-146.4" font-family="Times Roman,serif" font-size="14.00"> Name = None</text>
</g>
<!-- Constant12\n Classtype = None\n Name = None -->
<g id="node13" class="node"><title>Constant12\n Classtype = None\n Name = None</title>
<ellipse fill="lightblue" stroke="black" cx="102" cy="-44" rx="101.823" ry="43.8406"/>
<text text-anchor="middle" x="102" y="-58.4" font-family="Times Roman,serif" font-size="14.00">Constant12</text>
<text text-anchor="middle" x="102" y="-40.4" font-family="Times Roman,serif" font-size="14.00"> Classtype = None</text>
<text text-anchor="middle" x="102" y="-22.4" font-family="Times Roman,serif" font-size="14.00"> Name = None</text>
</g>
<!-- rightExpr0\n Classtype = None\n Name = None&#45;&gt;Constant12\n Classtype = None\n Name = None -->
<g id="edge4" class="edge"><title>rightExpr0\n Classtype = None\n Name = None&#45;&gt;Constant12\n Classtype = None\n Name = None</title>
<path fill="none" stroke="black" d="M102,-123.933C102,-115.718 102,-107.043 102,-98.5568"/>
<polygon fill="black" stroke="black" points="105.5,-98.3428 102,-88.3428 98.5001,-98.3428 105.5,-98.3428"/>
</g>
<!-- hasAttr_S1\n Classtype = None\n Name = None -->
<g id="node2" class="node"><title>hasAttr_S1\n Classtype = None\n Name = None</title>
<ellipse fill="lightblue" stroke="black" cx="546" cy="-168" rx="101.823" ry="43.8406"/>
<text text-anchor="middle" x="546" y="-182.4" font-family="Times Roman,serif" font-size="14.00">hasAttr_S1</text>
<text text-anchor="middle" x="546" y="-164.4" font-family="Times Roman,serif" font-size="14.00"> Classtype = None</text>
<text text-anchor="middle" x="546" y="-146.4" font-family="Times Roman,serif" font-size="14.00"> Name = None</text>
</g>
<!-- Attribute9\n Classtype = None\n Name = name -->
<g id="node10" class="node"><title>Attribute9\n Classtype = None\n Name = name</title>
<ellipse fill="lightblue" stroke="black" cx="546" cy="-44" rx="101.823" ry="43.8406"/>
<text text-anchor="middle" x="546" y="-58.4" font-family="Times Roman,serif" font-size="14.00">Attribute9</text>
<text text-anchor="middle" x="546" y="-40.4" font-family="Times Roman,serif" font-size="14.00"> Classtype = None</text>
<text text-anchor="middle" x="546" y="-22.4" font-family="Times Roman,serif" font-size="14.00"> Name = name</text>
</g>
<!-- hasAttr_S1\n Classtype = None\n Name = None&#45;&gt;Attribute9\n Classtype = None\n Name = name -->
<g id="edge8" class="edge"><title>hasAttr_S1\n Classtype = None\n Name = None&#45;&gt;Attribute9\n Classtype = None\n Name = name</title>
<path fill="none" stroke="black" d="M546,-123.933C546,-115.718 546,-107.043 546,-98.5568"/>
<polygon fill="black" stroke="black" points="549.5,-98.3428 546,-88.3428 542.5,-98.3428 549.5,-98.3428"/>
</g>
<!-- ApplyModel2 -->
<g id="node3" class="node"><title>ApplyModel2</title>
<ellipse fill="#fed017" stroke="black" cx="620" cy="-738" rx="73.0388" ry="18.3848"/>
<text text-anchor="middle" x="620" y="-734.4" font-family="Times Roman,serif" font-size="14.00">ApplyModel2</text>
</g>
<!-- apply_contains10 -->
<g id="node11" class="node"><title>apply_contains10</title>
<ellipse fill="#fcdb58" stroke="black" cx="604" cy="-639" rx="96.8736" ry="18.3848"/>
<text text-anchor="middle" x="604" y="-635.4" font-family="Times Roman,serif" font-size="14.00">apply_contains10</text>
</g>
<!-- ApplyModel2&#45;&gt;apply_contains10 -->
<g id="edge12" class="edge"><title>ApplyModel2&#45;&gt;apply_contains10</title>
<path fill="none" stroke="black" d="M616.991,-719.379C614.644,-704.86 611.344,-684.439 608.657,-667.814"/>
<polygon fill="black" stroke="black" points="612.047,-666.851 606.996,-657.538 605.136,-667.968 612.047,-666.851"/>
</g>
<!-- match_contains3 -->
<g id="node4" class="node"><title>match_contains3</title>
<ellipse fill="#f798a1" stroke="black" cx="434" cy="-738" rx="94.7523" ry="18.3848"/>
<text text-anchor="middle" x="434" y="-734.4" font-family="Times Roman,serif" font-size="14.00">match_contains3</text>
</g>
<!-- Female_S6\n Classtype = 1\n Name = s_ -->
<g id="node7" class="node"><title>Female_S6\n Classtype = 1\n Name = s_</title>
<ellipse fill="lightblue" stroke="black" cx="556" cy="-292" rx="82.2301" ry="43.8406"/>
<text text-anchor="middle" x="556" y="-306.4" font-family="Times Roman,serif" font-size="14.00">Female_S6</text>
<text text-anchor="middle" x="556" y="-288.4" font-family="Times Roman,serif" font-size="14.00"> Classtype = 1</text>
<text text-anchor="middle" x="556" y="-270.4" font-family="Times Roman,serif" font-size="14.00"> Name = s_</text>
</g>
<!-- match_contains3&#45;&gt;Female_S6\n Classtype = 1\n Name = s_ -->
<g id="edge16" class="edge"><title>match_contains3&#45;&gt;Female_S6\n Classtype = 1\n Name = s_</title>
<path fill="none" stroke="black" d="M432.402,-719.369C428.413,-663.57 422.151,-494.119 480,-372 486.005,-359.322 494.794,-347.352 504.281,-336.721"/>
<polygon fill="black" stroke="black" points="507.014,-338.923 511.283,-329.226 501.899,-334.144 507.014,-338.923"/>
</g>
<!-- paired_with4 -->
<g id="node5" class="node"><title>paired_with4</title>
<ellipse fill="lightgray" stroke="black" cx="579" cy="-837" rx="75.1594" ry="18.3848"/>
<text text-anchor="middle" x="579" y="-833.4" font-family="Times Roman,serif" font-size="14.00">paired_with4</text>
</g>
<!-- paired_with4&#45;&gt;ApplyModel2 -->
<g id="edge10" class="edge"><title>paired_with4&#45;&gt;ApplyModel2</title>
<path fill="none" stroke="black" d="M586.712,-818.379C592.839,-803.583 601.505,-782.659 608.459,-765.868"/>
<polygon fill="black" stroke="black" points="611.73,-767.116 612.323,-756.538 605.263,-764.437 611.73,-767.116"/>
</g>
<!-- Female_T5\n Classtype = t_\n Name = s_ -->
<g id="node6" class="node"><title>Female_T5\n Classtype = t_\n Name = s_</title>
<ellipse fill="lightblue" stroke="black" cx="604" cy="-540" rx="85.7684" ry="43.8406"/>
<text text-anchor="middle" x="604" y="-554.4" font-family="Times Roman,serif" font-size="14.00">Female_T5</text>
<text text-anchor="middle" x="604" y="-536.4" font-family="Times Roman,serif" font-size="14.00"> Classtype = t_</text>
<text text-anchor="middle" x="604" y="-518.4" font-family="Times Roman,serif" font-size="14.00"> Name = s_</text>
</g>
<!-- trace_link13 -->
<g id="node14" class="node"><title>trace_link13</title>
<ellipse fill="#eedd82" stroke="black" cx="561" cy="-416" rx="72.1249" ry="18.3848"/>
<text text-anchor="middle" x="561" y="-412.4" font-family="Times Roman,serif" font-size="14.00">trace_link13</text>
</g>
<!-- Female_T5\n Classtype = t_\n Name = s_&#45;&gt;trace_link13 -->
<g id="edge28" class="edge"><title>Female_T5\n Classtype = t_\n Name = s_&#45;&gt;trace_link13</title>
<path fill="none" stroke="black" d="M588.961,-496.631C582.921,-479.214 576.132,-459.636 570.756,-444.133"/>
<polygon fill="black" stroke="black" points="574.032,-442.899 567.449,-434.598 567.419,-445.192 574.032,-442.899"/>
</g>
<!-- Female_S6\n Classtype = 1\n Name = s_&#45;&gt;hasAttr_S1\n Classtype = None\n Name = None -->
<g id="edge6" class="edge"><title>Female_S6\n Classtype = 1\n Name = s_&#45;&gt;hasAttr_S1\n Classtype = None\n Name = None</title>
<path fill="none" stroke="black" d="M552.446,-247.933C551.784,-239.718 551.084,-231.043 550.4,-222.557"/>
<polygon fill="black" stroke="black" points="553.869,-222.029 549.576,-212.343 546.891,-222.592 553.869,-222.029"/>
</g>
<!-- Equation7\n Classtype = None\n Name = None -->
<g id="node8" class="node"><title>Equation7\n Classtype = None\n Name = None</title>
<ellipse fill="lightblue" stroke="black" cx="213" cy="-292" rx="101.823" ry="43.8406"/>
<text text-anchor="middle" x="213" y="-306.4" font-family="Times Roman,serif" font-size="14.00">Equation7</text>
<text text-anchor="middle" x="213" y="-288.4" font-family="Times Roman,serif" font-size="14.00"> Classtype = None</text>
<text text-anchor="middle" x="213" y="-270.4" font-family="Times Roman,serif" font-size="14.00"> Name = None</text>
</g>
<!-- Equation7\n Classtype = None\n Name = None&#45;&gt;rightExpr0\n Classtype = None\n Name = None -->
<g id="edge2" class="edge"><title>Equation7\n Classtype = None\n Name = None&#45;&gt;rightExpr0\n Classtype = None\n Name = None</title>
<path fill="none" stroke="black" d="M176.039,-250.71C166.303,-239.834 155.707,-227.997 145.655,-216.768"/>
<polygon fill="black" stroke="black" points="148.078,-214.226 138.8,-209.11 142.862,-218.895 148.078,-214.226"/>
</g>
<!-- leftExpr11\n Classtype = None\n Name = None -->
<g id="node12" class="node"><title>leftExpr11\n Classtype = None\n Name = None</title>
<ellipse fill="lightblue" stroke="black" cx="324" cy="-168" rx="101.823" ry="43.8406"/>
<text text-anchor="middle" x="324" y="-182.4" font-family="Times Roman,serif" font-size="14.00">leftExpr11</text>
<text text-anchor="middle" x="324" y="-164.4" font-family="Times Roman,serif" font-size="14.00"> Classtype = None</text>
<text text-anchor="middle" x="324" y="-146.4" font-family="Times Roman,serif" font-size="14.00"> Name = None</text>
</g>
<!-- Equation7\n Classtype = None\n Name = None&#45;&gt;leftExpr11\n Classtype = None\n Name = None -->
<g id="edge22" class="edge"><title>Equation7\n Classtype = None\n Name = None&#45;&gt;leftExpr11\n Classtype = None\n Name = None</title>
<path fill="none" stroke="black" d="M249.961,-250.71C259.697,-239.834 270.293,-227.997 280.345,-216.768"/>
<polygon fill="black" stroke="black" points="283.138,-218.895 287.2,-209.11 277.922,-214.226 283.138,-218.895"/>
</g>
<!-- MatchModel8 -->
<g id="node9" class="node"><title>MatchModel8</title>
<ellipse fill="#e15c34" stroke="black" cx="517" cy="-911" rx="75.8684" ry="18.3848"/>
<text text-anchor="middle" x="517" y="-907.4" font-family="Times Roman,serif" font-size="14.00">MatchModel8</text>
</g>
<!-- MatchModel8&#45;&gt;match_contains3 -->
<g id="edge14" class="edge"><title>MatchModel8&#45;&gt;match_contains3</title>
<path fill="none" stroke="black" d="M508.118,-892.486C493.553,-862.13 464.511,-801.595 447.424,-765.981"/>
<polygon fill="black" stroke="black" points="450.425,-764.144 442.944,-756.642 444.114,-767.172 450.425,-764.144"/>
</g>
<!-- MatchModel8&#45;&gt;paired_with4 -->
<g id="edge18" class="edge"><title>MatchModel8&#45;&gt;paired_with4</title>
<path fill="none" stroke="black" d="M532.326,-892.708C539.778,-883.814 548.87,-872.962 557.043,-863.207"/>
<polygon fill="black" stroke="black" points="559.896,-865.251 563.636,-855.338 554.531,-860.756 559.896,-865.251"/>
</g>
<!-- apply_contains10&#45;&gt;Female_T5\n Classtype = t_\n Name = s_ -->
<g id="edge20" class="edge"><title>apply_contains10&#45;&gt;Female_T5\n Classtype = t_\n Name = s_</title>
<path fill="none" stroke="black" d="M604,-620.379C604,-612.81 604,-603.638 604,-594.236"/>
<polygon fill="black" stroke="black" points="607.5,-594.008 604,-584.008 600.5,-594.008 607.5,-594.008"/>
</g>
<!-- leftExpr11\n Classtype = None\n Name = None&#45;&gt;Attribute9\n Classtype = None\n Name = name -->
<g id="edge24" class="edge"><title>leftExpr11\n Classtype = None\n Name = None&#45;&gt;Attribute9\n Classtype = None\n Name = name</title>
<path fill="none" stroke="black" d="M386.43,-133.129C413.741,-117.875 445.937,-99.8909 474.231,-84.0871"/>
<polygon fill="black" stroke="black" points="476.246,-86.971 483.269,-79.0388 472.832,-80.8596 476.246,-86.971"/>
</g>
<!-- trace_link13&#45;&gt;Female_S6\n Classtype = 1\n Name = s_ -->
<g id="edge26" class="edge"><title>trace_link13&#45;&gt;Female_S6\n Classtype = 1\n Name = s_</title>
<path fill="none" stroke="black" d="M560.251,-397.436C559.702,-383.812 558.926,-364.564 558.187,-346.235"/>
<polygon fill="black" stroke="black" points="561.682,-346.04 557.782,-336.189 554.688,-346.322 561.682,-346.04"/>
</g>
<!-- apply_contains14 -->
<g id="node15" class="node"><title>apply_contains14</title>
<ellipse fill="#fcdb58" stroke="black" cx="876" cy="-837" rx="96.8736" ry="18.3848"/>
<text text-anchor="middle" x="876" y="-833.4" font-family="Times Roman,serif" font-size="14.00">apply_contains14</text>
</g>
<!-- Station_T20\n Classtype = t_\n Name = s_ -->
<g id="node21" class="node"><title>Station_T20\n Classtype = t_\n Name = s_</title>
<ellipse fill="lightblue" stroke="black" cx="876" cy="-738" rx="85.7684" ry="43.8406"/>
<text text-anchor="middle" x="876" y="-752.4" font-family="Times Roman,serif" font-size="14.00">Station_T20</text>
<text text-anchor="middle" x="876" y="-734.4" font-family="Times Roman,serif" font-size="14.00"> Classtype = t_</text>
<text text-anchor="middle" x="876" y="-716.4" font-family="Times Roman,serif" font-size="14.00"> Name = s_</text>
</g>
<!-- apply_contains14&#45;&gt;Station_T20\n Classtype = t_\n Name = s_ -->
<g id="edge32" class="edge"><title>apply_contains14&#45;&gt;Station_T20\n Classtype = t_\n Name = s_</title>
<path fill="none" stroke="black" d="M876,-818.379C876,-810.81 876,-801.638 876,-792.236"/>
<polygon fill="black" stroke="black" points="879.5,-792.008 876,-782.008 872.5,-792.008 879.5,-792.008"/>
</g>
<!-- leftExpr15\n Classtype = None\n Name = None -->
<g id="node16" class="node"><title>leftExpr15\n Classtype = None\n Name = None</title>
<ellipse fill="lightblue" stroke="black" cx="1429" cy="-416" rx="101.823" ry="43.8406"/>
<text text-anchor="middle" x="1429" y="-430.4" font-family="Times Roman,serif" font-size="14.00">leftExpr15</text>
<text text-anchor="middle" x="1429" y="-412.4" font-family="Times Roman,serif" font-size="14.00"> Classtype = None</text>
<text text-anchor="middle" x="1429" y="-394.4" font-family="Times Roman,serif" font-size="14.00"> Name = None</text>
</g>
<!-- Attribute26\n Classtype = None\n Name = name -->
<g id="node27" class="node"><title>Attribute26\n Classtype = None\n Name = name</title>
<ellipse fill="lightblue" stroke="black" cx="1429" cy="-292" rx="101.823" ry="43.8406"/>
<text text-anchor="middle" x="1429" y="-306.4" font-family="Times Roman,serif" font-size="14.00">Attribute26</text>
<text text-anchor="middle" x="1429" y="-288.4" font-family="Times Roman,serif" font-size="14.00"> Classtype = None</text>
<text text-anchor="middle" x="1429" y="-270.4" font-family="Times Roman,serif" font-size="14.00"> Name = name</text>
</g>
<!-- leftExpr15\n Classtype = None\n Name = None&#45;&gt;Attribute26\n Classtype = None\n Name = name -->
<g id="edge36" class="edge"><title>leftExpr15\n Classtype = None\n Name = None&#45;&gt;Attribute26\n Classtype = None\n Name = name</title>
<path fill="none" stroke="black" d="M1429,-371.933C1429,-363.718 1429,-355.043 1429,-346.557"/>
<polygon fill="black" stroke="black" points="1432.5,-346.343 1429,-336.343 1425.5,-346.343 1432.5,-346.343"/>
</g>
<!-- paired_with16 -->
<g id="node17" class="node"><title>paired_with16</title>
<ellipse fill="lightgray" stroke="black" cx="876" cy="-985" rx="82.0244" ry="18.3848"/>
<text text-anchor="middle" x="876" y="-981.4" font-family="Times Roman,serif" font-size="14.00">paired_with16</text>
</g>
<!-- ApplyModel18 -->
<g id="node19" class="node"><title>ApplyModel18</title>
<ellipse fill="#fed017" stroke="black" cx="876" cy="-911" rx="79.9031" ry="18.3848"/>
<text text-anchor="middle" x="876" y="-907.4" font-family="Times Roman,serif" font-size="14.00">ApplyModel18</text>
</g>
<!-- paired_with16&#45;&gt;ApplyModel18 -->
<g id="edge40" class="edge"><title>paired_with16&#45;&gt;ApplyModel18</title>
<path fill="none" stroke="black" d="M876,-966.327C876,-958.264 876,-948.648 876,-939.711"/>
<polygon fill="black" stroke="black" points="879.5,-939.667 876,-929.667 872.5,-939.667 879.5,-939.667"/>
</g>
<!-- hasAttr_S17\n Classtype = None\n Name = None -->
<g id="node18" class="node"><title>hasAttr_S17\n Classtype = None\n Name = None</title>
<ellipse fill="lightblue" stroke="black" cx="1207" cy="-416" rx="101.823" ry="43.8406"/>
<text text-anchor="middle" x="1207" y="-430.4" font-family="Times Roman,serif" font-size="14.00">hasAttr_S17</text>
<text text-anchor="middle" x="1207" y="-412.4" font-family="Times Roman,serif" font-size="14.00"> Classtype = None</text>
<text text-anchor="middle" x="1207" y="-394.4" font-family="Times Roman,serif" font-size="14.00"> Name = None</text>
</g>
<!-- hasAttr_S17\n Classtype = None\n Name = None&#45;&gt;Attribute26\n Classtype = None\n Name = name -->
<g id="edge44" class="edge"><title>hasAttr_S17\n Classtype = None\n Name = None&#45;&gt;Attribute26\n Classtype = None\n Name = name</title>
<path fill="none" stroke="black" d="M1269.43,-381.129C1296.74,-365.875 1328.94,-347.891 1357.23,-332.087"/>
<polygon fill="black" stroke="black" points="1359.25,-334.971 1366.27,-327.039 1355.83,-328.86 1359.25,-334.971"/>
</g>
<!-- ApplyModel18&#45;&gt;apply_contains14 -->
<g id="edge30" class="edge"><title>ApplyModel18&#45;&gt;apply_contains14</title>
<path fill="none" stroke="black" d="M876,-892.327C876,-884.264 876,-874.648 876,-865.711"/>
<polygon fill="black" stroke="black" points="879.5,-865.667 876,-855.667 872.5,-865.667 879.5,-865.667"/>
</g>
<!-- Station_S19\n Classtype = 1\n Name = s_ -->
<g id="node20" class="node"><title>Station_S19\n Classtype = 1\n Name = s_</title>
<ellipse fill="lightblue" stroke="black" cx="1027" cy="-540" rx="82.2301" ry="43.8406"/>
<text text-anchor="middle" x="1027" y="-554.4" font-family="Times Roman,serif" font-size="14.00">Station_S19</text>
<text text-anchor="middle" x="1027" y="-536.4" font-family="Times Roman,serif" font-size="14.00"> Classtype = 1</text>
<text text-anchor="middle" x="1027" y="-518.4" font-family="Times Roman,serif" font-size="14.00"> Name = s_</text>
</g>
<!-- Station_S19\n Classtype = 1\n Name = s_&#45;&gt;hasAttr_S17\n Classtype = None\n Name = None -->
<g id="edge42" class="edge"><title>Station_S19\n Classtype = 1\n Name = s_&#45;&gt;hasAttr_S17\n Classtype = None\n Name = None</title>
<path fill="none" stroke="black" d="M1077.62,-505.129C1098.36,-490.837 1122.59,-474.15 1144.43,-459.104"/>
<polygon fill="black" stroke="black" points="1146.42,-461.982 1152.67,-453.427 1142.45,-456.218 1146.42,-461.982"/>
</g>
<!-- indirectLink_S33 -->
<g id="node34" class="node"><title>indirectLink_S33</title>
<ellipse fill="lightgreen" stroke="black" cx="753" cy="-416" rx="92.839" ry="18.3848"/>
<text text-anchor="middle" x="753" y="-412.4" font-family="Times Roman,serif" font-size="14.00">indirectLink_S33</text>
</g>
<!-- Station_S19\n Classtype = 1\n Name = s_&#45;&gt;indirectLink_S33 -->
<g id="edge58" class="edge"><title>Station_S19\n Classtype = 1\n Name = s_&#45;&gt;indirectLink_S33</title>
<path fill="none" stroke="black" d="M964.139,-511.552C914.135,-488.922 845.274,-457.759 799.975,-437.259"/>
<polygon fill="black" stroke="black" points="801.235,-433.987 790.682,-433.053 798.349,-440.365 801.235,-433.987"/>
</g>
<!-- trace_link27 -->
<g id="node28" class="node"><title>trace_link27</title>
<ellipse fill="#eedd82" stroke="black" cx="977" cy="-639" rx="72.1249" ry="18.3848"/>
<text text-anchor="middle" x="977" y="-635.4" font-family="Times Roman,serif" font-size="14.00">trace_link27</text>
</g>
<!-- Station_T20\n Classtype = t_\n Name = s_&#45;&gt;trace_link27 -->
<g id="edge56" class="edge"><title>Station_T20\n Classtype = t_\n Name = s_&#45;&gt;trace_link27</title>
<path fill="none" stroke="black" d="M915.918,-698.873C927.809,-687.217 940.52,-674.758 951.25,-664.24"/>
<polygon fill="black" stroke="black" points="953.982,-666.464 958.673,-656.964 949.082,-661.465 953.982,-666.464"/>
</g>
<!-- directLink_T28\n -->
<g id="node29" class="node"><title>directLink_T28\n</title>
<ellipse fill="lightyellow" stroke="black" cx="803" cy="-639" rx="84.1457" ry="18.3848"/>
<text text-anchor="middle" x="803" y="-635.4" font-family="Times Roman,serif" font-size="14.00">directLink_T28</text>
</g>
<!-- Station_T20\n Classtype = t_\n Name = s_&#45;&gt;directLink_T28\n -->
<g id="edge78" class="edge"><title>Station_T20\n Classtype = t_\n Name = s_&#45;&gt;directLink_T28\n</title>
<path fill="none" stroke="black" d="M845.464,-696.589C837.747,-686.122 829.664,-675.16 822.646,-665.643"/>
<polygon fill="black" stroke="black" points="825.293,-663.335 816.541,-657.364 819.659,-667.49 825.293,-663.335"/>
</g>
<!-- Equation21\n Classtype = None\n Name = None -->
<g id="node22" class="node"><title>Equation21\n Classtype = None\n Name = None</title>
<ellipse fill="lightblue" stroke="black" cx="1359" cy="-540" rx="101.823" ry="43.8406"/>
<text text-anchor="middle" x="1359" y="-554.4" font-family="Times Roman,serif" font-size="14.00">Equation21</text>
<text text-anchor="middle" x="1359" y="-536.4" font-family="Times Roman,serif" font-size="14.00"> Classtype = None</text>
<text text-anchor="middle" x="1359" y="-518.4" font-family="Times Roman,serif" font-size="14.00"> Name = None</text>
</g>
<!-- Equation21\n Classtype = None\n Name = None&#45;&gt;leftExpr15\n Classtype = None\n Name = None -->
<g id="edge34" class="edge"><title>Equation21\n Classtype = None\n Name = None&#45;&gt;leftExpr15\n Classtype = None\n Name = None</title>
<path fill="none" stroke="black" d="M1383.29,-496.979C1388.61,-487.553 1394.29,-477.48 1399.78,-467.753"/>
<polygon fill="black" stroke="black" points="1402.89,-469.374 1404.76,-458.945 1396.79,-465.933 1402.89,-469.374"/>
</g>
<!-- rightExpr24\n Classtype = None\n Name = None -->
<g id="node25" class="node"><title>rightExpr24\n Classtype = None\n Name = None</title>
<ellipse fill="lightblue" stroke="black" cx="985" cy="-416" rx="101.823" ry="43.8406"/>
<text text-anchor="middle" x="985" y="-430.4" font-family="Times Roman,serif" font-size="14.00">rightExpr24</text>
<text text-anchor="middle" x="985" y="-412.4" font-family="Times Roman,serif" font-size="14.00"> Classtype = None</text>
<text text-anchor="middle" x="985" y="-394.4" font-family="Times Roman,serif" font-size="14.00"> Name = None</text>
</g>
<!-- Equation21\n Classtype = None\n Name = None&#45;&gt;rightExpr24\n Classtype = None\n Name = None -->
<g id="edge48" class="edge"><title>Equation21\n Classtype = None\n Name = None&#45;&gt;rightExpr24\n Classtype = None\n Name = None</title>
<path fill="none" stroke="black" d="M1273.44,-515.905C1221.73,-500.865 1154.68,-480.516 1096,-460 1087.07,-456.877 1077.79,-453.469 1068.58,-449.977"/>
<polygon fill="black" stroke="black" points="1069.61,-446.623 1059.02,-446.316 1067.11,-453.161 1069.61,-446.623"/>
</g>
<!-- match_contains22 -->
<g id="node23" class="node"><title>match_contains22</title>
<ellipse fill="#f798a1" stroke="black" cx="1077" cy="-985" rx="101.116" ry="18.3848"/>
<text text-anchor="middle" x="1077" y="-981.4" font-family="Times Roman,serif" font-size="14.00">match_contains22</text>
</g>
<!-- match_contains22&#45;&gt;Station_S19\n Classtype = 1\n Name = s_ -->
<g id="edge46" class="edge"><title>match_contains22&#45;&gt;Station_S19\n Classtype = 1\n Name = s_</title>
<path fill="none" stroke="black" d="M1077,-966.309C1077,-938.234 1077,-883.507 1077,-837 1077,-837 1077,-837 1077,-738 1077,-684.88 1071.9,-671.27 1058,-620 1055.57,-611.026 1052.48,-601.672 1049.2,-592.656"/>
<polygon fill="black" stroke="black" points="1052.38,-591.17 1045.58,-583.041 1045.83,-593.633 1052.38,-591.17"/>
</g>
<!-- Constant23\n Classtype = None\n Name = None -->
<g id="node24" class="node"><title>Constant23\n Classtype = None\n Name = None</title>
<ellipse fill="lightblue" stroke="black" cx="990" cy="-292" rx="101.823" ry="43.8406"/>
<text text-anchor="middle" x="990" y="-306.4" font-family="Times Roman,serif" font-size="14.00">Constant23</text>
<text text-anchor="middle" x="990" y="-288.4" font-family="Times Roman,serif" font-size="14.00"> Classtype = None</text>
<text text-anchor="middle" x="990" y="-270.4" font-family="Times Roman,serif" font-size="14.00"> Name = None</text>
</g>
<!-- rightExpr24\n Classtype = None\n Name = None&#45;&gt;Constant23\n Classtype = None\n Name = None -->
<g id="edge52" class="edge"><title>rightExpr24\n Classtype = None\n Name = None&#45;&gt;Constant23\n Classtype = None\n Name = None</title>
<path fill="none" stroke="black" d="M986.777,-371.933C987.108,-363.718 987.458,-355.043 987.8,-346.557"/>
<polygon fill="black" stroke="black" points="991.306,-346.476 988.212,-336.343 984.312,-346.194 991.306,-346.476"/>
</g>
<!-- MatchModel25 -->
<g id="node26" class="node"><title>MatchModel25</title>
<ellipse fill="#e15c34" stroke="black" cx="976" cy="-1059" rx="82.2301" ry="18.3848"/>
<text text-anchor="middle" x="976" y="-1055.4" font-family="Times Roman,serif" font-size="14.00">MatchModel25</text>
</g>
<!-- MatchModel25&#45;&gt;paired_with16 -->
<g id="edge38" class="edge"><title>MatchModel25&#45;&gt;paired_with16</title>
<path fill="none" stroke="black" d="M952.048,-1041.28C938.909,-1031.55 922.442,-1019.37 908.194,-1008.82"/>
<polygon fill="black" stroke="black" points="910.224,-1005.97 900.104,-1002.84 906.06,-1011.6 910.224,-1005.97"/>
</g>
<!-- MatchModel25&#45;&gt;match_contains22 -->
<g id="edge50" class="edge"><title>MatchModel25&#45;&gt;match_contains22</title>
<path fill="none" stroke="black" d="M1000.19,-1041.28C1013.36,-1031.62 1029.85,-1019.55 1044.17,-1009.06"/>
<polygon fill="black" stroke="black" points="1046.31,-1011.83 1052.3,-1003.09 1042.17,-1006.18 1046.31,-1011.83"/>
</g>
<!-- trace_link27&#45;&gt;Station_S19\n Classtype = 1\n Name = s_ -->
<g id="edge54" class="edge"><title>trace_link27&#45;&gt;Station_S19\n Classtype = 1\n Name = s_</title>
<path fill="none" stroke="black" d="M986.405,-620.379C990.562,-612.148 995.677,-602.02 1000.86,-591.763"/>
<polygon fill="black" stroke="black" points="1004.02,-593.263 1005.4,-582.759 997.772,-590.108 1004.02,-593.263"/>
</g>
<!-- directLink_T28\n&#45;&gt;Female_T5\n Classtype = t_\n Name = s_ -->
<g id="edge80" class="edge"><title>directLink_T28\n&#45;&gt;Female_T5\n Classtype = t_\n Name = s_</title>
<path fill="none" stroke="black" d="M768.791,-621.981C743.1,-609.201 707.013,-591.248 675.156,-575.399"/>
<polygon fill="black" stroke="black" points="676.371,-572.095 665.859,-570.774 673.253,-578.362 676.371,-572.095"/>
</g>
<!-- rightExpr29\n Classtype = None\n Name = None -->
<g id="node30" class="node"><title>rightExpr29\n Classtype = None\n Name = None</title>
<ellipse fill="lightblue" stroke="black" cx="1873" cy="-416" rx="101.823" ry="43.8406"/>
<text text-anchor="middle" x="1873" y="-430.4" font-family="Times Roman,serif" font-size="14.00">rightExpr29</text>
<text text-anchor="middle" x="1873" y="-412.4" font-family="Times Roman,serif" font-size="14.00"> Classtype = None</text>
<text text-anchor="middle" x="1873" y="-394.4" font-family="Times Roman,serif" font-size="14.00"> Name = None</text>
</g>
<!-- Constant36\n Classtype = None\n Name = None -->
<g id="node37" class="node"><title>Constant36\n Classtype = None\n Name = None</title>
<ellipse fill="lightblue" stroke="black" cx="1873" cy="-292" rx="101.823" ry="43.8406"/>
<text text-anchor="middle" x="1873" y="-306.4" font-family="Times Roman,serif" font-size="14.00">Constant36</text>
<text text-anchor="middle" x="1873" y="-288.4" font-family="Times Roman,serif" font-size="14.00"> Classtype = None</text>
<text text-anchor="middle" x="1873" y="-270.4" font-family="Times Roman,serif" font-size="14.00"> Name = None</text>
</g>
<!-- rightExpr29\n Classtype = None\n Name = None&#45;&gt;Constant36\n Classtype = None\n Name = None -->
<g id="edge66" class="edge"><title>rightExpr29\n Classtype = None\n Name = None&#45;&gt;Constant36\n Classtype = None\n Name = None</title>
<path fill="none" stroke="black" d="M1873,-371.933C1873,-363.718 1873,-355.043 1873,-346.557"/>
<polygon fill="black" stroke="black" points="1876.5,-346.343 1873,-336.343 1869.5,-346.343 1876.5,-346.343"/>
</g>
<!-- rightExpr30\n Classtype = None\n Name = None -->
<g id="node31" class="node"><title>rightExpr30\n Classtype = None\n Name = None</title>
<ellipse fill="lightblue" stroke="black" cx="990" cy="-168" rx="101.823" ry="43.8406"/>
<text text-anchor="middle" x="990" y="-182.4" font-family="Times Roman,serif" font-size="14.00">rightExpr30</text>
<text text-anchor="middle" x="990" y="-164.4" font-family="Times Roman,serif" font-size="14.00"> Classtype = None</text>
<text text-anchor="middle" x="990" y="-146.4" font-family="Times Roman,serif" font-size="14.00"> Name = None</text>
</g>
<!-- Constant37\n Classtype = None\n Name = None -->
<g id="node38" class="node"><title>Constant37\n Classtype = None\n Name = None</title>
<ellipse fill="lightblue" stroke="black" cx="990" cy="-44" rx="101.823" ry="43.8406"/>
<text text-anchor="middle" x="990" y="-58.4" font-family="Times Roman,serif" font-size="14.00">Constant37</text>
<text text-anchor="middle" x="990" y="-40.4" font-family="Times Roman,serif" font-size="14.00"> Classtype = None</text>
<text text-anchor="middle" x="990" y="-22.4" font-family="Times Roman,serif" font-size="14.00"> Name = None</text>
</g>
<!-- rightExpr30\n Classtype = None\n Name = None&#45;&gt;Constant37\n Classtype = None\n Name = None -->
<g id="edge72" class="edge"><title>rightExpr30\n Classtype = None\n Name = None&#45;&gt;Constant37\n Classtype = None\n Name = None</title>
<path fill="none" stroke="black" d="M990,-123.933C990,-115.718 990,-107.043 990,-98.5568"/>
<polygon fill="black" stroke="black" points="993.5,-98.3428 990,-88.3428 986.5,-98.3428 993.5,-98.3428"/>
</g>
<!-- Equation31\n Classtype = None\n Name = None -->
<g id="node32" class="node"><title>Equation31\n Classtype = None\n Name = None</title>
<ellipse fill="lightblue" stroke="black" cx="1721" cy="-540" rx="101.823" ry="43.8406"/>
<text text-anchor="middle" x="1721" y="-554.4" font-family="Times Roman,serif" font-size="14.00">Equation31</text>
<text text-anchor="middle" x="1721" y="-536.4" font-family="Times Roman,serif" font-size="14.00"> Classtype = None</text>
<text text-anchor="middle" x="1721" y="-518.4" font-family="Times Roman,serif" font-size="14.00"> Name = None</text>
</g>
<!-- Equation31\n Classtype = None\n Name = None&#45;&gt;rightExpr29\n Classtype = None\n Name = None -->
<g id="edge62" class="edge"><title>Equation31\n Classtype = None\n Name = None&#45;&gt;rightExpr29\n Classtype = None\n Name = None</title>
<path fill="none" stroke="black" d="M1769.09,-500.766C1784.35,-488.319 1801.35,-474.451 1817.11,-461.596"/>
<polygon fill="black" stroke="black" points="1819.68,-464.012 1825.22,-454.979 1815.26,-458.588 1819.68,-464.012"/>
</g>
<!-- leftExpr34\n Classtype = None\n Name = None -->
<g id="node35" class="node"><title>leftExpr34\n Classtype = None\n Name = None</title>
<ellipse fill="lightblue" stroke="black" cx="1651" cy="-416" rx="101.823" ry="43.8406"/>
<text text-anchor="middle" x="1651" y="-430.4" font-family="Times Roman,serif" font-size="14.00">leftExpr34</text>
<text text-anchor="middle" x="1651" y="-412.4" font-family="Times Roman,serif" font-size="14.00"> Classtype = None</text>
<text text-anchor="middle" x="1651" y="-394.4" font-family="Times Roman,serif" font-size="14.00"> Name = None</text>
</g>
<!-- Equation31\n Classtype = None\n Name = None&#45;&gt;leftExpr34\n Classtype = None\n Name = None -->
<g id="edge64" class="edge"><title>Equation31\n Classtype = None\n Name = None&#45;&gt;leftExpr34\n Classtype = None\n Name = None</title>
<path fill="none" stroke="black" d="M1696.71,-496.979C1691.39,-487.553 1685.71,-477.48 1680.22,-467.753"/>
<polygon fill="black" stroke="black" points="1683.21,-465.933 1675.24,-458.945 1677.11,-469.374 1683.21,-465.933"/>
</g>
<!-- Equation32\n Classtype = None\n Name = None -->
<g id="node33" class="node"><title>Equation32\n Classtype = None\n Name = None</title>
<ellipse fill="lightblue" stroke="black" cx="768" cy="-292" rx="101.823" ry="43.8406"/>
<text text-anchor="middle" x="768" y="-306.4" font-family="Times Roman,serif" font-size="14.00">Equation32</text>
<text text-anchor="middle" x="768" y="-288.4" font-family="Times Roman,serif" font-size="14.00"> Classtype = None</text>
<text text-anchor="middle" x="768" y="-270.4" font-family="Times Roman,serif" font-size="14.00"> Name = None</text>
</g>
<!-- Equation32\n Classtype = None\n Name = None&#45;&gt;rightExpr30\n Classtype = None\n Name = None -->
<g id="edge68" class="edge"><title>Equation32\n Classtype = None\n Name = None&#45;&gt;rightExpr30\n Classtype = None\n Name = None</title>
<path fill="none" stroke="black" d="M830.43,-257.129C857.741,-241.875 889.937,-223.891 918.231,-208.087"/>
<polygon fill="black" stroke="black" points="920.246,-210.971 927.269,-203.039 916.832,-204.86 920.246,-210.971"/>
</g>
<!-- leftExpr35\n Classtype = None\n Name = None -->
<g id="node36" class="node"><title>leftExpr35\n Classtype = None\n Name = None</title>
<ellipse fill="lightblue" stroke="black" cx="768" cy="-168" rx="101.823" ry="43.8406"/>
<text text-anchor="middle" x="768" y="-182.4" font-family="Times Roman,serif" font-size="14.00">leftExpr35</text>
<text text-anchor="middle" x="768" y="-164.4" font-family="Times Roman,serif" font-size="14.00"> Classtype = None</text>
<text text-anchor="middle" x="768" y="-146.4" font-family="Times Roman,serif" font-size="14.00"> Name = None</text>
</g>
<!-- Equation32\n Classtype = None\n Name = None&#45;&gt;leftExpr35\n Classtype = None\n Name = None -->
<g id="edge70" class="edge"><title>Equation32\n Classtype = None\n Name = None&#45;&gt;leftExpr35\n Classtype = None\n Name = None</title>
<path fill="none" stroke="black" d="M768,-247.933C768,-239.718 768,-231.043 768,-222.557"/>
<polygon fill="black" stroke="black" points="771.5,-222.343 768,-212.343 764.5,-222.343 771.5,-222.343"/>
</g>
<!-- indirectLink_S33&#45;&gt;Female_S6\n Classtype = 1\n Name = s_ -->
<g id="edge60" class="edge"><title>indirectLink_S33&#45;&gt;Female_S6\n Classtype = 1\n Name = s_</title>
<path fill="none" stroke="black" d="M724.775,-398.234C697.116,-380.824 654.033,-353.706 618.32,-331.227"/>
<polygon fill="black" stroke="black" points="619.74,-327.985 609.413,-325.62 616.011,-333.909 619.74,-327.985"/>
</g>
<!-- leftExpr34\n Classtype = None\n Name = None&#45;&gt;Attribute26\n Classtype = None\n Name = name -->
<g id="edge74" class="edge"><title>leftExpr34\n Classtype = None\n Name = None&#45;&gt;Attribute26\n Classtype = None\n Name = name</title>
<path fill="none" stroke="black" d="M1588.57,-381.129C1561.26,-365.875 1529.06,-347.891 1500.77,-332.087"/>
<polygon fill="black" stroke="black" points="1502.17,-328.86 1491.73,-327.039 1498.75,-334.971 1502.17,-328.86"/>
</g>
<!-- leftExpr35\n Classtype = None\n Name = None&#45;&gt;Attribute9\n Classtype = None\n Name = name -->
<g id="edge76" class="edge"><title>leftExpr35\n Classtype = None\n Name = None&#45;&gt;Attribute9\n Classtype = None\n Name = name</title>
<path fill="none" stroke="black" d="M705.57,-133.129C678.259,-117.875 646.063,-99.8909 617.769,-84.0871"/>
<polygon fill="black" stroke="black" points="619.168,-80.8596 608.731,-79.0388 615.754,-86.971 619.168,-80.8596"/>
</g>
</g>
</svg>
