<?xml version="1.0" encoding="UTF-8" standalone="no"?>
<!DOCTYPE svg PUBLIC "-//W3C//DTD SVG 1.1//EN"
 "http://www.w3.org/Graphics/SVG/1.1/DTD/svg11.dtd">
<!-- Generated by graphviz version 2.26.3 (20100126.1600)
 -->
<!-- Title: HEmptyPathCondition_HS2S_HM2M Pages: 1 -->
<svg width="1493pt" height="888pt"
 viewBox="0.00 0.00 1493.00 888.00" xmlns="http://www.w3.org/2000/svg" xmlns:xlink="http://www.w3.org/1999/xlink">
<g id="graph1" class="graph" transform="scale(1 1) rotate(0) translate(4 884)">
<title>HEmptyPathCondition_HS2S_HM2M</title>
<polygon fill="white" stroke="white" points="-4,5 -4,-884 1490,-884 1490,5 -4,5"/>
<!-- apply_contains0 -->
<g id="node1" class="node"><title>apply_contains0</title>
<ellipse fill="#fcdb58" stroke="black" cx="495" cy="-639" rx="90.0096" ry="18.3848"/>
<text text-anchor="middle" x="495" y="-635.4" font-family="Times Roman,serif" font-size="14.00">apply_contains0</text>
</g>
<!-- Station_T7\n Classtype = t_\n Name = s_ -->
<g id="node8" class="node"><title>Station_T7\n Classtype = t_\n Name = s_</title>
<ellipse fill="lightblue" stroke="black" cx="495" cy="-540" rx="85.7684" ry="43.8406"/>
<text text-anchor="middle" x="495" y="-554.4" font-family="Times Roman,serif" font-size="14.00">Station_T7</text>
<text text-anchor="middle" x="495" y="-536.4" font-family="Times Roman,serif" font-size="14.00"> Classtype = t_</text>
<text text-anchor="middle" x="495" y="-518.4" font-family="Times Roman,serif" font-size="14.00"> Name = s_</text>
</g>
<!-- apply_contains0&#45;&gt;Station_T7\n Classtype = t_\n Name = s_ -->
<g id="edge4" class="edge"><title>apply_contains0&#45;&gt;Station_T7\n Classtype = t_\n Name = s_</title>
<path fill="none" stroke="black" d="M495,-620.379C495,-612.81 495,-603.638 495,-594.236"/>
<polygon fill="black" stroke="black" points="498.5,-594.008 495,-584.008 491.5,-594.008 498.5,-594.008"/>
</g>
<!-- hasAttr_T1\n Classtype = None\n Name = None -->
<g id="node2" class="node"><title>hasAttr_T1\n Classtype = None\n Name = None</title>
<ellipse fill="lightblue" stroke="black" cx="389" cy="-416" rx="101.823" ry="43.8406"/>
<text text-anchor="middle" x="389" y="-430.4" font-family="Times Roman,serif" font-size="14.00">hasAttr_T1</text>
<text text-anchor="middle" x="389" y="-412.4" font-family="Times Roman,serif" font-size="14.00"> Classtype = None</text>
<text text-anchor="middle" x="389" y="-394.4" font-family="Times Roman,serif" font-size="14.00"> Name = None</text>
</g>
<!-- Attribute13\n Classtype = None\n Name = name -->
<g id="node14" class="node"><title>Attribute13\n Classtype = None\n Name = name</title>
<ellipse fill="lightblue" stroke="black" cx="273" cy="-292" rx="101.823" ry="43.8406"/>
<text text-anchor="middle" x="273" y="-306.4" font-family="Times Roman,serif" font-size="14.00">Attribute13</text>
<text text-anchor="middle" x="273" y="-288.4" font-family="Times Roman,serif" font-size="14.00"> Classtype = None</text>
<text text-anchor="middle" x="273" y="-270.4" font-family="Times Roman,serif" font-size="14.00"> Name = name</text>
</g>
<!-- hasAttr_T1\n Classtype = None\n Name = None&#45;&gt;Attribute13\n Classtype = None\n Name = name -->
<g id="edge8" class="edge"><title>hasAttr_T1\n Classtype = None\n Name = None&#45;&gt;Attribute13\n Classtype = None\n Name = name</title>
<path fill="none" stroke="black" d="M350.696,-375.054C340.302,-363.943 328.951,-351.809 318.214,-340.332"/>
<polygon fill="black" stroke="black" points="320.652,-337.815 311.264,-332.903 315.54,-342.597 320.652,-337.815"/>
</g>
<!-- leftExpr2\n Classtype = None\n Name = None -->
<g id="node3" class="node"><title>leftExpr2\n Classtype = None\n Name = None</title>
<ellipse fill="lightblue" stroke="black" cx="188" cy="-168" rx="101.823" ry="43.8406"/>
<text text-anchor="middle" x="188" y="-182.4" font-family="Times Roman,serif" font-size="14.00">leftExpr2</text>
<text text-anchor="middle" x="188" y="-164.4" font-family="Times Roman,serif" font-size="14.00"> Classtype = None</text>
<text text-anchor="middle" x="188" y="-146.4" font-family="Times Roman,serif" font-size="14.00"> Name = None</text>
</g>
<!-- Attribute12\n Classtype = None\n Name = name -->
<g id="node13" class="node"><title>Attribute12\n Classtype = None\n Name = name</title>
<ellipse fill="lightblue" stroke="black" cx="467" cy="-44" rx="101.823" ry="43.8406"/>
<text text-anchor="middle" x="467" y="-58.4" font-family="Times Roman,serif" font-size="14.00">Attribute12</text>
<text text-anchor="middle" x="467" y="-40.4" font-family="Times Roman,serif" font-size="14.00"> Classtype = None</text>
<text text-anchor="middle" x="467" y="-22.4" font-family="Times Roman,serif" font-size="14.00"> Name = name</text>
</g>
<!-- leftExpr2\n Classtype = None\n Name = None&#45;&gt;Attribute12\n Classtype = None\n Name = name -->
<g id="edge12" class="edge"><title>leftExpr2\n Classtype = None\n Name = None&#45;&gt;Attribute12\n Classtype = None\n Name = name</title>
<path fill="none" stroke="black" d="M259.125,-136.389C297.918,-119.147 346.083,-97.7407 386.28,-79.8756"/>
<polygon fill="black" stroke="black" points="387.803,-83.0287 395.52,-75.7689 384.96,-76.632 387.803,-83.0287"/>
</g>
<!-- paired_with3 -->
<g id="node4" class="node"><title>paired_with3</title>
<ellipse fill="lightgray" stroke="black" cx="516" cy="-787" rx="75.1594" ry="18.3848"/>
<text text-anchor="middle" x="516" y="-783.4" font-family="Times Roman,serif" font-size="14.00">paired_with3</text>
</g>
<!-- ApplyModel5 -->
<g id="node6" class="node"><title>ApplyModel5</title>
<ellipse fill="#fed017" stroke="black" cx="495" cy="-713" rx="73.0388" ry="18.3848"/>
<text text-anchor="middle" x="495" y="-709.4" font-family="Times Roman,serif" font-size="14.00">ApplyModel5</text>
</g>
<!-- paired_with3&#45;&gt;ApplyModel5 -->
<g id="edge16" class="edge"><title>paired_with3&#45;&gt;ApplyModel5</title>
<path fill="none" stroke="black" d="M510.701,-768.327C508.388,-760.176 505.624,-750.438 503.065,-741.42"/>
<polygon fill="black" stroke="black" points="506.395,-740.332 500.297,-731.667 499.661,-742.243 506.395,-740.332"/>
</g>
<!-- hasAttr_S4\n Classtype = None\n Name = None -->
<g id="node5" class="node"><title>hasAttr_S4\n Classtype = None\n Name = None</title>
<ellipse fill="lightblue" stroke="black" cx="560" cy="-168" rx="101.823" ry="43.8406"/>
<text text-anchor="middle" x="560" y="-182.4" font-family="Times Roman,serif" font-size="14.00">hasAttr_S4</text>
<text text-anchor="middle" x="560" y="-164.4" font-family="Times Roman,serif" font-size="14.00"> Classtype = None</text>
<text text-anchor="middle" x="560" y="-146.4" font-family="Times Roman,serif" font-size="14.00"> Name = None</text>
</g>
<!-- hasAttr_S4\n Classtype = None\n Name = None&#45;&gt;Attribute12\n Classtype = None\n Name = name -->
<g id="edge20" class="edge"><title>hasAttr_S4\n Classtype = None\n Name = None&#45;&gt;Attribute12\n Classtype = None\n Name = name</title>
<path fill="none" stroke="black" d="M528.514,-126.019C520.788,-115.717 512.442,-104.589 504.465,-93.9532"/>
<polygon fill="black" stroke="black" points="507.253,-91.8375 498.453,-85.9375 501.653,-96.0375 507.253,-91.8375"/>
</g>
<!-- ApplyModel5&#45;&gt;apply_contains0 -->
<g id="edge2" class="edge"><title>ApplyModel5&#45;&gt;apply_contains0</title>
<path fill="none" stroke="black" d="M495,-694.327C495,-686.264 495,-676.648 495,-667.711"/>
<polygon fill="black" stroke="black" points="498.5,-667.667 495,-657.667 491.5,-667.667 498.5,-667.667"/>
</g>
<!-- Station_S6\n Classtype = 1\n Name = s_ -->
<g id="node7" class="node"><title>Station_S6\n Classtype = 1\n Name = s_</title>
<ellipse fill="lightblue" stroke="black" cx="581" cy="-292" rx="82.2301" ry="43.8406"/>
<text text-anchor="middle" x="581" y="-306.4" font-family="Times Roman,serif" font-size="14.00">Station_S6</text>
<text text-anchor="middle" x="581" y="-288.4" font-family="Times Roman,serif" font-size="14.00"> Classtype = 1</text>
<text text-anchor="middle" x="581" y="-270.4" font-family="Times Roman,serif" font-size="14.00"> Name = s_</text>
</g>
<!-- Station_S6\n Classtype = 1\n Name = s_&#45;&gt;hasAttr_S4\n Classtype = None\n Name = None -->
<g id="edge18" class="edge"><title>Station_S6\n Classtype = 1\n Name = s_&#45;&gt;hasAttr_S4\n Classtype = None\n Name = None</title>
<path fill="none" stroke="black" d="M573.537,-247.933C572.114,-239.527 570.609,-230.641 569.14,-221.967"/>
<polygon fill="black" stroke="black" points="572.56,-221.2 567.439,-211.925 565.658,-222.369 572.56,-221.2"/>
</g>
<!-- Station_T7\n Classtype = t_\n Name = s_&#45;&gt;hasAttr_T1\n Classtype = None\n Name = None -->
<g id="edge6" class="edge"><title>Station_T7\n Classtype = t_\n Name = s_&#45;&gt;hasAttr_T1\n Classtype = None\n Name = None</title>
<path fill="none" stroke="black" d="M460.292,-499.398C450.971,-488.494 440.789,-476.584 431.114,-465.265"/>
<polygon fill="black" stroke="black" points="433.671,-462.87 424.513,-457.543 428.35,-467.419 433.671,-462.87"/>
</g>
<!-- trace_link14 -->
<g id="node15" class="node"><title>trace_link14</title>
<ellipse fill="#eedd82" stroke="black" cx="581" cy="-416" rx="72.1249" ry="18.3848"/>
<text text-anchor="middle" x="581" y="-412.4" font-family="Times Roman,serif" font-size="14.00">trace_link14</text>
</g>
<!-- Station_T7\n Classtype = t_\n Name = s_&#45;&gt;trace_link14 -->
<g id="edge32" class="edge"><title>Station_T7\n Classtype = t_\n Name = s_&#45;&gt;trace_link14</title>
<path fill="none" stroke="black" d="M523.876,-498.365C536.557,-480.081 551.082,-459.138 562.311,-442.946"/>
<polygon fill="black" stroke="black" points="565.356,-444.698 568.179,-434.487 559.604,-440.709 565.356,-444.698"/>
</g>
<!-- Equation8\n Classtype = None\n Name = None -->
<g id="node9" class="node"><title>Equation8\n Classtype = None\n Name = None</title>
<ellipse fill="lightblue" stroke="black" cx="102" cy="-540" rx="101.823" ry="43.8406"/>
<text text-anchor="middle" x="102" y="-554.4" font-family="Times Roman,serif" font-size="14.00">Equation8</text>
<text text-anchor="middle" x="102" y="-536.4" font-family="Times Roman,serif" font-size="14.00"> Classtype = None</text>
<text text-anchor="middle" x="102" y="-518.4" font-family="Times Roman,serif" font-size="14.00"> Name = None</text>
</g>
<!-- Equation8\n Classtype = None\n Name = None&#45;&gt;leftExpr2\n Classtype = None\n Name = None -->
<g id="edge10" class="edge"><title>Equation8\n Classtype = None\n Name = None&#45;&gt;leftExpr2\n Classtype = None\n Name = None</title>
<path fill="none" stroke="black" d="M72.3092,-497.796C65.6177,-486.085 59.4717,-473.002 56,-460 45.9106,-422.213 44.9229,-409.51 56,-372 73.2332,-313.645 112.952,-256.286 144.347,-217.327"/>
<polygon fill="black" stroke="black" points="147.29,-219.257 150.908,-209.299 141.87,-214.827 147.29,-219.257"/>
</g>
<!-- rightExpr10\n Classtype = None\n Name = None -->
<g id="node11" class="node"><title>rightExpr10\n Classtype = None\n Name = None</title>
<ellipse fill="lightblue" stroke="black" cx="167" cy="-416" rx="101.823" ry="43.8406"/>
<text text-anchor="middle" x="167" y="-430.4" font-family="Times Roman,serif" font-size="14.00">rightExpr10</text>
<text text-anchor="middle" x="167" y="-412.4" font-family="Times Roman,serif" font-size="14.00"> Classtype = None</text>
<text text-anchor="middle" x="167" y="-394.4" font-family="Times Roman,serif" font-size="14.00"> Name = None</text>
</g>
<!-- Equation8\n Classtype = None\n Name = None&#45;&gt;rightExpr10\n Classtype = None\n Name = None -->
<g id="edge24" class="edge"><title>Equation8\n Classtype = None\n Name = None&#45;&gt;rightExpr10\n Classtype = None\n Name = None</title>
<path fill="none" stroke="black" d="M124.551,-496.979C129.442,-487.649 134.665,-477.685 139.716,-468.05"/>
<polygon fill="black" stroke="black" points="142.946,-469.427 144.488,-458.945 136.746,-466.177 142.946,-469.427"/>
</g>
<!-- match_contains9 -->
<g id="node10" class="node"><title>match_contains9</title>
<ellipse fill="#f798a1" stroke="black" cx="681" cy="-713" rx="94.7523" ry="18.3848"/>
<text text-anchor="middle" x="681" y="-709.4" font-family="Times Roman,serif" font-size="14.00">match_contains9</text>
</g>
<!-- match_contains9&#45;&gt;Station_S6\n Classtype = 1\n Name = s_ -->
<g id="edge22" class="edge"><title>match_contains9&#45;&gt;Station_S6\n Classtype = 1\n Name = s_</title>
<path fill="none" stroke="black" d="M684.465,-694.162C693.369,-640.764 712.942,-484.968 662,-372 655.927,-358.532 646.494,-346.108 636.182,-335.267"/>
<polygon fill="black" stroke="black" points="638.479,-332.615 628.932,-328.021 633.531,-337.566 638.479,-332.615"/>
</g>
<!-- rightExpr10\n Classtype = None\n Name = None&#45;&gt;Attribute13\n Classtype = None\n Name = name -->
<g id="edge28" class="edge"><title>rightExpr10\n Classtype = None\n Name = None&#45;&gt;Attribute13\n Classtype = None\n Name = name</title>
<path fill="none" stroke="black" d="M202.296,-374.71C211.407,-364.052 221.307,-352.471 230.734,-341.444"/>
<polygon fill="black" stroke="black" points="233.659,-343.408 237.496,-333.533 228.338,-338.86 233.659,-343.408"/>
</g>
<!-- MatchModel11 -->
<g id="node12" class="node"><title>MatchModel11</title>
<ellipse fill="#e15c34" stroke="black" cx="578" cy="-861" rx="82.2301" ry="18.3848"/>
<text text-anchor="middle" x="578" y="-857.4" font-family="Times Roman,serif" font-size="14.00">MatchModel11</text>
</g>
<!-- MatchModel11&#45;&gt;paired_with3 -->
<g id="edge14" class="edge"><title>MatchModel11&#45;&gt;paired_with3</title>
<path fill="none" stroke="black" d="M562.674,-842.708C555.222,-833.814 546.13,-822.962 537.957,-813.207"/>
<polygon fill="black" stroke="black" points="540.469,-810.756 531.364,-805.338 535.104,-815.251 540.469,-810.756"/>
</g>
<!-- MatchModel11&#45;&gt;match_contains9 -->
<g id="edge26" class="edge"><title>MatchModel11&#45;&gt;match_contains9</title>
<path fill="none" stroke="black" d="M590.837,-842.555C608.801,-816.742 641.556,-769.677 662.251,-739.94"/>
<polygon fill="black" stroke="black" points="665.162,-741.885 668.001,-731.678 659.416,-737.886 665.162,-741.885"/>
</g>
<!-- trace_link14&#45;&gt;Station_S6\n Classtype = 1\n Name = s_ -->
<g id="edge30" class="edge"><title>trace_link14&#45;&gt;Station_S6\n Classtype = 1\n Name = s_</title>
<path fill="none" stroke="black" d="M581,-397.436C581,-383.812 581,-364.564 581,-346.235"/>
<polygon fill="black" stroke="black" points="584.5,-346.189 581,-336.189 577.5,-346.189 584.5,-346.189"/>
</g>
<!-- apply_contains15 -->
<g id="node16" class="node"><title>apply_contains15</title>
<ellipse fill="#fcdb58" stroke="black" cx="1185" cy="-639" rx="96.8736" ry="18.3848"/>
<text text-anchor="middle" x="1185" y="-635.4" font-family="Times Roman,serif" font-size="14.00">apply_contains15</text>
</g>
<!-- Male_T23\n Classtype = t_\n Name = s_ -->
<g id="node24" class="node"><title>Male_T23\n Classtype = t_\n Name = s_</title>
<ellipse fill="lightblue" stroke="black" cx="1185" cy="-540" rx="85.7684" ry="43.8406"/>
<text text-anchor="middle" x="1185" y="-554.4" font-family="Times Roman,serif" font-size="14.00">Male_T23</text>
<text text-anchor="middle" x="1185" y="-536.4" font-family="Times Roman,serif" font-size="14.00"> Classtype = t_</text>
<text text-anchor="middle" x="1185" y="-518.4" font-family="Times Roman,serif" font-size="14.00"> Name = s_</text>
</g>
<!-- apply_contains15&#45;&gt;Male_T23\n Classtype = t_\n Name = s_ -->
<g id="edge36" class="edge"><title>apply_contains15&#45;&gt;Male_T23\n Classtype = t_\n Name = s_</title>
<path fill="none" stroke="black" d="M1185,-620.379C1185,-612.81 1185,-603.638 1185,-594.236"/>
<polygon fill="black" stroke="black" points="1188.5,-594.008 1185,-584.008 1181.5,-594.008 1188.5,-594.008"/>
</g>
<!-- hasAttr_T16\n Classtype = None\n Name = None -->
<g id="node17" class="node"><title>hasAttr_T16\n Classtype = None\n Name = None</title>
<ellipse fill="lightblue" stroke="black" cx="1092" cy="-416" rx="101.823" ry="43.8406"/>
<text text-anchor="middle" x="1092" y="-430.4" font-family="Times Roman,serif" font-size="14.00">hasAttr_T16</text>
<text text-anchor="middle" x="1092" y="-412.4" font-family="Times Roman,serif" font-size="14.00"> Classtype = None</text>
<text text-anchor="middle" x="1092" y="-394.4" font-family="Times Roman,serif" font-size="14.00"> Name = None</text>
</g>
<!-- Attribute28\n Classtype = None\n Name = name -->
<g id="node29" class="node"><title>Attribute28\n Classtype = None\n Name = name</title>
<ellipse fill="lightblue" stroke="black" cx="976" cy="-292" rx="101.823" ry="43.8406"/>
<text text-anchor="middle" x="976" y="-306.4" font-family="Times Roman,serif" font-size="14.00">Attribute28</text>
<text text-anchor="middle" x="976" y="-288.4" font-family="Times Roman,serif" font-size="14.00"> Classtype = None</text>
<text text-anchor="middle" x="976" y="-270.4" font-family="Times Roman,serif" font-size="14.00"> Name = name</text>
</g>
<!-- hasAttr_T16\n Classtype = None\n Name = None&#45;&gt;Attribute28\n Classtype = None\n Name = name -->
<g id="edge40" class="edge"><title>hasAttr_T16\n Classtype = None\n Name = None&#45;&gt;Attribute28\n Classtype = None\n Name = name</title>
<path fill="none" stroke="black" d="M1053.7,-375.054C1043.3,-363.943 1031.95,-351.809 1021.21,-340.332"/>
<polygon fill="black" stroke="black" points="1023.65,-337.815 1014.26,-332.903 1018.54,-342.597 1023.65,-337.815"/>
</g>
<!-- leftExpr17\n Classtype = None\n Name = None -->
<g id="node18" class="node"><title>leftExpr17\n Classtype = None\n Name = None</title>
<ellipse fill="lightblue" stroke="black" cx="782" cy="-168" rx="101.823" ry="43.8406"/>
<text text-anchor="middle" x="782" y="-182.4" font-family="Times Roman,serif" font-size="14.00">leftExpr17</text>
<text text-anchor="middle" x="782" y="-164.4" font-family="Times Roman,serif" font-size="14.00"> Classtype = None</text>
<text text-anchor="middle" x="782" y="-146.4" font-family="Times Roman,serif" font-size="14.00"> Name = None</text>
</g>
<!-- Attribute27\n Classtype = None\n Name = name -->
<g id="node28" class="node"><title>Attribute27\n Classtype = None\n Name = name</title>
<ellipse fill="lightblue" stroke="black" cx="875" cy="-44" rx="101.823" ry="43.8406"/>
<text text-anchor="middle" x="875" y="-58.4" font-family="Times Roman,serif" font-size="14.00">Attribute27</text>
<text text-anchor="middle" x="875" y="-40.4" font-family="Times Roman,serif" font-size="14.00"> Classtype = None</text>
<text text-anchor="middle" x="875" y="-22.4" font-family="Times Roman,serif" font-size="14.00"> Name = name</text>
</g>
<!-- leftExpr17\n Classtype = None\n Name = None&#45;&gt;Attribute27\n Classtype = None\n Name = name -->
<g id="edge44" class="edge"><title>leftExpr17\n Classtype = None\n Name = None&#45;&gt;Attribute27\n Classtype = None\n Name = name</title>
<path fill="none" stroke="black" d="M813.486,-126.019C821.212,-115.717 829.558,-104.589 837.535,-93.9532"/>
<polygon fill="black" stroke="black" points="840.347,-96.0375 843.547,-85.9375 834.747,-91.8375 840.347,-96.0375"/>
</g>
<!-- paired_with18 -->
<g id="node19" class="node"><title>paired_with18</title>
<ellipse fill="lightgray" stroke="black" cx="1207" cy="-787" rx="82.0244" ry="18.3848"/>
<text text-anchor="middle" x="1207" y="-783.4" font-family="Times Roman,serif" font-size="14.00">paired_with18</text>
</g>
<!-- ApplyModel20 -->
<g id="node21" class="node"><title>ApplyModel20</title>
<ellipse fill="#fed017" stroke="black" cx="1185" cy="-713" rx="79.9031" ry="18.3848"/>
<text text-anchor="middle" x="1185" y="-709.4" font-family="Times Roman,serif" font-size="14.00">ApplyModel20</text>
</g>
<!-- paired_with18&#45;&gt;ApplyModel20 -->
<g id="edge48" class="edge"><title>paired_with18&#45;&gt;ApplyModel20</title>
<path fill="none" stroke="black" d="M1201.45,-768.327C1199.03,-760.176 1196.13,-750.438 1193.45,-741.42"/>
<polygon fill="black" stroke="black" points="1196.75,-740.255 1190.55,-731.667 1190.04,-742.25 1196.75,-740.255"/>
</g>
<!-- hasAttr_S19\n Classtype = None\n Name = None -->
<g id="node20" class="node"><title>hasAttr_S19\n Classtype = None\n Name = None</title>
<ellipse fill="lightblue" stroke="black" cx="1144" cy="-168" rx="101.823" ry="43.8406"/>
<text text-anchor="middle" x="1144" y="-182.4" font-family="Times Roman,serif" font-size="14.00">hasAttr_S19</text>
<text text-anchor="middle" x="1144" y="-164.4" font-family="Times Roman,serif" font-size="14.00"> Classtype = None</text>
<text text-anchor="middle" x="1144" y="-146.4" font-family="Times Roman,serif" font-size="14.00"> Name = None</text>
</g>
<!-- hasAttr_S19\n Classtype = None\n Name = None&#45;&gt;Attribute27\n Classtype = None\n Name = name -->
<g id="edge52" class="edge"><title>hasAttr_S19\n Classtype = None\n Name = None&#45;&gt;Attribute27\n Classtype = None\n Name = name</title>
<path fill="none" stroke="black" d="M1074.03,-135.744C1037.43,-118.875 992.484,-98.1563 954.569,-80.6788"/>
<polygon fill="black" stroke="black" points="955.638,-77.3173 945.091,-76.3095 952.707,-83.6744 955.638,-77.3173"/>
</g>
<!-- ApplyModel20&#45;&gt;apply_contains15 -->
<g id="edge34" class="edge"><title>ApplyModel20&#45;&gt;apply_contains15</title>
<path fill="none" stroke="black" d="M1185,-694.327C1185,-686.264 1185,-676.648 1185,-667.711"/>
<polygon fill="black" stroke="black" points="1188.5,-667.667 1185,-657.667 1181.5,-667.667 1188.5,-667.667"/>
</g>
<!-- Equation21\n Classtype = None\n Name = None -->
<g id="node22" class="node"><title>Equation21\n Classtype = None\n Name = None</title>
<ellipse fill="lightblue" stroke="black" cx="841" cy="-540" rx="101.823" ry="43.8406"/>
<text text-anchor="middle" x="841" y="-554.4" font-family="Times Roman,serif" font-size="14.00">Equation21</text>
<text text-anchor="middle" x="841" y="-536.4" font-family="Times Roman,serif" font-size="14.00"> Classtype = None</text>
<text text-anchor="middle" x="841" y="-518.4" font-family="Times Roman,serif" font-size="14.00"> Name = None</text>
</g>
<!-- Equation21\n Classtype = None\n Name = None&#45;&gt;leftExpr17\n Classtype = None\n Name = None -->
<g id="edge42" class="edge"><title>Equation21\n Classtype = None\n Name = None&#45;&gt;leftExpr17\n Classtype = None\n Name = None</title>
<path fill="none" stroke="black" d="M789.333,-501.871C777.077,-489.962 765.643,-475.762 759,-460 726.074,-381.876 745.788,-281.665 763.544,-221.269"/>
<polygon fill="black" stroke="black" points="766.935,-222.148 766.482,-211.563 760.235,-220.12 766.935,-222.148"/>
</g>
<!-- rightExpr24\n Classtype = None\n Name = None -->
<g id="node25" class="node"><title>rightExpr24\n Classtype = None\n Name = None</title>
<ellipse fill="lightblue" stroke="black" cx="870" cy="-416" rx="101.823" ry="43.8406"/>
<text text-anchor="middle" x="870" y="-430.4" font-family="Times Roman,serif" font-size="14.00">rightExpr24</text>
<text text-anchor="middle" x="870" y="-412.4" font-family="Times Roman,serif" font-size="14.00"> Classtype = None</text>
<text text-anchor="middle" x="870" y="-394.4" font-family="Times Roman,serif" font-size="14.00"> Name = None</text>
</g>
<!-- Equation21\n Classtype = None\n Name = None&#45;&gt;rightExpr24\n Classtype = None\n Name = None -->
<g id="edge54" class="edge"><title>Equation21\n Classtype = None\n Name = None&#45;&gt;rightExpr24\n Classtype = None\n Name = None</title>
<path fill="none" stroke="black" d="M851.306,-495.933C853.293,-487.436 855.395,-478.447 857.445,-469.685"/>
<polygon fill="black" stroke="black" points="860.858,-470.459 859.727,-459.925 854.042,-468.865 860.858,-470.459"/>
</g>
<!-- match_contains22 -->
<g id="node23" class="node"><title>match_contains22</title>
<ellipse fill="#f798a1" stroke="black" cx="1384" cy="-713" rx="101.116" ry="18.3848"/>
<text text-anchor="middle" x="1384" y="-709.4" font-family="Times Roman,serif" font-size="14.00">match_contains22</text>
</g>
<!-- Male_S26\n Classtype = 1\n Name = s_ -->
<g id="node27" class="node"><title>Male_S26\n Classtype = 1\n Name = s_</title>
<ellipse fill="lightblue" stroke="black" cx="1284" cy="-292" rx="82.2301" ry="43.8406"/>
<text text-anchor="middle" x="1284" y="-306.4" font-family="Times Roman,serif" font-size="14.00">Male_S26</text>
<text text-anchor="middle" x="1284" y="-288.4" font-family="Times Roman,serif" font-size="14.00"> Classtype = 1</text>
<text text-anchor="middle" x="1284" y="-270.4" font-family="Times Roman,serif" font-size="14.00"> Name = s_</text>
</g>
<!-- match_contains22&#45;&gt;Male_S26\n Classtype = 1\n Name = s_ -->
<g id="edge58" class="edge"><title>match_contains22&#45;&gt;Male_S26\n Classtype = 1\n Name = s_</title>
<path fill="none" stroke="black" d="M1387.47,-694.162C1396.37,-640.764 1415.94,-484.968 1365,-372 1358.93,-358.532 1349.49,-346.108 1339.18,-335.267"/>
<polygon fill="black" stroke="black" points="1341.48,-332.615 1331.93,-328.021 1336.53,-337.566 1341.48,-332.615"/>
</g>
<!-- Male_T23\n Classtype = t_\n Name = s_&#45;&gt;hasAttr_T16\n Classtype = None\n Name = None -->
<g id="edge38" class="edge"><title>Male_T23\n Classtype = t_\n Name = s_&#45;&gt;hasAttr_T16\n Classtype = None\n Name = None</title>
<path fill="none" stroke="black" d="M1154.03,-498.71C1146.2,-488.267 1137.7,-476.94 1129.59,-466.114"/>
<polygon fill="black" stroke="black" points="1132.27,-463.856 1123.47,-457.956 1126.67,-468.056 1132.27,-463.856"/>
</g>
<!-- trace_link29 -->
<g id="node30" class="node"><title>trace_link29</title>
<ellipse fill="#eedd82" stroke="black" cx="1284" cy="-416" rx="72.1249" ry="18.3848"/>
<text text-anchor="middle" x="1284" y="-412.4" font-family="Times Roman,serif" font-size="14.00">trace_link29</text>
</g>
<!-- Male_T23\n Classtype = t_\n Name = s_&#45;&gt;trace_link29 -->
<g id="edge64" class="edge"><title>Male_T23\n Classtype = t_\n Name = s_&#45;&gt;trace_link29</title>
<path fill="none" stroke="black" d="M1217.69,-499.054C1232.56,-480.432 1249.72,-458.934 1262.86,-442.476"/>
<polygon fill="black" stroke="black" points="1265.83,-444.369 1269.33,-434.371 1260.36,-440.002 1265.83,-444.369"/>
</g>
<!-- rightExpr24\n Classtype = None\n Name = None&#45;&gt;Attribute28\n Classtype = None\n Name = name -->
<g id="edge60" class="edge"><title>rightExpr24\n Classtype = None\n Name = None&#45;&gt;Attribute28\n Classtype = None\n Name = name</title>
<path fill="none" stroke="black" d="M905.296,-374.71C914.407,-364.052 924.307,-352.471 933.734,-341.444"/>
<polygon fill="black" stroke="black" points="936.659,-343.408 940.496,-333.533 931.338,-338.86 936.659,-343.408"/>
</g>
<!-- MatchModel25 -->
<g id="node26" class="node"><title>MatchModel25</title>
<ellipse fill="#e15c34" stroke="black" cx="1284" cy="-861" rx="82.2301" ry="18.3848"/>
<text text-anchor="middle" x="1284" y="-857.4" font-family="Times Roman,serif" font-size="14.00">MatchModel25</text>
</g>
<!-- MatchModel25&#45;&gt;paired_with18 -->
<g id="edge46" class="edge"><title>MatchModel25&#45;&gt;paired_with18</title>
<path fill="none" stroke="black" d="M1264.97,-842.708C1255.36,-833.478 1243.56,-822.14 1233.13,-812.107"/>
<polygon fill="black" stroke="black" points="1235.45,-809.487 1225.81,-805.082 1230.6,-814.535 1235.45,-809.487"/>
</g>
<!-- MatchModel25&#45;&gt;match_contains22 -->
<g id="edge56" class="edge"><title>MatchModel25&#45;&gt;match_contains22</title>
<path fill="none" stroke="black" d="M1296.46,-842.555C1313.83,-816.853 1345.43,-770.08 1365.54,-740.324"/>
<polygon fill="black" stroke="black" points="1368.68,-741.923 1371.38,-731.678 1362.88,-738.004 1368.68,-741.923"/>
</g>
<!-- Male_S26\n Classtype = 1\n Name = s_&#45;&gt;hasAttr_S19\n Classtype = None\n Name = None -->
<g id="edge50" class="edge"><title>Male_S26\n Classtype = 1\n Name = s_&#45;&gt;hasAttr_S19\n Classtype = None\n Name = None</title>
<path fill="none" stroke="black" d="M1241.23,-254.122C1227.13,-241.628 1211.27,-227.586 1196.53,-214.523"/>
<polygon fill="black" stroke="black" points="1198.74,-211.804 1188.93,-207.794 1194.09,-217.045 1198.74,-211.804"/>
</g>
<!-- trace_link29&#45;&gt;Male_S26\n Classtype = 1\n Name = s_ -->
<g id="edge62" class="edge"><title>trace_link29&#45;&gt;Male_S26\n Classtype = 1\n Name = s_</title>
<path fill="none" stroke="black" d="M1284,-397.436C1284,-383.812 1284,-364.564 1284,-346.235"/>
<polygon fill="black" stroke="black" points="1287.5,-346.189 1284,-336.189 1280.5,-346.189 1287.5,-346.189"/>
</g>
</g>
</svg>
