<?xml version="1.0" encoding="UTF-8" standalone="no"?>
<!DOCTYPE svg PUBLIC "-//W3C//DTD SVG 1.1//EN"
 "http://www.w3.org/Graphics/SVG/1.1/DTD/svg11.dtd">
<!-- Generated by graphviz version 2.26.3 (20100126.1600)
 -->
<!-- Title: HEmptyPathCondition_HS2S_run1_HM2M_run1_HF2F_run1 Pages: 1 -->
<svg width="1207pt" height="590pt"
 viewBox="0.00 0.00 1207.00 590.00" xmlns="http://www.w3.org/2000/svg" xmlns:xlink="http://www.w3.org/1999/xlink">
<g id="graph1" class="graph" transform="scale(1 1) rotate(0) translate(4 586)">
<title>HEmptyPathCondition_HS2S_run1_HM2M_run1_HF2F_run1</title>
<polygon fill="white" stroke="white" points="-4,5 -4,-586 1204,-586 1204,5 -4,5"/>
<!-- apply_contains0 -->
<g id="node1" class="node"><title>apply_contains0</title>
<ellipse fill="#fcdb58" stroke="black" cx="260" cy="-341" rx="90.0096" ry="18.3848"/>
<text text-anchor="middle" x="260" y="-337.4" font-family="Times Roman,serif" font-size="14.00">apply_contains0</text>
</g>
<!-- Station_T4\n Classtype = station1\n Name = 1.s -->
<g id="node5" class="node"><title>Station_T4\n Classtype = station1\n Name = 1.s</title>
<ellipse fill="lightblue" stroke="black" cx="255" cy="-242" rx="116.172" ry="43.8406"/>
<text text-anchor="middle" x="255" y="-256.4" font-family="Times Roman,serif" font-size="14.00">Station_T4</text>
<text text-anchor="middle" x="255" y="-238.4" font-family="Times Roman,serif" font-size="14.00"> Classtype = station1</text>
<text text-anchor="middle" x="255" y="-220.4" font-family="Times Roman,serif" font-size="14.00"> Name = 1.s</text>
</g>
<!-- apply_contains0&#45;&gt;Station_T4\n Classtype = station1\n Name = 1.s -->
<g id="edge4" class="edge"><title>apply_contains0&#45;&gt;Station_T4\n Classtype = station1\n Name = 1.s</title>
<path fill="none" stroke="black" d="M259.06,-322.379C258.677,-314.81 258.214,-305.638 257.739,-296.236"/>
<polygon fill="black" stroke="black" points="261.223,-295.819 257.223,-286.008 254.232,-296.172 261.223,-295.819"/>
</g>
<!-- ApplyModel1 -->
<g id="node2" class="node"><title>ApplyModel1</title>
<ellipse fill="#fed017" stroke="black" cx="281" cy="-415" rx="73.0388" ry="18.3848"/>
<text text-anchor="middle" x="281" y="-411.4" font-family="Times Roman,serif" font-size="14.00">ApplyModel1</text>
</g>
<!-- ApplyModel1&#45;&gt;apply_contains0 -->
<g id="edge2" class="edge"><title>ApplyModel1&#45;&gt;apply_contains0</title>
<path fill="none" stroke="black" d="M275.701,-396.327C273.388,-388.176 270.624,-378.438 268.065,-369.42"/>
<polygon fill="black" stroke="black" points="271.395,-368.332 265.297,-359.667 264.661,-370.243 271.395,-368.332"/>
</g>
<!-- MatchModel2 -->
<g id="node3" class="node"><title>MatchModel2</title>
<ellipse fill="#e15c34" stroke="black" cx="178" cy="-563" rx="75.8684" ry="18.3848"/>
<text text-anchor="middle" x="178" y="-559.4" font-family="Times Roman,serif" font-size="14.00">MatchModel2</text>
</g>
<!-- match_contains3 -->
<g id="node4" class="node"><title>match_contains3</title>
<ellipse fill="#f798a1" stroke="black" cx="95" cy="-415" rx="94.7523" ry="18.3848"/>
<text text-anchor="middle" x="95" y="-411.4" font-family="Times Roman,serif" font-size="14.00">match_contains3</text>
</g>
<!-- MatchModel2&#45;&gt;match_contains3 -->
<g id="edge10" class="edge"><title>MatchModel2&#45;&gt;match_contains3</title>
<path fill="none" stroke="black" d="M167.656,-544.555C153.304,-518.964 127.237,-472.483 110.54,-442.71"/>
<polygon fill="black" stroke="black" points="113.419,-440.688 105.475,-433.678 107.313,-444.112 113.419,-440.688"/>
</g>
<!-- paired_with6 -->
<g id="node7" class="node"><title>paired_with6</title>
<ellipse fill="lightgray" stroke="black" cx="240" cy="-489" rx="75.1594" ry="18.3848"/>
<text text-anchor="middle" x="240" y="-485.4" font-family="Times Roman,serif" font-size="14.00">paired_with6</text>
</g>
<!-- MatchModel2&#45;&gt;paired_with6 -->
<g id="edge8" class="edge"><title>MatchModel2&#45;&gt;paired_with6</title>
<path fill="none" stroke="black" d="M193.326,-544.708C200.778,-535.814 209.87,-524.962 218.043,-515.207"/>
<polygon fill="black" stroke="black" points="220.896,-517.251 224.636,-507.338 215.531,-512.756 220.896,-517.251"/>
</g>
<!-- Station_S5\n Classtype = station1\n Name = 1.s -->
<g id="node6" class="node"><title>Station_S5\n Classtype = station1\n Name = 1.s</title>
<ellipse fill="lightblue" stroke="black" cx="138" cy="-44" rx="116.172" ry="43.8406"/>
<text text-anchor="middle" x="138" y="-58.4" font-family="Times Roman,serif" font-size="14.00">Station_S5</text>
<text text-anchor="middle" x="138" y="-40.4" font-family="Times Roman,serif" font-size="14.00"> Classtype = station1</text>
<text text-anchor="middle" x="138" y="-22.4" font-family="Times Roman,serif" font-size="14.00"> Name = 1.s</text>
</g>
<!-- match_contains3&#45;&gt;Station_S5\n Classtype = station1\n Name = 1.s -->
<g id="edge12" class="edge"><title>match_contains3&#45;&gt;Station_S5\n Classtype = station1\n Name = 1.s</title>
<path fill="none" stroke="black" d="M97.1618,-396.348C103.448,-342.112 121.895,-182.956 131.702,-98.3424"/>
<polygon fill="black" stroke="black" points="135.207,-98.4935 132.882,-88.157 128.254,-97.6875 135.207,-98.4935"/>
</g>
<!-- trace_link7 -->
<g id="node8" class="node"><title>trace_link7</title>
<ellipse fill="#eedd82" stroke="black" cx="220" cy="-143" rx="65.7609" ry="18.3848"/>
<text text-anchor="middle" x="220" y="-139.4" font-family="Times Roman,serif" font-size="14.00">trace_link7</text>
</g>
<!-- Station_T4\n Classtype = station1\n Name = 1.s&#45;&gt;trace_link7 -->
<g id="edge16" class="edge"><title>Station_T4\n Classtype = station1\n Name = 1.s&#45;&gt;trace_link7</title>
<path fill="none" stroke="black" d="M239.547,-198.289C236.318,-189.156 232.995,-179.757 230.026,-171.358"/>
<polygon fill="black" stroke="black" points="233.242,-169.955 226.609,-161.694 226.642,-172.289 233.242,-169.955"/>
</g>
<!-- paired_with6&#45;&gt;ApplyModel1 -->
<g id="edge6" class="edge"><title>paired_with6&#45;&gt;ApplyModel1</title>
<path fill="none" stroke="black" d="M250.346,-470.327C255.043,-461.849 260.692,-451.654 265.853,-442.338"/>
<polygon fill="black" stroke="black" points="269.014,-443.854 270.799,-433.411 262.891,-440.462 269.014,-443.854"/>
</g>
<!-- trace_link7&#45;&gt;Station_S5\n Classtype = station1\n Name = 1.s -->
<g id="edge14" class="edge"><title>trace_link7&#45;&gt;Station_S5\n Classtype = station1\n Name = 1.s</title>
<path fill="none" stroke="black" d="M204.96,-124.842C197.742,-116.128 188.701,-105.212 179.619,-94.2473"/>
<polygon fill="black" stroke="black" points="182.099,-91.7543 173.024,-86.2855 176.708,-96.2195 182.099,-91.7543"/>
</g>
<!-- apply_contains8 -->
<g id="node9" class="node"><title>apply_contains8</title>
<ellipse fill="#fcdb58" stroke="black" cx="659" cy="-341" rx="90.0096" ry="18.3848"/>
<text text-anchor="middle" x="659" y="-337.4" font-family="Times Roman,serif" font-size="14.00">apply_contains8</text>
</g>
<!-- Male_T13\n Classtype = male1\n Name = 3.m -->
<g id="node14" class="node"><title>Male_T13\n Classtype = male1\n Name = 3.m</title>
<ellipse fill="lightblue" stroke="black" cx="646" cy="-242" rx="106.066" ry="43.8406"/>
<text text-anchor="middle" x="646" y="-256.4" font-family="Times Roman,serif" font-size="14.00">Male_T13</text>
<text text-anchor="middle" x="646" y="-238.4" font-family="Times Roman,serif" font-size="14.00"> Classtype = male1</text>
<text text-anchor="middle" x="646" y="-220.4" font-family="Times Roman,serif" font-size="14.00"> Name = 3.m</text>
</g>
<!-- apply_contains8&#45;&gt;Male_T13\n Classtype = male1\n Name = 3.m -->
<g id="edge20" class="edge"><title>apply_contains8&#45;&gt;Male_T13\n Classtype = male1\n Name = 3.m</title>
<path fill="none" stroke="black" d="M656.555,-322.379C655.55,-314.73 654.331,-305.443 653.082,-295.936"/>
<polygon fill="black" stroke="black" points="656.551,-295.468 651.779,-286.008 649.611,-296.379 656.551,-295.468"/>
</g>
<!-- ApplyModel9 -->
<g id="node10" class="node"><title>ApplyModel9</title>
<ellipse fill="#fed017" stroke="black" cx="665" cy="-415" rx="73.0388" ry="18.3848"/>
<text text-anchor="middle" x="665" y="-411.4" font-family="Times Roman,serif" font-size="14.00">ApplyModel9</text>
</g>
<!-- ApplyModel9&#45;&gt;apply_contains8 -->
<g id="edge18" class="edge"><title>ApplyModel9&#45;&gt;apply_contains8</title>
<path fill="none" stroke="black" d="M663.486,-396.327C662.832,-388.264 662.053,-378.648 661.328,-369.711"/>
<polygon fill="black" stroke="black" points="664.81,-369.352 660.514,-359.667 657.833,-369.918 664.81,-369.352"/>
</g>
<!-- MatchModel10 -->
<g id="node11" class="node"><title>MatchModel10</title>
<ellipse fill="#e15c34" stroke="black" cx="569" cy="-563" rx="82.2301" ry="18.3848"/>
<text text-anchor="middle" x="569" y="-559.4" font-family="Times Roman,serif" font-size="14.00">MatchModel10</text>
</g>
<!-- match_contains11 -->
<g id="node12" class="node"><title>match_contains11</title>
<ellipse fill="#f798a1" stroke="black" cx="473" cy="-415" rx="101.116" ry="18.3848"/>
<text text-anchor="middle" x="473" y="-411.4" font-family="Times Roman,serif" font-size="14.00">match_contains11</text>
</g>
<!-- MatchModel10&#45;&gt;match_contains11 -->
<g id="edge26" class="edge"><title>MatchModel10&#45;&gt;match_contains11</title>
<path fill="none" stroke="black" d="M557.036,-544.555C540.364,-518.853 510.025,-472.08 490.724,-442.324"/>
<polygon fill="black" stroke="black" points="493.493,-440.162 485.115,-433.678 487.621,-443.972 493.493,-440.162"/>
</g>
<!-- paired_with14 -->
<g id="node15" class="node"><title>paired_with14</title>
<ellipse fill="lightgray" stroke="black" cx="645" cy="-489" rx="82.0244" ry="18.3848"/>
<text text-anchor="middle" x="645" y="-485.4" font-family="Times Roman,serif" font-size="14.00">paired_with14</text>
</g>
<!-- MatchModel10&#45;&gt;paired_with14 -->
<g id="edge24" class="edge"><title>MatchModel10&#45;&gt;paired_with14</title>
<path fill="none" stroke="black" d="M587.787,-544.708C597.266,-535.478 608.91,-524.14 619.214,-514.107"/>
<polygon fill="black" stroke="black" points="621.707,-516.566 626.43,-507.082 616.823,-511.55 621.707,-516.566"/>
</g>
<!-- Male_S12\n Classtype = male1\n Name = 3.m -->
<g id="node13" class="node"><title>Male_S12\n Classtype = male1\n Name = 3.m</title>
<ellipse fill="lightblue" stroke="black" cx="608" cy="-44" rx="106.066" ry="43.8406"/>
<text text-anchor="middle" x="608" y="-58.4" font-family="Times Roman,serif" font-size="14.00">Male_S12</text>
<text text-anchor="middle" x="608" y="-40.4" font-family="Times Roman,serif" font-size="14.00"> Classtype = male1</text>
<text text-anchor="middle" x="608" y="-22.4" font-family="Times Roman,serif" font-size="14.00"> Name = 3.m</text>
</g>
<!-- match_contains11&#45;&gt;Male_S12\n Classtype = male1\n Name = 3.m -->
<g id="edge28" class="edge"><title>match_contains11&#45;&gt;Male_S12\n Classtype = male1\n Name = 3.m</title>
<path fill="none" stroke="black" d="M474.483,-396.302C478.876,-348.58 494.622,-219.313 542,-124 547.322,-113.293 554.324,-102.758 561.776,-93.0257"/>
<polygon fill="black" stroke="black" points="564.631,-95.0591 568.115,-85.0535 559.152,-90.7025 564.631,-95.0591"/>
</g>
<!-- trace_link15 -->
<g id="node16" class="node"><title>trace_link15</title>
<ellipse fill="#eedd82" stroke="black" cx="623" cy="-143" rx="72.1249" ry="18.3848"/>
<text text-anchor="middle" x="623" y="-139.4" font-family="Times Roman,serif" font-size="14.00">trace_link15</text>
</g>
<!-- Male_T13\n Classtype = male1\n Name = 3.m&#45;&gt;trace_link15 -->
<g id="edge32" class="edge"><title>Male_T13\n Classtype = male1\n Name = 3.m&#45;&gt;trace_link15</title>
<path fill="none" stroke="black" d="M635.778,-198.001C633.686,-188.996 631.537,-179.745 629.612,-171.46"/>
<polygon fill="black" stroke="black" points="632.987,-170.522 627.315,-161.574 626.169,-172.107 632.987,-170.522"/>
</g>
<!-- paired_with14&#45;&gt;ApplyModel9 -->
<g id="edge22" class="edge"><title>paired_with14&#45;&gt;ApplyModel9</title>
<path fill="none" stroke="black" d="M650.047,-470.327C652.25,-462.176 654.882,-452.438 657.319,-443.42"/>
<polygon fill="black" stroke="black" points="660.724,-444.234 659.955,-433.667 653.967,-442.408 660.724,-444.234"/>
</g>
<!-- trace_link15&#45;&gt;Male_S12\n Classtype = male1\n Name = 3.m -->
<g id="edge30" class="edge"><title>trace_link15&#45;&gt;Male_S12\n Classtype = male1\n Name = 3.m</title>
<path fill="none" stroke="black" d="M620.179,-124.379C619.02,-116.73 617.613,-107.443 616.172,-97.9359"/>
<polygon fill="black" stroke="black" points="619.627,-97.3712 614.668,-88.0084 612.706,-98.4199 619.627,-97.3712"/>
</g>
<!-- apply_contains16 -->
<g id="node17" class="node"><title>apply_contains16</title>
<ellipse fill="#fcdb58" stroke="black" cx="1091" cy="-341" rx="96.8736" ry="18.3848"/>
<text text-anchor="middle" x="1091" y="-337.4" font-family="Times Roman,serif" font-size="14.00">apply_contains16</text>
</g>
<!-- Female_T19\n Classtype = female1\n Name = 2.f -->
<g id="node20" class="node"><title>Female_T19\n Classtype = female1\n Name = 2.f</title>
<ellipse fill="lightblue" stroke="black" cx="1084" cy="-242" rx="114.759" ry="43.8406"/>
<text text-anchor="middle" x="1084" y="-256.4" font-family="Times Roman,serif" font-size="14.00">Female_T19</text>
<text text-anchor="middle" x="1084" y="-238.4" font-family="Times Roman,serif" font-size="14.00"> Classtype = female1</text>
<text text-anchor="middle" x="1084" y="-220.4" font-family="Times Roman,serif" font-size="14.00"> Name = 2.f</text>
</g>
<!-- apply_contains16&#45;&gt;Female_T19\n Classtype = female1\n Name = 2.f -->
<g id="edge36" class="edge"><title>apply_contains16&#45;&gt;Female_T19\n Classtype = female1\n Name = 2.f</title>
<path fill="none" stroke="black" d="M1089.68,-322.379C1089.15,-314.81 1088.5,-305.638 1087.83,-296.236"/>
<polygon fill="black" stroke="black" points="1091.31,-295.737 1087.11,-286.008 1084.33,-296.23 1091.31,-295.737"/>
</g>
<!-- ApplyModel17 -->
<g id="node18" class="node"><title>ApplyModel17</title>
<ellipse fill="#fed017" stroke="black" cx="1098" cy="-415" rx="79.9031" ry="18.3848"/>
<text text-anchor="middle" x="1098" y="-411.4" font-family="Times Roman,serif" font-size="14.00">ApplyModel17</text>
</g>
<!-- ApplyModel17&#45;&gt;apply_contains16 -->
<g id="edge34" class="edge"><title>ApplyModel17&#45;&gt;apply_contains16</title>
<path fill="none" stroke="black" d="M1096.23,-396.327C1095.47,-388.264 1094.56,-378.648 1093.72,-369.711"/>
<polygon fill="black" stroke="black" points="1097.19,-369.293 1092.77,-359.667 1090.22,-369.953 1097.19,-369.293"/>
</g>
<!-- MatchModel18 -->
<g id="node19" class="node"><title>MatchModel18</title>
<ellipse fill="#e15c34" stroke="black" cx="998" cy="-563" rx="82.2301" ry="18.3848"/>
<text text-anchor="middle" x="998" y="-559.4" font-family="Times Roman,serif" font-size="14.00">MatchModel18</text>
</g>
<!-- match_contains20 -->
<g id="node21" class="node"><title>match_contains20</title>
<ellipse fill="#f798a1" stroke="black" cx="899" cy="-415" rx="101.116" ry="18.3848"/>
<text text-anchor="middle" x="899" y="-411.4" font-family="Times Roman,serif" font-size="14.00">match_contains20</text>
</g>
<!-- MatchModel18&#45;&gt;match_contains20 -->
<g id="edge42" class="edge"><title>MatchModel18&#45;&gt;match_contains20</title>
<path fill="none" stroke="black" d="M985.662,-544.555C968.469,-518.853 937.182,-472.08 917.277,-442.324"/>
<polygon fill="black" stroke="black" points="919.963,-440.043 911.494,-433.678 914.145,-443.935 919.963,-440.043"/>
</g>
<!-- paired_with22 -->
<g id="node23" class="node"><title>paired_with22</title>
<ellipse fill="lightgray" stroke="black" cx="1075" cy="-489" rx="82.0244" ry="18.3848"/>
<text text-anchor="middle" x="1075" y="-485.4" font-family="Times Roman,serif" font-size="14.00">paired_with22</text>
</g>
<!-- MatchModel18&#45;&gt;paired_with22 -->
<g id="edge40" class="edge"><title>MatchModel18&#45;&gt;paired_with22</title>
<path fill="none" stroke="black" d="M1017.03,-544.708C1026.64,-535.478 1038.44,-524.14 1048.87,-514.107"/>
<polygon fill="black" stroke="black" points="1051.4,-516.535 1056.19,-507.082 1046.55,-511.487 1051.4,-516.535"/>
</g>
<!-- trace_link23 -->
<g id="node24" class="node"><title>trace_link23</title>
<ellipse fill="#eedd82" stroke="black" cx="1048" cy="-143" rx="72.1249" ry="18.3848"/>
<text text-anchor="middle" x="1048" y="-139.4" font-family="Times Roman,serif" font-size="14.00">trace_link23</text>
</g>
<!-- Female_T19\n Classtype = female1\n Name = 2.f&#45;&gt;trace_link23 -->
<g id="edge48" class="edge"><title>Female_T19\n Classtype = female1\n Name = 2.f&#45;&gt;trace_link23</title>
<path fill="none" stroke="black" d="M1068.11,-198.289C1064.78,-189.156 1061.37,-179.757 1058.31,-171.358"/>
<polygon fill="black" stroke="black" points="1061.5,-169.896 1054.8,-161.694 1054.93,-172.288 1061.5,-169.896"/>
</g>
<!-- Female_S21\n Classtype = female1\n Name = 2.f -->
<g id="node22" class="node"><title>Female_S21\n Classtype = female1\n Name = 2.f</title>
<ellipse fill="lightblue" stroke="black" cx="925" cy="-44" rx="114.759" ry="43.8406"/>
<text text-anchor="middle" x="925" y="-58.4" font-family="Times Roman,serif" font-size="14.00">Female_S21</text>
<text text-anchor="middle" x="925" y="-40.4" font-family="Times Roman,serif" font-size="14.00"> Classtype = female1</text>
<text text-anchor="middle" x="925" y="-22.4" font-family="Times Roman,serif" font-size="14.00"> Name = 2.f</text>
</g>
<!-- match_contains20&#45;&gt;Female_S21\n Classtype = female1\n Name = 2.f -->
<g id="edge44" class="edge"><title>match_contains20&#45;&gt;Female_S21\n Classtype = female1\n Name = 2.f</title>
<path fill="none" stroke="black" d="M900.307,-396.348C904.108,-342.112 915.262,-182.956 921.192,-98.3424"/>
<polygon fill="black" stroke="black" points="924.698,-98.3773 921.905,-88.157 917.715,-97.8878 924.698,-98.3773"/>
</g>
<!-- paired_with22&#45;&gt;ApplyModel17 -->
<g id="edge38" class="edge"><title>paired_with22&#45;&gt;ApplyModel17</title>
<path fill="none" stroke="black" d="M1080.8,-470.327C1083.34,-462.176 1086.36,-452.438 1089.17,-443.42"/>
<polygon fill="black" stroke="black" points="1092.57,-444.256 1092.2,-433.667 1085.89,-442.178 1092.57,-444.256"/>
</g>
<!-- trace_link23&#45;&gt;Female_S21\n Classtype = female1\n Name = 2.f -->
<g id="edge46" class="edge"><title>trace_link23&#45;&gt;Female_S21\n Classtype = female1\n Name = 2.f</title>
<path fill="none" stroke="black" d="M1026.01,-125.301C1013.83,-115.497 998.063,-102.807 982.624,-90.3804"/>
<polygon fill="black" stroke="black" points="984.586,-87.4663 974.601,-83.9227 980.197,-92.9194 984.586,-87.4663"/>
</g>
</g>
</svg>
