<?xml version="1.0" encoding="UTF-8" standalone="no"?>
<!DOCTYPE svg PUBLIC "-//W3C//DTD SVG 1.1//EN"
 "http://www.w3.org/Graphics/SVG/1.1/DTD/svg11.dtd">
<!-- Generated by graphviz version 2.26.3 (20100126.1600)
 -->
<!-- Title: HEmptyPathCondition_HM2M_run1_HF2F_run1 Pages: 1 -->
<svg width="814pt" height="590pt"
 viewBox="0.00 0.00 814.00 590.00" xmlns="http://www.w3.org/2000/svg" xmlns:xlink="http://www.w3.org/1999/xlink">
<g id="graph1" class="graph" transform="scale(1 1) rotate(0) translate(4 586)">
<title>HEmptyPathCondition_HM2M_run1_HF2F_run1</title>
<polygon fill="white" stroke="white" points="-4,5 -4,-586 811,-586 811,5 -4,5"/>
<!-- apply_contains0 -->
<g id="node1" class="node"><title>apply_contains0</title>
<ellipse fill="#fcdb58" stroke="black" cx="258" cy="-341" rx="90.0096" ry="18.3848"/>
<text text-anchor="middle" x="258" y="-337.4" font-family="Times Roman,serif" font-size="14.00">apply_contains0</text>
</g>
<!-- Male_T5\n Classtype = male1\n Name = 3.m -->
<g id="node6" class="node"><title>Male_T5\n Classtype = male1\n Name = 3.m</title>
<ellipse fill="lightblue" stroke="black" cx="251" cy="-242" rx="106.066" ry="43.8406"/>
<text text-anchor="middle" x="251" y="-256.4" font-family="Times Roman,serif" font-size="14.00">Male_T5</text>
<text text-anchor="middle" x="251" y="-238.4" font-family="Times Roman,serif" font-size="14.00"> Classtype = male1</text>
<text text-anchor="middle" x="251" y="-220.4" font-family="Times Roman,serif" font-size="14.00"> Name = 3.m</text>
</g>
<!-- apply_contains0&#45;&gt;Male_T5\n Classtype = male1\n Name = 3.m -->
<g id="edge4" class="edge"><title>apply_contains0&#45;&gt;Male_T5\n Classtype = male1\n Name = 3.m</title>
<path fill="none" stroke="black" d="M256.683,-322.379C256.148,-314.81 255.5,-305.638 254.835,-296.236"/>
<polygon fill="black" stroke="black" points="258.308,-295.737 254.112,-286.008 251.326,-296.23 258.308,-295.737"/>
</g>
<!-- ApplyModel1 -->
<g id="node2" class="node"><title>ApplyModel1</title>
<ellipse fill="#fed017" stroke="black" cx="281" cy="-415" rx="73.0388" ry="18.3848"/>
<text text-anchor="middle" x="281" y="-411.4" font-family="Times Roman,serif" font-size="14.00">ApplyModel1</text>
</g>
<!-- ApplyModel1&#45;&gt;apply_contains0 -->
<g id="edge2" class="edge"><title>ApplyModel1&#45;&gt;apply_contains0</title>
<path fill="none" stroke="black" d="M275.196,-396.327C272.663,-388.176 269.636,-378.438 266.833,-369.42"/>
<polygon fill="black" stroke="black" points="270.112,-368.178 263.802,-359.667 263.428,-370.256 270.112,-368.178"/>
</g>
<!-- MatchModel2 -->
<g id="node3" class="node"><title>MatchModel2</title>
<ellipse fill="#e15c34" stroke="black" cx="178" cy="-563" rx="75.8684" ry="18.3848"/>
<text text-anchor="middle" x="178" y="-559.4" font-family="Times Roman,serif" font-size="14.00">MatchModel2</text>
</g>
<!-- match_contains3 -->
<g id="node4" class="node"><title>match_contains3</title>
<ellipse fill="#f798a1" stroke="black" cx="95" cy="-415" rx="94.7523" ry="18.3848"/>
<text text-anchor="middle" x="95" y="-411.4" font-family="Times Roman,serif" font-size="14.00">match_contains3</text>
</g>
<!-- MatchModel2&#45;&gt;match_contains3 -->
<g id="edge10" class="edge"><title>MatchModel2&#45;&gt;match_contains3</title>
<path fill="none" stroke="black" d="M167.656,-544.555C153.304,-518.964 127.237,-472.483 110.54,-442.71"/>
<polygon fill="black" stroke="black" points="113.419,-440.688 105.475,-433.678 107.313,-444.112 113.419,-440.688"/>
</g>
<!-- paired_with6 -->
<g id="node7" class="node"><title>paired_with6</title>
<ellipse fill="lightgray" stroke="black" cx="240" cy="-489" rx="75.1594" ry="18.3848"/>
<text text-anchor="middle" x="240" y="-485.4" font-family="Times Roman,serif" font-size="14.00">paired_with6</text>
</g>
<!-- MatchModel2&#45;&gt;paired_with6 -->
<g id="edge8" class="edge"><title>MatchModel2&#45;&gt;paired_with6</title>
<path fill="none" stroke="black" d="M193.326,-544.708C200.778,-535.814 209.87,-524.962 218.043,-515.207"/>
<polygon fill="black" stroke="black" points="220.896,-517.251 224.636,-507.338 215.531,-512.756 220.896,-517.251"/>
</g>
<!-- Male_S4\n Classtype = male1\n Name = 3.m -->
<g id="node5" class="node"><title>Male_S4\n Classtype = male1\n Name = 3.m</title>
<ellipse fill="lightblue" stroke="black" cx="219" cy="-44" rx="106.066" ry="43.8406"/>
<text text-anchor="middle" x="219" y="-58.4" font-family="Times Roman,serif" font-size="14.00">Male_S4</text>
<text text-anchor="middle" x="219" y="-40.4" font-family="Times Roman,serif" font-size="14.00"> Classtype = male1</text>
<text text-anchor="middle" x="219" y="-22.4" font-family="Times Roman,serif" font-size="14.00"> Name = 3.m</text>
</g>
<!-- match_contains3&#45;&gt;Male_S4\n Classtype = male1\n Name = 3.m -->
<g id="edge12" class="edge"><title>match_contains3&#45;&gt;Male_S4\n Classtype = male1\n Name = 3.m</title>
<path fill="none" stroke="black" d="M96.2496,-396.183C100.094,-348.181 114.659,-218.312 164,-124 169.085,-114.281 175.138,-104.334 181.34,-94.9018"/>
<polygon fill="black" stroke="black" points="184.377,-96.6576 187.053,-86.4063 178.568,-92.7512 184.377,-96.6576"/>
</g>
<!-- trace_link7 -->
<g id="node8" class="node"><title>trace_link7</title>
<ellipse fill="#eedd82" stroke="black" cx="239" cy="-143" rx="65.7609" ry="18.3848"/>
<text text-anchor="middle" x="239" y="-139.4" font-family="Times Roman,serif" font-size="14.00">trace_link7</text>
</g>
<!-- Male_T5\n Classtype = male1\n Name = 3.m&#45;&gt;trace_link7 -->
<g id="edge16" class="edge"><title>Male_T5\n Classtype = male1\n Name = 3.m&#45;&gt;trace_link7</title>
<path fill="none" stroke="black" d="M245.667,-198.001C244.587,-189.096 243.479,-179.95 242.483,-171.737"/>
<polygon fill="black" stroke="black" points="245.929,-171.08 241.251,-161.574 238.98,-171.922 245.929,-171.08"/>
</g>
<!-- paired_with6&#45;&gt;ApplyModel1 -->
<g id="edge6" class="edge"><title>paired_with6&#45;&gt;ApplyModel1</title>
<path fill="none" stroke="black" d="M250.346,-470.327C255.043,-461.849 260.692,-451.654 265.853,-442.338"/>
<polygon fill="black" stroke="black" points="269.014,-443.854 270.799,-433.411 262.891,-440.462 269.014,-443.854"/>
</g>
<!-- trace_link7&#45;&gt;Male_S4\n Classtype = male1\n Name = 3.m -->
<g id="edge14" class="edge"><title>trace_link7&#45;&gt;Male_S4\n Classtype = male1\n Name = 3.m</title>
<path fill="none" stroke="black" d="M235.238,-124.379C233.693,-116.73 231.817,-107.443 229.896,-97.9359"/>
<polygon fill="black" stroke="black" points="233.302,-97.1173 227.891,-88.0084 226.44,-98.5035 233.302,-97.1173"/>
</g>
<!-- apply_contains8 -->
<g id="node9" class="node"><title>apply_contains8</title>
<ellipse fill="#fcdb58" stroke="black" cx="697" cy="-341" rx="90.0096" ry="18.3848"/>
<text text-anchor="middle" x="697" y="-337.4" font-family="Times Roman,serif" font-size="14.00">apply_contains8</text>
</g>
<!-- Female_T11\n Classtype = female1\n Name = 2.f -->
<g id="node12" class="node"><title>Female_T11\n Classtype = female1\n Name = 2.f</title>
<ellipse fill="lightblue" stroke="black" cx="691" cy="-242" rx="114.759" ry="43.8406"/>
<text text-anchor="middle" x="691" y="-256.4" font-family="Times Roman,serif" font-size="14.00">Female_T11</text>
<text text-anchor="middle" x="691" y="-238.4" font-family="Times Roman,serif" font-size="14.00"> Classtype = female1</text>
<text text-anchor="middle" x="691" y="-220.4" font-family="Times Roman,serif" font-size="14.00"> Name = 2.f</text>
</g>
<!-- apply_contains8&#45;&gt;Female_T11\n Classtype = female1\n Name = 2.f -->
<g id="edge20" class="edge"><title>apply_contains8&#45;&gt;Female_T11\n Classtype = female1\n Name = 2.f</title>
<path fill="none" stroke="black" d="M695.871,-322.379C695.413,-314.81 694.857,-305.638 694.287,-296.236"/>
<polygon fill="black" stroke="black" points="697.766,-295.778 693.667,-286.008 690.779,-296.202 697.766,-295.778"/>
</g>
<!-- ApplyModel9 -->
<g id="node10" class="node"><title>ApplyModel9</title>
<ellipse fill="#fed017" stroke="black" cx="704" cy="-415" rx="73.0388" ry="18.3848"/>
<text text-anchor="middle" x="704" y="-411.4" font-family="Times Roman,serif" font-size="14.00">ApplyModel9</text>
</g>
<!-- ApplyModel9&#45;&gt;apply_contains8 -->
<g id="edge18" class="edge"><title>ApplyModel9&#45;&gt;apply_contains8</title>
<path fill="none" stroke="black" d="M702.234,-396.327C701.471,-388.264 700.561,-378.648 699.716,-369.711"/>
<polygon fill="black" stroke="black" points="703.192,-369.293 698.766,-359.667 696.223,-369.953 703.192,-369.293"/>
</g>
<!-- MatchModel10 -->
<g id="node11" class="node"><title>MatchModel10</title>
<ellipse fill="#e15c34" stroke="black" cx="607" cy="-563" rx="82.2301" ry="18.3848"/>
<text text-anchor="middle" x="607" y="-559.4" font-family="Times Roman,serif" font-size="14.00">MatchModel10</text>
</g>
<!-- match_contains12 -->
<g id="node13" class="node"><title>match_contains12</title>
<ellipse fill="#f798a1" stroke="black" cx="512" cy="-415" rx="101.116" ry="18.3848"/>
<text text-anchor="middle" x="512" y="-411.4" font-family="Times Roman,serif" font-size="14.00">match_contains12</text>
</g>
<!-- MatchModel10&#45;&gt;match_contains12 -->
<g id="edge26" class="edge"><title>MatchModel10&#45;&gt;match_contains12</title>
<path fill="none" stroke="black" d="M595.16,-544.555C578.662,-518.853 548.639,-472.08 529.539,-442.324"/>
<polygon fill="black" stroke="black" points="532.336,-440.202 523.989,-433.678 526.445,-443.984 532.336,-440.202"/>
</g>
<!-- paired_with14 -->
<g id="node15" class="node"><title>paired_with14</title>
<ellipse fill="lightgray" stroke="black" cx="683" cy="-489" rx="82.0244" ry="18.3848"/>
<text text-anchor="middle" x="683" y="-485.4" font-family="Times Roman,serif" font-size="14.00">paired_with14</text>
</g>
<!-- MatchModel10&#45;&gt;paired_with14 -->
<g id="edge24" class="edge"><title>MatchModel10&#45;&gt;paired_with14</title>
<path fill="none" stroke="black" d="M625.787,-544.708C635.266,-535.478 646.91,-524.14 657.214,-514.107"/>
<polygon fill="black" stroke="black" points="659.707,-516.566 664.43,-507.082 654.823,-511.55 659.707,-516.566"/>
</g>
<!-- trace_link15 -->
<g id="node16" class="node"><title>trace_link15</title>
<ellipse fill="#eedd82" stroke="black" cx="657" cy="-143" rx="72.1249" ry="18.3848"/>
<text text-anchor="middle" x="657" y="-139.4" font-family="Times Roman,serif" font-size="14.00">trace_link15</text>
</g>
<!-- Female_T11\n Classtype = female1\n Name = 2.f&#45;&gt;trace_link15 -->
<g id="edge32" class="edge"><title>Female_T11\n Classtype = female1\n Name = 2.f&#45;&gt;trace_link15</title>
<path fill="none" stroke="black" d="M675.988,-198.289C672.852,-189.156 669.624,-179.757 666.739,-171.358"/>
<polygon fill="black" stroke="black" points="669.979,-170.015 663.42,-161.694 663.358,-172.289 669.979,-170.015"/>
</g>
<!-- Female_S13\n Classtype = female1\n Name = 2.f -->
<g id="node14" class="node"><title>Female_S13\n Classtype = female1\n Name = 2.f</title>
<ellipse fill="lightblue" stroke="black" cx="530" cy="-44" rx="114.759" ry="43.8406"/>
<text text-anchor="middle" x="530" y="-58.4" font-family="Times Roman,serif" font-size="14.00">Female_S13</text>
<text text-anchor="middle" x="530" y="-40.4" font-family="Times Roman,serif" font-size="14.00"> Classtype = female1</text>
<text text-anchor="middle" x="530" y="-22.4" font-family="Times Roman,serif" font-size="14.00"> Name = 2.f</text>
</g>
<!-- match_contains12&#45;&gt;Female_S13\n Classtype = female1\n Name = 2.f -->
<g id="edge28" class="edge"><title>match_contains12&#45;&gt;Female_S13\n Classtype = female1\n Name = 2.f</title>
<path fill="none" stroke="black" d="M512.905,-396.348C515.536,-342.112 523.258,-182.956 527.363,-98.3424"/>
<polygon fill="black" stroke="black" points="530.869,-98.3149 527.858,-88.157 523.877,-97.9756 530.869,-98.3149"/>
</g>
<!-- paired_with14&#45;&gt;ApplyModel9 -->
<g id="edge22" class="edge"><title>paired_with14&#45;&gt;ApplyModel9</title>
<path fill="none" stroke="black" d="M688.299,-470.327C690.612,-462.176 693.376,-452.438 695.935,-443.42"/>
<polygon fill="black" stroke="black" points="699.339,-444.243 698.703,-433.667 692.605,-442.332 699.339,-444.243"/>
</g>
<!-- trace_link15&#45;&gt;Female_S13\n Classtype = female1\n Name = 2.f -->
<g id="edge30" class="edge"><title>trace_link15&#45;&gt;Female_S13\n Classtype = female1\n Name = 2.f</title>
<path fill="none" stroke="black" d="M634.295,-125.301C621.48,-115.311 604.822,-102.326 588.593,-89.6752"/>
<polygon fill="black" stroke="black" points="590.719,-86.894 580.68,-83.5064 586.415,-92.4148 590.719,-86.894"/>
</g>
</g>
</svg>
