<?xml version="1.0" encoding="UTF-8" standalone="no"?>
<!DOCTYPE svg PUBLIC "-//W3C//DTD SVG 1.1//EN"
 "http://www.w3.org/Graphics/SVG/1.1/DTD/svg11.dtd">
<!-- Generated by graphviz version 2.26.3 (20100126.1600)
 -->
<!-- Title: HEmptyPathCondition_HS2S_run1_HM2M_run1_HSM2SM_run1 Pages: 1 -->
<svg width="820pt" height="788pt"
 viewBox="0.00 0.00 820.00 788.00" xmlns="http://www.w3.org/2000/svg" xmlns:xlink="http://www.w3.org/1999/xlink">
<g id="graph1" class="graph" transform="scale(1 1) rotate(0) translate(4 784)">
<title>HEmptyPathCondition_HS2S_run1_HM2M_run1_HSM2SM_run1</title>
<polygon fill="white" stroke="white" points="-4,5 -4,-784 817,-784 817,5 -4,5"/>
<!-- apply_contains0 -->
<g id="node1" class="node"><title>apply_contains0</title>
<ellipse fill="#fcdb58" stroke="black" cx="529" cy="-539" rx="90.0096" ry="18.3848"/>
<text text-anchor="middle" x="529" y="-535.4" font-family="Times Roman,serif" font-size="14.00">apply_contains0</text>
</g>
<!-- Station_T4\n Classtype = station1\n Name = 1.s -->
<g id="node5" class="node"><title>Station_T4\n Classtype = station1\n Name = 1.s</title>
<ellipse fill="lightblue" stroke="black" cx="529" cy="-440" rx="116.172" ry="43.8406"/>
<text text-anchor="middle" x="529" y="-454.4" font-family="Times Roman,serif" font-size="14.00">Station_T4</text>
<text text-anchor="middle" x="529" y="-436.4" font-family="Times Roman,serif" font-size="14.00"> Classtype = station1</text>
<text text-anchor="middle" x="529" y="-418.4" font-family="Times Roman,serif" font-size="14.00"> Name = 1.s</text>
</g>
<!-- apply_contains0&#45;&gt;Station_T4\n Classtype = station1\n Name = 1.s -->
<g id="edge4" class="edge"><title>apply_contains0&#45;&gt;Station_T4\n Classtype = station1\n Name = 1.s</title>
<path fill="none" stroke="black" d="M529,-520.379C529,-512.81 529,-503.638 529,-494.236"/>
<polygon fill="black" stroke="black" points="532.5,-494.008 529,-484.008 525.5,-494.008 532.5,-494.008"/>
</g>
<!-- ApplyModel1 -->
<g id="node2" class="node"><title>ApplyModel1</title>
<ellipse fill="#fed017" stroke="black" cx="529" cy="-613" rx="73.0388" ry="18.3848"/>
<text text-anchor="middle" x="529" y="-609.4" font-family="Times Roman,serif" font-size="14.00">ApplyModel1</text>
</g>
<!-- ApplyModel1&#45;&gt;apply_contains0 -->
<g id="edge2" class="edge"><title>ApplyModel1&#45;&gt;apply_contains0</title>
<path fill="none" stroke="black" d="M529,-594.327C529,-586.264 529,-576.648 529,-567.711"/>
<polygon fill="black" stroke="black" points="532.5,-567.667 529,-557.667 525.5,-567.667 532.5,-567.667"/>
</g>
<!-- MatchModel2 -->
<g id="node3" class="node"><title>MatchModel2</title>
<ellipse fill="#e15c34" stroke="black" cx="623" cy="-761" rx="75.8684" ry="18.3848"/>
<text text-anchor="middle" x="623" y="-757.4" font-family="Times Roman,serif" font-size="14.00">MatchModel2</text>
</g>
<!-- match_contains3 -->
<g id="node4" class="node"><title>match_contains3</title>
<ellipse fill="#f798a1" stroke="black" cx="717" cy="-687" rx="94.7523" ry="18.3848"/>
<text text-anchor="middle" x="717" y="-683.4" font-family="Times Roman,serif" font-size="14.00">match_contains3</text>
</g>
<!-- MatchModel2&#45;&gt;match_contains3 -->
<g id="edge10" class="edge"><title>MatchModel2&#45;&gt;match_contains3</title>
<path fill="none" stroke="black" d="M645.755,-743.087C657.904,-733.523 673.029,-721.615 686.214,-711.236"/>
<polygon fill="black" stroke="black" points="688.437,-713.941 694.129,-705.005 684.107,-708.44 688.437,-713.941"/>
</g>
<!-- paired_with6 -->
<g id="node7" class="node"><title>paired_with6</title>
<ellipse fill="lightgray" stroke="black" cx="529" cy="-687" rx="75.1594" ry="18.3848"/>
<text text-anchor="middle" x="529" y="-683.4" font-family="Times Roman,serif" font-size="14.00">paired_with6</text>
</g>
<!-- MatchModel2&#45;&gt;paired_with6 -->
<g id="edge8" class="edge"><title>MatchModel2&#45;&gt;paired_with6</title>
<path fill="none" stroke="black" d="M600.245,-743.087C588.006,-733.452 572.747,-721.439 559.493,-711.005"/>
<polygon fill="black" stroke="black" points="561.568,-708.184 551.545,-704.748 557.238,-713.684 561.568,-708.184"/>
</g>
<!-- Station_S5\n Classtype = station1\n Name = 1.s -->
<g id="node6" class="node"><title>Station_S5\n Classtype = station1\n Name = 1.s</title>
<ellipse fill="lightblue" stroke="black" cx="623" cy="-242" rx="116.172" ry="43.8406"/>
<text text-anchor="middle" x="623" y="-256.4" font-family="Times Roman,serif" font-size="14.00">Station_S5</text>
<text text-anchor="middle" x="623" y="-238.4" font-family="Times Roman,serif" font-size="14.00"> Classtype = station1</text>
<text text-anchor="middle" x="623" y="-220.4" font-family="Times Roman,serif" font-size="14.00"> Name = 1.s</text>
</g>
<!-- match_contains3&#45;&gt;Station_S5\n Classtype = station1\n Name = 1.s -->
<g id="edge12" class="edge"><title>match_contains3&#45;&gt;Station_S5\n Classtype = station1\n Name = 1.s</title>
<path fill="none" stroke="black" d="M717,-668.309C717,-640.234 717,-585.507 717,-539 717,-539 717,-539 717,-440 717,-386.88 721.411,-369.683 698,-322 692.439,-310.673 684.73,-299.849 676.358,-290.026"/>
<polygon fill="black" stroke="black" points="678.799,-287.504 669.53,-282.372 673.575,-292.164 678.799,-287.504"/>
</g>
<!-- trace_link7 -->
<g id="node8" class="node"><title>trace_link7</title>
<ellipse fill="#eedd82" stroke="black" cx="623" cy="-341" rx="65.7609" ry="18.3848"/>
<text text-anchor="middle" x="623" y="-337.4" font-family="Times Roman,serif" font-size="14.00">trace_link7</text>
</g>
<!-- Station_T4\n Classtype = station1\n Name = 1.s&#45;&gt;trace_link7 -->
<g id="edge16" class="edge"><title>Station_T4\n Classtype = station1\n Name = 1.s&#45;&gt;trace_link7</title>
<path fill="none" stroke="black" d="M568.32,-398.589C578.641,-387.718 589.47,-376.313 598.743,-366.547"/>
<polygon fill="black" stroke="black" points="601.459,-368.77 605.807,-359.108 596.383,-363.95 601.459,-368.77"/>
</g>
<!-- directLink_T16\n -->
<g id="node17" class="node"><title>directLink_T16\n</title>
<ellipse fill="lightyellow" stroke="black" cx="455" cy="-341" rx="84.1457" ry="18.3848"/>
<text text-anchor="middle" x="455" y="-337.4" font-family="Times Roman,serif" font-size="14.00">directLink_T16</text>
</g>
<!-- Station_T4\n Classtype = station1\n Name = 1.s&#45;&gt;directLink_T16\n -->
<g id="edge34" class="edge"><title>Station_T4\n Classtype = station1\n Name = 1.s&#45;&gt;directLink_T16\n</title>
<path fill="none" stroke="black" d="M497.188,-397.441C489.57,-387.249 481.653,-376.657 474.763,-367.439"/>
<polygon fill="black" stroke="black" points="477.552,-365.325 468.762,-359.411 471.945,-369.516 477.552,-365.325"/>
</g>
<!-- indirectLink_S17 -->
<g id="node18" class="node"><title>indirectLink_S17</title>
<ellipse fill="lightgreen" stroke="black" cx="566" cy="-143" rx="92.839" ry="18.3848"/>
<text text-anchor="middle" x="566" y="-139.4" font-family="Times Roman,serif" font-size="14.00">indirectLink_S17</text>
</g>
<!-- Station_S5\n Classtype = station1\n Name = 1.s&#45;&gt;indirectLink_S17 -->
<g id="edge38" class="edge"><title>Station_S5\n Classtype = station1\n Name = 1.s&#45;&gt;indirectLink_S17</title>
<path fill="none" stroke="black" d="M598.165,-198.865C592.554,-189.12 586.75,-179.039 581.643,-170.169"/>
<polygon fill="black" stroke="black" points="584.633,-168.349 576.611,-161.429 578.567,-171.842 584.633,-168.349"/>
</g>
<!-- paired_with6&#45;&gt;ApplyModel1 -->
<g id="edge6" class="edge"><title>paired_with6&#45;&gt;ApplyModel1</title>
<path fill="none" stroke="black" d="M529,-668.327C529,-660.264 529,-650.648 529,-641.711"/>
<polygon fill="black" stroke="black" points="532.5,-641.667 529,-631.667 525.5,-641.667 532.5,-641.667"/>
</g>
<!-- trace_link7&#45;&gt;Station_S5\n Classtype = station1\n Name = 1.s -->
<g id="edge14" class="edge"><title>trace_link7&#45;&gt;Station_S5\n Classtype = station1\n Name = 1.s</title>
<path fill="none" stroke="black" d="M623,-322.379C623,-314.81 623,-305.638 623,-296.236"/>
<polygon fill="black" stroke="black" points="626.5,-296.008 623,-286.008 619.5,-296.008 626.5,-296.008"/>
</g>
<!-- apply_contains8 -->
<g id="node9" class="node"><title>apply_contains8</title>
<ellipse fill="#fcdb58" stroke="black" cx="263" cy="-341" rx="90.0096" ry="18.3848"/>
<text text-anchor="middle" x="263" y="-337.4" font-family="Times Roman,serif" font-size="14.00">apply_contains8</text>
</g>
<!-- Male_T13\n Classtype = male1\n Name = 3.m -->
<g id="node14" class="node"><title>Male_T13\n Classtype = male1\n Name = 3.m</title>
<ellipse fill="lightblue" stroke="black" cx="327" cy="-242" rx="106.066" ry="43.8406"/>
<text text-anchor="middle" x="327" y="-256.4" font-family="Times Roman,serif" font-size="14.00">Male_T13</text>
<text text-anchor="middle" x="327" y="-238.4" font-family="Times Roman,serif" font-size="14.00"> Classtype = male1</text>
<text text-anchor="middle" x="327" y="-220.4" font-family="Times Roman,serif" font-size="14.00"> Name = 3.m</text>
</g>
<!-- apply_contains8&#45;&gt;Male_T13\n Classtype = male1\n Name = 3.m -->
<g id="edge20" class="edge"><title>apply_contains8&#45;&gt;Male_T13\n Classtype = male1\n Name = 3.m</title>
<path fill="none" stroke="black" d="M275.038,-322.379C280.413,-314.065 287.039,-303.815 293.738,-293.452"/>
<polygon fill="black" stroke="black" points="296.868,-295.058 299.358,-284.759 290.989,-291.257 296.868,-295.058"/>
</g>
<!-- ApplyModel9 -->
<g id="node10" class="node"><title>ApplyModel9</title>
<ellipse fill="#fed017" stroke="black" cx="293" cy="-440" rx="73.0388" ry="18.3848"/>
<text text-anchor="middle" x="293" y="-436.4" font-family="Times Roman,serif" font-size="14.00">ApplyModel9</text>
</g>
<!-- ApplyModel9&#45;&gt;apply_contains8 -->
<g id="edge18" class="edge"><title>ApplyModel9&#45;&gt;apply_contains8</title>
<path fill="none" stroke="black" d="M287.357,-421.379C282.916,-406.721 276.651,-386.049 271.588,-369.34"/>
<polygon fill="black" stroke="black" points="274.867,-368.093 268.617,-359.538 268.168,-370.123 274.867,-368.093"/>
</g>
<!-- MatchModel10 -->
<g id="node11" class="node"><title>MatchModel10</title>
<ellipse fill="#e15c34" stroke="black" cx="217" cy="-613" rx="82.2301" ry="18.3848"/>
<text text-anchor="middle" x="217" y="-609.4" font-family="Times Roman,serif" font-size="14.00">MatchModel10</text>
</g>
<!-- match_contains11 -->
<g id="node12" class="node"><title>match_contains11</title>
<ellipse fill="#f798a1" stroke="black" cx="101" cy="-440" rx="101.116" ry="18.3848"/>
<text text-anchor="middle" x="101" y="-436.4" font-family="Times Roman,serif" font-size="14.00">match_contains11</text>
</g>
<!-- MatchModel10&#45;&gt;match_contains11 -->
<g id="edge26" class="edge"><title>MatchModel10&#45;&gt;match_contains11</title>
<path fill="none" stroke="black" d="M195.654,-595.083C184.439,-584.96 170.988,-571.63 161,-558 140.133,-529.524 122.705,-492.736 112.102,-467.864"/>
<polygon fill="black" stroke="black" points="115.332,-466.515 108.249,-458.636 108.873,-469.213 115.332,-466.515"/>
</g>
<!-- paired_with14 -->
<g id="node15" class="node"><title>paired_with14</title>
<ellipse fill="lightgray" stroke="black" cx="252" cy="-539" rx="82.0244" ry="18.3848"/>
<text text-anchor="middle" x="252" y="-535.4" font-family="Times Roman,serif" font-size="14.00">paired_with14</text>
</g>
<!-- MatchModel10&#45;&gt;paired_with14 -->
<g id="edge24" class="edge"><title>MatchModel10&#45;&gt;paired_with14</title>
<path fill="none" stroke="black" d="M225.832,-594.327C229.8,-585.937 234.563,-575.866 238.932,-566.629"/>
<polygon fill="black" stroke="black" points="242.18,-567.947 243.292,-557.411 235.852,-564.954 242.18,-567.947"/>
</g>
<!-- Male_S12\n Classtype = male1\n Name = 3.m -->
<g id="node13" class="node"><title>Male_S12\n Classtype = male1\n Name = 3.m</title>
<ellipse fill="lightblue" stroke="black" cx="327" cy="-44" rx="106.066" ry="43.8406"/>
<text text-anchor="middle" x="327" y="-58.4" font-family="Times Roman,serif" font-size="14.00">Male_S12</text>
<text text-anchor="middle" x="327" y="-40.4" font-family="Times Roman,serif" font-size="14.00"> Classtype = male1</text>
<text text-anchor="middle" x="327" y="-22.4" font-family="Times Roman,serif" font-size="14.00"> Name = 3.m</text>
</g>
<!-- match_contains11&#45;&gt;Male_S12\n Classtype = male1\n Name = 3.m -->
<g id="edge28" class="edge"><title>match_contains11&#45;&gt;Male_S12\n Classtype = male1\n Name = 3.m</title>
<path fill="none" stroke="black" d="M106.903,-421.317C123.505,-370.475 174.131,-226.578 246,-124 254.031,-112.537 263.817,-101.295 273.772,-91.0281"/>
<polygon fill="black" stroke="black" points="276.456,-93.2929 281.028,-83.7354 271.494,-88.3556 276.456,-93.2929"/>
</g>
<!-- trace_link15 -->
<g id="node16" class="node"><title>trace_link15</title>
<ellipse fill="#eedd82" stroke="black" cx="327" cy="-143" rx="72.1249" ry="18.3848"/>
<text text-anchor="middle" x="327" y="-139.4" font-family="Times Roman,serif" font-size="14.00">trace_link15</text>
</g>
<!-- Male_T13\n Classtype = male1\n Name = 3.m&#45;&gt;trace_link15 -->
<g id="edge32" class="edge"><title>Male_T13\n Classtype = male1\n Name = 3.m&#45;&gt;trace_link15</title>
<path fill="none" stroke="black" d="M327,-197.712C327,-188.978 327,-180.024 327,-171.956"/>
<polygon fill="black" stroke="black" points="330.5,-171.953 327,-161.953 323.5,-171.953 330.5,-171.953"/>
</g>
<!-- paired_with14&#45;&gt;ApplyModel9 -->
<g id="edge22" class="edge"><title>paired_with14&#45;&gt;ApplyModel9</title>
<path fill="none" stroke="black" d="M259.712,-520.379C265.839,-505.583 274.505,-484.659 281.459,-467.868"/>
<polygon fill="black" stroke="black" points="284.73,-469.116 285.323,-458.538 278.263,-466.437 284.73,-469.116"/>
</g>
<!-- trace_link15&#45;&gt;Male_S12\n Classtype = male1\n Name = 3.m -->
<g id="edge30" class="edge"><title>trace_link15&#45;&gt;Male_S12\n Classtype = male1\n Name = 3.m</title>
<path fill="none" stroke="black" d="M327,-124.379C327,-116.81 327,-107.638 327,-98.236"/>
<polygon fill="black" stroke="black" points="330.5,-98.0084 327,-88.0084 323.5,-98.0084 330.5,-98.0084"/>
</g>
<!-- directLink_T16\n&#45;&gt;Male_T13\n Classtype = male1\n Name = 3.m -->
<g id="edge36" class="edge"><title>directLink_T16\n&#45;&gt;Male_T13\n Classtype = male1\n Name = 3.m</title>
<path fill="none" stroke="black" d="M431.82,-323.072C418.757,-312.968 401.799,-299.852 385.344,-287.125"/>
<polygon fill="black" stroke="black" points="387.377,-284.273 377.326,-280.924 383.094,-289.81 387.377,-284.273"/>
</g>
<!-- indirectLink_S17&#45;&gt;Male_S12\n Classtype = male1\n Name = 3.m -->
<g id="edge40" class="edge"><title>indirectLink_S17&#45;&gt;Male_S12\n Classtype = male1\n Name = 3.m</title>
<path fill="none" stroke="black" d="M525.727,-126.318C494.699,-113.465 450.701,-95.2404 411.989,-79.2047"/>
<polygon fill="black" stroke="black" points="412.85,-75.773 402.272,-75.1796 410.171,-82.2401 412.85,-75.773"/>
</g>
</g>
</svg>
