<?xml version="1.0" encoding="UTF-8" standalone="no"?>
<!DOCTYPE svg PUBLIC "-//W3C//DTD SVG 1.1//EN"
 "http://www.w3.org/Graphics/SVG/1.1/DTD/svg11.dtd">
<!-- Generated by graphviz version 2.26.3 (20100126.1600)
 -->
<!-- Title: HEmptyPathCondition_HS2S_HM2M_HF2F Pages: 1 -->
<svg width="2196pt" height="888pt"
 viewBox="0.00 0.00 2196.00 888.00" xmlns="http://www.w3.org/2000/svg" xmlns:xlink="http://www.w3.org/1999/xlink">
<g id="graph1" class="graph" transform="scale(1 1) rotate(0) translate(4 884)">
<title>HEmptyPathCondition_HS2S_HM2M_HF2F</title>
<polygon fill="white" stroke="white" points="-4,5 -4,-884 2193,-884 2193,5 -4,5"/>
<!-- apply_contains0 -->
<g id="node1" class="node"><title>apply_contains0</title>
<ellipse fill="#fcdb58" stroke="black" cx="495" cy="-639" rx="90.0096" ry="18.3848"/>
<text text-anchor="middle" x="495" y="-635.4" font-family="Times Roman,serif" font-size="14.00">apply_contains0</text>
</g>
<!-- Station_T7\n Classtype = t_\n Name = s_ -->
<g id="node8" class="node"><title>Station_T7\n Classtype = t_\n Name = s_</title>
<ellipse fill="lightblue" stroke="black" cx="495" cy="-540" rx="85.7684" ry="43.8406"/>
<text text-anchor="middle" x="495" y="-554.4" font-family="Times Roman,serif" font-size="14.00">Station_T7</text>
<text text-anchor="middle" x="495" y="-536.4" font-family="Times Roman,serif" font-size="14.00"> Classtype = t_</text>
<text text-anchor="middle" x="495" y="-518.4" font-family="Times Roman,serif" font-size="14.00"> Name = s_</text>
</g>
<!-- apply_contains0&#45;&gt;Station_T7\n Classtype = t_\n Name = s_ -->
<g id="edge4" class="edge"><title>apply_contains0&#45;&gt;Station_T7\n Classtype = t_\n Name = s_</title>
<path fill="none" stroke="black" d="M495,-620.379C495,-612.81 495,-603.638 495,-594.236"/>
<polygon fill="black" stroke="black" points="498.5,-594.008 495,-584.008 491.5,-594.008 498.5,-594.008"/>
</g>
<!-- hasAttr_T1\n Classtype = None\n Name = None -->
<g id="node2" class="node"><title>hasAttr_T1\n Classtype = None\n Name = None</title>
<ellipse fill="lightblue" stroke="black" cx="389" cy="-416" rx="101.823" ry="43.8406"/>
<text text-anchor="middle" x="389" y="-430.4" font-family="Times Roman,serif" font-size="14.00">hasAttr_T1</text>
<text text-anchor="middle" x="389" y="-412.4" font-family="Times Roman,serif" font-size="14.00"> Classtype = None</text>
<text text-anchor="middle" x="389" y="-394.4" font-family="Times Roman,serif" font-size="14.00"> Name = None</text>
</g>
<!-- Attribute13\n Classtype = None\n Name = name -->
<g id="node14" class="node"><title>Attribute13\n Classtype = None\n Name = name</title>
<ellipse fill="lightblue" stroke="black" cx="273" cy="-292" rx="101.823" ry="43.8406"/>
<text text-anchor="middle" x="273" y="-306.4" font-family="Times Roman,serif" font-size="14.00">Attribute13</text>
<text text-anchor="middle" x="273" y="-288.4" font-family="Times Roman,serif" font-size="14.00"> Classtype = None</text>
<text text-anchor="middle" x="273" y="-270.4" font-family="Times Roman,serif" font-size="14.00"> Name = name</text>
</g>
<!-- hasAttr_T1\n Classtype = None\n Name = None&#45;&gt;Attribute13\n Classtype = None\n Name = name -->
<g id="edge8" class="edge"><title>hasAttr_T1\n Classtype = None\n Name = None&#45;&gt;Attribute13\n Classtype = None\n Name = name</title>
<path fill="none" stroke="black" d="M350.696,-375.054C340.302,-363.943 328.951,-351.809 318.214,-340.332"/>
<polygon fill="black" stroke="black" points="320.652,-337.815 311.264,-332.903 315.54,-342.597 320.652,-337.815"/>
</g>
<!-- leftExpr2\n Classtype = None\n Name = None -->
<g id="node3" class="node"><title>leftExpr2\n Classtype = None\n Name = None</title>
<ellipse fill="lightblue" stroke="black" cx="118" cy="-168" rx="101.823" ry="43.8406"/>
<text text-anchor="middle" x="118" y="-182.4" font-family="Times Roman,serif" font-size="14.00">leftExpr2</text>
<text text-anchor="middle" x="118" y="-164.4" font-family="Times Roman,serif" font-size="14.00"> Classtype = None</text>
<text text-anchor="middle" x="118" y="-146.4" font-family="Times Roman,serif" font-size="14.00"> Name = None</text>
</g>
<!-- Attribute12\n Classtype = None\n Name = name -->
<g id="node13" class="node"><title>Attribute12\n Classtype = None\n Name = name</title>
<ellipse fill="lightblue" stroke="black" cx="269" cy="-44" rx="101.823" ry="43.8406"/>
<text text-anchor="middle" x="269" y="-58.4" font-family="Times Roman,serif" font-size="14.00">Attribute12</text>
<text text-anchor="middle" x="269" y="-40.4" font-family="Times Roman,serif" font-size="14.00"> Classtype = None</text>
<text text-anchor="middle" x="269" y="-22.4" font-family="Times Roman,serif" font-size="14.00"> Name = name</text>
</g>
<!-- leftExpr2\n Classtype = None\n Name = None&#45;&gt;Attribute12\n Classtype = None\n Name = name -->
<g id="edge12" class="edge"><title>leftExpr2\n Classtype = None\n Name = None&#45;&gt;Attribute12\n Classtype = None\n Name = name</title>
<path fill="none" stroke="black" d="M165.777,-128.766C180.934,-116.319 197.822,-102.451 213.476,-89.596"/>
<polygon fill="black" stroke="black" points="216.027,-92.0303 221.533,-82.9791 211.584,-86.6206 216.027,-92.0303"/>
</g>
<!-- paired_with3 -->
<g id="node4" class="node"><title>paired_with3</title>
<ellipse fill="lightgray" stroke="black" cx="516" cy="-787" rx="75.1594" ry="18.3848"/>
<text text-anchor="middle" x="516" y="-783.4" font-family="Times Roman,serif" font-size="14.00">paired_with3</text>
</g>
<!-- ApplyModel5 -->
<g id="node6" class="node"><title>ApplyModel5</title>
<ellipse fill="#fed017" stroke="black" cx="495" cy="-713" rx="73.0388" ry="18.3848"/>
<text text-anchor="middle" x="495" y="-709.4" font-family="Times Roman,serif" font-size="14.00">ApplyModel5</text>
</g>
<!-- paired_with3&#45;&gt;ApplyModel5 -->
<g id="edge16" class="edge"><title>paired_with3&#45;&gt;ApplyModel5</title>
<path fill="none" stroke="black" d="M510.701,-768.327C508.388,-760.176 505.624,-750.438 503.065,-741.42"/>
<polygon fill="black" stroke="black" points="506.395,-740.332 500.297,-731.667 499.661,-742.243 506.395,-740.332"/>
</g>
<!-- hasAttr_S4\n Classtype = None\n Name = None -->
<g id="node5" class="node"><title>hasAttr_S4\n Classtype = None\n Name = None</title>
<ellipse fill="lightblue" stroke="black" cx="420" cy="-168" rx="101.823" ry="43.8406"/>
<text text-anchor="middle" x="420" y="-182.4" font-family="Times Roman,serif" font-size="14.00">hasAttr_S4</text>
<text text-anchor="middle" x="420" y="-164.4" font-family="Times Roman,serif" font-size="14.00"> Classtype = None</text>
<text text-anchor="middle" x="420" y="-146.4" font-family="Times Roman,serif" font-size="14.00"> Name = None</text>
</g>
<!-- hasAttr_S4\n Classtype = None\n Name = None&#45;&gt;Attribute12\n Classtype = None\n Name = name -->
<g id="edge20" class="edge"><title>hasAttr_S4\n Classtype = None\n Name = None&#45;&gt;Attribute12\n Classtype = None\n Name = name</title>
<path fill="none" stroke="black" d="M372.223,-128.766C357.066,-116.319 340.178,-102.451 324.524,-89.596"/>
<polygon fill="black" stroke="black" points="326.416,-86.6206 316.467,-82.9791 321.973,-92.0303 326.416,-86.6206"/>
</g>
<!-- ApplyModel5&#45;&gt;apply_contains0 -->
<g id="edge2" class="edge"><title>ApplyModel5&#45;&gt;apply_contains0</title>
<path fill="none" stroke="black" d="M495,-694.327C495,-686.264 495,-676.648 495,-667.711"/>
<polygon fill="black" stroke="black" points="498.5,-667.667 495,-657.667 491.5,-667.667 498.5,-667.667"/>
</g>
<!-- Station_S6\n Classtype = 1\n Name = s_ -->
<g id="node7" class="node"><title>Station_S6\n Classtype = 1\n Name = s_</title>
<ellipse fill="lightblue" stroke="black" cx="581" cy="-292" rx="82.2301" ry="43.8406"/>
<text text-anchor="middle" x="581" y="-306.4" font-family="Times Roman,serif" font-size="14.00">Station_S6</text>
<text text-anchor="middle" x="581" y="-288.4" font-family="Times Roman,serif" font-size="14.00"> Classtype = 1</text>
<text text-anchor="middle" x="581" y="-270.4" font-family="Times Roman,serif" font-size="14.00"> Name = s_</text>
</g>
<!-- Station_S6\n Classtype = 1\n Name = s_&#45;&gt;hasAttr_S4\n Classtype = None\n Name = None -->
<g id="edge18" class="edge"><title>Station_S6\n Classtype = 1\n Name = s_&#45;&gt;hasAttr_S4\n Classtype = None\n Name = None</title>
<path fill="none" stroke="black" d="M533.999,-255.801C516.533,-242.349 496.507,-226.924 478.161,-212.795"/>
<polygon fill="black" stroke="black" points="479.924,-209.735 469.865,-206.406 475.652,-215.281 479.924,-209.735"/>
</g>
<!-- Station_T7\n Classtype = t_\n Name = s_&#45;&gt;hasAttr_T1\n Classtype = None\n Name = None -->
<g id="edge6" class="edge"><title>Station_T7\n Classtype = t_\n Name = s_&#45;&gt;hasAttr_T1\n Classtype = None\n Name = None</title>
<path fill="none" stroke="black" d="M460.292,-499.398C450.971,-488.494 440.789,-476.584 431.114,-465.265"/>
<polygon fill="black" stroke="black" points="433.671,-462.87 424.513,-457.543 428.35,-467.419 433.671,-462.87"/>
</g>
<!-- trace_link14 -->
<g id="node15" class="node"><title>trace_link14</title>
<ellipse fill="#eedd82" stroke="black" cx="581" cy="-416" rx="72.1249" ry="18.3848"/>
<text text-anchor="middle" x="581" y="-412.4" font-family="Times Roman,serif" font-size="14.00">trace_link14</text>
</g>
<!-- Station_T7\n Classtype = t_\n Name = s_&#45;&gt;trace_link14 -->
<g id="edge32" class="edge"><title>Station_T7\n Classtype = t_\n Name = s_&#45;&gt;trace_link14</title>
<path fill="none" stroke="black" d="M523.876,-498.365C536.557,-480.081 551.082,-459.138 562.311,-442.946"/>
<polygon fill="black" stroke="black" points="565.356,-444.698 568.179,-434.487 559.604,-440.709 565.356,-444.698"/>
</g>
<!-- Equation8\n Classtype = None\n Name = None -->
<g id="node9" class="node"><title>Equation8\n Classtype = None\n Name = None</title>
<ellipse fill="lightblue" stroke="black" cx="102" cy="-540" rx="101.823" ry="43.8406"/>
<text text-anchor="middle" x="102" y="-554.4" font-family="Times Roman,serif" font-size="14.00">Equation8</text>
<text text-anchor="middle" x="102" y="-536.4" font-family="Times Roman,serif" font-size="14.00"> Classtype = None</text>
<text text-anchor="middle" x="102" y="-518.4" font-family="Times Roman,serif" font-size="14.00"> Name = None</text>
</g>
<!-- Equation8\n Classtype = None\n Name = None&#45;&gt;leftExpr2\n Classtype = None\n Name = None -->
<g id="edge10" class="edge"><title>Equation8\n Classtype = None\n Name = None&#45;&gt;leftExpr2\n Classtype = None\n Name = None</title>
<path fill="none" stroke="black" d="M72.3092,-497.796C65.6177,-486.085 59.4717,-473.002 56,-460 33.9013,-377.235 66.1898,-279.61 91.8438,-220.823"/>
<polygon fill="black" stroke="black" points="95.1806,-221.933 96.0561,-211.375 88.7873,-219.083 95.1806,-221.933"/>
</g>
<!-- rightExpr10\n Classtype = None\n Name = None -->
<g id="node11" class="node"><title>rightExpr10\n Classtype = None\n Name = None</title>
<ellipse fill="lightblue" stroke="black" cx="167" cy="-416" rx="101.823" ry="43.8406"/>
<text text-anchor="middle" x="167" y="-430.4" font-family="Times Roman,serif" font-size="14.00">rightExpr10</text>
<text text-anchor="middle" x="167" y="-412.4" font-family="Times Roman,serif" font-size="14.00"> Classtype = None</text>
<text text-anchor="middle" x="167" y="-394.4" font-family="Times Roman,serif" font-size="14.00"> Name = None</text>
</g>
<!-- Equation8\n Classtype = None\n Name = None&#45;&gt;rightExpr10\n Classtype = None\n Name = None -->
<g id="edge24" class="edge"><title>Equation8\n Classtype = None\n Name = None&#45;&gt;rightExpr10\n Classtype = None\n Name = None</title>
<path fill="none" stroke="black" d="M124.551,-496.979C129.442,-487.649 134.665,-477.685 139.716,-468.05"/>
<polygon fill="black" stroke="black" points="142.946,-469.427 144.488,-458.945 136.746,-466.177 142.946,-469.427"/>
</g>
<!-- match_contains9 -->
<g id="node10" class="node"><title>match_contains9</title>
<ellipse fill="#f798a1" stroke="black" cx="681" cy="-713" rx="94.7523" ry="18.3848"/>
<text text-anchor="middle" x="681" y="-709.4" font-family="Times Roman,serif" font-size="14.00">match_contains9</text>
</g>
<!-- match_contains9&#45;&gt;Station_S6\n Classtype = 1\n Name = s_ -->
<g id="edge22" class="edge"><title>match_contains9&#45;&gt;Station_S6\n Classtype = 1\n Name = s_</title>
<path fill="none" stroke="black" d="M684.465,-694.162C693.369,-640.764 712.942,-484.968 662,-372 655.927,-358.532 646.494,-346.108 636.182,-335.267"/>
<polygon fill="black" stroke="black" points="638.479,-332.615 628.932,-328.021 633.531,-337.566 638.479,-332.615"/>
</g>
<!-- rightExpr10\n Classtype = None\n Name = None&#45;&gt;Attribute13\n Classtype = None\n Name = name -->
<g id="edge28" class="edge"><title>rightExpr10\n Classtype = None\n Name = None&#45;&gt;Attribute13\n Classtype = None\n Name = name</title>
<path fill="none" stroke="black" d="M202.296,-374.71C211.407,-364.052 221.307,-352.471 230.734,-341.444"/>
<polygon fill="black" stroke="black" points="233.659,-343.408 237.496,-333.533 228.338,-338.86 233.659,-343.408"/>
</g>
<!-- MatchModel11 -->
<g id="node12" class="node"><title>MatchModel11</title>
<ellipse fill="#e15c34" stroke="black" cx="578" cy="-861" rx="82.2301" ry="18.3848"/>
<text text-anchor="middle" x="578" y="-857.4" font-family="Times Roman,serif" font-size="14.00">MatchModel11</text>
</g>
<!-- MatchModel11&#45;&gt;paired_with3 -->
<g id="edge14" class="edge"><title>MatchModel11&#45;&gt;paired_with3</title>
<path fill="none" stroke="black" d="M562.674,-842.708C555.222,-833.814 546.13,-822.962 537.957,-813.207"/>
<polygon fill="black" stroke="black" points="540.469,-810.756 531.364,-805.338 535.104,-815.251 540.469,-810.756"/>
</g>
<!-- MatchModel11&#45;&gt;match_contains9 -->
<g id="edge26" class="edge"><title>MatchModel11&#45;&gt;match_contains9</title>
<path fill="none" stroke="black" d="M590.837,-842.555C608.801,-816.742 641.556,-769.677 662.251,-739.94"/>
<polygon fill="black" stroke="black" points="665.162,-741.885 668.001,-731.678 659.416,-737.886 665.162,-741.885"/>
</g>
<!-- trace_link14&#45;&gt;Station_S6\n Classtype = 1\n Name = s_ -->
<g id="edge30" class="edge"><title>trace_link14&#45;&gt;Station_S6\n Classtype = 1\n Name = s_</title>
<path fill="none" stroke="black" d="M581,-397.436C581,-383.812 581,-364.564 581,-346.235"/>
<polygon fill="black" stroke="black" points="584.5,-346.189 581,-336.189 577.5,-346.189 584.5,-346.189"/>
</g>
<!-- apply_contains15 -->
<g id="node16" class="node"><title>apply_contains15</title>
<ellipse fill="#fcdb58" stroke="black" cx="1164" cy="-639" rx="96.8736" ry="18.3848"/>
<text text-anchor="middle" x="1164" y="-635.4" font-family="Times Roman,serif" font-size="14.00">apply_contains15</text>
</g>
<!-- Male_T23\n Classtype = t_\n Name = s_ -->
<g id="node24" class="node"><title>Male_T23\n Classtype = t_\n Name = s_</title>
<ellipse fill="lightblue" stroke="black" cx="1164" cy="-540" rx="85.7684" ry="43.8406"/>
<text text-anchor="middle" x="1164" y="-554.4" font-family="Times Roman,serif" font-size="14.00">Male_T23</text>
<text text-anchor="middle" x="1164" y="-536.4" font-family="Times Roman,serif" font-size="14.00"> Classtype = t_</text>
<text text-anchor="middle" x="1164" y="-518.4" font-family="Times Roman,serif" font-size="14.00"> Name = s_</text>
</g>
<!-- apply_contains15&#45;&gt;Male_T23\n Classtype = t_\n Name = s_ -->
<g id="edge36" class="edge"><title>apply_contains15&#45;&gt;Male_T23\n Classtype = t_\n Name = s_</title>
<path fill="none" stroke="black" d="M1164,-620.379C1164,-612.81 1164,-603.638 1164,-594.236"/>
<polygon fill="black" stroke="black" points="1167.5,-594.008 1164,-584.008 1160.5,-594.008 1167.5,-594.008"/>
</g>
<!-- hasAttr_T16\n Classtype = None\n Name = None -->
<g id="node17" class="node"><title>hasAttr_T16\n Classtype = None\n Name = None</title>
<ellipse fill="lightblue" stroke="black" cx="1071" cy="-416" rx="101.823" ry="43.8406"/>
<text text-anchor="middle" x="1071" y="-430.4" font-family="Times Roman,serif" font-size="14.00">hasAttr_T16</text>
<text text-anchor="middle" x="1071" y="-412.4" font-family="Times Roman,serif" font-size="14.00"> Classtype = None</text>
<text text-anchor="middle" x="1071" y="-394.4" font-family="Times Roman,serif" font-size="14.00"> Name = None</text>
</g>
<!-- Attribute28\n Classtype = None\n Name = name -->
<g id="node29" class="node"><title>Attribute28\n Classtype = None\n Name = name</title>
<ellipse fill="lightblue" stroke="black" cx="955" cy="-292" rx="101.823" ry="43.8406"/>
<text text-anchor="middle" x="955" y="-306.4" font-family="Times Roman,serif" font-size="14.00">Attribute28</text>
<text text-anchor="middle" x="955" y="-288.4" font-family="Times Roman,serif" font-size="14.00"> Classtype = None</text>
<text text-anchor="middle" x="955" y="-270.4" font-family="Times Roman,serif" font-size="14.00"> Name = name</text>
</g>
<!-- hasAttr_T16\n Classtype = None\n Name = None&#45;&gt;Attribute28\n Classtype = None\n Name = name -->
<g id="edge40" class="edge"><title>hasAttr_T16\n Classtype = None\n Name = None&#45;&gt;Attribute28\n Classtype = None\n Name = name</title>
<path fill="none" stroke="black" d="M1032.7,-375.054C1022.3,-363.943 1010.95,-351.809 1000.21,-340.332"/>
<polygon fill="black" stroke="black" points="1002.65,-337.815 993.264,-332.903 997.54,-342.597 1002.65,-337.815"/>
</g>
<!-- leftExpr17\n Classtype = None\n Name = None -->
<g id="node18" class="node"><title>leftExpr17\n Classtype = None\n Name = None</title>
<ellipse fill="lightblue" stroke="black" cx="869" cy="-168" rx="101.823" ry="43.8406"/>
<text text-anchor="middle" x="869" y="-182.4" font-family="Times Roman,serif" font-size="14.00">leftExpr17</text>
<text text-anchor="middle" x="869" y="-164.4" font-family="Times Roman,serif" font-size="14.00"> Classtype = None</text>
<text text-anchor="middle" x="869" y="-146.4" font-family="Times Roman,serif" font-size="14.00"> Name = None</text>
</g>
<!-- Attribute27\n Classtype = None\n Name = name -->
<g id="node28" class="node"><title>Attribute27\n Classtype = None\n Name = name</title>
<ellipse fill="lightblue" stroke="black" cx="1015" cy="-44" rx="101.823" ry="43.8406"/>
<text text-anchor="middle" x="1015" y="-58.4" font-family="Times Roman,serif" font-size="14.00">Attribute27</text>
<text text-anchor="middle" x="1015" y="-40.4" font-family="Times Roman,serif" font-size="14.00"> Classtype = None</text>
<text text-anchor="middle" x="1015" y="-22.4" font-family="Times Roman,serif" font-size="14.00"> Name = name</text>
</g>
<!-- leftExpr17\n Classtype = None\n Name = None&#45;&gt;Attribute27\n Classtype = None\n Name = name -->
<g id="edge44" class="edge"><title>leftExpr17\n Classtype = None\n Name = None&#45;&gt;Attribute27\n Classtype = None\n Name = name</title>
<path fill="none" stroke="black" d="M915.195,-128.766C929.708,-116.44 945.862,-102.72 960.873,-89.9707"/>
<polygon fill="black" stroke="black" points="963.248,-92.5459 968.604,-83.4048 958.716,-87.2105 963.248,-92.5459"/>
</g>
<!-- paired_with18 -->
<g id="node19" class="node"><title>paired_with18</title>
<ellipse fill="lightgray" stroke="black" cx="1187" cy="-787" rx="82.0244" ry="18.3848"/>
<text text-anchor="middle" x="1187" y="-783.4" font-family="Times Roman,serif" font-size="14.00">paired_with18</text>
</g>
<!-- ApplyModel20 -->
<g id="node21" class="node"><title>ApplyModel20</title>
<ellipse fill="#fed017" stroke="black" cx="1164" cy="-713" rx="79.9031" ry="18.3848"/>
<text text-anchor="middle" x="1164" y="-709.4" font-family="Times Roman,serif" font-size="14.00">ApplyModel20</text>
</g>
<!-- paired_with18&#45;&gt;ApplyModel20 -->
<g id="edge48" class="edge"><title>paired_with18&#45;&gt;ApplyModel20</title>
<path fill="none" stroke="black" d="M1181.2,-768.327C1178.66,-760.176 1175.64,-750.438 1172.83,-741.42"/>
<polygon fill="black" stroke="black" points="1176.11,-740.178 1169.8,-731.667 1169.43,-742.256 1176.11,-740.178"/>
</g>
<!-- hasAttr_S19\n Classtype = None\n Name = None -->
<g id="node20" class="node"><title>hasAttr_S19\n Classtype = None\n Name = None</title>
<ellipse fill="lightblue" stroke="black" cx="1161" cy="-168" rx="101.823" ry="43.8406"/>
<text text-anchor="middle" x="1161" y="-182.4" font-family="Times Roman,serif" font-size="14.00">hasAttr_S19</text>
<text text-anchor="middle" x="1161" y="-164.4" font-family="Times Roman,serif" font-size="14.00"> Classtype = None</text>
<text text-anchor="middle" x="1161" y="-146.4" font-family="Times Roman,serif" font-size="14.00"> Name = None</text>
</g>
<!-- hasAttr_S19\n Classtype = None\n Name = None&#45;&gt;Attribute27\n Classtype = None\n Name = name -->
<g id="edge52" class="edge"><title>hasAttr_S19\n Classtype = None\n Name = None&#45;&gt;Attribute27\n Classtype = None\n Name = name</title>
<path fill="none" stroke="black" d="M1114.8,-128.766C1100.29,-116.44 1084.14,-102.72 1069.13,-89.9707"/>
<polygon fill="black" stroke="black" points="1071.28,-87.2105 1061.4,-83.4048 1066.75,-92.5459 1071.28,-87.2105"/>
</g>
<!-- ApplyModel20&#45;&gt;apply_contains15 -->
<g id="edge34" class="edge"><title>ApplyModel20&#45;&gt;apply_contains15</title>
<path fill="none" stroke="black" d="M1164,-694.327C1164,-686.264 1164,-676.648 1164,-667.711"/>
<polygon fill="black" stroke="black" points="1167.5,-667.667 1164,-657.667 1160.5,-667.667 1167.5,-667.667"/>
</g>
<!-- Equation21\n Classtype = None\n Name = None -->
<g id="node22" class="node"><title>Equation21\n Classtype = None\n Name = None</title>
<ellipse fill="lightblue" stroke="black" cx="830" cy="-540" rx="101.823" ry="43.8406"/>
<text text-anchor="middle" x="830" y="-554.4" font-family="Times Roman,serif" font-size="14.00">Equation21</text>
<text text-anchor="middle" x="830" y="-536.4" font-family="Times Roman,serif" font-size="14.00"> Classtype = None</text>
<text text-anchor="middle" x="830" y="-518.4" font-family="Times Roman,serif" font-size="14.00"> Name = None</text>
</g>
<!-- Equation21\n Classtype = None\n Name = None&#45;&gt;leftExpr17\n Classtype = None\n Name = None -->
<g id="edge42" class="edge"><title>Equation21\n Classtype = None\n Name = None&#45;&gt;leftExpr17\n Classtype = None\n Name = None</title>
<path fill="none" stroke="black" d="M772.637,-503.347C758.706,-491.364 745.635,-476.757 738,-460 721.784,-424.409 726.988,-409.529 738,-372 755.094,-313.745 794.513,-256.374 825.672,-217.384"/>
<polygon fill="black" stroke="black" points="828.607,-219.322 832.185,-209.35 823.169,-214.914 828.607,-219.322"/>
</g>
<!-- rightExpr24\n Classtype = None\n Name = None -->
<g id="node25" class="node"><title>rightExpr24\n Classtype = None\n Name = None</title>
<ellipse fill="lightblue" stroke="black" cx="849" cy="-416" rx="101.823" ry="43.8406"/>
<text text-anchor="middle" x="849" y="-430.4" font-family="Times Roman,serif" font-size="14.00">rightExpr24</text>
<text text-anchor="middle" x="849" y="-412.4" font-family="Times Roman,serif" font-size="14.00"> Classtype = None</text>
<text text-anchor="middle" x="849" y="-394.4" font-family="Times Roman,serif" font-size="14.00"> Name = None</text>
</g>
<!-- Equation21\n Classtype = None\n Name = None&#45;&gt;rightExpr24\n Classtype = None\n Name = None -->
<g id="edge54" class="edge"><title>Equation21\n Classtype = None\n Name = None&#45;&gt;rightExpr24\n Classtype = None\n Name = None</title>
<path fill="none" stroke="black" d="M836.752,-495.933C838.04,-487.527 839.402,-478.641 840.731,-469.967"/>
<polygon fill="black" stroke="black" points="844.215,-470.34 842.27,-459.925 837.295,-469.28 844.215,-470.34"/>
</g>
<!-- match_contains22 -->
<g id="node23" class="node"><title>match_contains22</title>
<ellipse fill="#f798a1" stroke="black" cx="1363" cy="-713" rx="101.116" ry="18.3848"/>
<text text-anchor="middle" x="1363" y="-709.4" font-family="Times Roman,serif" font-size="14.00">match_contains22</text>
</g>
<!-- Male_S26\n Classtype = 1\n Name = s_ -->
<g id="node27" class="node"><title>Male_S26\n Classtype = 1\n Name = s_</title>
<ellipse fill="lightblue" stroke="black" cx="1263" cy="-292" rx="82.2301" ry="43.8406"/>
<text text-anchor="middle" x="1263" y="-306.4" font-family="Times Roman,serif" font-size="14.00">Male_S26</text>
<text text-anchor="middle" x="1263" y="-288.4" font-family="Times Roman,serif" font-size="14.00"> Classtype = 1</text>
<text text-anchor="middle" x="1263" y="-270.4" font-family="Times Roman,serif" font-size="14.00"> Name = s_</text>
</g>
<!-- match_contains22&#45;&gt;Male_S26\n Classtype = 1\n Name = s_ -->
<g id="edge58" class="edge"><title>match_contains22&#45;&gt;Male_S26\n Classtype = 1\n Name = s_</title>
<path fill="none" stroke="black" d="M1366.47,-694.162C1375.37,-640.764 1394.94,-484.968 1344,-372 1337.93,-358.532 1328.49,-346.108 1318.18,-335.267"/>
<polygon fill="black" stroke="black" points="1320.48,-332.615 1310.93,-328.021 1315.53,-337.566 1320.48,-332.615"/>
</g>
<!-- Male_T23\n Classtype = t_\n Name = s_&#45;&gt;hasAttr_T16\n Classtype = None\n Name = None -->
<g id="edge38" class="edge"><title>Male_T23\n Classtype = t_\n Name = s_&#45;&gt;hasAttr_T16\n Classtype = None\n Name = None</title>
<path fill="none" stroke="black" d="M1133.03,-498.71C1125.2,-488.267 1116.7,-476.94 1108.59,-466.114"/>
<polygon fill="black" stroke="black" points="1111.27,-463.856 1102.47,-457.956 1105.67,-468.056 1111.27,-463.856"/>
</g>
<!-- trace_link29 -->
<g id="node30" class="node"><title>trace_link29</title>
<ellipse fill="#eedd82" stroke="black" cx="1263" cy="-416" rx="72.1249" ry="18.3848"/>
<text text-anchor="middle" x="1263" y="-412.4" font-family="Times Roman,serif" font-size="14.00">trace_link29</text>
</g>
<!-- Male_T23\n Classtype = t_\n Name = s_&#45;&gt;trace_link29 -->
<g id="edge64" class="edge"><title>Male_T23\n Classtype = t_\n Name = s_&#45;&gt;trace_link29</title>
<path fill="none" stroke="black" d="M1196.69,-499.054C1211.56,-480.432 1228.72,-458.934 1241.86,-442.476"/>
<polygon fill="black" stroke="black" points="1244.83,-444.369 1248.33,-434.371 1239.36,-440.002 1244.83,-444.369"/>
</g>
<!-- rightExpr24\n Classtype = None\n Name = None&#45;&gt;Attribute28\n Classtype = None\n Name = name -->
<g id="edge60" class="edge"><title>rightExpr24\n Classtype = None\n Name = None&#45;&gt;Attribute28\n Classtype = None\n Name = name</title>
<path fill="none" stroke="black" d="M884.296,-374.71C893.407,-364.052 903.307,-352.471 912.734,-341.444"/>
<polygon fill="black" stroke="black" points="915.659,-343.408 919.496,-333.533 910.338,-338.86 915.659,-343.408"/>
</g>
<!-- MatchModel25 -->
<g id="node26" class="node"><title>MatchModel25</title>
<ellipse fill="#e15c34" stroke="black" cx="1264" cy="-861" rx="82.2301" ry="18.3848"/>
<text text-anchor="middle" x="1264" y="-857.4" font-family="Times Roman,serif" font-size="14.00">MatchModel25</text>
</g>
<!-- MatchModel25&#45;&gt;paired_with18 -->
<g id="edge46" class="edge"><title>MatchModel25&#45;&gt;paired_with18</title>
<path fill="none" stroke="black" d="M1244.97,-842.708C1235.36,-833.478 1223.56,-822.14 1213.13,-812.107"/>
<polygon fill="black" stroke="black" points="1215.45,-809.487 1205.81,-805.082 1210.6,-814.535 1215.45,-809.487"/>
</g>
<!-- MatchModel25&#45;&gt;match_contains22 -->
<g id="edge56" class="edge"><title>MatchModel25&#45;&gt;match_contains22</title>
<path fill="none" stroke="black" d="M1276.34,-842.555C1293.53,-816.853 1324.82,-770.08 1344.72,-740.324"/>
<polygon fill="black" stroke="black" points="1347.86,-741.935 1350.51,-731.678 1342.04,-738.043 1347.86,-741.935"/>
</g>
<!-- Male_S26\n Classtype = 1\n Name = s_&#45;&gt;hasAttr_S19\n Classtype = None\n Name = None -->
<g id="edge50" class="edge"><title>Male_S26\n Classtype = 1\n Name = s_&#45;&gt;hasAttr_S19\n Classtype = None\n Name = None</title>
<path fill="none" stroke="black" d="M1229.88,-251.741C1220.9,-240.824 1211.08,-228.877 1201.73,-217.514"/>
<polygon fill="black" stroke="black" points="1204.41,-215.26 1195.35,-209.761 1199,-219.707 1204.41,-215.26"/>
</g>
<!-- trace_link29&#45;&gt;Male_S26\n Classtype = 1\n Name = s_ -->
<g id="edge62" class="edge"><title>trace_link29&#45;&gt;Male_S26\n Classtype = 1\n Name = s_</title>
<path fill="none" stroke="black" d="M1263,-397.436C1263,-383.812 1263,-364.564 1263,-346.235"/>
<polygon fill="black" stroke="black" points="1266.5,-346.189 1263,-336.189 1259.5,-346.189 1266.5,-346.189"/>
</g>
<!-- apply_contains30 -->
<g id="node31" class="node"><title>apply_contains30</title>
<ellipse fill="#fcdb58" stroke="black" cx="1888" cy="-639" rx="96.8736" ry="18.3848"/>
<text text-anchor="middle" x="1888" y="-635.4" font-family="Times Roman,serif" font-size="14.00">apply_contains30</text>
</g>
<!-- Female_T36\n Classtype = t_\n Name = s_ -->
<g id="node37" class="node"><title>Female_T36\n Classtype = t_\n Name = s_</title>
<ellipse fill="lightblue" stroke="black" cx="1888" cy="-540" rx="85.7684" ry="43.8406"/>
<text text-anchor="middle" x="1888" y="-554.4" font-family="Times Roman,serif" font-size="14.00">Female_T36</text>
<text text-anchor="middle" x="1888" y="-536.4" font-family="Times Roman,serif" font-size="14.00"> Classtype = t_</text>
<text text-anchor="middle" x="1888" y="-518.4" font-family="Times Roman,serif" font-size="14.00"> Name = s_</text>
</g>
<!-- apply_contains30&#45;&gt;Female_T36\n Classtype = t_\n Name = s_ -->
<g id="edge68" class="edge"><title>apply_contains30&#45;&gt;Female_T36\n Classtype = t_\n Name = s_</title>
<path fill="none" stroke="black" d="M1888,-620.379C1888,-612.81 1888,-603.638 1888,-594.236"/>
<polygon fill="black" stroke="black" points="1891.5,-594.008 1888,-584.008 1884.5,-594.008 1891.5,-594.008"/>
</g>
<!-- hasAttr_T31\n Classtype = None\n Name = None -->
<g id="node32" class="node"><title>hasAttr_T31\n Classtype = None\n Name = None</title>
<ellipse fill="lightblue" stroke="black" cx="1795" cy="-416" rx="101.823" ry="43.8406"/>
<text text-anchor="middle" x="1795" y="-430.4" font-family="Times Roman,serif" font-size="14.00">hasAttr_T31</text>
<text text-anchor="middle" x="1795" y="-412.4" font-family="Times Roman,serif" font-size="14.00"> Classtype = None</text>
<text text-anchor="middle" x="1795" y="-394.4" font-family="Times Roman,serif" font-size="14.00"> Name = None</text>
</g>
<!-- Attribute43\n Classtype = None\n Name = name -->
<g id="node44" class="node"><title>Attribute43\n Classtype = None\n Name = name</title>
<ellipse fill="lightblue" stroke="black" cx="1679" cy="-292" rx="101.823" ry="43.8406"/>
<text text-anchor="middle" x="1679" y="-306.4" font-family="Times Roman,serif" font-size="14.00">Attribute43</text>
<text text-anchor="middle" x="1679" y="-288.4" font-family="Times Roman,serif" font-size="14.00"> Classtype = None</text>
<text text-anchor="middle" x="1679" y="-270.4" font-family="Times Roman,serif" font-size="14.00"> Name = name</text>
</g>
<!-- hasAttr_T31\n Classtype = None\n Name = None&#45;&gt;Attribute43\n Classtype = None\n Name = name -->
<g id="edge72" class="edge"><title>hasAttr_T31\n Classtype = None\n Name = None&#45;&gt;Attribute43\n Classtype = None\n Name = name</title>
<path fill="none" stroke="black" d="M1756.7,-375.054C1746.3,-363.943 1734.95,-351.809 1724.21,-340.332"/>
<polygon fill="black" stroke="black" points="1726.65,-337.815 1717.26,-332.903 1721.54,-342.597 1726.65,-337.815"/>
</g>
<!-- leftExpr32\n Classtype = None\n Name = None -->
<g id="node33" class="node"><title>leftExpr32\n Classtype = None\n Name = None</title>
<ellipse fill="lightblue" stroke="black" cx="1523" cy="-168" rx="101.823" ry="43.8406"/>
<text text-anchor="middle" x="1523" y="-182.4" font-family="Times Roman,serif" font-size="14.00">leftExpr32</text>
<text text-anchor="middle" x="1523" y="-164.4" font-family="Times Roman,serif" font-size="14.00"> Classtype = None</text>
<text text-anchor="middle" x="1523" y="-146.4" font-family="Times Roman,serif" font-size="14.00"> Name = None</text>
</g>
<!-- Attribute42\n Classtype = None\n Name = name -->
<g id="node43" class="node"><title>Attribute42\n Classtype = None\n Name = name</title>
<ellipse fill="lightblue" stroke="black" cx="1714" cy="-44" rx="101.823" ry="43.8406"/>
<text text-anchor="middle" x="1714" y="-58.4" font-family="Times Roman,serif" font-size="14.00">Attribute42</text>
<text text-anchor="middle" x="1714" y="-40.4" font-family="Times Roman,serif" font-size="14.00"> Classtype = None</text>
<text text-anchor="middle" x="1714" y="-22.4" font-family="Times Roman,serif" font-size="14.00"> Name = name</text>
</g>
<!-- leftExpr32\n Classtype = None\n Name = None&#45;&gt;Attribute42\n Classtype = None\n Name = name -->
<g id="edge76" class="edge"><title>leftExpr32\n Classtype = None\n Name = None&#45;&gt;Attribute42\n Classtype = None\n Name = name</title>
<path fill="none" stroke="black" d="M1579.53,-131.299C1601.28,-117.178 1626.29,-100.943 1648.79,-86.3328"/>
<polygon fill="black" stroke="black" points="1650.8,-89.2018 1657.28,-80.8209 1646.99,-83.3306 1650.8,-89.2018"/>
</g>
<!-- paired_with33 -->
<g id="node34" class="node"><title>paired_with33</title>
<ellipse fill="lightgray" stroke="black" cx="1910" cy="-787" rx="82.0244" ry="18.3848"/>
<text text-anchor="middle" x="1910" y="-783.4" font-family="Times Roman,serif" font-size="14.00">paired_with33</text>
</g>
<!-- ApplyModel35 -->
<g id="node36" class="node"><title>ApplyModel35</title>
<ellipse fill="#fed017" stroke="black" cx="1888" cy="-713" rx="79.9031" ry="18.3848"/>
<text text-anchor="middle" x="1888" y="-709.4" font-family="Times Roman,serif" font-size="14.00">ApplyModel35</text>
</g>
<!-- paired_with33&#45;&gt;ApplyModel35 -->
<g id="edge80" class="edge"><title>paired_with33&#45;&gt;ApplyModel35</title>
<path fill="none" stroke="black" d="M1904.45,-768.327C1902.03,-760.176 1899.13,-750.438 1896.45,-741.42"/>
<polygon fill="black" stroke="black" points="1899.75,-740.255 1893.55,-731.667 1893.04,-742.25 1899.75,-740.255"/>
</g>
<!-- hasAttr_S34\n Classtype = None\n Name = None -->
<g id="node35" class="node"><title>hasAttr_S34\n Classtype = None\n Name = None</title>
<ellipse fill="lightblue" stroke="black" cx="1906" cy="-168" rx="101.823" ry="43.8406"/>
<text text-anchor="middle" x="1906" y="-182.4" font-family="Times Roman,serif" font-size="14.00">hasAttr_S34</text>
<text text-anchor="middle" x="1906" y="-164.4" font-family="Times Roman,serif" font-size="14.00"> Classtype = None</text>
<text text-anchor="middle" x="1906" y="-146.4" font-family="Times Roman,serif" font-size="14.00"> Name = None</text>
</g>
<!-- hasAttr_S34\n Classtype = None\n Name = None&#45;&gt;Attribute42\n Classtype = None\n Name = name -->
<g id="edge84" class="edge"><title>hasAttr_S34\n Classtype = None\n Name = None&#45;&gt;Attribute42\n Classtype = None\n Name = name</title>
<path fill="none" stroke="black" d="M1849.17,-131.299C1827.21,-117.114 1801.94,-100.797 1779.24,-86.1364"/>
<polygon fill="black" stroke="black" points="1780.98,-83.0918 1770.68,-80.6066 1777.18,-88.9721 1780.98,-83.0918"/>
</g>
<!-- ApplyModel35&#45;&gt;apply_contains30 -->
<g id="edge66" class="edge"><title>ApplyModel35&#45;&gt;apply_contains30</title>
<path fill="none" stroke="black" d="M1888,-694.327C1888,-686.264 1888,-676.648 1888,-667.711"/>
<polygon fill="black" stroke="black" points="1891.5,-667.667 1888,-657.667 1884.5,-667.667 1891.5,-667.667"/>
</g>
<!-- Female_T36\n Classtype = t_\n Name = s_&#45;&gt;hasAttr_T31\n Classtype = None\n Name = None -->
<g id="edge70" class="edge"><title>Female_T36\n Classtype = t_\n Name = s_&#45;&gt;hasAttr_T31\n Classtype = None\n Name = None</title>
<path fill="none" stroke="black" d="M1857.03,-498.71C1849.2,-488.267 1840.7,-476.94 1832.59,-466.114"/>
<polygon fill="black" stroke="black" points="1835.27,-463.856 1826.47,-457.956 1829.67,-468.056 1835.27,-463.856"/>
</g>
<!-- trace_link44 -->
<g id="node45" class="node"><title>trace_link44</title>
<ellipse fill="#eedd82" stroke="black" cx="1987" cy="-416" rx="72.1249" ry="18.3848"/>
<text text-anchor="middle" x="1987" y="-412.4" font-family="Times Roman,serif" font-size="14.00">trace_link44</text>
</g>
<!-- Female_T36\n Classtype = t_\n Name = s_&#45;&gt;trace_link44 -->
<g id="edge96" class="edge"><title>Female_T36\n Classtype = t_\n Name = s_&#45;&gt;trace_link44</title>
<path fill="none" stroke="black" d="M1920.69,-499.054C1935.56,-480.432 1952.72,-458.934 1965.86,-442.476"/>
<polygon fill="black" stroke="black" points="1968.83,-444.369 1972.33,-434.371 1963.36,-440.002 1968.83,-444.369"/>
</g>
<!-- Female_S37\n Classtype = 1\n Name = s_ -->
<g id="node38" class="node"><title>Female_S37\n Classtype = 1\n Name = s_</title>
<ellipse fill="lightblue" stroke="black" cx="1987" cy="-292" rx="82.2301" ry="43.8406"/>
<text text-anchor="middle" x="1987" y="-306.4" font-family="Times Roman,serif" font-size="14.00">Female_S37</text>
<text text-anchor="middle" x="1987" y="-288.4" font-family="Times Roman,serif" font-size="14.00"> Classtype = 1</text>
<text text-anchor="middle" x="1987" y="-270.4" font-family="Times Roman,serif" font-size="14.00"> Name = s_</text>
</g>
<!-- Female_S37\n Classtype = 1\n Name = s_&#45;&gt;hasAttr_S34\n Classtype = None\n Name = None -->
<g id="edge82" class="edge"><title>Female_S37\n Classtype = 1\n Name = s_&#45;&gt;hasAttr_S34\n Classtype = None\n Name = None</title>
<path fill="none" stroke="black" d="M1959.8,-250.365C1953.27,-240.361 1946.21,-229.561 1939.43,-219.179"/>
<polygon fill="black" stroke="black" points="1942.22,-217.041 1933.82,-210.583 1936.35,-220.869 1942.22,-217.041"/>
</g>
<!-- Equation38\n Classtype = None\n Name = None -->
<g id="node39" class="node"><title>Equation38\n Classtype = None\n Name = None</title>
<ellipse fill="lightblue" stroke="black" cx="1533" cy="-540" rx="101.823" ry="43.8406"/>
<text text-anchor="middle" x="1533" y="-554.4" font-family="Times Roman,serif" font-size="14.00">Equation38</text>
<text text-anchor="middle" x="1533" y="-536.4" font-family="Times Roman,serif" font-size="14.00"> Classtype = None</text>
<text text-anchor="middle" x="1533" y="-518.4" font-family="Times Roman,serif" font-size="14.00"> Name = None</text>
</g>
<!-- Equation38\n Classtype = None\n Name = None&#45;&gt;leftExpr32\n Classtype = None\n Name = None -->
<g id="edge74" class="edge"><title>Equation38\n Classtype = None\n Name = None&#45;&gt;leftExpr32\n Classtype = None\n Name = None</title>
<path fill="none" stroke="black" d="M1487.79,-500.354C1477.31,-488.533 1467.6,-474.756 1462,-460 1431.37,-379.346 1466.44,-280.012 1494.67,-220.462"/>
<polygon fill="black" stroke="black" points="1497.92,-221.781 1499.13,-211.256 1491.62,-218.729 1497.92,-221.781"/>
</g>
<!-- rightExpr40\n Classtype = None\n Name = None -->
<g id="node41" class="node"><title>rightExpr40\n Classtype = None\n Name = None</title>
<ellipse fill="lightblue" stroke="black" cx="1573" cy="-416" rx="101.823" ry="43.8406"/>
<text text-anchor="middle" x="1573" y="-430.4" font-family="Times Roman,serif" font-size="14.00">rightExpr40</text>
<text text-anchor="middle" x="1573" y="-412.4" font-family="Times Roman,serif" font-size="14.00"> Classtype = None</text>
<text text-anchor="middle" x="1573" y="-394.4" font-family="Times Roman,serif" font-size="14.00"> Name = None</text>
</g>
<!-- Equation38\n Classtype = None\n Name = None&#45;&gt;rightExpr40\n Classtype = None\n Name = None -->
<g id="edge88" class="edge"><title>Equation38\n Classtype = None\n Name = None&#45;&gt;rightExpr40\n Classtype = None\n Name = None</title>
<path fill="none" stroke="black" d="M1547.1,-496.282C1549.91,-487.577 1552.89,-478.344 1555.79,-469.358"/>
<polygon fill="black" stroke="black" points="1559.15,-470.333 1558.89,-459.741 1552.49,-468.183 1559.15,-470.333"/>
</g>
<!-- match_contains39 -->
<g id="node40" class="node"><title>match_contains39</title>
<ellipse fill="#f798a1" stroke="black" cx="2087" cy="-713" rx="101.116" ry="18.3848"/>
<text text-anchor="middle" x="2087" y="-709.4" font-family="Times Roman,serif" font-size="14.00">match_contains39</text>
</g>
<!-- match_contains39&#45;&gt;Female_S37\n Classtype = 1\n Name = s_ -->
<g id="edge86" class="edge"><title>match_contains39&#45;&gt;Female_S37\n Classtype = 1\n Name = s_</title>
<path fill="none" stroke="black" d="M2090.47,-694.162C2099.37,-640.764 2118.94,-484.968 2068,-372 2061.93,-358.532 2052.49,-346.108 2042.18,-335.267"/>
<polygon fill="black" stroke="black" points="2044.48,-332.615 2034.93,-328.021 2039.53,-337.566 2044.48,-332.615"/>
</g>
<!-- rightExpr40\n Classtype = None\n Name = None&#45;&gt;Attribute43\n Classtype = None\n Name = name -->
<g id="edge92" class="edge"><title>rightExpr40\n Classtype = None\n Name = None&#45;&gt;Attribute43\n Classtype = None\n Name = name</title>
<path fill="none" stroke="black" d="M1608.3,-374.71C1617.41,-364.052 1627.31,-352.471 1636.73,-341.444"/>
<polygon fill="black" stroke="black" points="1639.66,-343.408 1643.5,-333.533 1634.34,-338.86 1639.66,-343.408"/>
</g>
<!-- MatchModel41 -->
<g id="node42" class="node"><title>MatchModel41</title>
<ellipse fill="#e15c34" stroke="black" cx="1987" cy="-861" rx="82.2301" ry="18.3848"/>
<text text-anchor="middle" x="1987" y="-857.4" font-family="Times Roman,serif" font-size="14.00">MatchModel41</text>
</g>
<!-- MatchModel41&#45;&gt;paired_with33 -->
<g id="edge78" class="edge"><title>MatchModel41&#45;&gt;paired_with33</title>
<path fill="none" stroke="black" d="M1967.97,-842.708C1958.36,-833.478 1946.56,-822.14 1936.13,-812.107"/>
<polygon fill="black" stroke="black" points="1938.45,-809.487 1928.81,-805.082 1933.6,-814.535 1938.45,-809.487"/>
</g>
<!-- MatchModel41&#45;&gt;match_contains39 -->
<g id="edge90" class="edge"><title>MatchModel41&#45;&gt;match_contains39</title>
<path fill="none" stroke="black" d="M1999.46,-842.555C2016.83,-816.853 2048.43,-770.08 2068.54,-740.324"/>
<polygon fill="black" stroke="black" points="2071.68,-741.923 2074.38,-731.678 2065.88,-738.004 2071.68,-741.923"/>
</g>
<!-- trace_link44&#45;&gt;Female_S37\n Classtype = 1\n Name = s_ -->
<g id="edge94" class="edge"><title>trace_link44&#45;&gt;Female_S37\n Classtype = 1\n Name = s_</title>
<path fill="none" stroke="black" d="M1987,-397.436C1987,-383.812 1987,-364.564 1987,-346.235"/>
<polygon fill="black" stroke="black" points="1990.5,-346.189 1987,-336.189 1983.5,-346.189 1990.5,-346.189"/>
</g>
</g>
</svg>
