<?xml version="1.0" encoding="UTF-8" standalone="no"?>
<!DOCTYPE svg PUBLIC "-//W3C//DTD SVG 1.1//EN"
 "http://www.w3.org/Graphics/SVG/1.1/DTD/svg11.dtd">
<!-- Generated by graphviz version 2.26.3 (20100126.1600)
 -->
<!-- Title: HEmptyPathCondition_HF2F_HS2S_HM2M_HSF2SF Pages: 1 -->
<svg width="2744pt" height="1086pt"
 viewBox="0.00 0.00 2744.00 1086.00" xmlns="http://www.w3.org/2000/svg" xmlns:xlink="http://www.w3.org/1999/xlink">
<g id="graph1" class="graph" transform="scale(1 1) rotate(0) translate(4 1082)">
<title>HEmptyPathCondition_HF2F_HS2S_HM2M_HSF2SF</title>
<polygon fill="white" stroke="white" points="-4,5 -4,-1082 2741,-1082 2741,5 -4,5"/>
<!-- rightExpr0\n Classtype = None\n Name = None -->
<g id="node1" class="node"><title>rightExpr0\n Classtype = None\n Name = None</title>
<ellipse fill="lightblue" stroke="black" cx="102" cy="-168" rx="101.823" ry="43.8406"/>
<text text-anchor="middle" x="102" y="-182.4" font-family="Times Roman,serif" font-size="14.00">rightExpr0</text>
<text text-anchor="middle" x="102" y="-164.4" font-family="Times Roman,serif" font-size="14.00"> Classtype = None</text>
<text text-anchor="middle" x="102" y="-146.4" font-family="Times Roman,serif" font-size="14.00"> Name = None</text>
</g>
<!-- Constant12\n Classtype = None\n Name = None -->
<g id="node13" class="node"><title>Constant12\n Classtype = None\n Name = None</title>
<ellipse fill="lightblue" stroke="black" cx="102" cy="-44" rx="101.823" ry="43.8406"/>
<text text-anchor="middle" x="102" y="-58.4" font-family="Times Roman,serif" font-size="14.00">Constant12</text>
<text text-anchor="middle" x="102" y="-40.4" font-family="Times Roman,serif" font-size="14.00"> Classtype = None</text>
<text text-anchor="middle" x="102" y="-22.4" font-family="Times Roman,serif" font-size="14.00"> Name = None</text>
</g>
<!-- rightExpr0\n Classtype = None\n Name = None&#45;&gt;Constant12\n Classtype = None\n Name = None -->
<g id="edge4" class="edge"><title>rightExpr0\n Classtype = None\n Name = None&#45;&gt;Constant12\n Classtype = None\n Name = None</title>
<path fill="none" stroke="black" d="M102,-123.933C102,-115.718 102,-107.043 102,-98.5568"/>
<polygon fill="black" stroke="black" points="105.5,-98.3428 102,-88.3428 98.5001,-98.3428 105.5,-98.3428"/>
</g>
<!-- hasAttr_S1\n Classtype = None\n Name = None -->
<g id="node2" class="node"><title>hasAttr_S1\n Classtype = None\n Name = None</title>
<ellipse fill="lightblue" stroke="black" cx="546" cy="-168" rx="101.823" ry="43.8406"/>
<text text-anchor="middle" x="546" y="-182.4" font-family="Times Roman,serif" font-size="14.00">hasAttr_S1</text>
<text text-anchor="middle" x="546" y="-164.4" font-family="Times Roman,serif" font-size="14.00"> Classtype = None</text>
<text text-anchor="middle" x="546" y="-146.4" font-family="Times Roman,serif" font-size="14.00"> Name = None</text>
</g>
<!-- Attribute9\n Classtype = None\n Name = name -->
<g id="node10" class="node"><title>Attribute9\n Classtype = None\n Name = name</title>
<ellipse fill="lightblue" stroke="black" cx="546" cy="-44" rx="101.823" ry="43.8406"/>
<text text-anchor="middle" x="546" y="-58.4" font-family="Times Roman,serif" font-size="14.00">Attribute9</text>
<text text-anchor="middle" x="546" y="-40.4" font-family="Times Roman,serif" font-size="14.00"> Classtype = None</text>
<text text-anchor="middle" x="546" y="-22.4" font-family="Times Roman,serif" font-size="14.00"> Name = name</text>
</g>
<!-- hasAttr_S1\n Classtype = None\n Name = None&#45;&gt;Attribute9\n Classtype = None\n Name = name -->
<g id="edge8" class="edge"><title>hasAttr_S1\n Classtype = None\n Name = None&#45;&gt;Attribute9\n Classtype = None\n Name = name</title>
<path fill="none" stroke="black" d="M546,-123.933C546,-115.718 546,-107.043 546,-98.5568"/>
<polygon fill="black" stroke="black" points="549.5,-98.3428 546,-88.3428 542.5,-98.3428 549.5,-98.3428"/>
</g>
<!-- ApplyModel2 -->
<g id="node3" class="node"><title>ApplyModel2</title>
<ellipse fill="#fed017" stroke="black" cx="606" cy="-738" rx="73.0388" ry="18.3848"/>
<text text-anchor="middle" x="606" y="-734.4" font-family="Times Roman,serif" font-size="14.00">ApplyModel2</text>
</g>
<!-- apply_contains10 -->
<g id="node11" class="node"><title>apply_contains10</title>
<ellipse fill="#fcdb58" stroke="black" cx="576" cy="-639" rx="96.8736" ry="18.3848"/>
<text text-anchor="middle" x="576" y="-635.4" font-family="Times Roman,serif" font-size="14.00">apply_contains10</text>
</g>
<!-- ApplyModel2&#45;&gt;apply_contains10 -->
<g id="edge12" class="edge"><title>ApplyModel2&#45;&gt;apply_contains10</title>
<path fill="none" stroke="black" d="M600.357,-719.379C595.916,-704.721 589.651,-684.049 584.588,-667.34"/>
<polygon fill="black" stroke="black" points="587.867,-666.093 581.617,-657.538 581.168,-668.123 587.867,-666.093"/>
</g>
<!-- match_contains3 -->
<g id="node4" class="node"><title>match_contains3</title>
<ellipse fill="#f798a1" stroke="black" cx="420" cy="-738" rx="94.7523" ry="18.3848"/>
<text text-anchor="middle" x="420" y="-734.4" font-family="Times Roman,serif" font-size="14.00">match_contains3</text>
</g>
<!-- Female_S6\n Classtype = 1\n Name = s_ -->
<g id="node7" class="node"><title>Female_S6\n Classtype = 1\n Name = s_</title>
<ellipse fill="lightblue" stroke="black" cx="549" cy="-292" rx="82.2301" ry="43.8406"/>
<text text-anchor="middle" x="549" y="-306.4" font-family="Times Roman,serif" font-size="14.00">Female_S6</text>
<text text-anchor="middle" x="549" y="-288.4" font-family="Times Roman,serif" font-size="14.00"> Classtype = 1</text>
<text text-anchor="middle" x="549" y="-270.4" font-family="Times Roman,serif" font-size="14.00"> Name = s_</text>
</g>
<!-- match_contains3&#45;&gt;Female_S6\n Classtype = 1\n Name = s_ -->
<g id="edge16" class="edge"><title>match_contains3&#45;&gt;Female_S6\n Classtype = 1\n Name = s_</title>
<path fill="none" stroke="black" d="M418.957,-719.362C416.6,-663.543 415.074,-494.043 474,-372 480.061,-359.446 488.792,-347.528 498.168,-336.91"/>
<polygon fill="black" stroke="black" points="500.872,-339.141 505.081,-329.418 495.727,-334.394 500.872,-339.141"/>
</g>
<!-- paired_with4 -->
<g id="node5" class="node"><title>paired_with4</title>
<ellipse fill="lightgray" stroke="black" cx="585" cy="-837" rx="75.1594" ry="18.3848"/>
<text text-anchor="middle" x="585" y="-833.4" font-family="Times Roman,serif" font-size="14.00">paired_with4</text>
</g>
<!-- paired_with4&#45;&gt;ApplyModel2 -->
<g id="edge10" class="edge"><title>paired_with4&#45;&gt;ApplyModel2</title>
<path fill="none" stroke="black" d="M588.95,-818.379C592.059,-803.721 596.444,-783.049 599.988,-766.34"/>
<polygon fill="black" stroke="black" points="603.416,-767.046 602.068,-756.538 596.569,-765.594 603.416,-767.046"/>
</g>
<!-- Female_T5\n Classtype = t_\n Name = s_ -->
<g id="node6" class="node"><title>Female_T5\n Classtype = t_\n Name = s_</title>
<ellipse fill="lightblue" stroke="black" cx="576" cy="-540" rx="85.7684" ry="43.8406"/>
<text text-anchor="middle" x="576" y="-554.4" font-family="Times Roman,serif" font-size="14.00">Female_T5</text>
<text text-anchor="middle" x="576" y="-536.4" font-family="Times Roman,serif" font-size="14.00"> Classtype = t_</text>
<text text-anchor="middle" x="576" y="-518.4" font-family="Times Roman,serif" font-size="14.00"> Name = s_</text>
</g>
<!-- trace_link13 -->
<g id="node14" class="node"><title>trace_link13</title>
<ellipse fill="#eedd82" stroke="black" cx="555" cy="-416" rx="72.1249" ry="18.3848"/>
<text text-anchor="middle" x="555" y="-412.4" font-family="Times Roman,serif" font-size="14.00">trace_link13</text>
</g>
<!-- Female_T5\n Classtype = t_\n Name = s_&#45;&gt;trace_link13 -->
<g id="edge28" class="edge"><title>Female_T5\n Classtype = t_\n Name = s_&#45;&gt;trace_link13</title>
<path fill="none" stroke="black" d="M568.537,-495.933C565.672,-479.016 562.477,-460.151 559.911,-444.997"/>
<polygon fill="black" stroke="black" points="563.288,-443.976 558.167,-434.7 556.386,-445.144 563.288,-443.976"/>
</g>
<!-- Female_S6\n Classtype = 1\n Name = s_&#45;&gt;hasAttr_S1\n Classtype = None\n Name = None -->
<g id="edge6" class="edge"><title>Female_S6\n Classtype = 1\n Name = s_&#45;&gt;hasAttr_S1\n Classtype = None\n Name = None</title>
<path fill="none" stroke="black" d="M547.934,-247.933C547.735,-239.718 547.525,-231.043 547.32,-222.557"/>
<polygon fill="black" stroke="black" points="550.814,-222.255 547.073,-212.343 543.816,-222.425 550.814,-222.255"/>
</g>
<!-- Equation7\n Classtype = None\n Name = None -->
<g id="node8" class="node"><title>Equation7\n Classtype = None\n Name = None</title>
<ellipse fill="lightblue" stroke="black" cx="213" cy="-292" rx="101.823" ry="43.8406"/>
<text text-anchor="middle" x="213" y="-306.4" font-family="Times Roman,serif" font-size="14.00">Equation7</text>
<text text-anchor="middle" x="213" y="-288.4" font-family="Times Roman,serif" font-size="14.00"> Classtype = None</text>
<text text-anchor="middle" x="213" y="-270.4" font-family="Times Roman,serif" font-size="14.00"> Name = None</text>
</g>
<!-- Equation7\n Classtype = None\n Name = None&#45;&gt;rightExpr0\n Classtype = None\n Name = None -->
<g id="edge2" class="edge"><title>Equation7\n Classtype = None\n Name = None&#45;&gt;rightExpr0\n Classtype = None\n Name = None</title>
<path fill="none" stroke="black" d="M176.039,-250.71C166.303,-239.834 155.707,-227.997 145.655,-216.768"/>
<polygon fill="black" stroke="black" points="148.078,-214.226 138.8,-209.11 142.862,-218.895 148.078,-214.226"/>
</g>
<!-- leftExpr11\n Classtype = None\n Name = None -->
<g id="node12" class="node"><title>leftExpr11\n Classtype = None\n Name = None</title>
<ellipse fill="lightblue" stroke="black" cx="324" cy="-168" rx="101.823" ry="43.8406"/>
<text text-anchor="middle" x="324" y="-182.4" font-family="Times Roman,serif" font-size="14.00">leftExpr11</text>
<text text-anchor="middle" x="324" y="-164.4" font-family="Times Roman,serif" font-size="14.00"> Classtype = None</text>
<text text-anchor="middle" x="324" y="-146.4" font-family="Times Roman,serif" font-size="14.00"> Name = None</text>
</g>
<!-- Equation7\n Classtype = None\n Name = None&#45;&gt;leftExpr11\n Classtype = None\n Name = None -->
<g id="edge22" class="edge"><title>Equation7\n Classtype = None\n Name = None&#45;&gt;leftExpr11\n Classtype = None\n Name = None</title>
<path fill="none" stroke="black" d="M249.961,-250.71C259.697,-239.834 270.293,-227.997 280.345,-216.768"/>
<polygon fill="black" stroke="black" points="283.138,-218.895 287.2,-209.11 277.922,-214.226 283.138,-218.895"/>
</g>
<!-- MatchModel8 -->
<g id="node9" class="node"><title>MatchModel8</title>
<ellipse fill="#e15c34" stroke="black" cx="492" cy="-911" rx="75.8684" ry="18.3848"/>
<text text-anchor="middle" x="492" y="-907.4" font-family="Times Roman,serif" font-size="14.00">MatchModel8</text>
</g>
<!-- MatchModel8&#45;&gt;match_contains3 -->
<g id="edge14" class="edge"><title>MatchModel8&#45;&gt;match_contains3</title>
<path fill="none" stroke="black" d="M484.295,-892.486C471.661,-862.13 446.467,-801.595 431.645,-765.981"/>
<polygon fill="black" stroke="black" points="434.832,-764.53 427.759,-756.642 428.37,-767.22 434.832,-764.53"/>
</g>
<!-- MatchModel8&#45;&gt;paired_with4 -->
<g id="edge18" class="edge"><title>MatchModel8&#45;&gt;paired_with4</title>
<path fill="none" stroke="black" d="M514.513,-893.087C526.621,-883.452 541.719,-871.439 554.831,-861.005"/>
<polygon fill="black" stroke="black" points="557.049,-863.714 562.695,-854.748 552.69,-858.236 557.049,-863.714"/>
</g>
<!-- apply_contains10&#45;&gt;Female_T5\n Classtype = t_\n Name = s_ -->
<g id="edge20" class="edge"><title>apply_contains10&#45;&gt;Female_T5\n Classtype = t_\n Name = s_</title>
<path fill="none" stroke="black" d="M576,-620.379C576,-612.81 576,-603.638 576,-594.236"/>
<polygon fill="black" stroke="black" points="579.5,-594.008 576,-584.008 572.5,-594.008 579.5,-594.008"/>
</g>
<!-- leftExpr11\n Classtype = None\n Name = None&#45;&gt;Attribute9\n Classtype = None\n Name = name -->
<g id="edge24" class="edge"><title>leftExpr11\n Classtype = None\n Name = None&#45;&gt;Attribute9\n Classtype = None\n Name = name</title>
<path fill="none" stroke="black" d="M386.43,-133.129C413.741,-117.875 445.937,-99.8909 474.231,-84.0871"/>
<polygon fill="black" stroke="black" points="476.246,-86.971 483.269,-79.0388 472.832,-80.8596 476.246,-86.971"/>
</g>
<!-- trace_link13&#45;&gt;Female_S6\n Classtype = 1\n Name = s_ -->
<g id="edge26" class="edge"><title>trace_link13&#45;&gt;Female_S6\n Classtype = 1\n Name = s_</title>
<path fill="none" stroke="black" d="M554.102,-397.436C553.442,-383.812 552.511,-364.564 551.624,-346.235"/>
<polygon fill="black" stroke="black" points="555.117,-346.008 551.138,-336.189 548.126,-346.347 555.117,-346.008"/>
</g>
<!-- apply_contains14 -->
<g id="node15" class="node"><title>apply_contains14</title>
<ellipse fill="#fcdb58" stroke="black" cx="848" cy="-837" rx="96.8736" ry="18.3848"/>
<text text-anchor="middle" x="848" y="-833.4" font-family="Times Roman,serif" font-size="14.00">apply_contains14</text>
</g>
<!-- Station_T20\n Classtype = t_\n Name = s_ -->
<g id="node21" class="node"><title>Station_T20\n Classtype = t_\n Name = s_</title>
<ellipse fill="lightblue" stroke="black" cx="848" cy="-738" rx="85.7684" ry="43.8406"/>
<text text-anchor="middle" x="848" y="-752.4" font-family="Times Roman,serif" font-size="14.00">Station_T20</text>
<text text-anchor="middle" x="848" y="-734.4" font-family="Times Roman,serif" font-size="14.00"> Classtype = t_</text>
<text text-anchor="middle" x="848" y="-716.4" font-family="Times Roman,serif" font-size="14.00"> Name = s_</text>
</g>
<!-- apply_contains14&#45;&gt;Station_T20\n Classtype = t_\n Name = s_ -->
<g id="edge32" class="edge"><title>apply_contains14&#45;&gt;Station_T20\n Classtype = t_\n Name = s_</title>
<path fill="none" stroke="black" d="M848,-818.379C848,-810.81 848,-801.638 848,-792.236"/>
<polygon fill="black" stroke="black" points="851.5,-792.008 848,-782.008 844.5,-792.008 851.5,-792.008"/>
</g>
<!-- leftExpr15\n Classtype = None\n Name = None -->
<g id="node16" class="node"><title>leftExpr15\n Classtype = None\n Name = None</title>
<ellipse fill="lightblue" stroke="black" cx="1431" cy="-416" rx="101.823" ry="43.8406"/>
<text text-anchor="middle" x="1431" y="-430.4" font-family="Times Roman,serif" font-size="14.00">leftExpr15</text>
<text text-anchor="middle" x="1431" y="-412.4" font-family="Times Roman,serif" font-size="14.00"> Classtype = None</text>
<text text-anchor="middle" x="1431" y="-394.4" font-family="Times Roman,serif" font-size="14.00"> Name = None</text>
</g>
<!-- Attribute26\n Classtype = None\n Name = name -->
<g id="node27" class="node"><title>Attribute26\n Classtype = None\n Name = name</title>
<ellipse fill="lightblue" stroke="black" cx="1431" cy="-292" rx="101.823" ry="43.8406"/>
<text text-anchor="middle" x="1431" y="-306.4" font-family="Times Roman,serif" font-size="14.00">Attribute26</text>
<text text-anchor="middle" x="1431" y="-288.4" font-family="Times Roman,serif" font-size="14.00"> Classtype = None</text>
<text text-anchor="middle" x="1431" y="-270.4" font-family="Times Roman,serif" font-size="14.00"> Name = name</text>
</g>
<!-- leftExpr15\n Classtype = None\n Name = None&#45;&gt;Attribute26\n Classtype = None\n Name = name -->
<g id="edge36" class="edge"><title>leftExpr15\n Classtype = None\n Name = None&#45;&gt;Attribute26\n Classtype = None\n Name = name</title>
<path fill="none" stroke="black" d="M1431,-371.933C1431,-363.718 1431,-355.043 1431,-346.557"/>
<polygon fill="black" stroke="black" points="1434.5,-346.343 1431,-336.343 1427.5,-346.343 1434.5,-346.343"/>
</g>
<!-- paired_with16 -->
<g id="node17" class="node"><title>paired_with16</title>
<ellipse fill="lightgray" stroke="black" cx="848" cy="-985" rx="82.0244" ry="18.3848"/>
<text text-anchor="middle" x="848" y="-981.4" font-family="Times Roman,serif" font-size="14.00">paired_with16</text>
</g>
<!-- ApplyModel18 -->
<g id="node19" class="node"><title>ApplyModel18</title>
<ellipse fill="#fed017" stroke="black" cx="848" cy="-911" rx="79.9031" ry="18.3848"/>
<text text-anchor="middle" x="848" y="-907.4" font-family="Times Roman,serif" font-size="14.00">ApplyModel18</text>
</g>
<!-- paired_with16&#45;&gt;ApplyModel18 -->
<g id="edge40" class="edge"><title>paired_with16&#45;&gt;ApplyModel18</title>
<path fill="none" stroke="black" d="M848,-966.327C848,-958.264 848,-948.648 848,-939.711"/>
<polygon fill="black" stroke="black" points="851.5,-939.667 848,-929.667 844.5,-939.667 851.5,-939.667"/>
</g>
<!-- hasAttr_S17\n Classtype = None\n Name = None -->
<g id="node18" class="node"><title>hasAttr_S17\n Classtype = None\n Name = None</title>
<ellipse fill="lightblue" stroke="black" cx="1209" cy="-416" rx="101.823" ry="43.8406"/>
<text text-anchor="middle" x="1209" y="-430.4" font-family="Times Roman,serif" font-size="14.00">hasAttr_S17</text>
<text text-anchor="middle" x="1209" y="-412.4" font-family="Times Roman,serif" font-size="14.00"> Classtype = None</text>
<text text-anchor="middle" x="1209" y="-394.4" font-family="Times Roman,serif" font-size="14.00"> Name = None</text>
</g>
<!-- hasAttr_S17\n Classtype = None\n Name = None&#45;&gt;Attribute26\n Classtype = None\n Name = name -->
<g id="edge44" class="edge"><title>hasAttr_S17\n Classtype = None\n Name = None&#45;&gt;Attribute26\n Classtype = None\n Name = name</title>
<path fill="none" stroke="black" d="M1271.43,-381.129C1298.74,-365.875 1330.94,-347.891 1359.23,-332.087"/>
<polygon fill="black" stroke="black" points="1361.25,-334.971 1368.27,-327.039 1357.83,-328.86 1361.25,-334.971"/>
</g>
<!-- ApplyModel18&#45;&gt;apply_contains14 -->
<g id="edge30" class="edge"><title>ApplyModel18&#45;&gt;apply_contains14</title>
<path fill="none" stroke="black" d="M848,-892.327C848,-884.264 848,-874.648 848,-865.711"/>
<polygon fill="black" stroke="black" points="851.5,-865.667 848,-855.667 844.5,-865.667 851.5,-865.667"/>
</g>
<!-- Station_S19\n Classtype = 1\n Name = s_ -->
<g id="node20" class="node"><title>Station_S19\n Classtype = 1\n Name = s_</title>
<ellipse fill="lightblue" stroke="black" cx="999" cy="-540" rx="82.2301" ry="43.8406"/>
<text text-anchor="middle" x="999" y="-554.4" font-family="Times Roman,serif" font-size="14.00">Station_S19</text>
<text text-anchor="middle" x="999" y="-536.4" font-family="Times Roman,serif" font-size="14.00"> Classtype = 1</text>
<text text-anchor="middle" x="999" y="-518.4" font-family="Times Roman,serif" font-size="14.00"> Name = s_</text>
</g>
<!-- Station_S19\n Classtype = 1\n Name = s_&#45;&gt;hasAttr_S17\n Classtype = None\n Name = None -->
<g id="edge42" class="edge"><title>Station_S19\n Classtype = 1\n Name = s_&#45;&gt;hasAttr_S17\n Classtype = None\n Name = None</title>
<path fill="none" stroke="black" d="M1054.18,-507.42C1080.38,-491.946 1111.98,-473.287 1139.78,-456.873"/>
<polygon fill="black" stroke="black" points="1141.83,-459.728 1148.66,-451.629 1138.27,-453.7 1141.83,-459.728"/>
</g>
<!-- indirectLink_S47 -->
<g id="node48" class="node"><title>indirectLink_S47</title>
<ellipse fill="lightgreen" stroke="black" cx="762" cy="-416" rx="92.839" ry="18.3848"/>
<text text-anchor="middle" x="762" y="-412.4" font-family="Times Roman,serif" font-size="14.00">indirectLink_S47</text>
</g>
<!-- Station_S19\n Classtype = 1\n Name = s_&#45;&gt;indirectLink_S47 -->
<g id="edge86" class="edge"><title>Station_S19\n Classtype = 1\n Name = s_&#45;&gt;indirectLink_S47</title>
<path fill="none" stroke="black" d="M940.111,-509.189C898.026,-487.17 842.378,-458.054 804.56,-438.268"/>
<polygon fill="black" stroke="black" points="805.832,-434.983 795.348,-433.448 802.586,-441.185 805.832,-434.983"/>
</g>
<!-- trace_link27 -->
<g id="node28" class="node"><title>trace_link27</title>
<ellipse fill="#eedd82" stroke="black" cx="949" cy="-639" rx="72.1249" ry="18.3848"/>
<text text-anchor="middle" x="949" y="-635.4" font-family="Times Roman,serif" font-size="14.00">trace_link27</text>
</g>
<!-- Station_T20\n Classtype = t_\n Name = s_&#45;&gt;trace_link27 -->
<g id="edge56" class="edge"><title>Station_T20\n Classtype = t_\n Name = s_&#45;&gt;trace_link27</title>
<path fill="none" stroke="black" d="M887.918,-698.873C899.809,-687.217 912.52,-674.758 923.25,-664.24"/>
<polygon fill="black" stroke="black" points="925.982,-666.464 930.673,-656.964 921.082,-661.465 925.982,-666.464"/>
</g>
<!-- directLink_T42\n -->
<g id="node43" class="node"><title>directLink_T42\n</title>
<ellipse fill="lightyellow" stroke="black" cx="775" cy="-639" rx="84.1457" ry="18.3848"/>
<text text-anchor="middle" x="775" y="-635.4" font-family="Times Roman,serif" font-size="14.00">directLink_T42</text>
</g>
<!-- Station_T20\n Classtype = t_\n Name = s_&#45;&gt;directLink_T42\n -->
<g id="edge106" class="edge"><title>Station_T20\n Classtype = t_\n Name = s_&#45;&gt;directLink_T42\n</title>
<path fill="none" stroke="black" d="M817.464,-696.589C809.747,-686.122 801.664,-675.16 794.646,-665.643"/>
<polygon fill="black" stroke="black" points="797.293,-663.335 788.541,-657.364 791.659,-667.49 797.293,-663.335"/>
</g>
<!-- Equation21\n Classtype = None\n Name = None -->
<g id="node22" class="node"><title>Equation21\n Classtype = None\n Name = None</title>
<ellipse fill="lightblue" stroke="black" cx="1375" cy="-540" rx="101.823" ry="43.8406"/>
<text text-anchor="middle" x="1375" y="-554.4" font-family="Times Roman,serif" font-size="14.00">Equation21</text>
<text text-anchor="middle" x="1375" y="-536.4" font-family="Times Roman,serif" font-size="14.00"> Classtype = None</text>
<text text-anchor="middle" x="1375" y="-518.4" font-family="Times Roman,serif" font-size="14.00"> Name = None</text>
</g>
<!-- Equation21\n Classtype = None\n Name = None&#45;&gt;leftExpr15\n Classtype = None\n Name = None -->
<g id="edge34" class="edge"><title>Equation21\n Classtype = None\n Name = None&#45;&gt;leftExpr15\n Classtype = None\n Name = None</title>
<path fill="none" stroke="black" d="M1394.59,-496.631C1398.65,-487.621 1402.98,-478.034 1407.19,-468.73"/>
<polygon fill="black" stroke="black" points="1410.4,-470.109 1411.33,-459.554 1404.02,-467.227 1410.4,-470.109"/>
</g>
<!-- rightExpr24\n Classtype = None\n Name = None -->
<g id="node25" class="node"><title>rightExpr24\n Classtype = None\n Name = None</title>
<ellipse fill="lightblue" stroke="black" cx="987" cy="-416" rx="101.823" ry="43.8406"/>
<text text-anchor="middle" x="987" y="-430.4" font-family="Times Roman,serif" font-size="14.00">rightExpr24</text>
<text text-anchor="middle" x="987" y="-412.4" font-family="Times Roman,serif" font-size="14.00"> Classtype = None</text>
<text text-anchor="middle" x="987" y="-394.4" font-family="Times Roman,serif" font-size="14.00"> Name = None</text>
</g>
<!-- Equation21\n Classtype = None\n Name = None&#45;&gt;rightExpr24\n Classtype = None\n Name = None -->
<g id="edge48" class="edge"><title>Equation21\n Classtype = None\n Name = None&#45;&gt;rightExpr24\n Classtype = None\n Name = None</title>
<path fill="none" stroke="black" d="M1287.62,-517.082C1232.76,-502.123 1160.76,-481.446 1098,-460 1089.05,-456.94 1079.76,-453.573 1070.54,-450.105"/>
<polygon fill="black" stroke="black" points="1071.56,-446.75 1060.97,-446.463 1069.07,-453.292 1071.56,-446.75"/>
</g>
<!-- match_contains22 -->
<g id="node23" class="node"><title>match_contains22</title>
<ellipse fill="#f798a1" stroke="black" cx="1049" cy="-985" rx="101.116" ry="18.3848"/>
<text text-anchor="middle" x="1049" y="-981.4" font-family="Times Roman,serif" font-size="14.00">match_contains22</text>
</g>
<!-- match_contains22&#45;&gt;Station_S19\n Classtype = 1\n Name = s_ -->
<g id="edge46" class="edge"><title>match_contains22&#45;&gt;Station_S19\n Classtype = 1\n Name = s_</title>
<path fill="none" stroke="black" d="M1049,-966.309C1049,-938.234 1049,-883.507 1049,-837 1049,-837 1049,-837 1049,-738 1049,-684.88 1043.9,-671.27 1030,-620 1027.57,-611.026 1024.48,-601.672 1021.2,-592.656"/>
<polygon fill="black" stroke="black" points="1024.38,-591.17 1017.58,-583.041 1017.83,-593.633 1024.38,-591.17"/>
</g>
<!-- Constant23\n Classtype = None\n Name = None -->
<g id="node24" class="node"><title>Constant23\n Classtype = None\n Name = None</title>
<ellipse fill="lightblue" stroke="black" cx="990" cy="-292" rx="101.823" ry="43.8406"/>
<text text-anchor="middle" x="990" y="-306.4" font-family="Times Roman,serif" font-size="14.00">Constant23</text>
<text text-anchor="middle" x="990" y="-288.4" font-family="Times Roman,serif" font-size="14.00"> Classtype = None</text>
<text text-anchor="middle" x="990" y="-270.4" font-family="Times Roman,serif" font-size="14.00"> Name = None</text>
</g>
<!-- rightExpr24\n Classtype = None\n Name = None&#45;&gt;Constant23\n Classtype = None\n Name = None -->
<g id="edge52" class="edge"><title>rightExpr24\n Classtype = None\n Name = None&#45;&gt;Constant23\n Classtype = None\n Name = None</title>
<path fill="none" stroke="black" d="M988.066,-371.933C988.265,-363.718 988.475,-355.043 988.68,-346.557"/>
<polygon fill="black" stroke="black" points="992.184,-346.425 988.927,-336.343 985.186,-346.255 992.184,-346.425"/>
</g>
<!-- MatchModel25 -->
<g id="node26" class="node"><title>MatchModel25</title>
<ellipse fill="#e15c34" stroke="black" cx="949" cy="-1059" rx="82.2301" ry="18.3848"/>
<text text-anchor="middle" x="949" y="-1055.4" font-family="Times Roman,serif" font-size="14.00">MatchModel25</text>
</g>
<!-- MatchModel25&#45;&gt;paired_with16 -->
<g id="edge38" class="edge"><title>MatchModel25&#45;&gt;paired_with16</title>
<path fill="none" stroke="black" d="M924.808,-1041.28C911.539,-1031.55 894.907,-1019.37 880.516,-1008.82"/>
<polygon fill="black" stroke="black" points="882.48,-1005.92 872.345,-1002.84 878.343,-1011.57 882.48,-1005.92"/>
</g>
<!-- MatchModel25&#45;&gt;match_contains22 -->
<g id="edge50" class="edge"><title>MatchModel25&#45;&gt;match_contains22</title>
<path fill="none" stroke="black" d="M972.952,-1041.28C985.994,-1031.62 1002.32,-1019.55 1016.49,-1009.06"/>
<polygon fill="black" stroke="black" points="1018.59,-1011.86 1024.55,-1003.09 1014.43,-1006.23 1018.59,-1011.86"/>
</g>
<!-- trace_link27&#45;&gt;Station_S19\n Classtype = 1\n Name = s_ -->
<g id="edge54" class="edge"><title>trace_link27&#45;&gt;Station_S19\n Classtype = 1\n Name = s_</title>
<path fill="none" stroke="black" d="M958.405,-620.379C962.562,-612.148 967.677,-602.02 972.857,-591.763"/>
<polygon fill="black" stroke="black" points="976.02,-593.263 977.404,-582.759 969.772,-590.108 976.02,-593.263"/>
</g>
<!-- apply_contains28 -->
<g id="node29" class="node"><title>apply_contains28</title>
<ellipse fill="#fcdb58" stroke="black" cx="2455" cy="-837" rx="96.8736" ry="18.3848"/>
<text text-anchor="middle" x="2455" y="-833.4" font-family="Times Roman,serif" font-size="14.00">apply_contains28</text>
</g>
<!-- Male_T35\n Classtype = t_\n Name = s_ -->
<g id="node36" class="node"><title>Male_T35\n Classtype = t_\n Name = s_</title>
<ellipse fill="lightblue" stroke="black" cx="2470" cy="-738" rx="85.7684" ry="43.8406"/>
<text text-anchor="middle" x="2470" y="-752.4" font-family="Times Roman,serif" font-size="14.00">Male_T35</text>
<text text-anchor="middle" x="2470" y="-734.4" font-family="Times Roman,serif" font-size="14.00"> Classtype = t_</text>
<text text-anchor="middle" x="2470" y="-716.4" font-family="Times Roman,serif" font-size="14.00"> Name = s_</text>
</g>
<!-- apply_contains28&#45;&gt;Male_T35\n Classtype = t_\n Name = s_ -->
<g id="edge60" class="edge"><title>apply_contains28&#45;&gt;Male_T35\n Classtype = t_\n Name = s_</title>
<path fill="none" stroke="black" d="M2457.82,-818.379C2458.98,-810.73 2460.39,-801.443 2461.83,-791.936"/>
<polygon fill="black" stroke="black" points="2465.29,-792.42 2463.33,-782.008 2458.37,-791.371 2465.29,-792.42"/>
</g>
<!-- leftExpr29\n Classtype = None\n Name = None -->
<g id="node30" class="node"><title>leftExpr29\n Classtype = None\n Name = None</title>
<ellipse fill="lightblue" stroke="black" cx="2319" cy="-416" rx="101.823" ry="43.8406"/>
<text text-anchor="middle" x="2319" y="-430.4" font-family="Times Roman,serif" font-size="14.00">leftExpr29</text>
<text text-anchor="middle" x="2319" y="-412.4" font-family="Times Roman,serif" font-size="14.00"> Classtype = None</text>
<text text-anchor="middle" x="2319" y="-394.4" font-family="Times Roman,serif" font-size="14.00"> Name = None</text>
</g>
<!-- Attribute39\n Classtype = None\n Name = name -->
<g id="node40" class="node"><title>Attribute39\n Classtype = None\n Name = name</title>
<ellipse fill="lightblue" stroke="black" cx="2430" cy="-292" rx="101.823" ry="43.8406"/>
<text text-anchor="middle" x="2430" y="-306.4" font-family="Times Roman,serif" font-size="14.00">Attribute39</text>
<text text-anchor="middle" x="2430" y="-288.4" font-family="Times Roman,serif" font-size="14.00"> Classtype = None</text>
<text text-anchor="middle" x="2430" y="-270.4" font-family="Times Roman,serif" font-size="14.00"> Name = name</text>
</g>
<!-- leftExpr29\n Classtype = None\n Name = None&#45;&gt;Attribute39\n Classtype = None\n Name = name -->
<g id="edge64" class="edge"><title>leftExpr29\n Classtype = None\n Name = None&#45;&gt;Attribute39\n Classtype = None\n Name = name</title>
<path fill="none" stroke="black" d="M2355.96,-374.71C2365.7,-363.834 2376.29,-351.997 2386.35,-340.768"/>
<polygon fill="black" stroke="black" points="2389.14,-342.895 2393.2,-333.11 2383.92,-338.226 2389.14,-342.895"/>
</g>
<!-- paired_with30 -->
<g id="node31" class="node"><title>paired_with30</title>
<ellipse fill="lightgray" stroke="black" cx="2480" cy="-985" rx="82.0244" ry="18.3848"/>
<text text-anchor="middle" x="2480" y="-981.4" font-family="Times Roman,serif" font-size="14.00">paired_with30</text>
</g>
<!-- ApplyModel32 -->
<g id="node33" class="node"><title>ApplyModel32</title>
<ellipse fill="#fed017" stroke="black" cx="2436" cy="-911" rx="79.9031" ry="18.3848"/>
<text text-anchor="middle" x="2436" y="-907.4" font-family="Times Roman,serif" font-size="14.00">ApplyModel32</text>
</g>
<!-- paired_with30&#45;&gt;ApplyModel32 -->
<g id="edge68" class="edge"><title>paired_with30&#45;&gt;ApplyModel32</title>
<path fill="none" stroke="black" d="M2468.9,-966.327C2463.8,-957.761 2457.67,-947.442 2452.08,-938.047"/>
<polygon fill="black" stroke="black" points="2455.07,-936.218 2446.95,-929.411 2449.05,-939.795 2455.07,-936.218"/>
</g>
<!-- hasAttr_S31\n Classtype = None\n Name = None -->
<g id="node32" class="node"><title>hasAttr_S31\n Classtype = None\n Name = None</title>
<ellipse fill="lightblue" stroke="black" cx="2541" cy="-416" rx="101.823" ry="43.8406"/>
<text text-anchor="middle" x="2541" y="-430.4" font-family="Times Roman,serif" font-size="14.00">hasAttr_S31</text>
<text text-anchor="middle" x="2541" y="-412.4" font-family="Times Roman,serif" font-size="14.00"> Classtype = None</text>
<text text-anchor="middle" x="2541" y="-394.4" font-family="Times Roman,serif" font-size="14.00"> Name = None</text>
</g>
<!-- hasAttr_S31\n Classtype = None\n Name = None&#45;&gt;Attribute39\n Classtype = None\n Name = name -->
<g id="edge72" class="edge"><title>hasAttr_S31\n Classtype = None\n Name = None&#45;&gt;Attribute39\n Classtype = None\n Name = name</title>
<path fill="none" stroke="black" d="M2504.04,-374.71C2494.3,-363.834 2483.71,-351.997 2473.65,-340.768"/>
<polygon fill="black" stroke="black" points="2476.08,-338.226 2466.8,-333.11 2470.86,-342.895 2476.08,-338.226"/>
</g>
<!-- ApplyModel32&#45;&gt;apply_contains28 -->
<g id="edge58" class="edge"><title>ApplyModel32&#45;&gt;apply_contains28</title>
<path fill="none" stroke="black" d="M2440.79,-892.327C2442.89,-884.176 2445.39,-874.438 2447.7,-865.42"/>
<polygon fill="black" stroke="black" points="2451.11,-866.224 2450.21,-855.667 2444.33,-864.483 2451.11,-866.224"/>
</g>
<!-- Equation33\n Classtype = None\n Name = None -->
<g id="node34" class="node"><title>Equation33\n Classtype = None\n Name = None</title>
<ellipse fill="lightblue" stroke="black" cx="2208" cy="-540" rx="101.823" ry="43.8406"/>
<text text-anchor="middle" x="2208" y="-554.4" font-family="Times Roman,serif" font-size="14.00">Equation33</text>
<text text-anchor="middle" x="2208" y="-536.4" font-family="Times Roman,serif" font-size="14.00"> Classtype = None</text>
<text text-anchor="middle" x="2208" y="-518.4" font-family="Times Roman,serif" font-size="14.00"> Name = None</text>
</g>
<!-- Equation33\n Classtype = None\n Name = None&#45;&gt;leftExpr29\n Classtype = None\n Name = None -->
<g id="edge62" class="edge"><title>Equation33\n Classtype = None\n Name = None&#45;&gt;leftExpr29\n Classtype = None\n Name = None</title>
<path fill="none" stroke="black" d="M2244.96,-498.71C2254.7,-487.834 2265.29,-475.997 2275.35,-464.768"/>
<polygon fill="black" stroke="black" points="2278.14,-466.895 2282.2,-457.11 2272.92,-462.226 2278.14,-466.895"/>
</g>
<!-- rightExpr37\n Classtype = None\n Name = None -->
<g id="node38" class="node"><title>rightExpr37\n Classtype = None\n Name = None</title>
<ellipse fill="lightblue" stroke="black" cx="2097" cy="-416" rx="101.823" ry="43.8406"/>
<text text-anchor="middle" x="2097" y="-430.4" font-family="Times Roman,serif" font-size="14.00">rightExpr37</text>
<text text-anchor="middle" x="2097" y="-412.4" font-family="Times Roman,serif" font-size="14.00"> Classtype = None</text>
<text text-anchor="middle" x="2097" y="-394.4" font-family="Times Roman,serif" font-size="14.00"> Name = None</text>
</g>
<!-- Equation33\n Classtype = None\n Name = None&#45;&gt;rightExpr37\n Classtype = None\n Name = None -->
<g id="edge74" class="edge"><title>Equation33\n Classtype = None\n Name = None&#45;&gt;rightExpr37\n Classtype = None\n Name = None</title>
<path fill="none" stroke="black" d="M2171.04,-498.71C2161.3,-487.834 2150.71,-475.997 2140.65,-464.768"/>
<polygon fill="black" stroke="black" points="2143.08,-462.226 2133.8,-457.11 2137.86,-466.895 2143.08,-462.226"/>
</g>
<!-- match_contains34 -->
<g id="node35" class="node"><title>match_contains34</title>
<ellipse fill="#f798a1" stroke="black" cx="2635" cy="-911" rx="101.116" ry="18.3848"/>
<text text-anchor="middle" x="2635" y="-907.4" font-family="Times Roman,serif" font-size="14.00">match_contains34</text>
</g>
<!-- Male_S40\n Classtype = 1\n Name = s_ -->
<g id="node41" class="node"><title>Male_S40\n Classtype = 1\n Name = s_</title>
<ellipse fill="lightblue" stroke="black" cx="2541" cy="-540" rx="82.2301" ry="43.8406"/>
<text text-anchor="middle" x="2541" y="-554.4" font-family="Times Roman,serif" font-size="14.00">Male_S40</text>
<text text-anchor="middle" x="2541" y="-536.4" font-family="Times Roman,serif" font-size="14.00"> Classtype = 1</text>
<text text-anchor="middle" x="2541" y="-518.4" font-family="Times Roman,serif" font-size="14.00"> Name = s_</text>
</g>
<!-- match_contains34&#45;&gt;Male_S40\n Classtype = 1\n Name = s_ -->
<g id="edge78" class="edge"><title>match_contains34&#45;&gt;Male_S40\n Classtype = 1\n Name = s_</title>
<path fill="none" stroke="black" d="M2630.85,-892.184C2620.54,-845.754 2592.57,-722.086 2565,-620 2562.64,-611.262 2560,-602.028 2557.37,-593.061"/>
<polygon fill="black" stroke="black" points="2560.72,-592.06 2554.52,-583.471 2554.01,-594.053 2560.72,-592.06"/>
</g>
<!-- trace_link41 -->
<g id="node42" class="node"><title>trace_link41</title>
<ellipse fill="#eedd82" stroke="black" cx="2484" cy="-639" rx="72.1249" ry="18.3848"/>
<text text-anchor="middle" x="2484" y="-635.4" font-family="Times Roman,serif" font-size="14.00">trace_link41</text>
</g>
<!-- Male_T35\n Classtype = t_\n Name = s_&#45;&gt;trace_link41 -->
<g id="edge84" class="edge"><title>Male_T35\n Classtype = t_\n Name = s_&#45;&gt;trace_link41</title>
<path fill="none" stroke="black" d="M2476.22,-694.001C2477.48,-685.096 2478.77,-675.95 2479.94,-667.737"/>
<polygon fill="black" stroke="black" points="2483.44,-667.966 2481.37,-657.574 2476.51,-666.985 2483.44,-667.966"/>
</g>
<!-- Constant36\n Classtype = None\n Name = None -->
<g id="node37" class="node"><title>Constant36\n Classtype = None\n Name = None</title>
<ellipse fill="lightblue" stroke="black" cx="2097" cy="-292" rx="101.823" ry="43.8406"/>
<text text-anchor="middle" x="2097" y="-306.4" font-family="Times Roman,serif" font-size="14.00">Constant36</text>
<text text-anchor="middle" x="2097" y="-288.4" font-family="Times Roman,serif" font-size="14.00"> Classtype = None</text>
<text text-anchor="middle" x="2097" y="-270.4" font-family="Times Roman,serif" font-size="14.00"> Name = None</text>
</g>
<!-- rightExpr37\n Classtype = None\n Name = None&#45;&gt;Constant36\n Classtype = None\n Name = None -->
<g id="edge80" class="edge"><title>rightExpr37\n Classtype = None\n Name = None&#45;&gt;Constant36\n Classtype = None\n Name = None</title>
<path fill="none" stroke="black" d="M2097,-371.933C2097,-363.718 2097,-355.043 2097,-346.557"/>
<polygon fill="black" stroke="black" points="2100.5,-346.343 2097,-336.343 2093.5,-346.343 2100.5,-346.343"/>
</g>
<!-- MatchModel38 -->
<g id="node39" class="node"><title>MatchModel38</title>
<ellipse fill="#e15c34" stroke="black" cx="2546" cy="-1059" rx="82.2301" ry="18.3848"/>
<text text-anchor="middle" x="2546" y="-1055.4" font-family="Times Roman,serif" font-size="14.00">MatchModel38</text>
</g>
<!-- MatchModel38&#45;&gt;paired_with30 -->
<g id="edge66" class="edge"><title>MatchModel38&#45;&gt;paired_with30</title>
<path fill="none" stroke="black" d="M2529.69,-1040.71C2521.67,-1031.72 2511.88,-1020.74 2503.11,-1010.91"/>
<polygon fill="black" stroke="black" points="2505.62,-1008.47 2496.36,-1003.34 2500.4,-1013.13 2505.62,-1008.47"/>
</g>
<!-- MatchModel38&#45;&gt;match_contains34 -->
<g id="edge76" class="edge"><title>MatchModel38&#45;&gt;match_contains34</title>
<path fill="none" stroke="black" d="M2557.09,-1040.55C2572.55,-1014.85 2600.67,-968.08 2618.57,-938.324"/>
<polygon fill="black" stroke="black" points="2621.61,-940.051 2623.77,-929.678 2615.62,-936.444 2621.61,-940.051"/>
</g>
<!-- Male_S40\n Classtype = 1\n Name = s_&#45;&gt;hasAttr_S31\n Classtype = None\n Name = None -->
<g id="edge70" class="edge"><title>Male_S40\n Classtype = 1\n Name = s_&#45;&gt;hasAttr_S31\n Classtype = None\n Name = None</title>
<path fill="none" stroke="black" d="M2541,-495.933C2541,-487.718 2541,-479.043 2541,-470.557"/>
<polygon fill="black" stroke="black" points="2544.5,-470.343 2541,-460.343 2537.5,-470.343 2544.5,-470.343"/>
</g>
<!-- trace_link41&#45;&gt;Male_S40\n Classtype = 1\n Name = s_ -->
<g id="edge82" class="edge"><title>trace_link41&#45;&gt;Male_S40\n Classtype = 1\n Name = s_</title>
<path fill="none" stroke="black" d="M2494.72,-620.379C2499.56,-611.977 2505.53,-601.599 2511.56,-591.124"/>
<polygon fill="black" stroke="black" points="2514.66,-592.757 2516.62,-582.344 2508.6,-589.264 2514.66,-592.757"/>
</g>
<!-- directLink_T42\n&#45;&gt;Female_T5\n Classtype = t_\n Name = s_ -->
<g id="edge108" class="edge"><title>directLink_T42\n&#45;&gt;Female_T5\n Classtype = t_\n Name = s_</title>
<path fill="none" stroke="black" d="M740.791,-621.981C715.1,-609.201 679.013,-591.248 647.156,-575.399"/>
<polygon fill="black" stroke="black" points="648.371,-572.095 637.859,-570.774 645.253,-578.362 648.371,-572.095"/>
</g>
<!-- rightExpr43\n Classtype = None\n Name = None -->
<g id="node44" class="node"><title>rightExpr43\n Classtype = None\n Name = None</title>
<ellipse fill="lightblue" stroke="black" cx="1875" cy="-416" rx="101.823" ry="43.8406"/>
<text text-anchor="middle" x="1875" y="-430.4" font-family="Times Roman,serif" font-size="14.00">rightExpr43</text>
<text text-anchor="middle" x="1875" y="-412.4" font-family="Times Roman,serif" font-size="14.00"> Classtype = None</text>
<text text-anchor="middle" x="1875" y="-394.4" font-family="Times Roman,serif" font-size="14.00"> Name = None</text>
</g>
<!-- Constant50\n Classtype = None\n Name = None -->
<g id="node51" class="node"><title>Constant50\n Classtype = None\n Name = None</title>
<ellipse fill="lightblue" stroke="black" cx="1875" cy="-292" rx="101.823" ry="43.8406"/>
<text text-anchor="middle" x="1875" y="-306.4" font-family="Times Roman,serif" font-size="14.00">Constant50</text>
<text text-anchor="middle" x="1875" y="-288.4" font-family="Times Roman,serif" font-size="14.00"> Classtype = None</text>
<text text-anchor="middle" x="1875" y="-270.4" font-family="Times Roman,serif" font-size="14.00"> Name = None</text>
</g>
<!-- rightExpr43\n Classtype = None\n Name = None&#45;&gt;Constant50\n Classtype = None\n Name = None -->
<g id="edge94" class="edge"><title>rightExpr43\n Classtype = None\n Name = None&#45;&gt;Constant50\n Classtype = None\n Name = None</title>
<path fill="none" stroke="black" d="M1875,-371.933C1875,-363.718 1875,-355.043 1875,-346.557"/>
<polygon fill="black" stroke="black" points="1878.5,-346.343 1875,-336.343 1871.5,-346.343 1878.5,-346.343"/>
</g>
<!-- rightExpr44\n Classtype = None\n Name = None -->
<g id="node45" class="node"><title>rightExpr44\n Classtype = None\n Name = None</title>
<ellipse fill="lightblue" stroke="black" cx="990" cy="-168" rx="101.823" ry="43.8406"/>
<text text-anchor="middle" x="990" y="-182.4" font-family="Times Roman,serif" font-size="14.00">rightExpr44</text>
<text text-anchor="middle" x="990" y="-164.4" font-family="Times Roman,serif" font-size="14.00"> Classtype = None</text>
<text text-anchor="middle" x="990" y="-146.4" font-family="Times Roman,serif" font-size="14.00"> Name = None</text>
</g>
<!-- Constant51\n Classtype = None\n Name = None -->
<g id="node52" class="node"><title>Constant51\n Classtype = None\n Name = None</title>
<ellipse fill="lightblue" stroke="black" cx="990" cy="-44" rx="101.823" ry="43.8406"/>
<text text-anchor="middle" x="990" y="-58.4" font-family="Times Roman,serif" font-size="14.00">Constant51</text>
<text text-anchor="middle" x="990" y="-40.4" font-family="Times Roman,serif" font-size="14.00"> Classtype = None</text>
<text text-anchor="middle" x="990" y="-22.4" font-family="Times Roman,serif" font-size="14.00"> Name = None</text>
</g>
<!-- rightExpr44\n Classtype = None\n Name = None&#45;&gt;Constant51\n Classtype = None\n Name = None -->
<g id="edge100" class="edge"><title>rightExpr44\n Classtype = None\n Name = None&#45;&gt;Constant51\n Classtype = None\n Name = None</title>
<path fill="none" stroke="black" d="M990,-123.933C990,-115.718 990,-107.043 990,-98.5568"/>
<polygon fill="black" stroke="black" points="993.5,-98.3428 990,-88.3428 986.5,-98.3428 993.5,-98.3428"/>
</g>
<!-- Equation45\n Classtype = None\n Name = None -->
<g id="node46" class="node"><title>Equation45\n Classtype = None\n Name = None</title>
<ellipse fill="lightblue" stroke="black" cx="1709" cy="-540" rx="101.823" ry="43.8406"/>
<text text-anchor="middle" x="1709" y="-554.4" font-family="Times Roman,serif" font-size="14.00">Equation45</text>
<text text-anchor="middle" x="1709" y="-536.4" font-family="Times Roman,serif" font-size="14.00"> Classtype = None</text>
<text text-anchor="middle" x="1709" y="-518.4" font-family="Times Roman,serif" font-size="14.00"> Name = None</text>
</g>
<!-- Equation45\n Classtype = None\n Name = None&#45;&gt;rightExpr43\n Classtype = None\n Name = None -->
<g id="edge90" class="edge"><title>Equation45\n Classtype = None\n Name = None&#45;&gt;rightExpr43\n Classtype = None\n Name = None</title>
<path fill="none" stroke="black" d="M1760.16,-501.784C1777.67,-488.702 1797.42,-473.954 1815.53,-460.424"/>
<polygon fill="black" stroke="black" points="1817.81,-463.092 1823.72,-454.303 1813.62,-457.484 1817.81,-463.092"/>
</g>
<!-- leftExpr48\n Classtype = None\n Name = None -->
<g id="node49" class="node"><title>leftExpr48\n Classtype = None\n Name = None</title>
<ellipse fill="lightblue" stroke="black" cx="1653" cy="-416" rx="101.823" ry="43.8406"/>
<text text-anchor="middle" x="1653" y="-430.4" font-family="Times Roman,serif" font-size="14.00">leftExpr48</text>
<text text-anchor="middle" x="1653" y="-412.4" font-family="Times Roman,serif" font-size="14.00"> Classtype = None</text>
<text text-anchor="middle" x="1653" y="-394.4" font-family="Times Roman,serif" font-size="14.00"> Name = None</text>
</g>
<!-- Equation45\n Classtype = None\n Name = None&#45;&gt;leftExpr48\n Classtype = None\n Name = None -->
<g id="edge92" class="edge"><title>Equation45\n Classtype = None\n Name = None&#45;&gt;leftExpr48\n Classtype = None\n Name = None</title>
<path fill="none" stroke="black" d="M1689.41,-496.631C1685.35,-487.621 1681.02,-478.034 1676.81,-468.73"/>
<polygon fill="black" stroke="black" points="1679.98,-467.227 1672.67,-459.554 1673.6,-470.109 1679.98,-467.227"/>
</g>
<!-- Equation46\n Classtype = None\n Name = None -->
<g id="node47" class="node"><title>Equation46\n Classtype = None\n Name = None</title>
<ellipse fill="lightblue" stroke="black" cx="768" cy="-292" rx="101.823" ry="43.8406"/>
<text text-anchor="middle" x="768" y="-306.4" font-family="Times Roman,serif" font-size="14.00">Equation46</text>
<text text-anchor="middle" x="768" y="-288.4" font-family="Times Roman,serif" font-size="14.00"> Classtype = None</text>
<text text-anchor="middle" x="768" y="-270.4" font-family="Times Roman,serif" font-size="14.00"> Name = None</text>
</g>
<!-- Equation46\n Classtype = None\n Name = None&#45;&gt;rightExpr44\n Classtype = None\n Name = None -->
<g id="edge96" class="edge"><title>Equation46\n Classtype = None\n Name = None&#45;&gt;rightExpr44\n Classtype = None\n Name = None</title>
<path fill="none" stroke="black" d="M830.43,-257.129C857.741,-241.875 889.937,-223.891 918.231,-208.087"/>
<polygon fill="black" stroke="black" points="920.246,-210.971 927.269,-203.039 916.832,-204.86 920.246,-210.971"/>
</g>
<!-- leftExpr49\n Classtype = None\n Name = None -->
<g id="node50" class="node"><title>leftExpr49\n Classtype = None\n Name = None</title>
<ellipse fill="lightblue" stroke="black" cx="768" cy="-168" rx="101.823" ry="43.8406"/>
<text text-anchor="middle" x="768" y="-182.4" font-family="Times Roman,serif" font-size="14.00">leftExpr49</text>
<text text-anchor="middle" x="768" y="-164.4" font-family="Times Roman,serif" font-size="14.00"> Classtype = None</text>
<text text-anchor="middle" x="768" y="-146.4" font-family="Times Roman,serif" font-size="14.00"> Name = None</text>
</g>
<!-- Equation46\n Classtype = None\n Name = None&#45;&gt;leftExpr49\n Classtype = None\n Name = None -->
<g id="edge98" class="edge"><title>Equation46\n Classtype = None\n Name = None&#45;&gt;leftExpr49\n Classtype = None\n Name = None</title>
<path fill="none" stroke="black" d="M768,-247.933C768,-239.718 768,-231.043 768,-222.557"/>
<polygon fill="black" stroke="black" points="771.5,-222.343 768,-212.343 764.5,-222.343 771.5,-222.343"/>
</g>
<!-- indirectLink_S47&#45;&gt;Female_S6\n Classtype = 1\n Name = s_ -->
<g id="edge88" class="edge"><title>indirectLink_S47&#45;&gt;Female_S6\n Classtype = 1\n Name = s_</title>
<path fill="none" stroke="black" d="M731.482,-398.234C700.789,-380.366 652.528,-352.27 613.345,-329.459"/>
<polygon fill="black" stroke="black" points="615.025,-326.387 604.622,-324.381 611.503,-332.437 615.025,-326.387"/>
</g>
<!-- leftExpr48\n Classtype = None\n Name = None&#45;&gt;Attribute26\n Classtype = None\n Name = name -->
<g id="edge102" class="edge"><title>leftExpr48\n Classtype = None\n Name = None&#45;&gt;Attribute26\n Classtype = None\n Name = name</title>
<path fill="none" stroke="black" d="M1590.57,-381.129C1563.26,-365.875 1531.06,-347.891 1502.77,-332.087"/>
<polygon fill="black" stroke="black" points="1504.17,-328.86 1493.73,-327.039 1500.75,-334.971 1504.17,-328.86"/>
</g>
<!-- leftExpr49\n Classtype = None\n Name = None&#45;&gt;Attribute9\n Classtype = None\n Name = name -->
<g id="edge104" class="edge"><title>leftExpr49\n Classtype = None\n Name = None&#45;&gt;Attribute9\n Classtype = None\n Name = name</title>
<path fill="none" stroke="black" d="M705.57,-133.129C678.259,-117.875 646.063,-99.8909 617.769,-84.0871"/>
<polygon fill="black" stroke="black" points="619.168,-80.8596 608.731,-79.0388 615.754,-86.971 619.168,-80.8596"/>
</g>
</g>
</svg>
