<?xml version="1.0" encoding="UTF-8" standalone="no"?>
<!DOCTYPE svg PUBLIC "-//W3C//DTD SVG 1.1//EN"
 "http://www.w3.org/Graphics/SVG/1.1/DTD/svg11.dtd">
<!-- Generated by graphviz version 2.26.3 (20100126.1600)
 -->
<!-- Title: matchPattern_rewriter_HF2F Pages: 1 -->
<svg width="724pt" height="462pt"
 viewBox="0.00 0.00 724.00 462.00" xmlns="http://www.w3.org/2000/svg" xmlns:xlink="http://www.w3.org/1999/xlink">
<g id="graph1" class="graph" transform="scale(1 1) rotate(0) translate(4 458)">
<title>matchPattern_rewriter_HF2F</title>
<polygon fill="white" stroke="white" points="-4,5 -4,-458 721,-458 721,5 -4,5"/>
<!-- MT_post__Attribute0\n Label 2 -->
<g id="node1" class="node"><title>MT_post__Attribute0\n Label 2</title>
<ellipse fill="lightblue" stroke="black" cx="479" cy="-31" rx="113.844" ry="31.1127"/>
<text text-anchor="middle" x="479" y="-36.4" font-family="Times Roman,serif" font-size="14.00">MT_post__Attribute0</text>
<text text-anchor="middle" x="479" y="-18.4" font-family="Times Roman,serif" font-size="14.00"> Label 2</text>
</g>
<!-- MT_post__rightExpr1\n Label 9 -->
<g id="node2" class="node"><title>MT_post__rightExpr1\n Label 9</title>
<ellipse fill="lightblue" stroke="black" cx="115" cy="-129" rx="114.759" ry="31.1127"/>
<text text-anchor="middle" x="115" y="-134.4" font-family="Times Roman,serif" font-size="14.00">MT_post__rightExpr1</text>
<text text-anchor="middle" x="115" y="-116.4" font-family="Times Roman,serif" font-size="14.00"> Label 9</text>
</g>
<!-- MT_post__Constant8\n Label 7 -->
<g id="node9" class="node"><title>MT_post__Constant8\n Label 7</title>
<ellipse fill="lightblue" stroke="black" cx="115" cy="-31" rx="113.844" ry="31.1127"/>
<text text-anchor="middle" x="115" y="-36.4" font-family="Times Roman,serif" font-size="14.00">MT_post__Constant8</text>
<text text-anchor="middle" x="115" y="-18.4" font-family="Times Roman,serif" font-size="14.00"> Label 7</text>
</g>
<!-- MT_post__rightExpr1\n Label 9&#45;&gt;MT_post__Constant8\n Label 7 -->
<g id="edge8" class="edge"><title>MT_post__rightExpr1\n Label 9&#45;&gt;MT_post__Constant8\n Label 7</title>
<path fill="none" stroke="black" d="M115,-97.9922C115,-89.8594 115,-80.9587 115,-72.3777"/>
<polygon fill="black" stroke="black" points="118.5,-72.1424 115,-62.1425 111.5,-72.1425 118.5,-72.1424"/>
</g>
<!-- MT_post__Equation2\n Label 6 -->
<g id="node3" class="node"><title>MT_post__Equation2\n Label 6</title>
<ellipse fill="lightblue" stroke="black" cx="233" cy="-227" rx="113.137" ry="31.1127"/>
<text text-anchor="middle" x="233" y="-232.4" font-family="Times Roman,serif" font-size="14.00">MT_post__Equation2</text>
<text text-anchor="middle" x="233" y="-214.4" font-family="Times Roman,serif" font-size="14.00"> Label 6</text>
</g>
<!-- MT_post__Equation2\n Label 6&#45;&gt;MT_post__rightExpr1\n Label 9 -->
<g id="edge6" class="edge"><title>MT_post__Equation2\n Label 6&#45;&gt;MT_post__rightExpr1\n Label 9</title>
<path fill="none" stroke="black" d="M197.276,-197.331C185.03,-187.16 171.191,-175.667 158.404,-165.048"/>
<polygon fill="black" stroke="black" points="160.532,-162.265 150.603,-158.568 156.059,-167.65 160.532,-162.265"/>
</g>
<!-- MT_post__leftExpr4\n Label 8 -->
<g id="node5" class="node"><title>MT_post__leftExpr4\n Label 8</title>
<ellipse fill="lightblue" stroke="black" cx="355" cy="-129" rx="106.98" ry="31.1127"/>
<text text-anchor="middle" x="355" y="-134.4" font-family="Times Roman,serif" font-size="14.00">MT_post__leftExpr4</text>
<text text-anchor="middle" x="355" y="-116.4" font-family="Times Roman,serif" font-size="14.00"> Label 8</text>
</g>
<!-- MT_post__Equation2\n Label 6&#45;&gt;MT_post__leftExpr4\n Label 8 -->
<g id="edge10" class="edge"><title>MT_post__Equation2\n Label 6&#45;&gt;MT_post__leftExpr4\n Label 8</title>
<path fill="none" stroke="black" d="M269.604,-197.597C282.391,-187.325 296.891,-175.678 310.265,-164.934"/>
<polygon fill="black" stroke="black" points="312.817,-167.374 318.422,-158.382 308.434,-161.916 312.817,-167.374"/>
</g>
<!-- MT_post__trace_link3\n Label 4 -->
<g id="node4" class="node"><title>MT_post__trace_link3\n Label 4</title>
<ellipse fill="lightblue" stroke="black" cx="598" cy="-325" rx="116.88" ry="31.1127"/>
<text text-anchor="middle" x="598" y="-330.4" font-family="Times Roman,serif" font-size="14.00">MT_post__trace_link3</text>
<text text-anchor="middle" x="598" y="-312.4" font-family="Times Roman,serif" font-size="14.00"> Label 4</text>
</g>
<!-- MT_post__Female_S6\n Label 1 -->
<g id="node7" class="node"><title>MT_post__Female_S6\n Label 1</title>
<ellipse fill="lightblue" stroke="black" cx="598" cy="-227" rx="115.966" ry="31.1127"/>
<text text-anchor="middle" x="598" y="-232.4" font-family="Times Roman,serif" font-size="14.00">MT_post__Female_S6</text>
<text text-anchor="middle" x="598" y="-214.4" font-family="Times Roman,serif" font-size="14.00"> Label 1</text>
</g>
<!-- MT_post__trace_link3\n Label 4&#45;&gt;MT_post__Female_S6\n Label 1 -->
<g id="edge14" class="edge"><title>MT_post__trace_link3\n Label 4&#45;&gt;MT_post__Female_S6\n Label 1</title>
<path fill="none" stroke="black" d="M598,-293.992C598,-285.859 598,-276.959 598,-268.378"/>
<polygon fill="black" stroke="black" points="601.5,-268.142 598,-258.142 594.5,-268.142 601.5,-268.142"/>
</g>
<!-- MT_post__leftExpr4\n Label 8&#45;&gt;MT_post__Attribute0\n Label 2 -->
<g id="edge4" class="edge"><title>MT_post__leftExpr4\n Label 8&#45;&gt;MT_post__Attribute0\n Label 2</title>
<path fill="none" stroke="black" d="M391.868,-99.8621C404.997,-89.4859 419.936,-77.6792 433.691,-66.8085"/>
<polygon fill="black" stroke="black" points="435.955,-69.4806 441.63,-60.5341 431.615,-63.9887 435.955,-69.4806"/>
</g>
<!-- MT_post__Female_T5\n Label 5 -->
<g id="node6" class="node"><title>MT_post__Female_T5\n Label 5</title>
<ellipse fill="lightblue" stroke="black" cx="598" cy="-423" rx="115.966" ry="31.1127"/>
<text text-anchor="middle" x="598" y="-428.4" font-family="Times Roman,serif" font-size="14.00">MT_post__Female_T5</text>
<text text-anchor="middle" x="598" y="-410.4" font-family="Times Roman,serif" font-size="14.00"> Label 5</text>
</g>
<!-- MT_post__Female_T5\n Label 5&#45;&gt;MT_post__trace_link3\n Label 4 -->
<g id="edge12" class="edge"><title>MT_post__Female_T5\n Label 5&#45;&gt;MT_post__trace_link3\n Label 4</title>
<path fill="none" stroke="black" d="M598,-391.992C598,-383.859 598,-374.959 598,-366.378"/>
<polygon fill="black" stroke="black" points="601.5,-366.142 598,-356.142 594.5,-366.142 601.5,-366.142"/>
</g>
<!-- MT_post__hasAttr_S7\n Label 3 -->
<g id="node8" class="node"><title>MT_post__hasAttr_S7\n Label 3</title>
<ellipse fill="lightblue" stroke="black" cx="598" cy="-129" rx="118.087" ry="31.1127"/>
<text text-anchor="middle" x="598" y="-134.4" font-family="Times Roman,serif" font-size="14.00">MT_post__hasAttr_S7</text>
<text text-anchor="middle" x="598" y="-116.4" font-family="Times Roman,serif" font-size="14.00"> Label 3</text>
</g>
<!-- MT_post__Female_S6\n Label 1&#45;&gt;MT_post__hasAttr_S7\n Label 3 -->
<g id="edge16" class="edge"><title>MT_post__Female_S6\n Label 1&#45;&gt;MT_post__hasAttr_S7\n Label 3</title>
<path fill="none" stroke="black" d="M598,-195.992C598,-187.859 598,-178.959 598,-170.378"/>
<polygon fill="black" stroke="black" points="601.5,-170.142 598,-160.142 594.5,-170.142 601.5,-170.142"/>
</g>
<!-- MT_post__hasAttr_S7\n Label 3&#45;&gt;MT_post__Attribute0\n Label 2 -->
<g id="edge2" class="edge"><title>MT_post__hasAttr_S7\n Label 3&#45;&gt;MT_post__Attribute0\n Label 2</title>
<path fill="none" stroke="black" d="M561.973,-99.3308C549.623,-89.1604 535.667,-77.6669 522.772,-67.0477"/>
<polygon fill="black" stroke="black" points="524.849,-64.2237 514.904,-60.5683 520.399,-69.6272 524.849,-64.2237"/>
</g>
</g>
</svg>
