<?xml version="1.0" encoding="UTF-8" standalone="no"?>
<!DOCTYPE svg PUBLIC "-//W3C//DTD SVG 1.1//EN"
 "http://www.w3.org/Graphics/SVG/1.1/DTD/svg11.dtd">
<!-- Generated by graphviz version 2.26.3 (20100126.1600)
 -->
<!-- Title: matchPattern_matcher_HMM2MM Pages: 1 -->
<svg width="516pt" height="462pt"
 viewBox="0.00 0.00 516.00 462.00" xmlns="http://www.w3.org/2000/svg" xmlns:xlink="http://www.w3.org/1999/xlink">
<g id="graph1" class="graph" transform="scale(1 1) rotate(0) translate(4 458)">
<title>matchPattern_matcher_HMM2MM</title>
<polygon fill="white" stroke="white" points="-4,5 -4,-458 513,-458 513,5 -4,5"/>
<!-- MT_pre__indirectLink_S0\n Label 7 -->
<g id="node1" class="node"><title>MT_pre__indirectLink_S0\n Label 7</title>
<ellipse fill="lightgreen" stroke="black" cx="375" cy="-129" rx="133.143" ry="31.1127"/>
<text text-anchor="middle" x="375" y="-134.4" font-family="Times Roman,serif" font-size="14.00">MT_pre__indirectLink_S0</text>
<text text-anchor="middle" x="375" y="-116.4" font-family="Times Roman,serif" font-size="14.00"> Label 7</text>
</g>
<!-- MT_pre__Male_S4\n Label 2 -->
<g id="node5" class="node"><title>MT_pre__Male_S4\n Label 2</title>
<ellipse fill="lightblue" stroke="black" cx="243" cy="-31" rx="98.9949" ry="31.1127"/>
<text text-anchor="middle" x="243" y="-36.4" font-family="Times Roman,serif" font-size="14.00">MT_pre__Male_S4</text>
<text text-anchor="middle" x="243" y="-18.4" font-family="Times Roman,serif" font-size="14.00"> Label 2</text>
</g>
<!-- MT_pre__indirectLink_S0\n Label 7&#45;&gt;MT_pre__Male_S4\n Label 2 -->
<g id="edge12" class="edge"><title>MT_pre__indirectLink_S0\n Label 7&#45;&gt;MT_pre__Male_S4\n Label 2</title>
<path fill="none" stroke="black" d="M335.037,-99.3308C320.956,-88.8761 304.99,-77.0232 290.357,-66.1592"/>
<polygon fill="black" stroke="black" points="292.035,-63.0457 281.92,-59.8949 287.862,-68.6661 292.035,-63.0457"/>
</g>
<!-- MT_pre__trace_link1\n Label 5 -->
<g id="node2" class="node"><title>MT_pre__trace_link1\n Label 5</title>
<ellipse fill="#eedd82" stroke="black" cx="375" cy="-325" rx="111.93" ry="31.1127"/>
<text text-anchor="middle" x="375" y="-330.4" font-family="Times Roman,serif" font-size="14.00">MT_pre__trace_link1</text>
<text text-anchor="middle" x="375" y="-312.4" font-family="Times Roman,serif" font-size="14.00"> Label 5</text>
</g>
<!-- MT_pre__Male_S3\n Label 1 -->
<g id="node4" class="node"><title>MT_pre__Male_S3\n Label 1</title>
<ellipse fill="lightblue" stroke="black" cx="375" cy="-227" rx="98.9949" ry="31.1127"/>
<text text-anchor="middle" x="375" y="-232.4" font-family="Times Roman,serif" font-size="14.00">MT_pre__Male_S3</text>
<text text-anchor="middle" x="375" y="-214.4" font-family="Times Roman,serif" font-size="14.00"> Label 1</text>
</g>
<!-- MT_pre__trace_link1\n Label 5&#45;&gt;MT_pre__Male_S3\n Label 1 -->
<g id="edge4" class="edge"><title>MT_pre__trace_link1\n Label 5&#45;&gt;MT_pre__Male_S3\n Label 1</title>
<path fill="none" stroke="black" d="M375,-293.992C375,-285.859 375,-276.959 375,-268.378"/>
<polygon fill="black" stroke="black" points="378.5,-268.142 375,-258.142 371.5,-268.142 378.5,-268.142"/>
</g>
<!-- MT_pre__trace_link2\n Label 6 -->
<g id="node3" class="node"><title>MT_pre__trace_link2\n Label 6</title>
<ellipse fill="#eedd82" stroke="black" cx="112" cy="-129" rx="111.93" ry="31.1127"/>
<text text-anchor="middle" x="112" y="-134.4" font-family="Times Roman,serif" font-size="14.00">MT_pre__trace_link2</text>
<text text-anchor="middle" x="112" y="-116.4" font-family="Times Roman,serif" font-size="14.00"> Label 6</text>
</g>
<!-- MT_pre__trace_link2\n Label 6&#45;&gt;MT_pre__Male_S4\n Label 2 -->
<g id="edge8" class="edge"><title>MT_pre__trace_link2\n Label 6&#45;&gt;MT_pre__Male_S4\n Label 2</title>
<path fill="none" stroke="black" d="M150.95,-99.8621C165.204,-89.1985 181.478,-77.0241 196.338,-65.9075"/>
<polygon fill="black" stroke="black" points="198.516,-68.6495 204.426,-59.8567 194.322,-63.0443 198.516,-68.6495"/>
</g>
<!-- MT_pre__Male_S3\n Label 1&#45;&gt;MT_pre__indirectLink_S0\n Label 7 -->
<g id="edge10" class="edge"><title>MT_pre__Male_S3\n Label 1&#45;&gt;MT_pre__indirectLink_S0\n Label 7</title>
<path fill="none" stroke="black" d="M375,-195.992C375,-187.859 375,-178.959 375,-170.378"/>
<polygon fill="black" stroke="black" points="378.5,-170.142 375,-160.142 371.5,-170.142 378.5,-170.142"/>
</g>
<!-- MT_pre__Male_T5\n Label 3 -->
<g id="node6" class="node"><title>MT_pre__Male_T5\n Label 3</title>
<ellipse fill="lightblue" stroke="black" cx="375" cy="-423" rx="98.9949" ry="31.1127"/>
<text text-anchor="middle" x="375" y="-428.4" font-family="Times Roman,serif" font-size="14.00">MT_pre__Male_T5</text>
<text text-anchor="middle" x="375" y="-410.4" font-family="Times Roman,serif" font-size="14.00"> Label 3</text>
</g>
<!-- MT_pre__Male_T5\n Label 3&#45;&gt;MT_pre__trace_link1\n Label 5 -->
<g id="edge2" class="edge"><title>MT_pre__Male_T5\n Label 3&#45;&gt;MT_pre__trace_link1\n Label 5</title>
<path fill="none" stroke="black" d="M375,-391.992C375,-383.859 375,-374.959 375,-366.378"/>
<polygon fill="black" stroke="black" points="378.5,-366.142 375,-356.142 371.5,-366.142 378.5,-366.142"/>
</g>
<!-- MT_pre__Male_T6\n Label 4 -->
<g id="node7" class="node"><title>MT_pre__Male_T6\n Label 4</title>
<ellipse fill="lightblue" stroke="black" cx="112" cy="-227" rx="98.9949" ry="31.1127"/>
<text text-anchor="middle" x="112" y="-232.4" font-family="Times Roman,serif" font-size="14.00">MT_pre__Male_T6</text>
<text text-anchor="middle" x="112" y="-214.4" font-family="Times Roman,serif" font-size="14.00"> Label 4</text>
</g>
<!-- MT_pre__Male_T6\n Label 4&#45;&gt;MT_pre__trace_link2\n Label 6 -->
<g id="edge6" class="edge"><title>MT_pre__Male_T6\n Label 4&#45;&gt;MT_pre__trace_link2\n Label 6</title>
<path fill="none" stroke="black" d="M112,-195.992C112,-187.859 112,-178.959 112,-170.378"/>
<polygon fill="black" stroke="black" points="115.5,-170.142 112,-160.142 108.5,-170.142 115.5,-170.142"/>
</g>
</g>
</svg>
