<?xml version="1.0" encoding="UTF-8" standalone="no"?>
<!DOCTYPE svg PUBLIC "-//W3C//DTD SVG 1.1//EN"
 "http://www.w3.org/Graphics/SVG/1.1/DTD/svg11.dtd">
<!-- Generated by graphviz version 2.26.3 (20100126.1600)
 -->
<!-- Title: matchPattern_matcher_HFF2FF Pages: 1 -->
<svg width="516pt" height="462pt"
 viewBox="0.00 0.00 516.00 462.00" xmlns="http://www.w3.org/2000/svg" xmlns:xlink="http://www.w3.org/1999/xlink">
<g id="graph1" class="graph" transform="scale(1 1) rotate(0) translate(4 458)">
<title>matchPattern_matcher_HFF2FF</title>
<polygon fill="white" stroke="white" points="-4,5 -4,-458 513,-458 513,5 -4,5"/>
<!-- MT_pre__indirectLink_S0\n Label 10 -->
<g id="node1" class="node"><title>MT_pre__indirectLink_S0\n Label 10</title>
<ellipse fill="lightgreen" stroke="black" cx="375" cy="-129" rx="133.143" ry="31.1127"/>
<text text-anchor="middle" x="375" y="-134.4" font-family="Times Roman,serif" font-size="14.00">MT_pre__indirectLink_S0</text>
<text text-anchor="middle" x="375" y="-116.4" font-family="Times Roman,serif" font-size="14.00"> Label 10</text>
</g>
<!-- MT_pre__Female_S6\n Label 2 -->
<g id="node7" class="node"><title>MT_pre__Female_S6\n Label 2</title>
<ellipse fill="lightblue" stroke="black" cx="243" cy="-31" rx="111.016" ry="31.1127"/>
<text text-anchor="middle" x="243" y="-36.4" font-family="Times Roman,serif" font-size="14.00">MT_pre__Female_S6</text>
<text text-anchor="middle" x="243" y="-18.4" font-family="Times Roman,serif" font-size="14.00"> Label 2</text>
</g>
<!-- MT_pre__indirectLink_S0\n Label 10&#45;&gt;MT_pre__Female_S6\n Label 2 -->
<g id="edge12" class="edge"><title>MT_pre__indirectLink_S0\n Label 10&#45;&gt;MT_pre__Female_S6\n Label 2</title>
<path fill="none" stroke="black" d="M335.037,-99.3308C321.082,-88.9703 305.278,-77.2367 290.753,-66.453"/>
<polygon fill="black" stroke="black" points="292.488,-63.382 282.373,-60.2311 288.315,-69.0023 292.488,-63.382"/>
</g>
<!-- MT_pre__Female_T1\n Label 3 -->
<g id="node2" class="node"><title>MT_pre__Female_T1\n Label 3</title>
<ellipse fill="lightblue" stroke="black" cx="375" cy="-423" rx="111.016" ry="31.1127"/>
<text text-anchor="middle" x="375" y="-428.4" font-family="Times Roman,serif" font-size="14.00">MT_pre__Female_T1</text>
<text text-anchor="middle" x="375" y="-410.4" font-family="Times Roman,serif" font-size="14.00"> Label 3</text>
</g>
<!-- MT_pre__trace_link3\n Label 5 -->
<g id="node4" class="node"><title>MT_pre__trace_link3\n Label 5</title>
<ellipse fill="#eedd82" stroke="black" cx="375" cy="-325" rx="111.93" ry="31.1127"/>
<text text-anchor="middle" x="375" y="-330.4" font-family="Times Roman,serif" font-size="14.00">MT_pre__trace_link3</text>
<text text-anchor="middle" x="375" y="-312.4" font-family="Times Roman,serif" font-size="14.00"> Label 5</text>
</g>
<!-- MT_pre__Female_T1\n Label 3&#45;&gt;MT_pre__trace_link3\n Label 5 -->
<g id="edge2" class="edge"><title>MT_pre__Female_T1\n Label 3&#45;&gt;MT_pre__trace_link3\n Label 5</title>
<path fill="none" stroke="black" d="M375,-391.992C375,-383.859 375,-374.959 375,-366.378"/>
<polygon fill="black" stroke="black" points="378.5,-366.142 375,-356.142 371.5,-366.142 378.5,-366.142"/>
</g>
<!-- MT_pre__Female_T2\n Label 4 -->
<g id="node3" class="node"><title>MT_pre__Female_T2\n Label 4</title>
<ellipse fill="lightblue" stroke="black" cx="112" cy="-227" rx="111.016" ry="31.1127"/>
<text text-anchor="middle" x="112" y="-232.4" font-family="Times Roman,serif" font-size="14.00">MT_pre__Female_T2</text>
<text text-anchor="middle" x="112" y="-214.4" font-family="Times Roman,serif" font-size="14.00"> Label 4</text>
</g>
<!-- MT_pre__trace_link4\n Label 6 -->
<g id="node5" class="node"><title>MT_pre__trace_link4\n Label 6</title>
<ellipse fill="#eedd82" stroke="black" cx="112" cy="-129" rx="111.93" ry="31.1127"/>
<text text-anchor="middle" x="112" y="-134.4" font-family="Times Roman,serif" font-size="14.00">MT_pre__trace_link4</text>
<text text-anchor="middle" x="112" y="-116.4" font-family="Times Roman,serif" font-size="14.00"> Label 6</text>
</g>
<!-- MT_pre__Female_T2\n Label 4&#45;&gt;MT_pre__trace_link4\n Label 6 -->
<g id="edge4" class="edge"><title>MT_pre__Female_T2\n Label 4&#45;&gt;MT_pre__trace_link4\n Label 6</title>
<path fill="none" stroke="black" d="M112,-195.992C112,-187.859 112,-178.959 112,-170.378"/>
<polygon fill="black" stroke="black" points="115.5,-170.142 112,-160.142 108.5,-170.142 115.5,-170.142"/>
</g>
<!-- MT_pre__Female_S5\n Label 1 -->
<g id="node6" class="node"><title>MT_pre__Female_S5\n Label 1</title>
<ellipse fill="lightblue" stroke="black" cx="375" cy="-227" rx="111.016" ry="31.1127"/>
<text text-anchor="middle" x="375" y="-232.4" font-family="Times Roman,serif" font-size="14.00">MT_pre__Female_S5</text>
<text text-anchor="middle" x="375" y="-214.4" font-family="Times Roman,serif" font-size="14.00"> Label 1</text>
</g>
<!-- MT_pre__trace_link3\n Label 5&#45;&gt;MT_pre__Female_S5\n Label 1 -->
<g id="edge6" class="edge"><title>MT_pre__trace_link3\n Label 5&#45;&gt;MT_pre__Female_S5\n Label 1</title>
<path fill="none" stroke="black" d="M375,-293.992C375,-285.859 375,-276.959 375,-268.378"/>
<polygon fill="black" stroke="black" points="378.5,-268.142 375,-258.142 371.5,-268.142 378.5,-268.142"/>
</g>
<!-- MT_pre__trace_link4\n Label 6&#45;&gt;MT_pre__Female_S6\n Label 2 -->
<g id="edge8" class="edge"><title>MT_pre__trace_link4\n Label 6&#45;&gt;MT_pre__Female_S6\n Label 2</title>
<path fill="none" stroke="black" d="M150.95,-99.8621C165.077,-89.2937 181.188,-77.2414 195.94,-66.2055"/>
<polygon fill="black" stroke="black" points="198.063,-68.9877 203.974,-60.1949 193.87,-63.3825 198.063,-68.9877"/>
</g>
<!-- MT_pre__Female_S5\n Label 1&#45;&gt;MT_pre__indirectLink_S0\n Label 10 -->
<g id="edge10" class="edge"><title>MT_pre__Female_S5\n Label 1&#45;&gt;MT_pre__indirectLink_S0\n Label 10</title>
<path fill="none" stroke="black" d="M375,-195.992C375,-187.859 375,-178.959 375,-170.378"/>
<polygon fill="black" stroke="black" points="378.5,-170.142 375,-160.142 371.5,-170.142 378.5,-170.142"/>
</g>
</g>
</svg>
