<?xml version="1.0" encoding="UTF-8" standalone="no"?>
<!DOCTYPE svg PUBLIC "-//W3C//DTD SVG 1.1//EN"
 "http://www.w3.org/Graphics/SVG/1.1/DTD/svg11.dtd">
<!-- Generated by graphviz version 2.26.3 (20100126.1600)
 -->
<!-- Title: matchPattern_rewriter_HM2M Pages: 1 -->
<svg width="715pt" height="462pt"
 viewBox="0.00 0.00 715.00 462.00" xmlns="http://www.w3.org/2000/svg" xmlns:xlink="http://www.w3.org/1999/xlink">
<g id="graph1" class="graph" transform="scale(1 1) rotate(0) translate(4 458)">
<title>matchPattern_rewriter_HM2M</title>
<polygon fill="white" stroke="white" points="-4,5 -4,-458 712,-458 712,5 -4,5"/>
<!-- MT_post__Attribute0\n Label 2 -->
<g id="node1" class="node"><title>MT_post__Attribute0\n Label 2</title>
<ellipse fill="lightblue" stroke="black" cx="232" cy="-31" rx="113.844" ry="31.1127"/>
<text text-anchor="middle" x="232" y="-36.4" font-family="Times Roman,serif" font-size="14.00">MT_post__Attribute0</text>
<text text-anchor="middle" x="232" y="-18.4" font-family="Times Roman,serif" font-size="14.00"> Label 2</text>
</g>
<!-- MT_post__hasAttr_S1\n Label 3 -->
<g id="node2" class="node"><title>MT_post__hasAttr_S1\n Label 3</title>
<ellipse fill="lightblue" stroke="black" cx="118" cy="-129" rx="118.087" ry="31.1127"/>
<text text-anchor="middle" x="118" y="-134.4" font-family="Times Roman,serif" font-size="14.00">MT_post__hasAttr_S1</text>
<text text-anchor="middle" x="118" y="-116.4" font-family="Times Roman,serif" font-size="14.00"> Label 3</text>
</g>
<!-- MT_post__hasAttr_S1\n Label 3&#45;&gt;MT_post__Attribute0\n Label 2 -->
<g id="edge2" class="edge"><title>MT_post__hasAttr_S1\n Label 3&#45;&gt;MT_post__Attribute0\n Label 2</title>
<path fill="none" stroke="black" d="M152.513,-99.3308C164.232,-89.2564 177.462,-77.8836 189.717,-67.3484"/>
<polygon fill="black" stroke="black" points="192.303,-69.7414 197.604,-60.5683 187.739,-64.4331 192.303,-69.7414"/>
</g>
<!-- MT_post__Equation2\n Label 6 -->
<g id="node3" class="node"><title>MT_post__Equation2\n Label 6</title>
<ellipse fill="lightblue" stroke="black" cx="477" cy="-227" rx="113.137" ry="31.1127"/>
<text text-anchor="middle" x="477" y="-232.4" font-family="Times Roman,serif" font-size="14.00">MT_post__Equation2</text>
<text text-anchor="middle" x="477" y="-214.4" font-family="Times Roman,serif" font-size="14.00"> Label 6</text>
</g>
<!-- MT_post__leftExpr7\n Label 8 -->
<g id="node8" class="node"><title>MT_post__leftExpr7\n Label 8</title>
<ellipse fill="lightblue" stroke="black" cx="361" cy="-129" rx="106.98" ry="31.1127"/>
<text text-anchor="middle" x="361" y="-134.4" font-family="Times Roman,serif" font-size="14.00">MT_post__leftExpr7</text>
<text text-anchor="middle" x="361" y="-116.4" font-family="Times Roman,serif" font-size="14.00"> Label 8</text>
</g>
<!-- MT_post__Equation2\n Label 6&#45;&gt;MT_post__leftExpr7\n Label 8 -->
<g id="edge8" class="edge"><title>MT_post__Equation2\n Label 6&#45;&gt;MT_post__leftExpr7\n Label 8</title>
<path fill="none" stroke="black" d="M441.881,-197.331C429.843,-187.16 416.238,-175.667 403.669,-165.048"/>
<polygon fill="black" stroke="black" points="405.897,-162.348 395.999,-158.568 401.379,-167.695 405.897,-162.348"/>
</g>
<!-- MT_post__leftExpr8\n Label 10 -->
<g id="node9" class="node"><title>MT_post__leftExpr8\n Label 10</title>
<ellipse fill="lightblue" stroke="black" cx="593" cy="-129" rx="106.98" ry="31.1127"/>
<text text-anchor="middle" x="593" y="-134.4" font-family="Times Roman,serif" font-size="14.00">MT_post__leftExpr8</text>
<text text-anchor="middle" x="593" y="-116.4" font-family="Times Roman,serif" font-size="14.00"> Label 10</text>
</g>
<!-- MT_post__Equation2\n Label 6&#45;&gt;MT_post__leftExpr8\n Label 10 -->
<g id="edge10" class="edge"><title>MT_post__Equation2\n Label 6&#45;&gt;MT_post__leftExpr8\n Label 10</title>
<path fill="none" stroke="black" d="M512.119,-197.331C524.157,-187.16 537.762,-175.667 550.331,-165.048"/>
<polygon fill="black" stroke="black" points="552.621,-167.695 558.001,-158.568 548.103,-162.348 552.621,-167.695"/>
</g>
<!-- MT_post__trace_link3\n Label 4 -->
<g id="node4" class="node"><title>MT_post__trace_link3\n Label 4</title>
<ellipse fill="lightblue" stroke="black" cx="118" cy="-325" rx="116.88" ry="31.1127"/>
<text text-anchor="middle" x="118" y="-330.4" font-family="Times Roman,serif" font-size="14.00">MT_post__trace_link3</text>
<text text-anchor="middle" x="118" y="-312.4" font-family="Times Roman,serif" font-size="14.00"> Label 4</text>
</g>
<!-- MT_post__Male_S5\n Label 1 -->
<g id="node6" class="node"><title>MT_post__Male_S5\n Label 1</title>
<ellipse fill="lightblue" stroke="black" cx="118" cy="-227" rx="103.945" ry="31.1127"/>
<text text-anchor="middle" x="118" y="-232.4" font-family="Times Roman,serif" font-size="14.00">MT_post__Male_S5</text>
<text text-anchor="middle" x="118" y="-214.4" font-family="Times Roman,serif" font-size="14.00"> Label 1</text>
</g>
<!-- MT_post__trace_link3\n Label 4&#45;&gt;MT_post__Male_S5\n Label 1 -->
<g id="edge14" class="edge"><title>MT_post__trace_link3\n Label 4&#45;&gt;MT_post__Male_S5\n Label 1</title>
<path fill="none" stroke="black" d="M118,-293.992C118,-285.859 118,-276.959 118,-268.378"/>
<polygon fill="black" stroke="black" points="121.5,-268.142 118,-258.142 114.5,-268.142 121.5,-268.142"/>
</g>
<!-- MT_post__Male_T4\n Label 5 -->
<g id="node5" class="node"><title>MT_post__Male_T4\n Label 5</title>
<ellipse fill="lightblue" stroke="black" cx="118" cy="-423" rx="103.945" ry="31.1127"/>
<text text-anchor="middle" x="118" y="-428.4" font-family="Times Roman,serif" font-size="14.00">MT_post__Male_T4</text>
<text text-anchor="middle" x="118" y="-410.4" font-family="Times Roman,serif" font-size="14.00"> Label 5</text>
</g>
<!-- MT_post__Male_T4\n Label 5&#45;&gt;MT_post__trace_link3\n Label 4 -->
<g id="edge12" class="edge"><title>MT_post__Male_T4\n Label 5&#45;&gt;MT_post__trace_link3\n Label 4</title>
<path fill="none" stroke="black" d="M118,-391.992C118,-383.859 118,-374.959 118,-366.378"/>
<polygon fill="black" stroke="black" points="121.5,-366.142 118,-356.142 114.5,-366.142 121.5,-366.142"/>
</g>
<!-- MT_post__Male_S5\n Label 1&#45;&gt;MT_post__hasAttr_S1\n Label 3 -->
<g id="edge6" class="edge"><title>MT_post__Male_S5\n Label 1&#45;&gt;MT_post__hasAttr_S1\n Label 3</title>
<path fill="none" stroke="black" d="M118,-195.992C118,-187.859 118,-178.959 118,-170.378"/>
<polygon fill="black" stroke="black" points="121.5,-170.142 118,-160.142 114.5,-170.142 121.5,-170.142"/>
</g>
<!-- MT_post__Constant6\n Label 9 -->
<g id="node7" class="node"><title>MT_post__Constant6\n Label 9</title>
<ellipse fill="lightblue" stroke="black" cx="593" cy="-31" rx="113.844" ry="31.1127"/>
<text text-anchor="middle" x="593" y="-36.4" font-family="Times Roman,serif" font-size="14.00">MT_post__Constant6</text>
<text text-anchor="middle" x="593" y="-18.4" font-family="Times Roman,serif" font-size="14.00"> Label 9</text>
</g>
<!-- MT_post__leftExpr7\n Label 8&#45;&gt;MT_post__Attribute0\n Label 2 -->
<g id="edge4" class="edge"><title>MT_post__leftExpr7\n Label 8&#45;&gt;MT_post__Attribute0\n Label 2</title>
<path fill="none" stroke="black" d="M322.645,-99.8621C308.862,-89.3915 293.162,-77.4645 278.746,-66.5123"/>
<polygon fill="black" stroke="black" points="280.51,-63.4572 270.43,-60.1949 276.276,-69.0311 280.51,-63.4572"/>
</g>
<!-- MT_post__leftExpr8\n Label 10&#45;&gt;MT_post__Constant6\n Label 9 -->
<g id="edge16" class="edge"><title>MT_post__leftExpr8\n Label 10&#45;&gt;MT_post__Constant6\n Label 9</title>
<path fill="none" stroke="black" d="M593,-97.9922C593,-89.8594 593,-80.9587 593,-72.3777"/>
<polygon fill="black" stroke="black" points="596.5,-72.1424 593,-62.1425 589.5,-72.1425 596.5,-72.1424"/>
</g>
</g>
</svg>
