<?xml version="1.0" encoding="UTF-8" standalone="no"?>
<!DOCTYPE svg PUBLIC "-//W3C//DTD SVG 1.1//EN"
 "http://www.w3.org/Graphics/SVG/1.1/DTD/svg11.dtd">
<!-- Generated by graphviz version 2.26.3 (20100126.1600)
 -->
<!-- Title: rule_MM2MM Pages: 1 -->
<svg width="583pt" height="788pt"
 viewBox="0.00 0.00 583.00 788.00" xmlns="http://www.w3.org/2000/svg" xmlns:xlink="http://www.w3.org/1999/xlink">
<g id="graph1" class="graph" transform="scale(1 1) rotate(0) translate(4 784)">
<title>rule_MM2MM</title>
<polygon fill="white" stroke="white" points="-4,5 -4,-784 580,-784 580,5 -4,5"/>
<!-- directLink_T0\n -->
<g id="node1" class="node"><title>directLink_T0\n</title>
<ellipse fill="lightyellow" stroke="black" cx="340" cy="-341" rx="77.7817" ry="18.3848"/>
<text text-anchor="middle" x="340" y="-337.4" font-family="Times Roman,serif" font-size="14.00">directLink_T0</text>
</g>
<!-- Male_T12\n Classtype = t_\n Name = s_ -->
<g id="node13" class="node"><title>Male_T12\n Classtype = t_\n Name = s_</title>
<ellipse fill="lightblue" stroke="black" cx="363" cy="-242" rx="85.7684" ry="43.8406"/>
<text text-anchor="middle" x="363" y="-256.4" font-family="Times Roman,serif" font-size="14.00">Male_T12</text>
<text text-anchor="middle" x="363" y="-238.4" font-family="Times Roman,serif" font-size="14.00"> Classtype = t_</text>
<text text-anchor="middle" x="363" y="-220.4" font-family="Times Roman,serif" font-size="14.00"> Name = s_</text>
</g>
<!-- directLink_T0\n&#45;&gt;Male_T12\n Classtype = t_\n Name = s_ -->
<g id="edge12" class="edge"><title>directLink_T0\n&#45;&gt;Male_T12\n Classtype = t_\n Name = s_</title>
<path fill="none" stroke="black" d="M344.326,-322.379C346.103,-314.73 348.261,-305.443 350.469,-295.936"/>
<polygon fill="black" stroke="black" points="353.922,-296.541 352.776,-286.008 347.104,-294.957 353.922,-296.541"/>
</g>
<!-- paired_with1 -->
<g id="node2" class="node"><title>paired_with1</title>
<ellipse fill="lightgray" stroke="black" cx="308" cy="-687" rx="75.1594" ry="18.3848"/>
<text text-anchor="middle" x="308" y="-683.4" font-family="Times Roman,serif" font-size="14.00">paired_with1</text>
</g>
<!-- ApplyModel2 -->
<g id="node3" class="node"><title>ApplyModel2</title>
<ellipse fill="#fed017" stroke="black" cx="308" cy="-613" rx="73.0388" ry="18.3848"/>
<text text-anchor="middle" x="308" y="-609.4" font-family="Times Roman,serif" font-size="14.00">ApplyModel2</text>
</g>
<!-- paired_with1&#45;&gt;ApplyModel2 -->
<g id="edge16" class="edge"><title>paired_with1&#45;&gt;ApplyModel2</title>
<path fill="none" stroke="black" d="M308,-668.327C308,-660.264 308,-650.648 308,-641.711"/>
<polygon fill="black" stroke="black" points="311.5,-641.667 308,-631.667 304.5,-641.667 311.5,-641.667"/>
</g>
<!-- apply_contains5 -->
<g id="node6" class="node"><title>apply_contains5</title>
<ellipse fill="#fcdb58" stroke="black" cx="199" cy="-539" rx="90.0096" ry="18.3848"/>
<text text-anchor="middle" x="199" y="-535.4" font-family="Times Roman,serif" font-size="14.00">apply_contains5</text>
</g>
<!-- ApplyModel2&#45;&gt;apply_contains5 -->
<g id="edge2" class="edge"><title>ApplyModel2&#45;&gt;apply_contains5</title>
<path fill="none" stroke="black" d="M282.444,-595.65C267.897,-585.774 249.474,-573.267 233.641,-562.518"/>
<polygon fill="black" stroke="black" points="235.392,-559.476 225.153,-556.755 231.46,-565.268 235.392,-559.476"/>
</g>
<!-- apply_contains6 -->
<g id="node7" class="node"><title>apply_contains6</title>
<ellipse fill="#fcdb58" stroke="black" cx="366" cy="-440" rx="90.0096" ry="18.3848"/>
<text text-anchor="middle" x="366" y="-436.4" font-family="Times Roman,serif" font-size="14.00">apply_contains6</text>
</g>
<!-- ApplyModel2&#45;&gt;apply_contains6 -->
<g id="edge6" class="edge"><title>ApplyModel2&#45;&gt;apply_contains6</title>
<path fill="none" stroke="black" d="M314.207,-594.486C324.341,-564.259 344.506,-504.112 356.466,-468.439"/>
<polygon fill="black" stroke="black" points="359.89,-469.236 359.75,-458.642 353.253,-467.011 359.89,-469.236"/>
</g>
<!-- indirectLink_S3 -->
<g id="node4" class="node"><title>indirectLink_S3</title>
<ellipse fill="lightgreen" stroke="black" cx="161" cy="-143" rx="86.9741" ry="18.3848"/>
<text text-anchor="middle" x="161" y="-139.4" font-family="Times Roman,serif" font-size="14.00">indirectLink_S3</text>
</g>
<!-- Male_S14\n Classtype = 1\n Name = s_ -->
<g id="node15" class="node"><title>Male_S14\n Classtype = 1\n Name = s_</title>
<ellipse fill="lightblue" stroke="black" cx="363" cy="-44" rx="82.2301" ry="43.8406"/>
<text text-anchor="middle" x="363" y="-58.4" font-family="Times Roman,serif" font-size="14.00">Male_S14</text>
<text text-anchor="middle" x="363" y="-40.4" font-family="Times Roman,serif" font-size="14.00"> Classtype = 1</text>
<text text-anchor="middle" x="363" y="-22.4" font-family="Times Roman,serif" font-size="14.00"> Name = s_</text>
</g>
<!-- indirectLink_S3&#45;&gt;Male_S14\n Classtype = 1\n Name = s_ -->
<g id="edge28" class="edge"><title>indirectLink_S3&#45;&gt;Male_S14\n Classtype = 1\n Name = s_</title>
<path fill="none" stroke="black" d="M195.725,-125.981C222.43,-112.893 260.203,-94.3809 293.098,-78.2588"/>
<polygon fill="black" stroke="black" points="294.795,-81.3252 302.234,-73.7814 291.714,-75.0395 294.795,-81.3252"/>
</g>
<!-- MatchModel4 -->
<g id="node5" class="node"><title>MatchModel4</title>
<ellipse fill="#e15c34" stroke="black" cx="308" cy="-761" rx="75.8684" ry="18.3848"/>
<text text-anchor="middle" x="308" y="-757.4" font-family="Times Roman,serif" font-size="14.00">MatchModel4</text>
</g>
<!-- MatchModel4&#45;&gt;paired_with1 -->
<g id="edge14" class="edge"><title>MatchModel4&#45;&gt;paired_with1</title>
<path fill="none" stroke="black" d="M308,-742.327C308,-734.264 308,-724.648 308,-715.711"/>
<polygon fill="black" stroke="black" points="311.5,-715.667 308,-705.667 304.5,-715.667 311.5,-715.667"/>
</g>
<!-- match_contains9 -->
<g id="node10" class="node"><title>match_contains9</title>
<ellipse fill="#f798a1" stroke="black" cx="95" cy="-613" rx="94.7523" ry="18.3848"/>
<text text-anchor="middle" x="95" y="-609.4" font-family="Times Roman,serif" font-size="14.00">match_contains9</text>
</g>
<!-- MatchModel4&#45;&gt;match_contains9 -->
<g id="edge30" class="edge"><title>MatchModel4&#45;&gt;match_contains9</title>
<path fill="none" stroke="black" d="M280.556,-743.473C264.044,-732.818 242.675,-718.836 224,-706 190.884,-683.238 153.726,-656.297 127.826,-637.287"/>
<polygon fill="black" stroke="black" points="129.626,-634.266 119.496,-631.161 125.479,-639.905 129.626,-634.266"/>
</g>
<!-- match_contains10 -->
<g id="node11" class="node"><title>match_contains10</title>
<ellipse fill="#f798a1" stroke="black" cx="474" cy="-539" rx="101.116" ry="18.3848"/>
<text text-anchor="middle" x="474" y="-535.4" font-family="Times Roman,serif" font-size="14.00">match_contains10</text>
</g>
<!-- MatchModel4&#45;&gt;match_contains10 -->
<g id="edge34" class="edge"><title>MatchModel4&#45;&gt;match_contains10</title>
<path fill="none" stroke="black" d="M342.204,-744.196C358.826,-734.739 378.148,-721.674 392,-706 428.891,-664.256 453.293,-602.957 465.29,-567.401"/>
<polygon fill="black" stroke="black" points="468.692,-568.26 468.48,-557.668 462.04,-566.08 468.692,-568.26"/>
</g>
<!-- Male_T11\n Classtype = t_\n Name = s_ -->
<g id="node12" class="node"><title>Male_T11\n Classtype = t_\n Name = s_</title>
<ellipse fill="lightblue" stroke="black" cx="172" cy="-440" rx="85.7684" ry="43.8406"/>
<text text-anchor="middle" x="172" y="-454.4" font-family="Times Roman,serif" font-size="14.00">Male_T11</text>
<text text-anchor="middle" x="172" y="-436.4" font-family="Times Roman,serif" font-size="14.00"> Classtype = t_</text>
<text text-anchor="middle" x="172" y="-418.4" font-family="Times Roman,serif" font-size="14.00"> Name = s_</text>
</g>
<!-- apply_contains5&#45;&gt;Male_T11\n Classtype = t_\n Name = s_ -->
<g id="edge4" class="edge"><title>apply_contains5&#45;&gt;Male_T11\n Classtype = t_\n Name = s_</title>
<path fill="none" stroke="black" d="M193.922,-520.379C191.791,-512.565 189.193,-503.043 186.542,-493.322"/>
<polygon fill="black" stroke="black" points="189.897,-492.318 183.889,-483.592 183.143,-494.16 189.897,-492.318"/>
</g>
<!-- apply_contains6&#45;&gt;Male_T12\n Classtype = t_\n Name = s_ -->
<g id="edge8" class="edge"><title>apply_contains6&#45;&gt;Male_T12\n Classtype = t_\n Name = s_</title>
<path fill="none" stroke="black" d="M386.026,-421.919C408.451,-399.361 440.053,-359.212 427,-322 422.952,-310.461 416.463,-299.35 409.135,-289.269"/>
<polygon fill="black" stroke="black" points="411.689,-286.849 402.818,-281.057 406.141,-291.117 411.689,-286.849"/>
</g>
<!-- backward_link7 -->
<g id="node8" class="node"><title>backward_link7</title>
<ellipse fill="coral" stroke="black" cx="156" cy="-341" rx="87.889" ry="18.3848"/>
<text text-anchor="middle" x="156" y="-337.4" font-family="Times Roman,serif" font-size="14.00">backward_link7</text>
</g>
<!-- Male_S13\n Classtype = 1\n Name = s_ -->
<g id="node14" class="node"><title>Male_S13\n Classtype = 1\n Name = s_</title>
<ellipse fill="lightblue" stroke="black" cx="156" cy="-242" rx="82.2301" ry="43.8406"/>
<text text-anchor="middle" x="156" y="-256.4" font-family="Times Roman,serif" font-size="14.00">Male_S13</text>
<text text-anchor="middle" x="156" y="-238.4" font-family="Times Roman,serif" font-size="14.00"> Classtype = 1</text>
<text text-anchor="middle" x="156" y="-220.4" font-family="Times Roman,serif" font-size="14.00"> Name = s_</text>
</g>
<!-- backward_link7&#45;&gt;Male_S13\n Classtype = 1\n Name = s_ -->
<g id="edge20" class="edge"><title>backward_link7&#45;&gt;Male_S13\n Classtype = 1\n Name = s_</title>
<path fill="none" stroke="black" d="M156,-322.379C156,-314.81 156,-305.638 156,-296.236"/>
<polygon fill="black" stroke="black" points="159.5,-296.008 156,-286.008 152.5,-296.008 159.5,-296.008"/>
</g>
<!-- backward_link8 -->
<g id="node9" class="node"><title>backward_link8</title>
<ellipse fill="coral" stroke="black" cx="363" cy="-143" rx="87.889" ry="18.3848"/>
<text text-anchor="middle" x="363" y="-139.4" font-family="Times Roman,serif" font-size="14.00">backward_link8</text>
</g>
<!-- backward_link8&#45;&gt;Male_S14\n Classtype = 1\n Name = s_ -->
<g id="edge24" class="edge"><title>backward_link8&#45;&gt;Male_S14\n Classtype = 1\n Name = s_</title>
<path fill="none" stroke="black" d="M363,-124.379C363,-116.81 363,-107.638 363,-98.236"/>
<polygon fill="black" stroke="black" points="366.5,-98.0084 363,-88.0084 359.5,-98.0084 366.5,-98.0084"/>
</g>
<!-- match_contains9&#45;&gt;Male_S13\n Classtype = 1\n Name = s_ -->
<g id="edge32" class="edge"><title>match_contains9&#45;&gt;Male_S13\n Classtype = 1\n Name = s_</title>
<path fill="none" stroke="black" d="M86.1419,-594.542C64.5967,-546.847 14.3873,-416.622 59,-322 66.4705,-306.155 78.7894,-292.383 92.1827,-280.941"/>
<polygon fill="black" stroke="black" points="94.597,-283.489 100.164,-274.475 90.1907,-278.05 94.597,-283.489"/>
</g>
<!-- match_contains10&#45;&gt;Male_S14\n Classtype = 1\n Name = s_ -->
<g id="edge36" class="edge"><title>match_contains10&#45;&gt;Male_S14\n Classtype = 1\n Name = s_</title>
<path fill="none" stroke="black" d="M475.562,-520.453C478.375,-485.417 484,-407.084 484,-341 484,-341 484,-341 484,-242 484,-188.482 487.557,-169.878 460,-124 450.933,-108.905 437.949,-95.3795 424.416,-83.9334"/>
<polygon fill="black" stroke="black" points="426.381,-81.0207 416.411,-77.4383 421.971,-86.4567 426.381,-81.0207"/>
</g>
<!-- Male_T11\n Classtype = t_\n Name = s_&#45;&gt;directLink_T0\n -->
<g id="edge10" class="edge"><title>Male_T11\n Classtype = t_\n Name = s_&#45;&gt;directLink_T0\n</title>
<path fill="none" stroke="black" d="M228.409,-406.759C252.705,-392.442 280.466,-376.082 302.221,-363.263"/>
<polygon fill="black" stroke="black" points="304.008,-366.272 310.846,-358.18 300.454,-360.242 304.008,-366.272"/>
</g>
<!-- Male_T11\n Classtype = t_\n Name = s_&#45;&gt;backward_link7 -->
<g id="edge18" class="edge"><title>Male_T11\n Classtype = t_\n Name = s_&#45;&gt;backward_link7</title>
<path fill="none" stroke="black" d="M164.889,-396.001C163.434,-386.996 161.939,-377.745 160.6,-369.46"/>
<polygon fill="black" stroke="black" points="164.053,-368.887 159.002,-359.574 157.142,-370.004 164.053,-368.887"/>
</g>
<!-- Male_T12\n Classtype = t_\n Name = s_&#45;&gt;backward_link8 -->
<g id="edge22" class="edge"><title>Male_T12\n Classtype = t_\n Name = s_&#45;&gt;backward_link8</title>
<path fill="none" stroke="black" d="M363,-197.712C363,-188.978 363,-180.024 363,-171.956"/>
<polygon fill="black" stroke="black" points="366.5,-171.953 363,-161.953 359.5,-171.953 366.5,-171.953"/>
</g>
<!-- Male_S13\n Classtype = 1\n Name = s_&#45;&gt;indirectLink_S3 -->
<g id="edge26" class="edge"><title>Male_S13\n Classtype = 1\n Name = s_&#45;&gt;indirectLink_S3</title>
<path fill="none" stroke="black" d="M158.222,-198.001C158.672,-189.096 159.134,-179.95 159.549,-171.737"/>
<polygon fill="black" stroke="black" points="163.053,-171.738 160.062,-161.574 156.062,-171.385 163.053,-171.738"/>
</g>
</g>
</svg>
