<?xml version="1.0" encoding="UTF-8" standalone="no"?>
<!DOCTYPE svg PUBLIC "-//W3C//DTD SVG 1.1//EN"
 "http://www.w3.org/Graphics/SVG/1.1/DTD/svg11.dtd">
<!-- Generated by graphviz version 2.26.3 (20100126.1600)
 -->
<!-- Title: rule_S2S Pages: 1 -->
<svg width="854pt" height="492pt"
 viewBox="0.00 0.00 854.00 492.00" xmlns="http://www.w3.org/2000/svg" xmlns:xlink="http://www.w3.org/1999/xlink">
<g id="graph1" class="graph" transform="scale(1 1) rotate(0) translate(4 488)">
<title>rule_S2S</title>
<polygon fill="white" stroke="white" points="-4,5 -4,-488 851,-488 851,5 -4,5"/>
<!-- apply_contains0 -->
<g id="node1" class="node"><title>apply_contains0</title>
<ellipse fill="#fcdb58" stroke="black" cx="90" cy="-168" rx="90.0096" ry="18.3848"/>
<text text-anchor="middle" x="90" y="-164.4" font-family="Times Roman,serif" font-size="14.00">apply_contains0</text>
</g>
<!-- Station_T6\n Classtype = t_\n Name = s_ -->
<g id="node7" class="node"><title>Station_T6\n Classtype = t_\n Name = s_</title>
<ellipse fill="lightblue" stroke="black" cx="90" cy="-44" rx="85.7684" ry="43.8406"/>
<text text-anchor="middle" x="90" y="-58.4" font-family="Times Roman,serif" font-size="14.00">Station_T6</text>
<text text-anchor="middle" x="90" y="-40.4" font-family="Times Roman,serif" font-size="14.00"> Classtype = t_</text>
<text text-anchor="middle" x="90" y="-22.4" font-family="Times Roman,serif" font-size="14.00"> Name = s_</text>
</g>
<!-- apply_contains0&#45;&gt;Station_T6\n Classtype = t_\n Name = s_ -->
<g id="edge4" class="edge"><title>apply_contains0&#45;&gt;Station_T6\n Classtype = t_\n Name = s_</title>
<path fill="none" stroke="black" d="M90,-149.436C90,-135.812 90,-116.564 90,-98.2353"/>
<polygon fill="black" stroke="black" points="93.5001,-98.1891 90,-88.1891 86.5001,-98.1891 93.5001,-98.1891"/>
</g>
<!-- leftExpr1\n Classtype = None\n Name = None -->
<g id="node2" class="node"><title>leftExpr1\n Classtype = None\n Name = None</title>
<ellipse fill="lightblue" stroke="black" cx="522" cy="-168" rx="101.823" ry="43.8406"/>
<text text-anchor="middle" x="522" y="-182.4" font-family="Times Roman,serif" font-size="14.00">leftExpr1</text>
<text text-anchor="middle" x="522" y="-164.4" font-family="Times Roman,serif" font-size="14.00"> Classtype = None</text>
<text text-anchor="middle" x="522" y="-146.4" font-family="Times Roman,serif" font-size="14.00"> Name = None</text>
</g>
<!-- Attribute12\n Classtype = None\n Name = name -->
<g id="node13" class="node"><title>Attribute12\n Classtype = None\n Name = name</title>
<ellipse fill="lightblue" stroke="black" cx="411" cy="-44" rx="101.823" ry="43.8406"/>
<text text-anchor="middle" x="411" y="-58.4" font-family="Times Roman,serif" font-size="14.00">Attribute12</text>
<text text-anchor="middle" x="411" y="-40.4" font-family="Times Roman,serif" font-size="14.00"> Classtype = None</text>
<text text-anchor="middle" x="411" y="-22.4" font-family="Times Roman,serif" font-size="14.00"> Name = name</text>
</g>
<!-- leftExpr1\n Classtype = None\n Name = None&#45;&gt;Attribute12\n Classtype = None\n Name = name -->
<g id="edge8" class="edge"><title>leftExpr1\n Classtype = None\n Name = None&#45;&gt;Attribute12\n Classtype = None\n Name = name</title>
<path fill="none" stroke="black" d="M485.039,-126.71C475.303,-115.834 464.707,-103.997 454.655,-92.7677"/>
<polygon fill="black" stroke="black" points="457.078,-90.2264 447.8,-85.1099 451.862,-94.8952 457.078,-90.2264"/>
</g>
<!-- paired_with2 -->
<g id="node3" class="node"><title>paired_with2</title>
<ellipse fill="lightgray" stroke="black" cx="95" cy="-391" rx="75.1594" ry="18.3848"/>
<text text-anchor="middle" x="95" y="-387.4" font-family="Times Roman,serif" font-size="14.00">paired_with2</text>
</g>
<!-- ApplyModel4 -->
<g id="node5" class="node"><title>ApplyModel4</title>
<ellipse fill="#fed017" stroke="black" cx="92" cy="-292" rx="73.0388" ry="18.3848"/>
<text text-anchor="middle" x="92" y="-288.4" font-family="Times Roman,serif" font-size="14.00">ApplyModel4</text>
</g>
<!-- paired_with2&#45;&gt;ApplyModel4 -->
<g id="edge12" class="edge"><title>paired_with2&#45;&gt;ApplyModel4</title>
<path fill="none" stroke="black" d="M94.4357,-372.379C93.9957,-357.86 93.3769,-337.439 92.8732,-320.814"/>
<polygon fill="black" stroke="black" points="96.3631,-320.427 92.5617,-310.538 89.3663,-320.639 96.3631,-320.427"/>
</g>
<!-- hasAttr_S3\n Classtype = None\n Name = None -->
<g id="node4" class="node"><title>hasAttr_S3\n Classtype = None\n Name = None</title>
<ellipse fill="lightblue" stroke="black" cx="300" cy="-168" rx="101.823" ry="43.8406"/>
<text text-anchor="middle" x="300" y="-182.4" font-family="Times Roman,serif" font-size="14.00">hasAttr_S3</text>
<text text-anchor="middle" x="300" y="-164.4" font-family="Times Roman,serif" font-size="14.00"> Classtype = None</text>
<text text-anchor="middle" x="300" y="-146.4" font-family="Times Roman,serif" font-size="14.00"> Name = None</text>
</g>
<!-- hasAttr_S3\n Classtype = None\n Name = None&#45;&gt;Attribute12\n Classtype = None\n Name = name -->
<g id="edge16" class="edge"><title>hasAttr_S3\n Classtype = None\n Name = None&#45;&gt;Attribute12\n Classtype = None\n Name = name</title>
<path fill="none" stroke="black" d="M336.961,-126.71C346.697,-115.834 357.293,-103.997 367.345,-92.7677"/>
<polygon fill="black" stroke="black" points="370.138,-94.8952 374.2,-85.1099 364.922,-90.2264 370.138,-94.8952"/>
</g>
<!-- ApplyModel4&#45;&gt;apply_contains0 -->
<g id="edge2" class="edge"><title>ApplyModel4&#45;&gt;apply_contains0</title>
<path fill="none" stroke="black" d="M91.7006,-273.436C91.3736,-253.164 90.8458,-220.442 90.4649,-196.824"/>
<polygon fill="black" stroke="black" points="93.9624,-196.633 90.3015,-186.691 86.9633,-196.746 93.9624,-196.633"/>
</g>
<!-- Station_S5\n Classtype = 1\n Name = s_ -->
<g id="node6" class="node"><title>Station_S5\n Classtype = 1\n Name = s_</title>
<ellipse fill="lightblue" stroke="black" cx="289" cy="-292" rx="82.2301" ry="43.8406"/>
<text text-anchor="middle" x="289" y="-306.4" font-family="Times Roman,serif" font-size="14.00">Station_S5</text>
<text text-anchor="middle" x="289" y="-288.4" font-family="Times Roman,serif" font-size="14.00"> Classtype = 1</text>
<text text-anchor="middle" x="289" y="-270.4" font-family="Times Roman,serif" font-size="14.00"> Name = s_</text>
</g>
<!-- Station_S5\n Classtype = 1\n Name = s_&#45;&gt;hasAttr_S3\n Classtype = None\n Name = None -->
<g id="edge14" class="edge"><title>Station_S5\n Classtype = 1\n Name = s_&#45;&gt;hasAttr_S3\n Classtype = None\n Name = None</title>
<path fill="none" stroke="black" d="M292.909,-247.933C293.638,-239.718 294.407,-231.043 295.16,-222.557"/>
<polygon fill="black" stroke="black" points="298.669,-222.613 296.066,-212.343 291.696,-221.994 298.669,-222.613"/>
</g>
<!-- Equation7\n Classtype = None\n Name = None -->
<g id="node8" class="node"><title>Equation7\n Classtype = None\n Name = None</title>
<ellipse fill="lightblue" stroke="black" cx="633" cy="-292" rx="101.823" ry="43.8406"/>
<text text-anchor="middle" x="633" y="-306.4" font-family="Times Roman,serif" font-size="14.00">Equation7</text>
<text text-anchor="middle" x="633" y="-288.4" font-family="Times Roman,serif" font-size="14.00"> Classtype = None</text>
<text text-anchor="middle" x="633" y="-270.4" font-family="Times Roman,serif" font-size="14.00"> Name = None</text>
</g>
<!-- Equation7\n Classtype = None\n Name = None&#45;&gt;leftExpr1\n Classtype = None\n Name = None -->
<g id="edge6" class="edge"><title>Equation7\n Classtype = None\n Name = None&#45;&gt;leftExpr1\n Classtype = None\n Name = None</title>
<path fill="none" stroke="black" d="M596.039,-250.71C586.303,-239.834 575.707,-227.997 565.655,-216.768"/>
<polygon fill="black" stroke="black" points="568.078,-214.226 558.8,-209.11 562.862,-218.895 568.078,-214.226"/>
</g>
<!-- rightExpr10\n Classtype = None\n Name = None -->
<g id="node11" class="node"><title>rightExpr10\n Classtype = None\n Name = None</title>
<ellipse fill="lightblue" stroke="black" cx="744" cy="-168" rx="101.823" ry="43.8406"/>
<text text-anchor="middle" x="744" y="-182.4" font-family="Times Roman,serif" font-size="14.00">rightExpr10</text>
<text text-anchor="middle" x="744" y="-164.4" font-family="Times Roman,serif" font-size="14.00"> Classtype = None</text>
<text text-anchor="middle" x="744" y="-146.4" font-family="Times Roman,serif" font-size="14.00"> Name = None</text>
</g>
<!-- Equation7\n Classtype = None\n Name = None&#45;&gt;rightExpr10\n Classtype = None\n Name = None -->
<g id="edge20" class="edge"><title>Equation7\n Classtype = None\n Name = None&#45;&gt;rightExpr10\n Classtype = None\n Name = None</title>
<path fill="none" stroke="black" d="M669.961,-250.71C679.697,-239.834 690.293,-227.997 700.345,-216.768"/>
<polygon fill="black" stroke="black" points="703.138,-218.895 707.2,-209.11 697.922,-214.226 703.138,-218.895"/>
</g>
<!-- match_contains8 -->
<g id="node9" class="node"><title>match_contains8</title>
<ellipse fill="#f798a1" stroke="black" cx="284" cy="-391" rx="94.7523" ry="18.3848"/>
<text text-anchor="middle" x="284" y="-387.4" font-family="Times Roman,serif" font-size="14.00">match_contains8</text>
</g>
<!-- match_contains8&#45;&gt;Station_S5\n Classtype = 1\n Name = s_ -->
<g id="edge18" class="edge"><title>match_contains8&#45;&gt;Station_S5\n Classtype = 1\n Name = s_</title>
<path fill="none" stroke="black" d="M284.94,-372.379C285.323,-364.81 285.786,-355.638 286.261,-346.236"/>
<polygon fill="black" stroke="black" points="289.768,-346.172 286.777,-336.008 282.777,-345.819 289.768,-346.172"/>
</g>
<!-- Constant9\n Classtype = None\n Name = None -->
<g id="node10" class="node"><title>Constant9\n Classtype = None\n Name = None</title>
<ellipse fill="lightblue" stroke="black" cx="744" cy="-44" rx="101.823" ry="43.8406"/>
<text text-anchor="middle" x="744" y="-58.4" font-family="Times Roman,serif" font-size="14.00">Constant9</text>
<text text-anchor="middle" x="744" y="-40.4" font-family="Times Roman,serif" font-size="14.00"> Classtype = None</text>
<text text-anchor="middle" x="744" y="-22.4" font-family="Times Roman,serif" font-size="14.00"> Name = None</text>
</g>
<!-- rightExpr10\n Classtype = None\n Name = None&#45;&gt;Constant9\n Classtype = None\n Name = None -->
<g id="edge24" class="edge"><title>rightExpr10\n Classtype = None\n Name = None&#45;&gt;Constant9\n Classtype = None\n Name = None</title>
<path fill="none" stroke="black" d="M744,-123.933C744,-115.718 744,-107.043 744,-98.5568"/>
<polygon fill="black" stroke="black" points="747.5,-98.3428 744,-88.3428 740.5,-98.3428 747.5,-98.3428"/>
</g>
<!-- MatchModel11 -->
<g id="node12" class="node"><title>MatchModel11</title>
<ellipse fill="#e15c34" stroke="black" cx="189" cy="-465" rx="82.2301" ry="18.3848"/>
<text text-anchor="middle" x="189" y="-461.4" font-family="Times Roman,serif" font-size="14.00">MatchModel11</text>
</g>
<!-- MatchModel11&#45;&gt;paired_with2 -->
<g id="edge10" class="edge"><title>MatchModel11&#45;&gt;paired_with2</title>
<path fill="none" stroke="black" d="M166.245,-447.087C154.006,-437.452 138.747,-425.439 125.493,-415.005"/>
<polygon fill="black" stroke="black" points="127.568,-412.184 117.545,-408.748 123.238,-417.684 127.568,-412.184"/>
</g>
<!-- MatchModel11&#45;&gt;match_contains8 -->
<g id="edge22" class="edge"><title>MatchModel11&#45;&gt;match_contains8</title>
<path fill="none" stroke="black" d="M211.997,-447.087C224.275,-437.523 239.561,-425.615 252.887,-415.236"/>
<polygon fill="black" stroke="black" points="255.147,-417.911 260.886,-409.005 250.846,-412.389 255.147,-417.911"/>
</g>
</g>
</svg>
