<?xml version="1.0" encoding="UTF-8" standalone="no"?>
<!DOCTYPE svg PUBLIC "-//W3C//DTD SVG 1.1//EN"
 "http://www.w3.org/Graphics/SVG/1.1/DTD/svg11.dtd">
<!-- Generated by graphviz version 2.26.3 (20100126.1600)
 -->
<!-- Title: rule_F2F Pages: 1 -->
<svg width="697pt" height="740pt"
 viewBox="0.00 0.00 697.00 740.00" xmlns="http://www.w3.org/2000/svg" xmlns:xlink="http://www.w3.org/1999/xlink">
<g id="graph1" class="graph" transform="scale(1 1) rotate(0) translate(4 736)">
<title>rule_F2F</title>
<polygon fill="white" stroke="white" points="-4,5 -4,-736 694,-736 694,5 -4,5"/>
<!-- apply_contains0 -->
<g id="node1" class="node"><title>apply_contains0</title>
<ellipse fill="#fcdb58" stroke="black" cx="599" cy="-416" rx="90.0096" ry="18.3848"/>
<text text-anchor="middle" x="599" y="-412.4" font-family="Times Roman,serif" font-size="14.00">apply_contains0</text>
</g>
<!-- Female_T6\n Classtype = t_\n Name = s_ -->
<g id="node7" class="node"><title>Female_T6\n Classtype = t_\n Name = s_</title>
<ellipse fill="lightblue" stroke="black" cx="542" cy="-292" rx="85.7684" ry="43.8406"/>
<text text-anchor="middle" x="542" y="-306.4" font-family="Times Roman,serif" font-size="14.00">Female_T6</text>
<text text-anchor="middle" x="542" y="-288.4" font-family="Times Roman,serif" font-size="14.00"> Classtype = t_</text>
<text text-anchor="middle" x="542" y="-270.4" font-family="Times Roman,serif" font-size="14.00"> Name = s_</text>
</g>
<!-- apply_contains0&#45;&gt;Female_T6\n Classtype = t_\n Name = s_ -->
<g id="edge4" class="edge"><title>apply_contains0&#45;&gt;Female_T6\n Classtype = t_\n Name = s_</title>
<path fill="none" stroke="black" d="M590.467,-397.436C583.954,-383.269 574.647,-363.022 565.926,-344.05"/>
<polygon fill="black" stroke="black" points="569.064,-342.496 561.707,-334.872 562.704,-345.42 569.064,-342.496"/>
</g>
<!-- hasAttr_T1\n Classtype = None\n Name = None -->
<g id="node2" class="node"><title>hasAttr_T1\n Classtype = None\n Name = None</title>
<ellipse fill="lightblue" stroke="black" cx="471" cy="-168" rx="101.823" ry="43.8406"/>
<text text-anchor="middle" x="471" y="-182.4" font-family="Times Roman,serif" font-size="14.00">hasAttr_T1</text>
<text text-anchor="middle" x="471" y="-164.4" font-family="Times Roman,serif" font-size="14.00"> Classtype = None</text>
<text text-anchor="middle" x="471" y="-146.4" font-family="Times Roman,serif" font-size="14.00"> Name = None</text>
</g>
<!-- Attribute13\n Classtype = None\n Name = name -->
<g id="node14" class="node"><title>Attribute13\n Classtype = None\n Name = name</title>
<ellipse fill="lightblue" stroke="black" cx="324" cy="-44" rx="101.823" ry="43.8406"/>
<text text-anchor="middle" x="324" y="-58.4" font-family="Times Roman,serif" font-size="14.00">Attribute13</text>
<text text-anchor="middle" x="324" y="-40.4" font-family="Times Roman,serif" font-size="14.00"> Classtype = None</text>
<text text-anchor="middle" x="324" y="-22.4" font-family="Times Roman,serif" font-size="14.00"> Name = name</text>
</g>
<!-- hasAttr_T1\n Classtype = None\n Name = None&#45;&gt;Attribute13\n Classtype = None\n Name = name -->
<g id="edge8" class="edge"><title>hasAttr_T1\n Classtype = None\n Name = None&#45;&gt;Attribute13\n Classtype = None\n Name = name</title>
<path fill="none" stroke="black" d="M424.488,-128.766C409.804,-116.379 393.452,-102.585 378.275,-89.7832"/>
<polygon fill="black" stroke="black" points="380.362,-86.9643 370.461,-83.1918 375.848,-92.3149 380.362,-86.9643"/>
</g>
<!-- leftExpr2\n Classtype = None\n Name = None -->
<g id="node3" class="node"><title>leftExpr2\n Classtype = None\n Name = None</title>
<ellipse fill="lightblue" stroke="black" cx="167" cy="-416" rx="101.823" ry="43.8406"/>
<text text-anchor="middle" x="167" y="-430.4" font-family="Times Roman,serif" font-size="14.00">leftExpr2</text>
<text text-anchor="middle" x="167" y="-412.4" font-family="Times Roman,serif" font-size="14.00"> Classtype = None</text>
<text text-anchor="middle" x="167" y="-394.4" font-family="Times Roman,serif" font-size="14.00"> Name = None</text>
</g>
<!-- Attribute12\n Classtype = None\n Name = name -->
<g id="node13" class="node"><title>Attribute12\n Classtype = None\n Name = name</title>
<ellipse fill="lightblue" stroke="black" cx="223" cy="-292" rx="101.823" ry="43.8406"/>
<text text-anchor="middle" x="223" y="-306.4" font-family="Times Roman,serif" font-size="14.00">Attribute12</text>
<text text-anchor="middle" x="223" y="-288.4" font-family="Times Roman,serif" font-size="14.00"> Classtype = None</text>
<text text-anchor="middle" x="223" y="-270.4" font-family="Times Roman,serif" font-size="14.00"> Name = name</text>
</g>
<!-- leftExpr2\n Classtype = None\n Name = None&#45;&gt;Attribute12\n Classtype = None\n Name = name -->
<g id="edge12" class="edge"><title>leftExpr2\n Classtype = None\n Name = None&#45;&gt;Attribute12\n Classtype = None\n Name = name</title>
<path fill="none" stroke="black" d="M186.586,-372.631C190.655,-363.621 194.985,-354.034 199.186,-344.73"/>
<polygon fill="black" stroke="black" points="202.404,-346.109 203.33,-335.554 196.025,-343.227 202.404,-346.109"/>
</g>
<!-- paired_with3 -->
<g id="node4" class="node"><title>paired_with3</title>
<ellipse fill="lightgray" stroke="black" cx="592" cy="-639" rx="75.1594" ry="18.3848"/>
<text text-anchor="middle" x="592" y="-635.4" font-family="Times Roman,serif" font-size="14.00">paired_with3</text>
</g>
<!-- ApplyModel5 -->
<g id="node6" class="node"><title>ApplyModel5</title>
<ellipse fill="#fed017" stroke="black" cx="597" cy="-540" rx="73.0388" ry="18.3848"/>
<text text-anchor="middle" x="597" y="-536.4" font-family="Times Roman,serif" font-size="14.00">ApplyModel5</text>
</g>
<!-- paired_with3&#45;&gt;ApplyModel5 -->
<g id="edge16" class="edge"><title>paired_with3&#45;&gt;ApplyModel5</title>
<path fill="none" stroke="black" d="M592.94,-620.379C593.674,-605.86 594.705,-585.439 595.545,-568.814"/>
<polygon fill="black" stroke="black" points="599.055,-568.701 596.064,-558.538 592.064,-568.348 599.055,-568.701"/>
</g>
<!-- hasAttr_S4\n Classtype = None\n Name = None -->
<g id="node5" class="node"><title>hasAttr_S4\n Classtype = None\n Name = None</title>
<ellipse fill="lightblue" stroke="black" cx="389" cy="-416" rx="101.823" ry="43.8406"/>
<text text-anchor="middle" x="389" y="-430.4" font-family="Times Roman,serif" font-size="14.00">hasAttr_S4</text>
<text text-anchor="middle" x="389" y="-412.4" font-family="Times Roman,serif" font-size="14.00"> Classtype = None</text>
<text text-anchor="middle" x="389" y="-394.4" font-family="Times Roman,serif" font-size="14.00"> Name = None</text>
</g>
<!-- hasAttr_S4\n Classtype = None\n Name = None&#45;&gt;Attribute12\n Classtype = None\n Name = name -->
<g id="edge20" class="edge"><title>hasAttr_S4\n Classtype = None\n Name = None&#45;&gt;Attribute12\n Classtype = None\n Name = name</title>
<path fill="none" stroke="black" d="M337.84,-377.784C320.326,-364.702 300.584,-349.954 282.471,-336.424"/>
<polygon fill="black" stroke="black" points="284.383,-333.484 274.277,-330.303 280.194,-339.092 284.383,-333.484"/>
</g>
<!-- ApplyModel5&#45;&gt;apply_contains0 -->
<g id="edge2" class="edge"><title>ApplyModel5&#45;&gt;apply_contains0</title>
<path fill="none" stroke="black" d="M597.299,-521.436C597.626,-501.164 598.154,-468.442 598.535,-444.824"/>
<polygon fill="black" stroke="black" points="602.037,-444.746 598.699,-434.691 595.038,-444.633 602.037,-444.746"/>
</g>
<!-- Female_T6\n Classtype = t_\n Name = s_&#45;&gt;hasAttr_T1\n Classtype = None\n Name = None -->
<g id="edge6" class="edge"><title>Female_T6\n Classtype = t_\n Name = s_&#45;&gt;hasAttr_T1\n Classtype = None\n Name = None</title>
<path fill="none" stroke="black" d="M517.764,-249.673C512.29,-240.112 506.416,-229.854 500.744,-219.948"/>
<polygon fill="black" stroke="black" points="503.615,-217.918 495.609,-210.979 497.541,-221.396 503.615,-217.918"/>
</g>
<!-- Female_S7\n Classtype = 1\n Name = s_ -->
<g id="node8" class="node"><title>Female_S7\n Classtype = 1\n Name = s_</title>
<ellipse fill="lightblue" stroke="black" cx="400" cy="-540" rx="82.2301" ry="43.8406"/>
<text text-anchor="middle" x="400" y="-554.4" font-family="Times Roman,serif" font-size="14.00">Female_S7</text>
<text text-anchor="middle" x="400" y="-536.4" font-family="Times Roman,serif" font-size="14.00"> Classtype = 1</text>
<text text-anchor="middle" x="400" y="-518.4" font-family="Times Roman,serif" font-size="14.00"> Name = s_</text>
</g>
<!-- Female_S7\n Classtype = 1\n Name = s_&#45;&gt;hasAttr_S4\n Classtype = None\n Name = None -->
<g id="edge18" class="edge"><title>Female_S7\n Classtype = 1\n Name = s_&#45;&gt;hasAttr_S4\n Classtype = None\n Name = None</title>
<path fill="none" stroke="black" d="M396.091,-495.933C395.362,-487.718 394.593,-479.043 393.84,-470.557"/>
<polygon fill="black" stroke="black" points="397.304,-469.994 392.934,-460.343 390.331,-470.613 397.304,-469.994"/>
</g>
<!-- Equation8\n Classtype = None\n Name = None -->
<g id="node9" class="node"><title>Equation8\n Classtype = None\n Name = None</title>
<ellipse fill="lightblue" stroke="black" cx="102" cy="-540" rx="101.823" ry="43.8406"/>
<text text-anchor="middle" x="102" y="-554.4" font-family="Times Roman,serif" font-size="14.00">Equation8</text>
<text text-anchor="middle" x="102" y="-536.4" font-family="Times Roman,serif" font-size="14.00"> Classtype = None</text>
<text text-anchor="middle" x="102" y="-518.4" font-family="Times Roman,serif" font-size="14.00"> Name = None</text>
</g>
<!-- Equation8\n Classtype = None\n Name = None&#45;&gt;leftExpr2\n Classtype = None\n Name = None -->
<g id="edge10" class="edge"><title>Equation8\n Classtype = None\n Name = None&#45;&gt;leftExpr2\n Classtype = None\n Name = None</title>
<path fill="none" stroke="black" d="M124.551,-496.979C129.442,-487.649 134.665,-477.685 139.716,-468.05"/>
<polygon fill="black" stroke="black" points="142.946,-469.427 144.488,-458.945 136.746,-466.177 142.946,-469.427"/>
</g>
<!-- rightExpr10\n Classtype = None\n Name = None -->
<g id="node11" class="node"><title>rightExpr10\n Classtype = None\n Name = None</title>
<ellipse fill="lightblue" stroke="black" cx="178" cy="-168" rx="101.823" ry="43.8406"/>
<text text-anchor="middle" x="178" y="-182.4" font-family="Times Roman,serif" font-size="14.00">rightExpr10</text>
<text text-anchor="middle" x="178" y="-164.4" font-family="Times Roman,serif" font-size="14.00"> Classtype = None</text>
<text text-anchor="middle" x="178" y="-146.4" font-family="Times Roman,serif" font-size="14.00"> Name = None</text>
</g>
<!-- Equation8\n Classtype = None\n Name = None&#45;&gt;rightExpr10\n Classtype = None\n Name = None -->
<g id="edge24" class="edge"><title>Equation8\n Classtype = None\n Name = None&#45;&gt;rightExpr10\n Classtype = None\n Name = None</title>
<path fill="none" stroke="black" d="M72.3092,-497.796C65.6177,-486.085 59.4717,-473.002 56,-460 45.9106,-422.213 47.7667,-410.235 56,-372 68.7297,-312.884 80.0328,-299.33 112,-248 118.534,-237.508 126.31,-226.89 134.192,-216.969"/>
<polygon fill="black" stroke="black" points="136.931,-219.148 140.514,-209.177 131.495,-214.737 136.931,-219.148"/>
</g>
<!-- match_contains9 -->
<g id="node10" class="node"><title>match_contains9</title>
<ellipse fill="#f798a1" stroke="black" cx="401" cy="-639" rx="94.7523" ry="18.3848"/>
<text text-anchor="middle" x="401" y="-635.4" font-family="Times Roman,serif" font-size="14.00">match_contains9</text>
</g>
<!-- match_contains9&#45;&gt;Female_S7\n Classtype = 1\n Name = s_ -->
<g id="edge22" class="edge"><title>match_contains9&#45;&gt;Female_S7\n Classtype = 1\n Name = s_</title>
<path fill="none" stroke="black" d="M400.812,-620.379C400.735,-612.81 400.643,-603.638 400.548,-594.236"/>
<polygon fill="black" stroke="black" points="404.045,-593.972 400.445,-584.008 397.046,-594.043 404.045,-593.972"/>
</g>
<!-- rightExpr10\n Classtype = None\n Name = None&#45;&gt;Attribute13\n Classtype = None\n Name = name -->
<g id="edge28" class="edge"><title>rightExpr10\n Classtype = None\n Name = None&#45;&gt;Attribute13\n Classtype = None\n Name = name</title>
<path fill="none" stroke="black" d="M224.195,-128.766C238.708,-116.44 254.862,-102.72 269.873,-89.9707"/>
<polygon fill="black" stroke="black" points="272.248,-92.5459 277.604,-83.4048 267.716,-87.2105 272.248,-92.5459"/>
</g>
<!-- MatchModel11 -->
<g id="node12" class="node"><title>MatchModel11</title>
<ellipse fill="#e15c34" stroke="black" cx="496" cy="-713" rx="82.2301" ry="18.3848"/>
<text text-anchor="middle" x="496" y="-709.4" font-family="Times Roman,serif" font-size="14.00">MatchModel11</text>
</g>
<!-- MatchModel11&#45;&gt;paired_with3 -->
<g id="edge14" class="edge"><title>MatchModel11&#45;&gt;paired_with3</title>
<path fill="none" stroke="black" d="M519.239,-695.087C531.738,-685.452 547.322,-673.439 560.858,-663.005"/>
<polygon fill="black" stroke="black" points="563.192,-665.626 568.975,-656.748 558.918,-660.081 563.192,-665.626"/>
</g>
<!-- MatchModel11&#45;&gt;match_contains9 -->
<g id="edge26" class="edge"><title>MatchModel11&#45;&gt;match_contains9</title>
<path fill="none" stroke="black" d="M473.003,-695.087C460.725,-685.523 445.439,-673.615 432.113,-663.236"/>
<polygon fill="black" stroke="black" points="434.154,-660.389 424.114,-657.005 429.853,-665.911 434.154,-660.389"/>
</g>
</g>
</svg>
