<?xml version="1.0" encoding="UTF-8" standalone="no"?>
<!DOCTYPE svg PUBLIC "-//W3C//DTD SVG 1.1//EN"
 "http://www.w3.org/Graphics/SVG/1.1/DTD/svg11.dtd">
<!-- Generated by graphviz version 2.26.3 (20100126.1600)
 -->
<!-- Title: rule_SF2SF_run1 Pages: 1 -->
<svg width="631pt" height="788pt"
 viewBox="0.00 0.00 631.00 788.00" xmlns="http://www.w3.org/2000/svg" xmlns:xlink="http://www.w3.org/1999/xlink">
<g id="graph1" class="graph" transform="scale(1 1) rotate(0) translate(4 784)">
<title>rule_SF2SF_run1</title>
<polygon fill="white" stroke="white" points="-4,5 -4,-784 628,-784 628,5 -4,5"/>
<!-- directLink_T0\n -->
<g id="node1" class="node"><title>directLink_T0\n</title>
<ellipse fill="lightyellow" stroke="black" cx="343" cy="-341" rx="77.7817" ry="18.3848"/>
<text text-anchor="middle" x="343" y="-337.4" font-family="Times Roman,serif" font-size="14.00">directLink_T0</text>
</g>
<!-- Female_T3\n Classtype = female1\n Name = 5.f -->
<g id="node4" class="node"><title>Female_T3\n Classtype = female1\n Name = 5.f</title>
<ellipse fill="lightblue" stroke="black" cx="393" cy="-242" rx="114.759" ry="43.8406"/>
<text text-anchor="middle" x="393" y="-256.4" font-family="Times Roman,serif" font-size="14.00">Female_T3</text>
<text text-anchor="middle" x="393" y="-238.4" font-family="Times Roman,serif" font-size="14.00"> Classtype = female1</text>
<text text-anchor="middle" x="393" y="-220.4" font-family="Times Roman,serif" font-size="14.00"> Name = 5.f</text>
</g>
<!-- directLink_T0\n&#45;&gt;Female_T3\n Classtype = female1\n Name = 5.f -->
<g id="edge20" class="edge"><title>directLink_T0\n&#45;&gt;Female_T3\n Classtype = female1\n Name = 5.f</title>
<path fill="none" stroke="black" d="M352.405,-322.379C356.433,-314.402 361.361,-304.645 366.377,-294.714"/>
<polygon fill="black" stroke="black" points="369.6,-296.096 370.984,-285.592 363.352,-292.94 369.6,-296.096"/>
</g>
<!-- ApplyModel1 -->
<g id="node2" class="node"><title>ApplyModel1</title>
<ellipse fill="#fed017" stroke="black" cx="329" cy="-613" rx="73.0388" ry="18.3848"/>
<text text-anchor="middle" x="329" y="-609.4" font-family="Times Roman,serif" font-size="14.00">ApplyModel1</text>
</g>
<!-- apply_contains9 -->
<g id="node10" class="node"><title>apply_contains9</title>
<ellipse fill="#fcdb58" stroke="black" cx="194" cy="-539" rx="90.0096" ry="18.3848"/>
<text text-anchor="middle" x="194" y="-535.4" font-family="Times Roman,serif" font-size="14.00">apply_contains9</text>
</g>
<!-- ApplyModel1&#45;&gt;apply_contains9 -->
<g id="edge2" class="edge"><title>ApplyModel1&#45;&gt;apply_contains9</title>
<path fill="none" stroke="black" d="M298.028,-596.023C279.262,-585.736 255.104,-572.494 234.793,-561.361"/>
<polygon fill="black" stroke="black" points="236.216,-558.149 225.765,-556.412 232.851,-564.288 236.216,-558.149"/>
</g>
<!-- apply_contains10 -->
<g id="node11" class="node"><title>apply_contains10</title>
<ellipse fill="#fcdb58" stroke="black" cx="411" cy="-440" rx="96.8736" ry="18.3848"/>
<text text-anchor="middle" x="411" y="-436.4" font-family="Times Roman,serif" font-size="14.00">apply_contains10</text>
</g>
<!-- ApplyModel1&#45;&gt;apply_contains10 -->
<g id="edge6" class="edge"><title>ApplyModel1&#45;&gt;apply_contains10</title>
<path fill="none" stroke="black" d="M337.775,-594.486C352.164,-564.13 380.857,-503.595 397.737,-467.981"/>
<polygon fill="black" stroke="black" points="401.043,-469.178 402.164,-458.642 394.718,-466.18 401.043,-469.178"/>
</g>
<!-- MatchModel2 -->
<g id="node3" class="node"><title>MatchModel2</title>
<ellipse fill="#e15c34" stroke="black" cx="329" cy="-761" rx="75.8684" ry="18.3848"/>
<text text-anchor="middle" x="329" y="-757.4" font-family="Times Roman,serif" font-size="14.00">MatchModel2</text>
</g>
<!-- paired_with8 -->
<g id="node9" class="node"><title>paired_with8</title>
<ellipse fill="lightgray" stroke="black" cx="329" cy="-687" rx="75.1594" ry="18.3848"/>
<text text-anchor="middle" x="329" y="-683.4" font-family="Times Roman,serif" font-size="14.00">paired_with8</text>
</g>
<!-- MatchModel2&#45;&gt;paired_with8 -->
<g id="edge24" class="edge"><title>MatchModel2&#45;&gt;paired_with8</title>
<path fill="none" stroke="black" d="M329,-742.327C329,-734.264 329,-724.648 329,-715.711"/>
<polygon fill="black" stroke="black" points="332.5,-715.667 329,-705.667 325.5,-715.667 332.5,-715.667"/>
</g>
<!-- match_contains13 -->
<g id="node14" class="node"><title>match_contains13</title>
<ellipse fill="#f798a1" stroke="black" cx="101" cy="-613" rx="101.116" ry="18.3848"/>
<text text-anchor="middle" x="101" y="-609.4" font-family="Times Roman,serif" font-size="14.00">match_contains13</text>
</g>
<!-- MatchModel2&#45;&gt;match_contains13 -->
<g id="edge26" class="edge"><title>MatchModel2&#45;&gt;match_contains13</title>
<path fill="none" stroke="black" d="M301.95,-743.441C260.948,-716.826 182.999,-666.228 137.168,-636.478"/>
<polygon fill="black" stroke="black" points="139.019,-633.506 128.726,-630.997 135.208,-639.378 139.019,-633.506"/>
</g>
<!-- match_contains14 -->
<g id="node15" class="node"><title>match_contains14</title>
<ellipse fill="#f798a1" stroke="black" cx="522" cy="-539" rx="101.116" ry="18.3848"/>
<text text-anchor="middle" x="522" y="-535.4" font-family="Times Roman,serif" font-size="14.00">match_contains14</text>
</g>
<!-- MatchModel2&#45;&gt;match_contains14 -->
<g id="edge28" class="edge"><title>MatchModel2&#45;&gt;match_contains14</title>
<path fill="none" stroke="black" d="M361.192,-744.175C377.867,-734.461 397.85,-721.172 413,-706 455.375,-663.563 490.308,-602.099 508.47,-566.783"/>
<polygon fill="black" stroke="black" points="511.749,-568.057 513.141,-557.554 505.503,-564.896 511.749,-568.057"/>
</g>
<!-- backward_link12 -->
<g id="node13" class="node"><title>backward_link12</title>
<ellipse fill="coral" stroke="black" cx="393" cy="-143" rx="94.7523" ry="18.3848"/>
<text text-anchor="middle" x="393" y="-139.4" font-family="Times Roman,serif" font-size="14.00">backward_link12</text>
</g>
<!-- Female_T3\n Classtype = female1\n Name = 5.f&#45;&gt;backward_link12 -->
<g id="edge14" class="edge"><title>Female_T3\n Classtype = female1\n Name = 5.f&#45;&gt;backward_link12</title>
<path fill="none" stroke="black" d="M393,-197.712C393,-188.978 393,-180.024 393,-171.956"/>
<polygon fill="black" stroke="black" points="396.5,-171.953 393,-161.953 389.5,-171.953 396.5,-171.953"/>
</g>
<!-- indirectLink_S4 -->
<g id="node5" class="node"><title>indirectLink_S4</title>
<ellipse fill="lightgreen" stroke="black" cx="169" cy="-143" rx="86.9741" ry="18.3848"/>
<text text-anchor="middle" x="169" y="-139.4" font-family="Times Roman,serif" font-size="14.00">indirectLink_S4</text>
</g>
<!-- Female_S7\n Classtype = female1\n Name = 5.f -->
<g id="node8" class="node"><title>Female_S7\n Classtype = female1\n Name = 5.f</title>
<ellipse fill="lightblue" stroke="black" cx="393" cy="-44" rx="114.759" ry="43.8406"/>
<text text-anchor="middle" x="393" y="-58.4" font-family="Times Roman,serif" font-size="14.00">Female_S7</text>
<text text-anchor="middle" x="393" y="-40.4" font-family="Times Roman,serif" font-size="14.00"> Classtype = female1</text>
<text text-anchor="middle" x="393" y="-22.4" font-family="Times Roman,serif" font-size="14.00"> Name = 5.f</text>
</g>
<!-- indirectLink_S4&#45;&gt;Female_S7\n Classtype = female1\n Name = 5.f -->
<g id="edge32" class="edge"><title>indirectLink_S4&#45;&gt;Female_S7\n Classtype = female1\n Name = 5.f</title>
<path fill="none" stroke="black" d="M206.745,-126.318C234.444,-114.076 273.17,-96.9607 308.14,-81.5053"/>
<polygon fill="black" stroke="black" points="309.682,-84.6501 317.414,-77.4064 306.853,-78.2476 309.682,-84.6501"/>
</g>
<!-- Station_T5\n Classtype = station1\n Name = 5.s -->
<g id="node6" class="node"><title>Station_T5\n Classtype = station1\n Name = 5.s</title>
<ellipse fill="lightblue" stroke="black" cx="180" cy="-440" rx="116.172" ry="43.8406"/>
<text text-anchor="middle" x="180" y="-454.4" font-family="Times Roman,serif" font-size="14.00">Station_T5</text>
<text text-anchor="middle" x="180" y="-436.4" font-family="Times Roman,serif" font-size="14.00"> Classtype = station1</text>
<text text-anchor="middle" x="180" y="-418.4" font-family="Times Roman,serif" font-size="14.00"> Name = 5.s</text>
</g>
<!-- Station_T5\n Classtype = station1\n Name = 5.s&#45;&gt;directLink_T0\n -->
<g id="edge18" class="edge"><title>Station_T5\n Classtype = station1\n Name = 5.s&#45;&gt;directLink_T0\n</title>
<path fill="none" stroke="black" d="M241.623,-402.572C263.26,-389.431 286.886,-375.081 305.883,-363.543"/>
<polygon fill="black" stroke="black" points="307.805,-366.471 314.535,-358.289 304.171,-360.488 307.805,-366.471"/>
</g>
<!-- backward_link11 -->
<g id="node12" class="node"><title>backward_link11</title>
<ellipse fill="coral" stroke="black" cx="152" cy="-341" rx="94.7523" ry="18.3848"/>
<text text-anchor="middle" x="152" y="-337.4" font-family="Times Roman,serif" font-size="14.00">backward_link11</text>
</g>
<!-- Station_T5\n Classtype = station1\n Name = 5.s&#45;&gt;backward_link11 -->
<g id="edge10" class="edge"><title>Station_T5\n Classtype = station1\n Name = 5.s&#45;&gt;backward_link11</title>
<path fill="none" stroke="black" d="M167.556,-396.001C165.009,-386.996 162.392,-377.745 160.049,-369.46"/>
<polygon fill="black" stroke="black" points="163.343,-368.244 157.253,-359.574 156.607,-370.149 163.343,-368.244"/>
</g>
<!-- Station_S6\n Classtype = station1\n Name = 5.s -->
<g id="node7" class="node"><title>Station_S6\n Classtype = station1\n Name = 5.s</title>
<ellipse fill="lightblue" stroke="black" cx="144" cy="-242" rx="116.172" ry="43.8406"/>
<text text-anchor="middle" x="144" y="-256.4" font-family="Times Roman,serif" font-size="14.00">Station_S6</text>
<text text-anchor="middle" x="144" y="-238.4" font-family="Times Roman,serif" font-size="14.00"> Classtype = station1</text>
<text text-anchor="middle" x="144" y="-220.4" font-family="Times Roman,serif" font-size="14.00"> Name = 5.s</text>
</g>
<!-- Station_S6\n Classtype = station1\n Name = 5.s&#45;&gt;indirectLink_S4 -->
<g id="edge30" class="edge"><title>Station_S6\n Classtype = station1\n Name = 5.s&#45;&gt;indirectLink_S4</title>
<path fill="none" stroke="black" d="M155.111,-198.001C157.385,-188.996 159.721,-179.745 161.813,-171.46"/>
<polygon fill="black" stroke="black" points="165.255,-172.127 164.31,-161.574 158.468,-170.413 165.255,-172.127"/>
</g>
<!-- paired_with8&#45;&gt;ApplyModel1 -->
<g id="edge22" class="edge"><title>paired_with8&#45;&gt;ApplyModel1</title>
<path fill="none" stroke="black" d="M329,-668.327C329,-660.264 329,-650.648 329,-641.711"/>
<polygon fill="black" stroke="black" points="332.5,-641.667 329,-631.667 325.5,-641.667 332.5,-641.667"/>
</g>
<!-- apply_contains9&#45;&gt;Station_T5\n Classtype = station1\n Name = 5.s -->
<g id="edge4" class="edge"><title>apply_contains9&#45;&gt;Station_T5\n Classtype = station1\n Name = 5.s</title>
<path fill="none" stroke="black" d="M191.367,-520.379C190.285,-512.73 188.972,-503.443 187.627,-493.936"/>
<polygon fill="black" stroke="black" points="191.089,-493.42 186.223,-484.008 184.158,-494.4 191.089,-493.42"/>
</g>
<!-- apply_contains10&#45;&gt;Female_T3\n Classtype = female1\n Name = 5.f -->
<g id="edge8" class="edge"><title>apply_contains10&#45;&gt;Female_T3\n Classtype = female1\n Name = 5.f</title>
<path fill="none" stroke="black" d="M418.272,-421.482C426.457,-398.141 437.67,-356.856 430,-322 427.974,-312.794 424.781,-303.386 421.099,-294.406"/>
<polygon fill="black" stroke="black" points="424.308,-293.009 417.114,-285.23 417.887,-295.797 424.308,-293.009"/>
</g>
<!-- backward_link11&#45;&gt;Station_S6\n Classtype = station1\n Name = 5.s -->
<g id="edge12" class="edge"><title>backward_link11&#45;&gt;Station_S6\n Classtype = station1\n Name = 5.s</title>
<path fill="none" stroke="black" d="M150.495,-322.379C149.884,-314.81 149.142,-305.638 148.383,-296.236"/>
<polygon fill="black" stroke="black" points="151.85,-295.694 147.556,-286.008 144.873,-296.258 151.85,-295.694"/>
</g>
<!-- backward_link12&#45;&gt;Female_S7\n Classtype = female1\n Name = 5.f -->
<g id="edge16" class="edge"><title>backward_link12&#45;&gt;Female_S7\n Classtype = female1\n Name = 5.f</title>
<path fill="none" stroke="black" d="M393,-124.379C393,-116.81 393,-107.638 393,-98.236"/>
<polygon fill="black" stroke="black" points="396.5,-98.0084 393,-88.0084 389.5,-98.0084 396.5,-98.0084"/>
</g>
<!-- match_contains13&#45;&gt;Station_S6\n Classtype = station1\n Name = 5.s -->
<g id="edge34" class="edge"><title>match_contains13&#45;&gt;Station_S6\n Classtype = station1\n Name = 5.s</title>
<path fill="none" stroke="black" d="M90.2113,-594.305C64.1955,-546.588 3.34855,-417.333 48,-322 54.2804,-308.591 64.0355,-296.646 74.966,-286.336"/>
<polygon fill="black" stroke="black" points="77.5475,-288.724 82.6929,-279.463 72.895,-283.494 77.5475,-288.724"/>
</g>
<!-- match_contains14&#45;&gt;Female_S7\n Classtype = female1\n Name = 5.f -->
<g id="edge36" class="edge"><title>match_contains14&#45;&gt;Female_S7\n Classtype = female1\n Name = 5.f</title>
<path fill="none" stroke="black" d="M524.188,-520.468C528.125,-485.457 536,-407.165 536,-341 536,-341 536,-341 536,-242 536,-186.765 528.965,-169.045 497,-124 487.502,-110.616 475.113,-98.4285 462.212,-87.8248"/>
<polygon fill="black" stroke="black" points="464.148,-84.8932 454.135,-81.4306 459.803,-90.3817 464.148,-84.8932"/>
</g>
</g>
</svg>
