<?xml version="1.0" encoding="UTF-8" standalone="no"?>
<!DOCTYPE svg PUBLIC "-//W3C//DTD SVG 1.1//EN"
 "http://www.w3.org/Graphics/SVG/1.1/DTD/svg11.dtd">
<!-- Generated by graphviz version 2.26.3 (20100126.1600)
 -->
<!-- Title: ruleCombinator_rewrite_HFF2FF_combine_1RHS Pages: 1 -->
<svg width="542pt" height="462pt"
 viewBox="0.00 0.00 542.00 462.00" xmlns="http://www.w3.org/2000/svg" xmlns:xlink="http://www.w3.org/1999/xlink">
<g id="graph1" class="graph" transform="scale(1 1) rotate(0) translate(4 458)">
<title>ruleCombinator_rewrite_HFF2FF_combine_1RHS</title>
<polygon fill="white" stroke="white" points="-4,5 -4,-458 539,-458 539,5 -4,5"/>
<!-- MT_post__indirectLink_S0\n Label 10 -->
<g id="node1" class="node"><title>MT_post__indirectLink_S0\n Label 10</title>
<ellipse fill="lightblue" stroke="black" cx="396" cy="-129" rx="138.093" ry="31.1127"/>
<text text-anchor="middle" x="396" y="-134.4" font-family="Times Roman,serif" font-size="14.00">MT_post__indirectLink_S0</text>
<text text-anchor="middle" x="396" y="-116.4" font-family="Times Roman,serif" font-size="14.00"> Label 10</text>
</g>
<!-- MT_post__Female_S3\n Label 2 -->
<g id="node4" class="node"><title>MT_post__Female_S3\n Label 2</title>
<ellipse fill="lightblue" stroke="black" cx="259" cy="-31" rx="115.966" ry="31.1127"/>
<text text-anchor="middle" x="259" y="-36.4" font-family="Times Roman,serif" font-size="14.00">MT_post__Female_S3</text>
<text text-anchor="middle" x="259" y="-18.4" font-family="Times Roman,serif" font-size="14.00"> Label 2</text>
</g>
<!-- MT_post__indirectLink_S0\n Label 10&#45;&gt;MT_post__Female_S3\n Label 2 -->
<g id="edge6" class="edge"><title>MT_post__indirectLink_S0\n Label 10&#45;&gt;MT_post__Female_S3\n Label 2</title>
<path fill="none" stroke="black" d="M354.524,-99.3308C339.905,-88.8735 323.33,-77.0172 308.14,-66.1509"/>
<polygon fill="black" stroke="black" points="310.034,-63.2025 299.864,-60.2311 305.961,-68.8958 310.034,-63.2025"/>
</g>
<!-- MT_post__directLink_T1\n Label 11 -->
<g id="node2" class="node"><title>MT_post__directLink_T1\n Label 11</title>
<ellipse fill="lightblue" stroke="black" cx="129" cy="-325" rx="128.901" ry="31.1127"/>
<text text-anchor="middle" x="129" y="-330.4" font-family="Times Roman,serif" font-size="14.00">MT_post__directLink_T1</text>
<text text-anchor="middle" x="129" y="-312.4" font-family="Times Roman,serif" font-size="14.00"> Label 11</text>
</g>
<!-- MT_post__Female_T7\n Label 4 -->
<g id="node8" class="node"><title>MT_post__Female_T7\n Label 4</title>
<ellipse fill="lightblue" stroke="black" cx="127" cy="-227" rx="115.966" ry="31.1127"/>
<text text-anchor="middle" x="127" y="-232.4" font-family="Times Roman,serif" font-size="14.00">MT_post__Female_T7</text>
<text text-anchor="middle" x="127" y="-214.4" font-family="Times Roman,serif" font-size="14.00"> Label 4</text>
</g>
<!-- MT_post__directLink_T1\n Label 11&#45;&gt;MT_post__Female_T7\n Label 4 -->
<g id="edge16" class="edge"><title>MT_post__directLink_T1\n Label 11&#45;&gt;MT_post__Female_T7\n Label 4</title>
<path fill="none" stroke="black" d="M128.367,-293.992C128.201,-285.859 128.02,-276.959 127.844,-268.378"/>
<polygon fill="black" stroke="black" points="131.339,-268.069 127.636,-258.142 124.34,-268.212 131.339,-268.069"/>
</g>
<!-- MT_post__Female_S2\n Label 1 -->
<g id="node3" class="node"><title>MT_post__Female_S2\n Label 1</title>
<ellipse fill="lightblue" stroke="black" cx="395" cy="-227" rx="115.966" ry="31.1127"/>
<text text-anchor="middle" x="395" y="-232.4" font-family="Times Roman,serif" font-size="14.00">MT_post__Female_S2</text>
<text text-anchor="middle" x="395" y="-214.4" font-family="Times Roman,serif" font-size="14.00"> Label 1</text>
</g>
<!-- MT_post__Female_S2\n Label 1&#45;&gt;MT_post__indirectLink_S0\n Label 10 -->
<g id="edge4" class="edge"><title>MT_post__Female_S2\n Label 1&#45;&gt;MT_post__indirectLink_S0\n Label 10</title>
<path fill="none" stroke="black" d="M395.316,-195.992C395.399,-187.859 395.49,-178.959 395.578,-170.378"/>
<polygon fill="black" stroke="black" points="399.08,-170.178 395.682,-160.142 392.08,-170.106 399.08,-170.178"/>
</g>
<!-- MT_post__trace_link4\n Label 5 -->
<g id="node5" class="node"><title>MT_post__trace_link4\n Label 5</title>
<ellipse fill="lightblue" stroke="black" cx="394" cy="-325" rx="116.88" ry="31.1127"/>
<text text-anchor="middle" x="394" y="-330.4" font-family="Times Roman,serif" font-size="14.00">MT_post__trace_link4</text>
<text text-anchor="middle" x="394" y="-312.4" font-family="Times Roman,serif" font-size="14.00"> Label 5</text>
</g>
<!-- MT_post__trace_link4\n Label 5&#45;&gt;MT_post__Female_S2\n Label 1 -->
<g id="edge2" class="edge"><title>MT_post__trace_link4\n Label 5&#45;&gt;MT_post__Female_S2\n Label 1</title>
<path fill="none" stroke="black" d="M394.316,-293.992C394.399,-285.859 394.49,-276.959 394.578,-268.378"/>
<polygon fill="black" stroke="black" points="398.08,-268.178 394.682,-258.142 391.08,-268.106 398.08,-268.178"/>
</g>
<!-- MT_post__trace_link5\n Label 6 -->
<g id="node6" class="node"><title>MT_post__trace_link5\n Label 6</title>
<ellipse fill="lightblue" stroke="black" cx="123" cy="-129" rx="116.88" ry="31.1127"/>
<text text-anchor="middle" x="123" y="-134.4" font-family="Times Roman,serif" font-size="14.00">MT_post__trace_link5</text>
<text text-anchor="middle" x="123" y="-116.4" font-family="Times Roman,serif" font-size="14.00"> Label 6</text>
</g>
<!-- MT_post__trace_link5\n Label 6&#45;&gt;MT_post__Female_S3\n Label 2 -->
<g id="edge8" class="edge"><title>MT_post__trace_link5\n Label 6&#45;&gt;MT_post__Female_S3\n Label 2</title>
<path fill="none" stroke="black" d="M163.436,-99.8621C178.103,-89.2937 194.828,-77.2414 210.143,-66.2055"/>
<polygon fill="black" stroke="black" points="212.418,-68.8807 218.485,-60.1949 208.325,-63.2015 212.418,-68.8807"/>
</g>
<!-- MT_post__Female_T6\n Label 3 -->
<g id="node7" class="node"><title>MT_post__Female_T6\n Label 3</title>
<ellipse fill="lightblue" stroke="black" cx="261" cy="-423" rx="115.966" ry="31.1127"/>
<text text-anchor="middle" x="261" y="-428.4" font-family="Times Roman,serif" font-size="14.00">MT_post__Female_T6</text>
<text text-anchor="middle" x="261" y="-410.4" font-family="Times Roman,serif" font-size="14.00"> Label 3</text>
</g>
<!-- MT_post__Female_T6\n Label 3&#45;&gt;MT_post__directLink_T1\n Label 11 -->
<g id="edge14" class="edge"><title>MT_post__Female_T6\n Label 3&#45;&gt;MT_post__directLink_T1\n Label 11</title>
<path fill="none" stroke="black" d="M221.396,-393.597C207.557,-383.322 191.864,-371.672 177.39,-360.926"/>
<polygon fill="black" stroke="black" points="179.148,-357.872 169.033,-354.721 174.975,-363.492 179.148,-357.872"/>
</g>
<!-- MT_post__Female_T6\n Label 3&#45;&gt;MT_post__trace_link4\n Label 5 -->
<g id="edge10" class="edge"><title>MT_post__Female_T6\n Label 3&#45;&gt;MT_post__trace_link4\n Label 5</title>
<path fill="none" stroke="black" d="M300.904,-393.597C315.108,-383.131 331.249,-371.238 346.056,-360.327"/>
<polygon fill="black" stroke="black" points="348.149,-363.132 354.124,-354.382 343.997,-357.497 348.149,-363.132"/>
</g>
<!-- MT_post__Female_T7\n Label 4&#45;&gt;MT_post__trace_link5\n Label 6 -->
<g id="edge12" class="edge"><title>MT_post__Female_T7\n Label 4&#45;&gt;MT_post__trace_link5\n Label 6</title>
<path fill="none" stroke="black" d="M125.734,-195.992C125.402,-187.859 125.039,-178.959 124.689,-170.378"/>
<polygon fill="black" stroke="black" points="128.176,-169.991 124.271,-160.142 121.182,-170.277 128.176,-169.991"/>
</g>
</g>
</svg>
