<?xml version="1.0" encoding="UTF-8" standalone="no"?>
<!DOCTYPE svg PUBLIC "-//W3C//DTD SVG 1.1//EN"
 "http://www.w3.org/Graphics/SVG/1.1/DTD/svg11.dtd">
<!-- Generated by graphviz version 2.26.3 (20100126.1600)
 -->
<!-- Title: rule_M2M_run1 Pages: 1 -->
<svg width="417pt" height="442pt"
 viewBox="0.00 0.00 417.00 442.00" xmlns="http://www.w3.org/2000/svg" xmlns:xlink="http://www.w3.org/1999/xlink">
<g id="graph1" class="graph" transform="scale(1 1) rotate(0) translate(4 438)">
<title>rule_M2M_run1</title>
<polygon fill="white" stroke="white" points="-4,5 -4,-438 414,-438 414,5 -4,5"/>
<!-- apply_contains0 -->
<g id="node1" class="node"><title>apply_contains0</title>
<ellipse fill="#fcdb58" stroke="black" cx="303" cy="-143" rx="90.0096" ry="18.3848"/>
<text text-anchor="middle" x="303" y="-139.4" font-family="Times Roman,serif" font-size="14.00">apply_contains0</text>
</g>
<!-- Male_T5\n Classtype = male1\n Name = 3.m -->
<g id="node6" class="node"><title>Male_T5\n Classtype = male1\n Name = 3.m</title>
<ellipse fill="lightblue" stroke="black" cx="303" cy="-44" rx="106.066" ry="43.8406"/>
<text text-anchor="middle" x="303" y="-58.4" font-family="Times Roman,serif" font-size="14.00">Male_T5</text>
<text text-anchor="middle" x="303" y="-40.4" font-family="Times Roman,serif" font-size="14.00"> Classtype = male1</text>
<text text-anchor="middle" x="303" y="-22.4" font-family="Times Roman,serif" font-size="14.00"> Name = 3.m</text>
</g>
<!-- apply_contains0&#45;&gt;Male_T5\n Classtype = male1\n Name = 3.m -->
<g id="edge4" class="edge"><title>apply_contains0&#45;&gt;Male_T5\n Classtype = male1\n Name = 3.m</title>
<path fill="none" stroke="black" d="M303,-124.379C303,-116.81 303,-107.638 303,-98.236"/>
<polygon fill="black" stroke="black" points="306.5,-98.0084 303,-88.0084 299.5,-98.0084 306.5,-98.0084"/>
</g>
<!-- ApplyModel1 -->
<g id="node2" class="node"><title>ApplyModel1</title>
<ellipse fill="#fed017" stroke="black" cx="303" cy="-242" rx="73.0388" ry="18.3848"/>
<text text-anchor="middle" x="303" y="-238.4" font-family="Times Roman,serif" font-size="14.00">ApplyModel1</text>
</g>
<!-- ApplyModel1&#45;&gt;apply_contains0 -->
<g id="edge2" class="edge"><title>ApplyModel1&#45;&gt;apply_contains0</title>
<path fill="none" stroke="black" d="M303,-223.379C303,-208.86 303,-188.439 303,-171.814"/>
<polygon fill="black" stroke="black" points="306.5,-171.538 303,-161.538 299.5,-171.538 306.5,-171.538"/>
</g>
<!-- MatchModel2 -->
<g id="node3" class="node"><title>MatchModel2</title>
<ellipse fill="#e15c34" stroke="black" cx="205" cy="-415" rx="75.8684" ry="18.3848"/>
<text text-anchor="middle" x="205" y="-411.4" font-family="Times Roman,serif" font-size="14.00">MatchModel2</text>
</g>
<!-- match_contains3 -->
<g id="node4" class="node"><title>match_contains3</title>
<ellipse fill="#f798a1" stroke="black" cx="110" cy="-341" rx="94.7523" ry="18.3848"/>
<text text-anchor="middle" x="110" y="-337.4" font-family="Times Roman,serif" font-size="14.00">match_contains3</text>
</g>
<!-- MatchModel2&#45;&gt;match_contains3 -->
<g id="edge10" class="edge"><title>MatchModel2&#45;&gt;match_contains3</title>
<path fill="none" stroke="black" d="M182.003,-397.087C169.725,-387.523 154.439,-375.615 141.113,-365.236"/>
<polygon fill="black" stroke="black" points="143.154,-362.389 133.114,-359.005 138.853,-367.911 143.154,-362.389"/>
</g>
<!-- paired_with6 -->
<g id="node7" class="node"><title>paired_with6</title>
<ellipse fill="lightgray" stroke="black" cx="300" cy="-341" rx="75.1594" ry="18.3848"/>
<text text-anchor="middle" x="300" y="-337.4" font-family="Times Roman,serif" font-size="14.00">paired_with6</text>
</g>
<!-- MatchModel2&#45;&gt;paired_with6 -->
<g id="edge8" class="edge"><title>MatchModel2&#45;&gt;paired_with6</title>
<path fill="none" stroke="black" d="M227.997,-397.087C240.366,-387.452 255.788,-375.439 269.182,-365.005"/>
<polygon fill="black" stroke="black" points="271.477,-367.655 277.215,-358.748 267.175,-362.132 271.477,-367.655"/>
</g>
<!-- Male_S4\n Classtype = male1\n Name = 3.m -->
<g id="node5" class="node"><title>Male_S4\n Classtype = male1\n Name = 3.m</title>
<ellipse fill="lightblue" stroke="black" cx="106" cy="-242" rx="106.066" ry="43.8406"/>
<text text-anchor="middle" x="106" y="-256.4" font-family="Times Roman,serif" font-size="14.00">Male_S4</text>
<text text-anchor="middle" x="106" y="-238.4" font-family="Times Roman,serif" font-size="14.00"> Classtype = male1</text>
<text text-anchor="middle" x="106" y="-220.4" font-family="Times Roman,serif" font-size="14.00"> Name = 3.m</text>
</g>
<!-- match_contains3&#45;&gt;Male_S4\n Classtype = male1\n Name = 3.m -->
<g id="edge12" class="edge"><title>match_contains3&#45;&gt;Male_S4\n Classtype = male1\n Name = 3.m</title>
<path fill="none" stroke="black" d="M109.248,-322.379C108.942,-314.81 108.571,-305.638 108.191,-296.236"/>
<polygon fill="black" stroke="black" points="111.679,-295.859 107.778,-286.008 104.685,-296.142 111.679,-295.859"/>
</g>
<!-- paired_with6&#45;&gt;ApplyModel1 -->
<g id="edge6" class="edge"><title>paired_with6&#45;&gt;ApplyModel1</title>
<path fill="none" stroke="black" d="M300.564,-322.379C301.004,-307.86 301.623,-287.439 302.127,-270.814"/>
<polygon fill="black" stroke="black" points="305.634,-270.639 302.438,-260.538 298.637,-270.427 305.634,-270.639"/>
</g>
</g>
</svg>
