<?xml version="1.0" encoding="UTF-8" standalone="no"?>
<!DOCTYPE svg PUBLIC "-//W3C//DTD SVG 1.1//EN"
 "http://www.w3.org/Graphics/SVG/1.1/DTD/svg11.dtd">
<!-- Generated by graphviz version 2.26.3 (20100126.1600)
 -->
<!-- Title: ruleCombinator_rewrite_HSF2SF_combine_1RHS Pages: 1 -->
<svg width="1509pt" height="658pt"
 viewBox="0.00 0.00 1509.00 658.00" xmlns="http://www.w3.org/2000/svg" xmlns:xlink="http://www.w3.org/1999/xlink">
<g id="graph1" class="graph" transform="scale(1 1) rotate(0) translate(4 654)">
<title>ruleCombinator_rewrite_HSF2SF_combine_1RHS</title>
<polygon fill="white" stroke="white" points="-4,5 -4,-654 1506,-654 1506,5 -4,5"/>
<!-- MT_post__directLink_T0\n Label 24 -->
<g id="node1" class="node"><title>MT_post__directLink_T0\n Label 24</title>
<ellipse fill="lightblue" stroke="black" cx="1372" cy="-521" rx="128.901" ry="31.1127"/>
<text text-anchor="middle" x="1372" y="-526.4" font-family="Times Roman,serif" font-size="14.00">MT_post__directLink_T0</text>
<text text-anchor="middle" x="1372" y="-508.4" font-family="Times Roman,serif" font-size="14.00"> Label 24</text>
</g>
<!-- MT_post__Female_T2\n Label 4 -->
<g id="node3" class="node"><title>MT_post__Female_T2\n Label 4</title>
<ellipse fill="lightblue" stroke="black" cx="1374" cy="-423" rx="115.966" ry="31.1127"/>
<text text-anchor="middle" x="1374" y="-428.4" font-family="Times Roman,serif" font-size="14.00">MT_post__Female_T2</text>
<text text-anchor="middle" x="1374" y="-410.4" font-family="Times Roman,serif" font-size="14.00"> Label 4</text>
</g>
<!-- MT_post__directLink_T0\n Label 24&#45;&gt;MT_post__Female_T2\n Label 4 -->
<g id="edge12" class="edge"><title>MT_post__directLink_T0\n Label 24&#45;&gt;MT_post__Female_T2\n Label 4</title>
<path fill="none" stroke="black" d="M1372.63,-489.992C1372.8,-481.859 1372.98,-472.959 1373.16,-464.378"/>
<polygon fill="black" stroke="black" points="1376.66,-464.212 1373.36,-454.142 1369.66,-464.069 1376.66,-464.212"/>
</g>
<!-- MT_post__indirectLink_S1\n Label 10 -->
<g id="node2" class="node"><title>MT_post__indirectLink_S1\n Label 10</title>
<ellipse fill="lightblue" stroke="black" cx="1097" cy="-325" rx="138.093" ry="31.1127"/>
<text text-anchor="middle" x="1097" y="-330.4" font-family="Times Roman,serif" font-size="14.00">MT_post__indirectLink_S1</text>
<text text-anchor="middle" x="1097" y="-312.4" font-family="Times Roman,serif" font-size="14.00"> Label 10</text>
</g>
<!-- MT_post__Female_S3\n Label 2 -->
<g id="node4" class="node"><title>MT_post__Female_S3\n Label 2</title>
<ellipse fill="lightblue" stroke="black" cx="1097" cy="-227" rx="115.966" ry="31.1127"/>
<text text-anchor="middle" x="1097" y="-232.4" font-family="Times Roman,serif" font-size="14.00">MT_post__Female_S3</text>
<text text-anchor="middle" x="1097" y="-214.4" font-family="Times Roman,serif" font-size="14.00"> Label 2</text>
</g>
<!-- MT_post__indirectLink_S1\n Label 10&#45;&gt;MT_post__Female_S3\n Label 2 -->
<g id="edge36" class="edge"><title>MT_post__indirectLink_S1\n Label 10&#45;&gt;MT_post__Female_S3\n Label 2</title>
<path fill="none" stroke="black" d="M1097,-293.992C1097,-285.859 1097,-276.959 1097,-268.378"/>
<polygon fill="black" stroke="black" points="1100.5,-268.142 1097,-258.142 1093.5,-268.142 1100.5,-268.142"/>
</g>
<!-- MT_post__trace_link13\n Label 6 -->
<g id="node14" class="node"><title>MT_post__trace_link13\n Label 6</title>
<ellipse fill="lightblue" stroke="black" cx="1376" cy="-325" rx="123.243" ry="31.1127"/>
<text text-anchor="middle" x="1376" y="-330.4" font-family="Times Roman,serif" font-size="14.00">MT_post__trace_link13</text>
<text text-anchor="middle" x="1376" y="-312.4" font-family="Times Roman,serif" font-size="14.00"> Label 6</text>
</g>
<!-- MT_post__Female_T2\n Label 4&#45;&gt;MT_post__trace_link13\n Label 6 -->
<g id="edge30" class="edge"><title>MT_post__Female_T2\n Label 4&#45;&gt;MT_post__trace_link13\n Label 6</title>
<path fill="none" stroke="black" d="M1374.63,-391.992C1374.8,-383.859 1374.98,-374.959 1375.16,-366.378"/>
<polygon fill="black" stroke="black" points="1378.66,-366.212 1375.36,-356.142 1371.66,-366.069 1378.66,-366.212"/>
</g>
<!-- MT_post__hasAttr_S17\n Label 25 -->
<g id="node18" class="node"><title>MT_post__hasAttr_S17\n Label 25</title>
<ellipse fill="lightblue" stroke="black" cx="861" cy="-129" rx="123.951" ry="31.1127"/>
<text text-anchor="middle" x="861" y="-134.4" font-family="Times Roman,serif" font-size="14.00">MT_post__hasAttr_S17</text>
<text text-anchor="middle" x="861" y="-116.4" font-family="Times Roman,serif" font-size="14.00"> Label 25</text>
</g>
<!-- MT_post__Female_S3\n Label 2&#45;&gt;MT_post__hasAttr_S17\n Label 25 -->
<g id="edge38" class="edge"><title>MT_post__Female_S3\n Label 2&#45;&gt;MT_post__hasAttr_S17\n Label 25</title>
<path fill="none" stroke="black" d="M1034.07,-200.867C1003.37,-188.12 966.264,-172.711 934.295,-159.436"/>
<polygon fill="black" stroke="black" points="935.567,-156.175 924.99,-155.572 932.883,-162.639 935.567,-156.175"/>
</g>
<!-- MT_post__Station_S4\n Label 1 -->
<g id="node5" class="node"><title>MT_post__Station_S4\n Label 1</title>
<ellipse fill="lightblue" stroke="black" cx="1097" cy="-423" rx="116.172" ry="31.1127"/>
<text text-anchor="middle" x="1097" y="-428.4" font-family="Times Roman,serif" font-size="14.00">MT_post__Station_S4</text>
<text text-anchor="middle" x="1097" y="-410.4" font-family="Times Roman,serif" font-size="14.00"> Label 1</text>
</g>
<!-- MT_post__Station_S4\n Label 1&#45;&gt;MT_post__indirectLink_S1\n Label 10 -->
<g id="edge34" class="edge"><title>MT_post__Station_S4\n Label 1&#45;&gt;MT_post__indirectLink_S1\n Label 10</title>
<path fill="none" stroke="black" d="M1097,-391.992C1097,-383.859 1097,-374.959 1097,-366.378"/>
<polygon fill="black" stroke="black" points="1100.5,-366.142 1097,-356.142 1093.5,-366.142 1100.5,-366.142"/>
</g>
<!-- MT_post__hasAttr_S16\n Label 15 -->
<g id="node17" class="node"><title>MT_post__hasAttr_S16\n Label 15</title>
<ellipse fill="lightblue" stroke="black" cx="817" cy="-325" rx="123.951" ry="31.1127"/>
<text text-anchor="middle" x="817" y="-330.4" font-family="Times Roman,serif" font-size="14.00">MT_post__hasAttr_S16</text>
<text text-anchor="middle" x="817" y="-312.4" font-family="Times Roman,serif" font-size="14.00"> Label 15</text>
</g>
<!-- MT_post__Station_S4\n Label 1&#45;&gt;MT_post__hasAttr_S16\n Label 15 -->
<g id="edge40" class="edge"><title>MT_post__Station_S4\n Label 1&#45;&gt;MT_post__hasAttr_S16\n Label 15</title>
<path fill="none" stroke="black" d="M1026.34,-398.27C987.499,-384.674 939.124,-367.743 898.665,-353.583"/>
<polygon fill="black" stroke="black" points="899.69,-350.234 889.096,-350.233 897.378,-356.841 899.69,-350.234"/>
</g>
<!-- MT_post__Station_T5\n Label 3 -->
<g id="node6" class="node"><title>MT_post__Station_T5\n Label 3</title>
<ellipse fill="lightblue" stroke="black" cx="1233" cy="-619" rx="116.172" ry="31.1127"/>
<text text-anchor="middle" x="1233" y="-624.4" font-family="Times Roman,serif" font-size="14.00">MT_post__Station_T5</text>
<text text-anchor="middle" x="1233" y="-606.4" font-family="Times Roman,serif" font-size="14.00"> Label 3</text>
</g>
<!-- MT_post__Station_T5\n Label 3&#45;&gt;MT_post__directLink_T0\n Label 24 -->
<g id="edge10" class="edge"><title>MT_post__Station_T5\n Label 3&#45;&gt;MT_post__directLink_T0\n Label 24</title>
<path fill="none" stroke="black" d="M1274.33,-589.862C1289.18,-579.389 1306.1,-567.458 1321.64,-556.504"/>
<polygon fill="black" stroke="black" points="1323.95,-559.157 1330.11,-550.534 1319.92,-553.436 1323.95,-559.157"/>
</g>
<!-- MT_post__trace_link12\n Label 5 -->
<g id="node13" class="node"><title>MT_post__trace_link12\n Label 5</title>
<ellipse fill="lightblue" stroke="black" cx="1098" cy="-521" rx="123.243" ry="31.1127"/>
<text text-anchor="middle" x="1098" y="-526.4" font-family="Times Roman,serif" font-size="14.00">MT_post__trace_link12</text>
<text text-anchor="middle" x="1098" y="-508.4" font-family="Times Roman,serif" font-size="14.00"> Label 5</text>
</g>
<!-- MT_post__Station_T5\n Label 3&#45;&gt;MT_post__trace_link12\n Label 5 -->
<g id="edge26" class="edge"><title>MT_post__Station_T5\n Label 3&#45;&gt;MT_post__trace_link12\n Label 5</title>
<path fill="none" stroke="black" d="M1192.86,-589.862C1178.43,-579.389 1162,-567.458 1146.91,-556.504"/>
<polygon fill="black" stroke="black" points="1148.83,-553.576 1138.68,-550.534 1144.72,-559.241 1148.83,-553.576"/>
</g>
<!-- MT_post__Attribute6\n Label 12 -->
<g id="node7" class="node"><title>MT_post__Attribute6\n Label 12</title>
<ellipse fill="lightblue" stroke="black" cx="692" cy="-227" rx="113.844" ry="31.1127"/>
<text text-anchor="middle" x="692" y="-232.4" font-family="Times Roman,serif" font-size="14.00">MT_post__Attribute6</text>
<text text-anchor="middle" x="692" y="-214.4" font-family="Times Roman,serif" font-size="14.00"> Label 12</text>
</g>
<!-- MT_post__Attribute7\n Label 16 -->
<g id="node8" class="node"><title>MT_post__Attribute7\n Label 16</title>
<ellipse fill="lightblue" stroke="black" cx="616" cy="-31" rx="113.844" ry="31.1127"/>
<text text-anchor="middle" x="616" y="-36.4" font-family="Times Roman,serif" font-size="14.00">MT_post__Attribute7</text>
<text text-anchor="middle" x="616" y="-18.4" font-family="Times Roman,serif" font-size="14.00"> Label 16</text>
</g>
<!-- MT_post__rightExpr8\n Label 20 -->
<g id="node9" class="node"><title>MT_post__rightExpr8\n Label 20</title>
<ellipse fill="lightblue" stroke="black" cx="314" cy="-325" rx="114.759" ry="31.1127"/>
<text text-anchor="middle" x="314" y="-330.4" font-family="Times Roman,serif" font-size="14.00">MT_post__rightExpr8</text>
<text text-anchor="middle" x="314" y="-312.4" font-family="Times Roman,serif" font-size="14.00"> Label 20</text>
</g>
<!-- MT_post__Constant18\n Label 14 -->
<g id="node19" class="node"><title>MT_post__Constant18\n Label 14</title>
<ellipse fill="lightblue" stroke="black" cx="377" cy="-227" rx="120.208" ry="31.1127"/>
<text text-anchor="middle" x="377" y="-232.4" font-family="Times Roman,serif" font-size="14.00">MT_post__Constant18</text>
<text text-anchor="middle" x="377" y="-214.4" font-family="Times Roman,serif" font-size="14.00"> Label 14</text>
</g>
<!-- MT_post__rightExpr8\n Label 20&#45;&gt;MT_post__Constant18\n Label 14 -->
<g id="edge16" class="edge"><title>MT_post__rightExpr8\n Label 20&#45;&gt;MT_post__Constant18\n Label 14</title>
<path fill="none" stroke="black" d="M333.761,-294.261C339.507,-285.322 345.862,-275.436 351.891,-266.058"/>
<polygon fill="black" stroke="black" points="354.846,-267.934 357.309,-257.63 348.958,-264.149 354.846,-267.934"/>
</g>
<!-- MT_post__rightExpr9\n Label 23 -->
<g id="node10" class="node"><title>MT_post__rightExpr9\n Label 23</title>
<ellipse fill="lightblue" stroke="black" cx="120" cy="-129" rx="114.759" ry="31.1127"/>
<text text-anchor="middle" x="120" y="-134.4" font-family="Times Roman,serif" font-size="14.00">MT_post__rightExpr9</text>
<text text-anchor="middle" x="120" y="-116.4" font-family="Times Roman,serif" font-size="14.00"> Label 23</text>
</g>
<!-- MT_post__Constant19\n Label 18 -->
<g id="node20" class="node"><title>MT_post__Constant19\n Label 18</title>
<ellipse fill="lightblue" stroke="black" cx="120" cy="-31" rx="120.208" ry="31.1127"/>
<text text-anchor="middle" x="120" y="-36.4" font-family="Times Roman,serif" font-size="14.00">MT_post__Constant19</text>
<text text-anchor="middle" x="120" y="-18.4" font-family="Times Roman,serif" font-size="14.00"> Label 18</text>
</g>
<!-- MT_post__rightExpr9\n Label 23&#45;&gt;MT_post__Constant19\n Label 18 -->
<g id="edge20" class="edge"><title>MT_post__rightExpr9\n Label 23&#45;&gt;MT_post__Constant19\n Label 18</title>
<path fill="none" stroke="black" d="M120,-97.9922C120,-89.8594 120,-80.9587 120,-72.3777"/>
<polygon fill="black" stroke="black" points="123.5,-72.1424 120,-62.1425 116.5,-72.1425 123.5,-72.1424"/>
</g>
<!-- MT_post__Equation10\n Label 13 -->
<g id="node11" class="node"><title>MT_post__Equation10\n Label 13</title>
<ellipse fill="lightblue" stroke="black" cx="437" cy="-423" rx="119.001" ry="31.1127"/>
<text text-anchor="middle" x="437" y="-428.4" font-family="Times Roman,serif" font-size="14.00">MT_post__Equation10</text>
<text text-anchor="middle" x="437" y="-410.4" font-family="Times Roman,serif" font-size="14.00"> Label 13</text>
</g>
<!-- MT_post__Equation10\n Label 13&#45;&gt;MT_post__rightExpr8\n Label 20 -->
<g id="edge14" class="edge"><title>MT_post__Equation10\n Label 13&#45;&gt;MT_post__rightExpr8\n Label 20</title>
<path fill="none" stroke="black" d="M399.762,-393.331C386.997,-383.16 372.572,-371.667 359.243,-361.048"/>
<polygon fill="black" stroke="black" points="361.113,-358.062 351.111,-354.568 356.751,-363.537 361.113,-358.062"/>
</g>
<!-- MT_post__leftExpr14\n Label 19 -->
<g id="node15" class="node"><title>MT_post__leftExpr14\n Label 19</title>
<ellipse fill="lightblue" stroke="black" cx="561" cy="-325" rx="113.844" ry="31.1127"/>
<text text-anchor="middle" x="561" y="-330.4" font-family="Times Roman,serif" font-size="14.00">MT_post__leftExpr14</text>
<text text-anchor="middle" x="561" y="-312.4" font-family="Times Roman,serif" font-size="14.00"> Label 19</text>
</g>
<!-- MT_post__Equation10\n Label 13&#45;&gt;MT_post__leftExpr14\n Label 19 -->
<g id="edge22" class="edge"><title>MT_post__Equation10\n Label 13&#45;&gt;MT_post__leftExpr14\n Label 19</title>
<path fill="none" stroke="black" d="M474.541,-393.331C487.409,-383.16 501.952,-371.667 515.389,-361.048"/>
<polygon fill="black" stroke="black" points="517.912,-363.515 523.587,-354.568 513.571,-358.023 517.912,-363.515"/>
</g>
<!-- MT_post__Equation11\n Label 17 -->
<g id="node12" class="node"><title>MT_post__Equation11\n Label 17</title>
<ellipse fill="lightblue" stroke="black" cx="120" cy="-227" rx="119.001" ry="31.1127"/>
<text text-anchor="middle" x="120" y="-232.4" font-family="Times Roman,serif" font-size="14.00">MT_post__Equation11</text>
<text text-anchor="middle" x="120" y="-214.4" font-family="Times Roman,serif" font-size="14.00"> Label 17</text>
</g>
<!-- MT_post__Equation11\n Label 17&#45;&gt;MT_post__rightExpr9\n Label 23 -->
<g id="edge18" class="edge"><title>MT_post__Equation11\n Label 17&#45;&gt;MT_post__rightExpr9\n Label 23</title>
<path fill="none" stroke="black" d="M120,-195.992C120,-187.859 120,-178.959 120,-170.378"/>
<polygon fill="black" stroke="black" points="123.5,-170.142 120,-160.142 116.5,-170.142 123.5,-170.142"/>
</g>
<!-- MT_post__leftExpr15\n Label 22 -->
<g id="node16" class="node"><title>MT_post__leftExpr15\n Label 22</title>
<ellipse fill="lightblue" stroke="black" cx="369" cy="-129" rx="113.844" ry="31.1127"/>
<text text-anchor="middle" x="369" y="-134.4" font-family="Times Roman,serif" font-size="14.00">MT_post__leftExpr15</text>
<text text-anchor="middle" x="369" y="-116.4" font-family="Times Roman,serif" font-size="14.00"> Label 22</text>
</g>
<!-- MT_post__Equation11\n Label 17&#45;&gt;MT_post__leftExpr15\n Label 22 -->
<g id="edge24" class="edge"><title>MT_post__Equation11\n Label 17&#45;&gt;MT_post__leftExpr15\n Label 22</title>
<path fill="none" stroke="black" d="M185.748,-201.123C219.2,-187.957 259.995,-171.901 294.595,-158.284"/>
<polygon fill="black" stroke="black" points="296.155,-161.431 304.179,-154.512 293.592,-154.918 296.155,-161.431"/>
</g>
<!-- MT_post__trace_link12\n Label 5&#45;&gt;MT_post__Station_S4\n Label 1 -->
<g id="edge28" class="edge"><title>MT_post__trace_link12\n Label 5&#45;&gt;MT_post__Station_S4\n Label 1</title>
<path fill="none" stroke="black" d="M1097.68,-489.992C1097.6,-481.859 1097.51,-472.959 1097.42,-464.378"/>
<polygon fill="black" stroke="black" points="1100.92,-464.106 1097.32,-454.142 1093.92,-464.178 1100.92,-464.106"/>
</g>
<!-- MT_post__trace_link13\n Label 6&#45;&gt;MT_post__Female_S3\n Label 2 -->
<g id="edge32" class="edge"><title>MT_post__trace_link13\n Label 6&#45;&gt;MT_post__Female_S3\n Label 2</title>
<path fill="none" stroke="black" d="M1304.15,-299.763C1265.29,-286.112 1217.18,-269.214 1177.11,-255.14"/>
<polygon fill="black" stroke="black" points="1178.23,-251.825 1167.64,-251.813 1175.92,-258.429 1178.23,-251.825"/>
</g>
<!-- MT_post__leftExpr14\n Label 19&#45;&gt;MT_post__Attribute6\n Label 12 -->
<g id="edge4" class="edge"><title>MT_post__leftExpr14\n Label 19&#45;&gt;MT_post__Attribute6\n Label 12</title>
<path fill="none" stroke="black" d="M599.95,-295.862C614.077,-285.294 630.188,-273.241 644.94,-262.205"/>
<polygon fill="black" stroke="black" points="647.063,-264.988 652.974,-256.195 642.87,-259.383 647.063,-264.988"/>
</g>
<!-- MT_post__leftExpr15\n Label 22&#45;&gt;MT_post__Attribute7\n Label 16 -->
<g id="edge8" class="edge"><title>MT_post__leftExpr15\n Label 22&#45;&gt;MT_post__Attribute7\n Label 16</title>
<path fill="none" stroke="black" d="M433.574,-103.38C466.76,-90.2127 507.36,-74.104 541.827,-60.4289"/>
<polygon fill="black" stroke="black" points="543.37,-63.5821 551.375,-56.6408 540.789,-57.0755 543.37,-63.5821"/>
</g>
<!-- MT_post__hasAttr_S16\n Label 15&#45;&gt;MT_post__Attribute6\n Label 12 -->
<g id="edge2" class="edge"><title>MT_post__hasAttr_S16\n Label 15&#45;&gt;MT_post__Attribute6\n Label 12</title>
<path fill="none" stroke="black" d="M779.157,-295.331C766.062,-285.064 751.247,-273.45 737.596,-262.747"/>
<polygon fill="black" stroke="black" points="739.744,-259.984 729.715,-256.568 735.425,-265.493 739.744,-259.984"/>
</g>
<!-- MT_post__hasAttr_S17\n Label 25&#45;&gt;MT_post__Attribute7\n Label 16 -->
<g id="edge6" class="edge"><title>MT_post__hasAttr_S17\n Label 25&#45;&gt;MT_post__Attribute7\n Label 16</title>
<path fill="none" stroke="black" d="M795.022,-102.609C762.644,-89.6577 723.519,-74.0076 690.114,-60.6455"/>
<polygon fill="black" stroke="black" points="690.985,-57.2244 680.4,-56.7601 688.385,-63.7237 690.985,-57.2244"/>
</g>
</g>
</svg>
