<?xml version="1.0" encoding="UTF-8" standalone="no"?>
<!DOCTYPE svg PUBLIC "-//W3C//DTD SVG 1.1//EN"
 "http://www.w3.org/Graphics/SVG/1.1/DTD/svg11.dtd">
<!-- Generated by graphviz version 2.26.3 (20100126.1600)
 -->
<!-- Title: ruleCombinator_match_HSF2SF_combine_1LHS Pages: 1 -->
<svg width="760pt" height="866pt"
 viewBox="0.00 0.00 760.00 866.00" xmlns="http://www.w3.org/2000/svg" xmlns:xlink="http://www.w3.org/1999/xlink">
<g id="graph1" class="graph" transform="scale(1 1) rotate(0) translate(4 862)">
<title>ruleCombinator_match_HSF2SF_combine_1LHS</title>
<polygon fill="white" stroke="white" points="-4,5 -4,-862 757,-862 757,5 -4,5"/>
<!-- MT_pre__Station_S0\n Label 1 -->
<g id="node1" class="node"><title>MT_pre__Station_S0\n Label 1</title>
<ellipse fill="lightblue" stroke="black" cx="507" cy="-631" rx="111.222" ry="31.1127"/>
<text text-anchor="middle" x="507" y="-636.4" font-family="Times Roman,serif" font-size="14.00">MT_pre__Station_S0</text>
<text text-anchor="middle" x="507" y="-618.4" font-family="Times Roman,serif" font-size="14.00"> Label 1</text>
</g>
<!-- MT_pre__indirectLink_S1\n Label 10 -->
<g id="node2" class="node"><title>MT_pre__indirectLink_S1\n Label 10</title>
<ellipse fill="lightgreen" stroke="black" cx="375" cy="-507" rx="133.143" ry="31.1127"/>
<text text-anchor="middle" x="375" y="-512.4" font-family="Times Roman,serif" font-size="14.00">MT_pre__indirectLink_S1</text>
<text text-anchor="middle" x="375" y="-494.4" font-family="Times Roman,serif" font-size="14.00"> Label 10</text>
</g>
<!-- MT_pre__Station_S0\n Label 1&#45;&gt;MT_pre__indirectLink_S1\n Label 10 -->
<g id="edge10" class="edge"><title>MT_pre__Station_S0\n Label 1&#45;&gt;MT_pre__indirectLink_S1\n Label 10</title>
<path fill="none" stroke="black" d="M475.046,-600.983C456.86,-583.898 433.923,-562.352 414.601,-544.201"/>
<polygon fill="black" stroke="black" points="416.802,-541.466 407.117,-537.17 412.009,-546.568 416.802,-541.466"/>
</g>
<!-- MT_pre__hasAttr_S9\n Label 15\n Classtype = None\n Name = None -->
<g id="node10" class="node"><title>MT_pre__hasAttr_S9\n Label 15\n Classtype = None\n Name = None</title>
<ellipse fill="lightblue" stroke="black" cx="639" cy="-507" rx="113.137" ry="56.5685"/>
<text text-anchor="middle" x="639" y="-530.4" font-family="Times Roman,serif" font-size="14.00">MT_pre__hasAttr_S9</text>
<text text-anchor="middle" x="639" y="-512.4" font-family="Times Roman,serif" font-size="14.00"> Label 15</text>
<text text-anchor="middle" x="639" y="-494.4" font-family="Times Roman,serif" font-size="14.00"> Classtype = None</text>
<text text-anchor="middle" x="639" y="-476.4" font-family="Times Roman,serif" font-size="14.00"> Name = None</text>
</g>
<!-- MT_pre__Station_S0\n Label 1&#45;&gt;MT_pre__hasAttr_S9\n Label 15\n Classtype = None\n Name = None -->
<g id="edge8" class="edge"><title>MT_pre__Station_S0\n Label 1&#45;&gt;MT_pre__hasAttr_S9\n Label 15\n Classtype = None\n Name = None</title>
<path fill="none" stroke="black" d="M538.954,-600.983C550.799,-589.855 564.66,-576.835 578.224,-564.092"/>
<polygon fill="black" stroke="black" points="580.823,-566.454 585.715,-557.056 576.03,-561.352 580.823,-566.454"/>
</g>
<!-- MT_pre__Female_S3\n Label 2 -->
<g id="node4" class="node"><title>MT_pre__Female_S3\n Label 2</title>
<ellipse fill="lightblue" stroke="black" cx="244" cy="-357" rx="111.016" ry="31.1127"/>
<text text-anchor="middle" x="244" y="-362.4" font-family="Times Roman,serif" font-size="14.00">MT_pre__Female_S3</text>
<text text-anchor="middle" x="244" y="-344.4" font-family="Times Roman,serif" font-size="14.00"> Label 2</text>
</g>
<!-- MT_pre__indirectLink_S1\n Label 10&#45;&gt;MT_pre__Female_S3\n Label 2 -->
<g id="edge12" class="edge"><title>MT_pre__indirectLink_S1\n Label 10&#45;&gt;MT_pre__Female_S3\n Label 2</title>
<path fill="none" stroke="black" d="M348.174,-476.283C327.552,-452.67 298.96,-419.932 276.947,-394.725"/>
<polygon fill="black" stroke="black" points="279.557,-392.393 270.342,-387.163 274.284,-396.997 279.557,-392.393"/>
</g>
<!-- MT_pre__Female_T2\n Label 4 -->
<g id="node3" class="node"><title>MT_pre__Female_T2\n Label 4</title>
<ellipse fill="lightblue" stroke="black" cx="112" cy="-631" rx="111.016" ry="31.1127"/>
<text text-anchor="middle" x="112" y="-636.4" font-family="Times Roman,serif" font-size="14.00">MT_pre__Female_T2</text>
<text text-anchor="middle" x="112" y="-618.4" font-family="Times Roman,serif" font-size="14.00"> Label 4</text>
</g>
<!-- MT_pre__trace_link8\n Label 6 -->
<g id="node9" class="node"><title>MT_pre__trace_link8\n Label 6</title>
<ellipse fill="#eedd82" stroke="black" cx="112" cy="-507" rx="111.93" ry="31.1127"/>
<text text-anchor="middle" x="112" y="-512.4" font-family="Times Roman,serif" font-size="14.00">MT_pre__trace_link8</text>
<text text-anchor="middle" x="112" y="-494.4" font-family="Times Roman,serif" font-size="14.00"> Label 6</text>
</g>
<!-- MT_pre__Female_T2\n Label 4&#45;&gt;MT_pre__trace_link8\n Label 6 -->
<g id="edge16" class="edge"><title>MT_pre__Female_T2\n Label 4&#45;&gt;MT_pre__trace_link8\n Label 6</title>
<path fill="none" stroke="black" d="M112,-599.71C112,-584.143 112,-565.121 112,-548.367"/>
<polygon fill="black" stroke="black" points="115.5,-548.28 112,-538.28 108.5,-548.28 115.5,-548.28"/>
</g>
<!-- MT_pre__hasAttr_S10\n Label 25\n Classtype = None\n Name = None -->
<g id="node11" class="node"><title>MT_pre__hasAttr_S10\n Label 25\n Classtype = None\n Name = None</title>
<ellipse fill="lightblue" stroke="black" cx="244" cy="-207" rx="119.001" ry="56.5685"/>
<text text-anchor="middle" x="244" y="-230.4" font-family="Times Roman,serif" font-size="14.00">MT_pre__hasAttr_S10</text>
<text text-anchor="middle" x="244" y="-212.4" font-family="Times Roman,serif" font-size="14.00"> Label 25</text>
<text text-anchor="middle" x="244" y="-194.4" font-family="Times Roman,serif" font-size="14.00"> Classtype = None</text>
<text text-anchor="middle" x="244" y="-176.4" font-family="Times Roman,serif" font-size="14.00"> Name = None</text>
</g>
<!-- MT_pre__Female_S3\n Label 2&#45;&gt;MT_pre__hasAttr_S10\n Label 25\n Classtype = None\n Name = None -->
<g id="edge20" class="edge"><title>MT_pre__Female_S3\n Label 2&#45;&gt;MT_pre__hasAttr_S10\n Label 25\n Classtype = None\n Name = None</title>
<path fill="none" stroke="black" d="M244,-325.92C244,-310.715 244,-291.792 244,-273.545"/>
<polygon fill="black" stroke="black" points="247.5,-273.505 244,-263.505 240.5,-273.505 247.5,-273.505"/>
</g>
<!-- MT_pre__Station_T4\n Label 3 -->
<g id="node5" class="node"><title>MT_pre__Station_T4\n Label 3</title>
<ellipse fill="lightblue" stroke="black" cx="507" cy="-827" rx="111.222" ry="31.1127"/>
<text text-anchor="middle" x="507" y="-832.4" font-family="Times Roman,serif" font-size="14.00">MT_pre__Station_T4</text>
<text text-anchor="middle" x="507" y="-814.4" font-family="Times Roman,serif" font-size="14.00"> Label 3</text>
</g>
<!-- MT_pre__trace_link7\n Label 5 -->
<g id="node8" class="node"><title>MT_pre__trace_link7\n Label 5</title>
<ellipse fill="#eedd82" stroke="black" cx="507" cy="-729" rx="111.93" ry="31.1127"/>
<text text-anchor="middle" x="507" y="-734.4" font-family="Times Roman,serif" font-size="14.00">MT_pre__trace_link7</text>
<text text-anchor="middle" x="507" y="-716.4" font-family="Times Roman,serif" font-size="14.00"> Label 5</text>
</g>
<!-- MT_pre__Station_T4\n Label 3&#45;&gt;MT_pre__trace_link7\n Label 5 -->
<g id="edge14" class="edge"><title>MT_pre__Station_T4\n Label 3&#45;&gt;MT_pre__trace_link7\n Label 5</title>
<path fill="none" stroke="black" d="M507,-795.992C507,-787.859 507,-778.959 507,-770.378"/>
<polygon fill="black" stroke="black" points="510.5,-770.142 507,-760.142 503.5,-770.142 510.5,-770.142"/>
</g>
<!-- MT_pre__Attribute5\n Label 12\n Classtype = None\n Name = 
 -->
<g id="node6" class="node"><title>MT_pre__Attribute5\n Label 12\n Classtype = None\n Name = 
</title>
<ellipse fill="none" stroke="black" cx="639" cy="-357" rx="109.101" ry="56.5685"/>
<text text-anchor="middle" x="639" y="-380.4" font-family="Times Roman,serif" font-size="14.00">MT_pre__Attribute5</text>
<text text-anchor="middle" x="639" y="-362.4" font-family="Times Roman,serif" font-size="14.00"> Label 12</text>
<text text-anchor="middle" x="639" y="-344.4" font-family="Times Roman,serif" font-size="14.00"> Classtype = None</text>
<text text-anchor="middle" x="639" y="-326.4" font-family="Times Roman,serif" font-size="14.00"> Name = </text>
</g>
<!-- MT_pre__Attribute6\n Label 16\n Classtype = None\n Name = 
 -->
<g id="node7" class="node"><title>MT_pre__Attribute6\n Label 16\n Classtype = None\n Name = 
</title>
<ellipse fill="none" stroke="black" cx="244" cy="-57" rx="109.101" ry="56.5685"/>
<text text-anchor="middle" x="244" y="-80.4" font-family="Times Roman,serif" font-size="14.00">MT_pre__Attribute6</text>
<text text-anchor="middle" x="244" y="-62.4" font-family="Times Roman,serif" font-size="14.00"> Label 16</text>
<text text-anchor="middle" x="244" y="-44.4" font-family="Times Roman,serif" font-size="14.00"> Classtype = None</text>
<text text-anchor="middle" x="244" y="-26.4" font-family="Times Roman,serif" font-size="14.00"> Name = </text>
</g>
<!-- MT_pre__trace_link7\n Label 5&#45;&gt;MT_pre__Station_S0\n Label 1 -->
<g id="edge6" class="edge"><title>MT_pre__trace_link7\n Label 5&#45;&gt;MT_pre__Station_S0\n Label 1</title>
<path fill="none" stroke="black" d="M507,-697.992C507,-689.859 507,-680.959 507,-672.378"/>
<polygon fill="black" stroke="black" points="510.5,-672.142 507,-662.142 503.5,-672.142 510.5,-672.142"/>
</g>
<!-- MT_pre__trace_link8\n Label 6&#45;&gt;MT_pre__Female_S3\n Label 2 -->
<g id="edge18" class="edge"><title>MT_pre__trace_link8\n Label 6&#45;&gt;MT_pre__Female_S3\n Label 2</title>
<path fill="none" stroke="black" d="M138.712,-476.645C159.467,-453.061 188.37,-420.216 210.644,-394.904"/>
<polygon fill="black" stroke="black" points="213.349,-397.129 217.328,-387.31 208.094,-392.505 213.349,-397.129"/>
</g>
<!-- MT_pre__hasAttr_S9\n Label 15\n Classtype = None\n Name = None&#45;&gt;MT_pre__Attribute5\n Label 12\n Classtype = None\n Name = 
 -->
<g id="edge2" class="edge"><title>MT_pre__hasAttr_S9\n Label 15\n Classtype = None\n Name = None&#45;&gt;MT_pre__Attribute5\n Label 12\n Classtype = None\n Name = 
</title>
<path fill="none" stroke="black" d="M639,-450.291C639,-441.705 639,-432.777 639,-423.998"/>
<polygon fill="black" stroke="black" points="642.5,-423.789 639,-413.789 635.5,-423.789 642.5,-423.789"/>
</g>
<!-- MT_pre__hasAttr_S10\n Label 25\n Classtype = None\n Name = None&#45;&gt;MT_pre__Attribute6\n Label 16\n Classtype = None\n Name = 
 -->
<g id="edge4" class="edge"><title>MT_pre__hasAttr_S10\n Label 25\n Classtype = None\n Name = None&#45;&gt;MT_pre__Attribute6\n Label 16\n Classtype = None\n Name = 
</title>
<path fill="none" stroke="black" d="M244,-150.291C244,-141.705 244,-132.777 244,-123.998"/>
<polygon fill="black" stroke="black" points="247.5,-123.789 244,-113.789 240.5,-123.789 247.5,-123.789"/>
</g>
</g>
</svg>
