<?xml version="1.0" encoding="UTF-8" standalone="no"?>
<!DOCTYPE svg PUBLIC "-//W3C//DTD SVG 1.1//EN"
 "http://www.w3.org/Graphics/SVG/1.1/DTD/svg11.dtd">
<!-- Generated by graphviz version 2.26.3 (20100126.1600)
 -->
<!-- Title: ruleCombinator_rewrite_HFF2FF_combine_0RHS Pages: 1 -->
<svg width="545pt" height="462pt"
 viewBox="0.00 0.00 545.00 462.00" xmlns="http://www.w3.org/2000/svg" xmlns:xlink="http://www.w3.org/1999/xlink">
<g id="graph1" class="graph" transform="scale(1 1) rotate(0) translate(4 458)">
<title>ruleCombinator_rewrite_HFF2FF_combine_0RHS</title>
<polygon fill="white" stroke="white" points="-4,5 -4,-458 542,-458 542,5 -4,5"/>
<!-- MT_post__directLink_T0\n Label 8 -->
<g id="node1" class="node"><title>MT_post__directLink_T0\n Label 8</title>
<ellipse fill="lightblue" stroke="black" cx="129" cy="-325" rx="128.901" ry="31.1127"/>
<text text-anchor="middle" x="129" y="-330.4" font-family="Times Roman,serif" font-size="14.00">MT_post__directLink_T0</text>
<text text-anchor="middle" x="129" y="-312.4" font-family="Times Roman,serif" font-size="14.00"> Label 8</text>
</g>
<!-- MT_post__Female_T5\n Label 4 -->
<g id="node6" class="node"><title>MT_post__Female_T5\n Label 4</title>
<ellipse fill="lightblue" stroke="black" cx="127" cy="-227" rx="115.966" ry="31.1127"/>
<text text-anchor="middle" x="127" y="-232.4" font-family="Times Roman,serif" font-size="14.00">MT_post__Female_T5</text>
<text text-anchor="middle" x="127" y="-214.4" font-family="Times Roman,serif" font-size="14.00"> Label 4</text>
</g>
<!-- MT_post__directLink_T0\n Label 8&#45;&gt;MT_post__Female_T5\n Label 4 -->
<g id="edge4" class="edge"><title>MT_post__directLink_T0\n Label 8&#45;&gt;MT_post__Female_T5\n Label 4</title>
<path fill="none" stroke="black" d="M128.367,-293.992C128.201,-285.859 128.02,-276.959 127.844,-268.378"/>
<polygon fill="black" stroke="black" points="131.339,-268.069 127.636,-258.142 124.34,-268.212 131.339,-268.069"/>
</g>
<!-- MT_post__indirectLink_S1\n Label 9 -->
<g id="node2" class="node"><title>MT_post__indirectLink_S1\n Label 9</title>
<ellipse fill="lightblue" stroke="black" cx="399" cy="-129" rx="138.093" ry="31.1127"/>
<text text-anchor="middle" x="399" y="-134.4" font-family="Times Roman,serif" font-size="14.00">MT_post__indirectLink_S1</text>
<text text-anchor="middle" x="399" y="-116.4" font-family="Times Roman,serif" font-size="14.00"> Label 9</text>
</g>
<!-- MT_post__Female_S7\n Label 2 -->
<g id="node8" class="node"><title>MT_post__Female_S7\n Label 2</title>
<ellipse fill="lightblue" stroke="black" cx="262" cy="-31" rx="115.966" ry="31.1127"/>
<text text-anchor="middle" x="262" y="-36.4" font-family="Times Roman,serif" font-size="14.00">MT_post__Female_S7</text>
<text text-anchor="middle" x="262" y="-18.4" font-family="Times Roman,serif" font-size="14.00"> Label 2</text>
</g>
<!-- MT_post__indirectLink_S1\n Label 9&#45;&gt;MT_post__Female_S7\n Label 2 -->
<g id="edge16" class="edge"><title>MT_post__indirectLink_S1\n Label 9&#45;&gt;MT_post__Female_S7\n Label 2</title>
<path fill="none" stroke="black" d="M357.524,-99.3308C342.905,-88.8735 326.33,-77.0172 311.14,-66.1509"/>
<polygon fill="black" stroke="black" points="313.034,-63.2025 302.864,-60.2311 308.961,-68.8958 313.034,-63.2025"/>
</g>
<!-- MT_post__trace_link2\n Label 5 -->
<g id="node3" class="node"><title>MT_post__trace_link2\n Label 5</title>
<ellipse fill="lightblue" stroke="black" cx="397" cy="-325" rx="116.88" ry="31.1127"/>
<text text-anchor="middle" x="397" y="-330.4" font-family="Times Roman,serif" font-size="14.00">MT_post__trace_link2</text>
<text text-anchor="middle" x="397" y="-312.4" font-family="Times Roman,serif" font-size="14.00"> Label 5</text>
</g>
<!-- MT_post__Female_S6\n Label 1 -->
<g id="node7" class="node"><title>MT_post__Female_S6\n Label 1</title>
<ellipse fill="lightblue" stroke="black" cx="398" cy="-227" rx="115.966" ry="31.1127"/>
<text text-anchor="middle" x="398" y="-232.4" font-family="Times Roman,serif" font-size="14.00">MT_post__Female_S6</text>
<text text-anchor="middle" x="398" y="-214.4" font-family="Times Roman,serif" font-size="14.00"> Label 1</text>
</g>
<!-- MT_post__trace_link2\n Label 5&#45;&gt;MT_post__Female_S6\n Label 1 -->
<g id="edge8" class="edge"><title>MT_post__trace_link2\n Label 5&#45;&gt;MT_post__Female_S6\n Label 1</title>
<path fill="none" stroke="black" d="M397.316,-293.992C397.399,-285.859 397.49,-276.959 397.578,-268.378"/>
<polygon fill="black" stroke="black" points="401.08,-268.178 397.682,-258.142 394.08,-268.106 401.08,-268.178"/>
</g>
<!-- MT_post__trace_link3\n Label 6 -->
<g id="node4" class="node"><title>MT_post__trace_link3\n Label 6</title>
<ellipse fill="lightblue" stroke="black" cx="126" cy="-129" rx="116.88" ry="31.1127"/>
<text text-anchor="middle" x="126" y="-134.4" font-family="Times Roman,serif" font-size="14.00">MT_post__trace_link3</text>
<text text-anchor="middle" x="126" y="-116.4" font-family="Times Roman,serif" font-size="14.00"> Label 6</text>
</g>
<!-- MT_post__trace_link3\n Label 6&#45;&gt;MT_post__Female_S7\n Label 2 -->
<g id="edge12" class="edge"><title>MT_post__trace_link3\n Label 6&#45;&gt;MT_post__Female_S7\n Label 2</title>
<path fill="none" stroke="black" d="M166.436,-99.8621C181.103,-89.2937 197.828,-77.2414 213.143,-66.2055"/>
<polygon fill="black" stroke="black" points="215.418,-68.8807 221.485,-60.1949 211.325,-63.2015 215.418,-68.8807"/>
</g>
<!-- MT_post__Female_T4\n Label 3 -->
<g id="node5" class="node"><title>MT_post__Female_T4\n Label 3</title>
<ellipse fill="lightblue" stroke="black" cx="261" cy="-423" rx="115.966" ry="31.1127"/>
<text text-anchor="middle" x="261" y="-428.4" font-family="Times Roman,serif" font-size="14.00">MT_post__Female_T4</text>
<text text-anchor="middle" x="261" y="-410.4" font-family="Times Roman,serif" font-size="14.00"> Label 3</text>
</g>
<!-- MT_post__Female_T4\n Label 3&#45;&gt;MT_post__directLink_T0\n Label 8 -->
<g id="edge2" class="edge"><title>MT_post__Female_T4\n Label 3&#45;&gt;MT_post__directLink_T0\n Label 8</title>
<path fill="none" stroke="black" d="M221.396,-393.597C207.557,-383.322 191.864,-371.672 177.39,-360.926"/>
<polygon fill="black" stroke="black" points="179.148,-357.872 169.033,-354.721 174.975,-363.492 179.148,-357.872"/>
</g>
<!-- MT_post__Female_T4\n Label 3&#45;&gt;MT_post__trace_link2\n Label 5 -->
<g id="edge6" class="edge"><title>MT_post__Female_T4\n Label 3&#45;&gt;MT_post__trace_link2\n Label 5</title>
<path fill="none" stroke="black" d="M301.436,-393.862C316.103,-383.294 332.828,-371.241 348.143,-360.205"/>
<polygon fill="black" stroke="black" points="350.418,-362.881 356.485,-354.195 346.325,-357.201 350.418,-362.881"/>
</g>
<!-- MT_post__Female_T5\n Label 4&#45;&gt;MT_post__trace_link3\n Label 6 -->
<g id="edge10" class="edge"><title>MT_post__Female_T5\n Label 4&#45;&gt;MT_post__trace_link3\n Label 6</title>
<path fill="none" stroke="black" d="M126.684,-195.992C126.601,-187.859 126.51,-178.959 126.422,-170.378"/>
<polygon fill="black" stroke="black" points="129.92,-170.106 126.318,-160.142 122.92,-170.178 129.92,-170.106"/>
</g>
<!-- MT_post__Female_S6\n Label 1&#45;&gt;MT_post__indirectLink_S1\n Label 9 -->
<g id="edge14" class="edge"><title>MT_post__Female_S6\n Label 1&#45;&gt;MT_post__indirectLink_S1\n Label 9</title>
<path fill="none" stroke="black" d="M398.316,-195.992C398.399,-187.859 398.49,-178.959 398.578,-170.378"/>
<polygon fill="black" stroke="black" points="402.08,-170.178 398.682,-160.142 395.08,-170.106 402.08,-170.178"/>
</g>
</g>
</svg>
