<?xml version="1.0" encoding="UTF-8" standalone="no"?>
<!DOCTYPE svg PUBLIC "-//W3C//DTD SVG 1.1//EN"
 "http://www.w3.org/Graphics/SVG/1.1/DTD/svg11.dtd">
<!-- Generated by graphviz version 2.26.3 (20100126.1600)
 -->
<!-- Title: rule_SF2SF Pages: 1 -->
<svg width="1341pt" height="1086pt"
 viewBox="0.00 0.00 1341.00 1086.00" xmlns="http://www.w3.org/2000/svg" xmlns:xlink="http://www.w3.org/1999/xlink">
<g id="graph1" class="graph" transform="scale(1 1) rotate(0) translate(4 1082)">
<title>rule_SF2SF</title>
<polygon fill="white" stroke="white" points="-4,5 -4,-1082 1338,-1082 1338,5 -4,5"/>
<!-- directLink_T0\n -->
<g id="node1" class="node"><title>directLink_T0\n</title>
<ellipse fill="lightyellow" stroke="black" cx="1049" cy="-639" rx="77.7817" ry="18.3848"/>
<text text-anchor="middle" x="1049" y="-635.4" font-family="Times Roman,serif" font-size="14.00">directLink_T0</text>
</g>
<!-- Female_T3\n Classtype = t_\n Name = s_ -->
<g id="node4" class="node"><title>Female_T3\n Classtype = t_\n Name = s_</title>
<ellipse fill="lightblue" stroke="black" cx="1119" cy="-540" rx="85.7684" ry="43.8406"/>
<text text-anchor="middle" x="1119" y="-554.4" font-family="Times Roman,serif" font-size="14.00">Female_T3</text>
<text text-anchor="middle" x="1119" y="-536.4" font-family="Times Roman,serif" font-size="14.00"> Classtype = t_</text>
<text text-anchor="middle" x="1119" y="-518.4" font-family="Times Roman,serif" font-size="14.00"> Name = s_</text>
</g>
<!-- directLink_T0\n&#45;&gt;Female_T3\n Classtype = t_\n Name = s_ -->
<g id="edge12" class="edge"><title>directLink_T0\n&#45;&gt;Female_T3\n Classtype = t_\n Name = s_</title>
<path fill="none" stroke="black" d="M1062.17,-620.379C1068.35,-611.631 1076.05,-600.74 1083.77,-589.828"/>
<polygon fill="black" stroke="black" points="1086.73,-591.7 1089.65,-581.514 1081.02,-587.659 1086.73,-591.7"/>
</g>
<!-- paired_with1 -->
<g id="node2" class="node"><title>paired_with1</title>
<ellipse fill="lightgray" stroke="black" cx="1014" cy="-985" rx="75.1594" ry="18.3848"/>
<text text-anchor="middle" x="1014" y="-981.4" font-family="Times Roman,serif" font-size="14.00">paired_with1</text>
</g>
<!-- ApplyModel2 -->
<g id="node3" class="node"><title>ApplyModel2</title>
<ellipse fill="#fed017" stroke="black" cx="1014" cy="-911" rx="73.0388" ry="18.3848"/>
<text text-anchor="middle" x="1014" y="-907.4" font-family="Times Roman,serif" font-size="14.00">ApplyModel2</text>
</g>
<!-- paired_with1&#45;&gt;ApplyModel2 -->
<g id="edge24" class="edge"><title>paired_with1&#45;&gt;ApplyModel2</title>
<path fill="none" stroke="black" d="M1014,-966.327C1014,-958.264 1014,-948.648 1014,-939.711"/>
<polygon fill="black" stroke="black" points="1017.5,-939.667 1014,-929.667 1010.5,-939.667 1017.5,-939.667"/>
</g>
<!-- apply_contains9 -->
<g id="node10" class="node"><title>apply_contains9</title>
<ellipse fill="#fcdb58" stroke="black" cx="955" cy="-837" rx="90.0096" ry="18.3848"/>
<text text-anchor="middle" x="955" y="-833.4" font-family="Times Roman,serif" font-size="14.00">apply_contains9</text>
</g>
<!-- ApplyModel2&#45;&gt;apply_contains9 -->
<g id="edge2" class="edge"><title>ApplyModel2&#45;&gt;apply_contains9</title>
<path fill="none" stroke="black" d="M999.416,-892.708C992.324,-883.814 983.672,-872.962 975.895,-863.207"/>
<polygon fill="black" stroke="black" points="978.592,-860.975 969.621,-855.338 973.118,-865.339 978.592,-860.975"/>
</g>
<!-- apply_contains10 -->
<g id="node11" class="node"><title>apply_contains10</title>
<ellipse fill="#fcdb58" stroke="black" cx="1117" cy="-738" rx="96.8736" ry="18.3848"/>
<text text-anchor="middle" x="1117" y="-734.4" font-family="Times Roman,serif" font-size="14.00">apply_contains10</text>
</g>
<!-- ApplyModel2&#45;&gt;apply_contains10 -->
<g id="edge6" class="edge"><title>ApplyModel2&#45;&gt;apply_contains10</title>
<path fill="none" stroke="black" d="M1028.36,-892.609C1036.29,-882.128 1046.1,-868.607 1054,-856 1072.83,-825.942 1091.61,-789.75 1103.71,-765.442"/>
<polygon fill="black" stroke="black" points="1106.87,-766.948 1108.15,-756.431 1100.59,-763.85 1106.87,-766.948"/>
</g>
<!-- backward_link14 -->
<g id="node15" class="node"><title>backward_link14</title>
<ellipse fill="coral" stroke="black" cx="1119" cy="-416" rx="94.7523" ry="18.3848"/>
<text text-anchor="middle" x="1119" y="-412.4" font-family="Times Roman,serif" font-size="14.00">backward_link14</text>
</g>
<!-- Female_T3\n Classtype = t_\n Name = s_&#45;&gt;backward_link14 -->
<g id="edge30" class="edge"><title>Female_T3\n Classtype = t_\n Name = s_&#45;&gt;backward_link14</title>
<path fill="none" stroke="black" d="M1119,-495.933C1119,-479.016 1119,-460.151 1119,-444.997"/>
<polygon fill="black" stroke="black" points="1122.5,-444.7 1119,-434.7 1115.5,-444.7 1122.5,-444.7"/>
</g>
<!-- indirectLink_S4 -->
<g id="node5" class="node"><title>indirectLink_S4</title>
<ellipse fill="lightgreen" stroke="black" cx="919" cy="-416" rx="86.9741" ry="18.3848"/>
<text text-anchor="middle" x="919" y="-412.4" font-family="Times Roman,serif" font-size="14.00">indirectLink_S4</text>
</g>
<!-- Female_S7\n Classtype = 1\n Name = s_ -->
<g id="node8" class="node"><title>Female_S7\n Classtype = 1\n Name = s_</title>
<ellipse fill="lightblue" stroke="black" cx="1019" cy="-292" rx="82.2301" ry="43.8406"/>
<text text-anchor="middle" x="1019" y="-306.4" font-family="Times Roman,serif" font-size="14.00">Female_S7</text>
<text text-anchor="middle" x="1019" y="-288.4" font-family="Times Roman,serif" font-size="14.00"> Classtype = 1</text>
<text text-anchor="middle" x="1019" y="-270.4" font-family="Times Roman,serif" font-size="14.00"> Name = s_</text>
</g>
<!-- indirectLink_S4&#45;&gt;Female_S7\n Classtype = 1\n Name = s_ -->
<g id="edge44" class="edge"><title>indirectLink_S4&#45;&gt;Female_S7\n Classtype = 1\n Name = s_</title>
<path fill="none" stroke="black" d="M933.755,-397.703C945.938,-382.597 963.8,-360.448 980.03,-340.322"/>
<polygon fill="black" stroke="black" points="982.837,-342.417 986.39,-332.436 977.388,-338.023 982.837,-342.417"/>
</g>
<!-- Station_S5\n Classtype = 1\n Name = s_ -->
<g id="node6" class="node"><title>Station_S5\n Classtype = 1\n Name = s_</title>
<ellipse fill="lightblue" stroke="black" cx="741" cy="-540" rx="82.2301" ry="43.8406"/>
<text text-anchor="middle" x="741" y="-554.4" font-family="Times Roman,serif" font-size="14.00">Station_S5</text>
<text text-anchor="middle" x="741" y="-536.4" font-family="Times Roman,serif" font-size="14.00"> Classtype = 1</text>
<text text-anchor="middle" x="741" y="-518.4" font-family="Times Roman,serif" font-size="14.00"> Name = s_</text>
</g>
<!-- Station_S5\n Classtype = 1\n Name = s_&#45;&gt;indirectLink_S4 -->
<g id="edge42" class="edge"><title>Station_S5\n Classtype = 1\n Name = s_&#45;&gt;indirectLink_S4</title>
<path fill="none" stroke="black" d="M791.057,-505.129C821.119,-484.187 858.566,-458.1 885.163,-439.572"/>
<polygon fill="black" stroke="black" points="887.189,-442.426 893.393,-433.838 883.187,-436.683 887.189,-442.426"/>
</g>
<!-- hasAttr_S15\n Classtype = None\n Name = None -->
<g id="node16" class="node"><title>hasAttr_S15\n Classtype = None\n Name = None</title>
<ellipse fill="lightblue" stroke="black" cx="712" cy="-416" rx="101.823" ry="43.8406"/>
<text text-anchor="middle" x="712" y="-430.4" font-family="Times Roman,serif" font-size="14.00">hasAttr_S15</text>
<text text-anchor="middle" x="712" y="-412.4" font-family="Times Roman,serif" font-size="14.00"> Classtype = None</text>
<text text-anchor="middle" x="712" y="-394.4" font-family="Times Roman,serif" font-size="14.00"> Name = None</text>
</g>
<!-- Station_S5\n Classtype = 1\n Name = s_&#45;&gt;hasAttr_S15\n Classtype = None\n Name = None -->
<g id="edge34" class="edge"><title>Station_S5\n Classtype = 1\n Name = s_&#45;&gt;hasAttr_S15\n Classtype = None\n Name = None</title>
<path fill="none" stroke="black" d="M730.776,-496.282C728.785,-487.771 726.677,-478.755 724.619,-469.959"/>
<polygon fill="black" stroke="black" points="728.013,-469.1 722.328,-460.16 721.197,-470.694 728.013,-469.1"/>
</g>
<!-- Station_T6\n Classtype = t_\n Name = s_ -->
<g id="node7" class="node"><title>Station_T6\n Classtype = t_\n Name = s_</title>
<ellipse fill="lightblue" stroke="black" cx="916" cy="-738" rx="85.7684" ry="43.8406"/>
<text text-anchor="middle" x="916" y="-752.4" font-family="Times Roman,serif" font-size="14.00">Station_T6</text>
<text text-anchor="middle" x="916" y="-734.4" font-family="Times Roman,serif" font-size="14.00"> Classtype = t_</text>
<text text-anchor="middle" x="916" y="-716.4" font-family="Times Roman,serif" font-size="14.00"> Name = s_</text>
</g>
<!-- Station_T6\n Classtype = t_\n Name = s_&#45;&gt;directLink_T0\n -->
<g id="edge10" class="edge"><title>Station_T6\n Classtype = t_\n Name = s_&#45;&gt;directLink_T0\n</title>
<path fill="none" stroke="black" d="M964.769,-701.698C982.159,-688.754 1001.29,-674.511 1016.92,-662.875"/>
<polygon fill="black" stroke="black" points="1019.28,-665.483 1025.22,-656.705 1015.1,-659.868 1019.28,-665.483"/>
</g>
<!-- backward_link13 -->
<g id="node14" class="node"><title>backward_link13</title>
<ellipse fill="coral" stroke="black" cx="858" cy="-639" rx="94.7523" ry="18.3848"/>
<text text-anchor="middle" x="858" y="-635.4" font-family="Times Roman,serif" font-size="14.00">backward_link13</text>
</g>
<!-- Station_T6\n Classtype = t_\n Name = s_&#45;&gt;backward_link13 -->
<g id="edge26" class="edge"><title>Station_T6\n Classtype = t_\n Name = s_&#45;&gt;backward_link13</title>
<path fill="none" stroke="black" d="M891.235,-695.728C885.369,-685.716 879.268,-675.302 873.918,-666.17"/>
<polygon fill="black" stroke="black" points="876.93,-664.387 868.855,-657.528 870.89,-667.925 876.93,-664.387"/>
</g>
<!-- hasAttr_S16\n Classtype = None\n Name = None -->
<g id="node17" class="node"><title>hasAttr_S16\n Classtype = None\n Name = None</title>
<ellipse fill="lightblue" stroke="black" cx="784" cy="-168" rx="101.823" ry="43.8406"/>
<text text-anchor="middle" x="784" y="-182.4" font-family="Times Roman,serif" font-size="14.00">hasAttr_S16</text>
<text text-anchor="middle" x="784" y="-164.4" font-family="Times Roman,serif" font-size="14.00"> Classtype = None</text>
<text text-anchor="middle" x="784" y="-146.4" font-family="Times Roman,serif" font-size="14.00"> Name = None</text>
</g>
<!-- Female_S7\n Classtype = 1\n Name = s_&#45;&gt;hasAttr_S16\n Classtype = None\n Name = None -->
<g id="edge38" class="edge"><title>Female_S7\n Classtype = 1\n Name = s_&#45;&gt;hasAttr_S16\n Classtype = None\n Name = None</title>
<path fill="none" stroke="black" d="M960.306,-261.029C929.364,-244.703 891.091,-224.508 858.12,-207.11"/>
<polygon fill="black" stroke="black" points="859.45,-203.854 848.972,-202.283 856.183,-210.045 859.45,-203.854"/>
</g>
<!-- MatchModel8 -->
<g id="node9" class="node"><title>MatchModel8</title>
<ellipse fill="#e15c34" stroke="black" cx="1014" cy="-1059" rx="75.8684" ry="18.3848"/>
<text text-anchor="middle" x="1014" y="-1055.4" font-family="Times Roman,serif" font-size="14.00">MatchModel8</text>
</g>
<!-- MatchModel8&#45;&gt;paired_with1 -->
<g id="edge22" class="edge"><title>MatchModel8&#45;&gt;paired_with1</title>
<path fill="none" stroke="black" d="M1014,-1040.33C1014,-1032.26 1014,-1022.65 1014,-1013.71"/>
<polygon fill="black" stroke="black" points="1017.5,-1013.67 1014,-1003.67 1010.5,-1013.67 1017.5,-1013.67"/>
</g>
<!-- match_contains19 -->
<g id="node20" class="node"><title>match_contains19</title>
<ellipse fill="#f798a1" stroke="black" cx="764" cy="-911" rx="101.116" ry="18.3848"/>
<text text-anchor="middle" x="764" y="-907.4" font-family="Times Roman,serif" font-size="14.00">match_contains19</text>
</g>
<!-- MatchModel8&#45;&gt;match_contains19 -->
<g id="edge54" class="edge"><title>MatchModel8&#45;&gt;match_contains19</title>
<path fill="none" stroke="black" d="M984.833,-1041.73C939.753,-1015.05 853.116,-963.757 802.801,-933.97"/>
<polygon fill="black" stroke="black" points="804.535,-930.93 794.147,-928.847 800.969,-936.953 804.535,-930.93"/>
</g>
<!-- match_contains20 -->
<g id="node21" class="node"><title>match_contains20</title>
<ellipse fill="#f798a1" stroke="black" cx="1232" cy="-837" rx="101.116" ry="18.3848"/>
<text text-anchor="middle" x="1232" y="-833.4" font-family="Times Roman,serif" font-size="14.00">match_contains20</text>
</g>
<!-- MatchModel8&#45;&gt;match_contains20 -->
<g id="edge56" class="edge"><title>MatchModel8&#45;&gt;match_contains20</title>
<path fill="none" stroke="black" d="M1044.8,-1042.04C1061.46,-1032.1 1081.87,-1018.65 1098,-1004 1145.75,-960.649 1190.32,-899.354 1214.1,-864.348"/>
<polygon fill="black" stroke="black" points="1217.29,-865.877 1219.96,-855.625 1211.48,-861.973 1217.29,-865.877"/>
</g>
<!-- apply_contains9&#45;&gt;Station_T6\n Classtype = t_\n Name = s_ -->
<g id="edge4" class="edge"><title>apply_contains9&#45;&gt;Station_T6\n Classtype = t_\n Name = s_</title>
<path fill="none" stroke="black" d="M947.664,-818.379C944.521,-810.399 940.675,-800.636 936.761,-790.701"/>
<polygon fill="black" stroke="black" points="939.93,-789.197 933.008,-781.175 933.417,-791.762 939.93,-789.197"/>
</g>
<!-- apply_contains10&#45;&gt;Female_T3\n Classtype = t_\n Name = s_ -->
<g id="edge8" class="edge"><title>apply_contains10&#45;&gt;Female_T3\n Classtype = t_\n Name = s_</title>
<path fill="none" stroke="black" d="M1122.7,-719.47C1127.33,-703.396 1133.49,-679.409 1136,-658 1138.47,-636.897 1136.23,-613.744 1132.65,-593.578"/>
<polygon fill="black" stroke="black" points="1136.07,-592.798 1130.74,-583.638 1129.19,-594.118 1136.07,-592.798"/>
</g>
<!-- leftExpr11\n Classtype = None\n Name = None -->
<g id="node12" class="node"><title>leftExpr11\n Classtype = None\n Name = None</title>
<ellipse fill="lightblue" stroke="black" cx="490" cy="-416" rx="101.823" ry="43.8406"/>
<text text-anchor="middle" x="490" y="-430.4" font-family="Times Roman,serif" font-size="14.00">leftExpr11</text>
<text text-anchor="middle" x="490" y="-412.4" font-family="Times Roman,serif" font-size="14.00"> Classtype = None</text>
<text text-anchor="middle" x="490" y="-394.4" font-family="Times Roman,serif" font-size="14.00"> Name = None</text>
</g>
<!-- Attribute25\n Classtype = None\n Name = name -->
<g id="node26" class="node"><title>Attribute25\n Classtype = None\n Name = name</title>
<ellipse fill="lightblue" stroke="black" cx="657" cy="-292" rx="101.823" ry="43.8406"/>
<text text-anchor="middle" x="657" y="-306.4" font-family="Times Roman,serif" font-size="14.00">Attribute25</text>
<text text-anchor="middle" x="657" y="-288.4" font-family="Times Roman,serif" font-size="14.00"> Classtype = None</text>
<text text-anchor="middle" x="657" y="-270.4" font-family="Times Roman,serif" font-size="14.00"> Name = name</text>
</g>
<!-- leftExpr11\n Classtype = None\n Name = None&#45;&gt;Attribute25\n Classtype = None\n Name = name -->
<g id="edge16" class="edge"><title>leftExpr11\n Classtype = None\n Name = None&#45;&gt;Attribute25\n Classtype = None\n Name = name</title>
<path fill="none" stroke="black" d="M541.468,-377.784C559.17,-364.64 579.136,-349.815 597.429,-336.232"/>
<polygon fill="black" stroke="black" points="599.76,-338.861 605.702,-330.09 595.586,-333.241 599.76,-338.861"/>
</g>
<!-- leftExpr12\n Classtype = None\n Name = None -->
<g id="node13" class="node"><title>leftExpr12\n Classtype = None\n Name = None</title>
<ellipse fill="lightblue" stroke="black" cx="403" cy="-168" rx="101.823" ry="43.8406"/>
<text text-anchor="middle" x="403" y="-182.4" font-family="Times Roman,serif" font-size="14.00">leftExpr12</text>
<text text-anchor="middle" x="403" y="-164.4" font-family="Times Roman,serif" font-size="14.00"> Classtype = None</text>
<text text-anchor="middle" x="403" y="-146.4" font-family="Times Roman,serif" font-size="14.00"> Name = None</text>
</g>
<!-- Attribute26\n Classtype = None\n Name = name -->
<g id="node27" class="node"><title>Attribute26\n Classtype = None\n Name = name</title>
<ellipse fill="lightblue" stroke="black" cx="403" cy="-44" rx="101.823" ry="43.8406"/>
<text text-anchor="middle" x="403" y="-58.4" font-family="Times Roman,serif" font-size="14.00">Attribute26</text>
<text text-anchor="middle" x="403" y="-40.4" font-family="Times Roman,serif" font-size="14.00"> Classtype = None</text>
<text text-anchor="middle" x="403" y="-22.4" font-family="Times Roman,serif" font-size="14.00"> Name = name</text>
</g>
<!-- leftExpr12\n Classtype = None\n Name = None&#45;&gt;Attribute26\n Classtype = None\n Name = name -->
<g id="edge20" class="edge"><title>leftExpr12\n Classtype = None\n Name = None&#45;&gt;Attribute26\n Classtype = None\n Name = name</title>
<path fill="none" stroke="black" d="M403,-123.933C403,-115.718 403,-107.043 403,-98.5568"/>
<polygon fill="black" stroke="black" points="406.5,-98.3428 403,-88.3428 399.5,-98.3428 406.5,-98.3428"/>
</g>
<!-- backward_link13&#45;&gt;Station_S5\n Classtype = 1\n Name = s_ -->
<g id="edge28" class="edge"><title>backward_link13&#45;&gt;Station_S5\n Classtype = 1\n Name = s_</title>
<path fill="none" stroke="black" d="M836.54,-620.842C824.294,-610.479 808.368,-597.003 793.04,-584.034"/>
<polygon fill="black" stroke="black" points="794.997,-581.105 785.102,-577.317 790.476,-586.449 794.997,-581.105"/>
</g>
<!-- backward_link14&#45;&gt;Female_S7\n Classtype = 1\n Name = s_ -->
<g id="edge32" class="edge"><title>backward_link14&#45;&gt;Female_S7\n Classtype = 1\n Name = s_</title>
<path fill="none" stroke="black" d="M1104.24,-397.703C1092.06,-382.597 1074.2,-360.448 1057.97,-340.322"/>
<polygon fill="black" stroke="black" points="1060.61,-338.023 1051.61,-332.436 1055.16,-342.417 1060.61,-338.023"/>
</g>
<!-- hasAttr_S15\n Classtype = None\n Name = None&#45;&gt;Attribute25\n Classtype = None\n Name = name -->
<g id="edge36" class="edge"><title>hasAttr_S15\n Classtype = None\n Name = None&#45;&gt;Attribute25\n Classtype = None\n Name = name</title>
<path fill="none" stroke="black" d="M692.764,-372.631C688.768,-363.621 684.515,-354.034 680.389,-344.73"/>
<polygon fill="black" stroke="black" points="683.572,-343.276 676.318,-335.554 677.174,-346.115 683.572,-343.276"/>
</g>
<!-- hasAttr_S16\n Classtype = None\n Name = None&#45;&gt;Attribute26\n Classtype = None\n Name = name -->
<g id="edge40" class="edge"><title>hasAttr_S16\n Classtype = None\n Name = None&#45;&gt;Attribute26\n Classtype = None\n Name = name</title>
<path fill="none" stroke="black" d="M702.266,-141.399C641.121,-121.499 557.493,-94.2813 494.183,-73.6762"/>
<polygon fill="black" stroke="black" points="495.191,-70.3238 484.599,-70.5571 493.025,-76.9802 495.191,-70.3238"/>
</g>
<!-- Equation17\n Classtype = None\n Name = None -->
<g id="node18" class="node"><title>Equation17\n Classtype = None\n Name = None</title>
<ellipse fill="lightblue" stroke="black" cx="379" cy="-540" rx="101.823" ry="43.8406"/>
<text text-anchor="middle" x="379" y="-554.4" font-family="Times Roman,serif" font-size="14.00">Equation17</text>
<text text-anchor="middle" x="379" y="-536.4" font-family="Times Roman,serif" font-size="14.00"> Classtype = None</text>
<text text-anchor="middle" x="379" y="-518.4" font-family="Times Roman,serif" font-size="14.00"> Name = None</text>
</g>
<!-- Equation17\n Classtype = None\n Name = None&#45;&gt;leftExpr11\n Classtype = None\n Name = None -->
<g id="edge14" class="edge"><title>Equation17\n Classtype = None\n Name = None&#45;&gt;leftExpr11\n Classtype = None\n Name = None</title>
<path fill="none" stroke="black" d="M415.961,-498.71C425.697,-487.834 436.293,-475.997 446.345,-464.768"/>
<polygon fill="black" stroke="black" points="449.138,-466.895 453.2,-457.11 443.922,-462.226 449.138,-466.895"/>
</g>
<!-- rightExpr23\n Classtype = None\n Name = None -->
<g id="node24" class="node"><title>rightExpr23\n Classtype = None\n Name = None</title>
<ellipse fill="lightblue" stroke="black" cx="268" cy="-416" rx="101.823" ry="43.8406"/>
<text text-anchor="middle" x="268" y="-430.4" font-family="Times Roman,serif" font-size="14.00">rightExpr23</text>
<text text-anchor="middle" x="268" y="-412.4" font-family="Times Roman,serif" font-size="14.00"> Classtype = None</text>
<text text-anchor="middle" x="268" y="-394.4" font-family="Times Roman,serif" font-size="14.00"> Name = None</text>
</g>
<!-- Equation17\n Classtype = None\n Name = None&#45;&gt;rightExpr23\n Classtype = None\n Name = None -->
<g id="edge50" class="edge"><title>Equation17\n Classtype = None\n Name = None&#45;&gt;rightExpr23\n Classtype = None\n Name = None</title>
<path fill="none" stroke="black" d="M342.039,-498.71C332.303,-487.834 321.707,-475.997 311.655,-464.768"/>
<polygon fill="black" stroke="black" points="314.078,-462.226 304.8,-457.11 308.862,-466.895 314.078,-462.226"/>
</g>
<!-- Equation18\n Classtype = None\n Name = None -->
<g id="node19" class="node"><title>Equation18\n Classtype = None\n Name = None</title>
<ellipse fill="lightblue" stroke="black" cx="102" cy="-292" rx="101.823" ry="43.8406"/>
<text text-anchor="middle" x="102" y="-306.4" font-family="Times Roman,serif" font-size="14.00">Equation18</text>
<text text-anchor="middle" x="102" y="-288.4" font-family="Times Roman,serif" font-size="14.00"> Classtype = None</text>
<text text-anchor="middle" x="102" y="-270.4" font-family="Times Roman,serif" font-size="14.00"> Name = None</text>
</g>
<!-- Equation18\n Classtype = None\n Name = None&#45;&gt;leftExpr12\n Classtype = None\n Name = None -->
<g id="edge18" class="edge"><title>Equation18\n Classtype = None\n Name = None&#45;&gt;leftExpr12\n Classtype = None\n Name = None</title>
<path fill="none" stroke="black" d="M176.018,-261.507C219.49,-243.599 274.556,-220.914 319.563,-202.373"/>
<polygon fill="black" stroke="black" points="321.094,-205.527 329.007,-198.482 318.428,-199.055 321.094,-205.527"/>
</g>
<!-- rightExpr24\n Classtype = None\n Name = None -->
<g id="node25" class="node"><title>rightExpr24\n Classtype = None\n Name = None</title>
<ellipse fill="lightblue" stroke="black" cx="102" cy="-168" rx="101.823" ry="43.8406"/>
<text text-anchor="middle" x="102" y="-182.4" font-family="Times Roman,serif" font-size="14.00">rightExpr24</text>
<text text-anchor="middle" x="102" y="-164.4" font-family="Times Roman,serif" font-size="14.00"> Classtype = None</text>
<text text-anchor="middle" x="102" y="-146.4" font-family="Times Roman,serif" font-size="14.00"> Name = None</text>
</g>
<!-- Equation18\n Classtype = None\n Name = None&#45;&gt;rightExpr24\n Classtype = None\n Name = None -->
<g id="edge52" class="edge"><title>Equation18\n Classtype = None\n Name = None&#45;&gt;rightExpr24\n Classtype = None\n Name = None</title>
<path fill="none" stroke="black" d="M102,-247.933C102,-239.718 102,-231.043 102,-222.557"/>
<polygon fill="black" stroke="black" points="105.5,-222.343 102,-212.343 98.5001,-222.343 105.5,-222.343"/>
</g>
<!-- match_contains19&#45;&gt;Station_S5\n Classtype = 1\n Name = s_ -->
<g id="edge46" class="edge"><title>match_contains19&#45;&gt;Station_S5\n Classtype = 1\n Name = s_</title>
<path fill="none" stroke="black" d="M762.844,-892.348C759.481,-838.112 749.615,-678.956 744.369,-594.342"/>
<polygon fill="black" stroke="black" points="747.85,-593.921 743.737,-584.157 740.863,-594.354 747.85,-593.921"/>
</g>
<!-- match_contains20&#45;&gt;Female_S7\n Classtype = 1\n Name = s_ -->
<g id="edge48" class="edge"><title>match_contains20&#45;&gt;Female_S7\n Classtype = 1\n Name = s_</title>
<path fill="none" stroke="black" d="M1233.56,-818.453C1236.38,-783.417 1242,-705.084 1242,-639 1242,-639 1242,-639 1242,-540 1242,-464.857 1268.76,-431.599 1223,-372 1195.49,-336.175 1149.62,-316.372 1108.33,-305.436"/>
<polygon fill="black" stroke="black" points="1109.05,-302.009 1098.5,-302.973 1107.35,-308.799 1109.05,-302.009"/>
</g>
<!-- Constant21\n Classtype = None\n Name = None -->
<g id="node22" class="node"><title>Constant21\n Classtype = None\n Name = None</title>
<ellipse fill="lightblue" stroke="black" cx="324" cy="-292" rx="101.823" ry="43.8406"/>
<text text-anchor="middle" x="324" y="-306.4" font-family="Times Roman,serif" font-size="14.00">Constant21</text>
<text text-anchor="middle" x="324" y="-288.4" font-family="Times Roman,serif" font-size="14.00"> Classtype = None</text>
<text text-anchor="middle" x="324" y="-270.4" font-family="Times Roman,serif" font-size="14.00"> Name = None</text>
</g>
<!-- Constant22\n Classtype = None\n Name = None -->
<g id="node23" class="node"><title>Constant22\n Classtype = None\n Name = None</title>
<ellipse fill="lightblue" stroke="black" cx="102" cy="-44" rx="101.823" ry="43.8406"/>
<text text-anchor="middle" x="102" y="-58.4" font-family="Times Roman,serif" font-size="14.00">Constant22</text>
<text text-anchor="middle" x="102" y="-40.4" font-family="Times Roman,serif" font-size="14.00"> Classtype = None</text>
<text text-anchor="middle" x="102" y="-22.4" font-family="Times Roman,serif" font-size="14.00"> Name = None</text>
</g>
<!-- rightExpr23\n Classtype = None\n Name = None&#45;&gt;Constant21\n Classtype = None\n Name = None -->
<g id="edge58" class="edge"><title>rightExpr23\n Classtype = None\n Name = None&#45;&gt;Constant21\n Classtype = None\n Name = None</title>
<path fill="none" stroke="black" d="M287.586,-372.631C291.655,-363.621 295.985,-354.034 300.186,-344.73"/>
<polygon fill="black" stroke="black" points="303.404,-346.109 304.33,-335.554 297.025,-343.227 303.404,-346.109"/>
</g>
<!-- rightExpr24\n Classtype = None\n Name = None&#45;&gt;Constant22\n Classtype = None\n Name = None -->
<g id="edge60" class="edge"><title>rightExpr24\n Classtype = None\n Name = None&#45;&gt;Constant22\n Classtype = None\n Name = None</title>
<path fill="none" stroke="black" d="M102,-123.933C102,-115.718 102,-107.043 102,-98.5568"/>
<polygon fill="black" stroke="black" points="105.5,-98.3428 102,-88.3428 98.5001,-98.3428 105.5,-98.3428"/>
</g>
</g>
</svg>
