<?xml version="1.0" encoding="UTF-8" standalone="no"?>
<!DOCTYPE svg PUBLIC "-//W3C//DTD SVG 1.1//EN"
 "http://www.w3.org/Graphics/SVG/1.1/DTD/svg11.dtd">
<!-- Generated by graphviz version 2.26.3 (20100126.1600)
 -->
<!-- Title: rule_SM2SM Pages: 1 -->
<svg width="599pt" height="788pt"
 viewBox="0.00 0.00 599.00 788.00" xmlns="http://www.w3.org/2000/svg" xmlns:xlink="http://www.w3.org/1999/xlink">
<g id="graph1" class="graph" transform="scale(1 1) rotate(0) translate(4 784)">
<title>rule_SM2SM</title>
<polygon fill="white" stroke="white" points="-4,5 -4,-784 596,-784 596,5 -4,5"/>
<!-- directLink_T0\n -->
<g id="node1" class="node"><title>directLink_T0\n</title>
<ellipse fill="lightyellow" stroke="black" cx="359" cy="-341" rx="77.7817" ry="18.3848"/>
<text text-anchor="middle" x="359" y="-337.4" font-family="Times Roman,serif" font-size="14.00">directLink_T0</text>
</g>
<!-- Male_T6\n Classtype = t_\n Name = s_ -->
<g id="node7" class="node"><title>Male_T6\n Classtype = t_\n Name = s_</title>
<ellipse fill="lightblue" stroke="black" cx="377" cy="-242" rx="85.7684" ry="43.8406"/>
<text text-anchor="middle" x="377" y="-256.4" font-family="Times Roman,serif" font-size="14.00">Male_T6</text>
<text text-anchor="middle" x="377" y="-238.4" font-family="Times Roman,serif" font-size="14.00"> Classtype = t_</text>
<text text-anchor="middle" x="377" y="-220.4" font-family="Times Roman,serif" font-size="14.00"> Name = s_</text>
</g>
<!-- directLink_T0\n&#45;&gt;Male_T6\n Classtype = t_\n Name = s_ -->
<g id="edge12" class="edge"><title>directLink_T0\n&#45;&gt;Male_T6\n Classtype = t_\n Name = s_</title>
<path fill="none" stroke="black" d="M362.386,-322.379C363.776,-314.73 365.465,-305.443 367.193,-295.936"/>
<polygon fill="black" stroke="black" points="370.653,-296.473 368.998,-286.008 363.766,-295.221 370.653,-296.473"/>
</g>
<!-- paired_with1 -->
<g id="node2" class="node"><title>paired_with1</title>
<ellipse fill="lightgray" stroke="black" cx="321" cy="-687" rx="75.1594" ry="18.3848"/>
<text text-anchor="middle" x="321" y="-683.4" font-family="Times Roman,serif" font-size="14.00">paired_with1</text>
</g>
<!-- ApplyModel2 -->
<g id="node3" class="node"><title>ApplyModel2</title>
<ellipse fill="#fed017" stroke="black" cx="321" cy="-613" rx="73.0388" ry="18.3848"/>
<text text-anchor="middle" x="321" y="-609.4" font-family="Times Roman,serif" font-size="14.00">ApplyModel2</text>
</g>
<!-- paired_with1&#45;&gt;ApplyModel2 -->
<g id="edge16" class="edge"><title>paired_with1&#45;&gt;ApplyModel2</title>
<path fill="none" stroke="black" d="M321,-668.327C321,-660.264 321,-650.648 321,-641.711"/>
<polygon fill="black" stroke="black" points="324.5,-641.667 321,-631.667 317.5,-641.667 324.5,-641.667"/>
</g>
<!-- apply_contains9 -->
<g id="node10" class="node"><title>apply_contains9</title>
<ellipse fill="#fcdb58" stroke="black" cx="207" cy="-539" rx="90.0096" ry="18.3848"/>
<text text-anchor="middle" x="207" y="-535.4" font-family="Times Roman,serif" font-size="14.00">apply_contains9</text>
</g>
<!-- ApplyModel2&#45;&gt;apply_contains9 -->
<g id="edge2" class="edge"><title>ApplyModel2&#45;&gt;apply_contains9</title>
<path fill="none" stroke="black" d="M294.272,-595.65C278.917,-585.683 259.432,-573.035 242.771,-562.22"/>
<polygon fill="black" stroke="black" points="244.646,-559.264 234.352,-556.755 240.834,-565.135 244.646,-559.264"/>
</g>
<!-- apply_contains10 -->
<g id="node11" class="node"><title>apply_contains10</title>
<ellipse fill="#fcdb58" stroke="black" cx="378" cy="-440" rx="96.8736" ry="18.3848"/>
<text text-anchor="middle" x="378" y="-436.4" font-family="Times Roman,serif" font-size="14.00">apply_contains10</text>
</g>
<!-- ApplyModel2&#45;&gt;apply_contains10 -->
<g id="edge6" class="edge"><title>ApplyModel2&#45;&gt;apply_contains10</title>
<path fill="none" stroke="black" d="M327.1,-594.486C337.059,-564.259 356.876,-504.112 368.63,-468.439"/>
<polygon fill="black" stroke="black" points="372.053,-469.235 371.858,-458.642 365.404,-467.045 372.053,-469.235"/>
</g>
<!-- indirectLink_S3 -->
<g id="node4" class="node"><title>indirectLink_S3</title>
<ellipse fill="lightgreen" stroke="black" cx="171" cy="-143" rx="86.9741" ry="18.3848"/>
<text text-anchor="middle" x="171" y="-139.4" font-family="Times Roman,serif" font-size="14.00">indirectLink_S3</text>
</g>
<!-- Male_S8\n Classtype = 1\n Name = s_ -->
<g id="node9" class="node"><title>Male_S8\n Classtype = 1\n Name = s_</title>
<ellipse fill="lightblue" stroke="black" cx="377" cy="-44" rx="82.2301" ry="43.8406"/>
<text text-anchor="middle" x="377" y="-58.4" font-family="Times Roman,serif" font-size="14.00">Male_S8</text>
<text text-anchor="middle" x="377" y="-40.4" font-family="Times Roman,serif" font-size="14.00"> Classtype = 1</text>
<text text-anchor="middle" x="377" y="-22.4" font-family="Times Roman,serif" font-size="14.00"> Name = s_</text>
</g>
<!-- indirectLink_S3&#45;&gt;Male_S8\n Classtype = 1\n Name = s_ -->
<g id="edge28" class="edge"><title>indirectLink_S3&#45;&gt;Male_S8\n Classtype = 1\n Name = s_</title>
<path fill="none" stroke="black" d="M206.413,-125.981C233.857,-112.792 272.763,-94.0946 306.49,-77.8857"/>
<polygon fill="black" stroke="black" points="308.355,-80.8729 315.852,-73.3866 305.323,-74.5636 308.355,-80.8729"/>
</g>
<!-- Station_S4\n Classtype = 1\n Name = s_ -->
<g id="node5" class="node"><title>Station_S4\n Classtype = 1\n Name = s_</title>
<ellipse fill="lightblue" stroke="black" cx="168" cy="-242" rx="82.2301" ry="43.8406"/>
<text text-anchor="middle" x="168" y="-256.4" font-family="Times Roman,serif" font-size="14.00">Station_S4</text>
<text text-anchor="middle" x="168" y="-238.4" font-family="Times Roman,serif" font-size="14.00"> Classtype = 1</text>
<text text-anchor="middle" x="168" y="-220.4" font-family="Times Roman,serif" font-size="14.00"> Name = s_</text>
</g>
<!-- Station_S4\n Classtype = 1\n Name = s_&#45;&gt;indirectLink_S3 -->
<g id="edge26" class="edge"><title>Station_S4\n Classtype = 1\n Name = s_&#45;&gt;indirectLink_S3</title>
<path fill="none" stroke="black" d="M169.333,-198.001C169.603,-189.096 169.88,-179.95 170.129,-171.737"/>
<polygon fill="black" stroke="black" points="173.633,-171.675 170.437,-161.574 166.636,-171.463 173.633,-171.675"/>
</g>
<!-- Station_T5\n Classtype = t_\n Name = s_ -->
<g id="node6" class="node"><title>Station_T5\n Classtype = t_\n Name = s_</title>
<ellipse fill="lightblue" stroke="black" cx="177" cy="-440" rx="85.7684" ry="43.8406"/>
<text text-anchor="middle" x="177" y="-454.4" font-family="Times Roman,serif" font-size="14.00">Station_T5</text>
<text text-anchor="middle" x="177" y="-436.4" font-family="Times Roman,serif" font-size="14.00"> Classtype = t_</text>
<text text-anchor="middle" x="177" y="-418.4" font-family="Times Roman,serif" font-size="14.00"> Name = s_</text>
</g>
<!-- Station_T5\n Classtype = t_\n Name = s_&#45;&gt;directLink_T0\n -->
<g id="edge10" class="edge"><title>Station_T5\n Classtype = t_\n Name = s_&#45;&gt;directLink_T0\n</title>
<path fill="none" stroke="black" d="M236.09,-407.858C263.149,-393.139 294.518,-376.076 318.792,-362.871"/>
<polygon fill="black" stroke="black" points="320.612,-365.866 327.724,-358.013 317.267,-359.716 320.612,-365.866"/>
</g>
<!-- backward_link11 -->
<g id="node12" class="node"><title>backward_link11</title>
<ellipse fill="coral" stroke="black" cx="168" cy="-341" rx="94.7523" ry="18.3848"/>
<text text-anchor="middle" x="168" y="-337.4" font-family="Times Roman,serif" font-size="14.00">backward_link11</text>
</g>
<!-- Station_T5\n Classtype = t_\n Name = s_&#45;&gt;backward_link11 -->
<g id="edge18" class="edge"><title>Station_T5\n Classtype = t_\n Name = s_&#45;&gt;backward_link11</title>
<path fill="none" stroke="black" d="M173,-396.001C172.191,-387.096 171.359,-377.95 170.612,-369.737"/>
<polygon fill="black" stroke="black" points="174.08,-369.216 169.689,-359.574 167.108,-369.85 174.08,-369.216"/>
</g>
<!-- backward_link12 -->
<g id="node13" class="node"><title>backward_link12</title>
<ellipse fill="coral" stroke="black" cx="377" cy="-143" rx="94.7523" ry="18.3848"/>
<text text-anchor="middle" x="377" y="-139.4" font-family="Times Roman,serif" font-size="14.00">backward_link12</text>
</g>
<!-- Male_T6\n Classtype = t_\n Name = s_&#45;&gt;backward_link12 -->
<g id="edge22" class="edge"><title>Male_T6\n Classtype = t_\n Name = s_&#45;&gt;backward_link12</title>
<path fill="none" stroke="black" d="M377,-197.712C377,-188.978 377,-180.024 377,-171.956"/>
<polygon fill="black" stroke="black" points="380.5,-171.953 377,-161.953 373.5,-171.953 380.5,-171.953"/>
</g>
<!-- MatchModel7 -->
<g id="node8" class="node"><title>MatchModel7</title>
<ellipse fill="#e15c34" stroke="black" cx="321" cy="-761" rx="75.8684" ry="18.3848"/>
<text text-anchor="middle" x="321" y="-757.4" font-family="Times Roman,serif" font-size="14.00">MatchModel7</text>
</g>
<!-- MatchModel7&#45;&gt;paired_with1 -->
<g id="edge14" class="edge"><title>MatchModel7&#45;&gt;paired_with1</title>
<path fill="none" stroke="black" d="M321,-742.327C321,-734.264 321,-724.648 321,-715.711"/>
<polygon fill="black" stroke="black" points="324.5,-715.667 321,-705.667 317.5,-715.667 324.5,-715.667"/>
</g>
<!-- match_contains13 -->
<g id="node14" class="node"><title>match_contains13</title>
<ellipse fill="#f798a1" stroke="black" cx="101" cy="-613" rx="101.116" ry="18.3848"/>
<text text-anchor="middle" x="101" y="-609.4" font-family="Times Roman,serif" font-size="14.00">match_contains13</text>
</g>
<!-- MatchModel7&#45;&gt;match_contains13 -->
<g id="edge32" class="edge"><title>MatchModel7&#45;&gt;match_contains13</title>
<path fill="none" stroke="black" d="M294.05,-743.55C277.529,-732.804 255.978,-718.7 237,-706 202.25,-682.746 162.842,-655.725 135.426,-636.822"/>
<polygon fill="black" stroke="black" points="137.185,-633.783 126.967,-630.985 133.209,-639.545 137.185,-633.783"/>
</g>
<!-- match_contains14 -->
<g id="node15" class="node"><title>match_contains14</title>
<ellipse fill="#f798a1" stroke="black" cx="490" cy="-539" rx="101.116" ry="18.3848"/>
<text text-anchor="middle" x="490" y="-535.4" font-family="Times Roman,serif" font-size="14.00">match_contains14</text>
</g>
<!-- MatchModel7&#45;&gt;match_contains14 -->
<g id="edge34" class="edge"><title>MatchModel7&#45;&gt;match_contains14</title>
<path fill="none" stroke="black" d="M354.695,-744.348C371.384,-734.85 390.92,-721.704 405,-706 442.458,-664.223 468.025,-602.936 480.721,-567.39"/>
<polygon fill="black" stroke="black" points="484.126,-568.255 484.104,-557.66 477.515,-565.956 484.126,-568.255"/>
</g>
<!-- apply_contains9&#45;&gt;Station_T5\n Classtype = t_\n Name = s_ -->
<g id="edge4" class="edge"><title>apply_contains9&#45;&gt;Station_T5\n Classtype = t_\n Name = s_</title>
<path fill="none" stroke="black" d="M201.357,-520.379C198.989,-512.565 196.104,-503.043 193.158,-493.322"/>
<polygon fill="black" stroke="black" points="196.459,-492.147 190.21,-483.592 189.76,-494.177 196.459,-492.147"/>
</g>
<!-- apply_contains10&#45;&gt;Male_T6\n Classtype = t_\n Name = s_ -->
<g id="edge8" class="edge"><title>apply_contains10&#45;&gt;Male_T6\n Classtype = t_\n Name = s_</title>
<path fill="none" stroke="black" d="M400.123,-421.914C416.277,-407.179 436.881,-384.808 446,-360 451.827,-344.148 451.884,-337.831 446,-322 441.563,-310.062 434.457,-298.715 426.455,-288.516"/>
<polygon fill="black" stroke="black" points="428.96,-286.053 419.88,-280.593 423.573,-290.523 428.96,-286.053"/>
</g>
<!-- backward_link11&#45;&gt;Station_S4\n Classtype = 1\n Name = s_ -->
<g id="edge20" class="edge"><title>backward_link11&#45;&gt;Station_S4\n Classtype = 1\n Name = s_</title>
<path fill="none" stroke="black" d="M168,-322.379C168,-314.81 168,-305.638 168,-296.236"/>
<polygon fill="black" stroke="black" points="171.5,-296.008 168,-286.008 164.5,-296.008 171.5,-296.008"/>
</g>
<!-- backward_link12&#45;&gt;Male_S8\n Classtype = 1\n Name = s_ -->
<g id="edge24" class="edge"><title>backward_link12&#45;&gt;Male_S8\n Classtype = 1\n Name = s_</title>
<path fill="none" stroke="black" d="M377,-124.379C377,-116.81 377,-107.638 377,-98.236"/>
<polygon fill="black" stroke="black" points="380.5,-98.0084 377,-88.0084 373.5,-98.0084 380.5,-98.0084"/>
</g>
<!-- match_contains13&#45;&gt;Station_S4\n Classtype = 1\n Name = s_ -->
<g id="edge30" class="edge"><title>match_contains13&#45;&gt;Station_S4\n Classtype = 1\n Name = s_</title>
<path fill="none" stroke="black" d="M91.8514,-594.457C69.6022,-546.558 17.768,-415.891 64,-322 72.3207,-305.102 86.1164,-290.773 100.982,-279.118"/>
<polygon fill="black" stroke="black" points="103.385,-281.693 109.323,-272.918 99.2092,-276.075 103.385,-281.693"/>
</g>
<!-- match_contains14&#45;&gt;Male_S8\n Classtype = 1\n Name = s_ -->
<g id="edge36" class="edge"><title>match_contains14&#45;&gt;Male_S8\n Classtype = 1\n Name = s_</title>
<path fill="none" stroke="black" d="M492.031,-520.464C495.688,-485.446 503,-407.142 503,-341 503,-341 503,-341 503,-242 503,-188.652 508.871,-169.489 481,-124 471.159,-107.939 456.826,-93.9074 441.928,-82.2695"/>
<polygon fill="black" stroke="black" points="443.722,-79.2407 433.619,-76.0525 439.529,-84.8457 443.722,-79.2407"/>
</g>
</g>
</svg>
