<?xml version="1.0" encoding="UTF-8" standalone="no"?>
<!DOCTYPE svg PUBLIC "-//W3C//DTD SVG 1.1//EN"
 "http://www.w3.org/Graphics/SVG/1.1/DTD/svg11.dtd">
<!-- Generated by graphviz version 2.26.3 (20100126.1600)
 -->
<!-- Title: rule_SM2SM_run1 Pages: 1 -->
<svg width="627pt" height="788pt"
 viewBox="0.00 0.00 627.00 788.00" xmlns="http://www.w3.org/2000/svg" xmlns:xlink="http://www.w3.org/1999/xlink">
<g id="graph1" class="graph" transform="scale(1 1) rotate(0) translate(4 784)">
<title>rule_SM2SM_run1</title>
<polygon fill="white" stroke="white" points="-4,5 -4,-784 624,-784 624,5 -4,5"/>
<!-- directLink_T0\n -->
<g id="node1" class="node"><title>directLink_T0\n</title>
<ellipse fill="lightyellow" stroke="black" cx="346" cy="-341" rx="77.7817" ry="18.3848"/>
<text text-anchor="middle" x="346" y="-337.4" font-family="Times Roman,serif" font-size="14.00">directLink_T0</text>
</g>
<!-- Male_T7\n Classtype = male1\n Name = 4.m -->
<g id="node8" class="node"><title>Male_T7\n Classtype = male1\n Name = 4.m</title>
<ellipse fill="lightblue" stroke="black" cx="397" cy="-242" rx="106.066" ry="43.8406"/>
<text text-anchor="middle" x="397" y="-256.4" font-family="Times Roman,serif" font-size="14.00">Male_T7</text>
<text text-anchor="middle" x="397" y="-238.4" font-family="Times Roman,serif" font-size="14.00"> Classtype = male1</text>
<text text-anchor="middle" x="397" y="-220.4" font-family="Times Roman,serif" font-size="14.00"> Name = 4.m</text>
</g>
<!-- directLink_T0\n&#45;&gt;Male_T7\n Classtype = male1\n Name = 4.m -->
<g id="edge20" class="edge"><title>directLink_T0\n&#45;&gt;Male_T7\n Classtype = male1\n Name = 4.m</title>
<path fill="none" stroke="black" d="M355.593,-322.379C359.788,-314.234 364.941,-304.233 370.168,-294.086"/>
<polygon fill="black" stroke="black" points="373.29,-295.668 374.758,-285.175 367.067,-292.462 373.29,-295.668"/>
</g>
<!-- ApplyModel1 -->
<g id="node2" class="node"><title>ApplyModel1</title>
<ellipse fill="#fed017" stroke="black" cx="327" cy="-613" rx="73.0388" ry="18.3848"/>
<text text-anchor="middle" x="327" y="-609.4" font-family="Times Roman,serif" font-size="14.00">ApplyModel1</text>
</g>
<!-- apply_contains9 -->
<g id="node10" class="node"><title>apply_contains9</title>
<ellipse fill="#fcdb58" stroke="black" cx="190" cy="-539" rx="90.0096" ry="18.3848"/>
<text text-anchor="middle" x="190" y="-535.4" font-family="Times Roman,serif" font-size="14.00">apply_contains9</text>
</g>
<!-- ApplyModel1&#45;&gt;apply_contains9 -->
<g id="edge2" class="edge"><title>ApplyModel1&#45;&gt;apply_contains9</title>
<path fill="none" stroke="black" d="M295.913,-596.208C276.795,-585.882 252.068,-572.526 231.315,-561.316"/>
<polygon fill="black" stroke="black" points="232.856,-558.17 222.394,-556.497 229.529,-564.329 232.856,-558.17"/>
</g>
<!-- apply_contains10 -->
<g id="node11" class="node"><title>apply_contains10</title>
<ellipse fill="#fcdb58" stroke="black" cx="407" cy="-440" rx="96.8736" ry="18.3848"/>
<text text-anchor="middle" x="407" y="-436.4" font-family="Times Roman,serif" font-size="14.00">apply_contains10</text>
</g>
<!-- ApplyModel1&#45;&gt;apply_contains10 -->
<g id="edge6" class="edge"><title>ApplyModel1&#45;&gt;apply_contains10</title>
<path fill="none" stroke="black" d="M335.561,-594.486C349.599,-564.13 377.592,-503.595 394.061,-467.981"/>
<polygon fill="black" stroke="black" points="397.359,-469.188 398.379,-458.642 391.005,-466.25 397.359,-469.188"/>
</g>
<!-- MatchModel2 -->
<g id="node3" class="node"><title>MatchModel2</title>
<ellipse fill="#e15c34" stroke="black" cx="327" cy="-761" rx="75.8684" ry="18.3848"/>
<text text-anchor="middle" x="327" y="-757.4" font-family="Times Roman,serif" font-size="14.00">MatchModel2</text>
</g>
<!-- paired_with8 -->
<g id="node9" class="node"><title>paired_with8</title>
<ellipse fill="lightgray" stroke="black" cx="327" cy="-687" rx="75.1594" ry="18.3848"/>
<text text-anchor="middle" x="327" y="-683.4" font-family="Times Roman,serif" font-size="14.00">paired_with8</text>
</g>
<!-- MatchModel2&#45;&gt;paired_with8 -->
<g id="edge24" class="edge"><title>MatchModel2&#45;&gt;paired_with8</title>
<path fill="none" stroke="black" d="M327,-742.327C327,-734.264 327,-724.648 327,-715.711"/>
<polygon fill="black" stroke="black" points="330.5,-715.667 327,-705.667 323.5,-715.667 330.5,-715.667"/>
</g>
<!-- match_contains13 -->
<g id="node14" class="node"><title>match_contains13</title>
<ellipse fill="#f798a1" stroke="black" cx="101" cy="-613" rx="101.116" ry="18.3848"/>
<text text-anchor="middle" x="101" y="-609.4" font-family="Times Roman,serif" font-size="14.00">match_contains13</text>
</g>
<!-- MatchModel2&#45;&gt;match_contains13 -->
<g id="edge26" class="edge"><title>MatchModel2&#45;&gt;match_contains13</title>
<path fill="none" stroke="black" d="M300.187,-743.441C259.545,-716.826 182.28,-666.228 136.851,-636.478"/>
<polygon fill="black" stroke="black" points="138.766,-633.548 128.483,-630.997 134.931,-639.404 138.766,-633.548"/>
</g>
<!-- match_contains14 -->
<g id="node15" class="node"><title>match_contains14</title>
<ellipse fill="#f798a1" stroke="black" cx="518" cy="-539" rx="101.116" ry="18.3848"/>
<text text-anchor="middle" x="518" y="-535.4" font-family="Times Roman,serif" font-size="14.00">match_contains14</text>
</g>
<!-- MatchModel2&#45;&gt;match_contains14 -->
<g id="edge28" class="edge"><title>MatchModel2&#45;&gt;match_contains14</title>
<path fill="none" stroke="black" d="M359.244,-744.226C375.934,-734.527 395.914,-721.236 411,-706 452.966,-663.617 487.128,-602.133 504.834,-566.8"/>
<polygon fill="black" stroke="black" points="508.104,-568.083 509.385,-557.566 501.825,-564.989 508.104,-568.083"/>
</g>
<!-- indirectLink_S3 -->
<g id="node4" class="node"><title>indirectLink_S3</title>
<ellipse fill="lightgreen" stroke="black" cx="176" cy="-143" rx="86.9741" ry="18.3848"/>
<text text-anchor="middle" x="176" y="-139.4" font-family="Times Roman,serif" font-size="14.00">indirectLink_S3</text>
</g>
<!-- Male_S4\n Classtype = male1\n Name = 4.m -->
<g id="node5" class="node"><title>Male_S4\n Classtype = male1\n Name = 4.m</title>
<ellipse fill="lightblue" stroke="black" cx="397" cy="-44" rx="106.066" ry="43.8406"/>
<text text-anchor="middle" x="397" y="-58.4" font-family="Times Roman,serif" font-size="14.00">Male_S4</text>
<text text-anchor="middle" x="397" y="-40.4" font-family="Times Roman,serif" font-size="14.00"> Classtype = male1</text>
<text text-anchor="middle" x="397" y="-22.4" font-family="Times Roman,serif" font-size="14.00"> Name = 4.m</text>
</g>
<!-- indirectLink_S3&#45;&gt;Male_S4\n Classtype = male1\n Name = 4.m -->
<g id="edge32" class="edge"><title>indirectLink_S3&#45;&gt;Male_S4\n Classtype = male1\n Name = 4.m</title>
<path fill="none" stroke="black" d="M213.49,-126.206C241.412,-113.698 280.593,-96.1462 315.584,-80.4712"/>
<polygon fill="black" stroke="black" points="317.158,-83.6013 324.854,-76.3189 314.297,-77.213 317.158,-83.6013"/>
</g>
<!-- Station_T5\n Classtype = station1\n Name = 4.s -->
<g id="node6" class="node"><title>Station_T5\n Classtype = station1\n Name = 4.s</title>
<ellipse fill="lightblue" stroke="black" cx="176" cy="-440" rx="116.172" ry="43.8406"/>
<text text-anchor="middle" x="176" y="-454.4" font-family="Times Roman,serif" font-size="14.00">Station_T5</text>
<text text-anchor="middle" x="176" y="-436.4" font-family="Times Roman,serif" font-size="14.00"> Classtype = station1</text>
<text text-anchor="middle" x="176" y="-418.4" font-family="Times Roman,serif" font-size="14.00"> Name = 4.s</text>
</g>
<!-- Station_T5\n Classtype = station1\n Name = 4.s&#45;&gt;directLink_T0\n -->
<g id="edge18" class="edge"><title>Station_T5\n Classtype = station1\n Name = 4.s&#45;&gt;directLink_T0\n</title>
<path fill="none" stroke="black" d="M239.785,-402.854C262.499,-389.627 287.371,-375.143 307.333,-363.518"/>
<polygon fill="black" stroke="black" points="309.254,-366.449 316.134,-358.392 305.732,-360.4 309.254,-366.449"/>
</g>
<!-- backward_link11 -->
<g id="node12" class="node"><title>backward_link11</title>
<ellipse fill="coral" stroke="black" cx="155" cy="-341" rx="94.7523" ry="18.3848"/>
<text text-anchor="middle" x="155" y="-337.4" font-family="Times Roman,serif" font-size="14.00">backward_link11</text>
</g>
<!-- Station_T5\n Classtype = station1\n Name = 4.s&#45;&gt;backward_link11 -->
<g id="edge10" class="edge"><title>Station_T5\n Classtype = station1\n Name = 4.s&#45;&gt;backward_link11</title>
<path fill="none" stroke="black" d="M166.667,-396.001C164.757,-386.996 162.794,-377.745 161.037,-369.46"/>
<polygon fill="black" stroke="black" points="164.439,-368.63 158.94,-359.574 157.591,-370.083 164.439,-368.63"/>
</g>
<!-- Station_S6\n Classtype = station1\n Name = 4.s -->
<g id="node7" class="node"><title>Station_S6\n Classtype = station1\n Name = 4.s</title>
<ellipse fill="lightblue" stroke="black" cx="155" cy="-242" rx="116.172" ry="43.8406"/>
<text text-anchor="middle" x="155" y="-256.4" font-family="Times Roman,serif" font-size="14.00">Station_S6</text>
<text text-anchor="middle" x="155" y="-238.4" font-family="Times Roman,serif" font-size="14.00"> Classtype = station1</text>
<text text-anchor="middle" x="155" y="-220.4" font-family="Times Roman,serif" font-size="14.00"> Name = 4.s</text>
</g>
<!-- Station_S6\n Classtype = station1\n Name = 4.s&#45;&gt;indirectLink_S3 -->
<g id="edge30" class="edge"><title>Station_S6\n Classtype = station1\n Name = 4.s&#45;&gt;indirectLink_S3</title>
<path fill="none" stroke="black" d="M164.333,-198.001C166.243,-188.996 168.206,-179.745 169.963,-171.46"/>
<polygon fill="black" stroke="black" points="173.409,-172.083 172.06,-161.574 166.561,-170.63 173.409,-172.083"/>
</g>
<!-- backward_link12 -->
<g id="node13" class="node"><title>backward_link12</title>
<ellipse fill="coral" stroke="black" cx="397" cy="-143" rx="94.7523" ry="18.3848"/>
<text text-anchor="middle" x="397" y="-139.4" font-family="Times Roman,serif" font-size="14.00">backward_link12</text>
</g>
<!-- Male_T7\n Classtype = male1\n Name = 4.m&#45;&gt;backward_link12 -->
<g id="edge14" class="edge"><title>Male_T7\n Classtype = male1\n Name = 4.m&#45;&gt;backward_link12</title>
<path fill="none" stroke="black" d="M397,-197.712C397,-188.978 397,-180.024 397,-171.956"/>
<polygon fill="black" stroke="black" points="400.5,-171.953 397,-161.953 393.5,-171.953 400.5,-171.953"/>
</g>
<!-- paired_with8&#45;&gt;ApplyModel1 -->
<g id="edge22" class="edge"><title>paired_with8&#45;&gt;ApplyModel1</title>
<path fill="none" stroke="black" d="M327,-668.327C327,-660.264 327,-650.648 327,-641.711"/>
<polygon fill="black" stroke="black" points="330.5,-641.667 327,-631.667 323.5,-641.667 330.5,-641.667"/>
</g>
<!-- apply_contains9&#45;&gt;Station_T5\n Classtype = station1\n Name = 4.s -->
<g id="edge4" class="edge"><title>apply_contains9&#45;&gt;Station_T5\n Classtype = station1\n Name = 4.s</title>
<path fill="none" stroke="black" d="M187.367,-520.379C186.285,-512.73 184.972,-503.443 183.627,-493.936"/>
<polygon fill="black" stroke="black" points="187.089,-493.42 182.223,-484.008 180.158,-494.4 187.089,-493.42"/>
</g>
<!-- apply_contains10&#45;&gt;Male_T7\n Classtype = male1\n Name = 4.m -->
<g id="edge8" class="edge"><title>apply_contains10&#45;&gt;Male_T7\n Classtype = male1\n Name = 4.m</title>
<path fill="none" stroke="black" d="M416.185,-421.212C426.398,-397.94 440.528,-357.073 433,-322 431.052,-312.923 427.991,-303.634 424.457,-294.747"/>
<polygon fill="black" stroke="black" points="427.579,-293.144 420.467,-285.291 421.13,-295.865 427.579,-293.144"/>
</g>
<!-- backward_link11&#45;&gt;Station_S6\n Classtype = station1\n Name = 4.s -->
<g id="edge12" class="edge"><title>backward_link11&#45;&gt;Station_S6\n Classtype = station1\n Name = 4.s</title>
<path fill="none" stroke="black" d="M155,-322.379C155,-314.81 155,-305.638 155,-296.236"/>
<polygon fill="black" stroke="black" points="158.5,-296.008 155,-286.008 151.5,-296.008 158.5,-296.008"/>
</g>
<!-- backward_link12&#45;&gt;Male_S4\n Classtype = male1\n Name = 4.m -->
<g id="edge16" class="edge"><title>backward_link12&#45;&gt;Male_S4\n Classtype = male1\n Name = 4.m</title>
<path fill="none" stroke="black" d="M397,-124.379C397,-116.81 397,-107.638 397,-98.236"/>
<polygon fill="black" stroke="black" points="400.5,-98.0084 397,-88.0084 393.5,-98.0084 400.5,-98.0084"/>
</g>
<!-- match_contains13&#45;&gt;Station_S6\n Classtype = station1\n Name = 4.s -->
<g id="edge34" class="edge"><title>match_contains13&#45;&gt;Station_S6\n Classtype = station1\n Name = 4.s</title>
<path fill="none" stroke="black" d="M90.498,-594.529C64.8597,-546.801 4.46512,-416.506 51,-322 57.9752,-307.834 68.7979,-295.475 80.873,-284.981"/>
<polygon fill="black" stroke="black" points="83.4437,-287.4 88.9612,-278.355 79.0075,-281.985 83.4437,-287.4"/>
</g>
<!-- match_contains14&#45;&gt;Male_S4\n Classtype = male1\n Name = 4.m -->
<g id="edge36" class="edge"><title>match_contains14&#45;&gt;Male_S4\n Classtype = male1\n Name = 4.m</title>
<path fill="none" stroke="black" d="M520.188,-520.468C524.125,-485.457 532,-407.165 532,-341 532,-341 532,-341 532,-242 532,-187.776 530.988,-169.177 501,-124 491.627,-109.88 478.919,-97.2103 465.605,-86.3406"/>
<polygon fill="black" stroke="black" points="467.744,-83.5705 457.716,-80.1513 463.423,-89.0777 467.744,-83.5705"/>
</g>
</g>
</svg>
