<?xml version="1.0" encoding="UTF-8" standalone="no"?>
<!DOCTYPE svg PUBLIC "-//W3C//DTD SVG 1.1//EN"
 "http://www.w3.org/Graphics/SVG/1.1/DTD/svg11.dtd">
<!-- Generated by graphviz version 2.26.3 (20100126.1600)
 -->
<!-- Title: rule_MM2MM_run1 Pages: 1 -->
<svg width="603pt" height="788pt"
 viewBox="0.00 0.00 603.00 788.00" xmlns="http://www.w3.org/2000/svg" xmlns:xlink="http://www.w3.org/1999/xlink">
<g id="graph1" class="graph" transform="scale(1 1) rotate(0) translate(4 784)">
<title>rule_MM2MM_run1</title>
<polygon fill="white" stroke="white" points="-4,5 -4,-784 600,-784 600,5 -4,5"/>
<!-- directLink_T0\n -->
<g id="node1" class="node"><title>directLink_T0\n</title>
<ellipse fill="lightyellow" stroke="black" cx="332" cy="-341" rx="77.7817" ry="18.3848"/>
<text text-anchor="middle" x="332" y="-337.4" font-family="Times Roman,serif" font-size="14.00">directLink_T0</text>
</g>
<!-- Male_T14\n Classtype = male1\n Name = 6.m2 -->
<g id="node15" class="node"><title>Male_T14\n Classtype = male1\n Name = 6.m2</title>
<ellipse fill="lightblue" stroke="black" cx="371" cy="-242" rx="106.066" ry="43.8406"/>
<text text-anchor="middle" x="371" y="-256.4" font-family="Times Roman,serif" font-size="14.00">Male_T14</text>
<text text-anchor="middle" x="371" y="-238.4" font-family="Times Roman,serif" font-size="14.00"> Classtype = male1</text>
<text text-anchor="middle" x="371" y="-220.4" font-family="Times Roman,serif" font-size="14.00"> Name = 6.m2</text>
</g>
<!-- directLink_T0\n&#45;&gt;Male_T14\n Classtype = male1\n Name = 6.m2 -->
<g id="edge20" class="edge"><title>directLink_T0\n&#45;&gt;Male_T14\n Classtype = male1\n Name = 6.m2</title>
<path fill="none" stroke="black" d="M339.336,-322.379C342.446,-314.484 346.243,-304.844 350.114,-295.018"/>
<polygon fill="black" stroke="black" points="353.419,-296.179 353.828,-285.592 346.906,-293.613 353.419,-296.179"/>
</g>
<!-- ApplyModel1 -->
<g id="node2" class="node"><title>ApplyModel1</title>
<ellipse fill="#fed017" stroke="black" cx="312" cy="-613" rx="73.0388" ry="18.3848"/>
<text text-anchor="middle" x="312" y="-609.4" font-family="Times Roman,serif" font-size="14.00">ApplyModel1</text>
</g>
<!-- apply_contains5 -->
<g id="node6" class="node"><title>apply_contains5</title>
<ellipse fill="#fcdb58" stroke="black" cx="184" cy="-539" rx="90.0096" ry="18.3848"/>
<text text-anchor="middle" x="184" y="-535.4" font-family="Times Roman,serif" font-size="14.00">apply_contains5</text>
</g>
<!-- ApplyModel1&#45;&gt;apply_contains5 -->
<g id="edge2" class="edge"><title>ApplyModel1&#45;&gt;apply_contains5</title>
<path fill="none" stroke="black" d="M282.634,-596.023C265.048,-585.856 242.469,-572.803 223.353,-561.751"/>
<polygon fill="black" stroke="black" points="224.974,-558.645 214.565,-556.67 221.471,-564.706 224.974,-558.645"/>
</g>
<!-- apply_contains6 -->
<g id="node7" class="node"><title>apply_contains6</title>
<ellipse fill="#fcdb58" stroke="black" cx="387" cy="-440" rx="90.0096" ry="18.3848"/>
<text text-anchor="middle" x="387" y="-436.4" font-family="Times Roman,serif" font-size="14.00">apply_contains6</text>
</g>
<!-- ApplyModel1&#45;&gt;apply_contains6 -->
<g id="edge6" class="edge"><title>ApplyModel1&#45;&gt;apply_contains6</title>
<path fill="none" stroke="black" d="M320.026,-594.486C333.187,-564.13 359.43,-503.595 374.87,-467.981"/>
<polygon fill="black" stroke="black" points="378.152,-469.209 378.918,-458.642 371.729,-466.425 378.152,-469.209"/>
</g>
<!-- MatchModel2 -->
<g id="node3" class="node"><title>MatchModel2</title>
<ellipse fill="#e15c34" stroke="black" cx="312" cy="-761" rx="75.8684" ry="18.3848"/>
<text text-anchor="middle" x="312" y="-757.4" font-family="Times Roman,serif" font-size="14.00">MatchModel2</text>
</g>
<!-- paired_with4 -->
<g id="node5" class="node"><title>paired_with4</title>
<ellipse fill="lightgray" stroke="black" cx="312" cy="-687" rx="75.1594" ry="18.3848"/>
<text text-anchor="middle" x="312" y="-683.4" font-family="Times Roman,serif" font-size="14.00">paired_with4</text>
</g>
<!-- MatchModel2&#45;&gt;paired_with4 -->
<g id="edge24" class="edge"><title>MatchModel2&#45;&gt;paired_with4</title>
<path fill="none" stroke="black" d="M312,-742.327C312,-734.264 312,-724.648 312,-715.711"/>
<polygon fill="black" stroke="black" points="315.5,-715.667 312,-705.667 308.5,-715.667 315.5,-715.667"/>
</g>
<!-- match_contains9 -->
<g id="node10" class="node"><title>match_contains9</title>
<ellipse fill="#f798a1" stroke="black" cx="95" cy="-613" rx="94.7523" ry="18.3848"/>
<text text-anchor="middle" x="95" y="-609.4" font-family="Times Roman,serif" font-size="14.00">match_contains9</text>
</g>
<!-- MatchModel2&#45;&gt;match_contains9 -->
<g id="edge26" class="edge"><title>MatchModel2&#45;&gt;match_contains9</title>
<path fill="none" stroke="black" d="M285.003,-743.621C268.464,-732.901 246.911,-718.799 228,-706 193.891,-682.916 155.37,-655.871 128.597,-636.916"/>
<polygon fill="black" stroke="black" points="130.52,-633.989 120.337,-631.061 126.471,-639.699 130.52,-633.989"/>
</g>
<!-- match_contains10 -->
<g id="node11" class="node"><title>match_contains10</title>
<ellipse fill="#f798a1" stroke="black" cx="494" cy="-539" rx="101.116" ry="18.3848"/>
<text text-anchor="middle" x="494" y="-535.4" font-family="Times Roman,serif" font-size="14.00">match_contains10</text>
</g>
<!-- MatchModel2&#45;&gt;match_contains10 -->
<g id="edge28" class="edge"><title>MatchModel2&#45;&gt;match_contains10</title>
<path fill="none" stroke="black" d="M344.898,-744.227C361.571,-734.615 381.336,-721.402 396,-706 436.152,-663.829 466.835,-602.27 482.48,-566.867"/>
<polygon fill="black" stroke="black" points="485.725,-568.18 486.489,-557.613 479.302,-565.397 485.725,-568.18"/>
</g>
<!-- indirectLink_S3 -->
<g id="node4" class="node"><title>indirectLink_S3</title>
<ellipse fill="lightgreen" stroke="black" cx="160" cy="-143" rx="86.9741" ry="18.3848"/>
<text text-anchor="middle" x="160" y="-139.4" font-family="Times Roman,serif" font-size="14.00">indirectLink_S3</text>
</g>
<!-- Male_S12\n Classtype = male1\n Name = 6.m2 -->
<g id="node13" class="node"><title>Male_S12\n Classtype = male1\n Name = 6.m2</title>
<ellipse fill="lightblue" stroke="black" cx="371" cy="-44" rx="106.066" ry="43.8406"/>
<text text-anchor="middle" x="371" y="-58.4" font-family="Times Roman,serif" font-size="14.00">Male_S12</text>
<text text-anchor="middle" x="371" y="-40.4" font-family="Times Roman,serif" font-size="14.00"> Classtype = male1</text>
<text text-anchor="middle" x="371" y="-22.4" font-family="Times Roman,serif" font-size="14.00"> Name = 6.m2</text>
</g>
<!-- indirectLink_S3&#45;&gt;Male_S12\n Classtype = male1\n Name = 6.m2 -->
<g id="edge32" class="edge"><title>indirectLink_S3&#45;&gt;Male_S12\n Classtype = male1\n Name = 6.m2</title>
<path fill="none" stroke="black" d="M196.272,-125.981C222.444,-113.702 258.792,-96.6474 291.561,-81.2722"/>
<polygon fill="black" stroke="black" points="293.131,-84.4017 300.698,-76.9855 290.158,-78.0646 293.131,-84.4017"/>
</g>
<!-- paired_with4&#45;&gt;ApplyModel1 -->
<g id="edge22" class="edge"><title>paired_with4&#45;&gt;ApplyModel1</title>
<path fill="none" stroke="black" d="M312,-668.327C312,-660.264 312,-650.648 312,-641.711"/>
<polygon fill="black" stroke="black" points="315.5,-641.667 312,-631.667 308.5,-641.667 315.5,-641.667"/>
</g>
<!-- Male_T13\n Classtype = male1\n Name = 6.m -->
<g id="node14" class="node"><title>Male_T13\n Classtype = male1\n Name = 6.m</title>
<ellipse fill="lightblue" stroke="black" cx="173" cy="-440" rx="106.066" ry="43.8406"/>
<text text-anchor="middle" x="173" y="-454.4" font-family="Times Roman,serif" font-size="14.00">Male_T13</text>
<text text-anchor="middle" x="173" y="-436.4" font-family="Times Roman,serif" font-size="14.00"> Classtype = male1</text>
<text text-anchor="middle" x="173" y="-418.4" font-family="Times Roman,serif" font-size="14.00"> Name = 6.m</text>
</g>
<!-- apply_contains5&#45;&gt;Male_T13\n Classtype = male1\n Name = 6.m -->
<g id="edge4" class="edge"><title>apply_contains5&#45;&gt;Male_T13\n Classtype = male1\n Name = 6.m</title>
<path fill="none" stroke="black" d="M181.931,-520.379C181.09,-512.81 180.071,-503.638 179.026,-494.236"/>
<polygon fill="black" stroke="black" points="182.473,-493.561 177.89,-484.008 175.516,-494.334 182.473,-493.561"/>
</g>
<!-- apply_contains6&#45;&gt;Male_T14\n Classtype = male1\n Name = 6.m2 -->
<g id="edge8" class="edge"><title>apply_contains6&#45;&gt;Male_T14\n Classtype = male1\n Name = 6.m2</title>
<path fill="none" stroke="black" d="M398.223,-421.588C410.95,-398.357 428.745,-357.184 419,-322 416.309,-312.283 412.088,-302.562 407.241,-293.412"/>
<polygon fill="black" stroke="black" points="410.169,-291.478 402.218,-284.475 404.066,-294.907 410.169,-291.478"/>
</g>
<!-- backward_link7 -->
<g id="node8" class="node"><title>backward_link7</title>
<ellipse fill="coral" stroke="black" cx="148" cy="-341" rx="87.889" ry="18.3848"/>
<text text-anchor="middle" x="148" y="-337.4" font-family="Times Roman,serif" font-size="14.00">backward_link7</text>
</g>
<!-- Male_S11\n Classtype = male1\n Name = 6.m1 -->
<g id="node12" class="node"><title>Male_S11\n Classtype = male1\n Name = 6.m1</title>
<ellipse fill="lightblue" stroke="black" cx="141" cy="-242" rx="106.066" ry="43.8406"/>
<text text-anchor="middle" x="141" y="-256.4" font-family="Times Roman,serif" font-size="14.00">Male_S11</text>
<text text-anchor="middle" x="141" y="-238.4" font-family="Times Roman,serif" font-size="14.00"> Classtype = male1</text>
<text text-anchor="middle" x="141" y="-220.4" font-family="Times Roman,serif" font-size="14.00"> Name = 6.m1</text>
</g>
<!-- backward_link7&#45;&gt;Male_S11\n Classtype = male1\n Name = 6.m1 -->
<g id="edge12" class="edge"><title>backward_link7&#45;&gt;Male_S11\n Classtype = male1\n Name = 6.m1</title>
<path fill="none" stroke="black" d="M146.683,-322.379C146.148,-314.81 145.5,-305.638 144.835,-296.236"/>
<polygon fill="black" stroke="black" points="148.308,-295.737 144.112,-286.008 141.326,-296.23 148.308,-295.737"/>
</g>
<!-- backward_link8 -->
<g id="node9" class="node"><title>backward_link8</title>
<ellipse fill="coral" stroke="black" cx="371" cy="-143" rx="87.889" ry="18.3848"/>
<text text-anchor="middle" x="371" y="-139.4" font-family="Times Roman,serif" font-size="14.00">backward_link8</text>
</g>
<!-- backward_link8&#45;&gt;Male_S12\n Classtype = male1\n Name = 6.m2 -->
<g id="edge16" class="edge"><title>backward_link8&#45;&gt;Male_S12\n Classtype = male1\n Name = 6.m2</title>
<path fill="none" stroke="black" d="M371,-124.379C371,-116.81 371,-107.638 371,-98.236"/>
<polygon fill="black" stroke="black" points="374.5,-98.0084 371,-88.0084 367.5,-98.0084 374.5,-98.0084"/>
</g>
<!-- match_contains9&#45;&gt;Male_S11\n Classtype = male1\n Name = 6.m1 -->
<g id="edge34" class="edge"><title>match_contains9&#45;&gt;Male_S11\n Classtype = male1\n Name = 6.m1</title>
<path fill="none" stroke="black" d="M85.348,-594.331C62.1183,-546.676 8.09061,-417.553 51,-322 56.9842,-308.674 66.4067,-296.663 76.9448,-286.241"/>
<polygon fill="black" stroke="black" points="79.4735,-288.669 84.39,-279.284 74.694,-283.554 79.4735,-288.669"/>
</g>
<!-- match_contains10&#45;&gt;Male_S12\n Classtype = male1\n Name = 6.m2 -->
<g id="edge36" class="edge"><title>match_contains10&#45;&gt;Male_S12\n Classtype = male1\n Name = 6.m2</title>
<path fill="none" stroke="black" d="M495.719,-520.457C498.812,-485.426 505,-407.102 505,-341 505,-341 505,-341 505,-242 505,-187.038 498.693,-169.594 468,-124 459.066,-110.729 447.297,-98.4996 435.049,-87.8034"/>
<polygon fill="black" stroke="black" points="437.286,-85.1109 427.382,-81.346 432.776,-90.465 437.286,-85.1109"/>
</g>
<!-- Male_S11\n Classtype = male1\n Name = 6.m1&#45;&gt;indirectLink_S3 -->
<g id="edge30" class="edge"><title>Male_S11\n Classtype = male1\n Name = 6.m1&#45;&gt;indirectLink_S3</title>
<path fill="none" stroke="black" d="M149.444,-198.001C151.173,-188.996 152.948,-179.745 154.538,-171.46"/>
<polygon fill="black" stroke="black" points="157.988,-172.054 156.435,-161.574 151.113,-170.735 157.988,-172.054"/>
</g>
<!-- Male_T13\n Classtype = male1\n Name = 6.m&#45;&gt;directLink_T0\n -->
<g id="edge18" class="edge"><title>Male_T13\n Classtype = male1\n Name = 6.m&#45;&gt;directLink_T0\n</title>
<path fill="none" stroke="black" d="M232.206,-403.136C253.395,-389.943 276.646,-375.465 295.371,-363.807"/>
<polygon fill="black" stroke="black" points="297.261,-366.753 303.9,-358.496 293.561,-360.811 297.261,-366.753"/>
</g>
<!-- Male_T13\n Classtype = male1\n Name = 6.m&#45;&gt;backward_link7 -->
<g id="edge10" class="edge"><title>Male_T13\n Classtype = male1\n Name = 6.m&#45;&gt;backward_link7</title>
<path fill="none" stroke="black" d="M161.889,-396.001C159.615,-386.996 157.279,-377.745 155.187,-369.46"/>
<polygon fill="black" stroke="black" points="158.532,-368.413 152.69,-359.574 151.745,-370.127 158.532,-368.413"/>
</g>
<!-- Male_T14\n Classtype = male1\n Name = 6.m2&#45;&gt;backward_link8 -->
<g id="edge14" class="edge"><title>Male_T14\n Classtype = male1\n Name = 6.m2&#45;&gt;backward_link8</title>
<path fill="none" stroke="black" d="M371,-197.712C371,-188.978 371,-180.024 371,-171.956"/>
<polygon fill="black" stroke="black" points="374.5,-171.953 371,-161.953 367.5,-171.953 374.5,-171.953"/>
</g>
</g>
</svg>
