<?xml version="1.0" encoding="UTF-8" standalone="no"?>
<!DOCTYPE svg PUBLIC "-//W3C//DTD SVG 1.1//EN"
 "http://www.w3.org/Graphics/SVG/1.1/DTD/svg11.dtd">
<!-- Generated by graphviz version 2.26.3 (20100126.1600)
 -->
<!-- Title: rule_S2S_run1 Pages: 1 -->
<svg width="447pt" height="442pt"
 viewBox="0.00 0.00 447.00 442.00" xmlns="http://www.w3.org/2000/svg" xmlns:xlink="http://www.w3.org/1999/xlink">
<g id="graph1" class="graph" transform="scale(1 1) rotate(0) translate(4 438)">
<title>rule_S2S_run1</title>
<polygon fill="white" stroke="white" points="-4,5 -4,-438 444,-438 444,5 -4,5"/>
<!-- apply_contains0 -->
<g id="node1" class="node"><title>apply_contains0</title>
<ellipse fill="#fcdb58" stroke="black" cx="323" cy="-143" rx="90.0096" ry="18.3848"/>
<text text-anchor="middle" x="323" y="-139.4" font-family="Times Roman,serif" font-size="14.00">apply_contains0</text>
</g>
<!-- Station_T4\n Classtype = station1\n Name = 1.s -->
<g id="node5" class="node"><title>Station_T4\n Classtype = station1\n Name = 1.s</title>
<ellipse fill="lightblue" stroke="black" cx="323" cy="-44" rx="116.172" ry="43.8406"/>
<text text-anchor="middle" x="323" y="-58.4" font-family="Times Roman,serif" font-size="14.00">Station_T4</text>
<text text-anchor="middle" x="323" y="-40.4" font-family="Times Roman,serif" font-size="14.00"> Classtype = station1</text>
<text text-anchor="middle" x="323" y="-22.4" font-family="Times Roman,serif" font-size="14.00"> Name = 1.s</text>
</g>
<!-- apply_contains0&#45;&gt;Station_T4\n Classtype = station1\n Name = 1.s -->
<g id="edge4" class="edge"><title>apply_contains0&#45;&gt;Station_T4\n Classtype = station1\n Name = 1.s</title>
<path fill="none" stroke="black" d="M323,-124.379C323,-116.81 323,-107.638 323,-98.236"/>
<polygon fill="black" stroke="black" points="326.5,-98.0084 323,-88.0084 319.5,-98.0084 326.5,-98.0084"/>
</g>
<!-- ApplyModel1 -->
<g id="node2" class="node"><title>ApplyModel1</title>
<ellipse fill="#fed017" stroke="black" cx="323" cy="-242" rx="73.0388" ry="18.3848"/>
<text text-anchor="middle" x="323" y="-238.4" font-family="Times Roman,serif" font-size="14.00">ApplyModel1</text>
</g>
<!-- ApplyModel1&#45;&gt;apply_contains0 -->
<g id="edge2" class="edge"><title>ApplyModel1&#45;&gt;apply_contains0</title>
<path fill="none" stroke="black" d="M323,-223.379C323,-208.86 323,-188.439 323,-171.814"/>
<polygon fill="black" stroke="black" points="326.5,-171.538 323,-161.538 319.5,-171.538 326.5,-171.538"/>
</g>
<!-- MatchModel2 -->
<g id="node3" class="node"><title>MatchModel2</title>
<ellipse fill="#e15c34" stroke="black" cx="221" cy="-415" rx="75.8684" ry="18.3848"/>
<text text-anchor="middle" x="221" y="-411.4" font-family="Times Roman,serif" font-size="14.00">MatchModel2</text>
</g>
<!-- match_contains3 -->
<g id="node4" class="node"><title>match_contains3</title>
<ellipse fill="#f798a1" stroke="black" cx="125" cy="-341" rx="94.7523" ry="18.3848"/>
<text text-anchor="middle" x="125" y="-337.4" font-family="Times Roman,serif" font-size="14.00">match_contains3</text>
</g>
<!-- MatchModel2&#45;&gt;match_contains3 -->
<g id="edge10" class="edge"><title>MatchModel2&#45;&gt;match_contains3</title>
<path fill="none" stroke="black" d="M197.761,-397.087C185.354,-387.523 169.907,-375.615 156.441,-365.236"/>
<polygon fill="black" stroke="black" points="158.415,-362.338 148.358,-359.005 154.141,-367.882 158.415,-362.338"/>
</g>
<!-- paired_with6 -->
<g id="node7" class="node"><title>paired_with6</title>
<ellipse fill="lightgray" stroke="black" cx="318" cy="-341" rx="75.1594" ry="18.3848"/>
<text text-anchor="middle" x="318" y="-337.4" font-family="Times Roman,serif" font-size="14.00">paired_with6</text>
</g>
<!-- MatchModel2&#45;&gt;paired_with6 -->
<g id="edge8" class="edge"><title>MatchModel2&#45;&gt;paired_with6</title>
<path fill="none" stroke="black" d="M244.481,-397.087C257.111,-387.452 272.857,-375.439 286.534,-365.005"/>
<polygon fill="black" stroke="black" points="288.908,-367.596 294.735,-358.748 284.662,-362.031 288.908,-367.596"/>
</g>
<!-- Station_S5\n Classtype = station1\n Name = 1.s -->
<g id="node6" class="node"><title>Station_S5\n Classtype = station1\n Name = 1.s</title>
<ellipse fill="lightblue" stroke="black" cx="116" cy="-242" rx="116.172" ry="43.8406"/>
<text text-anchor="middle" x="116" y="-256.4" font-family="Times Roman,serif" font-size="14.00">Station_S5</text>
<text text-anchor="middle" x="116" y="-238.4" font-family="Times Roman,serif" font-size="14.00"> Classtype = station1</text>
<text text-anchor="middle" x="116" y="-220.4" font-family="Times Roman,serif" font-size="14.00"> Name = 1.s</text>
</g>
<!-- match_contains3&#45;&gt;Station_S5\n Classtype = station1\n Name = 1.s -->
<g id="edge12" class="edge"><title>match_contains3&#45;&gt;Station_S5\n Classtype = station1\n Name = 1.s</title>
<path fill="none" stroke="black" d="M123.307,-322.379C122.619,-314.81 121.785,-305.638 120.931,-296.236"/>
<polygon fill="black" stroke="black" points="124.392,-295.65 120.001,-286.008 117.421,-296.284 124.392,-295.65"/>
</g>
<!-- paired_with6&#45;&gt;ApplyModel1 -->
<g id="edge6" class="edge"><title>paired_with6&#45;&gt;ApplyModel1</title>
<path fill="none" stroke="black" d="M318.94,-322.379C319.674,-307.86 320.705,-287.439 321.545,-270.814"/>
<polygon fill="black" stroke="black" points="325.055,-270.701 322.064,-260.538 318.064,-270.348 325.055,-270.701"/>
</g>
</g>
</svg>
