<?xml version="1.0" encoding="UTF-8" standalone="no"?>
<!DOCTYPE svg PUBLIC "-//W3C//DTD SVG 1.1//EN"
 "http://www.w3.org/Graphics/SVG/1.1/DTD/svg11.dtd">
<!-- Generated by graphviz version 2.26.3 (20100126.1600)
 -->
<!-- Title: rule_FF2FF Pages: 1 -->
<svg width="593pt" height="788pt"
 viewBox="0.00 0.00 593.00 788.00" xmlns="http://www.w3.org/2000/svg" xmlns:xlink="http://www.w3.org/1999/xlink">
<g id="graph1" class="graph" transform="scale(1 1) rotate(0) translate(4 784)">
<title>rule_FF2FF</title>
<polygon fill="white" stroke="white" points="-4,5 -4,-784 590,-784 590,5 -4,5"/>
<!-- directLink_T0\n -->
<g id="node1" class="node"><title>directLink_T0\n</title>
<ellipse fill="lightyellow" stroke="black" cx="349" cy="-341" rx="77.7817" ry="18.3848"/>
<text text-anchor="middle" x="349" y="-337.4" font-family="Times Roman,serif" font-size="14.00">directLink_T0</text>
</g>
<!-- Female_T10\n Classtype = t_\n Name = s_ -->
<g id="node11" class="node"><title>Female_T10\n Classtype = t_\n Name = s_</title>
<ellipse fill="lightblue" stroke="black" cx="372" cy="-242" rx="85.7684" ry="43.8406"/>
<text text-anchor="middle" x="372" y="-256.4" font-family="Times Roman,serif" font-size="14.00">Female_T10</text>
<text text-anchor="middle" x="372" y="-238.4" font-family="Times Roman,serif" font-size="14.00"> Classtype = t_</text>
<text text-anchor="middle" x="372" y="-220.4" font-family="Times Roman,serif" font-size="14.00"> Name = s_</text>
</g>
<!-- directLink_T0\n&#45;&gt;Female_T10\n Classtype = t_\n Name = s_ -->
<g id="edge12" class="edge"><title>directLink_T0\n&#45;&gt;Female_T10\n Classtype = t_\n Name = s_</title>
<path fill="none" stroke="black" d="M353.326,-322.379C355.103,-314.73 357.261,-305.443 359.469,-295.936"/>
<polygon fill="black" stroke="black" points="362.922,-296.541 361.776,-286.008 356.104,-294.957 362.922,-296.541"/>
</g>
<!-- paired_with1 -->
<g id="node2" class="node"><title>paired_with1</title>
<ellipse fill="lightgray" stroke="black" cx="319" cy="-687" rx="75.1594" ry="18.3848"/>
<text text-anchor="middle" x="319" y="-683.4" font-family="Times Roman,serif" font-size="14.00">paired_with1</text>
</g>
<!-- ApplyModel2 -->
<g id="node3" class="node"><title>ApplyModel2</title>
<ellipse fill="#fed017" stroke="black" cx="319" cy="-613" rx="73.0388" ry="18.3848"/>
<text text-anchor="middle" x="319" y="-609.4" font-family="Times Roman,serif" font-size="14.00">ApplyModel2</text>
</g>
<!-- paired_with1&#45;&gt;ApplyModel2 -->
<g id="edge16" class="edge"><title>paired_with1&#45;&gt;ApplyModel2</title>
<path fill="none" stroke="black" d="M319,-668.327C319,-660.264 319,-650.648 319,-641.711"/>
<polygon fill="black" stroke="black" points="322.5,-641.667 319,-631.667 315.5,-641.667 322.5,-641.667"/>
</g>
<!-- apply_contains5 -->
<g id="node6" class="node"><title>apply_contains5</title>
<ellipse fill="#fcdb58" stroke="black" cx="211" cy="-539" rx="90.0096" ry="18.3848"/>
<text text-anchor="middle" x="211" y="-535.4" font-family="Times Roman,serif" font-size="14.00">apply_contains5</text>
</g>
<!-- ApplyModel2&#45;&gt;apply_contains5 -->
<g id="edge2" class="edge"><title>ApplyModel2&#45;&gt;apply_contains5</title>
<path fill="none" stroke="black" d="M293.406,-595.463C279.09,-585.654 261.051,-573.294 245.503,-562.641"/>
<polygon fill="black" stroke="black" points="247.389,-559.69 237.161,-556.925 243.432,-565.465 247.389,-559.69"/>
</g>
<!-- apply_contains6 -->
<g id="node7" class="node"><title>apply_contains6</title>
<ellipse fill="#fcdb58" stroke="black" cx="375" cy="-440" rx="90.0096" ry="18.3848"/>
<text text-anchor="middle" x="375" y="-436.4" font-family="Times Roman,serif" font-size="14.00">apply_contains6</text>
</g>
<!-- ApplyModel2&#45;&gt;apply_contains6 -->
<g id="edge6" class="edge"><title>ApplyModel2&#45;&gt;apply_contains6</title>
<path fill="none" stroke="black" d="M324.993,-594.486C334.777,-564.259 354.247,-504.112 365.794,-468.439"/>
<polygon fill="black" stroke="black" points="369.216,-469.234 368.965,-458.642 362.556,-467.078 369.216,-469.234"/>
</g>
<!-- indirectLink_S3 -->
<g id="node4" class="node"><title>indirectLink_S3</title>
<ellipse fill="lightgreen" stroke="black" cx="170" cy="-143" rx="86.9741" ry="18.3848"/>
<text text-anchor="middle" x="170" y="-139.4" font-family="Times Roman,serif" font-size="14.00">indirectLink_S3</text>
</g>
<!-- Female_S12\n Classtype = 1\n Name = s_ -->
<g id="node13" class="node"><title>Female_S12\n Classtype = 1\n Name = s_</title>
<ellipse fill="lightblue" stroke="black" cx="372" cy="-44" rx="82.2301" ry="43.8406"/>
<text text-anchor="middle" x="372" y="-58.4" font-family="Times Roman,serif" font-size="14.00">Female_S12</text>
<text text-anchor="middle" x="372" y="-40.4" font-family="Times Roman,serif" font-size="14.00"> Classtype = 1</text>
<text text-anchor="middle" x="372" y="-22.4" font-family="Times Roman,serif" font-size="14.00"> Name = s_</text>
</g>
<!-- indirectLink_S3&#45;&gt;Female_S12\n Classtype = 1\n Name = s_ -->
<g id="edge28" class="edge"><title>indirectLink_S3&#45;&gt;Female_S12\n Classtype = 1\n Name = s_</title>
<path fill="none" stroke="black" d="M204.725,-125.981C231.43,-112.893 269.203,-94.3809 302.098,-78.2588"/>
<polygon fill="black" stroke="black" points="303.795,-81.3252 311.234,-73.7814 300.714,-75.0395 303.795,-81.3252"/>
</g>
<!-- MatchModel4 -->
<g id="node5" class="node"><title>MatchModel4</title>
<ellipse fill="#e15c34" stroke="black" cx="319" cy="-761" rx="75.8684" ry="18.3848"/>
<text text-anchor="middle" x="319" y="-757.4" font-family="Times Roman,serif" font-size="14.00">MatchModel4</text>
</g>
<!-- MatchModel4&#45;&gt;paired_with1 -->
<g id="edge14" class="edge"><title>MatchModel4&#45;&gt;paired_with1</title>
<path fill="none" stroke="black" d="M319,-742.327C319,-734.264 319,-724.648 319,-715.711"/>
<polygon fill="black" stroke="black" points="322.5,-715.667 319,-705.667 315.5,-715.667 322.5,-715.667"/>
</g>
<!-- match_contains13 -->
<g id="node14" class="node"><title>match_contains13</title>
<ellipse fill="#f798a1" stroke="black" cx="101" cy="-613" rx="101.116" ry="18.3848"/>
<text text-anchor="middle" x="101" y="-609.4" font-family="Times Roman,serif" font-size="14.00">match_contains13</text>
</g>
<!-- MatchModel4&#45;&gt;match_contains13 -->
<g id="edge34" class="edge"><title>MatchModel4&#45;&gt;match_contains13</title>
<path fill="none" stroke="black" d="M292.019,-743.597C275.486,-732.868 253.934,-718.765 235,-706 200.677,-682.859 161.861,-655.822 134.873,-636.884"/>
<polygon fill="black" stroke="black" points="136.742,-633.92 126.547,-631.035 132.718,-639.648 136.742,-633.92"/>
</g>
<!-- match_contains14 -->
<g id="node15" class="node"><title>match_contains14</title>
<ellipse fill="#f798a1" stroke="black" cx="484" cy="-539" rx="101.116" ry="18.3848"/>
<text text-anchor="middle" x="484" y="-535.4" font-family="Times Roman,serif" font-size="14.00">match_contains14</text>
</g>
<!-- MatchModel4&#45;&gt;match_contains14 -->
<g id="edge36" class="edge"><title>MatchModel4&#45;&gt;match_contains14</title>
<path fill="none" stroke="black" d="M353.237,-744.224C369.866,-734.774 389.186,-721.707 403,-706 439.703,-664.266 463.717,-602.964 475.48,-567.404"/>
<polygon fill="black" stroke="black" points="478.881,-568.261 478.606,-557.67 472.216,-566.121 478.881,-568.261"/>
</g>
<!-- Female_T9\n Classtype = t_\n Name = s_ -->
<g id="node10" class="node"><title>Female_T9\n Classtype = t_\n Name = s_</title>
<ellipse fill="lightblue" stroke="black" cx="181" cy="-440" rx="85.7684" ry="43.8406"/>
<text text-anchor="middle" x="181" y="-454.4" font-family="Times Roman,serif" font-size="14.00">Female_T9</text>
<text text-anchor="middle" x="181" y="-436.4" font-family="Times Roman,serif" font-size="14.00"> Classtype = t_</text>
<text text-anchor="middle" x="181" y="-418.4" font-family="Times Roman,serif" font-size="14.00"> Name = s_</text>
</g>
<!-- apply_contains5&#45;&gt;Female_T9\n Classtype = t_\n Name = s_ -->
<g id="edge4" class="edge"><title>apply_contains5&#45;&gt;Female_T9\n Classtype = t_\n Name = s_</title>
<path fill="none" stroke="black" d="M205.357,-520.379C202.989,-512.565 200.104,-503.043 197.158,-493.322"/>
<polygon fill="black" stroke="black" points="200.459,-492.147 194.21,-483.592 193.76,-494.177 200.459,-492.147"/>
</g>
<!-- apply_contains6&#45;&gt;Female_T10\n Classtype = t_\n Name = s_ -->
<g id="edge8" class="edge"><title>apply_contains6&#45;&gt;Female_T10\n Classtype = t_\n Name = s_</title>
<path fill="none" stroke="black" d="M395.026,-421.919C417.451,-399.361 449.053,-359.212 436,-322 431.952,-310.461 425.463,-299.35 418.135,-289.269"/>
<polygon fill="black" stroke="black" points="420.689,-286.849 411.818,-281.057 415.141,-291.117 420.689,-286.849"/>
</g>
<!-- backward_link7 -->
<g id="node8" class="node"><title>backward_link7</title>
<ellipse fill="coral" stroke="black" cx="165" cy="-341" rx="87.889" ry="18.3848"/>
<text text-anchor="middle" x="165" y="-337.4" font-family="Times Roman,serif" font-size="14.00">backward_link7</text>
</g>
<!-- Female_S11\n Classtype = 1\n Name = s_ -->
<g id="node12" class="node"><title>Female_S11\n Classtype = 1\n Name = s_</title>
<ellipse fill="lightblue" stroke="black" cx="165" cy="-242" rx="82.2301" ry="43.8406"/>
<text text-anchor="middle" x="165" y="-256.4" font-family="Times Roman,serif" font-size="14.00">Female_S11</text>
<text text-anchor="middle" x="165" y="-238.4" font-family="Times Roman,serif" font-size="14.00"> Classtype = 1</text>
<text text-anchor="middle" x="165" y="-220.4" font-family="Times Roman,serif" font-size="14.00"> Name = s_</text>
</g>
<!-- backward_link7&#45;&gt;Female_S11\n Classtype = 1\n Name = s_ -->
<g id="edge20" class="edge"><title>backward_link7&#45;&gt;Female_S11\n Classtype = 1\n Name = s_</title>
<path fill="none" stroke="black" d="M165,-322.379C165,-314.81 165,-305.638 165,-296.236"/>
<polygon fill="black" stroke="black" points="168.5,-296.008 165,-286.008 161.5,-296.008 168.5,-296.008"/>
</g>
<!-- backward_link8 -->
<g id="node9" class="node"><title>backward_link8</title>
<ellipse fill="coral" stroke="black" cx="372" cy="-143" rx="87.889" ry="18.3848"/>
<text text-anchor="middle" x="372" y="-139.4" font-family="Times Roman,serif" font-size="14.00">backward_link8</text>
</g>
<!-- backward_link8&#45;&gt;Female_S12\n Classtype = 1\n Name = s_ -->
<g id="edge24" class="edge"><title>backward_link8&#45;&gt;Female_S12\n Classtype = 1\n Name = s_</title>
<path fill="none" stroke="black" d="M372,-124.379C372,-116.81 372,-107.638 372,-98.236"/>
<polygon fill="black" stroke="black" points="375.5,-98.0084 372,-88.0084 368.5,-98.0084 375.5,-98.0084"/>
</g>
<!-- Female_T9\n Classtype = t_\n Name = s_&#45;&gt;directLink_T0\n -->
<g id="edge10" class="edge"><title>Female_T9\n Classtype = t_\n Name = s_&#45;&gt;directLink_T0\n</title>
<path fill="none" stroke="black" d="M237.409,-406.759C261.705,-392.442 289.466,-376.082 311.221,-363.263"/>
<polygon fill="black" stroke="black" points="313.008,-366.272 319.846,-358.18 309.454,-360.242 313.008,-366.272"/>
</g>
<!-- Female_T9\n Classtype = t_\n Name = s_&#45;&gt;backward_link7 -->
<g id="edge18" class="edge"><title>Female_T9\n Classtype = t_\n Name = s_&#45;&gt;backward_link7</title>
<path fill="none" stroke="black" d="M173.889,-396.001C172.434,-386.996 170.939,-377.745 169.6,-369.46"/>
<polygon fill="black" stroke="black" points="173.053,-368.887 168.002,-359.574 166.142,-370.004 173.053,-368.887"/>
</g>
<!-- Female_T10\n Classtype = t_\n Name = s_&#45;&gt;backward_link8 -->
<g id="edge22" class="edge"><title>Female_T10\n Classtype = t_\n Name = s_&#45;&gt;backward_link8</title>
<path fill="none" stroke="black" d="M372,-197.712C372,-188.978 372,-180.024 372,-171.956"/>
<polygon fill="black" stroke="black" points="375.5,-171.953 372,-161.953 368.5,-171.953 375.5,-171.953"/>
</g>
<!-- Female_S11\n Classtype = 1\n Name = s_&#45;&gt;indirectLink_S3 -->
<g id="edge26" class="edge"><title>Female_S11\n Classtype = 1\n Name = s_&#45;&gt;indirectLink_S3</title>
<path fill="none" stroke="black" d="M167.222,-198.001C167.672,-189.096 168.134,-179.95 168.549,-171.737"/>
<polygon fill="black" stroke="black" points="172.053,-171.738 169.062,-161.574 165.062,-171.385 172.053,-171.738"/>
</g>
<!-- match_contains13&#45;&gt;Female_S11\n Classtype = 1\n Name = s_ -->
<g id="edge30" class="edge"><title>match_contains13&#45;&gt;Female_S11\n Classtype = 1\n Name = s_</title>
<path fill="none" stroke="black" d="M92.4523,-594.529C71.6847,-546.802 23.4411,-416.508 68,-322 75.4705,-306.155 87.7894,-292.383 101.183,-280.941"/>
<polygon fill="black" stroke="black" points="103.597,-283.489 109.164,-274.475 99.1907,-278.05 103.597,-283.489"/>
</g>
<!-- match_contains14&#45;&gt;Female_S12\n Classtype = 1\n Name = s_ -->
<g id="edge32" class="edge"><title>match_contains14&#45;&gt;Female_S12\n Classtype = 1\n Name = s_</title>
<path fill="none" stroke="black" d="M485.406,-520.45C487.938,-485.409 493,-407.068 493,-341 493,-341 493,-341 493,-242 493,-188.482 496.557,-169.878 469,-124 459.933,-108.905 446.949,-95.3795 433.416,-83.9334"/>
<polygon fill="black" stroke="black" points="435.381,-81.0207 425.411,-77.4383 430.971,-86.4567 435.381,-81.0207"/>
</g>
</g>
</svg>
