<?xml version="1.0" encoding="UTF-8" standalone="no"?>
<!DOCTYPE svg PUBLIC "-//W3C//DTD SVG 1.1//EN"
 "http://www.w3.org/Graphics/SVG/1.1/DTD/svg11.dtd">
<!-- Generated by graphviz version 2.26.3 (20100126.1600)
 -->
<!-- Title: rule_FF2FF_run1 Pages: 1 -->
<svg width="624pt" height="788pt"
 viewBox="0.00 0.00 624.00 788.00" xmlns="http://www.w3.org/2000/svg" xmlns:xlink="http://www.w3.org/1999/xlink">
<g id="graph1" class="graph" transform="scale(1 1) rotate(0) translate(4 784)">
<title>rule_FF2FF_run1</title>
<polygon fill="white" stroke="white" points="-4,5 -4,-784 621,-784 621,5 -4,5"/>
<!-- directLink_T0\n -->
<g id="node1" class="node"><title>directLink_T0\n</title>
<ellipse fill="lightyellow" stroke="black" cx="332" cy="-341" rx="77.7817" ry="18.3848"/>
<text text-anchor="middle" x="332" y="-337.4" font-family="Times Roman,serif" font-size="14.00">directLink_T0</text>
</g>
<!-- Female_T10\n Classtype = female1\n Name = 7.f2 -->
<g id="node11" class="node"><title>Female_T10\n Classtype = female1\n Name = 7.f2</title>
<ellipse fill="lightblue" stroke="black" cx="384" cy="-242" rx="114.759" ry="43.8406"/>
<text text-anchor="middle" x="384" y="-256.4" font-family="Times Roman,serif" font-size="14.00">Female_T10</text>
<text text-anchor="middle" x="384" y="-238.4" font-family="Times Roman,serif" font-size="14.00"> Classtype = female1</text>
<text text-anchor="middle" x="384" y="-220.4" font-family="Times Roman,serif" font-size="14.00"> Name = 7.f2</text>
</g>
<!-- directLink_T0\n&#45;&gt;Female_T10\n Classtype = female1\n Name = 7.f2 -->
<g id="edge20" class="edge"><title>directLink_T0\n&#45;&gt;Female_T10\n Classtype = female1\n Name = 7.f2</title>
<path fill="none" stroke="black" d="M341.781,-322.379C346.059,-314.234 351.312,-304.233 356.641,-294.086"/>
<polygon fill="black" stroke="black" points="359.77,-295.656 361.322,-285.175 353.573,-292.401 359.77,-295.656"/>
</g>
<!-- ApplyModel1 -->
<g id="node2" class="node"><title>ApplyModel1</title>
<ellipse fill="#fed017" stroke="black" cx="328" cy="-613" rx="73.0388" ry="18.3848"/>
<text text-anchor="middle" x="328" y="-609.4" font-family="Times Roman,serif" font-size="14.00">ApplyModel1</text>
</g>
<!-- apply_contains5 -->
<g id="node6" class="node"><title>apply_contains5</title>
<ellipse fill="#fcdb58" stroke="black" cx="198" cy="-539" rx="90.0096" ry="18.3848"/>
<text text-anchor="middle" x="198" y="-535.4" font-family="Times Roman,serif" font-size="14.00">apply_contains5</text>
</g>
<!-- ApplyModel1&#45;&gt;apply_contains5 -->
<g id="edge2" class="edge"><title>ApplyModel1&#45;&gt;apply_contains5</title>
<path fill="none" stroke="black" d="M298.175,-596.023C280.104,-585.736 256.841,-572.494 237.282,-561.361"/>
<polygon fill="black" stroke="black" points="239.01,-558.317 228.588,-556.412 235.548,-564.401 239.01,-558.317"/>
</g>
<!-- apply_contains6 -->
<g id="node7" class="node"><title>apply_contains6</title>
<ellipse fill="#fcdb58" stroke="black" cx="409" cy="-440" rx="90.0096" ry="18.3848"/>
<text text-anchor="middle" x="409" y="-436.4" font-family="Times Roman,serif" font-size="14.00">apply_contains6</text>
</g>
<!-- ApplyModel1&#45;&gt;apply_contains6 -->
<g id="edge6" class="edge"><title>ApplyModel1&#45;&gt;apply_contains6</title>
<path fill="none" stroke="black" d="M336.668,-594.486C350.882,-564.13 379.224,-503.595 395.899,-467.981"/>
<polygon fill="black" stroke="black" points="399.201,-469.183 400.271,-458.642 392.861,-466.215 399.201,-469.183"/>
</g>
<!-- MatchModel2 -->
<g id="node3" class="node"><title>MatchModel2</title>
<ellipse fill="#e15c34" stroke="black" cx="328" cy="-761" rx="75.8684" ry="18.3848"/>
<text text-anchor="middle" x="328" y="-757.4" font-family="Times Roman,serif" font-size="14.00">MatchModel2</text>
</g>
<!-- paired_with4 -->
<g id="node5" class="node"><title>paired_with4</title>
<ellipse fill="lightgray" stroke="black" cx="328" cy="-687" rx="75.1594" ry="18.3848"/>
<text text-anchor="middle" x="328" y="-683.4" font-family="Times Roman,serif" font-size="14.00">paired_with4</text>
</g>
<!-- MatchModel2&#45;&gt;paired_with4 -->
<g id="edge24" class="edge"><title>MatchModel2&#45;&gt;paired_with4</title>
<path fill="none" stroke="black" d="M328,-742.327C328,-734.264 328,-724.648 328,-715.711"/>
<polygon fill="black" stroke="black" points="331.5,-715.667 328,-705.667 324.5,-715.667 331.5,-715.667"/>
</g>
<!-- match_contains11 -->
<g id="node12" class="node"><title>match_contains11</title>
<ellipse fill="#f798a1" stroke="black" cx="101" cy="-613" rx="101.116" ry="18.3848"/>
<text text-anchor="middle" x="101" y="-609.4" font-family="Times Roman,serif" font-size="14.00">match_contains11</text>
</g>
<!-- MatchModel2&#45;&gt;match_contains11 -->
<g id="edge26" class="edge"><title>MatchModel2&#45;&gt;match_contains11</title>
<path fill="none" stroke="black" d="M301.069,-743.441C260.246,-716.826 182.64,-666.228 137.01,-636.478"/>
<polygon fill="black" stroke="black" points="138.893,-633.527 128.604,-630.997 135.069,-639.391 138.893,-633.527"/>
</g>
<!-- match_contains12 -->
<g id="node13" class="node"><title>match_contains12</title>
<ellipse fill="#f798a1" stroke="black" cx="515" cy="-539" rx="101.116" ry="18.3848"/>
<text text-anchor="middle" x="515" y="-535.4" font-family="Times Roman,serif" font-size="14.00">match_contains12</text>
</g>
<!-- MatchModel2&#45;&gt;match_contains12 -->
<g id="edge28" class="edge"><title>MatchModel2&#45;&gt;match_contains12</title>
<path fill="none" stroke="black" d="M360.759,-744.094C377.395,-734.445 397.167,-721.24 412,-706 453.154,-663.717 485.772,-602.198 502.564,-566.832"/>
<polygon fill="black" stroke="black" points="505.82,-568.13 506.874,-557.588 499.476,-565.172 505.82,-568.13"/>
</g>
<!-- indirectLink_S3 -->
<g id="node4" class="node"><title>indirectLink_S3</title>
<ellipse fill="lightgreen" stroke="black" cx="164" cy="-143" rx="86.9741" ry="18.3848"/>
<text text-anchor="middle" x="164" y="-139.4" font-family="Times Roman,serif" font-size="14.00">indirectLink_S3</text>
</g>
<!-- Female_S14\n Classtype = female1\n Name = 7.f2 -->
<g id="node15" class="node"><title>Female_S14\n Classtype = female1\n Name = 7.f2</title>
<ellipse fill="lightblue" stroke="black" cx="384" cy="-44" rx="114.759" ry="43.8406"/>
<text text-anchor="middle" x="384" y="-58.4" font-family="Times Roman,serif" font-size="14.00">Female_S14</text>
<text text-anchor="middle" x="384" y="-40.4" font-family="Times Roman,serif" font-size="14.00"> Classtype = female1</text>
<text text-anchor="middle" x="384" y="-22.4" font-family="Times Roman,serif" font-size="14.00"> Name = 7.f2</text>
</g>
<!-- indirectLink_S3&#45;&gt;Female_S14\n Classtype = female1\n Name = 7.f2 -->
<g id="edge32" class="edge"><title>indirectLink_S3&#45;&gt;Female_S14\n Classtype = female1\n Name = 7.f2</title>
<path fill="none" stroke="black" d="M201.32,-126.206C228.326,-114.053 265.91,-97.1405 299.971,-81.8132"/>
<polygon fill="black" stroke="black" points="301.79,-84.8328 309.472,-77.5374 298.917,-78.4494 301.79,-84.8328"/>
</g>
<!-- paired_with4&#45;&gt;ApplyModel1 -->
<g id="edge22" class="edge"><title>paired_with4&#45;&gt;ApplyModel1</title>
<path fill="none" stroke="black" d="M328,-668.327C328,-660.264 328,-650.648 328,-641.711"/>
<polygon fill="black" stroke="black" points="331.5,-641.667 328,-631.667 324.5,-641.667 331.5,-641.667"/>
</g>
<!-- Female_T9\n Classtype = female1\n Name = 7.f1 -->
<g id="node10" class="node"><title>Female_T9\n Classtype = female1\n Name = 7.f1</title>
<ellipse fill="lightblue" stroke="black" cx="186" cy="-440" rx="114.759" ry="43.8406"/>
<text text-anchor="middle" x="186" y="-454.4" font-family="Times Roman,serif" font-size="14.00">Female_T9</text>
<text text-anchor="middle" x="186" y="-436.4" font-family="Times Roman,serif" font-size="14.00"> Classtype = female1</text>
<text text-anchor="middle" x="186" y="-418.4" font-family="Times Roman,serif" font-size="14.00"> Name = 7.f1</text>
</g>
<!-- apply_contains5&#45;&gt;Female_T9\n Classtype = female1\n Name = 7.f1 -->
<g id="edge4" class="edge"><title>apply_contains5&#45;&gt;Female_T9\n Classtype = female1\n Name = 7.f1</title>
<path fill="none" stroke="black" d="M195.743,-520.379C194.816,-512.73 193.69,-503.443 192.538,-493.936"/>
<polygon fill="black" stroke="black" points="196.012,-493.515 191.334,-484.008 189.063,-494.357 196.012,-493.515"/>
</g>
<!-- apply_contains6&#45;&gt;Female_T10\n Classtype = female1\n Name = 7.f2 -->
<g id="edge8" class="edge"><title>apply_contains6&#45;&gt;Female_T10\n Classtype = female1\n Name = 7.f2</title>
<path fill="none" stroke="black" d="M413.862,-421.404C419.237,-397.982 426.24,-356.613 419,-322 417.108,-312.955 414.133,-303.682 410.698,-294.803"/>
<polygon fill="black" stroke="black" points="413.853,-293.273 406.819,-285.351 407.377,-295.931 413.853,-293.273"/>
</g>
<!-- backward_link7 -->
<g id="node8" class="node"><title>backward_link7</title>
<ellipse fill="coral" stroke="black" cx="148" cy="-341" rx="87.889" ry="18.3848"/>
<text text-anchor="middle" x="148" y="-337.4" font-family="Times Roman,serif" font-size="14.00">backward_link7</text>
</g>
<!-- Female_S13\n Classtype = female1\n Name = 7.f1 -->
<g id="node14" class="node"><title>Female_S13\n Classtype = female1\n Name = 7.f1</title>
<ellipse fill="lightblue" stroke="black" cx="136" cy="-242" rx="114.759" ry="43.8406"/>
<text text-anchor="middle" x="136" y="-256.4" font-family="Times Roman,serif" font-size="14.00">Female_S13</text>
<text text-anchor="middle" x="136" y="-238.4" font-family="Times Roman,serif" font-size="14.00"> Classtype = female1</text>
<text text-anchor="middle" x="136" y="-220.4" font-family="Times Roman,serif" font-size="14.00"> Name = 7.f1</text>
</g>
<!-- backward_link7&#45;&gt;Female_S13\n Classtype = female1\n Name = 7.f1 -->
<g id="edge12" class="edge"><title>backward_link7&#45;&gt;Female_S13\n Classtype = female1\n Name = 7.f1</title>
<path fill="none" stroke="black" d="M145.743,-322.379C144.816,-314.73 143.69,-305.443 142.538,-295.936"/>
<polygon fill="black" stroke="black" points="146.012,-295.515 141.334,-286.008 139.063,-296.357 146.012,-295.515"/>
</g>
<!-- backward_link8 -->
<g id="node9" class="node"><title>backward_link8</title>
<ellipse fill="coral" stroke="black" cx="384" cy="-143" rx="87.889" ry="18.3848"/>
<text text-anchor="middle" x="384" y="-139.4" font-family="Times Roman,serif" font-size="14.00">backward_link8</text>
</g>
<!-- backward_link8&#45;&gt;Female_S14\n Classtype = female1\n Name = 7.f2 -->
<g id="edge16" class="edge"><title>backward_link8&#45;&gt;Female_S14\n Classtype = female1\n Name = 7.f2</title>
<path fill="none" stroke="black" d="M384,-124.379C384,-116.81 384,-107.638 384,-98.236"/>
<polygon fill="black" stroke="black" points="387.5,-98.0084 384,-88.0084 380.5,-98.0084 387.5,-98.0084"/>
</g>
<!-- Female_T9\n Classtype = female1\n Name = 7.f1&#45;&gt;directLink_T0\n -->
<g id="edge18" class="edge"><title>Female_T9\n Classtype = female1\n Name = 7.f1&#45;&gt;directLink_T0\n</title>
<path fill="none" stroke="black" d="M242.865,-401.441C261.241,-388.981 281.052,-375.547 297.32,-364.516"/>
<polygon fill="black" stroke="black" points="299.649,-367.166 305.961,-358.656 295.72,-361.372 299.649,-367.166"/>
</g>
<!-- Female_T9\n Classtype = female1\n Name = 7.f1&#45;&gt;backward_link7 -->
<g id="edge10" class="edge"><title>Female_T9\n Classtype = female1\n Name = 7.f1&#45;&gt;backward_link7</title>
<path fill="none" stroke="black" d="M169.222,-396.289C165.678,-387.056 162.029,-377.55 158.779,-369.081"/>
<polygon fill="black" stroke="black" points="162.027,-367.776 155.175,-359.694 155.491,-370.284 162.027,-367.776"/>
</g>
<!-- Female_T10\n Classtype = female1\n Name = 7.f2&#45;&gt;backward_link8 -->
<g id="edge14" class="edge"><title>Female_T10\n Classtype = female1\n Name = 7.f2&#45;&gt;backward_link8</title>
<path fill="none" stroke="black" d="M384,-197.712C384,-188.978 384,-180.024 384,-171.956"/>
<polygon fill="black" stroke="black" points="387.5,-171.953 384,-161.953 380.5,-171.953 387.5,-171.953"/>
</g>
<!-- match_contains11&#45;&gt;Female_S13\n Classtype = female1\n Name = 7.f1 -->
<g id="edge34" class="edge"><title>match_contains11&#45;&gt;Female_S13\n Classtype = female1\n Name = 7.f1</title>
<path fill="none" stroke="black" d="M90.8748,-594.44C66.4555,-547.04 9.31968,-418.466 51,-322 56.3162,-309.696 64.5592,-298.41 73.8619,-288.437"/>
<polygon fill="black" stroke="black" points="76.6048,-290.641 81.1512,-281.071 71.6293,-285.717 76.6048,-290.641"/>
</g>
<!-- match_contains12&#45;&gt;Female_S14\n Classtype = female1\n Name = 7.f2 -->
<g id="edge36" class="edge"><title>match_contains12&#45;&gt;Female_S14\n Classtype = female1\n Name = 7.f2</title>
<path fill="none" stroke="black" d="M516.875,-520.46C520.25,-485.436 527,-407.121 527,-341 527,-341 527,-341 527,-242 527,-185.712 513.999,-169.601 481,-124 471.867,-111.379 460.288,-99.5781 448.336,-89.1201"/>
<polygon fill="black" stroke="black" points="450.344,-86.2348 440.449,-82.4466 445.822,-91.5782 450.344,-86.2348"/>
</g>
<!-- Female_S13\n Classtype = female1\n Name = 7.f1&#45;&gt;indirectLink_S3 -->
<g id="edge30" class="edge"><title>Female_S13\n Classtype = female1\n Name = 7.f1&#45;&gt;indirectLink_S3</title>
<path fill="none" stroke="black" d="M148.444,-198.001C150.991,-188.996 153.608,-179.745 155.951,-171.46"/>
<polygon fill="black" stroke="black" points="159.393,-172.149 158.747,-161.574 152.657,-170.244 159.393,-172.149"/>
</g>
</g>
</svg>
