<?xml version="1.0" encoding="UTF-8" standalone="no"?>
<!DOCTYPE svg PUBLIC "-//W3C//DTD SVG 1.1//EN"
 "http://www.w3.org/Graphics/SVG/1.1/DTD/svg11.dtd">
<!-- Generated by graphviz version 2.26.3 (20100126.1600)
 -->
<!-- Title: rule_F2F_run1 Pages: 1 -->
<svg width="444pt" height="442pt"
 viewBox="0.00 0.00 444.00 442.00" xmlns="http://www.w3.org/2000/svg" xmlns:xlink="http://www.w3.org/1999/xlink">
<g id="graph1" class="graph" transform="scale(1 1) rotate(0) translate(4 438)">
<title>rule_F2F_run1</title>
<polygon fill="white" stroke="white" points="-4,5 -4,-438 441,-438 441,5 -4,5"/>
<!-- apply_contains0 -->
<g id="node1" class="node"><title>apply_contains0</title>
<ellipse fill="#fcdb58" stroke="black" cx="321" cy="-143" rx="90.0096" ry="18.3848"/>
<text text-anchor="middle" x="321" y="-139.4" font-family="Times Roman,serif" font-size="14.00">apply_contains0</text>
</g>
<!-- Female_T3\n Classtype = female1\n Name = 2.f -->
<g id="node4" class="node"><title>Female_T3\n Classtype = female1\n Name = 2.f</title>
<ellipse fill="lightblue" stroke="black" cx="321" cy="-44" rx="114.759" ry="43.8406"/>
<text text-anchor="middle" x="321" y="-58.4" font-family="Times Roman,serif" font-size="14.00">Female_T3</text>
<text text-anchor="middle" x="321" y="-40.4" font-family="Times Roman,serif" font-size="14.00"> Classtype = female1</text>
<text text-anchor="middle" x="321" y="-22.4" font-family="Times Roman,serif" font-size="14.00"> Name = 2.f</text>
</g>
<!-- apply_contains0&#45;&gt;Female_T3\n Classtype = female1\n Name = 2.f -->
<g id="edge4" class="edge"><title>apply_contains0&#45;&gt;Female_T3\n Classtype = female1\n Name = 2.f</title>
<path fill="none" stroke="black" d="M321,-124.379C321,-116.81 321,-107.638 321,-98.236"/>
<polygon fill="black" stroke="black" points="324.5,-98.0084 321,-88.0084 317.5,-98.0084 324.5,-98.0084"/>
</g>
<!-- ApplyModel1 -->
<g id="node2" class="node"><title>ApplyModel1</title>
<ellipse fill="#fed017" stroke="black" cx="321" cy="-242" rx="73.0388" ry="18.3848"/>
<text text-anchor="middle" x="321" y="-238.4" font-family="Times Roman,serif" font-size="14.00">ApplyModel1</text>
</g>
<!-- ApplyModel1&#45;&gt;apply_contains0 -->
<g id="edge2" class="edge"><title>ApplyModel1&#45;&gt;apply_contains0</title>
<path fill="none" stroke="black" d="M321,-223.379C321,-208.86 321,-188.439 321,-171.814"/>
<polygon fill="black" stroke="black" points="324.5,-171.538 321,-161.538 317.5,-171.538 324.5,-171.538"/>
</g>
<!-- MatchModel2 -->
<g id="node3" class="node"><title>MatchModel2</title>
<ellipse fill="#e15c34" stroke="black" cx="220" cy="-415" rx="75.8684" ry="18.3848"/>
<text text-anchor="middle" x="220" y="-411.4" font-family="Times Roman,serif" font-size="14.00">MatchModel2</text>
</g>
<!-- match_contains4 -->
<g id="node5" class="node"><title>match_contains4</title>
<ellipse fill="#f798a1" stroke="black" cx="124" cy="-341" rx="94.7523" ry="18.3848"/>
<text text-anchor="middle" x="124" y="-337.4" font-family="Times Roman,serif" font-size="14.00">match_contains4</text>
</g>
<!-- MatchModel2&#45;&gt;match_contains4 -->
<g id="edge10" class="edge"><title>MatchModel2&#45;&gt;match_contains4</title>
<path fill="none" stroke="black" d="M196.761,-397.087C184.354,-387.523 168.907,-375.615 155.441,-365.236"/>
<polygon fill="black" stroke="black" points="157.415,-362.338 147.358,-359.005 153.141,-367.882 157.415,-362.338"/>
</g>
<!-- paired_with6 -->
<g id="node7" class="node"><title>paired_with6</title>
<ellipse fill="lightgray" stroke="black" cx="316" cy="-341" rx="75.1594" ry="18.3848"/>
<text text-anchor="middle" x="316" y="-337.4" font-family="Times Roman,serif" font-size="14.00">paired_with6</text>
</g>
<!-- MatchModel2&#45;&gt;paired_with6 -->
<g id="edge8" class="edge"><title>MatchModel2&#45;&gt;paired_with6</title>
<path fill="none" stroke="black" d="M243.239,-397.087C255.738,-387.452 271.322,-375.439 284.858,-365.005"/>
<polygon fill="black" stroke="black" points="287.192,-367.626 292.975,-358.748 282.918,-362.081 287.192,-367.626"/>
</g>
<!-- Female_S5\n Classtype = female1\n Name = 2.f -->
<g id="node6" class="node"><title>Female_S5\n Classtype = female1\n Name = 2.f</title>
<ellipse fill="lightblue" stroke="black" cx="115" cy="-242" rx="114.759" ry="43.8406"/>
<text text-anchor="middle" x="115" y="-256.4" font-family="Times Roman,serif" font-size="14.00">Female_S5</text>
<text text-anchor="middle" x="115" y="-238.4" font-family="Times Roman,serif" font-size="14.00"> Classtype = female1</text>
<text text-anchor="middle" x="115" y="-220.4" font-family="Times Roman,serif" font-size="14.00"> Name = 2.f</text>
</g>
<!-- match_contains4&#45;&gt;Female_S5\n Classtype = female1\n Name = 2.f -->
<g id="edge12" class="edge"><title>match_contains4&#45;&gt;Female_S5\n Classtype = female1\n Name = 2.f</title>
<path fill="none" stroke="black" d="M122.307,-322.379C121.619,-314.81 120.785,-305.638 119.931,-296.236"/>
<polygon fill="black" stroke="black" points="123.392,-295.65 119.001,-286.008 116.421,-296.284 123.392,-295.65"/>
</g>
<!-- paired_with6&#45;&gt;ApplyModel1 -->
<g id="edge6" class="edge"><title>paired_with6&#45;&gt;ApplyModel1</title>
<path fill="none" stroke="black" d="M316.94,-322.379C317.674,-307.86 318.705,-287.439 319.545,-270.814"/>
<polygon fill="black" stroke="black" points="323.055,-270.701 320.064,-260.538 316.064,-270.348 323.055,-270.701"/>
</g>
</g>
</svg>
