<?xml version="1.0" encoding="UTF-8" standalone="no"?>
<!DOCTYPE svg PUBLIC "-//W3C//DTD SVG 1.1//EN"
 "http://www.w3.org/Graphics/SVG/1.1/DTD/svg11.dtd">
<!-- Generated by graphviz version 2.26.3 (20100126.1600)
 -->
<!-- Title: traceChecker_HSF2SF_trace_checkLHS Pages: 1 -->
<svg width="474pt" height="266pt"
 viewBox="0.00 0.00 474.00 266.00" xmlns="http://www.w3.org/2000/svg" xmlns:xlink="http://www.w3.org/1999/xlink">
<g id="graph1" class="graph" transform="scale(1 1) rotate(0) translate(4 262)">
<title>traceChecker_HSF2SF_trace_checkLHS</title>
<polygon fill="white" stroke="white" points="-4,5 -4,-262 471,-262 471,5 -4,5"/>
<!-- MT_pre__Female_T0\n Label 4 -->
<g id="node1" class="node"><title>MT_pre__Female_T0\n Label 4</title>
<ellipse fill="lightblue" stroke="black" cx="112" cy="-227" rx="111.016" ry="31.1127"/>
<text text-anchor="middle" x="112" y="-232.4" font-family="Times Roman,serif" font-size="14.00">MT_pre__Female_T0</text>
<text text-anchor="middle" x="112" y="-214.4" font-family="Times Roman,serif" font-size="14.00"> Label 4</text>
</g>
<!-- MT_pre__trace_link5\n Label 6 -->
<g id="node6" class="node"><title>MT_pre__trace_link5\n Label 6</title>
<ellipse fill="#eedd82" stroke="black" cx="112" cy="-129" rx="111.93" ry="31.1127"/>
<text text-anchor="middle" x="112" y="-134.4" font-family="Times Roman,serif" font-size="14.00">MT_pre__trace_link5</text>
<text text-anchor="middle" x="112" y="-116.4" font-family="Times Roman,serif" font-size="14.00"> Label 6</text>
</g>
<!-- MT_pre__Female_T0\n Label 4&#45;&gt;MT_pre__trace_link5\n Label 6 -->
<g id="edge2" class="edge"><title>MT_pre__Female_T0\n Label 4&#45;&gt;MT_pre__trace_link5\n Label 6</title>
<path fill="none" stroke="black" d="M112,-195.992C112,-187.859 112,-178.959 112,-170.378"/>
<polygon fill="black" stroke="black" points="115.5,-170.142 112,-160.142 108.5,-170.142 115.5,-170.142"/>
</g>
<!-- MT_pre__Female_S1\n Label 2 -->
<g id="node2" class="node"><title>MT_pre__Female_S1\n Label 2</title>
<ellipse fill="lightblue" stroke="black" cx="112" cy="-31" rx="111.016" ry="31.1127"/>
<text text-anchor="middle" x="112" y="-36.4" font-family="Times Roman,serif" font-size="14.00">MT_pre__Female_S1</text>
<text text-anchor="middle" x="112" y="-18.4" font-family="Times Roman,serif" font-size="14.00"> Label 2</text>
</g>
<!-- MT_pre__Station_S2\n Label 1 -->
<g id="node3" class="node"><title>MT_pre__Station_S2\n Label 1</title>
<ellipse fill="lightblue" stroke="black" cx="354" cy="-31" rx="111.222" ry="31.1127"/>
<text text-anchor="middle" x="354" y="-36.4" font-family="Times Roman,serif" font-size="14.00">MT_pre__Station_S2</text>
<text text-anchor="middle" x="354" y="-18.4" font-family="Times Roman,serif" font-size="14.00"> Label 1</text>
</g>
<!-- MT_pre__Station_T3\n Label 3 -->
<g id="node4" class="node"><title>MT_pre__Station_T3\n Label 3</title>
<ellipse fill="lightblue" stroke="black" cx="354" cy="-227" rx="111.222" ry="31.1127"/>
<text text-anchor="middle" x="354" y="-232.4" font-family="Times Roman,serif" font-size="14.00">MT_pre__Station_T3</text>
<text text-anchor="middle" x="354" y="-214.4" font-family="Times Roman,serif" font-size="14.00"> Label 3</text>
</g>
<!-- MT_pre__trace_link4\n Label 5 -->
<g id="node5" class="node"><title>MT_pre__trace_link4\n Label 5</title>
<ellipse fill="#eedd82" stroke="black" cx="354" cy="-129" rx="111.93" ry="31.1127"/>
<text text-anchor="middle" x="354" y="-134.4" font-family="Times Roman,serif" font-size="14.00">MT_pre__trace_link4</text>
<text text-anchor="middle" x="354" y="-116.4" font-family="Times Roman,serif" font-size="14.00"> Label 5</text>
</g>
<!-- MT_pre__Station_T3\n Label 3&#45;&gt;MT_pre__trace_link4\n Label 5 -->
<g id="edge4" class="edge"><title>MT_pre__Station_T3\n Label 3&#45;&gt;MT_pre__trace_link4\n Label 5</title>
<path fill="none" stroke="black" d="M354,-195.992C354,-187.859 354,-178.959 354,-170.378"/>
<polygon fill="black" stroke="black" points="357.5,-170.142 354,-160.142 350.5,-170.142 357.5,-170.142"/>
</g>
<!-- MT_pre__trace_link4\n Label 5&#45;&gt;MT_pre__Station_S2\n Label 1 -->
<g id="edge6" class="edge"><title>MT_pre__trace_link4\n Label 5&#45;&gt;MT_pre__Station_S2\n Label 1</title>
<path fill="none" stroke="black" d="M354,-97.9922C354,-89.8594 354,-80.9587 354,-72.3777"/>
<polygon fill="black" stroke="black" points="357.5,-72.1424 354,-62.1425 350.5,-72.1425 357.5,-72.1424"/>
</g>
<!-- MT_pre__trace_link5\n Label 6&#45;&gt;MT_pre__Female_S1\n Label 2 -->
<g id="edge8" class="edge"><title>MT_pre__trace_link5\n Label 6&#45;&gt;MT_pre__Female_S1\n Label 2</title>
<path fill="none" stroke="black" d="M112,-97.9922C112,-89.8594 112,-80.9587 112,-72.3777"/>
<polygon fill="black" stroke="black" points="115.5,-72.1424 112,-62.1425 108.5,-72.1425 115.5,-72.1424"/>
</g>
</g>
</svg>
